<svg width="159" height="33" viewBox="0 0 159 33" fill="none" xmlns="http://www.w3.org/2000/svg">
<rect x="0.5" y="0.5" width="158" height="32" rx="7.5" fill="#0C101E"/>
<rect x="0.5" y="0.5" width="158" height="32" rx="7.5" stroke="#3E4D62"/>
<path d="M20.5945 22.169C19.8089 22.1657 19.1378 21.9586 18.581 21.5476C18.0241 21.1366 17.5982 20.5384 17.3033 19.7528C17.0083 18.9673 16.8608 18.0211 16.8608 16.9141C16.8608 15.8104 17.0083 14.8674 17.3033 14.0852C17.6016 13.303 18.0291 12.7064 18.5859 12.2955C19.1461 11.8845 19.8156 11.679 20.5945 11.679C21.3733 11.679 22.0412 11.8861 22.598 12.3004C23.1548 12.7114 23.5807 13.308 23.8757 14.0902C24.174 14.8691 24.3232 15.8104 24.3232 16.9141C24.3232 18.0244 24.1757 18.9723 23.8807 19.7578C23.5857 20.54 23.1598 21.1383 22.603 21.5526C22.0462 21.9635 21.3767 22.169 20.5945 22.169ZM20.5945 20.8416C21.2839 20.8416 21.8224 20.5052 22.2102 19.8324C22.6013 19.1596 22.7969 18.1868 22.7969 16.9141C22.7969 16.0689 22.7074 15.3546 22.5284 14.7713C22.3527 14.1847 22.0992 13.7405 21.7678 13.4389C21.4396 13.134 21.0485 12.9815 20.5945 12.9815C19.9084 12.9815 19.3698 13.3196 18.9787 13.9957C18.5876 14.6719 18.3904 15.6446 18.3871 16.9141C18.3871 17.7625 18.4749 18.4801 18.6506 19.0668C18.8295 19.6501 19.0831 20.0926 19.4112 20.3942C19.7393 20.6925 20.1338 20.8416 20.5945 20.8416ZM29.9846 11.3409L26.7033 23.5312H25.3759L28.6571 11.3409H29.9846ZM34.5882 22.1392C33.9651 22.1392 33.405 22.0199 32.9078 21.7812C32.414 21.5393 32.0196 21.2079 31.7246 20.7869C31.4296 20.366 31.2722 19.8854 31.2523 19.3452H32.7438C32.7802 19.7827 32.9741 20.1423 33.3255 20.424C33.6768 20.7057 34.0977 20.8466 34.5882 20.8466C34.9793 20.8466 35.3257 20.7571 35.6273 20.5781C35.9322 20.3958 36.1709 20.1456 36.3432 19.8274C36.5189 19.5092 36.6067 19.1463 36.6067 18.7386C36.6067 18.3243 36.5172 17.9548 36.3382 17.63C36.1593 17.3052 35.9123 17.05 35.5975 16.8643C35.2859 16.6787 34.928 16.5843 34.5236 16.581C34.2154 16.581 33.9055 16.634 33.5939 16.7401C33.2824 16.8461 33.0305 16.9853 32.8382 17.1577L31.4313 16.9489L32.003 11.8182H37.601V13.1357H33.2807L32.9576 15.9844H33.0172C33.2161 15.7921 33.4796 15.6314 33.8077 15.5021C34.1391 15.3729 34.4938 15.3082 34.8716 15.3082C35.4914 15.3082 36.0433 15.4557 36.5272 15.7507C37.0144 16.0457 37.3972 16.4484 37.6756 16.9588C37.9573 17.4659 38.0965 18.0492 38.0932 18.7088C38.0965 19.3684 37.9474 19.9567 37.6458 20.4737C37.3475 20.9908 36.9332 21.3984 36.4029 21.6967C35.8759 21.9917 35.271 22.1392 34.5882 22.1392Z" fill="#D8D8D8"/>
<path d="M49.786 10.844C50.0008 10.1388 50.9992 10.1388 51.214 10.844L52.0227 13.499C52.1185 13.8132 52.4083 14.0279 52.7367 14.0279H55.4513C56.1627 14.0279 56.4708 14.9285 55.9086 15.3642L53.6313 17.1291C53.3864 17.3188 53.2842 17.6402 53.3745 17.9365L54.2245 20.727C54.4366 21.4232 53.6286 21.9803 53.0533 21.5345L50.9572 19.9101C50.6881 19.7015 50.3119 19.7015 50.0428 19.9101L47.9467 21.5345C47.3714 21.9803 46.5634 21.4232 46.7755 20.727L47.6255 17.9365C47.7158 17.6402 47.6136 17.3188 47.3687 17.1291L45.0914 15.3642C44.5292 14.9285 44.8373 14.0279 45.5487 14.0279H48.2633C48.5917 14.0279 48.8815 13.8132 48.9773 13.499L49.786 10.844Z" fill="#D8D8D8"/>
<line x1="70.5" y1="9" x2="70.5" y2="24" stroke="#3E4D62" stroke-linecap="round"/>
<path d="M88.5 11.084C89.3409 11.084 90.149 11.4098 90.7547 11.9932C91.3603 12.5765 91.7163 13.3718 91.7478 14.2121L91.75 14.334H92.2917C92.565 14.3339 92.8282 14.4371 93.0286 14.623C93.229 14.8088 93.3518 15.0635 93.3723 15.3361L93.375 15.4173V20.834C93.3751 21.1073 93.2719 21.3705 93.086 21.5709C92.9002 21.7714 92.6455 21.8941 92.3729 21.9146L92.2917 21.9173H84.7083C84.435 21.9174 84.1718 21.8142 83.9714 21.6283C83.771 21.4425 83.6482 21.1878 83.6277 20.9152L83.625 20.834V15.4173C83.6249 15.144 83.7281 14.8808 83.914 14.6804C84.0998 14.4799 84.3545 14.3572 84.6271 14.3367L84.7083 14.334H85.25C85.25 13.472 85.5924 12.6454 86.2019 12.0359C86.8114 11.4264 87.638 11.084 88.5 11.084ZM92.2917 15.4173H84.7083V20.834H92.2917V15.4173ZM88.5 16.5007C88.7311 16.5007 88.9561 16.5747 89.1421 16.7117C89.3282 16.8487 89.4655 17.0417 89.5341 17.2623C89.6027 17.483 89.599 17.7198 89.5235 17.9381C89.4479 18.1565 89.3045 18.345 89.1143 18.4761L89.0417 18.5222V19.209C89.0415 19.347 88.9886 19.4798 88.8939 19.5802C88.7991 19.6806 88.6696 19.741 88.5317 19.7491C88.3939 19.7572 88.2582 19.7124 88.1523 19.6238C88.0465 19.5351 87.9784 19.4095 87.9621 19.2724L87.9583 19.209V18.5222C87.7518 18.4029 87.5904 18.2189 87.4992 17.9985C87.4079 17.7782 87.3919 17.5339 87.4536 17.3036C87.5154 17.0732 87.6514 16.8697 87.8405 16.7245C88.0297 16.5794 88.2615 16.5007 88.5 16.5007ZM88.5 12.1673C87.9254 12.1673 87.3743 12.3956 86.9679 12.8019C86.5616 13.2082 86.3333 13.7593 86.3333 14.334H90.6667C90.6667 13.7593 90.4384 13.2082 90.0321 12.8019C89.6257 12.3956 89.0746 12.1673 88.5 12.1673Z" fill="#D8D8D8"/>
<path d="M104.192 22V11.8182H105.728V20.6776H110.342V22H104.192ZM116.812 18.8331V14.3636H118.304V22H116.842V20.6776H116.763C116.587 21.0852 116.305 21.425 115.917 21.6967C115.533 21.9652 115.054 22.0994 114.481 22.0994C113.99 22.0994 113.556 21.9917 113.178 21.7763C112.803 21.5575 112.508 21.2344 112.293 20.8068C112.081 20.3793 111.975 19.8506 111.975 19.2209V14.3636H113.461V19.0419C113.461 19.5623 113.606 19.9766 113.894 20.2848C114.182 20.593 114.557 20.7472 115.017 20.7472C115.296 20.7472 115.573 20.6776 115.848 20.5384C116.126 20.3991 116.357 20.1887 116.539 19.907C116.724 19.6252 116.816 19.2673 116.812 18.8331ZM121.668 19.4098L121.658 17.5952H121.917L124.959 14.3636H126.739L123.269 18.0426H123.035L121.668 19.4098ZM120.301 22V11.8182H121.788V22H120.301ZM125.123 22L122.389 18.3707L123.413 17.3317L126.948 22H125.123ZM132.931 18.8331V14.3636H134.423V22H132.961V20.6776H132.882C132.706 21.0852 132.424 21.425 132.036 21.6967C131.652 21.9652 131.173 22.0994 130.6 22.0994C130.109 22.0994 129.675 21.9917 129.297 21.7763C128.923 21.5575 128.628 21.2344 128.412 20.8068C128.2 20.3793 128.094 19.8506 128.094 19.2209V14.3636H129.581V19.0419C129.581 19.5623 129.725 19.9766 130.013 20.2848C130.301 20.593 130.676 20.7472 131.137 20.7472C131.415 20.7472 131.692 20.6776 131.967 20.5384C132.245 20.3991 132.476 20.1887 132.658 19.907C132.844 19.6252 132.935 19.2673 132.931 18.8331ZM142.142 16.228L140.795 16.4666C140.739 16.2943 140.649 16.1302 140.527 15.9744C140.407 15.8187 140.245 15.6911 140.04 15.5916C139.834 15.4922 139.577 15.4425 139.269 15.4425C138.848 15.4425 138.497 15.5369 138.215 15.7259C137.933 15.9115 137.792 16.1518 137.792 16.4467C137.792 16.7019 137.887 16.9074 138.076 17.0632C138.265 17.219 138.57 17.3466 138.991 17.446L140.204 17.7244C140.906 17.8868 141.43 18.1371 141.775 18.4751C142.119 18.8132 142.292 19.2524 142.292 19.7926C142.292 20.25 142.159 20.6577 141.894 21.0156C141.632 21.3703 141.266 21.6487 140.795 21.8509C140.328 22.053 139.786 22.1541 139.169 22.1541C138.314 22.1541 137.617 21.9718 137.076 21.6072C136.536 21.2393 136.205 20.7173 136.082 20.0412L137.519 19.8224C137.608 20.197 137.792 20.4804 138.071 20.6726C138.349 20.8615 138.712 20.956 139.16 20.956C139.647 20.956 140.036 20.8549 140.328 20.6527C140.62 20.4472 140.765 20.197 140.765 19.902C140.765 19.6634 140.676 19.4628 140.497 19.3004C140.321 19.138 140.051 19.0154 139.687 18.9325L138.394 18.6491C137.681 18.4867 137.154 18.2282 136.813 17.8736C136.475 17.5189 136.306 17.0698 136.306 16.5263C136.306 16.0755 136.432 15.6811 136.684 15.343C136.936 15.005 137.284 14.7415 137.728 14.5526C138.172 14.3603 138.681 14.2642 139.254 14.2642C140.079 14.2642 140.729 14.4432 141.203 14.8011C141.677 15.1558 141.99 15.6314 142.142 16.228Z" fill="#D8D8D8"/>
</svg>
