<svg width="130" height="83" viewBox="0 0 130 83" fill="none" xmlns="http://www.w3.org/2000/svg">
<rect x="48.25" y="0.75" width="33.5" height="33.5" rx="16.75" fill="#312811"/>
<rect x="48.25" y="0.75" width="33.5" height="33.5" rx="16.75" stroke="#FFBA00" stroke-width="1.5"/>
<path d="M58.6 24C58.16 24 57.7835 23.841 57.4704 23.5231C57.1573 23.2051 57.0005 22.8224 57 22.375V12.625C57 12.1781 57.1568 11.7957 57.4704 11.4777C57.784 11.1598 58.1605 11.0005 58.6 11H62.74C62.9533 11 63.1568 11.0406 63.3504 11.1219C63.544 11.2031 63.7139 11.3182 63.86 11.4672L65 12.625H71.4C71.84 12.625 72.2168 12.7842 72.5304 13.1027C72.844 13.4212 73.0005 13.8037 73 14.25V22.375C73 22.8219 72.8435 23.2046 72.5304 23.5231C72.2173 23.8416 71.8405 24.0005 71.4 24H58.6ZM58.6 22.375H71.4V14.25H64.34L62.74 12.625H58.6V22.375Z" fill="#FFBA00"/>
<path d="M9.88432 57V46.8182H11.1173V51.8693H11.2366L15.8105 46.8182H17.4213L13.1457 51.4119L17.4213 57H15.9298L12.39 52.267L11.1173 53.6989V57H9.88432ZM21.1052 57.179C20.6213 57.179 20.1821 57.0878 19.7877 56.9055C19.3933 56.7199 19.0801 56.4531 18.8481 56.1051C18.6161 55.7538 18.5001 55.3295 18.5001 54.8324C18.5001 54.3949 18.5863 54.0402 18.7586 53.7685C18.931 53.4934 19.1613 53.2779 19.4497 53.1222C19.738 52.9664 20.0562 52.8504 20.4042 52.7741C20.7555 52.6946 21.1085 52.6316 21.4632 52.5852C21.9272 52.5256 22.3034 52.4808 22.5917 52.451C22.8834 52.4179 23.0955 52.3632 23.2281 52.2869C23.364 52.2107 23.4319 52.0781 23.4319 51.8892V51.8494C23.4319 51.3589 23.2977 50.9777 23.0292 50.706C22.7641 50.4342 22.3614 50.2983 21.8211 50.2983C21.261 50.2983 20.8218 50.4209 20.5036 50.6662C20.1855 50.9115 19.9617 51.1733 19.8325 51.4517L18.7188 51.054C18.9177 50.59 19.1829 50.2287 19.5143 49.9702C19.849 49.7083 20.2136 49.526 20.608 49.4233C21.0058 49.3172 21.3969 49.2642 21.7813 49.2642C22.0266 49.2642 22.3083 49.294 22.6265 49.3537C22.948 49.41 23.2579 49.5277 23.5562 49.7067C23.8578 49.8857 24.108 50.1558 24.3069 50.517C24.5058 50.8783 24.6052 51.3622 24.6052 51.9688V57H23.4319V55.9659H23.3722C23.2927 56.1316 23.1601 56.3089 22.9745 56.4979C22.7889 56.6868 22.542 56.8475 22.2338 56.9801C21.9255 57.1127 21.5493 57.179 21.1052 57.179ZM21.2842 56.125C21.7482 56.125 22.1393 56.0339 22.4575 55.8516C22.779 55.6693 23.0209 55.4339 23.1833 55.1456C23.349 54.8572 23.4319 54.554 23.4319 54.2358V53.1619C23.3822 53.2216 23.2728 53.2763 23.1038 53.326C22.9381 53.3724 22.7458 53.4138 22.5271 53.4503C22.3116 53.4834 22.1012 53.5133 21.8957 53.5398C21.6935 53.563 21.5294 53.5829 21.4035 53.5994C21.0986 53.6392 20.8135 53.7038 20.5484 53.7933C20.2865 53.8795 20.0744 54.0104 19.912 54.1861C19.7529 54.3584 19.6734 54.5937 19.6734 54.892C19.6734 55.2997 19.8242 55.608 20.1258 55.8168C20.4307 56.0223 20.8169 56.125 21.2842 56.125ZM31.5592 53.8778V49.3636H32.7325V57H31.5592V55.7074H31.4797C31.3007 56.0952 31.0223 56.425 30.6444 56.6967C30.2666 56.9652 29.7893 57.0994 29.2126 57.0994C28.7354 57.0994 28.3111 56.995 27.9399 56.7862C27.5687 56.5741 27.277 56.2559 27.0649 55.8317C26.8528 55.4041 26.7467 54.8655 26.7467 54.2159V49.3636H27.92V54.1364C27.92 54.6932 28.0758 55.1373 28.3873 55.4688C28.7022 55.8002 29.1032 55.9659 29.5905 55.9659C29.8821 55.9659 30.1788 55.8913 30.4804 55.7422C30.7853 55.593 31.0405 55.3643 31.246 55.0561C31.4548 54.7479 31.5592 54.3551 31.5592 53.8778ZM40.2906 51.0739L39.2366 51.3722C39.1703 51.1965 39.0725 51.0258 38.9433 50.8601C38.8173 50.6911 38.645 50.5518 38.4262 50.4425C38.2075 50.3331 37.9274 50.2784 37.586 50.2784C37.1187 50.2784 36.7293 50.3861 36.4177 50.6016C36.1095 50.8137 35.9553 51.0838 35.9553 51.4119C35.9553 51.7036 36.0614 51.9339 36.2735 52.103C36.4856 52.272 36.8171 52.4129 37.2678 52.5256L38.4014 52.804C39.0841 52.9697 39.5929 53.2232 39.9276 53.5646C40.2624 53.9027 40.4298 54.3385 40.4298 54.8722C40.4298 55.3097 40.3038 55.7008 40.0519 56.0455C39.8034 56.3902 39.4553 56.6619 39.0079 56.8608C38.5605 57.0597 38.0401 57.1591 37.4468 57.1591C36.6679 57.1591 36.0233 56.9901 35.5129 56.652C35.0025 56.3139 34.6793 55.8201 34.5434 55.1705L35.657 54.892C35.7631 55.303 35.9636 55.6113 36.2586 55.8168C36.5569 56.0223 36.9463 56.125 37.4269 56.125C37.9738 56.125 38.408 56.009 38.7295 55.777C39.0543 55.5417 39.2167 55.2599 39.2167 54.9318C39.2167 54.6667 39.1239 54.4446 38.9383 54.2656C38.7527 54.0833 38.4677 53.9474 38.0832 53.858L36.8105 53.5597C36.1111 53.3939 35.5974 53.1371 35.2693 52.7891C34.9445 52.4377 34.782 51.9986 34.782 51.4716C34.782 51.0407 34.903 50.6596 35.145 50.3281C35.3902 49.9967 35.7233 49.7365 36.1443 49.5476C36.5685 49.3587 37.0491 49.2642 37.586 49.2642C38.3417 49.2642 38.935 49.4299 39.3659 49.7614C39.8 50.0928 40.1083 50.5303 40.2906 51.0739ZM45.517 49.3636V50.358H41.5596V49.3636H45.517ZM42.713 47.5341H43.8863V54.8125C43.8863 55.1439 43.9343 55.3925 44.0305 55.5582C44.1299 55.7206 44.2558 55.83 44.4083 55.8864C44.5641 55.9394 44.7281 55.9659 44.9005 55.9659C45.0297 55.9659 45.1358 55.9593 45.2187 55.946C45.3015 55.9295 45.3678 55.9162 45.4175 55.9062L45.6562 56.9602C45.5766 56.9901 45.4656 57.0199 45.3231 57.0497C45.1805 57.0829 44.9999 57.0994 44.7812 57.0994C44.4497 57.0994 44.1249 57.0282 43.8067 56.8857C43.4919 56.7431 43.23 56.526 43.0212 56.2344C42.8157 55.9427 42.713 55.5748 42.713 55.1307V47.5341ZM52.0944 53.8778V49.3636H53.2677V57H52.0944V55.7074H52.0148C51.8358 56.0952 51.5574 56.425 51.1796 56.6967C50.8018 56.9652 50.3245 57.0994 49.7478 57.0994C49.2705 57.0994 48.8463 56.995 48.4751 56.7862C48.1038 56.5741 47.8122 56.2559 47.6001 55.8317C47.3879 55.4041 47.2819 54.8655 47.2819 54.2159V49.3636H48.4552V54.1364C48.4552 54.6932 48.6109 55.1373 48.9225 55.4688C49.2374 55.8002 49.6384 55.9659 50.1256 55.9659C50.4173 55.9659 50.7139 55.8913 51.0155 55.7422C51.3205 55.593 51.5757 55.3643 51.7812 55.0561C51.99 54.7479 52.0944 54.3551 52.0944 53.8778ZM62.6752 49.3636V50.358H58.7178V49.3636H62.6752ZM59.8712 47.5341H61.0445V54.8125C61.0445 55.1439 61.0925 55.3925 61.1887 55.5582C61.2881 55.7206 61.414 55.83 61.5665 55.8864C61.7223 55.9394 61.8863 55.9659 62.0587 55.9659C62.1879 55.9659 62.294 55.9593 62.3769 55.946C62.4597 55.9295 62.526 55.9162 62.5757 55.9062L62.8144 56.9602C62.7348 56.9901 62.6238 57.0199 62.4813 57.0497C62.3387 57.0829 62.1581 57.0994 61.9394 57.0994C61.6079 57.0994 61.2831 57.0282 60.9649 56.8857C60.6501 56.7431 60.3882 56.526 60.1794 56.2344C59.9739 55.9427 59.8712 55.5748 59.8712 55.1307V47.5341ZM66.6872 57.179C66.2033 57.179 65.7642 57.0878 65.3698 56.9055C64.9753 56.7199 64.6621 56.4531 64.4301 56.1051C64.1981 55.7538 64.0821 55.3295 64.0821 54.8324C64.0821 54.3949 64.1683 54.0402 64.3406 53.7685C64.513 53.4934 64.7433 53.2779 65.0317 53.1222C65.32 52.9664 65.6382 52.8504 65.9862 52.7741C66.3376 52.6946 66.6905 52.6316 67.0452 52.5852C67.5092 52.5256 67.8854 52.4808 68.1737 52.451C68.4654 52.4179 68.6775 52.3632 68.8101 52.2869C68.946 52.2107 69.0139 52.0781 69.0139 51.8892V51.8494C69.0139 51.3589 68.8797 50.9777 68.6112 50.706C68.3461 50.4342 67.9434 50.2983 67.4031 50.2983C66.843 50.2983 66.4039 50.4209 66.0857 50.6662C65.7675 50.9115 65.5438 51.1733 65.4145 51.4517L64.3009 51.054C64.4997 50.59 64.7649 50.2287 65.0963 49.9702C65.4311 49.7083 65.7957 49.526 66.1901 49.4233C66.5878 49.3172 66.9789 49.2642 67.3634 49.2642C67.6086 49.2642 67.8904 49.294 68.2085 49.3537C68.53 49.41 68.8399 49.5277 69.1382 49.7067C69.4398 49.8857 69.6901 50.1558 69.8889 50.517C70.0878 50.8783 70.1872 51.3622 70.1872 51.9688V57H69.0139V55.9659H68.9543C68.8747 56.1316 68.7422 56.3089 68.5566 56.4979C68.3709 56.6868 68.124 56.8475 67.8158 56.9801C67.5075 57.1127 67.1314 57.179 66.6872 57.179ZM66.8662 56.125C67.3302 56.125 67.7213 56.0339 68.0395 55.8516C68.361 55.6693 68.603 55.4339 68.7654 55.1456C68.9311 54.8572 69.0139 54.554 69.0139 54.2358V53.1619C68.9642 53.2216 68.8548 53.2763 68.6858 53.326C68.5201 53.3724 68.3279 53.4138 68.1091 53.4503C67.8937 53.4834 67.6832 53.5133 67.4777 53.5398C67.2755 53.563 67.1115 53.5829 66.9855 53.5994C66.6806 53.6392 66.3956 53.7038 66.1304 53.7933C65.8686 53.8795 65.6565 54.0104 65.4941 54.1861C65.335 54.3584 65.2554 54.5937 65.2554 54.892C65.2554 55.2997 65.4062 55.608 65.7078 55.8168C66.0128 56.0223 66.3989 56.125 66.8662 56.125ZM74.5759 57.179C74.092 57.179 73.6528 57.0878 73.2584 56.9055C72.864 56.7199 72.5508 56.4531 72.3188 56.1051C72.0868 55.7538 71.9708 55.3295 71.9708 54.8324C71.9708 54.3949 72.057 54.0402 72.2293 53.7685C72.4017 53.4934 72.632 53.2779 72.9204 53.1222C73.2087 52.9664 73.5269 52.8504 73.8749 52.7741C74.2262 52.6946 74.5792 52.6316 74.9339 52.5852C75.3979 52.5256 75.7741 52.4808 76.0624 52.451C76.3541 52.4179 76.5662 52.3632 76.6988 52.2869C76.8347 52.2107 76.9026 52.0781 76.9026 51.8892V51.8494C76.9026 51.3589 76.7684 50.9777 76.4999 50.706C76.2348 50.4342 75.8321 50.2983 75.2918 50.2983C74.7317 50.2983 74.2925 50.4209 73.9743 50.6662C73.6562 50.9115 73.4324 51.1733 73.3032 51.4517L72.1895 51.054C72.3884 50.59 72.6536 50.2287 72.985 49.9702C73.3198 49.7083 73.6843 49.526 74.0787 49.4233C74.4765 49.3172 74.8676 49.2642 75.252 49.2642C75.4973 49.2642 75.779 49.294 76.0972 49.3537C76.4187 49.41 76.7286 49.5277 77.0269 49.7067C77.3285 49.8857 77.5787 50.1558 77.7776 50.517C77.9765 50.8783 78.0759 51.3622 78.0759 51.9688V57H76.9026V55.9659H76.843C76.7634 56.1316 76.6308 56.3089 76.4452 56.4979C76.2596 56.6868 76.0127 56.8475 75.7045 56.9801C75.3962 57.1127 75.02 57.179 74.5759 57.179ZM74.7549 56.125C75.2189 56.125 75.61 56.0339 75.9282 55.8516C76.2497 55.6693 76.4916 55.4339 76.654 55.1456C76.8198 54.8572 76.9026 54.554 76.9026 54.2358V53.1619C76.8529 53.2216 76.7435 53.2763 76.5745 53.326C76.4088 53.3724 76.2165 53.4138 75.9978 53.4503C75.7823 53.4834 75.5719 53.5133 75.3664 53.5398C75.1642 53.563 75.0001 53.5829 74.8742 53.5994C74.5693 53.6392 74.2842 53.7038 74.0191 53.7933C73.7573 53.8795 73.5451 54.0104 73.3827 54.1861C73.2236 54.3584 73.1441 54.5937 73.1441 54.892C73.1441 55.2997 73.2949 55.608 73.5965 55.8168C73.9014 56.0223 74.2876 56.125 74.7549 56.125ZM85.6265 51.0739L84.5725 51.3722C84.5062 51.1965 84.4085 51.0258 84.2792 50.8601C84.1533 50.6911 83.9809 50.5518 83.7622 50.4425C83.5434 50.3331 83.2633 50.2784 82.922 50.2784C82.4546 50.2784 82.0652 50.3861 81.7536 50.6016C81.4454 50.8137 81.2913 51.0838 81.2913 51.4119C81.2913 51.7036 81.3973 51.9339 81.6095 52.103C81.8216 52.272 82.153 52.4129 82.6038 52.5256L83.7373 52.804C84.4201 52.9697 84.9288 53.2232 85.2636 53.5646C85.5983 53.9027 85.7657 54.3385 85.7657 54.8722C85.7657 55.3097 85.6398 55.7008 85.3879 56.0455C85.1393 56.3902 84.7913 56.6619 84.3438 56.8608C83.8964 57.0597 83.376 57.1591 82.7828 57.1591C82.0039 57.1591 81.3592 56.9901 80.8488 56.652C80.3384 56.3139 80.0152 55.8201 79.8794 55.1705L80.993 54.892C81.099 55.303 81.2996 55.6113 81.5945 55.8168C81.8928 56.0223 82.2823 56.125 82.7629 56.125C83.3097 56.125 83.7439 56.009 84.0654 55.777C84.3902 55.5417 84.5526 55.2599 84.5526 54.9318C84.5526 54.6667 84.4598 54.4446 84.2742 54.2656C84.0886 54.0833 83.8036 53.9474 83.4191 53.858L82.1464 53.5597C81.4471 53.3939 80.9333 53.1371 80.6052 52.7891C80.2804 52.4377 80.118 51.9986 80.118 51.4716C80.118 51.0407 80.239 50.6596 80.4809 50.3281C80.7262 49.9967 81.0593 49.7365 81.4802 49.5476C81.9044 49.3587 82.385 49.2642 82.922 49.2642C83.6776 49.2642 84.2709 49.4299 84.7018 49.7614C85.136 50.0928 85.4442 50.5303 85.6265 51.0739ZM90.8529 49.3636V50.358H86.8955V49.3636H90.8529ZM88.0489 47.5341H89.2222V54.8125C89.2222 55.1439 89.2703 55.3925 89.3664 55.5582C89.4658 55.7206 89.5918 55.83 89.7442 55.8864C89.9 55.9394 90.0641 55.9659 90.2364 55.9659C90.3657 55.9659 90.4717 55.9593 90.5546 55.946C90.6375 55.9295 90.7037 55.9162 90.7535 55.9062L90.9921 56.9602C90.9126 56.9901 90.8015 57.0199 90.659 57.0497C90.5165 57.0829 90.3358 57.0994 90.1171 57.0994C89.7857 57.0994 89.4608 57.0282 89.1427 56.8857C88.8278 56.7431 88.566 56.526 88.3572 56.2344C88.1517 55.9427 88.0489 55.5748 88.0489 55.1307V47.5341ZM94.865 57.179C94.3811 57.179 93.9419 57.0878 93.5475 56.9055C93.1531 56.7199 92.8399 56.4531 92.6079 56.1051C92.3759 55.7538 92.2599 55.3295 92.2599 54.8324C92.2599 54.3949 92.346 54.0402 92.5184 53.7685C92.6907 53.4934 92.9211 53.2779 93.2094 53.1222C93.4978 52.9664 93.816 52.8504 94.164 52.7741C94.5153 52.6946 94.8683 52.6316 95.2229 52.5852C95.6869 52.5256 96.0631 52.4808 96.3515 52.451C96.6431 52.4179 96.8553 52.3632 96.9878 52.2869C97.1237 52.2107 97.1917 52.0781 97.1917 51.8892V51.8494C97.1917 51.3589 97.0574 50.9777 96.789 50.706C96.5238 50.4342 96.1211 50.2983 95.5809 50.2983C95.0207 50.2983 94.5816 50.4209 94.2634 50.6662C93.9452 50.9115 93.7215 51.1733 93.5922 51.4517L92.4786 51.054C92.6775 50.59 92.9426 50.2287 93.2741 49.9702C93.6088 49.7083 93.9734 49.526 94.3678 49.4233C94.7655 49.3172 95.1566 49.2642 95.5411 49.2642C95.7864 49.2642 96.0681 49.294 96.3863 49.3537C96.7078 49.41 97.0177 49.5277 97.316 49.7067C97.6176 49.8857 97.8678 50.1558 98.0667 50.517C98.2655 50.8783 98.365 51.3622 98.365 51.9688V57H97.1917V55.9659H97.132C97.0525 56.1316 96.9199 56.3089 96.7343 56.4979C96.5487 56.6868 96.3018 56.8475 95.9935 56.9801C95.6853 57.1127 95.3091 57.179 94.865 57.179ZM95.0439 56.125C95.508 56.125 95.8991 56.0339 96.2172 55.8516C96.5387 55.6693 96.7807 55.4339 96.9431 55.1456C97.1088 54.8572 97.1917 54.554 97.1917 54.2358V53.1619C97.142 53.2216 97.0326 53.2763 96.8635 53.326C96.6978 53.3724 96.5056 53.4138 96.2868 53.4503C96.0714 53.4834 95.8609 53.5133 95.6555 53.5398C95.4533 53.563 95.2892 53.5829 95.1633 53.5994C94.8583 53.6392 94.5733 53.7038 94.3081 53.7933C94.0463 53.8795 93.8342 54.0104 93.6718 54.1861C93.5127 54.3584 93.4331 54.5937 93.4331 54.892C93.4331 55.2997 93.584 55.608 93.8856 55.8168C94.1905 56.0223 94.5766 56.125 95.0439 56.125ZM103.828 49.3636V50.358H99.8701V49.3636H103.828ZM101.024 47.5341H102.197V54.8125C102.197 55.1439 102.245 55.3925 102.341 55.5582C102.44 55.7206 102.566 55.83 102.719 55.8864C102.875 55.9394 103.039 55.9659 103.211 55.9659C103.34 55.9659 103.446 55.9593 103.529 55.946C103.612 55.9295 103.678 55.9162 103.728 55.9062L103.967 56.9602C103.887 56.9901 103.776 57.0199 103.634 57.0497C103.491 57.0829 103.31 57.0994 103.092 57.0994C102.76 57.0994 102.435 57.0282 102.117 56.8857C101.802 56.7431 101.541 56.526 101.332 56.2344C101.126 55.9427 101.024 55.5748 101.024 55.1307V47.5341ZM110.405 53.8778V49.3636H111.578V57H110.405V55.7074H110.325C110.146 56.0952 109.868 56.425 109.49 56.6967C109.112 56.9652 108.635 57.0994 108.058 57.0994C107.581 57.0994 107.157 56.995 106.786 56.7862C106.414 56.5741 106.123 56.2559 105.911 55.8317C105.698 55.4041 105.592 54.8655 105.592 54.2159V49.3636H106.766V54.1364C106.766 54.6932 106.921 55.1373 107.233 55.4688C107.548 55.8002 107.949 55.9659 108.436 55.9659C108.728 55.9659 109.024 55.8913 109.326 55.7422C109.631 55.593 109.886 55.3643 110.092 55.0561C110.301 54.7479 110.405 54.3551 110.405 53.8778ZM116.611 57.1591C115.974 57.1591 115.413 56.9983 114.925 56.6768C114.438 56.352 114.057 55.8946 113.782 55.3047C113.507 54.7114 113.369 54.0104 113.369 53.2017C113.369 52.3996 113.507 51.7036 113.782 51.1136C114.057 50.5237 114.44 50.0679 114.93 49.7464C115.421 49.425 115.988 49.2642 116.631 49.2642C117.128 49.2642 117.521 49.3471 117.809 49.5128C118.101 49.6752 118.323 49.8608 118.475 50.0696C118.631 50.2751 118.752 50.4441 118.838 50.5767H118.937V46.8182H120.111V57H118.977V55.8267H118.838C118.752 55.9659 118.629 56.1416 118.47 56.3537C118.311 56.5625 118.084 56.7498 117.789 56.9155C117.494 57.0779 117.101 57.1591 116.611 57.1591ZM116.77 56.1051C117.24 56.1051 117.638 55.9825 117.963 55.7372C118.288 55.4886 118.535 55.1456 118.704 54.7081C118.873 54.2673 118.957 53.7585 118.957 53.1818C118.957 52.6117 118.874 52.1129 118.709 51.6854C118.543 51.2545 118.298 50.9197 117.973 50.6811C117.648 50.4392 117.247 50.3182 116.77 50.3182C116.273 50.3182 115.858 50.4458 115.527 50.701C115.199 50.9529 114.952 51.2959 114.786 51.7301C114.624 52.161 114.543 52.6449 114.543 53.1818C114.543 53.7254 114.625 54.2192 114.791 54.6634C114.96 55.1042 115.209 55.4555 115.537 55.7173C115.868 55.9759 116.279 56.1051 116.77 56.1051Z" fill="#FFBA00"/>
<path d="M55.1151 67.3636V79H52.6548V69.6989H52.5866L49.9219 71.3693V69.1875L52.8026 67.3636H55.1151ZM66.6747 66.8182L62.9247 80.75H60.8395L64.5895 66.8182H66.6747ZM75.7713 79.1591C74.9683 79.1591 74.2524 79.0114 73.6236 78.7159C72.9986 78.4205 72.5024 78.0133 72.1349 77.4943C71.7675 76.9754 71.5762 76.3807 71.5611 75.7102H73.9474C73.974 76.161 74.1634 76.5265 74.5156 76.8068C74.8679 77.0871 75.2865 77.2273 75.7713 77.2273C76.1577 77.2273 76.4986 77.142 76.794 76.9716C77.0933 76.7973 77.3262 76.5568 77.4929 76.25C77.6634 75.9394 77.7486 75.5833 77.7486 75.1818C77.7486 74.7727 77.6615 74.4129 77.4872 74.1023C77.3168 73.7917 77.08 73.5492 76.777 73.375C76.474 73.2008 76.1274 73.1117 75.7372 73.108C75.3963 73.108 75.0649 73.178 74.7429 73.3182C74.4247 73.4583 74.1766 73.6496 73.9986 73.892L71.8111 73.5L72.3622 67.3636H79.4759V69.375H74.3906L74.0895 72.2898H74.1577C74.3622 72.0019 74.6709 71.7633 75.0838 71.5739C75.4967 71.3845 75.9588 71.2898 76.4702 71.2898C77.1709 71.2898 77.7959 71.4545 78.3452 71.7841C78.8944 72.1136 79.3281 72.5663 79.6463 73.142C79.9645 73.714 80.1217 74.3731 80.1179 75.1193C80.1217 75.9034 79.9399 76.6004 79.5724 77.2102C79.2088 77.8163 78.6993 78.2936 78.044 78.642C77.3925 78.9867 76.6349 79.1591 75.7713 79.1591Z" fill="#FFBA00"/>
</svg>
