<svg width="164" height="33" viewBox="0 0 164 33" fill="none" xmlns="http://www.w3.org/2000/svg">
<rect x="0.5" y="0.5" width="163" height="32" rx="7.5" fill="#0C101E"/>
<rect x="0.5" y="0.5" width="163" height="32" rx="7.5" stroke="#D8D8D8"/>
<path d="M20.5945 22.169C19.8089 22.1657 19.1378 21.9586 18.581 21.5476C18.0241 21.1366 17.5982 20.5384 17.3033 19.7528C17.0083 18.9673 16.8608 18.0211 16.8608 16.9141C16.8608 15.8104 17.0083 14.8674 17.3033 14.0852C17.6016 13.303 18.0291 12.7064 18.5859 12.2955C19.1461 11.8845 19.8156 11.679 20.5945 11.679C21.3733 11.679 22.0412 11.8861 22.598 12.3004C23.1548 12.7114 23.5807 13.308 23.8757 14.0902C24.174 14.8691 24.3232 15.8104 24.3232 16.9141C24.3232 18.0244 24.1757 18.9723 23.8807 19.7578C23.5857 20.54 23.1598 21.1383 22.603 21.5526C22.0462 21.9635 21.3767 22.169 20.5945 22.169ZM20.5945 20.8416C21.2839 20.8416 21.8224 20.5052 22.2102 19.8324C22.6013 19.1596 22.7969 18.1868 22.7969 16.9141C22.7969 16.0689 22.7074 15.3546 22.5284 14.7713C22.3527 14.1847 22.0992 13.7405 21.7678 13.4389C21.4396 13.134 21.0485 12.9815 20.5945 12.9815C19.9084 12.9815 19.3698 13.3196 18.9787 13.9957C18.5876 14.6719 18.3904 15.6446 18.3871 16.9141C18.3871 17.7625 18.4749 18.4801 18.6506 19.0668C18.8295 19.6501 19.0831 20.0926 19.4112 20.3942C19.7393 20.6925 20.1338 20.8416 20.5945 20.8416ZM29.9846 11.3409L26.7033 23.5312H25.3759L28.6571 11.3409H29.9846ZM34.5882 22.1392C33.9651 22.1392 33.405 22.0199 32.9078 21.7812C32.414 21.5393 32.0196 21.2079 31.7246 20.7869C31.4296 20.366 31.2722 19.8854 31.2523 19.3452H32.7438C32.7802 19.7827 32.9741 20.1423 33.3255 20.424C33.6768 20.7057 34.0977 20.8466 34.5882 20.8466C34.9793 20.8466 35.3257 20.7571 35.6273 20.5781C35.9322 20.3958 36.1709 20.1456 36.3432 19.8274C36.5189 19.5092 36.6067 19.1463 36.6067 18.7386C36.6067 18.3243 36.5172 17.9548 36.3382 17.63C36.1593 17.3052 35.9123 17.05 35.5975 16.8643C35.2859 16.6787 34.928 16.5843 34.5236 16.581C34.2154 16.581 33.9055 16.634 33.5939 16.7401C33.2824 16.8461 33.0305 16.9853 32.8382 17.1577L31.4313 16.9489L32.003 11.8182H37.601V13.1357H33.2807L32.9576 15.9844H33.0172C33.2161 15.7921 33.4796 15.6314 33.8077 15.5021C34.1391 15.3729 34.4938 15.3082 34.8716 15.3082C35.4914 15.3082 36.0433 15.4557 36.5272 15.7507C37.0144 16.0457 37.3972 16.4484 37.6756 16.9588C37.9573 17.4659 38.0965 18.0492 38.0932 18.7088C38.0965 19.3684 37.9474 19.9567 37.6458 20.4737C37.3475 20.9908 36.9332 21.3984 36.4029 21.6967C35.8759 21.9917 35.271 22.1392 34.5882 22.1392Z" fill="#D8D8D8"/>
<path d="M49.786 10.844C50.0008 10.1388 50.9992 10.1388 51.214 10.844L52.0227 13.499C52.1185 13.8132 52.4083 14.0279 52.7367 14.0279H55.4513C56.1627 14.0279 56.4708 14.9285 55.9086 15.3642L53.6313 17.1291C53.3864 17.3188 53.2842 17.6402 53.3745 17.9365L54.2245 20.727C54.4366 21.4232 53.6286 21.9803 53.0533 21.5345L50.9572 19.9101C50.6881 19.7015 50.3119 19.7015 50.0428 19.9101L47.9467 21.5345C47.3714 21.9803 46.5634 21.4232 46.7755 20.727L47.6255 17.9365C47.7158 17.6402 47.6136 17.3188 47.3687 17.1291L45.0914 15.3642C44.5292 14.9285 44.8373 14.0279 45.5487 14.0279H48.2633C48.5917 14.0279 48.8815 13.8132 48.9773 13.499L49.786 10.844Z" fill="#D8D8D8"/>
<line x1="70.5" y1="9" x2="70.5" y2="24" stroke="#D8D8D8" stroke-linecap="round"/>
<g clip-path="url(#clip0_314_2990)">
<path d="M86.889 18.7396V19.5005L86.8932 19.5702C86.912 19.722 86.9882 19.8615 87.1073 19.9599C87.2263 20.0584 87.3799 20.1076 87.5355 20.0984C87.6911 20.0891 87.8373 20.0225 87.9439 19.9117C88.0504 19.801 88.1099 19.6533 88.111 19.5005V18.7396L88.1924 18.6883C88.4076 18.5427 88.5684 18.3346 88.6541 18.0925C88.7397 17.8505 88.7439 17.588 88.6666 17.344C88.5893 17.0999 88.4348 16.8856 88.2248 16.7338C88.0149 16.582 87.7611 16.5 87.5 16.5C87.2305 16.5 86.9694 16.5872 86.7563 16.7482C86.5433 16.9092 86.3897 17.1348 86.3198 17.3891C86.2498 17.6434 86.2686 17.9151 86.3709 18.1592C86.4733 18.4033 86.6561 18.6073 86.889 18.7396Z" fill="#D8D8D8"/>
<path d="M92.9969 15.21C92.9739 14.9085 92.835 14.6254 92.6094 14.4204C92.3838 14.2142 92.0861 14.1004 91.778 14.1004H91.167L91.1649 13.965C91.1294 13.0339 90.7273 12.1531 90.0442 11.507C89.3601 10.861 88.4483 10.5 87.5 10.5C86.5276 10.5 85.5949 10.8794 84.9077 11.5542C84.6445 11.8126 84.4377 12.112 84.2675 12.4289L85.2754 13.119C85.3955 12.8555 85.5605 12.6114 85.7725 12.4033C86.231 11.9531 86.8524 11.6998 87.501 11.6998C88.1496 11.6998 88.7711 11.9531 89.2296 12.4033C89.6881 12.8534 89.9461 13.4636 89.9461 14.1004H83.222L83.1301 14.1035C82.823 14.126 82.5348 14.2624 82.3259 14.4839C82.1159 14.7054 82 14.9977 82 15.3002V21.3002L82.0031 21.3904C82.0261 21.6919 82.165 21.975 82.3906 22.1801C82.6162 22.3862 82.9139 22.5 83.222 22.5H91.778L91.8699 22.4969C92.177 22.4744 92.4652 22.338 92.6741 22.1165C92.8841 21.8939 93 21.6027 93 21.3002V15.3002L92.9969 15.21ZM91.778 21.3002H83.222V15.3002H91.778V21.3002Z" fill="#D8D8D8"/>
</g>
<path d="M103.066 22H101.435L105.099 11.8182H106.874L110.538 22H108.907L106.029 13.6676H105.949L103.066 22ZM103.339 18.0128H108.629V19.3054H103.339V18.0128ZM117.465 14.3636L114.695 22H113.104L110.33 14.3636H111.926L113.86 20.2401H113.94L115.869 14.3636H117.465ZM120.865 22.169C120.381 22.169 119.944 22.0795 119.553 21.9006C119.162 21.7183 118.852 21.4548 118.623 21.1101C118.398 20.7654 118.285 20.3428 118.285 19.8423C118.285 19.4115 118.368 19.0568 118.533 18.7784C118.699 18.5 118.923 18.2796 119.205 18.1172C119.486 17.9548 119.801 17.8321 120.149 17.7493C120.497 17.6664 120.852 17.6035 121.213 17.5604C121.671 17.5073 122.042 17.4643 122.327 17.4311C122.612 17.3946 122.819 17.3366 122.948 17.2571C123.078 17.1776 123.142 17.0483 123.142 16.8693V16.8345C123.142 16.4003 123.02 16.0639 122.774 15.8253C122.532 15.5866 122.171 15.4673 121.69 15.4673C121.19 15.4673 120.796 15.5784 120.507 15.8004C120.222 16.0192 120.025 16.2628 119.916 16.5312L118.519 16.2131C118.684 15.7491 118.926 15.3745 119.244 15.0895C119.566 14.8011 119.935 14.5923 120.353 14.4631C120.771 14.3305 121.21 14.2642 121.671 14.2642C121.975 14.2642 122.299 14.3007 122.64 14.3736C122.985 14.4432 123.306 14.5724 123.604 14.7614C123.906 14.9503 124.153 15.2204 124.345 15.5717C124.537 15.9197 124.634 16.3722 124.634 16.929V22H123.182V20.956H123.122C123.026 21.1482 122.882 21.3371 122.69 21.5227C122.497 21.7083 122.251 21.8625 121.949 21.9851C121.647 22.1077 121.286 22.169 120.865 22.169ZM121.188 20.9759C121.599 20.9759 121.951 20.8946 122.242 20.7322C122.537 20.5698 122.761 20.3577 122.913 20.0959C123.069 19.8307 123.147 19.5473 123.147 19.2457V18.2614C123.094 18.3144 122.991 18.3641 122.839 18.4105C122.69 18.4536 122.519 18.4917 122.327 18.5249C122.135 18.5547 121.947 18.5829 121.765 18.6094C121.583 18.6326 121.43 18.6525 121.308 18.669C121.019 18.7055 120.756 18.7668 120.517 18.853C120.282 18.9392 120.093 19.0634 119.95 19.2259C119.811 19.3849 119.742 19.5971 119.742 19.8622C119.742 20.2301 119.877 20.5085 120.149 20.6974C120.421 20.883 120.767 20.9759 121.188 20.9759ZM130.178 14.3636V15.5568H126.007V14.3636H130.178ZM127.126 12.5341H128.612V19.7578C128.612 20.0462 128.655 20.2633 128.741 20.4091C128.828 20.5516 128.939 20.6494 129.074 20.7024C129.214 20.7521 129.364 20.777 129.527 20.777C129.646 20.777 129.751 20.7687 129.84 20.7521C129.93 20.7356 129.999 20.7223 130.049 20.7124L130.317 21.9403C130.231 21.9735 130.109 22.0066 129.949 22.0398C129.79 22.0762 129.592 22.0961 129.353 22.0994C128.962 22.1061 128.597 22.0365 128.259 21.8906C127.921 21.7448 127.648 21.5194 127.439 21.2145C127.23 20.9096 127.126 20.5268 127.126 20.0661V12.5341ZM136.66 18.8331V14.3636H138.151V22H136.69V20.6776H136.61C136.435 21.0852 136.153 21.425 135.765 21.6967C135.381 21.9652 134.902 22.0994 134.328 22.0994C133.838 22.0994 133.403 21.9917 133.026 21.7763C132.651 21.5575 132.356 21.2344 132.141 20.8068C131.929 20.3793 131.823 19.8506 131.823 19.2209V14.3636H133.309V19.0419C133.309 19.5623 133.453 19.9766 133.742 20.2848C134.03 20.593 134.404 20.7472 134.865 20.7472C135.144 20.7472 135.42 20.6776 135.695 20.5384C135.974 20.3991 136.204 20.1887 136.386 19.907C136.572 19.6252 136.663 19.2673 136.66 18.8331ZM143.007 22.1491C142.391 22.1491 141.841 21.9917 141.357 21.6768C140.876 21.3587 140.498 20.9062 140.223 20.3196C139.951 19.7296 139.816 19.022 139.816 18.1967C139.816 17.3714 139.953 16.6655 140.228 16.0788C140.507 15.4922 140.888 15.0431 141.372 14.7315C141.856 14.42 142.404 14.2642 143.017 14.2642C143.491 14.2642 143.872 14.3438 144.161 14.5028C144.452 14.6586 144.678 14.8409 144.837 15.0497C144.999 15.2585 145.125 15.4425 145.215 15.6016H145.304V11.8182H146.791V22H145.339V20.8118H145.215C145.125 20.9742 144.996 21.1598 144.827 21.3686C144.661 21.5774 144.433 21.7597 144.141 21.9155C143.849 22.0713 143.471 22.1491 143.007 22.1491ZM143.335 20.8814C143.763 20.8814 144.124 20.7687 144.419 20.5433C144.718 20.3146 144.943 19.9981 145.095 19.5938C145.251 19.1894 145.329 18.7187 145.329 18.1818C145.329 17.6515 145.253 17.1875 145.1 16.7898C144.948 16.392 144.724 16.0821 144.429 15.8601C144.134 15.638 143.77 15.527 143.335 15.527C142.888 15.527 142.515 15.643 142.217 15.875C141.919 16.107 141.693 16.4235 141.541 16.8246C141.392 17.2256 141.317 17.678 141.317 18.1818C141.317 18.6922 141.393 19.1513 141.546 19.5589C141.698 19.9666 141.924 20.2898 142.222 20.5284C142.523 20.7637 142.895 20.8814 143.335 20.8814Z" fill="#D8D8D8"/>
<defs>
<clipPath id="clip0_314_2990">
<rect width="11" height="12" fill="white" transform="translate(82 10.5)"/>
</clipPath>
</defs>
</svg>
