<svg width="206" height="33" viewBox="0 0 206 33" fill="none" xmlns="http://www.w3.org/2000/svg">
<rect x="0.5" y="0.5" width="205" height="32" rx="7.5" fill="#311900"/>
<rect x="0.5" y="0.5" width="205" height="32" rx="7.5" stroke="#FF8400"/>
<path d="M17.2753 22V20.8864L20.7206 17.3168C21.0885 16.929 21.3918 16.5893 21.6304 16.2976C21.8724 16.0026 22.053 15.7225 22.1723 15.4574C22.2916 15.1922 22.3513 14.9105 22.3513 14.6122C22.3513 14.2741 22.2718 13.9825 22.1127 13.7372C21.9536 13.4886 21.7365 13.2981 21.4614 13.1655C21.1863 13.0296 20.8764 12.9616 20.5317 12.9616C20.1671 12.9616 19.8489 13.0362 19.5771 13.1854C19.3054 13.3345 19.0966 13.545 18.9507 13.8168C18.8049 14.0885 18.732 14.4067 18.732 14.7713H17.2654C17.2654 14.1515 17.4079 13.6096 17.6929 13.1456C17.978 12.6816 18.3691 12.322 18.8662 12.0668C19.3634 11.8082 19.9285 11.679 20.5615 11.679C21.2012 11.679 21.7646 11.8066 22.2519 12.0618C22.7424 12.3137 23.1252 12.6584 23.4003 13.0959C23.6754 13.5301 23.8129 14.0206 23.8129 14.5675C23.8129 14.9453 23.7417 15.3149 23.5992 15.6761C23.46 16.0374 23.2164 16.4401 22.8683 16.8842C22.5203 17.325 22.0364 17.8603 21.4166 18.4901L19.3932 20.608V20.6825H23.977V22H17.2753ZM29.759 11.3409L26.4777 23.5312H25.1503L28.4316 11.3409H29.759ZM34.3627 22.1392C33.7396 22.1392 33.1794 22.0199 32.6823 21.7812C32.1884 21.5393 31.794 21.2079 31.499 20.7869C31.204 20.366 31.0466 19.8854 31.0267 19.3452H32.5182C32.5547 19.7827 32.7485 20.1423 33.0999 20.424C33.4512 20.7057 33.8721 20.8466 34.3627 20.8466C34.7538 20.8466 35.1001 20.7571 35.4017 20.5781C35.7066 20.3958 35.9453 20.1456 36.1176 19.8274C36.2933 19.5092 36.3811 19.1463 36.3811 18.7386C36.3811 18.3243 36.2916 17.9548 36.1127 17.63C35.9337 17.3052 35.6868 17.05 35.3719 16.8643C35.0603 16.6787 34.7024 16.5843 34.298 16.581C33.9898 16.581 33.6799 16.634 33.3683 16.7401C33.0568 16.8461 32.8049 16.9853 32.6127 17.1577L31.2057 16.9489L31.7774 11.8182H37.3754V13.1357H33.0551L32.732 15.9844H32.7916C32.9905 15.7921 33.254 15.6314 33.5821 15.5021C33.9136 15.3729 34.2682 15.3082 34.646 15.3082C35.2658 15.3082 35.8177 15.4557 36.3016 15.7507C36.7888 16.0457 37.1716 16.4484 37.45 16.9588C37.7317 17.4659 37.8709 18.0492 37.8676 18.7088C37.8709 19.3684 37.7218 19.9567 37.4202 20.4737C37.1219 20.9908 36.7076 21.3984 36.1773 21.6967C35.6503 21.9917 35.0454 22.1392 34.3627 22.1392Z" fill="#FF8400"/>
<path d="M49.786 10.844C50.0008 10.1388 50.9992 10.1388 51.214 10.844L52.0227 13.499C52.1185 13.8132 52.4083 14.0279 52.7367 14.0279H55.4513C56.1627 14.0279 56.4708 14.9285 55.9086 15.3642L53.6313 17.1291C53.3864 17.3188 53.2842 17.6402 53.3745 17.9365L54.2245 20.727C54.4366 21.4232 53.6286 21.9803 53.0533 21.5345L50.9572 19.9101C50.6881 19.7015 50.3119 19.7015 50.0428 19.9101L47.9467 21.5345C47.3714 21.9803 46.5634 21.4232 46.7755 20.727L47.6255 17.9365C47.7158 17.6402 47.6136 17.3188 47.3687 17.1291L45.0914 15.3642C44.5292 14.9285 44.8373 14.0279 45.5487 14.0279H48.2633C48.5917 14.0279 48.8815 13.8132 48.9773 13.499L49.786 10.844Z" fill="#FF8400"/>
<line x1="70.5" y1="9" x2="70.5" y2="24" stroke="#FF8400" stroke-linecap="round"/>
<path d="M88.5 11.084C89.3409 11.084 90.149 11.4098 90.7547 11.9932C91.3603 12.5765 91.7163 13.3718 91.7478 14.2121L91.75 14.334H92.2917C92.565 14.3339 92.8282 14.4371 93.0286 14.623C93.229 14.8088 93.3518 15.0635 93.3723 15.3361L93.375 15.4173V20.834C93.3751 21.1073 93.2719 21.3705 93.086 21.5709C92.9002 21.7714 92.6455 21.8941 92.3729 21.9146L92.2917 21.9173H84.7083C84.435 21.9174 84.1718 21.8142 83.9714 21.6283C83.771 21.4425 83.6482 21.1878 83.6277 20.9152L83.625 20.834V15.4173C83.6249 15.144 83.7281 14.8808 83.914 14.6804C84.0998 14.4799 84.3545 14.3572 84.6271 14.3367L84.7083 14.334H85.25C85.25 13.472 85.5924 12.6454 86.2019 12.0359C86.8114 11.4264 87.638 11.084 88.5 11.084ZM92.2917 15.4173H84.7083V20.834H92.2917V15.4173ZM88.5 16.5007C88.7311 16.5007 88.9561 16.5747 89.1421 16.7117C89.3282 16.8487 89.4655 17.0417 89.5341 17.2623C89.6027 17.483 89.599 17.7198 89.5235 17.9381C89.4479 18.1565 89.3045 18.345 89.1143 18.4761L89.0417 18.5222V19.209C89.0415 19.347 88.9886 19.4798 88.8939 19.5802C88.7991 19.6806 88.6696 19.741 88.5317 19.7491C88.3939 19.7572 88.2582 19.7124 88.1523 19.6238C88.0465 19.5351 87.9784 19.4095 87.9621 19.2724L87.9583 19.209V18.5222C87.7518 18.4029 87.5904 18.2189 87.4992 17.9985C87.4079 17.7782 87.3919 17.5339 87.4536 17.3036C87.5154 17.0732 87.6514 16.8697 87.8405 16.7245C88.0297 16.5794 88.2615 16.5007 88.5 16.5007ZM88.5 12.1673C87.9254 12.1673 87.3743 12.3956 86.9679 12.8019C86.5616 13.2082 86.3333 13.7593 86.3333 14.334H90.6667C90.6667 13.7593 90.4384 13.2082 90.0321 12.8019C89.6257 12.3956 89.0746 12.1673 88.5 12.1673Z" fill="#FF8400"/>
<path d="M104.19 22V11.8182H107.819C108.611 11.8182 109.268 11.9624 109.788 12.2507C110.308 12.5391 110.698 12.9335 110.956 13.4339C111.215 13.9311 111.344 14.4912 111.344 15.1143C111.344 15.7408 111.213 16.3042 110.951 16.8047C110.693 17.3018 110.302 17.6963 109.778 17.9879C109.258 18.2763 108.603 18.4205 107.814 18.4205H105.318V17.1179H107.675C108.175 17.1179 108.581 17.0317 108.893 16.8594C109.205 16.6837 109.433 16.4451 109.579 16.1435C109.725 15.8419 109.798 15.4988 109.798 15.1143C109.798 14.7299 109.725 14.3885 109.579 14.0902C109.433 13.7919 109.203 13.5582 108.888 13.3892C108.576 13.2202 108.166 13.1357 107.655 13.1357H105.726V22H104.19ZM113.026 22V14.3636H114.462V15.5767H114.542C114.681 15.1657 114.926 14.8426 115.278 14.6072C115.632 14.3686 116.033 14.2493 116.481 14.2493C116.574 14.2493 116.683 14.2526 116.809 14.2592C116.938 14.2659 117.039 14.2741 117.112 14.2841V15.706C117.053 15.6894 116.947 15.6712 116.794 15.6513C116.642 15.6281 116.489 15.6165 116.337 15.6165C115.985 15.6165 115.672 15.6911 115.397 15.8402C115.125 15.986 114.91 16.1899 114.751 16.4517C114.592 16.7102 114.512 17.0052 114.512 17.3366V22H113.026ZM121.342 22.1541C120.626 22.1541 120.001 21.9901 119.468 21.6619C118.934 21.3338 118.52 20.8748 118.225 20.2848C117.93 19.6948 117.782 19.0054 117.782 18.2166C117.782 17.4245 117.93 16.7318 118.225 16.1385C118.52 15.5452 118.934 15.0845 119.468 14.7564C120.001 14.4283 120.626 14.2642 121.342 14.2642C122.058 14.2642 122.683 14.4283 123.216 14.7564C123.75 15.0845 124.164 15.5452 124.459 16.1385C124.754 16.7318 124.902 17.4245 124.902 18.2166C124.902 19.0054 124.754 19.6948 124.459 20.2848C124.164 20.8748 123.75 21.3338 123.216 21.6619C122.683 21.9901 122.058 22.1541 121.342 22.1541ZM121.347 20.9062C121.811 20.9062 122.195 20.7836 122.5 20.5384C122.805 20.2931 123.031 19.9666 123.176 19.5589C123.326 19.1513 123.4 18.7022 123.4 18.2116C123.4 17.7244 123.326 17.277 123.176 16.8693C123.031 16.4583 122.805 16.1286 122.5 15.88C122.195 15.6314 121.811 15.5071 121.347 15.5071C120.88 15.5071 120.492 15.6314 120.184 15.88C119.879 16.1286 119.652 16.4583 119.502 16.8693C119.357 17.277 119.284 17.7244 119.284 18.2116C119.284 18.7022 119.357 19.1513 119.502 19.5589C119.652 19.9666 119.879 20.2931 120.184 20.5384C120.492 20.7836 120.88 20.9062 121.347 20.9062ZM129.777 22.1541C129.062 22.1541 128.437 21.9901 127.903 21.6619C127.37 21.3338 126.955 20.8748 126.66 20.2848C126.365 19.6948 126.218 19.0054 126.218 18.2166C126.218 17.4245 126.365 16.7318 126.66 16.1385C126.955 15.5452 127.37 15.0845 127.903 14.7564C128.437 14.4283 129.062 14.2642 129.777 14.2642C130.493 14.2642 131.118 14.4283 131.652 14.7564C132.185 15.0845 132.6 15.5452 132.895 16.1385C133.19 16.7318 133.337 17.4245 133.337 18.2166C133.337 19.0054 133.19 19.6948 132.895 20.2848C132.6 20.8748 132.185 21.3338 131.652 21.6619C131.118 21.9901 130.493 22.1541 129.777 22.1541ZM129.782 20.9062C130.246 20.9062 130.631 20.7836 130.936 20.5384C131.241 20.2931 131.466 19.9666 131.612 19.5589C131.761 19.1513 131.836 18.7022 131.836 18.2116C131.836 17.7244 131.761 17.277 131.612 16.8693C131.466 16.4583 131.241 16.1286 130.936 15.88C130.631 15.6314 130.246 15.5071 129.782 15.5071C129.315 15.5071 128.927 15.6314 128.619 15.88C128.314 16.1286 128.087 16.4583 127.938 16.8693C127.792 17.277 127.719 17.7244 127.719 18.2116C127.719 18.7022 127.792 19.1513 127.938 19.5589C128.087 19.9666 128.314 20.2931 128.619 20.5384C128.927 20.7836 129.315 20.9062 129.782 20.9062ZM141.269 14.3636L138.5 22H136.909L134.135 14.3636H135.731L137.665 20.2401H137.744L139.673 14.3636H141.269ZM142.666 22V14.3636H144.153V22H142.666ZM143.417 13.1854C143.158 13.1854 142.936 13.0992 142.751 12.9268C142.569 12.7512 142.477 12.5424 142.477 12.3004C142.477 12.0552 142.569 11.8464 142.751 11.674C142.936 11.4983 143.158 11.4105 143.417 11.4105C143.676 11.4105 143.896 11.4983 144.078 11.674C144.264 11.8464 144.357 12.0552 144.357 12.3004C144.357 12.5424 144.264 12.7512 144.078 12.9268C143.896 13.0992 143.676 13.1854 143.417 13.1854ZM154.695 18.8331V14.3636H156.187V22H154.725V20.6776H154.645C154.47 21.0852 154.188 21.425 153.8 21.6967C153.416 21.9652 152.937 22.0994 152.363 22.0994C151.873 22.0994 151.439 21.9917 151.061 21.7763C150.686 21.5575 150.391 21.2344 150.176 20.8068C149.964 20.3793 149.858 19.8506 149.858 19.2209V14.3636H151.344V19.0419C151.344 19.5623 151.488 19.9766 151.777 20.2848C152.065 20.593 152.44 20.7472 152.9 20.7472C153.179 20.7472 153.455 20.6776 153.731 20.5384C154.009 20.3991 154.239 20.1887 154.422 19.907C154.607 19.6252 154.698 19.2673 154.695 18.8331ZM163.021 18.8331V14.3636H164.513V22H163.051V20.6776H162.972C162.796 21.0852 162.514 21.425 162.126 21.6967C161.742 21.9652 161.263 22.0994 160.69 22.0994C160.199 22.0994 159.765 21.9917 159.387 21.7763C159.012 21.5575 158.717 21.2344 158.502 20.8068C158.29 20.3793 158.184 19.8506 158.184 19.2209V14.3636H159.67V19.0419C159.67 19.5623 159.815 19.9766 160.103 20.2848C160.391 20.593 160.766 20.7472 161.226 20.7472C161.505 20.7472 161.782 20.6776 162.057 20.5384C162.335 20.3991 162.565 20.1887 162.748 19.907C162.933 19.6252 163.025 19.2673 163.021 18.8331ZM169.801 22.1541C169.049 22.1541 168.401 21.9934 167.857 21.6719C167.317 21.3471 166.899 20.8913 166.604 20.3047C166.313 19.7147 166.167 19.0237 166.167 18.2315C166.167 17.4493 166.313 16.7599 166.604 16.1634C166.899 15.5668 167.31 15.1011 167.837 14.7663C168.368 14.4316 168.988 14.2642 169.697 14.2642C170.128 14.2642 170.545 14.3355 170.95 14.478C171.354 14.6205 171.717 14.8442 172.038 15.1491C172.36 15.4541 172.613 15.8501 172.799 16.3374C172.985 16.8213 173.078 17.4096 173.078 18.1023V18.6293H167.007V17.5156H171.621C171.621 17.1245 171.541 16.7782 171.382 16.4766C171.223 16.1716 170.999 15.9313 170.711 15.7557C170.426 15.58 170.091 15.4922 169.707 15.4922C169.289 15.4922 168.925 15.5949 168.613 15.8004C168.305 16.0026 168.066 16.2678 167.897 16.5959C167.731 16.9207 167.649 17.2737 167.649 17.6548V18.5249C167.649 19.0353 167.738 19.4695 167.917 19.8274C168.099 20.1854 168.353 20.4588 168.678 20.6477C169.002 20.8333 169.382 20.9261 169.816 20.9261C170.098 20.9261 170.355 20.8864 170.587 20.8068C170.819 20.724 171.019 20.6013 171.188 20.4389C171.357 20.2765 171.487 20.076 171.576 19.8374L172.983 20.0909C172.87 20.5052 172.668 20.8681 172.377 21.1797C172.088 21.4879 171.725 21.7282 171.288 21.9006C170.854 22.0696 170.358 22.1541 169.801 22.1541ZM180.449 16.228L179.102 16.4666C179.045 16.2943 178.956 16.1302 178.833 15.9744C178.714 15.8187 178.552 15.6911 178.346 15.5916C178.141 15.4922 177.884 15.4425 177.576 15.4425C177.155 15.4425 176.803 15.5369 176.522 15.7259C176.24 15.9115 176.099 16.1518 176.099 16.4467C176.099 16.7019 176.193 16.9074 176.382 17.0632C176.571 17.219 176.876 17.3466 177.297 17.446L178.51 17.7244C179.213 17.8868 179.737 18.1371 180.081 18.4751C180.426 18.8132 180.598 19.2524 180.598 19.7926C180.598 20.25 180.466 20.6577 180.201 21.0156C179.939 21.3703 179.572 21.6487 179.102 21.8509C178.634 22.053 178.093 22.1541 177.476 22.1541C176.621 22.1541 175.923 21.9718 175.383 21.6072C174.843 21.2393 174.511 20.7173 174.389 20.0412L175.826 19.8224C175.915 20.197 176.099 20.4804 176.377 20.6726C176.656 20.8615 177.019 20.956 177.466 20.956C177.953 20.956 178.343 20.8549 178.634 20.6527C178.926 20.4472 179.072 20.197 179.072 19.902C179.072 19.6634 178.983 19.4628 178.804 19.3004C178.628 19.138 178.358 19.0154 177.993 18.9325L176.701 18.6491C175.988 18.4867 175.461 18.2282 175.12 17.8736C174.782 17.5189 174.612 17.0698 174.612 16.5263C174.612 16.0755 174.738 15.6811 174.99 15.343C175.242 15.005 175.59 14.7415 176.034 14.5526C176.478 14.3603 176.987 14.2642 177.561 14.2642C178.386 14.2642 179.036 14.4432 179.509 14.8011C179.983 15.1558 180.297 15.6314 180.449 16.228ZM185.797 14.3636V15.5568H181.626V14.3636H185.797ZM182.745 12.5341H184.231V19.7578C184.231 20.0462 184.274 20.2633 184.361 20.4091C184.447 20.5516 184.558 20.6494 184.694 20.7024C184.833 20.7521 184.984 20.777 185.146 20.777C185.265 20.777 185.37 20.7687 185.459 20.7521C185.549 20.7356 185.618 20.7223 185.668 20.7124L185.937 21.9403C185.85 21.9735 185.728 22.0066 185.569 22.0398C185.41 22.0762 185.211 22.0961 184.972 22.0994C184.581 22.1061 184.216 22.0365 183.878 21.8906C183.54 21.7448 183.267 21.5194 183.058 21.2145C182.849 20.9096 182.745 20.5268 182.745 20.0661V12.5341ZM187.442 22V14.3636H188.928V22H187.442ZM188.192 13.1854C187.934 13.1854 187.712 13.0992 187.526 12.9268C187.344 12.7512 187.253 12.5424 187.253 12.3004C187.253 12.0552 187.344 11.8464 187.526 11.674C187.712 11.4983 187.934 11.4105 188.192 11.4105C188.451 11.4105 188.671 11.4983 188.854 11.674C189.039 11.8464 189.132 12.0552 189.132 12.3004C189.132 12.5424 189.039 12.7512 188.854 12.9268C188.671 13.0992 188.451 13.1854 188.192 13.1854Z" fill="#FF8400"/>
</svg>
