<svg width="170" height="33" viewBox="0 0 170 33" fill="none" xmlns="http://www.w3.org/2000/svg">
<rect x="0.5" y="0.5" width="169" height="32" rx="7.5" fill="#102825"/>
<rect x="0.5" y="0.5" width="169" height="32" rx="7.5" stroke="#00D492"/>
<path d="M16.7744 20.0114V18.7685L21.1743 11.8182H22.1537V13.6477H21.5322L18.3852 18.6293V18.7088H24.4157V20.0114H16.7744ZM21.6018 22V19.6335L21.6118 19.0668V11.8182H23.0684V22H21.6018ZM30.0461 11.3409L26.7648 23.5312H25.4374L28.7187 11.3409H30.0461ZM34.6498 22.1392C34.0267 22.1392 33.4665 22.0199 32.9694 21.7812C32.4755 21.5393 32.0811 21.2079 31.7861 20.7869C31.4912 20.366 31.3337 19.8854 31.3138 19.3452H32.8053C32.8418 19.7827 33.0357 20.1423 33.387 20.424C33.7383 20.7057 34.1592 20.8466 34.6498 20.8466C35.0409 20.8466 35.3872 20.7571 35.6888 20.5781C35.9938 20.3958 36.2324 20.1456 36.4047 19.8274C36.5804 19.5092 36.6682 19.1463 36.6682 18.7386C36.6682 18.3243 36.5787 17.9548 36.3998 17.63C36.2208 17.3052 35.9739 17.05 35.659 16.8643C35.3474 16.6787 34.9895 16.5843 34.5851 16.581C34.2769 16.581 33.967 16.634 33.6555 16.7401C33.3439 16.8461 33.092 16.9853 32.8998 17.1577L31.4928 16.9489L32.0645 11.8182H37.6626V13.1357H33.3422L33.0191 15.9844H33.0787C33.2776 15.7921 33.5411 15.6314 33.8692 15.5021C34.2007 15.3729 34.5553 15.3082 34.9331 15.3082C35.5529 15.3082 36.1048 15.4557 36.5887 15.7507C37.0759 16.0457 37.4587 16.4484 37.7371 16.9588C38.0189 17.4659 38.1581 18.0492 38.1547 18.7088C38.1581 19.3684 38.0089 19.9567 37.7073 20.4737C37.409 20.9908 36.9947 21.3984 36.4644 21.6967C35.9374 21.9917 35.3325 22.1392 34.6498 22.1392Z" fill="#00D492"/>
<path d="M49.786 10.844C50.0008 10.1388 50.9992 10.1388 51.214 10.844L52.0227 13.499C52.1185 13.8132 52.4083 14.0279 52.7367 14.0279H55.4513C56.1627 14.0279 56.4708 14.9285 55.9086 15.3642L53.6313 17.1291C53.3864 17.3188 53.2842 17.6402 53.3745 17.9365L54.2245 20.727C54.4366 21.4232 53.6286 21.9803 53.0533 21.5345L50.9572 19.9101C50.6881 19.7015 50.3119 19.7015 50.0428 19.9101L47.9467 21.5345C47.3714 21.9803 46.5634 21.4232 46.7755 20.727L47.6255 17.9365C47.7158 17.6402 47.6136 17.3188 47.3687 17.1291L45.0914 15.3642C44.5292 14.9285 44.8373 14.0279 45.5487 14.0279H48.2633C48.5917 14.0279 48.8815 13.8132 48.9773 13.499L49.786 10.844Z" fill="#00D492"/>
<line x1="70.5" y1="9" x2="70.5" y2="24" stroke="#00D492" stroke-linecap="round"/>
<path d="M84 17.5L86.7643 20.8306C86.8961 20.9617 87.0609 21.0202 87.2244 20.9938C87.3878 20.9674 87.5373 20.8583 87.6415 20.6892L93 12" stroke="#00D492" stroke-width="2" stroke-linecap="round"/>
<path d="M104.408 22V11.8182H105.944V20.6776H110.558V22H104.408ZM114.413 22.169C113.929 22.169 113.492 22.0795 113.1 21.9006C112.709 21.7183 112.4 21.4548 112.171 21.1101C111.945 20.7654 111.833 20.3428 111.833 19.8423C111.833 19.4115 111.916 19.0568 112.081 18.7784C112.247 18.5 112.471 18.2796 112.752 18.1172C113.034 17.9548 113.349 17.8321 113.697 17.7493C114.045 17.6664 114.4 17.6035 114.761 17.5604C115.218 17.5073 115.59 17.4643 115.875 17.4311C116.16 17.3946 116.367 17.3366 116.496 17.2571C116.625 17.1776 116.69 17.0483 116.69 16.8693V16.8345C116.69 16.4003 116.567 16.0639 116.322 15.8253C116.08 15.5866 115.719 15.4673 115.238 15.4673C114.738 15.4673 114.343 15.5784 114.055 15.8004C113.77 16.0192 113.573 16.2628 113.463 16.5312L112.066 16.2131C112.232 15.7491 112.474 15.3745 112.792 15.0895C113.114 14.8011 113.483 14.5923 113.901 14.4631C114.319 14.3305 114.758 14.2642 115.218 14.2642C115.523 14.2642 115.846 14.3007 116.188 14.3736C116.533 14.4432 116.854 14.5724 117.152 14.7614C117.454 14.9503 117.701 15.2204 117.893 15.5717C118.085 15.9197 118.181 16.3722 118.181 16.929V22H116.73V20.956H116.67C116.574 21.1482 116.43 21.3371 116.238 21.5227C116.045 21.7083 115.798 21.8625 115.497 21.9851C115.195 22.1077 114.834 22.169 114.413 22.169ZM114.736 20.9759C115.147 20.9759 115.498 20.8946 115.79 20.7322C116.085 20.5698 116.309 20.3577 116.461 20.0959C116.617 19.8307 116.695 19.5473 116.695 19.2457V18.2614C116.642 18.3144 116.539 18.3641 116.387 18.4105C116.238 18.4536 116.067 18.4917 115.875 18.5249C115.682 18.5547 115.495 18.5829 115.313 18.6094C115.131 18.6326 114.978 18.6525 114.855 18.669C114.567 18.7055 114.304 18.7668 114.065 18.853C113.83 18.9392 113.641 19.0634 113.498 19.2259C113.359 19.3849 113.289 19.5971 113.289 19.8622C113.289 20.2301 113.425 20.5085 113.697 20.6974C113.969 20.883 114.315 20.9759 114.736 20.9759ZM113.836 13.1655C113.601 13.1655 113.395 13.0793 113.22 12.907C113.044 12.7313 112.956 12.5291 112.956 12.3004C112.956 12.0518 113.044 11.8447 113.22 11.679C113.395 11.5133 113.601 11.4304 113.836 11.4304C114.085 11.4304 114.292 11.5133 114.458 11.679C114.627 11.8447 114.711 12.0518 114.711 12.3004C114.711 12.5291 114.627 12.7313 114.458 12.907C114.292 13.0793 114.085 13.1655 113.836 13.1655ZM116.76 13.1655C116.524 13.1655 116.319 13.0793 116.143 12.907C115.967 12.7313 115.88 12.5291 115.88 12.3004C115.88 12.0518 115.967 11.8447 116.143 11.679C116.319 11.5133 116.524 11.4304 116.76 11.4304C117.008 11.4304 117.215 11.5133 117.381 11.679C117.55 11.8447 117.635 12.0518 117.635 12.3004C117.635 12.5291 117.55 12.7313 117.381 12.907C117.215 13.0793 117.008 13.1655 116.76 13.1655ZM120.281 22V11.8182H121.767V15.6016H121.857C121.943 15.4425 122.067 15.2585 122.23 15.0497C122.392 14.8409 122.617 14.6586 122.906 14.5028C123.194 14.3438 123.575 14.2642 124.049 14.2642C124.666 14.2642 125.216 14.42 125.7 14.7315C126.184 15.0431 126.563 15.4922 126.838 16.0788C127.117 16.6655 127.256 17.3714 127.256 18.1967C127.256 19.022 127.118 19.7296 126.843 20.3196C126.568 20.9062 126.19 21.3587 125.71 21.6768C125.229 21.9917 124.681 22.1491 124.064 22.1491C123.6 22.1491 123.221 22.0713 122.926 21.9155C122.634 21.7597 122.405 21.5774 122.24 21.3686C122.074 21.1598 121.946 20.9742 121.857 20.8118H121.732V22H120.281ZM121.737 18.1818C121.737 18.7187 121.815 19.1894 121.971 19.5938C122.127 19.9981 122.352 20.3146 122.647 20.5433C122.942 20.7687 123.303 20.8814 123.731 20.8814C124.175 20.8814 124.546 20.7637 124.845 20.5284C125.143 20.2898 125.368 19.9666 125.521 19.5589C125.677 19.1513 125.754 18.6922 125.754 18.1818C125.754 17.678 125.678 17.2256 125.526 16.8246C125.377 16.4235 125.151 16.107 124.85 15.875C124.551 15.643 124.178 15.527 123.731 15.527C123.3 15.527 122.936 15.638 122.637 15.8601C122.342 16.0821 122.119 16.392 121.966 16.7898C121.814 17.1875 121.737 17.6515 121.737 18.1818ZM128.925 22V14.3636H130.412V22H128.925ZM129.676 13.1854C129.417 13.1854 129.195 13.0992 129.01 12.9268C128.827 12.7512 128.736 12.5424 128.736 12.3004C128.736 12.0552 128.827 11.8464 129.01 11.674C129.195 11.4983 129.417 11.4105 129.676 11.4105C129.934 11.4105 130.155 11.4983 130.337 11.674C130.523 11.8464 130.615 12.0552 130.615 12.3004C130.615 12.5424 130.523 12.7512 130.337 12.9268C130.155 13.0992 129.934 13.1854 129.676 13.1854ZM135.976 14.3636V15.5568H131.805V14.3636H135.976ZM132.923 12.5341H134.41V19.7578C134.41 20.0462 134.453 20.2633 134.539 20.4091C134.625 20.5516 134.736 20.6494 134.872 20.7024C135.012 20.7521 135.162 20.777 135.325 20.777C135.444 20.777 135.548 20.7687 135.638 20.7521C135.727 20.7356 135.797 20.7223 135.847 20.7124L136.115 21.9403C136.029 21.9735 135.906 22.0066 135.747 22.0398C135.588 22.0762 135.389 22.0961 135.151 22.0994C134.76 22.1061 134.395 22.0365 134.057 21.8906C133.719 21.7448 133.445 21.5194 133.237 21.2145C133.028 20.9096 132.923 20.5268 132.923 20.0661V12.5341ZM142.458 18.8331V14.3636H143.949V22H142.488V20.6776H142.408C142.232 21.0852 141.951 21.425 141.563 21.6967C141.178 21.9652 140.699 22.0994 140.126 22.0994C139.636 22.0994 139.201 21.9917 138.824 21.7763C138.449 21.5575 138.154 21.2344 137.939 20.8068C137.726 20.3793 137.62 19.8506 137.62 19.2209V14.3636H139.107V19.0419C139.107 19.5623 139.251 19.9766 139.539 20.2848C139.828 20.593 140.202 20.7472 140.663 20.7472C140.941 20.7472 141.218 20.6776 141.493 20.5384C141.772 20.3991 142.002 20.1887 142.184 19.907C142.37 19.6252 142.461 19.2673 142.458 18.8331ZM148.805 22.1491C148.189 22.1491 147.639 21.9917 147.155 21.6768C146.674 21.3587 146.296 20.9062 146.021 20.3196C145.749 19.7296 145.613 19.022 145.613 18.1967C145.613 17.3714 145.751 16.6655 146.026 16.0788C146.305 15.4922 146.686 15.0431 147.17 14.7315C147.653 14.42 148.202 14.2642 148.815 14.2642C149.289 14.2642 149.67 14.3438 149.959 14.5028C150.25 14.6586 150.476 14.8409 150.635 15.0497C150.797 15.2585 150.923 15.4425 151.013 15.6016H151.102V11.8182H152.589V22H151.137V20.8118H151.013C150.923 20.9742 150.794 21.1598 150.625 21.3686C150.459 21.5774 150.23 21.7597 149.939 21.9155C149.647 22.0713 149.269 22.1491 148.805 22.1491ZM149.133 20.8814C149.561 20.8814 149.922 20.7687 150.217 20.5433C150.515 20.3146 150.741 19.9981 150.893 19.5938C151.049 19.1894 151.127 18.7187 151.127 18.1818C151.127 17.6515 151.051 17.1875 150.898 16.7898C150.746 16.392 150.522 16.0821 150.227 15.8601C149.932 15.638 149.568 15.527 149.133 15.527C148.686 15.527 148.313 15.643 148.015 15.875C147.716 16.107 147.491 16.4235 147.339 16.8246C147.189 17.2256 147.115 17.678 147.115 18.1818C147.115 18.6922 147.191 19.1513 147.344 19.5589C147.496 19.9666 147.721 20.2898 148.02 20.5284C148.321 20.7637 148.693 20.8814 149.133 20.8814Z" fill="#00D492"/>
</svg>
