<svg width="185" height="191" viewBox="0 0 185 191" fill="none" xmlns="http://www.w3.org/2000/svg">
<rect x="27.251" y="28.4121" width="130" height="120" rx="8" fill="#B48D42"/>
<rect x="27.251" y="28.4121" width="130" height="120" rx="8" fill="black" fill-opacity="0.4"/>
<g filter="url(#filter0_d_304_2527)">
<path d="M79.9524 58.4121H35.749C31.3307 58.4121 27.749 61.9938 27.749 66.4121V103.412V140.412C27.749 144.83 31.3307 148.412 35.749 148.412H149.749C154.167 148.412 157.749 144.83 157.749 140.412V82.4759C157.749 78.0576 154.167 74.4759 149.749 74.4759H104.955C103.078 74.4759 101.26 73.8155 99.8201 72.6103L85.0874 60.2777C83.6477 59.0725 81.8299 58.4121 79.9524 58.4121Z" fill="url(#paint0_linear_304_2527)"/>
<path d="M79.9524 58.4121H35.749C31.3307 58.4121 27.749 61.9938 27.749 66.4121V103.412V140.412C27.749 144.83 31.3307 148.412 35.749 148.412H149.749C154.167 148.412 157.749 144.83 157.749 140.412V82.4759C157.749 78.0576 154.167 74.4759 149.749 74.4759H104.955C103.078 74.4759 101.26 73.8155 99.8201 72.6103L85.0874 60.2777C83.6477 59.0725 81.8299 58.4121 79.9524 58.4121Z" fill="black" fill-opacity="0.4"/>
</g>
<path d="M3.50505 160.236L3.5054 170.418L1.3527 170.418L1.35236 160.236L3.50505 160.236ZM7.3545 166.003L7.35465 170.418L5.23675 170.418L5.2365 162.781L7.25496 162.781L7.25501 164.129L7.3445 164.129C7.51352 163.685 7.79688 163.333 8.1946 163.075C8.59232 162.813 9.07456 162.682 9.64132 162.682C10.1716 162.682 10.634 162.798 11.0284 163.03C11.4228 163.262 11.7294 163.593 11.9482 164.024C12.167 164.452 12.2763 164.962 12.2764 165.555L12.2765 170.418L10.1586 170.418L10.1585 165.933C10.1618 165.466 10.0424 165.101 9.80049 164.84C9.55853 164.574 9.22543 164.442 8.80118 164.442C8.51615 164.442 8.26425 164.503 8.04551 164.626C7.83008 164.748 7.66105 164.927 7.53842 165.163C7.41911 165.395 7.35781 165.675 7.3545 166.003ZM18.052 162.781L18.0521 164.372L13.339 164.372L13.3389 162.781L18.052 162.781ZM14.418 170.417L14.4178 162.229C14.4177 161.676 14.5254 161.217 14.7409 160.852C14.9596 160.488 15.2579 160.214 15.6357 160.032C16.0136 159.849 16.4428 159.758 16.9234 159.758C17.2482 159.758 17.5448 159.783 17.8133 159.833C18.0851 159.883 18.2872 159.927 18.4198 159.967L18.042 161.558C17.9592 161.531 17.8564 161.507 17.7338 161.483C17.6145 161.46 17.4918 161.449 17.3659 161.449C17.0543 161.449 16.8372 161.522 16.7146 161.667C16.592 161.81 16.5307 162.01 16.5307 162.269L16.531 170.417L14.418 170.417ZM22.523 170.566C21.7507 170.566 21.0829 170.402 20.5194 170.074C19.9593 169.743 19.5267 169.282 19.2218 168.692C18.9168 168.099 18.7644 167.411 18.7643 166.629C18.7643 165.84 18.9167 165.151 19.2216 164.561C19.5265 163.968 19.9591 163.507 20.5192 163.179C21.0826 162.847 21.7505 162.681 22.5227 162.681C23.295 162.681 23.9612 162.847 24.5213 163.179C25.0848 163.507 25.519 163.967 25.8239 164.561C26.1289 165.151 26.2813 165.84 26.2814 166.629C26.2814 167.411 26.129 168.099 25.8241 168.692C25.5191 169.282 25.085 169.743 24.5215 170.074C23.9614 170.402 23.2952 170.566 22.523 170.566ZM22.5329 168.926C22.8842 168.926 23.1775 168.826 23.4128 168.627C23.6481 168.425 23.8255 168.15 23.9448 167.802C24.0674 167.454 24.1287 167.058 24.1287 166.614C24.1287 166.17 24.0673 165.774 23.9447 165.426C23.8254 165.078 23.648 164.803 23.4127 164.6C23.1774 164.398 22.884 164.297 22.5327 164.297C22.1781 164.297 21.8798 164.398 21.6378 164.6C21.3992 164.803 21.2186 165.078 21.096 165.426C20.9767 165.774 20.917 166.17 20.917 166.614C20.917 167.058 20.9767 167.454 21.096 167.802C21.2187 168.15 21.3993 168.425 21.638 168.627C21.8799 168.826 22.1782 168.926 22.5329 168.926ZM32.4163 165.396L32.4163 167.076L27.7729 167.076L27.7728 165.396L32.4163 165.396ZM37.4611 162.78L39.579 162.78L39.5793 170.794C39.5793 171.384 39.4633 171.862 39.2313 172.226C38.9993 172.591 38.6662 172.858 38.232 173.027C37.8012 173.196 37.2858 173.28 36.6859 173.28C36.613 173.28 36.5434 173.279 36.4771 173.275C36.4075 173.275 36.3346 173.274 36.2583 173.27L36.2583 171.615C36.3146 171.618 36.3643 171.62 36.4074 171.62C36.4472 171.623 36.4903 171.625 36.5367 171.625C36.8781 171.625 37.1167 171.552 37.2526 171.406C37.3918 171.264 37.4614 171.048 37.4614 170.76L37.4611 162.78ZM38.5151 161.796C38.2035 161.796 37.935 161.692 37.7096 161.483C37.4843 161.271 37.3716 161.017 37.3715 160.722C37.3715 160.43 37.4842 160.18 37.7096 159.971C37.935 159.759 38.2034 159.653 38.515 159.653C38.8332 159.653 39.1033 159.759 39.3254 159.971C39.5507 160.18 39.6634 160.43 39.6635 160.722C39.6635 161.017 39.5508 161.271 39.3254 161.483C39.1034 161.692 38.8332 161.796 38.5151 161.796ZM43.4534 170.561C42.9662 170.561 42.532 170.476 42.1508 170.307C41.7696 170.135 41.468 169.881 41.246 169.547C41.0272 169.208 40.9178 168.788 40.9178 168.284C40.9178 167.86 40.9957 167.503 41.1514 167.215C41.3072 166.927 41.5193 166.695 41.7878 166.519C42.0562 166.343 42.3611 166.211 42.7025 166.121C43.0472 166.032 43.4085 165.969 43.7863 165.932C44.2304 165.886 44.5884 165.843 44.8602 165.803C45.132 165.76 45.3292 165.697 45.4518 165.614C45.5744 165.531 45.6357 165.408 45.6357 165.246L45.6357 165.216C45.6357 164.901 45.5363 164.658 45.3374 164.485C45.1419 164.313 44.8634 164.227 44.5022 164.227C44.121 164.227 43.8178 164.311 43.5924 164.48C43.367 164.646 43.2179 164.855 43.145 165.107L41.1861 164.948C41.2856 164.484 41.4811 164.083 41.7728 163.745C42.0644 163.403 42.4406 163.141 42.9013 162.959C43.3653 162.774 43.9022 162.681 44.5121 162.681C44.9363 162.681 45.3423 162.73 45.7301 162.83C46.1212 162.929 46.4676 163.083 46.7692 163.292C47.0741 163.501 47.3144 163.769 47.4901 164.097C47.6658 164.422 47.7536 164.812 47.7536 165.266L47.7538 170.416L45.7453 170.416L45.7452 169.357L45.6856 169.357C45.563 169.596 45.3989 169.807 45.1934 169.989C44.9879 170.168 44.741 170.309 44.4527 170.412C44.1643 170.511 43.8312 170.561 43.4534 170.561ZM44.0599 169.099C44.3714 169.099 44.6465 169.038 44.8851 168.915C45.1238 168.789 45.311 168.62 45.4469 168.408C45.5828 168.196 45.6507 167.956 45.6507 167.687L45.6507 166.877C45.5844 166.92 45.4933 166.96 45.3773 166.996C45.2646 167.029 45.137 167.061 44.9945 167.09C44.8519 167.117 44.7094 167.142 44.5669 167.165C44.4244 167.185 44.2951 167.203 44.1791 167.22C43.9305 167.256 43.7134 167.314 43.5278 167.394C43.3422 167.473 43.1981 167.581 43.0953 167.717C42.9926 167.85 42.9412 168.015 42.9412 168.214C42.9412 168.502 43.0456 168.723 43.2545 168.875C43.4666 169.024 43.7351 169.099 44.0599 169.099ZM54.5561 168.219L54.561 165.678L54.8692 165.678L57.3152 162.78L59.7463 162.78L56.4602 166.618L55.958 166.618L54.5561 168.219ZM52.6371 170.416L52.6368 160.234L54.7547 160.234L54.755 170.416L52.6371 170.416ZM57.4099 170.416L55.1626 167.09L56.5745 165.594L59.8907 170.416L57.4099 170.416ZM63.9214 170.565C63.1492 170.565 62.4813 170.401 61.9178 170.073C61.3577 169.741 60.9252 169.281 60.6202 168.691C60.3153 168.098 60.1628 167.41 60.1628 166.628C60.1627 165.839 60.3152 165.149 60.6201 164.559C60.925 163.966 61.3575 163.505 61.9176 163.177C62.4811 162.846 63.1489 162.68 63.9212 162.68C64.6934 162.68 65.3596 162.846 65.9197 163.177C66.4832 163.505 66.9174 163.966 67.2224 164.559C67.5273 165.149 67.6798 165.839 67.6798 166.627C67.6798 167.41 67.5274 168.097 67.2225 168.691C66.9176 169.281 66.4834 169.741 65.92 170.073C65.3599 170.401 64.6937 170.565 63.9214 170.565ZM63.9313 168.924C64.2826 168.924 64.576 168.825 64.8113 168.626C65.0466 168.424 65.2239 168.149 65.3432 167.801C65.4658 167.453 65.5271 167.057 65.5271 166.613C65.5271 166.168 65.4658 165.772 65.3431 165.424C65.2238 165.076 65.0465 164.801 64.8111 164.599C64.5758 164.397 64.2825 164.296 63.9311 164.296C63.5765 164.296 63.2782 164.397 63.0363 164.599C62.7976 164.801 62.617 165.076 62.4944 165.424C62.3751 165.772 62.3154 166.168 62.3155 166.613C62.3155 167.057 62.3751 167.453 62.4945 167.801C62.6171 168.149 62.7978 168.424 63.0364 168.626C63.2784 168.825 63.5767 168.924 63.9313 168.924ZM69.0571 170.416L69.0568 162.779L71.0753 162.779L71.0753 164.127L71.1648 164.127C71.3239 163.679 71.589 163.326 71.9602 163.068C72.3314 162.809 72.7756 162.68 73.2926 162.68C73.8163 162.68 74.2621 162.811 74.63 163.072C74.9979 163.331 75.2432 163.682 75.3658 164.126L75.4453 164.126C75.6011 163.689 75.8828 163.339 76.2905 163.077C76.7015 162.812 77.187 162.68 77.7471 162.68C78.4597 162.68 79.0381 162.907 79.4823 163.361C79.9297 163.811 80.1535 164.451 80.1535 165.28L80.1537 170.415L78.0407 170.415L78.0406 165.697C78.0406 165.273 77.9279 164.955 77.7025 164.743C77.4771 164.531 77.1954 164.425 76.8573 164.425C76.4728 164.425 76.1729 164.547 75.9574 164.793C75.742 165.035 75.6343 165.354 75.6343 165.752L75.6345 170.415L73.5812 170.416L73.5811 165.653C73.581 165.278 73.4733 164.98 73.2579 164.758C73.0457 164.536 72.7657 164.425 72.4177 164.425C72.1823 164.425 71.9702 164.484 71.7813 164.604C71.5957 164.72 71.4482 164.884 71.3388 165.096C71.2295 165.305 71.1748 165.55 71.1748 165.832L71.175 170.416L69.0571 170.416ZM81.8266 170.415L81.8263 162.779L83.8448 162.779L83.8449 164.126L83.9343 164.126C84.0934 163.679 84.3586 163.326 84.7298 163.067C85.101 162.809 85.5451 162.679 86.0621 162.679C86.5858 162.679 87.0316 162.81 87.3995 163.072C87.7674 163.331 88.0127 163.682 88.1353 164.126L88.2149 164.126C88.3706 163.688 88.6524 163.339 89.06 163.077C89.471 162.812 89.9565 162.679 90.5167 162.679C91.2293 162.679 91.8076 162.906 92.2518 163.36C92.6992 163.811 92.923 164.451 92.923 165.279L92.9232 170.415L90.8103 170.415L90.8101 165.697C90.8101 165.273 90.6974 164.954 90.472 164.742C90.2466 164.53 89.9649 164.424 89.6268 164.424C89.2424 164.424 88.9424 164.547 88.727 164.792C88.5115 165.034 88.4038 165.354 88.4039 165.752L88.404 170.415L86.3507 170.415L86.3506 165.652C86.3506 165.278 86.2428 164.979 86.0274 164.757C85.8153 164.535 85.5352 164.424 85.1872 164.424C84.9519 164.424 84.7397 164.484 84.5508 164.603C84.3652 164.719 84.2177 164.883 84.1084 165.096C83.999 165.304 83.9443 165.55 83.9443 165.831L83.9445 170.415L81.8266 170.415ZM99.493 167.163L99.4929 162.778L101.611 162.778L101.611 170.415L99.5777 170.415L99.5776 169.028L99.4981 169.028C99.3257 169.475 99.0391 169.835 98.638 170.106C98.2403 170.378 97.7547 170.514 97.1814 170.514C96.6709 170.514 96.2218 170.398 95.834 170.166C95.4463 169.934 95.143 169.604 94.9242 169.177C94.7088 168.749 94.5994 168.237 94.596 167.641L94.5959 162.778L96.7138 162.778L96.7139 167.263C96.7172 167.714 96.8382 168.07 97.0769 168.332C97.3155 168.593 97.6354 168.724 98.0364 168.724C98.2916 168.724 98.5303 168.666 98.7523 168.55C98.9744 168.431 99.1533 168.255 99.2892 168.023C99.4284 167.791 99.4964 167.505 99.493 167.163ZM105.423 166L105.423 170.414L103.305 170.415L103.305 162.778L105.323 162.778L105.323 164.125L105.413 164.125C105.582 163.681 105.865 163.33 106.263 163.071C106.661 162.81 107.143 162.679 107.71 162.679C108.24 162.679 108.702 162.795 109.097 163.027C109.491 163.259 109.798 163.59 110.017 164.021C110.235 164.448 110.345 164.959 110.345 165.552L110.345 170.414L108.227 170.414L108.227 165.93C108.23 165.463 108.111 165.098 107.869 164.836C107.627 164.571 107.294 164.439 106.87 164.439C106.585 164.439 106.333 164.5 106.114 164.623C105.898 164.745 105.729 164.924 105.607 165.159C105.487 165.391 105.426 165.672 105.423 166ZM112.014 170.414L112.014 162.778L114.132 162.778L114.132 170.414L112.014 170.414ZM113.078 161.793C112.763 161.793 112.493 161.689 112.267 161.48C112.045 161.268 111.934 161.015 111.934 160.72C111.934 160.428 112.045 160.178 112.267 159.969C112.493 159.757 112.763 159.651 113.078 159.651C113.393 159.651 113.661 159.757 113.883 159.969C114.108 160.178 114.221 160.428 114.221 160.72C114.221 161.015 114.108 161.268 113.883 161.48C113.661 161.689 113.393 161.793 113.078 161.793ZM117.748 168.217L117.752 165.676L118.061 165.676L120.507 162.778L122.938 162.777L119.652 166.616L119.149 166.616L117.748 168.217ZM115.829 170.414L115.828 160.232L117.946 160.232L117.946 170.414L115.829 170.414ZM120.601 170.414L118.354 167.088L119.766 165.592L123.082 170.414L120.601 170.414ZM126.155 170.558C125.667 170.558 125.233 170.473 124.852 170.304C124.471 170.132 124.169 169.879 123.947 169.544C123.728 169.206 123.619 168.785 123.619 168.281C123.619 167.857 123.697 167.5 123.853 167.212C124.008 166.924 124.22 166.692 124.489 166.516C124.757 166.34 125.062 166.208 125.404 166.118C125.748 166.029 126.11 165.966 126.487 165.929C126.932 165.883 127.29 165.84 127.561 165.8C127.833 165.757 128.03 165.694 128.153 165.611C128.276 165.528 128.337 165.406 128.337 165.243L128.337 165.213C128.337 164.899 128.237 164.655 128.039 164.483C127.843 164.31 127.565 164.224 127.203 164.224C126.822 164.224 126.519 164.309 126.294 164.478C126.068 164.643 125.919 164.852 125.846 165.104L123.887 164.945C123.987 164.481 124.182 164.08 124.474 163.742C124.766 163.401 125.142 163.139 125.602 162.956C126.066 162.771 126.603 162.678 127.213 162.678C127.637 162.678 128.043 162.728 128.431 162.827C128.822 162.926 129.169 163.081 129.47 163.289C129.775 163.498 130.016 163.767 130.191 164.095C130.367 164.42 130.455 164.809 130.455 165.263L130.455 170.414L128.446 170.414L128.446 169.355L128.387 169.355C128.264 169.593 128.1 169.804 127.895 169.986C127.689 170.165 127.442 170.306 127.154 170.409C126.865 170.508 126.532 170.558 126.155 170.558ZM126.761 169.096C127.073 169.096 127.348 169.035 127.586 168.912C127.825 168.786 128.012 168.617 128.148 168.405C128.284 168.193 128.352 167.953 128.352 167.684L128.352 166.874C128.286 166.917 128.194 166.957 128.078 166.993C127.966 167.026 127.838 167.058 127.696 167.088C127.553 167.114 127.411 167.139 127.268 167.162C127.126 167.182 126.996 167.2 126.88 167.217C126.632 167.253 126.415 167.311 126.229 167.391C126.043 167.471 125.899 167.578 125.796 167.714C125.694 167.847 125.642 168.012 125.642 168.211C125.642 168.5 125.747 168.72 125.956 168.873C126.168 169.022 126.436 169.096 126.761 169.096ZM136.16 162.777L136.16 164.368L131.561 164.368L131.561 162.777L136.16 162.777ZM132.605 160.948L134.723 160.948L134.723 168.067C134.723 168.262 134.753 168.415 134.813 168.524C134.872 168.63 134.955 168.705 135.061 168.748C135.17 168.791 135.296 168.813 135.439 168.813C135.538 168.813 135.638 168.804 135.737 168.788C135.837 168.768 135.913 168.753 135.966 168.743L136.299 170.319C136.193 170.352 136.044 170.39 135.852 170.433C135.659 170.48 135.426 170.508 135.151 170.518C134.64 170.538 134.193 170.47 133.808 170.314C133.427 170.158 133.13 169.916 132.918 169.588C132.706 169.26 132.602 168.846 132.605 168.345L132.605 160.948ZM143.797 164.954L141.858 165.074C141.825 164.908 141.754 164.759 141.645 164.626C141.535 164.49 141.391 164.383 141.212 164.303C141.036 164.22 140.826 164.179 140.581 164.179C140.253 164.179 139.976 164.249 139.75 164.388C139.525 164.524 139.412 164.706 139.412 164.935C139.412 165.117 139.485 165.271 139.631 165.397C139.777 165.523 140.027 165.624 140.382 165.7L141.764 165.979C142.506 166.131 143.06 166.376 143.424 166.714C143.789 167.052 143.971 167.496 143.971 168.047C143.971 168.547 143.824 168.986 143.529 169.364C143.237 169.742 142.836 170.037 142.326 170.249C141.819 170.458 141.234 170.562 140.571 170.562C139.56 170.562 138.755 170.352 138.155 169.931C137.558 169.507 137.208 168.93 137.106 168.201L139.189 168.092C139.252 168.4 139.404 168.635 139.646 168.798C139.888 168.957 140.198 169.036 140.576 169.036C140.947 169.036 141.245 168.965 141.471 168.822C141.699 168.676 141.815 168.489 141.819 168.261C141.815 168.068 141.734 167.911 141.575 167.788C141.416 167.662 141.171 167.566 140.839 167.5L139.517 167.236C138.771 167.087 138.216 166.829 137.851 166.461C137.49 166.093 137.309 165.624 137.309 165.054C137.309 164.563 137.442 164.141 137.707 163.786C137.976 163.432 138.352 163.158 138.836 162.966C139.323 162.774 139.893 162.677 140.546 162.677C141.51 162.677 142.269 162.881 142.823 163.289C143.38 163.697 143.704 164.252 143.797 164.954ZM145.305 170.413L145.305 162.777L147.423 162.777L147.423 170.413L145.305 170.413ZM146.369 161.792C146.054 161.792 145.784 161.688 145.558 161.479C145.336 161.267 145.225 161.013 145.225 160.719C145.225 160.427 145.336 160.177 145.558 159.968C145.784 159.756 146.054 159.65 146.369 159.65C146.684 159.65 146.952 159.756 147.174 159.968C147.399 160.177 147.512 160.427 147.512 160.718C147.512 161.013 147.4 161.267 147.174 161.479C146.952 161.688 146.684 161.792 146.369 161.792ZM152.57 170.562C151.798 170.562 151.13 170.398 150.566 170.07C150.006 169.738 149.574 169.278 149.269 168.688C148.964 168.095 148.811 167.407 148.811 166.625C148.811 165.836 148.964 165.146 149.269 164.556C149.573 163.963 150.006 163.502 150.566 163.174C151.129 162.843 151.797 162.677 152.57 162.677C153.342 162.677 154.008 162.843 154.568 163.174C155.132 163.502 155.566 163.963 155.871 164.556C156.176 165.146 156.328 165.836 156.328 166.624C156.328 167.407 156.176 168.094 155.871 168.688C155.566 169.278 155.132 169.738 154.568 170.07C154.008 170.398 153.342 170.562 152.57 170.562ZM152.58 168.921C152.931 168.921 153.224 168.822 153.46 168.623C153.695 168.421 153.872 168.146 153.992 167.798C154.114 167.45 154.176 167.054 154.176 166.61C154.176 166.165 154.114 165.769 153.992 165.421C153.872 165.073 153.695 164.798 153.46 164.596C153.224 164.394 152.931 164.293 152.58 164.293C152.225 164.293 151.927 164.394 151.685 164.596C151.446 164.798 151.265 165.073 151.143 165.421C151.024 165.769 150.964 166.166 150.964 166.61C150.964 167.054 151.024 167.45 151.143 167.798C151.266 168.146 151.446 168.421 151.685 168.623C151.927 168.822 152.225 168.921 152.58 168.921ZM161.156 170.562C160.384 170.562 159.716 170.398 159.152 170.07C158.592 169.738 158.16 169.277 157.855 168.688C157.55 168.094 157.397 167.407 157.397 166.624C157.397 165.836 157.55 165.146 157.854 164.556C158.159 163.963 158.592 163.502 159.152 163.174C159.715 162.843 160.383 162.677 161.156 162.677C161.928 162.677 162.594 162.842 163.154 163.174C163.718 163.502 164.152 163.963 164.457 164.556C164.762 165.146 164.914 165.835 164.914 166.624C164.914 167.406 164.762 168.094 164.457 168.687C164.152 169.277 163.718 169.738 163.154 170.069C162.594 170.398 161.928 170.562 161.156 170.562ZM161.166 168.921C161.517 168.921 161.81 168.822 162.046 168.623C162.281 168.421 162.458 168.145 162.578 167.797C162.7 167.449 162.761 167.053 162.761 166.609C162.761 166.165 162.7 165.769 162.577 165.421C162.458 165.073 162.281 164.798 162.046 164.596C161.81 164.394 161.517 164.293 161.166 164.293C160.811 164.293 160.513 164.394 160.271 164.596C160.032 164.798 159.851 165.073 159.729 165.421C159.609 165.769 159.55 166.165 159.55 166.609C159.55 167.053 159.61 167.45 159.729 167.798C159.851 168.146 160.032 168.421 160.271 168.623C160.513 168.822 160.811 168.921 161.166 168.921ZM168.409 165.998L168.409 170.412L166.291 170.412L166.291 162.776L168.31 162.776L168.31 164.123L168.399 164.123C168.568 163.679 168.852 163.328 169.249 163.069C169.647 162.807 170.129 162.676 170.696 162.676C171.226 162.676 171.689 162.792 172.083 163.024C172.478 163.256 172.784 163.588 173.003 164.019C173.222 164.446 173.331 164.957 173.331 165.55L173.331 170.412L171.213 170.412L171.213 165.928C171.216 165.461 171.097 165.096 170.855 164.834C170.613 164.569 170.28 164.436 169.856 164.436C169.571 164.436 169.319 164.498 169.1 164.62C168.885 164.743 168.716 164.922 168.593 165.157C168.474 165.389 168.412 165.669 168.409 165.998ZM175 170.412L175 162.776L177.118 162.776L177.118 170.412L175 170.412ZM176.064 161.791C175.749 161.791 175.479 161.687 175.254 161.478C175.032 161.266 174.921 161.012 174.921 160.718C174.921 160.426 175.032 160.176 175.254 159.967C175.479 159.755 175.749 159.649 176.064 159.649C176.379 159.649 176.647 159.755 176.869 159.967C177.095 160.176 177.207 160.426 177.207 160.717C177.207 161.012 177.095 161.266 176.869 161.478C176.647 161.687 176.379 161.791 176.064 161.791ZM183.573 165.391L183.573 167.071L178.929 167.071L178.929 165.391L183.573 165.391ZM56.6377 179.78L56.6378 181.371L52.0391 181.371L52.039 179.78L56.6377 179.78ZM53.083 177.95L55.2009 177.95L55.2011 185.07C55.2011 185.265 55.231 185.418 55.2906 185.527C55.3503 185.633 55.4331 185.708 55.5392 185.751C55.6486 185.794 55.7745 185.815 55.917 185.815C56.0165 185.815 56.1159 185.807 56.2153 185.79C56.3148 185.77 56.391 185.756 56.444 185.746L56.7772 187.322C56.6711 187.355 56.522 187.393 56.3297 187.436C56.1375 187.482 55.9038 187.511 55.6287 187.521C55.1183 187.54 54.6709 187.472 54.2864 187.317C53.9053 187.161 53.6086 186.919 53.3965 186.591C53.1843 186.263 53.0799 185.848 53.0832 185.348L53.083 177.95ZM61.4157 187.565C60.6302 187.565 59.954 187.406 59.3873 187.088C58.8238 186.766 58.3896 186.312 58.0847 185.726C57.7797 185.136 57.6272 184.438 57.6272 183.633C57.6272 182.847 57.7796 182.158 58.0845 181.564C58.3894 180.971 58.8186 180.509 59.3721 180.177C59.9289 179.846 60.5818 179.68 61.3309 179.68C61.8347 179.68 62.3037 179.761 62.7379 179.924C63.1754 180.083 63.5565 180.323 63.8814 180.645C64.2095 180.966 64.4647 181.37 64.647 181.858C64.8293 182.341 64.9205 182.908 64.9205 183.558L64.9205 184.14L58.4724 184.14L58.4723 182.827L62.9269 182.827C62.9269 182.522 62.8606 182.252 62.728 182.017C62.5954 181.781 62.4115 181.597 62.1761 181.465C61.9441 181.329 61.674 181.261 61.3658 181.261C61.0443 181.261 60.7592 181.336 60.5106 181.485C60.2654 181.631 60.0732 181.828 59.934 182.076C59.7948 182.322 59.7235 182.595 59.7202 182.897L59.7203 184.145C59.7203 184.523 59.7899 184.849 59.9291 185.124C60.0716 185.399 60.2722 185.611 60.5307 185.76C60.7892 185.91 61.0958 185.984 61.4504 185.984C61.6858 185.984 61.9012 185.951 62.0967 185.885C62.2923 185.818 62.4597 185.719 62.5989 185.586C62.7381 185.454 62.8441 185.291 62.917 185.099L64.8758 185.228C64.7764 185.699 64.5726 186.11 64.2644 186.461C63.9595 186.809 63.565 187.081 63.0812 187.277C62.6006 187.469 62.0454 187.565 61.4157 187.565ZM68.4205 183.001L68.4206 187.416L66.3028 187.416L66.3024 177.234L68.3606 177.234L68.3608 181.127L68.4503 181.127C68.6226 180.676 68.901 180.323 69.2855 180.068C69.6699 179.809 70.1522 179.68 70.7322 179.68C71.2625 179.68 71.7248 179.796 72.1193 180.028C72.517 180.256 72.8252 180.586 73.044 181.017C73.2661 181.445 73.3755 181.957 73.3722 182.553L73.3724 187.416L71.2545 187.416L71.2543 182.931C71.2576 182.461 71.1383 182.094 70.8963 181.833C70.6577 181.571 70.3229 181.44 69.892 181.44C69.6037 181.44 69.3485 181.501 69.1264 181.624C68.9077 181.746 68.7353 181.925 68.6094 182.161C68.4868 182.393 68.4238 182.673 68.4205 183.001ZM77.1568 183.001L77.157 187.415L75.0391 187.415L75.0388 179.779L77.0573 179.779L77.0573 181.126L77.1468 181.126C77.3158 180.682 77.5992 180.331 77.9969 180.072C78.3946 179.81 78.8769 179.68 79.4436 179.68C79.974 179.679 80.4363 179.795 80.8307 180.027C81.2252 180.259 81.5317 180.591 81.7505 181.022C81.9693 181.449 82.0787 181.96 82.0787 182.553L82.0789 187.415L79.961 187.415L79.9608 182.931C79.9641 182.464 79.8448 182.099 79.6028 181.837C79.3609 181.572 79.0278 181.439 78.6035 181.439C78.3185 181.439 78.0666 181.501 77.8478 181.623C77.6324 181.746 77.4634 181.925 77.3407 182.16C77.2214 182.392 77.1601 182.672 77.1568 183.001ZM87.1984 187.564C86.4261 187.564 85.7582 187.4 85.1948 187.072C84.6346 186.741 84.2021 186.28 83.8972 185.69C83.5922 185.097 83.4397 184.409 83.4397 183.627C83.4397 182.838 83.5921 182.149 83.897 181.559C84.2019 180.965 84.6344 180.505 85.1946 180.176C85.758 179.845 86.4258 179.679 87.1981 179.679C87.9703 179.679 88.6365 179.845 89.1967 180.176C89.7601 180.504 90.1943 180.965 90.4993 181.558C90.8042 182.148 90.9567 182.838 90.9567 183.627C90.9568 184.409 90.8043 185.097 90.4994 185.69C90.1945 186.28 89.7604 186.74 89.1969 187.072C88.6368 187.4 87.9706 187.564 87.1984 187.564ZM87.2082 185.924C87.5596 185.924 87.8529 185.824 88.0882 185.625C88.3235 185.423 88.5008 185.148 88.6201 184.8C88.7428 184.452 88.8041 184.056 88.804 183.612C88.804 183.168 88.7427 182.772 88.6201 182.424C88.5007 182.076 88.3234 181.8 88.0881 181.598C87.8527 181.396 87.5594 181.295 87.2081 181.295C86.8534 181.295 86.5552 181.396 86.3132 181.598C86.0746 181.801 85.894 182.076 85.7713 182.424C85.652 182.772 85.5924 183.168 85.5924 183.612C85.5924 184.056 85.6521 184.452 85.7714 184.8C85.8941 185.148 86.0747 185.423 86.3133 185.625C86.5553 185.824 86.8536 185.924 87.2082 185.924ZM94.4516 177.233L94.4519 187.415L92.334 187.415L92.3337 177.233L94.4516 177.233ZM99.5987 187.564C98.8265 187.564 98.1586 187.4 97.5952 187.072C97.035 186.74 96.6025 186.28 96.2975 185.69C95.9926 185.096 95.8401 184.409 95.8401 183.626C95.8401 182.838 95.9925 182.148 96.2974 181.558C96.6023 180.965 97.0348 180.504 97.5949 180.176C98.1584 179.845 98.8262 179.679 99.5985 179.679C100.371 179.679 101.037 179.845 101.597 180.176C102.161 180.504 102.595 180.965 102.9 181.558C103.205 182.148 103.357 182.837 103.357 183.626C103.357 184.408 103.205 185.096 102.9 185.689C102.595 186.279 102.161 186.74 101.597 187.072C101.037 187.4 100.371 187.564 99.5987 187.564ZM99.6086 185.923C99.96 185.923 100.253 185.824 100.489 185.625C100.724 185.423 100.901 185.148 101.021 184.8C101.143 184.452 101.204 184.055 101.204 183.611C101.204 183.167 101.143 182.771 101.02 182.423C100.901 182.075 100.724 181.8 100.488 181.598C100.253 181.396 99.9598 181.295 99.6085 181.295C99.2538 181.295 98.9555 181.396 98.7136 181.598C98.475 181.8 98.2943 182.075 98.1717 182.423C98.0524 182.771 97.9928 183.167 97.9928 183.611C97.9928 184.056 98.0525 184.452 98.1718 184.8C98.2944 185.148 98.4751 185.423 98.7137 185.625C98.9557 185.824 99.254 185.923 99.6086 185.923ZM108.185 187.563C107.412 187.564 106.745 187.399 106.181 187.071C105.621 186.74 105.188 186.279 104.883 185.689C104.579 185.096 104.426 184.408 104.426 183.626C104.426 182.837 104.578 182.148 104.883 181.558C105.188 180.965 105.621 180.504 106.181 180.176C106.744 179.844 107.412 179.679 108.184 179.679C108.957 179.679 109.623 179.844 110.183 180.176C110.746 180.504 111.181 180.964 111.486 181.558C111.791 182.148 111.943 182.837 111.943 183.626C111.943 184.408 111.791 185.096 111.486 185.689C111.181 186.279 110.747 186.74 110.183 187.071C109.623 187.399 108.957 187.563 108.185 187.563ZM108.195 185.923C108.546 185.923 108.839 185.823 109.075 185.625C109.31 185.422 109.487 185.147 109.606 184.799C109.729 184.451 109.79 184.055 109.79 183.611C109.79 183.167 109.729 182.771 109.606 182.423C109.487 182.075 109.31 181.8 109.074 181.598C108.839 181.395 108.546 181.294 108.194 181.294C107.84 181.294 107.541 181.395 107.3 181.598C107.061 181.8 106.88 182.075 106.758 182.423C106.638 182.771 106.579 183.167 106.579 183.611C106.579 184.055 106.638 184.451 106.758 184.799C106.88 185.147 107.061 185.422 107.3 185.625C107.542 185.823 107.84 185.923 108.195 185.923ZM116.761 190.437C116.075 190.437 115.486 190.342 114.996 190.153C114.509 189.968 114.121 189.714 113.832 189.393C113.544 189.071 113.357 188.71 113.271 188.309L115.229 188.046C115.289 188.198 115.384 188.34 115.513 188.473C115.642 188.606 115.813 188.712 116.025 188.791C116.24 188.874 116.502 188.915 116.81 188.915C117.271 188.915 117.651 188.803 117.949 188.577C118.251 188.355 118.401 187.982 118.401 187.459L118.401 186.062L118.312 186.062C118.219 186.274 118.08 186.474 117.894 186.663C117.709 186.852 117.47 187.006 117.178 187.126C116.887 187.245 116.539 187.305 116.134 187.305C115.561 187.305 115.039 187.172 114.568 186.907C114.101 186.639 113.728 186.229 113.45 185.679C113.174 185.126 113.037 184.426 113.037 183.581C113.037 182.716 113.178 181.993 113.459 181.413C113.741 180.833 114.116 180.399 114.583 180.111C115.054 179.823 115.569 179.678 116.129 179.678C116.557 179.678 116.915 179.751 117.203 179.897C117.491 180.04 117.723 180.218 117.899 180.434C118.078 180.646 118.215 180.855 118.312 181.06L118.391 181.06L118.391 179.778L120.494 179.778L120.494 187.489C120.494 188.138 120.335 188.682 120.017 189.119C119.699 189.557 119.258 189.885 118.695 190.104C118.135 190.326 117.49 190.437 116.761 190.437ZM116.805 185.714C117.147 185.714 117.435 185.629 117.67 185.46C117.909 185.288 118.091 185.043 118.217 184.724C118.347 184.403 118.411 184.018 118.411 183.571C118.411 183.124 118.348 182.736 118.222 182.408C118.096 182.076 117.914 181.819 117.675 181.637C117.437 181.455 117.147 181.364 116.805 181.364C116.457 181.364 116.164 181.458 115.925 181.647C115.687 181.833 115.506 182.091 115.383 182.423C115.261 182.754 115.199 183.137 115.199 183.571C115.199 184.012 115.261 184.393 115.383 184.715C115.509 185.033 115.69 185.28 115.925 185.455C116.164 185.628 116.457 185.714 116.805 185.714ZM122.18 187.414L122.179 179.778L124.297 179.777L124.298 187.414L122.18 187.414ZM123.243 178.793C122.928 178.793 122.658 178.689 122.433 178.48C122.211 178.268 122.1 178.014 122.1 177.719C122.1 177.428 122.211 177.177 122.433 176.969C122.658 176.756 122.928 176.65 123.243 176.65C123.558 176.65 123.827 176.756 124.049 176.969C124.274 177.177 124.387 177.428 124.387 177.719C124.387 178.014 124.274 178.268 124.049 178.48C123.827 178.689 123.558 178.793 123.243 178.793ZM128.172 187.558C127.685 187.558 127.25 187.473 126.869 187.304C126.488 187.132 126.186 186.878 125.964 186.544C125.746 186.206 125.636 185.785 125.636 185.281C125.636 184.857 125.714 184.5 125.87 184.212C126.026 183.924 126.238 183.692 126.506 183.516C126.775 183.34 127.079 183.208 127.421 183.118C127.766 183.029 128.127 182.966 128.505 182.929C128.949 182.883 129.307 182.84 129.579 182.8C129.85 182.757 130.048 182.694 130.17 182.611C130.293 182.528 130.354 182.406 130.354 182.243L130.354 182.213C130.354 181.898 130.255 181.655 130.056 181.483C129.86 181.31 129.582 181.224 129.221 181.224C128.839 181.224 128.536 181.309 128.311 181.478C128.085 181.643 127.936 181.852 127.863 182.104L125.904 181.945C126.004 181.481 126.199 181.08 126.491 180.742C126.783 180.4 127.159 180.139 127.62 179.956C128.084 179.771 128.621 179.678 129.23 179.678C129.655 179.678 130.061 179.728 130.448 179.827C130.84 179.926 131.186 180.08 131.488 180.289C131.792 180.498 132.033 180.767 132.208 181.095C132.384 181.419 132.472 181.809 132.472 182.263L132.472 187.414L130.464 187.414L130.464 186.355L130.404 186.355C130.281 186.593 130.117 186.804 129.912 186.986C129.706 187.165 129.459 187.306 129.171 187.409C128.883 187.508 128.55 187.558 128.172 187.558ZM128.778 186.096C129.09 186.096 129.365 186.035 129.603 185.912C129.842 185.786 130.029 185.617 130.165 185.405C130.301 185.193 130.369 184.953 130.369 184.684L130.369 183.874C130.303 183.917 130.212 183.957 130.096 183.993C129.983 184.026 129.855 184.058 129.713 184.088C129.57 184.114 129.428 184.139 129.285 184.162C129.143 184.182 129.013 184.2 128.897 184.217C128.649 184.253 128.432 184.311 128.246 184.391C128.061 184.471 127.916 184.578 127.814 184.714C127.711 184.847 127.66 185.012 127.66 185.211C127.66 185.5 127.764 185.72 127.973 185.872C128.185 186.022 128.453 186.096 128.778 186.096Z" fill="#A4A4A4"/>
<rect width="42" height="35.9986" rx="5.52002" transform="matrix(0.966465 0.256798 -0.260849 0.96538 131.163 14.6016)" fill="#8C6C34"/>
<path d="M163.716 54.9811C165.197 49.704 168.507 37.5323 170.151 30.9357C171.191 26.7616 168.635 25.262 168.054 24.7563L166.283 31.3137L159.993 54.5911C159.671 55.3402 158.792 56.3801 155.942 55.6449L123.209 46.9473C123.761 48.9172 125.41 50.1447 126.459 50.6L156.912 58.6919C159.826 59.466 162.032 58.0128 163.244 56.1007C163.463 55.7556 163.605 55.374 163.716 54.9811Z" fill="#875603"/>
<path d="M149.749 29.3756C152.311 30.0621 153.831 32.6951 153.145 35.2565C152.684 36.9765 151.344 38.2247 149.739 38.6527L148.313 46.6649L142.349 45.067L145.119 37.4159C143.943 36.2426 143.408 34.4911 143.869 32.7709C144.555 30.2094 147.188 28.6892 149.749 29.3756Z" fill="#8C7D60"/>
<path d="M148.746 29.1041C151.308 29.7906 152.828 32.4234 152.142 34.985C151.681 36.7047 150.342 37.9533 148.738 38.3817L147.311 46.3928L141.347 44.7949L144.117 37.1456C142.94 35.9721 142.405 34.2202 142.866 32.4994C143.552 29.9378 146.185 28.4177 148.746 29.1041Z" fill="#83541E"/>
<path d="M129.692 34.6457C129.479 35.4326 128.891 35.8386 128.624 35.9432C127.919 35.8967 127.985 34.5438 128.107 33.8731L131.842 20.0505C132.418 17.9194 133.297 17.6703 134.144 17.5023C135.281 17.2767 139.042 18.6255 141.217 19.2034C140.28 19.1302 137.407 19.2318 135.829 19.234C134.25 19.2362 133.648 20.0043 133.441 20.7693L129.692 34.6457Z" fill="#8C7D60"/>
<path d="M149.08 29.1917C151.641 29.878 153.161 32.5104 152.475 35.0717C152.014 36.7918 150.675 38.0411 149.07 38.4691L147.642 46.4849L141.678 44.887L144.449 37.2311C143.273 36.0577 142.739 34.3063 143.2 32.5864C143.886 30.0253 146.518 28.5057 149.08 29.1917Z" fill="#281C0B"/>
<path d="M163.946 24.3307C164.948 20.6549 164.558 16.7678 162.863 13.5247C161.168 10.2815 158.306 7.9479 154.907 7.03722C151.509 6.12655 147.852 6.71339 144.74 8.66866C141.629 10.6239 139.318 13.7875 138.317 17.4633" stroke="#676D7C" stroke-width="3.41402"/>
<path d="M139.896 11.9205C139.774 12.0584 139.717 12.2347 139.743 12.4158C139.769 12.5965 139.876 12.7671 140.034 12.885C140.192 13.003 140.387 13.0571 140.568 13.0305C140.749 13.0042 140.903 12.8993 141.001 12.7439C141.088 12.6084 141.166 12.4768 141.242 12.3468C142.42 10.0557 144.343 8.28749 146.577 6.87238C146.698 6.79467 146.822 6.71669 146.95 6.63848C146.812 6.69627 146.677 6.75399 146.545 6.81164C144.14 7.84101 141.77 9.40802 140.163 11.6054C140.072 11.717 139.983 11.8236 139.896 11.9205Z" fill="#7B808B"/>
<path d="M136.895 16.2433L140.208 17.1211L139.969 17.9131L136.658 17.0292L136.895 16.2433Z" fill="#49586F"/>
<path d="M162.286 23.8886L162.526 22.9069C163.1 23.0609 163.783 23.2267 164.277 23.283C164.715 23.3328 164.974 22.9843 165.042 22.5496C166.767 11.477 157.275 5.79532 153.224 5.04891C158.898 5.85723 161.608 8.70381 163.6 11.3578C166.867 15.7091 166.59 21.2905 165.636 24.7942L162.286 23.8886Z" fill="#49586F"/>
<defs>
<filter id="filter0_d_304_2527" x="15.749" y="44.4121" width="154" height="114" filterUnits="userSpaceOnUse" color-interpolation-filters="sRGB">
<feFlood flood-opacity="0" result="BackgroundImageFix"/>
<feColorMatrix in="SourceAlpha" type="matrix" values="0 0 0 0 0 0 0 0 0 0 0 0 0 0 0 0 0 0 127 0" result="hardAlpha"/>
<feOffset dy="-2"/>
<feGaussianBlur stdDeviation="6"/>
<feComposite in2="hardAlpha" operator="out"/>
<feColorMatrix type="matrix" values="0 0 0 0 0.0923839 0 0 0 0 0.169424 0 0 0 0 0.250995 0 0 0 0.25 0"/>
<feBlend mode="normal" in2="BackgroundImageFix" result="effect1_dropShadow_304_2527"/>
<feBlend mode="normal" in="SourceGraphic" in2="effect1_dropShadow_304_2527" result="shape"/>
</filter>
<linearGradient id="paint0_linear_304_2527" x1="92.749" y1="62.4621" x2="92.749" y2="148.412" gradientUnits="userSpaceOnUse">
<stop stop-color="#FDC969"/>
<stop offset="1" stop-color="#B48D42"/>
</linearGradient>
</defs>
</svg>
