<svg width="185" height="163" viewBox="0 0 185 163" fill="none" xmlns="http://www.w3.org/2000/svg">
<rect x="27.5029" y="-0.0078125" width="130" height="120" rx="8" fill="#B48D42"/>
<rect x="116.096" y="25.906" width="34.4049" height="34.4049" rx="4.43638" transform="rotate(18.7383 116.096 25.906)" fill="#CFCFCF"/>
<rect x="116.096" y="25.906" width="34.4049" height="34.4049" rx="4.43638" transform="rotate(18.7383 116.096 25.906)" stroke="white" stroke-width="1.77455"/>
<path d="M124.445 57.3127C123.742 57.0741 123.231 56.6254 122.914 55.9664C122.596 55.3075 122.558 54.6201 122.801 53.9043C123.044 53.1886 123.492 52.6659 124.145 52.3364C124.798 52.0069 125.476 51.9615 126.18 52.2C126.883 52.4386 127.394 52.8874 127.712 53.5463C128.029 54.2053 128.067 54.8926 127.824 55.6084C127.581 56.3242 127.133 56.8468 126.48 57.1763C125.827 57.5058 125.149 57.5513 124.445 57.3127ZM120.729 49.6098L119.365 46.6956C120.694 46.0253 122.124 45.6221 123.655 45.4862C125.185 45.3503 126.721 45.5431 128.261 46.0648C129.801 46.5865 131.136 47.3718 132.265 48.4209C133.395 49.47 134.28 50.6728 134.92 52.0293L132.082 53.461C131.599 52.4612 130.945 51.5835 130.118 50.828C129.291 50.0725 128.325 49.5073 127.22 49.1324C126.115 48.7575 125.005 48.6184 123.889 48.715C122.773 48.8116 121.72 49.1099 120.729 49.6098ZM117.933 43.8156L116.552 40.9525C118.636 39.8731 120.861 39.2311 123.227 39.0266C125.593 38.822 127.964 39.123 130.342 39.9296C132.72 40.7362 134.785 41.9404 136.539 43.5423C138.292 45.1442 139.667 47.0075 140.664 49.132L137.826 50.5636C136.981 48.814 135.835 47.2805 134.388 45.963C132.94 44.6456 131.244 43.657 129.302 42.9972C127.359 42.3374 125.412 42.0906 123.462 42.2567C121.511 42.4229 119.669 42.9425 117.933 43.8156Z" fill="#414141"/>
<g clip-path="url(#clip0_204_1934)">
<rect x="41.9287" y="26.3574" width="32.6304" height="32.6304" rx="3.5491" transform="rotate(-9.61528 41.9287 26.3574)" fill="#DCD8D8"/>
<g clip-path="url(#clip1_204_1934)">
<path d="M55.9166 47.5786C54.3974 47.836 53.0104 47.5299 51.7557 46.6605C50.5009 45.7911 49.7446 44.5968 49.4865 43.0776C49.2659 41.7754 49.4617 40.5486 50.0738 39.3972C50.686 38.2459 51.6024 37.4208 52.8232 36.922C52.9804 35.3153 53.6044 33.9301 54.6954 32.7663C55.7863 31.6026 57.1248 30.8863 58.7109 30.6176C60.6642 30.2867 62.4367 30.6865 64.0283 31.8169C65.6198 32.9473 66.5807 34.489 66.9108 36.4418C68.0855 36.3802 69.1256 36.7151 70.0313 37.4465C70.937 38.1779 71.487 39.1193 71.6814 40.2707C71.8935 41.5229 71.6358 42.6616 70.9082 43.6869C70.1805 44.7121 69.1903 45.3306 67.9373 45.5421L62.4278 46.4755C61.8769 46.5688 61.3722 46.4527 60.9138 46.1271C60.4554 45.8015 60.1791 45.363 60.085 44.8115L59.211 39.6526L57.8713 41.4768L56.2313 40.312L59.5594 35.6263L64.2451 38.9543L63.0803 40.5943L61.2145 39.3132L62.0884 44.4721L67.5979 43.5387C68.2991 43.4199 68.8508 43.0774 69.2529 42.5112C69.6551 41.945 69.7968 41.3113 69.678 40.6101C69.5592 39.9089 69.2167 39.3572 68.6505 38.9551C68.0843 38.553 67.4506 38.4113 66.7494 38.5301L65.2468 38.7846L64.9074 36.7812C64.6726 35.3955 63.984 34.2969 62.8415 33.4854C61.6989 32.6739 60.4352 32.3858 59.0503 32.6211C57.6653 32.8564 56.5671 33.545 55.7554 34.6868C54.9438 35.8287 54.6554 37.0925 54.8902 38.4782L54.3893 38.5631C53.421 38.7271 52.6525 39.2094 52.084 40.0099C51.5154 40.8103 51.3132 41.6947 51.4772 42.6631C51.6413 43.6314 52.1235 44.3998 52.924 44.9684C53.7245 45.5369 54.6089 45.7392 55.5772 45.5751L58.0815 45.1509L58.4209 47.1543L55.9166 47.5786Z" fill="#414141"/>
</g>
</g>
<rect x="40.9057" y="25.6308" width="34.4049" height="34.4049" rx="4.43638" transform="rotate(-9.61528 40.9057 25.6308)" stroke="white" stroke-width="1.77455"/>
<rect x="75.3887" y="14.9386" width="46.3555" height="46.3555" rx="4.43638" transform="rotate(4.35122 75.3887 14.9386)" fill="#E8E8E8"/>
<rect x="75.3887" y="14.9386" width="46.3555" height="46.3555" rx="4.43638" transform="rotate(4.35122 75.3887 14.9386)" stroke="white" stroke-width="1.77455"/>
<path d="M97.3128 32.2955C98.4856 32.3847 99.4419 32.8476 100.214 33.7035C100.987 34.5595 101.335 35.6037 101.241 36.8347C101.106 38.6054 100.159 39.8224 98.3991 40.4857L97.2802 55.1909L93.8809 54.9322L94.9998 40.227C93.3605 39.3051 92.6082 37.9588 92.7429 36.1881C92.8366 34.957 93.3555 33.9788 94.2316 33.2483C95.1078 32.5178 96.1401 32.2062 97.3128 32.2955ZM105.566 29.192C107.531 31.4616 108.469 34.179 108.38 37.3779C108.149 40.4134 106.807 42.9912 104.358 45.0776L102.492 42.8664C104.308 41.4611 105.308 39.5527 105.49 37.158C105.661 34.9151 104.961 32.8774 103.39 31.0617L105.566 29.192ZM87.7067 25.7637C84.8003 28.2394 83.1877 31.4581 82.8849 35.438C82.5821 39.4178 83.6929 42.7929 86.1913 45.6799L84.0462 47.5859C81.0433 43.9143 79.6491 39.7714 79.9955 35.2181C80.342 30.6649 82.3444 26.8144 85.8683 23.6393L87.7067 25.7637ZM109.935 25.4706C112.938 29.1423 114.335 33.2514 113.989 37.8047C113.629 42.5265 111.626 46.3939 108.113 49.4172L106.281 47.2085C109.188 44.7328 110.8 41.5141 111.099 37.5848C111.398 33.6555 110.295 30.1793 107.797 27.2924L109.935 25.4706ZM89.6238 27.9789L91.4924 30.1564C89.6747 31.5786 88.676 33.4701 88.4938 35.8648C88.3231 38.1077 89.0228 40.1454 90.5942 41.9611L88.415 43.8646C86.3094 41.4315 85.3734 38.6804 85.6044 35.6449C85.8353 32.6094 87.1743 30.0653 89.6238 27.9789Z" fill="#414141"/>
<g filter="url(#filter0_d_204_1934)">
<path d="M80.2379 49.9922H35.5029C31.0847 49.9922 27.5029 53.5739 27.5029 57.9922V84.9922V111.992C27.5029 116.41 31.0847 119.992 35.5029 119.992H149.503C153.921 119.992 157.503 116.41 157.503 111.992V70.4862C157.503 66.0679 153.921 62.4862 149.503 62.4862H104.177C102.628 62.4862 101.111 62.0361 99.8125 61.1905L84.6028 51.2879C83.3041 50.4423 81.7877 49.9922 80.2379 49.9922Z" fill="url(#paint0_linear_204_1934)"/>
</g>
<path d="M3.50807 131.816L3.50841 141.998L1.35571 141.998L1.35537 131.816L3.50807 131.816ZM7.35752 137.583L7.35766 141.998L5.23977 141.998L5.23951 134.362L7.25798 134.361L7.25802 135.709L7.34751 135.709C7.51653 135.265 7.7999 134.913 8.19762 134.655C8.59534 134.393 9.07758 134.262 9.64434 134.262C10.1746 134.262 10.637 134.378 11.0314 134.61C11.4258 134.842 11.7324 135.173 11.9512 135.604C12.17 136.032 12.2794 136.542 12.2794 137.135L12.2795 141.998L10.1616 141.998L10.1615 137.513C10.1648 137.046 10.0455 136.681 9.8035 136.42C9.56154 136.154 9.22844 136.022 8.8042 136.022C8.51916 136.022 8.26727 136.083 8.04852 136.206C7.83309 136.329 7.66406 136.507 7.54144 136.743C7.42213 136.975 7.36082 137.255 7.35752 137.583ZM18.055 134.361L18.0551 135.952L13.342 135.952L13.342 134.361L18.055 134.361ZM14.4211 141.998L14.4208 133.809C14.4208 133.256 14.5285 132.797 14.7439 132.432C14.9626 132.068 15.2609 131.794 15.6387 131.612C16.0166 131.43 16.4458 131.338 16.9264 131.338C17.2512 131.338 17.5478 131.363 17.8163 131.413C18.0881 131.463 18.2903 131.507 18.4228 131.547L18.045 133.138C17.9622 133.112 17.8594 133.087 17.7368 133.064C17.6175 133.04 17.4949 133.029 17.3689 133.029C17.0574 133.029 16.8403 133.102 16.7176 133.247C16.595 133.39 16.5337 133.591 16.5337 133.849L16.534 141.997L14.4211 141.998ZM22.526 142.146C21.7537 142.146 21.0859 141.982 20.5224 141.654C19.9623 141.323 19.5297 140.862 19.2248 140.272C18.9198 139.679 18.7674 138.991 18.7673 138.209C18.7673 137.42 18.9198 136.731 19.2247 136.141C19.5296 135.548 19.9621 135.087 20.5222 134.759C21.0856 134.427 21.7535 134.262 22.5257 134.261C23.298 134.261 23.9642 134.427 24.5243 134.759C25.0878 135.087 25.522 135.547 25.8269 136.141C26.1319 136.731 26.2844 137.42 26.2844 138.209C26.2844 138.991 26.132 139.679 25.8271 140.272C25.5222 140.862 25.088 141.323 24.5246 141.654C23.9644 141.982 23.2982 142.146 22.526 142.146ZM22.5359 140.506C22.8872 140.506 23.1805 140.406 23.4158 140.207C23.6512 140.005 23.8285 139.73 23.9478 139.382C24.0704 139.034 24.1317 138.638 24.1317 138.194C24.1317 137.75 24.0703 137.354 23.9477 137.006C23.8284 136.658 23.651 136.383 23.4157 136.181C23.1804 135.978 22.8871 135.877 22.5357 135.877C22.1811 135.877 21.8828 135.978 21.6408 136.181C21.4022 136.383 21.2216 136.658 21.099 137.006C20.9797 137.354 20.92 137.75 20.92 138.194C20.9201 138.638 20.9797 139.034 21.0991 139.382C21.2217 139.73 21.4023 140.005 21.641 140.208C21.8829 140.406 22.1812 140.506 22.5359 140.506ZM32.4193 136.976L32.4193 138.656L27.7759 138.656L27.7758 136.976L32.4193 136.976ZM37.4641 134.36L39.582 134.36L39.5823 142.375C39.5823 142.965 39.4663 143.442 39.2343 143.806C39.0023 144.171 38.6692 144.438 38.2351 144.607C37.8042 144.776 37.2888 144.86 36.6889 144.86C36.616 144.86 36.5464 144.859 36.4801 144.855C36.4105 144.855 36.3376 144.854 36.2613 144.851L36.2613 143.195C36.3176 143.198 36.3674 143.2 36.4104 143.2C36.4502 143.203 36.4933 143.205 36.5397 143.205C36.8811 143.205 37.1197 143.132 37.2556 142.986C37.3948 142.844 37.4644 142.628 37.4644 142.34L37.4641 134.36ZM38.5181 133.376C38.2065 133.376 37.938 133.272 37.7127 133.063C37.4873 132.851 37.3746 132.597 37.3746 132.302C37.3746 132.011 37.4872 131.76 37.7126 131.551C37.938 131.339 38.2064 131.233 38.518 131.233C38.8362 131.233 39.1063 131.339 39.3284 131.551C39.5538 131.76 39.6665 132.01 39.6665 132.302C39.6665 132.597 39.5538 132.851 39.3284 133.063C39.1064 133.272 38.8362 133.376 38.5181 133.376ZM43.4564 142.141C42.9692 142.141 42.535 142.056 42.1538 141.887C41.7727 141.715 41.471 141.461 41.249 141.127C41.0302 140.789 40.9208 140.368 40.9208 139.864C40.9208 139.44 40.9987 139.083 41.1544 138.795C41.3102 138.507 41.5223 138.275 41.7908 138.099C42.0592 137.923 42.3642 137.791 42.7055 137.701C43.0502 137.612 43.4115 137.549 43.7893 137.512C44.2335 137.466 44.5914 137.423 44.8632 137.383C45.135 137.34 45.3322 137.277 45.4548 137.194C45.5774 137.111 45.6387 136.988 45.6387 136.826L45.6387 136.796C45.6387 136.481 45.5393 136.238 45.3404 136.065C45.1449 135.893 44.8665 135.807 44.5052 135.807C44.124 135.807 43.8208 135.891 43.5954 136.061C43.37 136.226 43.2209 136.435 43.148 136.687L41.1892 136.528C41.2886 136.064 41.4841 135.663 41.7758 135.325C42.0674 134.983 42.4436 134.722 42.9043 134.539C43.3683 134.354 43.9052 134.261 44.5151 134.261C44.9393 134.261 45.3453 134.31 45.7331 134.41C46.1242 134.509 46.4706 134.663 46.7722 134.872C47.0771 135.081 47.3174 135.349 47.4931 135.678C47.6688 136.002 47.7566 136.392 47.7566 136.846L47.7568 141.996L45.7483 141.997L45.7483 140.938L45.6886 140.938C45.566 141.176 45.4019 141.387 45.1964 141.569C44.9909 141.748 44.744 141.889 44.4557 141.992C44.1673 142.091 43.8342 142.141 43.4564 142.141ZM44.0629 140.679C44.3744 140.679 44.6495 140.618 44.8882 140.495C45.1268 140.369 45.314 140.2 45.4499 139.988C45.5858 139.776 45.6537 139.536 45.6537 139.267L45.6537 138.457C45.5874 138.5 45.4963 138.54 45.3803 138.576C45.2676 138.609 45.14 138.641 44.9975 138.671C44.8549 138.697 44.7124 138.722 44.5699 138.745C44.4274 138.765 44.2981 138.783 44.1821 138.8C43.9336 138.836 43.7165 138.894 43.5309 138.974C43.3453 139.053 43.2011 139.161 43.0983 139.297C42.9956 139.43 42.9442 139.595 42.9442 139.794C42.9442 140.083 43.0487 140.303 43.2575 140.455C43.4696 140.605 43.7381 140.679 44.0629 140.679ZM54.5591 139.799L54.564 137.258L54.8722 137.258L57.3182 134.36L59.7493 134.36L56.4632 138.198L55.9611 138.198L54.5591 139.799ZM52.6402 141.996L52.6398 131.814L54.7577 131.814L54.7581 141.996L52.6402 141.996ZM57.4129 141.996L55.1656 138.67L56.5775 137.174L59.8937 141.996L57.4129 141.996ZM63.9244 142.145C63.1522 142.145 62.4843 141.981 61.9209 141.653C61.3607 141.322 60.9282 140.861 60.6232 140.271C60.3183 139.678 60.1658 138.99 60.1658 138.208C60.1657 137.419 60.3182 136.729 60.6231 136.139C60.928 135.546 61.3605 135.085 61.9206 134.757C62.4841 134.426 63.1519 134.26 63.9242 134.26C64.6964 134.26 65.3626 134.426 65.9228 134.757C66.4862 135.085 66.9204 135.546 67.2254 136.139C67.5303 136.729 67.6828 137.419 67.6828 138.207C67.6828 138.99 67.5304 139.677 67.2255 140.271C66.9206 140.861 66.4864 141.321 65.923 141.653C65.3629 141.981 64.6967 142.145 63.9244 142.145ZM63.9343 140.504C64.2856 140.504 64.579 140.405 64.8143 140.206C65.0496 140.004 65.2269 139.729 65.3462 139.381C65.4688 139.033 65.5301 138.637 65.5301 138.193C65.5301 137.748 65.4688 137.352 65.3461 137.004C65.2268 136.656 65.0495 136.381 64.8141 136.179C64.5788 135.977 64.2855 135.876 63.9342 135.876C63.5795 135.876 63.2812 135.977 63.0393 136.179C62.8007 136.381 62.62 136.656 62.4974 137.004C62.3781 137.352 62.3185 137.749 62.3185 138.193C62.3185 138.637 62.3782 139.033 62.4975 139.381C62.6201 139.729 62.8008 140.004 63.0394 140.206C63.2814 140.405 63.5797 140.504 63.9343 140.504ZM69.0601 141.996L69.0598 134.359L71.0783 134.359L71.0783 135.707L71.1678 135.707C71.3269 135.259 71.592 134.906 71.9632 134.648C72.3344 134.389 72.7786 134.26 73.2956 134.26C73.8193 134.26 74.2651 134.391 74.633 134.653C75.0009 134.911 75.2462 135.262 75.3688 135.706L75.4484 135.706C75.6041 135.269 75.8858 134.919 76.2935 134.657C76.7045 134.392 77.19 134.26 77.7502 134.26C78.4628 134.26 79.0411 134.487 79.4853 134.941C79.9327 135.391 80.1565 136.031 80.1565 136.86L80.1567 141.995L78.0437 141.995L78.0436 137.277C78.0436 136.853 77.9309 136.535 77.7055 136.323C77.4801 136.111 77.1984 136.005 76.8603 136.005C76.4758 136.005 76.1759 136.127 75.9605 136.373C75.745 136.615 75.6373 136.934 75.6373 137.332L75.6375 141.996L73.5842 141.996L73.5841 137.233C73.5841 136.858 73.4763 136.56 73.2609 136.338C73.0488 136.116 72.7687 136.005 72.4207 136.005C72.1854 136.005 71.9732 136.065 71.7843 136.184C71.5987 136.3 71.4512 136.464 71.3419 136.676C71.2325 136.885 71.1778 137.13 71.1778 137.412L71.178 141.996L69.0601 141.996ZM81.8296 141.995L81.8294 134.359L83.8478 134.359L83.8479 135.706L83.9374 135.706C84.0964 135.259 84.3616 134.906 84.7328 134.647C85.104 134.389 85.5481 134.259 86.0651 134.259C86.5888 134.259 87.0346 134.39 87.4025 134.652C87.7704 134.911 88.0157 135.262 88.1383 135.706L88.2179 135.706C88.3737 135.269 88.6554 134.919 89.063 134.657C89.474 134.392 89.9596 134.259 90.5197 134.259C91.2323 134.259 91.8107 134.486 92.2548 134.94C92.7023 135.391 92.926 136.031 92.926 136.859L92.9262 141.995L90.8133 141.995L90.8131 137.277C90.8131 136.853 90.7004 136.535 90.475 136.322C90.2496 136.11 89.9679 136.004 89.6298 136.004C89.2454 136.004 88.9454 136.127 88.73 136.372C88.5146 136.614 88.4069 136.934 88.4069 137.332L88.407 141.995L86.3538 141.995L86.3536 137.232C86.3536 136.858 86.2459 136.56 86.0304 136.337C85.8183 136.115 85.5382 136.004 85.1902 136.004C84.9549 136.004 84.7428 136.064 84.5538 136.183C84.3682 136.299 84.2208 136.464 84.1114 136.676C84.002 136.884 83.9473 137.13 83.9474 137.411L83.9475 141.995L81.8296 141.995ZM99.496 138.743L99.4959 134.358L101.614 134.358L101.614 141.995L99.5807 141.995L99.5806 140.608L99.5011 140.608C99.3287 141.055 99.0421 141.415 98.641 141.687C98.2433 141.958 97.7578 142.094 97.1844 142.094C96.674 142.094 96.2249 141.978 95.8371 141.746C95.4493 141.514 95.146 141.184 94.9272 140.757C94.7118 140.329 94.6024 139.817 94.599 139.221L94.5989 134.359L96.7168 134.358L96.7169 138.843C96.7203 139.294 96.8412 139.65 97.0799 139.912C97.3185 140.174 97.6384 140.304 98.0394 140.304C98.2946 140.304 98.5333 140.246 98.7553 140.13C98.9774 140.011 99.1564 139.835 99.2922 139.603C99.4314 139.371 99.4994 139.085 99.496 138.743ZM105.426 137.58L105.426 141.995L103.308 141.995L103.308 134.358L105.326 134.358L105.326 135.705L105.416 135.705C105.585 135.261 105.868 134.91 106.266 134.651C106.664 134.39 107.146 134.259 107.713 134.259C108.243 134.259 108.705 134.375 109.1 134.607C109.494 134.839 109.801 135.17 110.02 135.601C110.238 136.028 110.348 136.539 110.348 137.132L110.348 141.994L108.23 141.994L108.23 137.51C108.233 137.043 108.114 136.678 107.872 136.416C107.63 136.151 107.297 136.019 106.873 136.019C106.588 136.019 106.336 136.08 106.117 136.203C105.901 136.325 105.732 136.504 105.61 136.74C105.49 136.972 105.429 137.252 105.426 137.58ZM112.017 141.994L112.017 134.358L114.135 134.358L114.135 141.994L112.017 141.994ZM113.081 133.374C112.766 133.374 112.496 133.269 112.27 133.06C112.048 132.848 111.937 132.595 111.937 132.3C111.937 132.008 112.048 131.758 112.27 131.549C112.496 131.337 112.766 131.231 113.081 131.231C113.396 131.231 113.664 131.337 113.886 131.549C114.111 131.758 114.224 132.008 114.224 132.3C114.224 132.595 114.112 132.848 113.886 133.06C113.664 133.269 113.396 133.374 113.081 133.374ZM117.751 139.797L117.755 137.256L118.064 137.256L120.51 134.358L122.941 134.358L119.655 138.196L119.152 138.196L117.751 139.797ZM115.832 141.994L115.831 131.812L117.949 131.812L117.949 141.994L115.832 141.994ZM120.604 141.994L118.357 138.668L119.769 137.172L123.085 141.994L120.604 141.994ZM126.158 142.138C125.67 142.138 125.236 142.054 124.855 141.884C124.474 141.712 124.172 141.459 123.95 141.124C123.731 140.786 123.622 140.365 123.622 139.861C123.622 139.437 123.7 139.081 123.856 138.792C124.011 138.504 124.223 138.272 124.492 138.096C124.76 137.92 125.065 137.788 125.407 137.698C125.751 137.609 126.113 137.546 126.491 137.509C126.935 137.463 127.293 137.42 127.564 137.38C127.836 137.337 128.033 137.274 128.156 137.191C128.279 137.108 128.34 136.986 128.34 136.823L128.34 136.793C128.34 136.479 128.24 136.235 128.042 136.063C127.846 135.89 127.568 135.804 127.206 135.804C126.825 135.804 126.522 135.889 126.297 136.058C126.071 136.223 125.922 136.432 125.849 136.684L123.89 136.525C123.99 136.061 124.185 135.66 124.477 135.322C124.769 134.981 125.145 134.719 125.605 134.536C126.069 134.351 126.606 134.258 127.216 134.258C127.64 134.258 128.047 134.308 128.434 134.407C128.825 134.507 129.172 134.661 129.473 134.869C129.778 135.078 130.019 135.347 130.194 135.675C130.37 136 130.458 136.389 130.458 136.843L130.458 141.994L128.449 141.994L128.449 140.935L128.39 140.935C128.267 141.173 128.103 141.384 127.898 141.566C127.692 141.745 127.445 141.886 127.157 141.989C126.868 142.088 126.535 142.138 126.158 142.138ZM126.764 140.676C127.076 140.676 127.351 140.615 127.589 140.492C127.828 140.366 128.015 140.197 128.151 139.985C128.287 139.773 128.355 139.533 128.355 139.264L128.355 138.454C128.289 138.497 128.197 138.537 128.081 138.573C127.969 138.606 127.841 138.638 127.699 138.668C127.556 138.694 127.414 138.719 127.271 138.742C127.129 138.762 126.999 138.78 126.883 138.797C126.635 138.834 126.418 138.892 126.232 138.971C126.046 139.051 125.902 139.158 125.8 139.294C125.697 139.427 125.645 139.593 125.645 139.791C125.645 140.08 125.75 140.3 125.959 140.453C126.171 140.602 126.439 140.676 126.764 140.676ZM136.163 134.357L136.163 135.948L131.564 135.948L131.564 134.357L136.163 134.357ZM132.608 132.528L134.726 132.528L134.726 139.647C134.726 139.842 134.756 139.995 134.816 140.104C134.875 140.21 134.958 140.285 135.064 140.328C135.173 140.371 135.299 140.393 135.442 140.393C135.541 140.393 135.641 140.384 135.74 140.368C135.84 140.348 135.916 140.333 135.969 140.323L136.302 141.899C136.196 141.932 136.047 141.97 135.855 142.013C135.662 142.06 135.429 142.088 135.154 142.098C134.643 142.118 134.196 142.05 133.811 141.894C133.43 141.738 133.134 141.496 132.921 141.168C132.709 140.84 132.605 140.426 132.608 139.925L132.608 132.528ZM143.8 136.534L141.861 136.654C141.828 136.488 141.757 136.339 141.648 136.206C141.538 136.07 141.394 135.963 141.215 135.883C141.039 135.8 140.829 135.759 140.584 135.759C140.256 135.759 139.979 135.829 139.753 135.968C139.528 136.104 139.415 136.286 139.415 136.515C139.415 136.697 139.488 136.851 139.634 136.977C139.78 137.103 140.03 137.204 140.385 137.28L141.767 137.559C142.509 137.711 143.063 137.956 143.428 138.294C143.792 138.632 143.974 139.077 143.974 139.627C143.974 140.127 143.827 140.566 143.532 140.944C143.24 141.322 142.839 141.617 142.329 141.829C141.822 142.038 141.237 142.142 140.574 142.142C139.563 142.143 138.758 141.932 138.158 141.511C137.561 141.087 137.211 140.51 137.109 139.781L139.192 139.672C139.255 139.98 139.407 140.215 139.649 140.378C139.891 140.537 140.201 140.616 140.579 140.616C140.95 140.616 141.248 140.545 141.474 140.402C141.702 140.257 141.818 140.069 141.822 139.841C141.818 139.648 141.737 139.491 141.578 139.368C141.419 139.242 141.174 139.146 140.842 139.08L139.52 138.817C138.774 138.667 138.219 138.409 137.854 138.041C137.493 137.673 137.312 137.204 137.312 136.634C137.312 136.144 137.445 135.721 137.71 135.366C137.979 135.012 138.355 134.738 138.839 134.546C139.326 134.354 139.896 134.258 140.549 134.258C141.513 134.258 142.272 134.461 142.826 134.869C143.383 135.277 143.707 135.832 143.8 136.534ZM145.308 141.993L145.308 134.357L147.426 134.357L147.426 141.993L145.308 141.993ZM146.372 133.372C146.057 133.372 145.787 133.268 145.561 133.059C145.339 132.847 145.228 132.594 145.228 132.299C145.228 132.007 145.339 131.757 145.561 131.548C145.787 131.336 146.057 131.23 146.372 131.23C146.687 131.23 146.955 131.336 147.177 131.548C147.402 131.757 147.515 132.007 147.515 132.299C147.515 132.593 147.403 132.847 147.177 133.059C146.955 133.268 146.687 133.372 146.372 133.372ZM152.573 142.142C151.801 142.142 151.133 141.978 150.569 141.65C150.009 141.319 149.577 140.858 149.272 140.268C148.967 139.675 148.814 138.987 148.814 138.205C148.814 137.416 148.967 136.726 149.272 136.137C149.576 135.543 150.009 135.083 150.569 134.754C151.133 134.423 151.8 134.257 152.573 134.257C153.345 134.257 154.011 134.423 154.571 134.754C155.135 135.082 155.569 135.543 155.874 136.136C156.179 136.726 156.331 137.416 156.331 138.204C156.331 138.987 156.179 139.674 155.874 140.268C155.569 140.858 155.135 141.318 154.571 141.65C154.011 141.978 153.345 142.142 152.573 142.142ZM152.583 140.501C152.934 140.501 153.227 140.402 153.463 140.203C153.698 140.001 153.875 139.726 153.995 139.378C154.117 139.03 154.179 138.634 154.179 138.19C154.179 137.745 154.117 137.349 153.995 137.001C153.875 136.653 153.698 136.378 153.463 136.176C153.227 135.974 152.934 135.873 152.583 135.873C152.228 135.873 151.93 135.974 151.688 136.176C151.449 136.378 151.268 136.653 151.146 137.002C151.027 137.35 150.967 137.746 150.967 138.19C150.967 138.634 151.027 139.03 151.146 139.378C151.269 139.726 151.449 140.001 151.688 140.203C151.93 140.402 152.228 140.501 152.583 140.501ZM161.159 142.142C160.387 142.142 159.719 141.978 159.155 141.65C158.595 141.318 158.163 140.858 157.858 140.268C157.553 139.674 157.4 138.987 157.4 138.204C157.4 137.416 157.553 136.726 157.857 136.136C158.162 135.543 158.595 135.082 159.155 134.754C159.718 134.423 160.386 134.257 161.159 134.257C161.931 134.257 162.597 134.423 163.157 134.754C163.721 135.082 164.155 135.543 164.46 136.136C164.765 136.726 164.917 137.415 164.917 138.204C164.917 138.986 164.765 139.674 164.46 140.267C164.155 140.857 163.721 141.318 163.157 141.65C162.597 141.978 161.931 142.142 161.159 142.142ZM161.169 140.501C161.52 140.501 161.813 140.402 162.049 140.203C162.284 140.001 162.461 139.726 162.581 139.378C162.703 139.03 162.765 138.633 162.765 138.189C162.764 137.745 162.703 137.349 162.581 137.001C162.461 136.653 162.284 136.378 162.049 136.176C161.813 135.974 161.52 135.873 161.169 135.873C160.814 135.873 160.516 135.974 160.274 136.176C160.035 136.378 159.854 136.653 159.732 137.001C159.612 137.349 159.553 137.745 159.553 138.189C159.553 138.634 159.613 139.03 159.732 139.378C159.855 139.726 160.035 140.001 160.274 140.203C160.516 140.402 160.814 140.501 161.169 140.501ZM168.412 137.578L168.412 141.992L166.294 141.992L166.294 134.356L168.313 134.356L168.313 135.703L168.402 135.703C168.571 135.259 168.855 134.908 169.252 134.649C169.65 134.387 170.132 134.257 170.699 134.257C171.229 134.257 171.692 134.373 172.086 134.605C172.481 134.837 172.787 135.168 173.006 135.599C173.225 136.026 173.334 136.537 173.334 137.13L173.334 141.992L171.216 141.992L171.216 137.508C171.219 137.041 171.1 136.676 170.858 136.414C170.616 136.149 170.283 136.016 169.859 136.017C169.574 136.017 169.322 136.078 169.103 136.2C168.888 136.323 168.719 136.502 168.596 136.737C168.477 136.969 168.416 137.25 168.412 137.578ZM175.003 141.992L175.003 134.356L177.121 134.356L177.121 141.992L175.003 141.992ZM176.067 133.371C175.752 133.371 175.482 133.267 175.257 133.058C175.035 132.846 174.924 132.593 174.924 132.298C174.924 132.006 175.035 131.756 175.257 131.547C175.482 131.335 175.752 131.229 176.067 131.229C176.382 131.229 176.65 131.335 176.872 131.547C177.098 131.756 177.21 132.006 177.211 132.298C177.211 132.592 177.098 132.846 176.872 133.058C176.65 133.267 176.382 133.371 176.067 133.371ZM183.576 136.971L183.576 138.651L178.932 138.651L178.932 136.971L183.576 136.971ZM56.6407 151.36L56.6408 152.951L52.0421 152.951L52.042 151.36L56.6407 151.36ZM53.086 149.53L55.2039 149.53L55.2041 156.65C55.2041 156.845 55.234 156.998 55.2936 157.107C55.3533 157.213 55.4362 157.288 55.5422 157.331C55.6516 157.374 55.7775 157.395 55.9201 157.395C56.0195 157.395 56.1189 157.387 56.2184 157.37C56.3178 157.351 56.394 157.336 56.447 157.326L56.7802 158.902C56.6741 158.935 56.525 158.973 56.3328 159.016C56.1405 159.062 55.9069 159.091 55.6318 159.101C55.1213 159.12 54.6739 159.053 54.2894 158.897C53.9083 158.741 53.6116 158.499 53.3995 158.171C53.1874 157.843 53.0829 157.429 53.0862 156.928L53.086 149.53ZM61.4187 159.145C60.6332 159.145 59.957 158.986 59.3903 158.668C58.8268 158.346 58.3926 157.892 58.0877 157.306C57.7827 156.716 57.6302 156.018 57.6302 155.213C57.6302 154.427 57.7826 153.738 58.0875 153.145C58.3924 152.551 58.8216 152.089 59.3751 151.757C59.9319 151.426 60.5849 151.26 61.3339 151.26C61.8377 151.26 62.3067 151.341 62.7409 151.504C63.1784 151.663 63.5596 151.903 63.8844 152.225C64.2125 152.546 64.4677 152.95 64.65 153.438C64.8323 153.922 64.9235 154.488 64.9235 155.138L64.9236 155.72L58.4754 155.72L58.4754 154.407L62.9299 154.407C62.9299 154.102 62.8636 153.832 62.731 153.597C62.5984 153.361 62.4145 153.178 62.1791 153.045C61.9471 152.909 61.677 152.841 61.3688 152.841C61.0473 152.841 60.7622 152.916 60.5137 153.065C60.2684 153.211 60.0762 153.408 59.937 153.657C59.7978 153.902 59.7265 154.175 59.7232 154.477L59.7233 155.725C59.7233 156.103 59.7929 156.429 59.9321 156.704C60.0746 156.979 60.2752 157.191 60.5337 157.34C60.7922 157.49 61.0988 157.564 61.4534 157.564C61.6888 157.564 61.9042 157.531 62.0997 157.465C62.2953 157.398 62.4627 157.299 62.6019 157.166C62.7411 157.034 62.8471 156.871 62.92 156.679L64.8788 156.808C64.7794 157.279 64.5756 157.69 64.2674 158.041C63.9625 158.389 63.5681 158.661 63.0842 158.857C62.6036 159.049 62.0484 159.145 61.4187 159.145ZM68.4235 154.581L68.4237 158.996L66.3058 158.996L66.3054 148.814L68.3637 148.814L68.3638 152.707L68.4533 152.707C68.6256 152.256 68.904 151.903 69.2885 151.648C69.6729 151.389 70.1552 151.26 70.7352 151.26C71.2655 151.26 71.7279 151.376 72.1223 151.608C72.52 151.837 72.8283 152.166 73.047 152.597C73.2691 153.025 73.3785 153.537 73.3752 154.133L73.3754 158.996L71.2575 158.996L71.2573 154.511C71.2606 154.041 71.1413 153.674 70.8993 153.413C70.6607 153.151 70.3259 153.02 69.8951 153.02C69.6067 153.02 69.3515 153.081 69.1294 153.204C68.9107 153.326 68.7383 153.505 68.6124 153.741C68.4898 153.973 68.4268 154.253 68.4235 154.581ZM77.1598 154.581L77.16 158.995L75.0421 158.996L75.0418 151.359L77.0603 151.359L77.0603 152.706L77.1498 152.706C77.3189 152.262 77.6022 151.911 77.9999 151.652C78.3977 151.391 78.8799 151.26 79.4467 151.26C79.977 151.26 80.4393 151.376 80.8337 151.608C81.2282 151.84 81.5348 152.171 81.7535 152.602C81.9723 153.029 82.0817 153.54 82.0817 154.133L82.0819 158.995L79.964 158.995L79.9638 154.511C79.9671 154.044 79.8478 153.679 79.6058 153.417C79.3639 153.152 79.0308 153.02 78.6065 153.02C78.3215 153.02 78.0696 153.081 77.8508 153.204C77.6354 153.326 77.4664 153.505 77.3438 153.74C77.2245 153.972 77.1631 154.253 77.1598 154.581ZM87.2014 159.144C86.4291 159.144 85.7613 158.98 85.1978 158.652C84.6377 158.321 84.2051 157.86 83.9002 157.27C83.5952 156.677 83.4427 155.989 83.4427 155.207C83.4427 154.418 83.5951 153.729 83.9 153.139C84.2049 152.545 84.6374 152.085 85.1976 151.757C85.761 151.425 86.4288 151.259 87.2011 151.259C87.9734 151.259 88.6396 151.425 89.1997 151.756C89.7632 152.085 90.1974 152.545 90.5023 153.138C90.8072 153.728 90.9597 154.418 90.9598 155.207C90.9598 155.989 90.8073 156.677 90.5024 157.27C90.1975 157.86 89.7634 158.321 89.1999 158.652C88.6398 158.98 87.9736 159.144 87.2014 159.144ZM87.2113 157.504C87.5626 157.504 87.8559 157.404 88.0912 157.205C88.3265 157.003 88.5038 156.728 88.6231 156.38C88.7458 156.032 88.8071 155.636 88.8071 155.192C88.807 154.748 88.7457 154.352 88.6231 154.004C88.5037 153.656 88.3264 153.381 88.0911 153.178C87.8558 152.976 87.5624 152.875 87.2111 152.875C86.8565 152.875 86.5582 152.976 86.3162 153.178C86.0776 153.381 85.897 153.656 85.7743 154.004C85.655 154.352 85.5954 154.748 85.5954 155.192C85.5954 155.636 85.6551 156.032 85.7744 156.38C85.8971 156.728 86.0777 157.003 86.3164 157.205C86.5583 157.404 86.8566 157.504 87.2113 157.504ZM94.4546 148.813L94.4549 158.995L92.337 158.995L92.3367 148.813L94.4546 148.813ZM99.6018 159.144C98.8295 159.144 98.1616 158.98 97.5982 158.652C97.038 158.32 96.6055 157.86 96.3006 157.27C95.9956 156.676 95.8431 155.989 95.8431 155.206C95.8431 154.418 95.9955 153.728 96.3004 153.138C96.6053 152.545 97.0378 152.084 97.598 151.756C98.1614 151.425 98.8292 151.259 99.6015 151.259C100.374 151.259 101.04 151.425 101.6 151.756C102.164 152.084 102.598 152.545 102.903 153.138C103.208 153.728 103.36 154.417 103.36 155.206C103.36 155.988 103.208 156.676 102.903 157.269C102.598 157.859 102.164 158.32 101.6 158.652C101.04 158.98 100.374 159.144 99.6018 159.144ZM99.6116 157.503C99.963 157.503 100.256 157.404 100.492 157.205C100.727 157.003 100.904 156.728 101.024 156.38C101.146 156.032 101.207 155.636 101.207 155.191C101.207 154.747 101.146 154.351 101.023 154.003C100.904 153.655 100.727 153.38 100.491 153.178C100.256 152.976 99.9628 152.875 99.6115 152.875C99.2568 152.875 98.9586 152.976 98.7166 153.178C98.478 153.38 98.2974 153.655 98.1747 154.003C98.0554 154.351 97.9958 154.747 97.9958 155.192C97.9958 155.636 98.0555 156.032 98.1748 156.38C98.2975 156.728 98.4781 157.003 98.7167 157.205C98.9587 157.404 99.257 157.503 99.6116 157.503ZM108.188 159.144C107.415 159.144 106.748 158.98 106.184 158.651C105.624 158.32 105.191 157.859 104.886 157.269C104.582 156.676 104.429 155.988 104.429 155.206C104.429 154.417 104.581 153.728 104.886 153.138C105.191 152.545 105.624 152.084 106.184 151.756C106.747 151.424 107.415 151.259 108.187 151.259C108.96 151.259 109.626 151.424 110.186 151.756C110.749 152.084 111.184 152.545 111.489 153.138C111.794 153.728 111.946 154.417 111.946 155.206C111.946 155.988 111.794 156.676 111.489 157.269C111.184 157.859 110.75 158.32 110.186 158.651C109.626 158.979 108.96 159.144 108.188 159.144ZM108.198 157.503C108.549 157.503 108.842 157.403 109.078 157.205C109.313 157.002 109.49 156.727 109.609 156.379C109.732 156.031 109.793 155.635 109.793 155.191C109.793 154.747 109.732 154.351 109.609 154.003C109.49 153.655 109.313 153.38 109.077 153.178C108.842 152.975 108.549 152.874 108.197 152.874C107.843 152.874 107.544 152.976 107.303 153.178C107.064 153.38 106.883 153.655 106.761 154.003C106.641 154.351 106.582 154.747 106.582 155.191C106.582 155.635 106.641 156.031 106.761 156.379C106.883 156.727 107.064 157.003 107.303 157.205C107.545 157.404 107.843 157.503 108.198 157.503ZM116.764 162.017C116.078 162.017 115.489 161.922 114.999 161.734C114.512 161.548 114.124 161.294 113.835 160.973C113.547 160.651 113.36 160.29 113.274 159.889L115.232 159.626C115.292 159.778 115.387 159.921 115.516 160.053C115.645 160.186 115.816 160.292 116.028 160.371C116.243 160.454 116.505 160.496 116.813 160.496C117.274 160.496 117.654 160.383 117.952 160.157C118.254 159.935 118.404 159.563 118.404 159.039L118.404 157.642L118.315 157.642C118.222 157.854 118.083 158.054 117.897 158.243C117.712 158.432 117.473 158.586 117.181 158.706C116.89 158.825 116.542 158.885 116.137 158.885C115.564 158.885 115.042 158.752 114.571 158.487C114.104 158.219 113.731 157.809 113.453 157.259C113.177 156.706 113.04 156.006 113.04 155.161C113.04 154.296 113.181 153.574 113.462 152.994C113.744 152.414 114.119 151.979 114.586 151.691C115.057 151.403 115.572 151.258 116.132 151.258C116.56 151.258 116.918 151.331 117.206 151.477C117.494 151.62 117.726 151.799 117.902 152.014C118.081 152.226 118.218 152.435 118.315 152.64L118.394 152.64L118.394 151.358L120.497 151.358L120.497 159.069C120.497 159.718 120.338 160.262 120.02 160.699C119.702 161.137 119.261 161.465 118.698 161.684C118.138 161.906 117.493 162.017 116.764 162.017ZM116.808 157.294C117.15 157.294 117.438 157.209 117.673 157.04C117.912 156.868 118.094 156.623 118.22 156.304C118.35 155.983 118.414 155.598 118.414 155.151C118.414 154.704 118.351 154.316 118.225 153.988C118.099 153.656 117.917 153.399 117.678 153.217C117.44 153.035 117.15 152.944 116.808 152.944C116.46 152.944 116.167 153.038 115.928 153.227C115.69 153.413 115.509 153.671 115.386 154.003C115.264 154.334 115.202 154.717 115.202 155.151C115.202 155.592 115.264 155.973 115.386 156.295C115.512 156.613 115.693 156.86 115.928 157.035C116.167 157.208 116.46 157.294 116.808 157.294ZM122.183 158.994L122.182 151.358L124.3 151.358L124.301 158.994L122.183 158.994ZM123.246 150.373C122.931 150.373 122.661 150.269 122.436 150.06C122.214 149.848 122.103 149.594 122.103 149.299C122.103 149.008 122.214 148.757 122.436 148.549C122.661 148.337 122.931 148.23 123.246 148.23C123.561 148.23 123.83 148.336 124.052 148.549C124.277 148.757 124.39 149.008 124.39 149.299C124.39 149.594 124.277 149.848 124.052 150.06C123.83 150.269 123.561 150.373 123.246 150.373ZM128.175 159.138C127.688 159.138 127.253 159.053 126.872 158.884C126.491 158.712 126.189 158.459 125.967 158.124C125.749 157.786 125.639 157.365 125.639 156.861C125.639 156.437 125.717 156.08 125.873 155.792C126.029 155.504 126.241 155.272 126.509 155.096C126.778 154.92 127.082 154.788 127.424 154.698C127.769 154.609 128.13 154.546 128.508 154.509C128.952 154.463 129.31 154.42 129.582 154.38C129.853 154.337 130.051 154.274 130.173 154.191C130.296 154.108 130.357 153.986 130.357 153.823L130.357 153.793C130.357 153.479 130.258 153.235 130.059 153.063C129.863 152.89 129.585 152.804 129.224 152.804C128.842 152.804 128.539 152.889 128.314 153.058C128.088 153.223 127.939 153.432 127.866 153.684L125.907 153.525C126.007 153.061 126.202 152.66 126.494 152.322C126.786 151.981 127.162 151.719 127.623 151.536C128.087 151.351 128.624 151.258 129.233 151.258C129.658 151.258 130.064 151.308 130.451 151.407C130.843 151.506 131.189 151.661 131.491 151.869C131.795 152.078 132.036 152.347 132.211 152.675C132.387 153 132.475 153.389 132.475 153.843L132.475 158.994L130.467 158.994L130.467 157.935L130.407 157.935C130.284 158.173 130.12 158.384 129.915 158.566C129.709 158.745 129.462 158.886 129.174 158.989C128.886 159.088 128.553 159.138 128.175 159.138ZM128.781 157.676C129.093 157.676 129.368 157.615 129.606 157.492C129.845 157.366 130.032 157.197 130.168 156.985C130.304 156.773 130.372 156.533 130.372 156.264L130.372 155.454C130.306 155.497 130.215 155.537 130.099 155.573C129.986 155.606 129.858 155.638 129.716 155.668C129.573 155.694 129.431 155.719 129.288 155.742C129.146 155.762 129.016 155.78 128.9 155.797C128.652 155.833 128.435 155.891 128.249 155.971C128.064 156.051 127.919 156.158 127.817 156.294C127.714 156.427 127.663 156.592 127.663 156.791C127.663 157.08 127.767 157.3 127.976 157.453C128.188 157.602 128.456 157.676 128.781 157.676Z" fill="#D8D8D8"/>
<defs>
<filter id="filter0_d_204_1934" x="15.5029" y="35.9922" width="154" height="94" filterUnits="userSpaceOnUse" color-interpolation-filters="sRGB">
<feFlood flood-opacity="0" result="BackgroundImageFix"/>
<feColorMatrix in="SourceAlpha" type="matrix" values="0 0 0 0 0 0 0 0 0 0 0 0 0 0 0 0 0 0 127 0" result="hardAlpha"/>
<feOffset dy="-2"/>
<feGaussianBlur stdDeviation="6"/>
<feComposite in2="hardAlpha" operator="out"/>
<feColorMatrix type="matrix" values="0 0 0 0 0.0923839 0 0 0 0 0.169424 0 0 0 0 0.250995 0 0 0 0.25 0"/>
<feBlend mode="normal" in2="BackgroundImageFix" result="effect1_dropShadow_204_1934"/>
<feBlend mode="normal" in="SourceGraphic" in2="effect1_dropShadow_204_1934" result="shape"/>
</filter>
<linearGradient id="paint0_linear_204_1934" x1="92.5029" y1="53.1422" x2="92.5029" y2="119.992" gradientUnits="userSpaceOnUse">
<stop stop-color="#FDC969"/>
<stop offset="1" stop-color="#B48D42"/>
</linearGradient>
<clipPath id="clip0_204_1934">
<rect x="41.9287" y="26.3574" width="32.6304" height="32.6304" rx="3.5491" transform="rotate(-9.61528 41.9287 26.3574)" fill="white"/>
</clipPath>
<clipPath id="clip1_204_1934">
<rect width="24.3839" height="24.3839" fill="white" transform="translate(46.0112 28.6465) rotate(-9.61528)"/>
</clipPath>
</defs>
</svg>
