<svg width="185" height="191" viewBox="0 0 185 191" fill="none" xmlns="http://www.w3.org/2000/svg">
<rect x="27.5" y="28.4141" width="130" height="120" rx="8" fill="#B48D42"/>
<rect x="27.5" y="28.4141" width="130" height="120" rx="8" fill="black" fill-opacity="0.6"/>
<g filter="url(#filter0_d_204_1933)">
<path d="M79.7034 58.4141H35.5C31.0817 58.4141 27.5 61.9958 27.5 66.4141V103.414V140.414C27.5 144.832 31.0817 148.414 35.5 148.414H149.5C153.918 148.414 157.5 144.832 157.5 140.414V82.4778C157.5 78.0595 153.918 74.4778 149.5 74.4778H104.706C102.829 74.4778 101.011 73.8174 99.5711 72.6122L84.8384 60.2796C83.3987 59.0745 81.5809 58.4141 79.7034 58.4141Z" fill="url(#paint0_linear_204_1933)"/>
<path d="M79.7034 58.4141H35.5C31.0817 58.4141 27.5 61.9958 27.5 66.4141V103.414V140.414C27.5 144.832 31.0817 148.414 35.5 148.414H149.5C153.918 148.414 157.5 144.832 157.5 140.414V82.4778C157.5 78.0595 153.918 74.4778 149.5 74.4778H104.706C102.829 74.4778 101.011 73.8174 99.5711 72.6122L84.8384 60.2796C83.3987 59.0745 81.5809 58.4141 79.7034 58.4141Z" fill="black" fill-opacity="0.6"/>
</g>
<path d="M3.50505 160.238L3.5054 170.42L1.3527 170.42L1.35236 160.238L3.50505 160.238ZM7.3545 166.005L7.35465 170.42L5.23675 170.42L5.2365 162.783L7.25496 162.783L7.25501 164.131L7.3445 164.131C7.51352 163.686 7.79688 163.335 8.1946 163.077C8.59232 162.815 9.07456 162.684 9.64132 162.684C10.1716 162.684 10.634 162.8 11.0284 163.032C11.4228 163.264 11.7294 163.595 11.9482 164.026C12.167 164.454 12.2763 164.964 12.2764 165.557L12.2765 170.42L10.1586 170.42L10.1585 165.935C10.1618 165.468 10.0424 165.103 9.80049 164.841C9.55853 164.576 9.22543 164.444 8.80118 164.444C8.51615 164.444 8.26425 164.505 8.04551 164.628C7.83008 164.75 7.66105 164.929 7.53842 165.165C7.41911 165.397 7.35781 165.677 7.3545 166.005ZM18.052 162.783L18.0521 164.374L13.339 164.374L13.3389 162.783L18.052 162.783ZM14.418 170.419L14.4178 162.231C14.4177 161.678 14.5254 161.219 14.7409 160.854C14.9596 160.489 15.2579 160.216 15.6357 160.034C16.0136 159.851 16.4428 159.76 16.9234 159.76C17.2482 159.76 17.5448 159.785 17.8133 159.835C18.0851 159.885 18.2872 159.929 18.4198 159.969L18.042 161.56C17.9592 161.533 17.8564 161.509 17.7338 161.485C17.6145 161.462 17.4918 161.451 17.3659 161.451C17.0543 161.451 16.8372 161.524 16.7146 161.669C16.592 161.812 16.5307 162.012 16.5307 162.271L16.531 170.419L14.418 170.419ZM22.523 170.568C21.7507 170.568 21.0829 170.404 20.5194 170.076C19.9593 169.745 19.5267 169.284 19.2218 168.694C18.9168 168.101 18.7644 167.413 18.7643 166.631C18.7643 165.842 18.9167 165.153 19.2216 164.563C19.5265 163.969 19.9591 163.509 20.5192 163.181C21.0826 162.849 21.7505 162.683 22.5227 162.683C23.295 162.683 23.9612 162.849 24.5213 163.18C25.0848 163.509 25.519 163.969 25.8239 164.563C26.1289 165.152 26.2813 165.842 26.2814 166.631C26.2814 167.413 26.129 168.101 25.8241 168.694C25.5191 169.284 25.085 169.745 24.5215 170.076C23.9614 170.404 23.2952 170.568 22.523 170.568ZM22.5329 168.928C22.8842 168.928 23.1775 168.828 23.4128 168.629C23.6481 168.427 23.8255 168.152 23.9448 167.804C24.0674 167.456 24.1287 167.06 24.1287 166.616C24.1287 166.172 24.0673 165.776 23.9447 165.428C23.8254 165.08 23.648 164.805 23.4127 164.602C23.1774 164.4 22.884 164.299 22.5327 164.299C22.1781 164.299 21.8798 164.4 21.6378 164.602C21.3992 164.805 21.2186 165.08 21.096 165.428C20.9767 165.776 20.917 166.172 20.917 166.616C20.917 167.06 20.9767 167.456 21.096 167.804C21.2187 168.152 21.3993 168.427 21.638 168.629C21.8799 168.828 22.1782 168.928 22.5329 168.928ZM32.4163 165.398L32.4163 167.078L27.7729 167.078L27.7728 165.398L32.4163 165.398ZM37.4611 162.782L39.579 162.782L39.5793 170.796C39.5793 171.386 39.4633 171.864 39.2313 172.228C38.9993 172.593 38.6662 172.86 38.232 173.029C37.8012 173.198 37.2858 173.282 36.6859 173.282C36.613 173.282 36.5434 173.281 36.4771 173.277C36.4075 173.277 36.3346 173.276 36.2583 173.272L36.2583 171.617C36.3146 171.62 36.3643 171.622 36.4074 171.622C36.4472 171.625 36.4903 171.627 36.5367 171.627C36.8781 171.627 37.1167 171.554 37.2526 171.408C37.3918 171.265 37.4614 171.05 37.4614 170.762L37.4611 162.782ZM38.5151 161.798C38.2035 161.798 37.935 161.694 37.7096 161.485C37.4843 161.273 37.3716 161.019 37.3715 160.724C37.3715 160.432 37.4842 160.182 37.7096 159.973C37.935 159.761 38.2034 159.655 38.515 159.655C38.8332 159.655 39.1033 159.761 39.3254 159.973C39.5507 160.182 39.6634 160.432 39.6635 160.724C39.6635 161.019 39.5508 161.273 39.3254 161.485C39.1034 161.693 38.8332 161.798 38.5151 161.798ZM43.4534 170.563C42.9662 170.563 42.532 170.478 42.1508 170.309C41.7696 170.137 41.468 169.883 41.246 169.549C41.0272 169.21 40.9178 168.79 40.9178 168.286C40.9178 167.861 40.9957 167.505 41.1514 167.217C41.3072 166.928 41.5193 166.696 41.7878 166.521C42.0562 166.345 42.3611 166.213 42.7025 166.123C43.0472 166.034 43.4085 165.971 43.7863 165.934C44.2304 165.888 44.5884 165.845 44.8602 165.805C45.132 165.762 45.3292 165.699 45.4518 165.616C45.5744 165.533 45.6357 165.41 45.6357 165.248L45.6357 165.218C45.6357 164.903 45.5363 164.66 45.3374 164.487C45.1419 164.315 44.8634 164.229 44.5022 164.229C44.121 164.229 43.8178 164.313 43.5924 164.482C43.367 164.648 43.2179 164.857 43.145 165.109L41.1861 164.95C41.2856 164.486 41.4811 164.085 41.7728 163.747C42.0644 163.405 42.4406 163.143 42.9013 162.961C43.3653 162.775 43.9022 162.683 44.5121 162.683C44.9363 162.683 45.3423 162.732 45.7301 162.832C46.1212 162.931 46.4676 163.085 46.7692 163.294C47.0741 163.503 47.3144 163.771 47.4901 164.099C47.6658 164.424 47.7536 164.814 47.7536 165.268L47.7538 170.418L45.7453 170.418L45.7452 169.359L45.6856 169.359C45.563 169.598 45.3989 169.809 45.1934 169.991C44.9879 170.17 44.741 170.311 44.4527 170.413C44.1643 170.513 43.8312 170.563 43.4534 170.563ZM44.0599 169.101C44.3714 169.101 44.6465 169.04 44.8851 168.917C45.1238 168.791 45.311 168.622 45.4469 168.41C45.5828 168.198 45.6507 167.957 45.6507 167.689L45.6507 166.879C45.5844 166.922 45.4933 166.961 45.3773 166.998C45.2646 167.031 45.137 167.063 44.9945 167.092C44.8519 167.119 44.7094 167.144 44.5669 167.167C44.4244 167.187 44.2951 167.205 44.1791 167.222C43.9305 167.258 43.7134 167.316 43.5278 167.396C43.3422 167.475 43.1981 167.583 43.0953 167.719C42.9926 167.851 42.9412 168.017 42.9412 168.216C42.9412 168.504 43.0456 168.725 43.2545 168.877C43.4666 169.026 43.7351 169.101 44.0599 169.101ZM54.5561 168.221L54.561 165.68L54.8692 165.68L57.3152 162.782L59.7463 162.782L56.4602 166.62L55.958 166.62L54.5561 168.221ZM52.6371 170.418L52.6368 160.236L54.7547 160.236L54.755 170.418L52.6371 170.418ZM57.4099 170.418L55.1626 167.092L56.5745 165.596L59.8907 170.418L57.4099 170.418ZM63.9214 170.567C63.1492 170.567 62.4813 170.403 61.9178 170.075C61.3577 169.743 60.9252 169.283 60.6202 168.693C60.3153 168.099 60.1628 167.412 60.1628 166.63C60.1627 165.841 60.3152 165.151 60.6201 164.561C60.925 163.968 61.3575 163.507 61.9176 163.179C62.4811 162.848 63.1489 162.682 63.9212 162.682C64.6934 162.682 65.3596 162.848 65.9197 163.179C66.4832 163.507 66.9174 163.968 67.2224 164.561C67.5273 165.151 67.6798 165.84 67.6798 166.629C67.6798 167.412 67.5274 168.099 67.2225 168.693C66.9176 169.283 66.4834 169.743 65.92 170.075C65.3599 170.403 64.6937 170.567 63.9214 170.567ZM63.9313 168.926C64.2826 168.926 64.576 168.827 64.8113 168.628C65.0466 168.426 65.2239 168.151 65.3432 167.803C65.4658 167.455 65.5271 167.059 65.5271 166.614C65.5271 166.17 65.4658 165.774 65.3431 165.426C65.2238 165.078 65.0465 164.803 64.8111 164.601C64.5758 164.399 64.2825 164.298 63.9311 164.298C63.5765 164.298 63.2782 164.399 63.0363 164.601C62.7976 164.803 62.617 165.078 62.4944 165.426C62.3751 165.774 62.3154 166.17 62.3155 166.615C62.3155 167.059 62.3751 167.455 62.4945 167.803C62.6171 168.151 62.7978 168.426 63.0364 168.628C63.2784 168.827 63.5767 168.926 63.9313 168.926ZM69.0571 170.418L69.0568 162.781L71.0753 162.781L71.0753 164.128L71.1648 164.128C71.3239 163.681 71.589 163.328 71.9602 163.07C72.3314 162.811 72.7756 162.682 73.2926 162.682C73.8163 162.682 74.2621 162.813 74.63 163.074C74.9979 163.333 75.2432 163.684 75.3658 164.128L75.4453 164.128C75.6011 163.691 75.8828 163.341 76.2905 163.079C76.7015 162.814 77.187 162.682 77.7471 162.682C78.4597 162.682 79.0381 162.909 79.4823 163.363C79.9297 163.813 80.1535 164.453 80.1535 165.282L80.1537 170.417L78.0407 170.417L78.0406 165.699C78.0406 165.275 77.9279 164.957 77.7025 164.745C77.4771 164.533 77.1954 164.427 76.8573 164.427C76.4728 164.427 76.1729 164.549 75.9574 164.795C75.742 165.036 75.6343 165.356 75.6343 165.754L75.6345 170.417L73.5812 170.417L73.5811 165.655C73.581 165.28 73.4733 164.982 73.2579 164.76C73.0457 164.538 72.7657 164.427 72.4177 164.427C72.1823 164.427 71.9702 164.486 71.7813 164.606C71.5957 164.722 71.4482 164.886 71.3388 165.098C71.2295 165.307 71.1748 165.552 71.1748 165.834L71.175 170.418L69.0571 170.418ZM81.8266 170.417L81.8263 162.781L83.8448 162.781L83.8449 164.128L83.9343 164.128C84.0934 163.681 84.3586 163.328 84.7298 163.069C85.101 162.811 85.5451 162.681 86.0621 162.681C86.5858 162.681 87.0316 162.812 87.3995 163.074C87.7674 163.332 88.0127 163.684 88.1353 164.128L88.2149 164.128C88.3706 163.69 88.6524 163.341 89.06 163.079C89.471 162.814 89.9565 162.681 90.5167 162.681C91.2293 162.681 91.8076 162.908 92.2518 163.362C92.6992 163.813 92.923 164.453 92.923 165.281L92.9232 170.417L90.8103 170.417L90.8101 165.699C90.8101 165.275 90.6974 164.956 90.472 164.744C90.2466 164.532 89.9649 164.426 89.6268 164.426C89.2424 164.426 88.9424 164.549 88.727 164.794C88.5115 165.036 88.4038 165.356 88.4039 165.754L88.404 170.417L86.3507 170.417L86.3506 165.654C86.3506 165.28 86.2428 164.981 86.0274 164.759C85.8153 164.537 85.5352 164.426 85.1872 164.426C84.9519 164.426 84.7397 164.486 84.5508 164.605C84.3652 164.721 84.2177 164.885 84.1084 165.098C83.999 165.306 83.9443 165.552 83.9443 165.833L83.9445 170.417L81.8266 170.417ZM99.493 167.165L99.4929 162.78L101.611 162.78L101.611 170.417L99.5777 170.417L99.5776 169.03L99.4981 169.03C99.3257 169.477 99.0391 169.837 98.638 170.108C98.2403 170.38 97.7547 170.516 97.1814 170.516C96.6709 170.516 96.2218 170.4 95.834 170.168C95.4463 169.936 95.143 169.606 94.9242 169.179C94.7088 168.751 94.5994 168.239 94.596 167.643L94.5959 162.78L96.7138 162.78L96.7139 167.265C96.7172 167.715 96.8382 168.072 97.0769 168.334C97.3155 168.595 97.6354 168.726 98.0364 168.726C98.2916 168.726 98.5303 168.668 98.7523 168.552C98.9744 168.433 99.1533 168.257 99.2892 168.025C99.4284 167.793 99.4964 167.507 99.493 167.165ZM105.423 166.002L105.423 170.416L103.305 170.416L103.305 162.78L105.323 162.78L105.323 164.127L105.413 164.127C105.582 163.683 105.865 163.332 106.263 163.073C106.661 162.811 107.143 162.681 107.71 162.681C108.24 162.681 108.702 162.796 109.097 163.028C109.491 163.26 109.798 163.592 110.017 164.023C110.235 164.45 110.345 164.961 110.345 165.554L110.345 170.416L108.227 170.416L108.227 165.932C108.23 165.465 108.111 165.1 107.869 164.838C107.627 164.573 107.294 164.44 106.87 164.44C106.585 164.441 106.333 164.502 106.114 164.624C105.898 164.747 105.729 164.926 105.607 165.161C105.487 165.393 105.426 165.673 105.423 166.002ZM112.014 170.416L112.014 162.78L114.132 162.78L114.132 170.416L112.014 170.416ZM113.078 161.795C112.763 161.795 112.493 161.691 112.267 161.482C112.045 161.27 111.934 161.017 111.934 160.722C111.934 160.43 112.045 160.18 112.267 159.971C112.493 159.759 112.763 159.653 113.078 159.653C113.393 159.653 113.661 159.759 113.883 159.971C114.108 160.18 114.221 160.43 114.221 160.721C114.221 161.016 114.108 161.27 113.883 161.482C113.661 161.691 113.393 161.795 113.078 161.795ZM117.748 168.219L117.752 165.678L118.061 165.678L120.507 162.78L122.938 162.779L119.652 166.618L119.149 166.618L117.748 168.219ZM115.829 170.416L115.828 160.234L117.946 160.234L117.946 170.416L115.829 170.416ZM120.601 170.416L118.354 167.09L119.766 165.593L123.082 170.416L120.601 170.416ZM126.155 170.56C125.667 170.56 125.233 170.475 124.852 170.306C124.471 170.134 124.169 169.88 123.947 169.546C123.728 169.208 123.619 168.787 123.619 168.283C123.619 167.859 123.697 167.502 123.853 167.214C124.008 166.926 124.22 166.694 124.489 166.518C124.757 166.342 125.062 166.21 125.404 166.12C125.748 166.031 126.11 165.968 126.487 165.931C126.932 165.885 127.29 165.842 127.561 165.802C127.833 165.759 128.03 165.696 128.153 165.613C128.276 165.53 128.337 165.408 128.337 165.245L128.337 165.215C128.337 164.9 128.237 164.657 128.039 164.485C127.843 164.312 127.565 164.226 127.203 164.226C126.822 164.226 126.519 164.311 126.294 164.48C126.068 164.645 125.919 164.854 125.846 165.106L123.887 164.947C123.987 164.483 124.182 164.082 124.474 163.744C124.766 163.402 125.142 163.141 125.602 162.958C126.066 162.773 126.603 162.68 127.213 162.68C127.637 162.68 128.043 162.73 128.431 162.829C128.822 162.928 129.169 163.083 129.47 163.291C129.775 163.5 130.016 163.769 130.191 164.097C130.367 164.421 130.455 164.811 130.455 165.265L130.455 170.416L128.446 170.416L128.446 169.357L128.387 169.357C128.264 169.595 128.1 169.806 127.895 169.988C127.689 170.167 127.442 170.308 127.154 170.411C126.865 170.51 126.532 170.56 126.155 170.56ZM126.761 169.098C127.073 169.098 127.348 169.037 127.586 168.914C127.825 168.788 128.012 168.619 128.148 168.407C128.284 168.195 128.352 167.955 128.352 167.686L128.352 166.876C128.286 166.919 128.194 166.959 128.078 166.995C127.966 167.028 127.838 167.06 127.696 167.09C127.553 167.116 127.411 167.141 127.268 167.164C127.126 167.184 126.996 167.202 126.88 167.219C126.632 167.255 126.415 167.313 126.229 167.393C126.043 167.473 125.899 167.58 125.796 167.716C125.694 167.849 125.642 168.014 125.642 168.213C125.642 168.502 125.747 168.722 125.956 168.875C126.168 169.024 126.436 169.098 126.761 169.098ZM136.16 162.779L136.16 164.37L131.561 164.37L131.561 162.779L136.16 162.779ZM132.605 160.95L134.723 160.95L134.723 168.069C134.723 168.264 134.753 168.417 134.813 168.526C134.872 168.632 134.955 168.707 135.061 168.75C135.17 168.793 135.296 168.815 135.439 168.815C135.538 168.815 135.638 168.806 135.737 168.79C135.837 168.77 135.913 168.755 135.966 168.745L136.299 170.321C136.193 170.354 136.044 170.392 135.852 170.435C135.659 170.482 135.426 170.51 135.151 170.52C134.64 170.54 134.193 170.472 133.808 170.316C133.427 170.16 133.13 169.918 132.918 169.59C132.706 169.262 132.602 168.848 132.605 168.347L132.605 160.95ZM143.797 164.956L141.858 165.076C141.825 164.91 141.754 164.761 141.645 164.628C141.535 164.492 141.391 164.385 141.212 164.305C141.036 164.222 140.826 164.181 140.581 164.181C140.253 164.181 139.976 164.25 139.75 164.39C139.525 164.526 139.412 164.708 139.412 164.937C139.412 165.119 139.485 165.273 139.631 165.399C139.777 165.525 140.027 165.626 140.382 165.702L141.764 165.981C142.506 166.133 143.06 166.378 143.424 166.716C143.789 167.054 143.971 167.498 143.971 168.049C143.971 168.549 143.824 168.988 143.529 169.366C143.237 169.744 142.836 170.039 142.326 170.251C141.819 170.46 141.234 170.564 140.571 170.564C139.56 170.564 138.755 170.354 138.155 169.933C137.558 169.509 137.208 168.932 137.106 168.203L139.189 168.094C139.252 168.402 139.404 168.637 139.646 168.799C139.888 168.959 140.198 169.038 140.576 169.038C140.947 169.038 141.245 168.967 141.471 168.824C141.699 168.678 141.815 168.491 141.819 168.262C141.815 168.07 141.734 167.913 141.575 167.79C141.416 167.664 141.171 167.568 140.839 167.502L139.517 167.238C138.771 167.089 138.216 166.831 137.851 166.463C137.49 166.095 137.309 165.626 137.309 165.056C137.309 164.565 137.442 164.143 137.707 163.788C137.976 163.434 138.352 163.16 138.836 162.968C139.323 162.776 139.893 162.679 140.546 162.679C141.51 162.679 142.269 162.883 142.823 163.291C143.38 163.699 143.704 164.254 143.797 164.956ZM145.305 170.415L145.305 162.779L147.423 162.779L147.423 170.415L145.305 170.415ZM146.369 161.794C146.054 161.794 145.784 161.69 145.558 161.481C145.336 161.269 145.225 161.015 145.225 160.72C145.225 160.429 145.336 160.179 145.558 159.97C145.784 159.758 146.054 159.652 146.369 159.652C146.684 159.652 146.952 159.758 147.174 159.97C147.399 160.178 147.512 160.429 147.512 160.72C147.512 161.015 147.4 161.269 147.174 161.481C146.952 161.69 146.684 161.794 146.369 161.794ZM152.57 170.564C151.798 170.564 151.13 170.4 150.566 170.072C150.006 169.74 149.574 169.28 149.269 168.69C148.964 168.097 148.811 167.409 148.811 166.627C148.811 165.838 148.964 165.148 149.269 164.558C149.573 163.965 150.006 163.504 150.566 163.176C151.129 162.845 151.797 162.679 152.57 162.679C153.342 162.679 154.008 162.845 154.568 163.176C155.132 163.504 155.566 163.965 155.871 164.558C156.176 165.148 156.328 165.838 156.328 166.626C156.328 167.409 156.176 168.096 155.871 168.69C155.566 169.28 155.132 169.74 154.568 170.072C154.008 170.4 153.342 170.564 152.57 170.564ZM152.58 168.923C152.931 168.923 153.224 168.824 153.46 168.625C153.695 168.423 153.872 168.148 153.992 167.8C154.114 167.452 154.176 167.056 154.176 166.611C154.176 166.167 154.114 165.771 153.992 165.423C153.872 165.075 153.695 164.8 153.46 164.598C153.224 164.396 152.931 164.295 152.58 164.295C152.225 164.295 151.927 164.396 151.685 164.598C151.446 164.8 151.265 165.075 151.143 165.423C151.024 165.771 150.964 166.167 150.964 166.612C150.964 167.056 151.024 167.452 151.143 167.8C151.266 168.148 151.446 168.423 151.685 168.625C151.927 168.824 152.225 168.923 152.58 168.923ZM161.156 170.564C160.384 170.564 159.716 170.4 159.152 170.072C158.592 169.74 158.16 169.279 157.855 168.689C157.55 168.096 157.397 167.409 157.397 166.626C157.397 165.837 157.55 165.148 157.854 164.558C158.159 163.965 158.592 163.504 159.152 163.176C159.715 162.845 160.383 162.679 161.156 162.679C161.928 162.679 162.594 162.844 163.154 163.176C163.718 163.504 164.152 163.965 164.457 164.558C164.762 165.148 164.914 165.837 164.914 166.626C164.914 167.408 164.762 168.096 164.457 168.689C164.152 169.279 163.718 169.74 163.154 170.071C162.594 170.4 161.928 170.564 161.156 170.564ZM161.166 168.923C161.517 168.923 161.81 168.824 162.046 168.625C162.281 168.423 162.458 168.147 162.578 167.799C162.7 167.451 162.761 167.055 162.761 166.611C162.761 166.167 162.7 165.771 162.577 165.423C162.458 165.075 162.281 164.8 162.046 164.598C161.81 164.396 161.517 164.294 161.166 164.295C160.811 164.295 160.513 164.396 160.271 164.598C160.032 164.8 159.851 165.075 159.729 165.423C159.609 165.771 159.55 166.167 159.55 166.611C159.55 167.055 159.61 167.452 159.729 167.8C159.851 168.148 160.032 168.423 160.271 168.625C160.513 168.824 160.811 168.923 161.166 168.923ZM168.409 166L168.409 170.414L166.291 170.414L166.291 162.778L168.31 162.778L168.31 164.125L168.399 164.125C168.568 163.681 168.852 163.33 169.249 163.071C169.647 162.809 170.129 162.678 170.696 162.678C171.226 162.678 171.689 162.794 172.083 163.026C172.478 163.258 172.784 163.59 173.003 164.021C173.222 164.448 173.331 164.959 173.331 165.552L173.331 170.414L171.213 170.414L171.213 165.93C171.216 165.462 171.097 165.098 170.855 164.836C170.613 164.571 170.28 164.438 169.856 164.438C169.571 164.438 169.319 164.5 169.1 164.622C168.885 164.745 168.716 164.924 168.593 165.159C168.474 165.391 168.412 165.671 168.409 166ZM175 170.414L175 162.778L177.118 162.778L177.118 170.414L175 170.414ZM176.064 161.793C175.749 161.793 175.479 161.689 175.254 161.48C175.032 161.268 174.921 161.014 174.921 160.719C174.921 160.428 175.032 160.178 175.254 159.969C175.479 159.757 175.749 159.651 176.064 159.651C176.379 159.651 176.647 159.757 176.869 159.969C177.095 160.177 177.207 160.428 177.207 160.719C177.207 161.014 177.095 161.268 176.869 161.48C176.647 161.689 176.379 161.793 176.064 161.793ZM183.573 165.392L183.573 167.073L178.929 167.073L178.929 165.393L183.573 165.392ZM56.6377 179.782L56.6378 181.373L52.0391 181.373L52.039 179.782L56.6377 179.782ZM53.083 177.952L55.2009 177.952L55.2011 185.071C55.2011 185.267 55.231 185.419 55.2906 185.529C55.3503 185.635 55.4331 185.709 55.5392 185.753C55.6486 185.796 55.7745 185.817 55.917 185.817C56.0165 185.817 56.1159 185.809 56.2153 185.792C56.3148 185.772 56.391 185.758 56.444 185.748L56.7772 187.324C56.6711 187.357 56.522 187.395 56.3297 187.438C56.1375 187.484 55.9038 187.513 55.6287 187.522C55.1183 187.542 54.6709 187.474 54.2864 187.319C53.9053 187.163 53.6086 186.921 53.3965 186.593C53.1843 186.265 53.0799 185.85 53.0832 185.35L53.083 177.952ZM61.4157 187.567C60.6302 187.567 59.954 187.408 59.3873 187.09C58.8238 186.768 58.3896 186.314 58.0847 185.728C57.7797 185.138 57.6272 184.44 57.6272 183.635C57.6272 182.849 57.7796 182.16 58.0845 181.566C58.3894 180.973 58.8186 180.511 59.3721 180.179C59.9289 179.848 60.5818 179.682 61.3309 179.682C61.8347 179.682 62.3037 179.763 62.7379 179.926C63.1754 180.085 63.5565 180.325 63.8814 180.646C64.2095 180.968 64.4647 181.372 64.647 181.86C64.8293 182.343 64.9205 182.91 64.9205 183.56L64.9205 184.141L58.4724 184.142L58.4723 182.829L62.9269 182.829C62.9269 182.524 62.8606 182.254 62.728 182.019C62.5954 181.783 62.4115 181.599 62.1761 181.467C61.9441 181.331 61.674 181.263 61.3658 181.263C61.0443 181.263 60.7592 181.338 60.5106 181.487C60.2654 181.633 60.0732 181.83 59.934 182.078C59.7948 182.324 59.7235 182.597 59.7202 182.899L59.7203 184.147C59.7203 184.524 59.7899 184.851 59.9291 185.126C60.0716 185.401 60.2722 185.613 60.5307 185.762C60.7892 185.911 61.0958 185.986 61.4504 185.986C61.6858 185.986 61.9012 185.953 62.0967 185.887C62.2923 185.82 62.4597 185.721 62.5989 185.588C62.7381 185.456 62.8441 185.293 62.917 185.101L64.8758 185.23C64.7764 185.701 64.5726 186.112 64.2644 186.463C63.9595 186.811 63.565 187.083 63.0812 187.279C62.6006 187.471 62.0454 187.567 61.4157 187.567ZM68.4205 183.003L68.4206 187.418L66.3028 187.418L66.3024 177.236L68.3606 177.236L68.3608 181.129L68.4503 181.129C68.6226 180.678 68.901 180.325 69.2855 180.07C69.6699 179.811 70.1522 179.682 70.7322 179.682C71.2625 179.682 71.7248 179.798 72.1193 180.03C72.517 180.258 72.8252 180.588 73.044 181.019C73.2661 181.447 73.3755 181.959 73.3722 182.555L73.3724 187.417L71.2545 187.418L71.2543 182.933C71.2576 182.463 71.1383 182.096 70.8963 181.834C70.6577 181.573 70.3229 181.442 69.892 181.442C69.6037 181.442 69.3485 181.503 69.1264 181.626C68.9077 181.748 68.7353 181.927 68.6094 182.163C68.4868 182.395 68.4238 182.675 68.4205 183.003ZM77.1568 183.003L77.157 187.417L75.0391 187.417L75.0388 179.781L77.0573 179.781L77.0573 181.128L77.1468 181.128C77.3158 180.684 77.5992 180.333 77.9969 180.074C78.3946 179.812 78.8769 179.681 79.4436 179.681C79.974 179.681 80.4363 179.797 80.8307 180.029C81.2252 180.261 81.5317 180.593 81.7505 181.024C81.9693 181.451 82.0787 181.962 82.0787 182.555L82.0789 187.417L79.961 187.417L79.9608 182.933C79.9641 182.466 79.8448 182.101 79.6028 181.839C79.3609 181.574 79.0278 181.441 78.6035 181.441C78.3185 181.441 78.0666 181.503 77.8478 181.625C77.6324 181.748 77.4634 181.927 77.3407 182.162C77.2214 182.394 77.1601 182.674 77.1568 183.003ZM87.1984 187.566C86.4261 187.566 85.7582 187.402 85.1948 187.074C84.6346 186.743 84.2021 186.282 83.8972 185.692C83.5922 185.099 83.4397 184.411 83.4397 183.629C83.4397 182.84 83.5921 182.151 83.897 181.561C84.2019 180.967 84.6344 180.507 85.1946 180.178C85.758 179.847 86.4258 179.681 87.1981 179.681C87.9703 179.681 88.6365 179.847 89.1967 180.178C89.7601 180.506 90.1943 180.967 90.4993 181.56C90.8042 182.15 90.9567 182.84 90.9567 183.629C90.9568 184.411 90.8043 185.098 90.4994 185.692C90.1945 186.282 89.7604 186.742 89.1969 187.074C88.6368 187.402 87.9706 187.566 87.1984 187.566ZM87.2082 185.926C87.5596 185.926 87.8529 185.826 88.0882 185.627C88.3235 185.425 88.5008 185.15 88.6201 184.802C88.7428 184.454 88.8041 184.058 88.804 183.614C88.804 183.17 88.7427 182.773 88.6201 182.425C88.5007 182.077 88.3234 181.802 88.0881 181.6C87.8527 181.398 87.5594 181.297 87.2081 181.297C86.8534 181.297 86.5552 181.398 86.3132 181.6C86.0746 181.802 85.894 182.078 85.7713 182.426C85.652 182.774 85.5924 183.17 85.5924 183.614C85.5924 184.058 85.6521 184.454 85.7714 184.802C85.8941 185.15 86.0747 185.425 86.3133 185.627C86.5553 185.826 86.8536 185.926 87.2082 185.926ZM94.4516 177.235L94.4519 187.417L92.334 187.417L92.3337 177.235L94.4516 177.235ZM99.5987 187.566C98.8265 187.566 98.1586 187.402 97.5952 187.074C97.035 186.742 96.6025 186.282 96.2975 185.692C95.9926 185.098 95.8401 184.411 95.8401 183.628C95.8401 182.84 95.9925 182.15 96.2974 181.56C96.6023 180.967 97.0348 180.506 97.5949 180.178C98.1584 179.847 98.8262 179.681 99.5985 179.681C100.371 179.681 101.037 179.846 101.597 180.178C102.161 180.506 102.595 180.967 102.9 181.56C103.205 182.15 103.357 182.839 103.357 183.628C103.357 184.41 103.205 185.098 102.9 185.691C102.595 186.281 102.161 186.742 101.597 187.073C101.037 187.402 100.371 187.566 99.5987 187.566ZM99.6086 185.925C99.96 185.925 100.253 185.826 100.489 185.627C100.724 185.425 100.901 185.15 101.021 184.801C101.143 184.453 101.204 184.057 101.204 183.613C101.204 183.169 101.143 182.773 101.02 182.425C100.901 182.077 100.724 181.802 100.488 181.6C100.253 181.398 99.9598 181.297 99.6085 181.297C99.2538 181.297 98.9555 181.398 98.7136 181.6C98.475 181.802 98.2943 182.077 98.1717 182.425C98.0524 182.773 97.9928 183.169 97.9928 183.613C97.9928 184.058 98.0525 184.454 98.1718 184.802C98.2944 185.15 98.4751 185.425 98.7137 185.627C98.9557 185.826 99.254 185.925 99.6086 185.925ZM108.185 187.565C107.412 187.565 106.745 187.401 106.181 187.073C105.621 186.742 105.188 186.281 104.883 185.691C104.579 185.098 104.426 184.41 104.426 183.628C104.426 182.839 104.578 182.15 104.883 181.56C105.188 180.967 105.621 180.506 106.181 180.178C106.744 179.846 107.412 179.681 108.184 179.681C108.957 179.68 109.623 179.846 110.183 180.178C110.746 180.506 111.181 180.966 111.486 181.56C111.791 182.15 111.943 182.839 111.943 183.628C111.943 184.41 111.791 185.098 111.486 185.691C111.181 186.281 110.747 186.742 110.183 187.073C109.623 187.401 108.957 187.565 108.185 187.565ZM108.195 185.925C108.546 185.925 108.839 185.825 109.075 185.627C109.31 185.424 109.487 185.149 109.606 184.801C109.729 184.453 109.79 184.057 109.79 183.613C109.79 183.169 109.729 182.773 109.606 182.425C109.487 182.077 109.31 181.802 109.074 181.6C108.839 181.397 108.546 181.296 108.194 181.296C107.84 181.296 107.541 181.397 107.3 181.6C107.061 181.802 106.88 182.077 106.758 182.425C106.638 182.773 106.579 183.169 106.579 183.613C106.579 184.057 106.638 184.453 106.758 184.801C106.88 185.149 107.061 185.424 107.3 185.627C107.542 185.825 107.84 185.925 108.195 185.925ZM116.761 190.439C116.075 190.439 115.486 190.344 114.996 190.155C114.509 189.97 114.121 189.716 113.832 189.395C113.544 189.073 113.357 188.712 113.271 188.311L115.229 188.047C115.289 188.2 115.384 188.342 115.513 188.475C115.642 188.608 115.813 188.714 116.025 188.793C116.24 188.876 116.502 188.917 116.81 188.917C117.271 188.917 117.651 188.805 117.949 188.579C118.251 188.357 118.401 187.984 118.401 187.461L118.401 186.064L118.312 186.064C118.219 186.276 118.08 186.476 117.894 186.665C117.709 186.854 117.47 187.008 117.178 187.128C116.887 187.247 116.539 187.307 116.134 187.307C115.561 187.307 115.039 187.174 114.568 186.909C114.101 186.641 113.728 186.231 113.45 185.681C113.174 185.128 113.037 184.428 113.037 183.583C113.037 182.718 113.178 181.995 113.459 181.415C113.741 180.835 114.116 180.401 114.583 180.113C115.054 179.824 115.569 179.68 116.129 179.68C116.557 179.68 116.915 179.753 117.203 179.899C117.491 180.041 117.723 180.22 117.899 180.436C118.078 180.648 118.215 180.857 118.312 181.062L118.391 181.062L118.391 179.78L120.494 179.78L120.494 187.49C120.494 188.14 120.335 188.684 120.017 189.121C119.699 189.559 119.258 189.887 118.695 190.106C118.135 190.328 117.49 190.439 116.761 190.439ZM116.805 185.716C117.147 185.716 117.435 185.631 117.67 185.462C117.909 185.29 118.091 185.045 118.217 184.726C118.347 184.405 118.411 184.02 118.411 183.573C118.411 183.125 118.348 182.738 118.222 182.41C118.096 182.078 117.914 181.821 117.675 181.639C117.437 181.457 117.147 181.366 116.805 181.366C116.457 181.366 116.164 181.46 115.925 181.649C115.687 181.835 115.506 182.093 115.383 182.425C115.261 182.756 115.199 183.139 115.199 183.573C115.199 184.014 115.261 184.395 115.383 184.716C115.509 185.035 115.69 185.282 115.925 185.457C116.164 185.63 116.457 185.716 116.805 185.716ZM122.18 187.416L122.179 179.779L124.297 179.779L124.298 187.416L122.18 187.416ZM123.243 178.795C122.928 178.795 122.658 178.691 122.433 178.482C122.211 178.27 122.1 178.016 122.1 177.721C122.1 177.43 122.211 177.179 122.433 176.971C122.658 176.758 122.928 176.652 123.243 176.652C123.558 176.652 123.827 176.758 124.049 176.97C124.274 177.179 124.387 177.429 124.387 177.721C124.387 178.016 124.274 178.27 124.049 178.482C123.827 178.691 123.558 178.795 123.243 178.795ZM128.172 187.56C127.685 187.56 127.25 187.475 126.869 187.306C126.488 187.134 126.186 186.88 125.964 186.546C125.746 186.208 125.636 185.787 125.636 185.283C125.636 184.859 125.714 184.502 125.87 184.214C126.026 183.926 126.238 183.694 126.506 183.518C126.775 183.342 127.079 183.21 127.421 183.12C127.766 183.031 128.127 182.968 128.505 182.931C128.949 182.885 129.307 182.842 129.579 182.802C129.85 182.759 130.048 182.696 130.17 182.613C130.293 182.53 130.354 182.408 130.354 182.245L130.354 182.215C130.354 181.9 130.255 181.657 130.056 181.484C129.86 181.312 129.582 181.226 129.221 181.226C128.839 181.226 128.536 181.311 128.311 181.48C128.085 181.645 127.936 181.854 127.863 182.106L125.904 181.947C126.004 181.483 126.199 181.082 126.491 180.744C126.783 180.402 127.159 180.141 127.62 179.958C128.084 179.773 128.621 179.68 129.23 179.68C129.655 179.68 130.061 179.729 130.448 179.829C130.84 179.928 131.186 180.082 131.488 180.291C131.792 180.5 132.033 180.768 132.208 181.097C132.384 181.421 132.472 181.811 132.472 182.265L132.472 187.415L130.464 187.416L130.464 186.357L130.404 186.357C130.281 186.595 130.117 186.806 129.912 186.988C129.706 187.167 129.459 187.308 129.171 187.411C128.883 187.51 128.55 187.56 128.172 187.56ZM128.778 186.098C129.09 186.098 129.365 186.037 129.603 185.914C129.842 185.788 130.029 185.619 130.165 185.407C130.301 185.195 130.369 184.955 130.369 184.686L130.369 183.876C130.303 183.919 130.212 183.959 130.096 183.995C129.983 184.028 129.855 184.06 129.713 184.09C129.57 184.116 129.428 184.141 129.285 184.164C129.143 184.184 129.013 184.202 128.897 184.219C128.649 184.255 128.432 184.313 128.246 184.393C128.061 184.472 127.916 184.58 127.814 184.716C127.711 184.849 127.66 185.014 127.66 185.213C127.66 185.502 127.764 185.722 127.973 185.874C128.185 186.024 128.453 186.098 128.778 186.098Z" fill="#A4A4A4"/>
<rect width="42" height="35.9986" rx="5.52002" transform="matrix(0.966465 0.256798 -0.260849 0.96538 131.163 14.6016)" fill="#8C6C34"/>
<path d="M163.716 54.9811C165.197 49.704 168.507 37.5323 170.151 30.9357C171.191 26.7616 168.635 25.262 168.054 24.7563L166.283 31.3137L159.993 54.5911C159.671 55.3402 158.792 56.3801 155.942 55.6449L123.209 46.9473C123.761 48.9172 125.41 50.1447 126.459 50.6L156.912 58.6919C159.826 59.466 162.032 58.0128 163.244 56.1007C163.463 55.7556 163.605 55.374 163.716 54.9811Z" fill="#875603"/>
<path d="M149.749 29.3756C152.311 30.0621 153.831 32.6951 153.145 35.2565C152.684 36.9765 151.344 38.2247 149.739 38.6527L148.313 46.6649L142.349 45.067L145.119 37.4159C143.943 36.2426 143.408 34.4911 143.869 32.7709C144.555 30.2094 147.188 28.6892 149.749 29.3756Z" fill="#8C7D60"/>
<path d="M148.746 29.1041C151.308 29.7906 152.828 32.4234 152.142 34.985C151.681 36.7047 150.342 37.9533 148.738 38.3817L147.311 46.3928L141.347 44.7949L144.117 37.1456C142.94 35.9721 142.405 34.2202 142.866 32.4994C143.552 29.9378 146.185 28.4177 148.746 29.1041Z" fill="#83541E"/>
<path d="M129.692 34.6457C129.479 35.4326 128.891 35.8386 128.624 35.9432C127.919 35.8967 127.985 34.5438 128.107 33.8731L131.842 20.0505C132.418 17.9194 133.297 17.6703 134.144 17.5023C135.281 17.2767 139.042 18.6255 141.217 19.2034C140.28 19.1302 137.407 19.2318 135.829 19.234C134.25 19.2362 133.648 20.0043 133.441 20.7693L129.692 34.6457Z" fill="#8C7D60"/>
<path d="M149.08 29.1917C151.641 29.878 153.161 32.5104 152.475 35.0717C152.014 36.7918 150.675 38.0411 149.07 38.4691L147.642 46.4849L141.678 44.887L144.449 37.2311C143.273 36.0577 142.739 34.3063 143.2 32.5864C143.886 30.0253 146.518 28.5057 149.08 29.1917Z" fill="#281C0B"/>
<path d="M163.946 24.3307C164.948 20.6549 164.558 16.7678 162.863 13.5247C161.168 10.2815 158.306 7.9479 154.907 7.03722C151.509 6.12655 147.852 6.71339 144.74 8.66866C141.629 10.6239 139.318 13.7875 138.317 17.4633" stroke="#676D7C" stroke-width="3.41402"/>
<path d="M139.896 11.9205C139.774 12.0584 139.717 12.2347 139.743 12.4158C139.769 12.5965 139.876 12.7671 140.034 12.885C140.192 13.003 140.387 13.0571 140.568 13.0305C140.749 13.0042 140.903 12.8993 141.001 12.7439C141.088 12.6084 141.166 12.4768 141.242 12.3468C142.42 10.0557 144.343 8.28749 146.577 6.87238C146.698 6.79467 146.822 6.71669 146.95 6.63848C146.812 6.69627 146.677 6.75399 146.545 6.81164C144.14 7.84101 141.77 9.40802 140.163 11.6054C140.072 11.717 139.983 11.8236 139.896 11.9205Z" fill="#7B808B"/>
<path d="M136.895 16.2433L140.208 17.1211L139.969 17.9131L136.658 17.0292L136.895 16.2433Z" fill="#49586F"/>
<path d="M162.286 23.8886L162.526 22.9069C163.1 23.0609 163.783 23.2267 164.277 23.283C164.715 23.3328 164.974 22.9843 165.042 22.5496C166.767 11.477 157.275 5.79532 153.224 5.04891C158.898 5.85723 161.608 8.70381 163.6 11.3578C166.867 15.7091 166.59 21.2905 165.636 24.7942L162.286 23.8886Z" fill="#49586F"/>
<defs>
<filter id="filter0_d_204_1933" x="15.5" y="44.4141" width="154" height="114" filterUnits="userSpaceOnUse" color-interpolation-filters="sRGB">
<feFlood flood-opacity="0" result="BackgroundImageFix"/>
<feColorMatrix in="SourceAlpha" type="matrix" values="0 0 0 0 0 0 0 0 0 0 0 0 0 0 0 0 0 0 127 0" result="hardAlpha"/>
<feOffset dy="-2"/>
<feGaussianBlur stdDeviation="6"/>
<feComposite in2="hardAlpha" operator="out"/>
<feColorMatrix type="matrix" values="0 0 0 0 0.0923839 0 0 0 0 0.169424 0 0 0 0 0.250995 0 0 0 0.25 0"/>
<feBlend mode="normal" in2="BackgroundImageFix" result="effect1_dropShadow_204_1933"/>
<feBlend mode="normal" in="SourceGraphic" in2="effect1_dropShadow_204_1933" result="shape"/>
</filter>
<linearGradient id="paint0_linear_204_1933" x1="92.5" y1="62.4641" x2="92.5" y2="148.414" gradientUnits="userSpaceOnUse">
<stop stop-color="#FDC969"/>
<stop offset="1" stop-color="#B48D42"/>
</linearGradient>
</defs>
</svg>
