<svg width="161" height="191" viewBox="0 0 161 191" fill="none" xmlns="http://www.w3.org/2000/svg">
<rect x="11.8555" y="28.4219" width="130" height="120" rx="8" fill="#657076"/>
<rect x="11.8555" y="28.4219" width="130" height="120" rx="8" fill="black" fill-opacity="0.3"/>
<g filter="url(#filter0_d_304_2552)">
<path d="M64.49 58.4219H20.2866C15.8683 58.4219 12.2866 62.0036 12.2866 66.4219L12.2866 103.422V140.422C12.2866 144.84 15.8683 148.422 20.2866 148.422H134.287C138.705 148.422 142.287 144.84 142.287 140.422V82.4856C142.287 78.0673 138.705 74.4856 134.287 74.4856H89.4928C87.6152 74.4856 85.7975 73.8252 84.3577 72.62L69.625 60.2875C68.1853 59.0823 66.3675 58.4219 64.49 58.4219Z" fill="url(#paint0_linear_304_2552)"/>
<path d="M64.49 58.4219H20.2866C15.8683 58.4219 12.2866 62.0036 12.2866 66.4219L12.2866 103.422V140.422C12.2866 144.84 15.8683 148.422 20.2866 148.422H134.287C138.705 148.422 142.287 144.84 142.287 140.422V82.4856C142.287 78.0673 138.705 74.4856 134.287 74.4856H89.4928C87.6152 74.4856 85.7975 73.8252 84.3577 72.62L69.625 60.2875C68.1853 59.0823 66.3675 58.4219 64.49 58.4219Z" fill="black" fill-opacity="0.3"/>
</g>
<path d="M30.3562 160.243L30.3565 170.425L28.2038 170.425L28.2035 160.243L30.3562 160.243ZM31.7396 162.018L31.7395 160.243L40.1017 160.243L40.1018 162.018L36.9846 162.018L36.9849 170.425L34.857 170.425L34.8568 162.018L31.7396 162.018ZM45.4861 165.403L45.4862 167.084L40.8427 167.084L40.8427 165.403L45.4861 165.403ZM53.6445 164.966L51.7056 165.085C51.6724 164.919 51.6012 164.77 51.4918 164.637C51.3824 164.502 51.2382 164.394 51.0593 164.314C50.8836 164.232 50.6731 164.19 50.4279 164.19C50.0997 164.19 49.823 164.26 49.5976 164.399C49.3722 164.535 49.2595 164.717 49.2596 164.946C49.2596 165.128 49.3325 165.282 49.4783 165.408C49.6242 165.534 49.8744 165.635 50.229 165.711L51.6112 165.99C52.3536 166.142 52.9071 166.387 53.2717 166.726C53.6363 167.064 53.8186 167.508 53.8186 168.058C53.8186 168.558 53.6712 168.998 53.3762 169.375C53.0845 169.753 52.6835 170.048 52.1731 170.26C51.666 170.469 51.081 170.574 50.4181 170.574C49.4072 170.574 48.6018 170.363 48.0019 169.942C47.4053 169.518 47.0556 168.941 46.9528 168.212L49.0359 168.103C49.0989 168.411 49.2514 168.646 49.4934 168.809C49.7353 168.968 50.0452 169.047 50.423 169.047C50.7943 169.047 51.0926 168.976 51.3179 168.834C51.5466 168.688 51.6626 168.5 51.6659 168.272C51.6626 168.079 51.5814 167.922 51.4223 167.799C51.2632 167.673 51.0179 167.577 50.6865 167.511L49.364 167.248C48.6183 167.099 48.0631 166.84 47.6985 166.472C47.3372 166.104 47.1566 165.635 47.1566 165.065C47.1566 164.575 47.2891 164.152 47.5543 163.797C47.8227 163.443 48.1989 163.169 48.6828 162.977C49.17 162.785 49.7401 162.689 50.393 162.689C51.3575 162.689 52.1165 162.892 52.67 163.3C53.2268 163.708 53.5517 164.263 53.6445 164.966ZM60.0492 167.173L60.0491 162.788L62.167 162.788L62.1672 170.424L60.1339 170.424L60.1338 169.037L60.0543 169.037C59.8819 169.485 59.5952 169.844 59.1942 170.116C58.7965 170.388 58.3109 170.524 57.7375 170.524C57.2271 170.524 56.778 170.408 56.3902 170.176C56.0024 169.944 55.6992 169.614 55.4804 169.186C55.265 168.759 55.1556 168.247 55.1522 167.65L55.1521 162.788L57.27 162.788L57.2701 167.272C57.2734 167.723 57.3944 168.079 57.6331 168.341C57.8717 168.603 58.1916 168.734 58.5926 168.734C58.8478 168.734 59.0864 168.676 59.3085 168.56C59.5306 168.44 59.7095 168.265 59.8454 168.033C59.9846 167.801 60.0526 167.514 60.0492 167.173ZM57.1556 161.744C56.8705 161.744 56.6253 161.644 56.4198 161.446C56.2143 161.243 56.1115 161.005 56.1115 160.73C56.1115 160.448 56.2142 160.209 56.4197 160.014C56.6252 159.818 56.8705 159.72 57.1555 159.72C57.4439 159.72 57.6875 159.818 57.8863 160.014C58.0885 160.209 58.1896 160.448 58.1896 160.73C58.1896 161.005 58.0886 161.243 57.8864 161.446C57.6875 161.644 57.4439 161.744 57.1556 161.744ZM60.1982 161.744C59.9132 161.744 59.6679 161.644 59.4624 161.445C59.2569 161.243 59.1541 161.005 59.1541 160.73C59.1541 160.448 59.2569 160.209 59.4623 160.014C59.6678 159.818 59.9131 159.72 60.1981 159.72C60.4865 159.72 60.7301 159.818 60.929 160.014C61.1311 160.209 61.2322 160.448 61.2322 160.729C61.2323 161.005 61.1312 161.243 60.929 161.445C60.7301 161.644 60.4865 161.744 60.1982 161.744ZM70.2148 164.965L68.2759 165.084C68.2427 164.919 68.1715 164.77 68.0621 164.637C67.9527 164.501 67.8085 164.393 67.6296 164.314C67.4539 164.231 67.2434 164.19 66.9982 164.19C66.67 164.19 66.3933 164.259 66.1679 164.398C65.9425 164.534 65.8299 164.717 65.8299 164.945C65.8299 165.128 65.9028 165.282 66.0486 165.408C66.1945 165.534 66.4447 165.635 66.7994 165.711L68.1815 165.989C68.9239 166.142 69.4774 166.387 69.842 166.725C70.2066 167.063 70.3889 167.507 70.3889 168.057C70.3889 168.558 70.2415 168.997 69.9465 169.375C69.6548 169.753 69.2538 170.048 68.7434 170.26C68.2363 170.469 67.6513 170.573 66.9884 170.573C65.9775 170.573 65.1721 170.363 64.5722 169.942C63.9756 169.518 63.6259 168.941 63.5232 168.212L65.6063 168.102C65.6692 168.41 65.8217 168.646 66.0637 168.808C66.3056 168.967 66.6155 169.047 66.9934 169.047C67.3646 169.047 67.6629 168.975 67.8882 168.833C68.1169 168.687 68.2329 168.5 68.2362 168.271C68.2329 168.079 68.1517 167.922 67.9926 167.799C67.8335 167.673 67.5882 167.577 67.2568 167.511L65.9343 167.247C65.1886 167.098 64.6334 166.839 64.2688 166.472C63.9076 166.104 63.7269 165.635 63.7269 165.065C63.7269 164.574 63.8594 164.152 64.1246 163.797C64.393 163.442 64.7692 163.169 65.2531 162.977C65.7403 162.784 66.3104 162.688 66.9633 162.688C67.9278 162.688 68.6868 162.892 69.2403 163.3C69.7972 163.707 70.122 164.262 70.2148 164.965ZM75.7842 162.787L75.7842 164.378L71.1855 164.378L71.1854 162.787L75.7842 162.787ZM72.2294 160.958L74.3473 160.958L74.3476 168.077C74.3476 168.273 74.3774 168.425 74.4371 168.534C74.4967 168.641 74.5796 168.715 74.6856 168.758C74.795 168.801 74.921 168.823 75.0635 168.823C75.1629 168.823 75.2623 168.814 75.3618 168.798C75.4612 168.778 75.5374 168.763 75.5905 168.753L75.9236 170.329C75.8176 170.362 75.6684 170.4 75.4762 170.444C75.2839 170.49 75.0503 170.518 74.7752 170.528C74.2648 170.548 73.8173 170.48 73.4329 170.324C73.0517 170.168 72.755 169.927 72.5429 169.598C72.3308 169.27 72.2264 168.856 72.2297 168.356L72.2294 160.958ZM80.5621 170.573C79.7766 170.573 79.1005 170.414 78.5337 170.095C77.9702 169.774 77.536 169.32 77.2311 168.733C76.9262 168.143 76.7737 167.446 76.7736 166.64C76.7736 165.855 76.9261 165.165 77.231 164.572C77.5359 163.979 77.9651 163.516 78.5186 163.185C79.0754 162.853 79.7283 162.688 80.4773 162.688C80.9811 162.688 81.4501 162.769 81.8843 162.931C82.3218 163.09 82.703 163.331 83.0278 163.652C83.3559 163.974 83.6112 164.378 83.7935 164.865C83.9758 165.349 84.0669 165.916 84.067 166.565L84.067 167.147L77.6188 167.147L77.6188 165.835L82.0733 165.835C82.0733 165.53 82.007 165.26 81.8744 165.024C81.7419 164.789 81.5579 164.605 81.3226 164.472C81.0906 164.337 80.8204 164.269 80.5122 164.269C80.1907 164.269 79.9057 164.343 79.6571 164.492C79.4118 164.638 79.2196 164.835 79.0804 165.084C78.9412 165.329 78.87 165.603 78.8667 165.904L78.8667 167.152C78.8667 167.53 78.9363 167.857 79.0755 168.132C79.2181 168.407 79.4186 168.619 79.6771 168.768C79.9356 168.917 80.2422 168.992 80.5969 168.992C80.8322 168.992 81.0476 168.958 81.2432 168.892C81.4387 168.826 81.6061 168.726 81.7453 168.594C81.8845 168.461 81.9906 168.299 82.0635 168.107L84.0223 168.236C83.9229 168.706 83.719 169.117 83.4108 169.469C83.1059 169.817 82.7115 170.089 82.2276 170.284C81.747 170.476 81.1919 170.573 80.5621 170.573ZM88.9293 170.572C88.1438 170.572 87.4677 170.413 86.9009 170.095C86.3374 169.774 85.9032 169.32 85.5983 168.733C85.2933 168.143 85.1409 167.445 85.1408 166.64C85.1408 165.854 85.2932 165.165 85.5981 164.572C85.903 163.978 86.3322 163.516 86.8857 163.185C87.4425 162.853 88.0955 162.687 88.8445 162.687C89.3483 162.687 89.8173 162.769 90.2515 162.931C90.689 163.09 91.0702 163.33 91.395 163.652C91.7231 163.973 91.9783 164.378 92.1607 164.865C92.343 165.349 92.4341 165.915 92.4341 166.565L92.4342 167.147L85.986 167.147L85.986 165.834L90.4405 165.834C90.4405 165.529 90.3742 165.259 90.2416 165.024C90.109 164.789 89.9251 164.605 89.6898 164.472C89.4577 164.336 89.1876 164.268 88.8794 164.268C88.5579 164.268 88.2729 164.343 88.0243 164.492C87.779 164.638 87.5868 164.835 87.4476 165.084C87.3084 165.329 87.2371 165.602 87.2338 165.904L87.2339 167.152C87.2339 167.53 87.3035 167.856 87.4427 168.131C87.5853 168.406 87.7858 168.619 88.0443 168.768C88.3028 168.917 88.6094 168.991 88.9641 168.991C89.1994 168.991 89.4148 168.958 89.6104 168.892C89.8059 168.826 89.9733 168.726 90.1125 168.594C90.2517 168.461 90.3577 168.299 90.4306 168.106L92.3895 168.236C92.29 168.706 92.0862 169.117 91.778 169.469C91.4731 169.817 91.0787 170.088 90.5948 170.284C90.1142 170.476 89.559 170.572 88.9293 170.572ZM93.8164 170.423L93.8161 162.787L95.8346 162.787L95.8346 164.134L95.9241 164.134C96.0832 163.686 96.3483 163.333 96.7195 163.075C97.0907 162.816 97.5349 162.687 98.0519 162.687C98.5756 162.687 99.0214 162.818 99.3893 163.08C99.7572 163.338 100.002 163.69 100.125 164.134L100.205 164.134C100.36 163.696 100.642 163.347 101.05 163.085C101.461 162.82 101.946 162.687 102.506 162.687C103.219 162.687 103.797 162.914 104.242 163.368C104.689 163.819 104.913 164.458 104.913 165.287L104.913 170.423L102.8 170.423L102.8 165.705C102.8 165.28 102.687 164.962 102.462 164.75C102.236 164.538 101.955 164.432 101.617 164.432C101.232 164.432 100.932 164.555 100.717 164.8C100.501 165.042 100.394 165.362 100.394 165.759L100.394 170.423L98.3405 170.423L98.3404 165.66C98.3404 165.286 98.2326 164.987 98.0172 164.765C97.8051 164.543 97.525 164.432 97.177 164.432C96.9417 164.432 96.7295 164.492 96.5406 164.611C96.355 164.727 96.2075 164.891 96.0982 165.103C95.9888 165.312 95.9341 165.557 95.9341 165.839L95.9343 170.423L93.8164 170.423ZM106.586 170.423L106.586 162.786L108.704 162.786L108.704 170.423L106.586 170.423ZM107.65 161.802C107.335 161.802 107.065 161.697 106.839 161.489C106.617 161.277 106.506 161.023 106.506 160.728C106.506 160.436 106.617 160.186 106.839 159.977C107.064 159.765 107.335 159.659 107.649 159.659C107.964 159.659 108.233 159.765 108.455 159.977C108.68 160.186 108.793 160.436 108.793 160.728C108.793 161.023 108.68 161.276 108.455 161.489C108.233 161.697 107.964 161.802 107.65 161.802ZM113.214 170.547C112.634 170.547 112.109 170.398 111.638 170.099C111.171 169.798 110.8 169.355 110.525 168.772C110.253 168.185 110.117 167.466 110.117 166.614C110.117 165.739 110.258 165.012 110.539 164.432C110.821 163.848 111.196 163.412 111.663 163.124C112.134 162.832 112.649 162.687 113.209 162.687C113.637 162.687 113.993 162.759 114.278 162.905C114.566 163.048 114.798 163.227 114.974 163.442C115.153 163.654 115.289 163.863 115.382 164.069L115.446 164.069L115.446 160.24L117.559 160.24L117.559 170.422L115.471 170.422L115.471 169.199L115.382 169.199C115.282 169.411 115.142 169.622 114.959 169.831C114.78 170.036 114.547 170.207 114.258 170.343C113.973 170.479 113.625 170.547 113.214 170.547ZM113.885 168.861C114.227 168.861 114.515 168.768 114.75 168.583C114.989 168.394 115.171 168.13 115.297 167.792C115.427 167.454 115.491 167.058 115.491 166.604C115.491 166.15 115.428 165.756 115.302 165.421C115.176 165.086 114.994 164.828 114.755 164.645C114.517 164.463 114.227 164.372 113.885 164.372C113.537 164.372 113.244 164.466 113.005 164.655C112.767 164.844 112.586 165.106 112.463 165.441C112.341 165.776 112.279 166.163 112.279 166.604C112.28 167.048 112.341 167.441 112.463 167.782C112.589 168.121 112.77 168.386 113.005 168.578C113.244 168.767 113.537 168.861 113.885 168.861ZM122.781 170.571C121.995 170.571 121.319 170.412 120.752 170.094C120.189 169.773 119.755 169.318 119.45 168.732C119.145 168.142 118.992 167.444 118.992 166.639C118.992 165.853 119.145 165.164 119.45 164.571C119.755 163.977 120.184 163.515 120.737 163.183C121.294 162.852 121.947 162.686 122.696 162.686C123.2 162.686 123.669 162.767 124.103 162.93C124.541 163.089 124.922 163.329 125.247 163.651C125.575 163.972 125.83 164.376 126.012 164.864C126.195 165.348 126.286 165.914 126.286 166.564L126.286 167.146L119.838 167.146L119.838 165.833L124.292 165.833C124.292 165.528 124.226 165.258 124.093 165.023C123.961 164.788 123.777 164.604 123.541 164.471C123.309 164.335 123.039 164.267 122.731 164.267C122.409 164.267 122.124 164.342 121.876 164.491C121.631 164.637 121.438 164.834 121.299 165.083C121.16 165.328 121.089 165.601 121.085 165.903L121.085 167.151C121.085 167.529 121.155 167.855 121.294 168.13C121.437 168.405 121.637 168.617 121.896 168.767C122.154 168.916 122.461 168.99 122.816 168.99C123.051 168.99 123.266 168.957 123.462 168.891C123.657 168.824 123.825 168.725 123.964 168.592C124.103 168.46 124.209 168.297 124.282 168.105L126.241 168.234C126.142 168.705 125.938 169.116 125.63 169.467C125.325 169.815 124.93 170.087 124.446 170.283C123.966 170.475 123.411 170.571 122.781 170.571ZM18.2579 183.011L18.2581 187.426L16.1402 187.426L16.1399 179.789L18.1584 179.789L18.1584 181.136L18.2479 181.136C18.417 180.692 18.7003 180.341 19.098 180.082C19.4958 179.821 19.978 179.69 20.5448 179.69C21.0751 179.69 21.5374 179.806 21.9318 180.038C22.3263 180.27 22.6329 180.601 22.8516 181.032C23.0704 181.459 23.1798 181.97 23.1798 182.563L23.18 187.425L21.0621 187.425L21.0619 182.941C21.0652 182.474 20.9459 182.109 20.7039 181.847C20.462 181.582 20.1289 181.45 19.7046 181.45C19.4196 181.45 19.1677 181.511 18.9489 181.634C18.7335 181.756 18.5645 181.935 18.4419 182.171C18.3226 182.403 18.2612 182.683 18.2579 183.011ZM28.2995 187.574C27.5272 187.574 26.8594 187.41 26.2959 187.082C25.7358 186.751 25.3032 186.29 24.9983 185.7C24.6933 185.107 24.5408 184.419 24.5408 183.637C24.5408 182.848 24.6932 182.159 24.9981 181.569C25.303 180.975 25.7355 180.515 26.2957 180.187C26.8591 179.855 27.5269 179.689 28.2992 179.689C29.0715 179.689 29.7377 179.855 30.2978 180.186C30.8613 180.515 31.2955 180.975 31.6004 181.569C31.9053 182.159 32.0578 182.848 32.0579 183.637C32.0579 184.419 31.9054 185.107 31.6005 185.7C31.2956 186.29 30.8615 186.751 30.298 187.082C29.7379 187.41 29.0717 187.574 28.2995 187.574ZM28.3094 185.934C28.6607 185.934 28.954 185.834 29.1893 185.635C29.4246 185.433 29.6019 185.158 29.7212 184.81C29.8439 184.462 29.9052 184.066 29.9052 183.622C29.9051 183.178 29.8438 182.782 29.7212 182.434C29.6018 182.086 29.4245 181.811 29.1892 181.608C28.9539 181.406 28.6605 181.305 28.3092 181.305C27.9546 181.305 27.6563 181.406 27.4143 181.608C27.1757 181.811 26.9951 182.086 26.8724 182.434C26.7531 182.782 26.6935 183.178 26.6935 183.622C26.6935 184.066 26.7532 184.462 26.8725 184.81C26.9952 185.158 27.1758 185.433 27.4145 185.635C27.6564 185.834 27.9547 185.934 28.3094 185.934ZM36.8854 187.574C36.1131 187.574 35.4453 187.41 34.8818 187.082C34.3217 186.751 33.8891 186.29 33.5842 185.7C33.2793 185.107 33.1268 184.419 33.1267 183.637C33.1267 182.848 33.2792 182.158 33.5841 181.568C33.889 180.975 34.3215 180.514 34.8816 180.186C35.445 179.855 36.1129 179.689 36.8851 179.689C37.6574 179.689 38.3236 179.855 38.8837 180.186C39.4472 180.514 39.8814 180.975 40.1863 181.568C40.4913 182.158 40.6438 182.848 40.6438 183.636C40.6438 184.419 40.4914 185.106 40.1865 185.7C39.8816 186.29 39.4474 186.75 38.884 187.082C38.3238 187.41 37.6577 187.574 36.8854 187.574ZM36.8953 185.933C37.2466 185.933 37.5399 185.834 37.7753 185.635C38.0106 185.433 38.1879 185.158 38.3072 184.81C38.4298 184.462 38.4911 184.066 38.4911 183.622C38.4911 183.177 38.4297 182.781 38.3071 182.433C38.1878 182.085 38.0104 181.81 37.7751 181.608C37.5398 181.406 37.2465 181.305 36.8951 181.305C36.5405 181.305 36.2422 181.406 36.0003 181.608C35.7616 181.81 35.581 182.085 35.4584 182.433C35.3391 182.782 35.2794 183.178 35.2794 183.622C35.2795 184.066 35.3391 184.462 35.4585 184.81C35.5811 185.158 35.7618 185.433 36.0004 185.635C36.2424 185.834 36.5406 185.933 36.8953 185.933ZM42.0211 187.425L42.0208 179.788L44.0741 179.788L44.0741 181.121L44.1537 181.121C44.2928 180.647 44.5265 180.289 44.8546 180.047C45.1827 179.802 45.5606 179.679 45.9881 179.679C46.0942 179.679 46.2085 179.685 46.3312 179.699C46.4538 179.712 46.5615 179.73 46.6543 179.753L46.6544 181.633C46.5549 181.603 46.4174 181.576 46.2417 181.553C46.0661 181.53 45.9053 181.518 45.7595 181.518C45.4479 181.518 45.1695 181.586 44.9243 181.722C44.6823 181.855 44.4901 182.04 44.3476 182.279C44.2084 182.518 44.1388 182.793 44.1388 183.104L44.1389 187.425L42.0211 187.425ZM50.8742 187.574C50.0887 187.574 49.4126 187.415 48.8458 187.096C48.2823 186.775 47.8481 186.321 47.5432 185.734C47.2382 185.144 47.0858 184.447 47.0857 183.641C47.0857 182.856 47.2381 182.166 47.543 181.573C47.848 180.98 48.2772 180.517 48.8306 180.186C49.3875 179.854 50.0404 179.689 50.7894 179.689C51.2932 179.689 51.7622 179.77 52.1964 179.932C52.6339 180.091 53.0151 180.332 53.3399 180.653C53.668 180.975 53.9233 181.379 54.1056 181.866C54.2879 182.35 54.379 182.917 54.3791 183.566L54.3791 184.148L47.9309 184.148L47.9309 182.836L52.3854 182.836C52.3854 182.531 52.3191 182.261 52.1865 182.025C52.0539 181.79 51.87 181.606 51.6347 181.473C51.4027 181.338 51.1325 181.27 50.8243 181.27C50.5028 181.27 50.2178 181.344 49.9692 181.493C49.7239 181.639 49.5317 181.836 49.3925 182.085C49.2533 182.33 49.1821 182.604 49.1787 182.905L49.1788 184.153C49.1788 184.531 49.2484 184.858 49.3876 185.133C49.5302 185.408 49.7307 185.62 49.9892 185.769C50.2477 185.918 50.5543 185.993 50.909 185.993C51.1443 185.993 51.3597 185.959 51.5553 185.893C51.7508 185.827 51.9182 185.727 52.0574 185.595C52.1966 185.462 52.3026 185.3 52.3756 185.108L54.3344 185.237C54.2349 185.707 54.0311 186.118 53.7229 186.47C53.418 186.818 53.0236 187.09 52.5397 187.285C52.0591 187.477 51.504 187.574 50.8742 187.574ZM55.7613 187.424L55.761 179.788L57.7795 179.788L57.7795 181.135L57.869 181.135C58.0281 180.688 58.2932 180.335 58.6644 180.076C59.0357 179.818 59.4798 179.688 59.9968 179.688C60.5205 179.688 60.9663 179.819 61.3342 180.081C61.7021 180.34 61.9474 180.691 62.07 181.135L62.1496 181.135C62.3053 180.698 62.587 180.348 62.9947 180.086C63.4057 179.821 63.8912 179.688 64.4514 179.688C65.164 179.688 65.7423 179.915 66.1865 180.369C66.6339 180.82 66.8577 181.46 66.8577 182.288L66.8579 187.424L64.7449 187.424L64.7448 182.706C64.7448 182.282 64.6321 181.964 64.4067 181.751C64.1813 181.539 63.8996 181.433 63.5615 181.433C63.177 181.433 62.8771 181.556 62.6617 181.801C62.4462 182.043 62.3385 182.363 62.3385 182.761L62.3387 187.424L60.2854 187.424L60.2853 182.661C60.2853 182.287 60.1775 181.989 59.9621 181.766C59.75 181.544 59.4699 181.433 59.1219 181.433C58.8866 181.433 58.6744 181.493 58.4855 181.612C58.2999 181.728 58.1524 181.892 58.0431 182.105C57.9337 182.313 57.879 182.559 57.879 182.84L57.8792 187.424L55.7613 187.424ZM74.8843 181.965L72.9454 182.084C72.9123 181.919 72.841 181.769 72.7316 181.637C72.6222 181.501 72.4781 181.393 72.2991 181.314C72.1234 181.231 71.9129 181.189 71.6677 181.189C71.3396 181.189 71.0628 181.259 70.8374 181.398C70.6121 181.534 70.4994 181.716 70.4994 181.945C70.4994 182.127 70.5723 182.282 70.7181 182.407C70.864 182.533 71.1142 182.634 71.4689 182.711L72.851 182.989C73.5934 183.141 74.1469 183.387 74.5115 183.725C74.8761 184.063 75.0584 184.507 75.0584 185.057C75.0585 185.558 74.911 185.997 74.616 186.375C74.3244 186.752 73.9233 187.047 73.4129 187.26C72.9058 187.468 72.3208 187.573 71.658 187.573C70.6471 187.573 69.8417 187.362 69.2417 186.942C68.6451 186.517 68.2954 185.941 68.1927 185.212L70.2758 185.102C70.3388 185.41 70.4912 185.646 70.7332 185.808C70.9751 185.967 71.285 186.047 71.6629 186.047C72.0341 186.047 72.3324 185.975 72.5578 185.833C72.7864 185.687 72.9024 185.5 72.9057 185.271C72.9024 185.079 72.8212 184.921 72.6621 184.799C72.503 184.673 72.2578 184.577 71.9263 184.51L70.6039 184.247C69.8581 184.098 69.3029 183.839 68.9384 183.471C68.5771 183.104 68.3964 182.635 68.3964 182.064C68.3964 181.574 68.5289 181.151 68.7941 180.797C69.0625 180.442 69.4387 180.169 69.9226 179.976C70.4098 179.784 70.9799 179.688 71.6328 179.688C72.5973 179.688 73.3563 179.892 73.9098 180.299C74.4667 180.707 74.7915 181.262 74.8843 181.965ZM76.3922 190.287L76.3919 179.787L78.48 179.787L78.48 181.07L78.5745 181.07C78.6673 180.864 78.8015 180.656 78.9771 180.443C79.1561 180.228 79.3881 180.049 79.6731 179.906C79.9615 179.761 80.3194 179.688 80.747 179.688C81.3038 179.688 81.8176 179.833 82.2882 180.125C82.7589 180.413 83.1351 180.849 83.4168 181.433C83.6985 182.013 83.8394 182.74 83.8395 183.615C83.8395 184.467 83.702 185.186 83.4269 185.773C83.1551 186.356 82.7839 186.799 82.3133 187.1C81.846 187.399 81.3223 187.548 80.7423 187.548C80.3313 187.548 79.9816 187.48 79.6933 187.344C79.4082 187.208 79.1746 187.037 78.9923 186.832C78.81 186.623 78.6708 186.413 78.5746 186.201L78.51 186.201L78.5101 190.287L76.3922 190.287ZM78.4652 183.605C78.4652 184.059 78.5282 184.455 78.6541 184.794C78.7801 185.132 78.9624 185.395 79.201 185.584C79.4397 185.77 79.7297 185.862 80.0711 185.862C80.4158 185.862 80.7074 185.768 80.9461 185.579C81.1847 185.387 81.3653 185.122 81.4879 184.784C81.6139 184.442 81.6768 184.049 81.6768 183.605C81.6768 183.164 81.6155 182.777 81.4928 182.442C81.3702 182.107 81.1895 181.845 80.9509 181.656C80.7123 181.467 80.4189 181.373 80.0709 181.373C79.7262 181.373 79.4346 181.464 79.1959 181.647C78.9606 181.829 78.78 182.087 78.6541 182.422C78.5281 182.757 78.4652 183.151 78.4652 183.605ZM88.7316 187.572C87.9461 187.572 87.27 187.413 86.7032 187.095C86.1398 186.774 85.7056 186.32 85.4006 185.733C85.0957 185.143 84.9432 184.445 84.9432 183.64C84.9431 182.854 85.0956 182.165 85.4005 181.572C85.7054 180.978 86.1346 180.516 86.6881 180.185C87.2449 179.853 87.8978 179.687 88.6469 179.687C89.1506 179.687 89.6196 179.769 90.0538 179.931C90.4913 180.09 90.8725 180.33 91.1973 180.652C91.5255 180.973 91.7807 181.378 91.963 181.865C92.1453 182.349 92.2365 182.915 92.2365 183.565L92.2365 184.147L85.7883 184.147L85.7883 182.835L90.2428 182.834C90.2428 182.529 90.1765 182.259 90.044 182.024C89.9114 181.789 89.7274 181.605 89.4921 181.472C89.2601 181.336 88.9899 181.268 88.6817 181.268C88.3602 181.268 88.0752 181.343 87.8266 181.492C87.5813 181.638 87.3891 181.835 87.2499 182.084C87.1107 182.329 87.0395 182.602 87.0362 182.904L87.0362 184.152C87.0362 184.53 87.1058 184.856 87.2451 185.131C87.3876 185.406 87.5881 185.619 87.8466 185.768C88.1052 185.917 88.4117 185.991 88.7664 185.991C89.0017 185.991 89.2171 185.958 89.4127 185.892C89.6082 185.826 89.7756 185.726 89.9148 185.594C90.054 185.461 90.1601 185.299 90.233 185.106L92.1918 185.236C92.0924 185.706 91.8885 186.117 91.5803 186.469C91.2754 186.817 90.881 187.088 90.3971 187.284C89.9165 187.476 89.3614 187.572 88.7316 187.572ZM97.6802 179.787L97.6803 181.377L93.0816 181.378L93.0815 179.787L97.6802 179.787ZM94.1255 177.957L96.2434 177.957L96.2436 185.076C96.2436 185.272 96.2735 185.424 96.3331 185.534C96.3928 185.64 96.4757 185.714 96.5817 185.757C96.6911 185.801 96.817 185.822 96.9596 185.822C97.059 185.822 97.1584 185.814 97.2579 185.797C97.3573 185.777 97.4335 185.762 97.4865 185.752L97.8197 187.328C97.7136 187.362 97.5645 187.4 97.3723 187.443C97.18 187.489 96.9464 187.517 96.6713 187.527C96.1609 187.547 95.7134 187.479 95.3289 187.324C94.9478 187.168 94.6511 186.926 94.439 186.598C94.2269 186.27 94.1224 185.855 94.1257 185.355L94.1255 177.957ZM105.318 181.964L103.379 182.083C103.346 181.917 103.275 181.768 103.165 181.636C103.056 181.5 102.912 181.392 102.733 181.313C102.557 181.23 102.347 181.188 102.101 181.188C101.773 181.188 101.496 181.258 101.271 181.397C101.046 181.533 100.933 181.715 100.933 181.944C100.933 182.126 101.006 182.28 101.152 182.406C101.298 182.532 101.548 182.633 101.902 182.71L103.285 182.988C104.027 183.14 104.581 183.386 104.945 183.724C105.31 184.062 105.492 184.506 105.492 185.056C105.492 185.557 105.345 185.996 105.05 186.374C104.758 186.751 104.357 187.046 103.847 187.259C103.339 187.467 102.754 187.572 102.092 187.572C101.081 187.572 100.275 187.361 99.6753 186.941C99.0787 186.516 98.729 185.94 98.6263 185.21L100.709 185.101C100.772 185.409 100.925 185.645 101.167 185.807C101.409 185.966 101.719 186.046 102.096 186.046C102.468 186.046 102.766 185.974 102.991 185.832C103.22 185.686 103.336 185.499 103.339 185.27C103.336 185.078 103.255 184.92 103.096 184.798C102.937 184.672 102.691 184.576 102.36 184.509L101.037 184.246C100.292 184.097 99.7365 183.838 99.3719 183.47C99.0107 183.103 98.83 182.634 98.83 182.063C98.83 181.573 98.9625 181.15 99.2277 180.796C99.4961 180.441 99.8723 180.168 100.356 179.975C100.843 179.783 101.413 179.687 102.066 179.687C103.031 179.687 103.79 179.891 104.343 180.298C104.9 180.706 105.225 181.261 105.318 181.964ZM106.826 187.423L106.825 179.786L108.943 179.786L108.944 187.423L106.826 187.423ZM107.889 178.802C107.575 178.802 107.304 178.697 107.079 178.489C106.857 178.277 106.746 178.023 106.746 177.728C106.746 177.436 106.857 177.186 107.079 176.977C107.304 176.765 107.574 176.659 107.889 176.659C108.204 176.659 108.473 176.765 108.695 176.977C108.92 177.186 109.033 177.436 109.033 177.728C109.033 178.023 108.92 178.276 108.695 178.489C108.473 178.697 108.204 178.802 107.889 178.802ZM112.818 187.567C112.331 187.567 111.896 187.482 111.515 187.313C111.134 187.141 110.832 186.887 110.61 186.552C110.392 186.214 110.282 185.793 110.282 185.29C110.282 184.865 110.36 184.509 110.516 184.221C110.672 183.932 110.884 183.7 111.152 183.525C111.421 183.349 111.726 183.216 112.067 183.127C112.412 183.037 112.773 182.974 113.151 182.938C113.595 182.892 113.953 182.848 114.225 182.809C114.496 182.766 114.694 182.703 114.816 182.62C114.939 182.537 115 182.414 115 182.252L115 182.222C115 181.907 114.901 181.664 114.702 181.491C114.506 181.319 114.228 181.233 113.867 181.233C113.485 181.233 113.182 181.317 112.957 181.486C112.731 181.652 112.582 181.861 112.509 182.113L110.551 181.954C110.65 181.49 110.845 181.089 111.137 180.751C111.429 180.409 111.805 180.147 112.266 179.965C112.73 179.779 113.267 179.687 113.876 179.687C114.301 179.687 114.707 179.736 115.094 179.836C115.486 179.935 115.832 180.089 116.134 180.298C116.438 180.507 116.679 180.775 116.854 181.103C117.03 181.428 117.118 181.818 117.118 182.272L117.118 187.422L115.11 187.422L115.11 186.363L115.05 186.363C114.927 186.602 114.763 186.812 114.558 186.995C114.352 187.174 114.105 187.315 113.817 187.417C113.529 187.517 113.196 187.567 112.818 187.567ZM113.424 186.105C113.736 186.105 114.011 186.044 114.25 185.921C114.488 185.795 114.675 185.626 114.811 185.414C114.947 185.202 115.015 184.961 115.015 184.693L115.015 183.883C114.949 183.926 114.858 183.965 114.742 184.002C114.629 184.035 114.501 184.066 114.359 184.096C114.216 184.123 114.074 184.148 113.931 184.171C113.789 184.191 113.659 184.209 113.543 184.226C113.295 184.262 113.078 184.32 112.892 184.4C112.707 184.479 112.562 184.587 112.46 184.723C112.357 184.855 112.306 185.021 112.306 185.22C112.306 185.508 112.41 185.729 112.619 185.881C112.831 186.03 113.099 186.105 113.424 186.105ZM120.879 177.24L120.879 187.422L118.761 187.422L118.761 177.24L120.879 177.24ZM122.576 187.422L122.575 179.786L124.693 179.786L124.694 187.422L122.576 187.422ZM123.639 178.801C123.325 178.801 123.054 178.697 122.829 178.488C122.607 178.276 122.496 178.022 122.496 177.727C122.496 177.436 122.607 177.186 122.829 176.977C123.054 176.765 123.324 176.659 123.639 176.659C123.954 176.659 124.223 176.765 124.445 176.977C124.67 177.185 124.783 177.436 124.783 177.727C124.783 178.022 124.67 178.276 124.445 178.488C124.223 178.697 123.954 178.801 123.639 178.801ZM132.744 181.963L130.805 182.082C130.772 181.917 130.7 181.767 130.591 181.635C130.482 181.499 130.337 181.391 130.158 181.312C129.983 181.229 129.772 181.187 129.527 181.187C129.199 181.187 128.922 181.257 128.697 181.396C128.471 181.532 128.359 181.714 128.359 181.943C128.359 182.125 128.432 182.28 128.578 182.406C128.723 182.531 128.974 182.633 129.328 182.709L130.71 182.987C131.453 183.14 132.006 183.385 132.371 183.723C132.735 184.061 132.918 184.505 132.918 185.055C132.918 185.556 132.77 185.995 132.475 186.373C132.184 186.751 131.783 187.046 131.272 187.258C130.765 187.467 130.18 187.571 129.517 187.571C128.506 187.571 127.701 187.361 127.101 186.94C126.505 186.515 126.155 185.939 126.052 185.21L128.135 185.1C128.198 185.408 128.351 185.644 128.593 185.806C128.835 185.965 129.144 186.045 129.522 186.045C129.893 186.045 130.192 185.973 130.417 185.831C130.646 185.685 130.762 185.498 130.765 185.269C130.762 185.077 130.681 184.919 130.521 184.797C130.362 184.671 130.117 184.575 129.786 184.508L128.463 184.245C127.717 184.096 127.162 183.837 126.798 183.469C126.436 183.102 126.256 182.633 126.256 182.063C126.256 181.572 126.388 181.149 126.653 180.795C126.922 180.44 127.298 180.167 127.782 179.974C128.269 179.782 128.839 179.686 129.492 179.686C130.457 179.686 131.216 179.89 131.769 180.297C132.326 180.705 132.651 181.26 132.744 181.963ZM138.313 179.785L138.313 181.376L133.714 181.376L133.714 179.785L138.313 179.785ZM134.758 177.956L136.876 177.956L136.876 185.075C136.876 185.271 136.906 185.423 136.966 185.532C137.026 185.638 137.108 185.713 137.215 185.756C137.324 185.799 137.45 185.821 137.592 185.821C137.692 185.821 137.791 185.812 137.891 185.796C137.99 185.776 138.066 185.761 138.119 185.751L138.453 187.327C138.346 187.36 138.197 187.398 138.005 187.441C137.813 187.488 137.579 187.516 137.304 187.526C136.794 187.546 136.346 187.478 135.962 187.322C135.581 187.166 135.284 186.924 135.072 186.596C134.86 186.268 134.755 185.854 134.759 185.353L134.758 177.956Z" fill="#A4A4A4"/>
<rect width="42.63" height="35.8639" rx="5.52002" transform="matrix(0.967827 0.251701 -0.266193 0.963944 115.865 14.5332)" fill="#8C6C34"/>
<path d="M148.954 54.6888C150.461 49.4324 153.822 37.3385 155.493 30.7816C156.551 26.6293 153.952 25.1375 153.362 24.6345L151.561 31.1576L145.167 54.3135C144.839 55.0586 143.946 56.0931 141.049 55.3617L107.778 46.7088C108.339 48.6685 110.015 49.8895 111.081 50.3425L142.035 58.3928C144.991 59.1614 147.231 57.7227 148.464 55.826C148.692 55.4761 148.84 55.0882 148.954 54.6888Z" fill="#875603"/>
<path d="M134.731 29.3202C137.334 30.003 138.869 32.6615 138.158 35.2575C137.683 36.9916 136.325 38.258 134.701 38.705L133.295 46.4285L127.234 44.839L129.962 37.463C128.783 36.2809 128.255 34.5194 128.73 32.7849C129.441 30.1889 132.127 28.6374 134.731 29.3202Z" fill="#8C7D60"/>
<path d="M133.711 29.0489C136.315 29.7318 137.849 32.3901 137.138 34.9863C136.663 36.7205 135.306 37.9856 133.682 38.4328L132.276 46.1565L126.215 44.5668L128.943 37.192C127.764 36.0097 127.234 34.2484 127.709 32.5134C128.42 29.9173 131.107 28.3662 133.711 29.0489Z" fill="#83541E"/>
<path d="M114.367 34.4722C114.151 35.2549 113.553 35.6587 113.281 35.7628C112.565 35.7165 112.633 34.3707 112.756 33.7036L116.553 19.9535C117.139 17.8336 118.033 17.5858 118.894 17.4187C120.05 17.1943 123.871 18.536 126.082 19.111C125.13 19.0382 122.21 19.1392 120.606 19.1414C119.001 19.1435 118.389 19.9076 118.179 20.6686L114.367 34.4722Z" fill="#8C7D60"/>
<path d="M134.051 29.1368C136.654 29.8197 138.188 32.4772 137.477 35.073C137.002 36.8076 135.645 38.0734 134.02 38.5202L132.613 46.2486L126.552 44.6592L129.282 37.2787C128.103 36.0965 127.574 34.335 128.049 32.6004C128.76 30.0046 131.448 28.4541 134.051 29.1368Z" fill="#281C0B"/>
<path d="M149.184 24.2114C150.203 20.555 149.807 16.6884 148.084 13.4624C146.361 10.2364 143.453 7.91511 139.998 7.00926C136.544 6.10341 132.826 6.68718 129.664 8.63214C126.501 10.5771 124.152 13.7239 123.134 17.3804" stroke="#676D7C" stroke-width="3.41402"/>
<path d="M124.751 11.8646C124.628 12.0019 124.568 12.1776 124.592 12.3582C124.616 12.5385 124.721 12.7088 124.879 12.8267C125.036 12.9446 125.23 12.9989 125.412 12.9727C125.595 12.9467 125.75 12.8424 125.85 12.6877C125.939 12.5522 126.019 12.4207 126.097 12.2909C127.304 10.003 129.267 8.24794 131.531 6.84429C131.654 6.76722 131.78 6.68988 131.909 6.6123C131.77 6.66946 131.633 6.72655 131.5 6.78357C129.07 7.80189 126.662 9.35263 125.023 11.5502C124.93 11.6616 124.84 11.768 124.751 11.8646Z" fill="#7B808B"/>
<path d="M121.689 16.1651L125.056 17.0383L124.813 17.8261L121.448 16.9469L121.689 16.1651Z" fill="#49586F"/>
<path d="M147.497 23.7707L147.741 22.7942C148.323 22.947 149.015 23.1114 149.517 23.1678C149.963 23.2179 150.231 22.8662 150.3 22.4247C152.044 11.4198 142.404 5.77274 138.288 5.03064C144.055 5.83462 146.809 8.66613 148.834 11.3061C152.154 15.6343 151.872 21.1863 150.901 24.6715L147.497 23.7707Z" fill="#49586F"/>
<defs>
<filter id="filter0_d_304_2552" x="0.286621" y="44.4219" width="154" height="114" filterUnits="userSpaceOnUse" color-interpolation-filters="sRGB">
<feFlood flood-opacity="0" result="BackgroundImageFix"/>
<feColorMatrix in="SourceAlpha" type="matrix" values="0 0 0 0 0 0 0 0 0 0 0 0 0 0 0 0 0 0 127 0" result="hardAlpha"/>
<feOffset dy="-2"/>
<feGaussianBlur stdDeviation="6"/>
<feComposite in2="hardAlpha" operator="out"/>
<feColorMatrix type="matrix" values="0 0 0 0 0.0923839 0 0 0 0 0.169424 0 0 0 0 0.250995 0 0 0 0.15 0"/>
<feBlend mode="normal" in2="BackgroundImageFix" result="effect1_dropShadow_304_2552"/>
<feBlend mode="normal" in="SourceGraphic" in2="effect1_dropShadow_304_2552" result="shape"/>
</filter>
<linearGradient id="paint0_linear_304_2552" x1="77.2866" y1="58.4219" x2="77.2866" y2="148.422" gradientUnits="userSpaceOnUse">
<stop stop-color="#B2BBBF"/>
<stop offset="1" stop-color="#657076"/>
</linearGradient>
</defs>
</svg>
