<svg width="155" height="162" viewBox="0 0 155 162" fill="none" xmlns="http://www.w3.org/2000/svg">
<rect x="12.1377" width="130" height="120" rx="8" fill="#657076"/>
<rect x="29.3008" y="32.3496" width="45.5283" height="45.5283" transform="rotate(-23.642 29.3008 32.3496)" fill="white"/>
<path d="M61.0471 44.612L79.2657 36.6365L87.2407 54.8543L69.0222 62.8297L61.0471 44.612ZM40.8298 53.4623L59.0484 45.4869L67.0234 63.7047L48.8048 71.6801L40.8298 53.4623ZM52.1964 24.3937L70.4149 16.4183L78.39 34.6361L60.1714 42.6115L52.1964 24.3937ZM31.979 33.2441L50.1976 25.2687L58.1726 43.4865L39.954 51.4619L31.979 33.2441Z" fill="#0078D4"/>
<path d="M80.8436 49.3519C82.6237 48.2371 84.0707 46.2722 86.3658 47.3469C89.1637 48.6624 89.4965 52.9643 89.8529 55.7569C90.4431 59.8278 94.944 65.3187 90.0459 68.5174C85.5973 71.4224 81.5766 65.7653 77.9997 64.1305C76.4228 63.4095 73.898 62.8187 73.061 61.1103C72.3006 60.2123 72.3543 58.957 73.9284 56.8072C74.8765 55.4178 74.3272 52.7538 75.5541 51.49C75.5571 51.4868 75.56 51.4835 75.563 51.4803C75.67 51.3082 75.7937 51.1432 75.9383 50.9879C77.4756 49.3023 79.1932 50.3129 80.8436 49.3519Z" fill="white"/>
<path d="M113.31 56.2948C111.797 54.8127 110.781 52.5559 108.32 53.1403C105.318 53.8581 104.119 58.0615 103.204 60.7605C101.8 64.6801 96.2852 69.1868 100.423 73.3954C104.181 77.2178 109.26 72.4449 113.088 71.5739C115 71.1387 118.068 71.1263 118.913 68.9263C119.639 67.0347 118.197 65.474 118.175 63.6431C118.156 62.0831 118.616 60.3725 117.772 58.9522C116.612 56.9546 114.728 57.5965 113.31 56.2948Z" fill="white"/>
<path d="M109.378 18.2125C111.878 18.7179 113.663 19.6601 114.849 20.9653C116.039 22.2761 116.535 23.8537 116.643 25.4543C116.8 27.7854 116.13 30.3213 115.481 32.4277L114.871 34.3677C114.809 34.5697 114.749 34.763 114.692 34.9494C113.918 37.5103 114.733 39.661 115.76 42.2726L116.037 42.9839C116.27 43.5863 116.502 44.2117 116.706 44.8577L116.825 45.2476L116.826 45.2488C116.83 45.2648 116.835 45.2809 116.84 45.2955C116.843 45.3079 116.846 45.3197 116.85 45.3309C118.509 50.2075 119.729 57.562 113.766 62.5823C112.608 64.4045 111.201 66.0102 109.581 67.2086L109.576 67.2122C106.688 69.3216 104.254 70.0387 102.121 69.9986C100.021 69.959 98.3353 69.1793 97.0233 68.5809C96.1949 68.2032 95.5759 67.9262 95.0107 67.8128L94.9876 67.8082C93.9034 67.5651 92.9987 67.4872 92.1674 67.417C91.3916 67.3514 90.5871 67.2883 89.8422 67.0486C89.0483 66.7932 88.344 66.3495 87.6895 65.5815C86.4612 64.1403 85.3898 61.5168 83.9817 56.7715L83.9021 56.5016C83.7458 55.918 83.6672 55.2541 83.6501 54.5458C82.1741 51.2914 82.9032 48.0668 84.4972 45.2742C86.1079 42.4525 88.6546 39.958 90.9688 38.065C91.4454 37.6353 91.9478 37.2312 92.4752 36.8558L92.4818 36.8506L92.4881 36.8463C94.088 35.7448 95.1416 34.7676 95.9121 33.768C96.6762 32.7767 97.1955 31.7199 97.6785 30.4081C97.8333 29.9528 97.9808 29.3081 98.1684 28.476L98.3506 27.6738C98.8041 25.716 99.478 23.2022 100.864 21.2423C101.672 20.0985 102.745 19.1081 104.182 18.5248C105.62 17.9412 107.338 17.8002 109.378 18.2125Z" fill="black" stroke="white" stroke-width="2"/>
<path d="M113.048 25.2526C112.261 27.6223 109.072 28.9588 105.925 28.26C102.777 27.5612 100.885 25.0445 101.672 22.6748C102.459 20.305 105.648 18.9686 108.795 19.6674C111.938 20.3837 113.835 22.8828 113.048 25.2526Z" fill="url(#paint0_linear_204_1928)"/>
<path fill-rule="evenodd" clip-rule="evenodd" d="M105.741 29.4588C105.384 30.7678 105.664 32.0525 106.367 32.7991C103.665 31.7548 99.9349 31.7627 99.3809 33.6529C98.401 36.838 95.4281 40.2954 93.288 42.784C92.8666 43.2743 92.4774 43.727 92.142 44.1324C90.7613 45.864 89.6625 47.8251 89.0017 49.8684C87.7178 46.3586 90.3559 43.0912 91.6637 41.7201C93.3972 39.9194 93.4534 39.6485 92.8759 40.0212C90.408 42.3164 85.6585 46.9865 88.5816 51.4569C88.2676 52.9864 88.2129 54.5402 88.4795 56.0599C90.6624 67.9476 101.698 66.5041 106.504 62.0516C107.158 61.4099 107.722 60.7696 108.207 60.1336C108.34 60.2804 108.49 60.4078 108.659 60.512C110.143 61.4517 113.096 60.3506 114.005 59.3993C115.14 58.1157 114.72 56.8951 112.683 55C112.578 54.9055 112.474 54.8148 112.37 54.7284C114.402 51.1899 113.034 46.5068 111.721 44.309C111.409 44.13 111.306 44.3043 111.678 44.9683C112.5 46.3687 113.851 50.9063 111.47 54.0807C111.267 53.9589 111.067 53.8567 110.872 53.7759C111.173 51.2287 110.631 49.0234 110.252 47.4822C110.166 47.1331 110.089 46.8181 110.032 46.5408C109.916 45.9815 109.755 45.3904 109.584 44.7635C108.926 42.3479 108.124 39.401 109.211 35.6903C109.258 34.8184 108.635 34.0486 107.682 33.4478C108.961 33.556 110.276 32.4269 110.734 30.7467C111.228 28.9366 110.504 27.1736 109.127 26.8148C107.751 26.4559 106.217 27.6439 105.741 29.4588ZM106.75 30.1855C106.441 31.177 106.684 32.1186 107.316 32.3008C107.93 32.478 108.695 31.8268 108.999 30.8529C109.308 29.8617 109.066 28.9199 108.434 28.7378C107.802 28.5556 107.054 29.2119 106.75 30.1855Z" fill="url(#paint1_linear_204_1928)"/>
<path fill-rule="evenodd" clip-rule="evenodd" d="M101.506 31.2705C102.512 31.5036 103.613 30.3997 103.984 28.8197C104.354 27.2395 103.837 25.7826 102.831 25.5494C101.825 25.3163 100.723 26.4203 100.353 28.0004C99.9825 29.5803 100.5 31.0373 101.506 31.2705ZM102.8 29.0658C102.645 29.912 102.133 30.5224 101.668 30.4645C101.209 30.3889 100.961 29.6541 101.117 28.808C101.272 27.962 101.784 27.3515 102.249 27.4096C102.708 27.4851 102.956 28.2199 102.8 29.0658Z" fill="url(#paint2_linear_204_1928)"/>
<path d="M107.171 29.6996C106.955 30.244 107.079 30.7724 107.427 30.9107C107.775 31.049 108.245 30.7104 108.455 30.1835C108.67 29.639 108.547 29.1107 108.199 28.9724C107.85 28.834 107.381 29.1725 107.171 29.6996Z" fill="url(#paint3_linear_204_1928)"/>
<path d="M102.553 28.524C102.471 28.9932 102.165 29.341 101.882 29.2972C101.598 29.2533 101.444 28.8299 101.531 28.3434C101.613 27.8742 101.919 27.5263 102.203 27.5702C102.486 27.614 102.634 28.0548 102.553 28.524Z" fill="url(#paint4_linear_204_1928)"/>
<path d="M107.711 49.7757C106.81 52.8516 102.755 56.0045 97.8129 54.542C92.696 53.105 91.6953 48.4949 92.5968 45.419C93.4984 42.3431 97.6124 40.8184 101.78 42.0196C105.959 43.2434 108.613 46.6998 107.711 49.7757Z" fill="url(#paint5_linear_204_1928)"/>
<path d="M107.847 39.3382C106.864 42.5044 104.611 42.6699 102.049 41.9314C99.4874 41.193 97.7641 40.1845 98.5564 36.6602C99.1916 34.4931 101.644 33.8351 104.206 34.5735C106.773 35.2945 108.487 37.1536 107.847 39.3382Z" fill="url(#paint6_linear_204_1928)"/>
<path d="M90.9225 39.7605C93.3597 37.6391 98.0678 34.6557 91.4248 40.5118C86.0042 45.3558 87.2155 49.8179 88.1036 51.211C90.6312 55.3514 89.8748 57.4267 87.6459 54.9835C82.8622 49.757 85.8267 44.1294 90.9225 39.7605Z" fill="url(#paint7_linear_204_1928)"/>
<path d="M114.844 47.8195C114.289 44.3427 111.952 35.2537 115.594 46.0834C118.923 55.8942 113.245 60.4174 112.363 60.77C111.482 61.1225 108.741 61.5642 110.02 59.7913C111.316 58.0231 115.965 55.307 114.844 47.8195Z" fill="url(#paint8_linear_204_1928)"/>
<path d="M109.083 71.2704C112.903 68.6 118.927 71.1132 116.124 65.131C115.538 63.844 116.457 61.7205 115.641 60.4617C114.698 58.939 113.004 59.4741 111.88 58.5057C110.772 57.485 109.769 55.8503 107.925 56.2664C106.075 56.6999 105.228 58.9577 104.183 61.9544C103.406 64.0995 100.389 67.191 100.841 69.5012C101.432 73.0453 105.466 73.7532 109.083 71.2704Z" fill="url(#paint9_linear_204_1928)"/>
<path fill-rule="evenodd" clip-rule="evenodd" d="M113.986 58.6773C114.71 58.8655 115.555 59.163 116.151 60.1208C116.9 61.2827 116.492 62.7094 116.521 64.0109C116.556 65.5521 117.892 66.8118 117.312 68.4404C116.365 71.1025 111.415 70.3827 109.417 71.7797C107.506 73.0913 105.427 73.601 103.698 73.2522C101.076 72.7232 99.5828 69.9929 100.491 67.4468C101.227 65.3856 102.87 63.7939 103.611 61.7528C104.129 60.2689 104.62 58.8966 105.229 57.8428C105.844 56.7777 106.636 55.9364 107.796 55.6644C110.331 55.0927 111.738 58.0916 113.986 58.6773ZM108.047 56.8693C107.359 57.0313 106.804 57.5354 106.272 58.4558C105.734 59.3874 105.277 60.6482 104.75 62.1596C104.009 64.2062 102.365 65.796 101.631 67.8516C100.977 69.6846 101.98 71.6416 103.953 72.0397C105.293 72.31 107.04 71.9314 108.746 70.7613C110.277 69.6921 115.542 69.807 116.172 68.0369C116.583 66.881 115.337 65.3262 115.308 64.0602C115.286 63.0693 115.683 61.6587 115.131 60.8083C114.784 60.2475 114.306 60.0413 113.667 59.8749C111.816 59.3925 110.027 56.4249 108.047 56.8693Z" fill="#E68C3F"/>
<path d="M109.232 66.2702C115.491 60.9667 112.248 60.0886 111.303 59.2667C110.364 58.4275 109.522 57.0665 108.031 57.4139C106.535 57.7786 105.913 59.6464 105.152 62.1184C104.578 63.8864 102.251 66.4565 102.635 68.3677C103.125 70.613 106.512 68.5375 109.232 66.2702Z" fill="url(#paint10_linear_204_1928)"/>
<path d="M82.2781 64.583C79.0621 61.4005 72.7842 62.2823 76.449 57.2355C77.2328 56.0779 76.7886 53.8651 77.8013 52.8111C79.0155 51.5121 80.5748 52.3217 81.8625 51.5936C83.1432 50.8257 84.2908 49.1854 86.0364 49.9915C87.7647 50.793 88.3114 53.4146 88.7555 56.5751C89.1109 58.8384 91.5993 62.6071 90.7215 64.7802C89.4442 68.1268 85.4462 67.6757 82.2781 64.583Z" fill="url(#paint11_linear_204_1928)"/>
<path fill-rule="evenodd" clip-rule="evenodd" d="M82.1628 52.1229C80.9387 52.857 79.3006 52.1241 78.2305 53.2377C77.5433 53.9528 77.6452 55.3857 77.4398 56.3266C77.186 57.4891 75.7539 58.8269 75.9571 59.9406C76.1853 61.1914 78.7045 61.7638 79.7477 62.2347C82.323 63.3964 85.7624 68.1045 88.9954 66.0702C92.1559 64.0816 88.5792 59.3809 88.1552 56.681C87.8992 54.8583 87.7147 51.4524 85.7767 50.5532C84.4097 49.9218 83.2484 51.4719 82.1628 52.1229ZM86.2944 49.4266C88.7077 50.5458 89.0265 54.1378 89.3545 56.4706C89.8933 59.8717 93.8023 64.4873 89.6207 67.1185C85.8229 69.5083 82.3253 64.7575 79.2405 63.3659C77.6999 62.6706 75.114 62.1057 74.7639 60.186C74.4627 58.5357 75.9353 57.5441 76.2554 56.0779C76.528 54.8286 76.4214 53.372 77.3671 52.3842C78.6742 50.9895 80.1572 51.8458 81.5671 51.0567C83.0873 50.1403 84.3148 48.5121 86.2944 49.4266Z" fill="#E68C3F"/>
<path d="M82.7578 59.6631C77.5281 53.4932 80.9983 52.9013 82.1717 52.5001C83.6063 51.966 84.115 50.2932 85.5207 50.8688C86.926 51.4446 87.2421 53.5258 87.5497 56.0786C87.7906 57.9106 89.649 60.7965 88.9129 62.6122C88.0284 64.7456 85.0207 62.3055 82.7578 59.6631Z" fill="url(#paint12_linear_204_1928)"/>
<path d="M113.646 59.2372C112.867 59.9984 110.363 60.8307 109.093 60.0475C107.783 59.272 107.733 57.0401 108.474 55.5858C109.243 53.9119 110.788 54.2627 112.445 55.688C114.201 57.2175 114.597 58.2037 113.646 59.2372Z" fill="black"/>
<path d="M112.392 58.3229C111.883 58.8584 110.225 59.4607 109.345 58.9229C108.466 58.385 108.403 56.8317 108.869 55.8098C109.359 54.6433 110.404 54.8688 111.528 55.8372C112.734 56.9049 113.014 57.5922 112.392 58.3229Z" fill="url(#paint13_linear_204_1928)"/>
<path d="M101.416 30.436C102.289 29.9861 104.524 28.4888 107.062 31.4569C107.53 32.0087 107.998 32.1815 108.965 32.9909C110.926 34.5796 109.201 36.5461 106.584 36.6261C105.462 36.6627 104.166 37.6727 102.358 37.0188C100.795 36.4736 100.698 35.2893 99.893 34.4319C98.4602 32.9386 98.5984 31.5189 99.7478 31.0732C100.897 30.6275 101.333 30.4687 101.416 30.436Z" fill="url(#paint14_linear_204_1928)"/>
<path fill-rule="evenodd" clip-rule="evenodd" d="M99.8721 31.4166C99.435 31.5861 99.2152 31.9154 99.2159 32.35C99.2172 33.2427 100.634 34.8784 101.141 35.625C101.43 36.0496 101.792 36.4247 102.484 36.6663C103.962 37.2006 105.134 36.2999 106.579 36.2526C107.53 36.2235 109.68 35.6859 109.43 34.2874C109.216 33.0938 107.486 32.525 106.785 31.6993C105.577 30.287 104.486 29.9801 103.63 30.0318C102.692 30.0885 100.814 31.0511 99.8721 31.4166ZM103.599 29.2916C104.713 29.2244 106.01 29.6539 107.339 31.2088C108.211 32.2371 109.878 32.6426 110.146 34.1426C110.488 36.0533 108.04 36.9494 106.589 36.9938C105.035 37.045 103.903 37.9696 102.232 37.3662C101.363 37.0624 100.892 36.5716 100.54 36.0539C99.8103 34.9796 98.4045 33.7534 98.4026 32.383C98.4015 31.6229 98.9105 31.0004 99.6229 30.724C100.774 30.2775 102.421 29.3629 103.599 29.2916Z" fill="#E68C3F"/>
<path fill-rule="evenodd" clip-rule="evenodd" d="M108.801 34.534C108.77 34.6672 108.639 34.7511 108.509 34.7212C106.672 34.301 104.806 35.9666 102.764 35.3782C101.622 35.049 100.877 34.2455 100.384 33.537C100.284 33.3945 99.3905 32.1903 99.4556 31.9679C99.4942 31.8364 99.6294 31.7599 99.758 31.7969C99.9981 31.8661 100.496 32.8495 100.701 33.145C101.166 33.8123 101.911 34.6163 102.904 34.9024C104.925 35.4849 106.759 33.8128 108.622 34.2387C108.753 34.2685 108.833 34.4007 108.801 34.534Z" fill="#E68C3F"/>
<path d="M102.53 30.5641C102.964 30.348 104.291 29.8017 105.452 31.0842C105.708 31.3474 105.959 31.6283 106.327 32.0185C107.073 32.8213 106.398 33.4796 105.162 33.6539C104.605 33.721 103.652 33.939 103.048 33.7269C102.385 33.4601 102.057 32.8726 101.7 32.4475C101.027 31.6472 101.217 31.1901 101.717 30.9363C102.089 30.7404 102.491 30.5717 102.53 30.5641Z" fill="url(#paint15_linear_204_1928)"/>
<g filter="url(#filter0_d_204_1928)">
<path d="M64.8727 50H20.1377C15.7194 50 12.1377 53.5817 12.1377 58V85L12.1377 112C12.1377 116.418 15.7194 120 20.1377 120H134.138C138.556 120 142.138 116.418 142.138 112V70.494C142.138 66.0757 138.556 62.494 134.138 62.494H88.8123C87.2625 62.494 85.7461 62.0439 84.4473 61.1983L69.2376 51.2957C67.9389 50.4501 66.4224 50 64.8727 50Z" fill="url(#paint16_linear_204_1928)"/>
</g>
<path d="M30.423 131.821L30.4234 142.003L28.2707 142.003L28.2703 131.822L30.423 131.821ZM31.8064 133.596L31.8064 131.821L40.1686 131.821L40.1686 133.596L37.0515 133.596L37.0517 142.003L34.9239 142.003L34.9236 133.596L31.8064 133.596ZM45.553 136.981L45.553 138.662L40.9096 138.662L40.9095 136.982L45.553 136.981ZM53.7114 136.544L51.7724 136.663C51.7393 136.497 51.668 136.348 51.5586 136.216C51.4493 136.08 51.3051 135.972 51.1261 135.893C50.9504 135.81 50.74 135.768 50.4947 135.768C50.1666 135.768 49.8898 135.838 49.6645 135.977C49.4391 136.113 49.3264 136.295 49.3264 136.524C49.3264 136.706 49.3993 136.86 49.5452 136.986C49.691 137.112 49.9413 137.213 50.2959 137.29L51.678 137.568C52.4204 137.72 52.974 137.966 53.3385 138.304C53.7031 138.642 53.8854 139.086 53.8855 139.636C53.8855 140.137 53.738 140.576 53.443 140.954C53.1514 141.331 52.7504 141.626 52.2399 141.839C51.7328 142.047 51.1479 142.152 50.485 142.152C49.4741 142.152 48.6687 141.941 48.0688 141.52C47.4722 141.096 47.1225 140.52 47.0197 139.79L49.1028 139.681C49.1658 139.989 49.3183 140.224 49.5602 140.387C49.8022 140.546 50.1121 140.626 50.4899 140.625C50.8611 140.625 51.1594 140.554 51.3848 140.412C51.6135 140.266 51.7295 140.079 51.7328 139.85C51.7295 139.658 51.6482 139.5 51.4892 139.378C51.3301 139.252 51.0848 139.156 50.7533 139.089L49.4309 138.826C48.6851 138.677 48.13 138.418 47.7654 138.05C47.4041 137.682 47.2235 137.213 47.2234 136.643C47.2234 136.153 47.356 135.73 47.6211 135.376C47.8896 135.021 48.2657 134.747 48.7496 134.555C49.2369 134.363 49.8069 134.267 50.4599 134.267C51.4243 134.267 52.1834 134.471 52.7369 134.878C53.2937 135.286 53.6185 135.841 53.7114 136.544ZM60.1161 138.751L60.1159 134.366L62.2338 134.366L62.2341 142.002L60.2007 142.002L60.2007 140.615L60.1211 140.615C59.9488 141.063 59.6621 141.422 59.2611 141.694C58.8633 141.966 58.3778 142.102 57.8044 142.102C57.294 142.102 56.8449 141.986 56.4571 141.754C56.0693 141.522 55.766 141.192 55.5473 140.765C55.3318 140.337 55.2224 139.825 55.2191 139.228L55.2189 134.366L57.3368 134.366L57.337 138.85C57.3403 139.301 57.4613 139.657 57.6999 139.919C57.9386 140.181 58.2584 140.312 58.6595 140.312C58.9147 140.312 59.1533 140.254 59.3754 140.138C59.5974 140.019 59.7764 139.843 59.9123 139.611C60.0515 139.379 60.1194 139.092 60.1161 138.751ZM57.2224 133.322C56.9374 133.322 56.6921 133.223 56.4866 133.024C56.2811 132.822 56.1784 132.583 56.1784 132.308C56.1784 132.026 56.2811 131.787 56.4866 131.592C56.6921 131.396 56.9373 131.299 57.2224 131.299C57.5107 131.299 57.7543 131.396 57.9532 131.592C58.1554 131.787 58.2565 132.026 58.2565 132.308C58.2565 132.583 58.1554 132.821 57.9532 133.024C57.7544 133.223 57.5108 133.322 57.2224 133.322ZM60.265 133.322C59.98 133.322 59.7347 133.222 59.5292 133.024C59.3237 132.821 59.221 132.583 59.221 132.308C59.221 132.026 59.3237 131.787 59.5292 131.592C59.7347 131.396 59.9799 131.298 60.265 131.298C60.5533 131.298 60.7969 131.396 60.9958 131.592C61.198 131.787 61.2991 132.026 61.2991 132.308C61.2991 132.583 61.198 132.821 60.9959 133.024C60.797 133.222 60.5534 133.322 60.265 133.322ZM70.2817 136.543L68.3428 136.663C68.3096 136.497 68.2383 136.348 68.129 136.215C68.0196 136.079 67.8754 135.972 67.6964 135.892C67.5208 135.809 67.3103 135.768 67.065 135.768C66.7369 135.768 66.4601 135.837 66.2348 135.977C66.0094 136.112 65.8967 136.295 65.8967 136.523C65.8967 136.706 65.9697 136.86 66.1155 136.986C66.2613 137.112 66.5116 137.213 66.8662 137.289L68.2483 137.567C68.9908 137.72 69.5443 137.965 69.9089 138.303C70.2735 138.641 70.4558 139.085 70.4558 139.635C70.4558 140.136 70.3083 140.575 70.0134 140.953C69.7217 141.331 69.3207 141.626 68.8103 141.838C68.3032 142.047 67.7182 142.151 67.0553 142.151C66.0444 142.151 65.239 141.941 64.6391 141.52C64.0425 141.096 63.6928 140.519 63.59 139.79L65.6731 139.68C65.7361 139.989 65.8886 140.224 66.1305 140.386C66.3725 140.545 66.6824 140.625 67.0602 140.625C67.4314 140.625 67.7297 140.554 67.9551 140.411C68.1838 140.265 68.2998 140.078 68.3031 139.849C68.2998 139.657 68.2186 139.5 68.0595 139.377C67.9004 139.251 67.6551 139.155 67.3237 139.089L66.0012 138.825C65.2555 138.676 64.7003 138.418 64.3357 138.05C63.9744 137.682 63.7938 137.213 63.7937 136.643C63.7937 136.152 63.9263 135.73 64.1914 135.375C64.4599 135.02 64.8361 134.747 65.32 134.555C65.8072 134.362 66.3772 134.266 67.0302 134.266C67.9947 134.266 68.7537 134.47 69.3072 134.878C69.864 135.285 70.1888 135.841 70.2817 136.543ZM75.851 134.365L75.8511 135.956L71.2524 135.956L71.2523 134.366L75.851 134.365ZM72.2963 132.536L74.4142 132.536L74.4144 139.655C74.4144 139.851 74.4442 140.003 74.5039 140.113C74.5636 140.219 74.6464 140.293 74.7525 140.336C74.8619 140.379 74.9878 140.401 75.1303 140.401C75.2298 140.401 75.3292 140.393 75.4286 140.376C75.5281 140.356 75.6043 140.341 75.6573 140.331L75.9905 141.907C75.8844 141.94 75.7353 141.979 75.543 142.022C75.3508 142.068 75.1171 142.096 74.842 142.106C74.3316 142.126 73.8842 142.058 73.4997 141.902C73.1185 141.747 72.8219 141.505 72.6098 141.177C72.3976 140.848 72.2932 140.434 72.2965 139.934L72.2963 132.536ZM80.629 142.151C79.8435 142.151 79.1673 141.992 78.6006 141.674C78.0371 141.352 77.6029 140.898 77.298 140.311C76.993 139.721 76.8405 139.024 76.8405 138.218C76.8405 137.433 76.9929 136.743 77.2978 136.15C77.6027 135.557 78.0319 135.095 78.5854 134.763C79.1422 134.432 79.7951 134.266 80.5442 134.266C81.048 134.266 81.517 134.347 81.9512 134.509C82.3887 134.668 82.7698 134.909 83.0947 135.23C83.4228 135.552 83.678 135.956 83.8603 136.443C84.0426 136.927 84.1338 137.494 84.1338 138.144L84.1338 138.725L77.6857 138.725L77.6856 137.413L82.1402 137.413C82.1402 137.108 82.0739 136.838 81.9413 136.602C81.8087 136.367 81.6248 136.183 81.3894 136.051C81.1574 135.915 80.8873 135.847 80.5791 135.847C80.2576 135.847 79.9725 135.921 79.7239 136.071C79.4787 136.216 79.2865 136.414 79.1473 136.662C79.0081 136.907 78.9368 137.181 78.9335 137.482L78.9336 138.73C78.9336 139.108 79.0032 139.435 79.1424 139.71C79.2849 139.985 79.4854 140.197 79.744 140.346C80.0025 140.495 80.3091 140.57 80.6637 140.57C80.8991 140.57 81.1145 140.537 81.31 140.47C81.5056 140.404 81.673 140.305 81.8122 140.172C81.9514 140.039 82.0574 139.877 82.1303 139.685L84.0891 139.814C83.9897 140.285 83.7859 140.696 83.4777 141.047C83.1728 141.395 82.7783 141.667 82.2945 141.862C81.8139 142.055 81.2587 142.151 80.629 142.151ZM88.9962 142.15C88.2107 142.151 87.5345 141.991 86.9677 141.673C86.4043 141.352 85.9701 140.898 85.6651 140.311C85.3602 139.721 85.2077 139.023 85.2077 138.218C85.2077 137.433 85.3601 136.743 85.665 136.15C85.9699 135.557 86.3991 135.094 86.9526 134.763C87.5094 134.431 88.1623 134.266 88.9114 134.266C89.4152 134.266 89.8842 134.347 90.3184 134.509C90.7559 134.668 91.137 134.908 91.4618 135.23C91.79 135.551 92.0452 135.956 92.2275 136.443C92.4098 136.927 92.501 137.494 92.501 138.143L92.501 138.725L86.0529 138.725L86.0528 137.413L90.5074 137.413C90.5074 137.108 90.4411 136.837 90.3085 136.602C90.1759 136.367 89.9919 136.183 89.7566 136.05C89.5246 135.914 89.2545 135.846 88.9462 135.847C88.6247 135.847 88.3397 135.921 88.0911 136.07C87.8459 136.216 87.6536 136.413 87.5144 136.662C87.3753 136.907 87.304 137.181 87.3007 137.482L87.3007 138.73C87.3008 139.108 87.3704 139.434 87.5096 139.709C87.6521 139.985 87.8526 140.197 88.1112 140.346C88.3697 140.495 88.6763 140.57 89.0309 140.57C89.2662 140.57 89.4817 140.536 89.6772 140.47C89.8728 140.404 90.0401 140.304 90.1793 140.172C90.3185 140.039 90.4246 139.877 90.4975 139.685L92.4563 139.814C92.3569 140.284 92.1531 140.695 91.8449 141.047C91.5399 141.395 91.1455 141.667 90.6616 141.862C90.1811 142.054 89.6259 142.15 88.9962 142.15ZM93.8832 142.001L93.883 134.365L95.9014 134.365L95.9015 135.712L95.991 135.712C96.1501 135.265 96.4152 134.912 96.7864 134.653C97.1576 134.395 97.6017 134.265 98.1188 134.265C98.6424 134.265 99.0882 134.396 99.4561 134.658C99.8241 134.916 100.069 135.268 100.192 135.712L100.272 135.712C100.427 135.274 100.709 134.925 101.117 134.663C101.528 134.398 102.013 134.265 102.573 134.265C103.286 134.265 103.864 134.492 104.308 134.946C104.756 135.397 104.98 136.037 104.98 136.865L104.98 142.001L102.867 142.001L102.867 137.283C102.867 136.859 102.754 136.54 102.529 136.328C102.303 136.116 102.022 136.01 101.683 136.01C101.299 136.01 100.999 136.133 100.784 136.378C100.568 136.62 100.46 136.94 100.46 137.338L100.461 142.001L98.4074 142.001L98.4072 137.238C98.4072 136.864 98.2995 136.565 98.084 136.343C97.8719 136.121 97.5918 136.01 97.2438 136.01C97.0085 136.01 96.7964 136.07 96.6075 136.189C96.4219 136.305 96.2744 136.469 96.165 136.681C96.0557 136.89 96.001 137.136 96.001 137.417L96.0011 142.001L93.8832 142.001ZM106.653 142.001L106.653 134.364L108.77 134.364L108.771 142.001L106.653 142.001ZM107.716 133.38C107.402 133.38 107.131 133.276 106.906 133.067C106.684 132.855 106.573 132.601 106.573 132.306C106.573 132.014 106.684 131.764 106.906 131.555C107.131 131.343 107.401 131.237 107.716 131.237C108.031 131.237 108.3 131.343 108.522 131.555C108.747 131.764 108.86 132.014 108.86 132.306C108.86 132.601 108.747 132.855 108.522 133.067C108.3 133.276 108.031 133.38 107.716 133.38ZM113.281 142.125C112.701 142.125 112.176 141.976 111.705 141.677C111.238 141.376 110.867 140.933 110.591 140.35C110.32 139.763 110.184 139.044 110.184 138.192C110.184 137.317 110.325 136.59 110.606 136.01C110.888 135.427 111.262 134.991 111.73 134.702C112.2 134.411 112.716 134.265 113.276 134.265C113.703 134.265 114.06 134.338 114.345 134.483C114.633 134.626 114.865 134.805 115.041 135.02C115.22 135.232 115.356 135.441 115.449 135.647L115.513 135.647L115.513 131.819L117.626 131.819L117.626 142L115.538 142L115.538 140.777L115.449 140.777C115.349 140.99 115.208 141.2 115.026 141.409C114.847 141.614 114.614 141.785 114.325 141.921C114.04 142.057 113.692 142.125 113.281 142.125ZM113.952 140.439C114.294 140.439 114.582 140.347 114.817 140.161C115.056 139.972 115.238 139.709 115.364 139.37C115.493 139.032 115.558 138.636 115.558 138.182C115.558 137.728 115.495 137.334 115.369 136.999C115.243 136.664 115.061 136.406 114.822 136.223C114.583 136.041 114.293 135.95 113.952 135.95C113.604 135.95 113.311 136.045 113.072 136.233C112.834 136.422 112.653 136.684 112.53 137.019C112.408 137.354 112.346 137.742 112.346 138.182C112.346 138.627 112.408 139.019 112.53 139.361C112.656 139.699 112.837 139.964 113.072 140.156C113.311 140.345 113.604 140.439 113.952 140.439ZM122.848 142.149C122.062 142.149 121.386 141.99 120.819 141.672C120.256 141.351 119.822 140.897 119.517 140.31C119.212 139.72 119.059 139.022 119.059 138.217C119.059 137.431 119.212 136.742 119.517 136.149C119.821 135.555 120.251 135.093 120.804 134.762C121.361 134.43 122.014 134.264 122.763 134.264C123.267 134.264 123.736 134.346 124.17 134.508C124.607 134.667 124.989 134.907 125.313 135.229C125.642 135.55 125.897 135.955 126.079 136.442C126.261 136.926 126.353 137.493 126.353 138.142L126.353 138.724L119.904 138.724L119.904 137.412L124.359 137.411C124.359 137.106 124.293 136.836 124.16 136.601C124.027 136.366 123.844 136.182 123.608 136.049C123.376 135.913 123.106 135.845 122.798 135.845C122.476 135.845 122.191 135.92 121.943 136.069C121.697 136.215 121.505 136.412 121.366 136.661C121.227 136.906 121.156 137.179 121.152 137.481L121.152 138.729C121.152 139.107 121.222 139.433 121.361 139.708C121.504 139.983 121.704 140.196 121.963 140.345C122.221 140.494 122.528 140.568 122.882 140.568C123.118 140.568 123.333 140.535 123.529 140.469C123.724 140.403 123.892 140.303 124.031 140.171C124.17 140.038 124.276 139.876 124.349 139.683L126.308 139.813C126.208 140.283 126.005 140.694 125.696 141.046C125.392 141.394 124.997 141.665 124.513 141.861C124.033 142.053 123.477 142.149 122.848 142.149ZM18.3248 154.589L18.3249 159.004L16.207 159.004L16.2068 151.367L18.2253 151.367L18.2253 152.715L18.3148 152.715C18.4838 152.271 18.7672 151.919 19.1649 151.661C19.5626 151.399 20.0449 151.268 20.6116 151.268C21.1419 151.268 21.6043 151.384 21.9987 151.616C22.3931 151.848 22.6997 152.179 22.9185 152.61C23.1372 153.038 23.2466 153.548 23.2467 154.141L23.2468 159.004L21.1289 159.004L21.1288 154.519C21.1321 154.052 21.0127 153.687 20.7708 153.425C20.5288 153.16 20.1957 153.028 19.7715 153.028C19.4864 153.028 19.2345 153.089 19.0158 153.212C18.8004 153.334 18.6313 153.513 18.5087 153.749C18.3894 153.981 18.3281 154.261 18.3248 154.589ZM28.3663 159.153C27.5941 159.153 26.9262 158.988 26.3628 158.66C25.8026 158.329 25.3701 157.868 25.0651 157.278C24.7602 156.685 24.6077 155.997 24.6077 155.215C24.6076 154.426 24.7601 153.737 25.065 153.147C25.3699 152.554 25.8024 152.093 26.3625 151.765C26.926 151.433 27.5938 151.268 28.3661 151.268C29.1383 151.268 29.8045 151.433 30.3647 151.765C30.9281 152.093 31.3623 152.553 31.6673 153.147C31.9722 153.737 32.1247 154.426 32.1247 155.215C32.1247 155.997 31.9723 156.685 31.6674 157.278C31.3625 157.868 30.9283 158.329 30.3649 158.66C29.8048 158.988 29.1386 159.152 28.3663 159.153ZM28.3762 157.512C28.7275 157.512 29.0209 157.412 29.2562 157.214C29.4915 157.011 29.6688 156.736 29.7881 156.388C29.9107 156.04 29.972 155.644 29.972 155.2C29.972 154.756 29.9107 154.36 29.788 154.012C29.6687 153.664 29.4914 153.389 29.256 153.187C29.0207 152.984 28.7274 152.883 28.3761 152.883C28.0214 152.883 27.7231 152.984 27.4812 153.187C27.2425 153.389 27.0619 153.664 26.9393 154.012C26.82 154.36 26.7603 154.756 26.7604 155.2C26.7604 155.644 26.8201 156.04 26.9394 156.388C27.062 156.736 27.2427 157.011 27.4813 157.214C27.7233 157.412 28.0216 157.512 28.3762 157.512ZM36.9523 159.152C36.18 159.152 35.5121 158.988 34.9487 158.66C34.3885 158.329 33.956 157.868 33.6511 157.278C33.3461 156.685 33.1936 155.997 33.1936 155.215C33.1936 154.426 33.346 153.737 33.6509 153.147C33.9558 152.553 34.3883 152.093 34.9485 151.765C35.5119 151.433 36.1797 151.267 36.952 151.267C37.7242 151.267 38.3904 151.433 38.9506 151.764C39.514 152.092 39.9482 152.553 40.2532 153.146C40.5581 153.736 40.7106 154.426 40.7106 155.215C40.7107 155.997 40.5582 156.685 40.2533 157.278C39.9484 157.868 39.5143 158.329 38.9508 158.66C38.3907 158.988 37.7245 159.152 36.9523 159.152ZM36.9621 157.512C37.3135 157.512 37.6068 157.412 37.8421 157.213C38.0774 157.011 38.2547 156.736 38.374 156.388C38.4967 156.04 38.558 155.644 38.558 155.2C38.5579 154.756 38.4966 154.36 38.374 154.012C38.2546 153.664 38.0773 153.388 37.842 153.186C37.6066 152.984 37.3133 152.883 36.962 152.883C36.6074 152.883 36.3091 152.984 36.0671 153.186C35.8285 153.389 35.6479 153.664 35.5252 154.012C35.4059 154.36 35.3463 154.756 35.3463 155.2C35.3463 155.644 35.406 156.04 35.5253 156.388C35.648 156.736 35.8286 157.011 36.0673 157.213C36.3092 157.412 36.6075 157.512 36.9621 157.512ZM42.0879 159.003L42.0877 151.367L44.1409 151.366L44.141 152.699L44.2205 152.699C44.3597 152.225 44.5933 151.867 44.9215 151.625C45.2496 151.38 45.6274 151.257 46.055 151.257C46.161 151.257 46.2754 151.264 46.398 151.277C46.5207 151.29 46.6284 151.308 46.7212 151.332L46.7212 153.211C46.6218 153.181 46.4843 153.155 46.3086 153.131C46.1329 153.108 45.9722 153.097 45.8263 153.097C45.5148 153.097 45.2364 153.164 44.9911 153.3C44.7492 153.433 44.557 153.619 44.4144 153.857C44.2752 154.096 44.2056 154.371 44.2057 154.683L44.2058 159.003L42.0879 159.003ZM50.9411 159.152C50.1556 159.152 49.4794 158.993 48.9126 158.675C48.3492 158.353 47.915 157.899 47.61 157.312C47.3051 156.722 47.1526 156.025 47.1526 155.219C47.1526 154.434 47.305 153.744 47.6099 153.151C47.9148 152.558 48.344 152.095 48.8975 151.764C49.4543 151.433 50.1072 151.267 50.8563 151.267C51.3601 151.267 51.8291 151.348 52.2633 151.51C52.7008 151.669 53.0819 151.91 53.4068 152.231C53.7349 152.553 53.9901 152.957 54.1724 153.444C54.3547 153.928 54.4459 154.495 54.4459 155.145L54.4459 155.726L47.9978 155.726L47.9977 154.414L52.4523 154.414C52.4523 154.109 52.386 153.839 52.2534 153.603C52.1208 153.368 51.9368 153.184 51.7015 153.052C51.4695 152.916 51.1994 152.848 50.8911 152.848C50.5696 152.848 50.2846 152.922 50.036 153.072C49.7908 153.217 49.5986 153.415 49.4594 153.663C49.3202 153.908 49.2489 154.182 49.2456 154.483L49.2456 155.731C49.2457 156.109 49.3153 156.436 49.4545 156.711C49.597 156.986 49.7975 157.198 50.0561 157.347C50.3146 157.496 50.6212 157.571 50.9758 157.571C51.2111 157.571 51.4266 157.538 51.6221 157.471C51.8177 157.405 51.985 157.306 52.1242 157.173C52.2634 157.04 52.3695 156.878 52.4424 156.686L54.4012 156.815C54.3018 157.286 54.098 157.697 53.7898 158.048C53.4848 158.396 53.0904 158.668 52.6065 158.863C52.126 159.056 51.5708 159.152 50.9411 159.152ZM55.8281 159.002L55.8279 151.366L57.8464 151.366L57.8464 152.713L57.9359 152.713C58.095 152.266 58.3601 151.913 58.7313 151.654C59.1025 151.396 59.5466 151.267 60.0637 151.267C60.5874 151.266 61.0331 151.397 61.401 151.659C61.769 151.918 62.0142 152.269 62.1369 152.713L62.2164 152.713C62.3722 152.276 62.6539 151.926 63.0616 151.664C63.4725 151.399 63.9581 151.266 64.5182 151.266C65.2308 151.266 65.8092 151.493 66.2533 151.947C66.7008 152.398 66.9245 153.038 66.9246 153.866L66.9247 159.002L64.8118 159.002L64.8116 154.284C64.8116 153.86 64.6989 153.542 64.4735 153.33C64.2482 153.117 63.9664 153.011 63.6284 153.011C63.2439 153.011 62.9439 153.134 62.7285 153.379C62.5131 153.621 62.4054 153.941 62.4054 154.339L62.4056 159.002L60.3523 159.002L60.3521 154.24C60.3521 153.865 60.2444 153.567 60.0289 153.345C59.8168 153.123 59.5367 153.012 59.1887 153.012C58.9534 153.012 58.7413 153.071 58.5524 153.191C58.3668 153.307 58.2193 153.471 58.1099 153.683C58.0006 153.892 57.9459 154.137 57.9459 154.419L57.946 159.002L55.8281 159.002ZM74.9512 153.543L73.0123 153.662C72.9791 153.497 72.9079 153.348 72.7985 153.215C72.6891 153.079 72.5449 152.971 72.3659 152.892C72.1903 152.809 71.9798 152.768 71.7345 152.768C71.4064 152.768 71.1297 152.837 70.9043 152.976C70.6789 153.112 70.5662 153.295 70.5662 153.523C70.5662 153.706 70.6392 153.86 70.785 153.986C70.9308 154.112 71.1811 154.213 71.5357 154.289L72.9178 154.567C73.6603 154.72 74.2138 154.965 74.5784 155.303C74.943 155.641 75.1253 156.085 75.1253 156.635C75.1253 157.136 74.9778 157.575 74.6829 157.953C74.3912 158.331 73.9902 158.626 73.4798 158.838C72.9727 159.047 72.3877 159.151 71.7248 159.151C70.7139 159.151 69.9085 158.941 69.3086 158.52C68.712 158.096 68.3623 157.519 68.2595 156.79L70.3426 156.68C70.4056 156.988 70.5581 157.224 70.8 157.386C71.042 157.545 71.3519 157.625 71.7297 157.625C72.1009 157.625 72.3992 157.554 72.6246 157.411C72.8533 157.265 72.9693 157.078 72.9726 156.849C72.9693 156.657 72.8881 156.5 72.729 156.377C72.5699 156.251 72.3246 156.155 71.9932 156.089L70.6707 155.825C69.925 155.676 69.3698 155.417 69.0052 155.05C68.6439 154.682 68.4633 154.213 68.4633 153.643C68.4632 153.152 68.5958 152.73 68.8609 152.375C69.1294 152.02 69.5056 151.747 69.9895 151.555C70.4767 151.362 71.0468 151.266 71.6997 151.266C72.6642 151.266 73.4232 151.47 73.9767 151.878C74.5335 152.285 74.8584 152.84 74.9512 153.543ZM76.4591 161.865L76.4587 151.365L78.5468 151.365L78.5469 152.648L78.6413 152.648C78.7341 152.442 78.8683 152.234 79.044 152.022C79.223 151.806 79.455 151.627 79.74 151.485C80.0283 151.339 80.3863 151.266 80.8139 151.266C81.3707 151.266 81.8844 151.412 82.3551 151.703C82.8257 151.992 83.2019 152.427 83.4837 153.011C83.7654 153.591 83.9063 154.318 83.9063 155.193C83.9063 156.045 83.7688 156.764 83.4937 157.351C83.222 157.934 82.8508 158.377 82.3802 158.678C81.9128 158.977 81.3892 159.126 80.8091 159.126C80.3982 159.126 80.0485 159.058 79.7601 158.922C79.4751 158.786 79.2414 158.616 79.0591 158.41C78.8768 158.201 78.7376 157.991 78.6415 157.779L78.5769 157.779L78.577 161.865L76.4591 161.865ZM78.532 155.184C78.532 155.638 78.595 156.034 78.721 156.372C78.8469 156.71 79.0292 156.973 79.2679 157.162C79.5065 157.348 79.7965 157.441 80.1379 157.441C80.4826 157.441 80.7743 157.346 81.0129 157.157C81.2515 156.965 81.4322 156.7 81.5548 156.362C81.6807 156.02 81.7437 155.628 81.7437 155.183C81.7437 154.743 81.6823 154.355 81.5597 154.02C81.437 153.685 81.2564 153.423 81.0178 153.235C80.7791 153.046 80.4858 152.951 80.1378 152.951C79.7931 152.951 79.5014 153.042 79.2628 153.225C79.0275 153.407 78.8468 153.666 78.7209 154C78.595 154.335 78.532 154.729 78.532 155.184ZM88.7985 159.15C88.013 159.151 87.3368 158.991 86.7701 158.673C86.2066 158.352 85.7724 157.898 85.4675 157.311C85.1625 156.721 85.01 156.023 85.01 155.218C85.01 154.433 85.1624 153.743 85.4673 153.15C85.7722 152.557 86.2014 152.094 86.7549 151.763C87.3117 151.431 87.9647 151.266 88.7137 151.266C89.2175 151.266 89.6865 151.347 90.1207 151.509C90.5582 151.668 90.9394 151.908 91.2642 152.23C91.5923 152.551 91.8475 152.956 92.0298 153.443C92.2121 153.927 92.3033 154.494 92.3033 155.143L92.3034 155.725L85.8552 155.725L85.8552 154.413L90.3097 154.413C90.3097 154.108 90.2434 153.837 90.1108 153.602C89.9782 153.367 89.7943 153.183 89.5589 153.05C89.3269 152.914 89.0568 152.847 88.7486 152.847C88.4271 152.847 88.142 152.921 87.8935 153.07C87.6482 153.216 87.456 153.413 87.3168 153.662C87.1776 153.907 87.1063 154.181 87.103 154.482L87.1031 155.73C87.1031 156.108 87.1727 156.434 87.3119 156.709C87.4544 156.985 87.655 157.197 87.9135 157.346C88.172 157.495 88.4786 157.57 88.8332 157.57C89.0686 157.57 89.284 157.536 89.4795 157.47C89.6751 157.404 89.8425 157.304 89.9817 157.172C90.1209 157.039 90.2269 156.877 90.2998 156.685L92.2586 156.814C92.1592 157.284 91.9554 157.695 91.6472 158.047C91.3423 158.395 90.9479 158.667 90.464 158.862C89.9834 159.054 89.4282 159.15 88.7985 159.15ZM97.7471 151.365L97.7472 152.956L93.1484 152.956L93.1484 151.365L97.7471 151.365ZM94.1923 149.535L96.3102 149.535L96.3105 156.654C96.3105 156.85 96.3403 157.003 96.4 157.112C96.4597 157.218 96.5425 157.293 96.6486 157.336C96.758 157.379 96.8839 157.4 97.0264 157.4C97.1259 157.4 97.2253 157.392 97.3247 157.375C97.4241 157.355 97.5004 157.341 97.5534 157.331L97.8866 158.907C97.7805 158.94 97.6313 158.978 97.4391 159.021C97.2469 159.067 97.0132 159.096 96.7381 159.105C96.2277 159.125 95.7803 159.057 95.3958 158.902C95.0146 158.746 94.718 158.504 94.5058 158.176C94.2937 157.848 94.1893 157.433 94.1926 156.933L94.1923 149.535ZM105.385 153.542L103.446 153.661C103.413 153.496 103.341 153.346 103.232 153.214C103.123 153.078 102.979 152.97 102.8 152.891C102.624 152.808 102.413 152.767 102.168 152.767C101.84 152.767 101.563 152.836 101.338 152.975C101.113 153.111 101 153.294 101 153.522C101 153.705 101.073 153.859 101.219 153.985C101.364 154.111 101.615 154.212 101.969 154.288L103.351 154.566C104.094 154.719 104.647 154.964 105.012 155.302C105.377 155.64 105.559 156.084 105.559 156.634C105.559 157.135 105.411 157.574 105.116 157.952C104.825 158.33 104.424 158.625 103.913 158.837C103.406 159.046 102.821 159.15 102.158 159.15C101.148 159.15 100.342 158.94 99.7422 158.519C99.1456 158.095 98.7959 157.518 98.6931 156.789L100.776 156.679C100.839 156.987 100.992 157.223 101.234 157.385C101.476 157.544 101.785 157.624 102.163 157.624C102.535 157.624 102.833 157.552 103.058 157.41C103.287 157.264 103.403 157.077 103.406 156.848C103.403 156.656 103.322 156.498 103.163 156.376C103.003 156.25 102.758 156.154 102.427 156.088L101.104 155.824C100.359 155.675 99.8034 155.416 99.4388 155.049C99.0775 154.681 98.8969 154.212 98.8969 153.642C98.8968 153.151 99.0294 152.729 99.2945 152.374C99.563 152.019 99.9392 151.746 100.423 151.554C100.91 151.361 101.48 151.265 102.133 151.265C103.098 151.265 103.857 151.469 104.41 151.877C104.967 152.284 105.292 152.839 105.385 153.542ZM106.893 159.001L106.892 151.364L109.01 151.364L109.01 159.001L106.893 159.001ZM107.956 150.38C107.641 150.38 107.371 150.276 107.146 150.067C106.924 149.855 106.813 149.601 106.813 149.306C106.813 149.014 106.924 148.764 107.146 148.555C107.371 148.343 107.641 148.237 107.956 148.237C108.271 148.237 108.539 148.343 108.762 148.555C108.987 148.764 109.1 149.014 109.1 149.306C109.1 149.601 108.987 149.855 108.762 150.067C108.54 150.276 108.271 150.38 107.956 150.38ZM112.885 159.145C112.397 159.145 111.963 159.06 111.582 158.891C111.201 158.719 110.899 158.465 110.677 158.131C110.458 157.793 110.349 157.372 110.349 156.868C110.349 156.444 110.427 156.087 110.583 155.799C110.738 155.511 110.951 155.279 111.219 155.103C111.487 154.927 111.792 154.795 112.134 154.705C112.478 154.616 112.84 154.553 113.218 154.516C113.662 154.47 114.02 154.427 114.291 154.387C114.563 154.344 114.76 154.281 114.883 154.198C115.006 154.115 115.067 153.992 115.067 153.83L115.067 153.8C115.067 153.485 114.968 153.242 114.769 153.069C114.573 152.897 114.295 152.811 113.933 152.811C113.552 152.811 113.249 152.895 113.024 153.064C112.798 153.23 112.649 153.439 112.576 153.691L110.617 153.532C110.717 153.068 110.912 152.667 111.204 152.329C111.496 151.987 111.872 151.725 112.333 151.543C112.797 151.358 113.333 151.265 113.943 151.265C114.368 151.265 114.774 151.314 115.161 151.414C115.552 151.513 115.899 151.667 116.2 151.876C116.505 152.085 116.746 152.353 116.921 152.682C117.097 153.006 117.185 153.396 117.185 153.85L117.185 159L115.177 159L115.176 157.942L115.117 157.942C114.994 158.18 114.83 158.391 114.625 158.573C114.419 158.752 114.172 158.893 113.884 158.996C113.596 159.095 113.262 159.145 112.885 159.145ZM113.491 157.683C113.803 157.683 114.078 157.622 114.316 157.499C114.555 157.373 114.742 157.204 114.878 156.992C115.014 156.78 115.082 156.54 115.082 156.271L115.082 155.461C115.016 155.504 114.924 155.544 114.808 155.58C114.696 155.613 114.568 155.645 114.426 155.674C114.283 155.701 114.141 155.726 113.998 155.749C113.856 155.769 113.726 155.787 113.61 155.804C113.362 155.84 113.145 155.898 112.959 155.978C112.773 156.057 112.629 156.165 112.527 156.301C112.424 156.434 112.372 156.599 112.372 156.798C112.372 157.086 112.477 157.307 112.686 157.459C112.898 157.608 113.166 157.683 113.491 157.683ZM120.946 148.818L120.946 159L118.828 159L118.828 148.819L120.946 148.818ZM122.643 159L122.642 151.364L124.76 151.364L124.76 159L122.643 159ZM123.706 150.379C123.391 150.379 123.121 150.275 122.896 150.066C122.674 149.854 122.563 149.601 122.563 149.306C122.563 149.014 122.674 148.764 122.896 148.555C123.121 148.343 123.391 148.237 123.706 148.237C124.021 148.237 124.289 148.343 124.512 148.555C124.737 148.764 124.85 149.014 124.85 149.306C124.85 149.601 124.737 149.854 124.512 150.066C124.29 150.275 124.021 150.379 123.706 150.379ZM132.811 153.541L130.872 153.66C130.838 153.495 130.767 153.346 130.658 153.213C130.548 153.077 130.404 152.969 130.225 152.89C130.05 152.807 129.839 152.766 129.594 152.766C129.266 152.766 128.989 152.835 128.764 152.974C128.538 153.11 128.426 153.293 128.426 153.521C128.426 153.704 128.499 153.858 128.644 153.984C128.79 154.11 129.04 154.211 129.395 154.287L130.777 154.565C131.52 154.718 132.073 154.963 132.438 155.301C132.802 155.639 132.985 156.083 132.985 156.633C132.985 157.134 132.837 157.573 132.542 157.951C132.251 158.329 131.85 158.624 131.339 158.836C130.832 159.045 130.247 159.149 129.584 159.149C128.573 159.149 127.768 158.939 127.168 158.518C126.571 158.094 126.222 157.517 126.119 156.788L128.202 156.678C128.265 156.987 128.417 157.222 128.659 157.384C128.901 157.543 129.211 157.623 129.589 157.623C129.96 157.623 130.259 157.552 130.484 157.409C130.713 157.263 130.829 157.076 130.832 156.847C130.829 156.655 130.747 156.498 130.588 156.375C130.429 156.249 130.184 156.153 129.853 156.087L128.53 155.823C127.784 155.674 127.229 155.416 126.865 155.048C126.503 154.68 126.323 154.211 126.323 153.641C126.323 153.15 126.455 152.728 126.72 152.373C126.989 152.018 127.365 151.745 127.849 151.553C128.336 151.36 128.906 151.264 129.559 151.264C130.524 151.264 131.283 151.468 131.836 151.876C132.393 152.283 132.718 152.838 132.811 153.541ZM138.38 151.363L138.38 152.954L133.781 152.954L133.781 151.363L138.38 151.363ZM134.825 149.534L136.943 149.534L136.943 156.653C136.943 156.849 136.973 157.001 137.033 157.111C137.092 157.217 137.175 157.291 137.281 157.334C137.391 157.377 137.517 157.399 137.659 157.399C137.759 157.399 137.858 157.391 137.958 157.374C138.057 157.354 138.133 157.339 138.186 157.329L138.519 158.905C138.413 158.938 138.264 158.976 138.072 159.02C137.88 159.066 137.646 159.094 137.371 159.104C136.861 159.124 136.413 159.056 136.029 158.9C135.647 158.745 135.351 158.503 135.139 158.175C134.927 157.846 134.822 157.432 134.825 156.932L134.825 149.534Z" fill="#D8D8D8"/>
<defs>
<filter id="filter0_d_204_1928" x="0.137695" y="36" width="154" height="94" filterUnits="userSpaceOnUse" color-interpolation-filters="sRGB">
<feFlood flood-opacity="0" result="BackgroundImageFix"/>
<feColorMatrix in="SourceAlpha" type="matrix" values="0 0 0 0 0 0 0 0 0 0 0 0 0 0 0 0 0 0 127 0" result="hardAlpha"/>
<feOffset dy="-2"/>
<feGaussianBlur stdDeviation="6"/>
<feComposite in2="hardAlpha" operator="out"/>
<feColorMatrix type="matrix" values="0 0 0 0 0.0923839 0 0 0 0 0.169424 0 0 0 0 0.250995 0 0 0 0.25 0"/>
<feBlend mode="normal" in2="BackgroundImageFix" result="effect1_dropShadow_204_1928"/>
<feBlend mode="normal" in="SourceGraphic" in2="effect1_dropShadow_204_1928" result="shape"/>
</filter>
<linearGradient id="paint0_linear_204_1928" x1="109.068" y1="19.9605" x2="106.282" y2="27.5155" gradientUnits="userSpaceOnUse">
<stop stop-color="white" stop-opacity="0.8"/>
<stop offset="1" stop-color="white" stop-opacity="0"/>
</linearGradient>
<linearGradient id="paint1_linear_204_1928" x1="88.5073" y1="59.6123" x2="88.3416" y2="44.5064" gradientUnits="userSpaceOnUse">
<stop stop-color="#FFEED7"/>
<stop offset="1" stop-color="#BDBFC2"/>
</linearGradient>
<linearGradient id="paint2_linear_204_1928" x1="88.5079" y1="59.6123" x2="88.3421" y2="44.5064" gradientUnits="userSpaceOnUse">
<stop stop-color="#FFEED7"/>
<stop offset="1" stop-color="#BDBFC2"/>
</linearGradient>
<linearGradient id="paint3_linear_204_1928" x1="108.139" y1="29.0202" x2="107.384" y2="30.7504" gradientUnits="userSpaceOnUse">
<stop stop-color="white" stop-opacity="0.65"/>
<stop offset="1" stop-color="white" stop-opacity="0"/>
</linearGradient>
<linearGradient id="paint4_linear_204_1928" x1="102.217" y1="27.6718" x2="102.052" y2="29.199" gradientUnits="userSpaceOnUse">
<stop stop-color="white" stop-opacity="0.65"/>
<stop offset="1" stop-color="white" stop-opacity="0"/>
</linearGradient>
<linearGradient id="paint5_linear_204_1928" x1="101.275" y1="43.6822" x2="98.3557" y2="53.9706" gradientUnits="userSpaceOnUse">
<stop stop-color="white" stop-opacity="0.8"/>
<stop offset="1" stop-color="white" stop-opacity="0"/>
</linearGradient>
<linearGradient id="paint6_linear_204_1928" x1="103.394" y1="37.3181" x2="102.263" y2="41.4173" gradientUnits="userSpaceOnUse">
<stop stop-color="white" stop-opacity="0.65"/>
<stop offset="1" stop-color="white" stop-opacity="0"/>
</linearGradient>
<linearGradient id="paint7_linear_204_1928" x1="91.8865" y1="36.7266" x2="87.5643" y2="51.7214" gradientUnits="userSpaceOnUse">
<stop stop-color="white" stop-opacity="0.65"/>
<stop offset="1" stop-color="white" stop-opacity="0"/>
</linearGradient>
<linearGradient id="paint8_linear_204_1928" x1="116.598" y1="42.2703" x2="112.687" y2="55.8175" gradientUnits="userSpaceOnUse">
<stop stop-color="white" stop-opacity="0.65"/>
<stop offset="1" stop-color="white" stop-opacity="0"/>
</linearGradient>
<linearGradient id="paint9_linear_204_1928" x1="107.581" y1="61.9318" x2="111.228" y2="72.1127" gradientUnits="userSpaceOnUse">
<stop stop-color="#FFA63F"/>
<stop offset="1" stop-color="#FFFF00"/>
</linearGradient>
<linearGradient id="paint10_linear_204_1928" x1="111.199" y1="55.7418" x2="106.163" y2="65.2493" gradientUnits="userSpaceOnUse">
<stop stop-color="white" stop-opacity="0.65"/>
<stop offset="1" stop-color="white" stop-opacity="0"/>
</linearGradient>
<linearGradient id="paint11_linear_204_1928" x1="84.8566" y1="57.9053" x2="80.3619" y2="64.948" gradientUnits="userSpaceOnUse">
<stop stop-color="#FFA63F"/>
<stop offset="1" stop-color="#FFFF00"/>
</linearGradient>
<linearGradient id="paint12_linear_204_1928" x1="86.2883" y1="51.2664" x2="83.4321" y2="62.75" gradientUnits="userSpaceOnUse">
<stop stop-color="white" stop-opacity="0.65"/>
<stop offset="1" stop-color="white" stop-opacity="0"/>
</linearGradient>
<linearGradient id="paint13_linear_204_1928" x1="110.875" y1="55.4422" x2="110.386" y2="58.9789" gradientUnits="userSpaceOnUse">
<stop stop-color="white" stop-opacity="0.65"/>
<stop offset="1" stop-color="white" stop-opacity="0"/>
</linearGradient>
<linearGradient id="paint14_linear_204_1928" x1="104.932" y1="31.2443" x2="103.249" y2="37.2362" gradientUnits="userSpaceOnUse">
<stop stop-color="#FFA63F"/>
<stop offset="1" stop-color="#FFFF00"/>
</linearGradient>
<linearGradient id="paint15_linear_204_1928" x1="104.437" y1="30.4859" x2="103.515" y2="33.6449" gradientUnits="userSpaceOnUse">
<stop stop-color="white" stop-opacity="0.65"/>
<stop offset="1" stop-color="white" stop-opacity="0"/>
</linearGradient>
<linearGradient id="paint16_linear_204_1928" x1="77.586" y1="52.625" x2="77.159" y2="120" gradientUnits="userSpaceOnUse">
<stop stop-color="#B2BBBF"/>
<stop offset="1" stop-color="#657076"/>
</linearGradient>
</defs>
</svg>
