<svg width="654" height="145" viewBox="0 0 654 145" fill="none" xmlns="http://www.w3.org/2000/svg">
<rect x="0.5" y="0.5" width="653" height="144" rx="15.5" fill="#312811"/>
<rect x="0.5" y="0.5" width="653" height="144" rx="15.5" stroke="#FFBA00"/>
<g clip-path="url(#clip0_257_5569)">
<path d="M223.637 39.8631L225.313 40.1981C225.403 40.2161 225.477 40.2821 225.503 40.3711C225.516 40.4144 225.517 40.4603 225.506 40.5042C225.495 40.548 225.473 40.5881 225.441 40.6201L224.068 41.9941C223.903 42.1577 223.681 42.2497 223.449 42.2501H222.31L219.45 45.1111C219.505 45.3171 219.515 45.5324 219.479 45.7426C219.444 45.9528 219.365 46.1531 219.246 46.3302C219.127 46.5072 218.972 46.657 218.791 46.7694C218.61 46.8818 218.407 46.9544 218.196 46.9823C217.985 47.0101 217.77 46.9927 217.566 46.931C217.362 46.8693 217.173 46.7649 217.013 46.6246C216.852 46.4844 216.724 46.3116 216.635 46.1177C216.547 45.9238 216.501 45.7132 216.5 45.5001C216.5 45.2699 216.553 45.0428 216.655 44.8364C216.756 44.63 216.904 44.4497 217.087 44.3096C217.27 44.1695 217.482 44.0733 217.708 44.0285C217.934 43.9837 218.167 43.9914 218.389 44.0511L221.25 41.1891V40.0521C221.25 39.8201 221.342 39.5971 221.506 39.4331L222.88 38.0591C222.912 38.0272 222.952 38.0047 222.996 37.9937C223.04 37.9828 223.086 37.984 223.129 37.9971C223.218 38.0231 223.284 38.0971 223.302 38.1871L223.637 39.8631Z" fill="#FFBA00"/>
<path d="M212 45.5008C212.001 46.3587 212.186 47.2065 212.543 47.9869C212.899 48.7673 213.419 49.4621 214.067 50.0245C214.715 50.587 215.476 51.0039 216.299 51.2472C217.121 51.4906 217.987 51.5546 218.836 51.4351C219.686 51.3155 220.5 51.0152 221.224 50.5542C221.947 50.0933 222.564 49.4826 223.031 48.7632C223.499 48.0438 223.806 47.2325 223.934 46.3841C224.061 45.5356 224.005 44.6697 223.769 43.8448C223.736 43.7484 223.723 43.6463 223.731 43.5447C223.738 43.4431 223.766 43.3441 223.814 43.2537C223.861 43.1633 223.926 43.0835 224.005 43.0191C224.083 42.9546 224.175 42.9069 224.273 42.8789C224.371 42.8508 224.473 42.843 224.574 42.8558C224.675 42.8687 224.773 42.902 224.861 42.9538C224.948 43.0055 225.025 43.0746 225.085 43.1567C225.145 43.2389 225.188 43.3325 225.211 43.4318C225.668 45.0293 225.581 46.7332 224.965 48.2761C224.348 49.819 223.237 51.1137 221.806 51.957C220.374 52.8003 218.703 53.1445 217.055 52.9356C215.406 52.7267 213.874 51.9765 212.698 50.8028C211.524 49.6271 210.773 48.0947 210.563 46.446C210.354 44.7973 210.698 43.1258 211.541 41.6938C212.385 40.2619 213.68 39.1506 215.224 38.5345C216.767 37.9184 218.471 37.8323 220.069 38.2898C220.259 38.3454 220.42 38.474 220.516 38.6476C220.611 38.8212 220.634 39.0256 220.58 39.2162C220.525 39.4067 220.397 39.5679 220.224 39.6645C220.051 39.7611 219.847 39.7853 219.656 39.7318C218.763 39.4752 217.822 39.4298 216.908 39.599C215.994 39.7682 215.132 40.1475 214.389 40.7068C213.647 41.2662 213.045 41.9905 212.63 42.8224C212.216 43.6543 212 44.5712 212 45.5008Z" fill="#FFBA00"/>
<path d="M215 45.4997C215 46.0463 215.149 46.5825 215.432 47.0505C215.714 47.5185 216.119 47.9005 216.603 48.1553C217.086 48.4101 217.63 48.528 218.176 48.4964C218.721 48.4647 219.248 48.2847 219.699 47.9757C220.15 47.666 220.507 47.2389 220.733 46.7406C220.959 46.2423 221.044 45.6919 220.979 45.1487C220.962 45.0169 220.979 44.8829 221.031 44.7603C221.083 44.6378 221.166 44.5312 221.272 44.4515C221.379 44.3719 221.505 44.322 221.637 44.3071C221.769 44.2922 221.902 44.3128 222.024 44.3667C222.145 44.42 222.251 44.5045 222.329 44.6117C222.407 44.7188 222.455 44.8448 222.469 44.9767C222.578 45.9048 222.395 46.8437 221.946 47.6631C221.496 48.4825 220.803 49.1418 219.962 49.5494C219.121 49.957 218.175 50.0927 217.253 49.9377C216.332 49.7827 215.481 49.3446 214.82 48.6844C214.159 48.0242 213.719 47.1744 213.563 46.2532C213.407 45.3319 213.541 44.3848 213.947 43.5433C214.353 42.7019 215.012 42.0077 215.83 41.5573C216.649 41.1069 217.588 40.9225 218.516 41.0297C218.615 41.039 218.712 41.0679 218.8 41.115C218.888 41.162 218.966 41.2261 219.029 41.3036C219.092 41.381 219.139 41.4703 219.167 41.5661C219.195 41.6619 219.203 41.7624 219.192 41.8616C219.181 41.9607 219.15 42.0567 219.101 42.1437C219.052 42.2307 218.986 42.3071 218.907 42.3685C218.828 42.4298 218.738 42.4747 218.642 42.5007C218.546 42.5267 218.445 42.5331 218.346 42.5197C217.926 42.4709 217.5 42.5116 217.096 42.6391C216.693 42.7666 216.321 42.978 216.005 43.2594C215.689 43.5409 215.436 43.886 215.263 44.2721C215.09 44.6582 215 45.0766 215 45.4997Z" fill="#FFBA00"/>
</g>
<path d="M235.291 38.9091H238.193L242.08 48.3949H242.233L246.119 38.9091H249.021V52H246.746V43.0064H246.624L243.006 51.9616H241.306L237.688 42.9872H237.567V52H235.291V38.9091ZM253.975 38.9091V52H251.604V38.9091H253.975ZM263.657 42.5078C263.598 41.9496 263.346 41.5149 262.903 41.2038C262.464 40.8928 261.893 40.7372 261.19 40.7372C260.696 40.7372 260.272 40.8118 259.918 40.9609C259.564 41.1101 259.294 41.3125 259.106 41.5682C258.919 41.8239 258.823 42.1158 258.819 42.4439C258.819 42.7166 258.881 42.9531 259.004 43.1534C259.132 43.3537 259.305 43.5241 259.522 43.6648C259.739 43.8011 259.98 43.9162 260.244 44.0099C260.508 44.1037 260.775 44.1825 261.043 44.2464L262.27 44.5533C262.765 44.6683 263.24 44.8239 263.696 45.0199C264.156 45.2159 264.567 45.4631 264.93 45.7614C265.296 46.0597 265.586 46.4197 265.799 46.8416C266.012 47.2635 266.118 47.7578 266.118 48.3246C266.118 49.0916 265.922 49.767 265.53 50.3509C265.138 50.9304 264.572 51.3842 263.83 51.7124C263.093 52.0362 262.2 52.1982 261.152 52.1982C260.133 52.1982 259.249 52.0405 258.499 51.7251C257.753 51.4098 257.17 50.9496 256.748 50.3445C256.33 49.7393 256.104 49.0021 256.07 48.1328H258.403C258.437 48.5888 258.578 48.968 258.825 49.2706C259.072 49.5732 259.394 49.799 259.79 49.9482C260.191 50.0973 260.638 50.1719 261.133 50.1719C261.648 50.1719 262.1 50.0952 262.488 49.9418C262.88 49.7841 263.187 49.5668 263.408 49.2898C263.63 49.0085 263.743 48.6804 263.747 48.3054C263.743 47.9645 263.643 47.6832 263.447 47.4616C263.251 47.2358 262.976 47.0483 262.622 46.8991C262.273 46.7457 261.863 46.6094 261.395 46.4901L259.905 46.1065C258.827 45.8295 257.975 45.4098 257.349 44.8473C256.726 44.2805 256.415 43.5284 256.415 42.5909C256.415 41.8196 256.624 41.1442 257.042 40.5646C257.464 39.9851 258.037 39.5355 258.761 39.2159C259.486 38.892 260.306 38.7301 261.222 38.7301C262.151 38.7301 262.965 38.892 263.664 39.2159C264.367 39.5355 264.919 39.9808 265.319 40.5518C265.72 41.1186 265.927 41.7706 265.939 42.5078H263.657ZM275.347 42.5078C275.287 41.9496 275.036 41.5149 274.593 41.2038C274.154 40.8928 273.583 40.7372 272.88 40.7372C272.385 40.7372 271.961 40.8118 271.608 40.9609C271.254 41.1101 270.983 41.3125 270.796 41.5682C270.608 41.8239 270.512 42.1158 270.508 42.4439C270.508 42.7166 270.57 42.9531 270.694 43.1534C270.821 43.3537 270.994 43.5241 271.211 43.6648C271.429 43.8011 271.669 43.9162 271.934 44.0099C272.198 44.1037 272.464 44.1825 272.733 44.2464L273.96 44.5533C274.454 44.6683 274.929 44.8239 275.385 45.0199C275.846 45.2159 276.257 45.4631 276.619 45.7614C276.985 46.0597 277.275 46.4197 277.488 46.8416C277.701 47.2635 277.808 47.7578 277.808 48.3246C277.808 49.0916 277.612 49.767 277.22 50.3509C276.828 50.9304 276.261 51.3842 275.52 51.7124C274.782 52.0362 273.89 52.1982 272.841 52.1982C271.823 52.1982 270.939 52.0405 270.189 51.7251C269.443 51.4098 268.859 50.9496 268.437 50.3445C268.02 49.7393 267.794 49.0021 267.76 48.1328H270.093C270.127 48.5888 270.267 48.968 270.515 49.2706C270.762 49.5732 271.083 49.799 271.48 49.9482C271.88 50.0973 272.328 50.1719 272.822 50.1719C273.338 50.1719 273.789 50.0952 274.177 49.9418C274.569 49.7841 274.876 49.5668 275.098 49.2898C275.319 49.0085 275.432 48.6804 275.436 48.3054C275.432 47.9645 275.332 47.6832 275.136 47.4616C274.94 47.2358 274.665 47.0483 274.311 46.8991C273.962 46.7457 273.553 46.6094 273.084 46.4901L271.595 46.1065C270.517 45.8295 269.664 45.4098 269.038 44.8473C268.416 44.2805 268.105 43.5284 268.105 42.5909C268.105 41.8196 268.314 41.1442 268.731 40.5646C269.153 39.9851 269.726 39.5355 270.451 39.2159C271.175 38.892 271.995 38.7301 272.912 38.7301C273.841 38.7301 274.654 38.892 275.353 39.2159C276.056 39.5355 276.608 39.9808 277.009 40.5518C277.409 41.1186 277.616 41.7706 277.629 42.5078H275.347ZM282.294 38.9091V52H279.922V38.9091H282.294ZM296.559 45.4545C296.559 46.8651 296.295 48.0732 295.766 49.0788C295.242 50.0803 294.526 50.8473 293.619 51.38C292.715 51.9126 291.69 52.179 290.544 52.179C289.398 52.179 288.371 51.9126 287.463 51.38C286.56 50.843 285.844 50.0739 285.315 49.0724C284.791 48.0668 284.529 46.8608 284.529 45.4545C284.529 44.044 284.791 42.8381 285.315 41.8366C285.844 40.831 286.56 40.0618 287.463 39.5291C288.371 38.9964 289.398 38.7301 290.544 38.7301C291.69 38.7301 292.715 38.9964 293.619 39.5291C294.526 40.0618 295.242 40.831 295.766 41.8366C296.295 42.8381 296.559 44.044 296.559 45.4545ZM294.175 45.4545C294.175 44.4616 294.019 43.6243 293.708 42.9425C293.401 42.2564 292.975 41.7386 292.43 41.3892C291.884 41.0355 291.256 40.8587 290.544 40.8587C289.832 40.8587 289.204 41.0355 288.658 41.3892C288.113 41.7386 287.685 42.2564 287.374 42.9425C287.067 43.6243 286.913 44.4616 286.913 45.4545C286.913 46.4474 287.067 47.2869 287.374 47.973C287.685 48.6548 288.113 49.1726 288.658 49.5263C289.204 49.8757 289.832 50.0504 290.544 50.0504C291.256 50.0504 291.884 49.8757 292.43 49.5263C292.975 49.1726 293.401 48.6548 293.708 47.973C294.019 47.2869 294.175 46.4474 294.175 45.4545ZM310.498 45.4545C310.498 46.8651 310.234 48.0732 309.706 49.0788C309.182 50.0803 308.466 50.8473 307.558 51.38C306.655 51.9126 305.63 52.179 304.483 52.179C303.337 52.179 302.31 51.9126 301.403 51.38C300.499 50.843 299.783 50.0739 299.255 49.0724C298.731 48.0668 298.469 46.8608 298.469 45.4545C298.469 44.044 298.731 42.8381 299.255 41.8366C299.783 40.831 300.499 40.0618 301.403 39.5291C302.31 38.9964 303.337 38.7301 304.483 38.7301C305.63 38.7301 306.655 38.9964 307.558 39.5291C308.466 40.0618 309.182 40.831 309.706 41.8366C310.234 42.8381 310.498 44.044 310.498 45.4545ZM308.114 45.4545C308.114 44.4616 307.959 43.6243 307.648 42.9425C307.341 42.2564 306.915 41.7386 306.369 41.3892C305.824 41.0355 305.195 40.8587 304.483 40.8587C303.772 40.8587 303.143 41.0355 302.598 41.3892C302.052 41.7386 301.624 42.2564 301.313 42.9425C301.006 43.6243 300.853 44.4616 300.853 45.4545C300.853 46.4474 301.006 47.2869 301.313 47.973C301.624 48.6548 302.052 49.1726 302.598 49.5263C303.143 49.8757 303.772 50.0504 304.483 50.0504C305.195 50.0504 305.824 49.8757 306.369 49.5263C306.915 49.1726 307.341 48.6548 307.648 47.973C307.959 47.2869 308.114 46.4474 308.114 45.4545ZM323.498 38.9091V52H321.389L315.221 43.0831H315.112V52H312.74V38.9091H314.863L321.025 47.8324H321.14V38.9091H323.498ZM329.972 40.897V38.9091H340.416V40.897H336.37V52H334.018V40.897H329.972ZM342.529 52H339.998L344.606 38.9091H347.534L352.149 52H349.618L346.121 41.5938H346.019L342.529 52ZM342.612 46.8672H349.515V48.772H342.612V46.8672ZM344.159 37.4645C343.822 37.4645 343.53 37.3452 343.283 37.1065C343.04 36.8679 342.919 36.5866 342.919 36.2628C342.919 35.9219 343.04 35.6364 343.283 35.4062C343.53 35.1719 343.822 35.0547 344.159 35.0547C344.504 35.0547 344.794 35.1719 345.028 35.4062C345.267 35.6364 345.386 35.9219 345.386 36.2628C345.386 36.5866 345.267 36.8679 345.028 37.1065C344.794 37.3452 344.504 37.4645 344.159 37.4645ZM347.994 37.4645C347.657 37.4645 347.366 37.3452 347.118 37.1065C346.876 36.8679 346.754 36.5866 346.754 36.2628C346.754 35.9219 346.876 35.6364 347.118 35.4062C347.366 35.1719 347.657 35.0547 347.994 35.0547C348.339 35.0547 348.629 35.1719 348.863 35.4062C349.102 35.6364 349.221 35.9219 349.221 36.2628C349.221 36.5866 349.102 36.8679 348.863 37.1065C348.629 37.3452 348.339 37.4645 347.994 37.4645ZM356.245 38.9091V52H353.873V38.9091H356.245ZM363.249 52H358.813V38.9091H363.338C364.638 38.9091 365.754 39.1712 366.688 39.6953C367.625 40.2152 368.345 40.9631 368.848 41.9389C369.351 42.9148 369.602 44.0824 369.602 45.4418C369.602 46.8054 369.349 47.9773 368.842 48.9574C368.339 49.9375 367.612 50.6896 366.662 51.2138C365.716 51.7379 364.578 52 363.249 52ZM361.184 49.9482H363.134C364.046 49.9482 364.806 49.782 365.416 49.4496C366.025 49.1129 366.483 48.6122 366.79 47.9474C367.097 47.2784 367.25 46.4432 367.25 45.4418C367.25 44.4403 367.097 43.6094 366.79 42.9489C366.483 42.2841 366.029 41.7876 365.428 41.4595C364.832 41.1271 364.09 40.9609 363.204 40.9609H361.184V49.9482ZM371.856 52V38.9091H380.37V40.897H374.227V44.451H379.929V46.4389H374.227V50.0121H380.421V52H371.856ZM382.214 40.897V38.9091H392.659V40.897H388.612V52H386.26V40.897H382.214ZM402.924 38.9091H405.296V47.4616C405.296 48.3991 405.074 49.2237 404.631 49.9354C404.192 50.647 403.574 51.2031 402.777 51.6037C401.98 52 401.049 52.1982 399.984 52.1982C398.914 52.1982 397.981 52 397.184 51.6037C396.387 51.2031 395.769 50.647 395.33 49.9354C394.892 49.2237 394.672 48.3991 394.672 47.4616V38.9091H397.044V47.2635C397.044 47.8089 397.163 48.2947 397.401 48.7209C397.644 49.147 397.985 49.4815 398.424 49.7244C398.863 49.9631 399.383 50.0824 399.984 50.0824C400.585 50.0824 401.105 49.9631 401.544 49.7244C401.987 49.4815 402.328 49.147 402.566 48.7209C402.805 48.2947 402.924 47.8089 402.924 47.2635V38.9091ZM412.309 52H407.873V38.9091H412.399C413.699 38.9091 414.815 39.1712 415.748 39.6953C416.686 40.2152 417.406 40.9631 417.909 41.9389C418.412 42.9148 418.663 44.0824 418.663 45.4418C418.663 46.8054 418.409 47.9773 417.902 48.9574C417.4 49.9375 416.673 50.6896 415.723 51.2138C414.777 51.7379 413.639 52 412.309 52ZM410.245 49.9482H412.194C413.106 49.9482 413.867 49.782 414.476 49.4496C415.086 49.1129 415.544 48.6122 415.85 47.9474C416.157 47.2784 416.311 46.4432 416.311 45.4418C416.311 44.4403 416.157 43.6094 415.85 42.9489C415.544 42.2841 415.09 41.7876 414.489 41.4595C413.892 41.1271 413.151 40.9609 412.265 40.9609H410.245V49.9482Z" fill="#FFBA00"/>
<g clip-path="url(#clip1_257_5569)">
<path d="M441.637 39.8631L443.313 40.1981C443.403 40.2161 443.477 40.2821 443.503 40.3711C443.516 40.4144 443.517 40.4603 443.506 40.5042C443.495 40.548 443.473 40.5881 443.441 40.6201L442.068 41.9941C441.903 42.1577 441.681 42.2497 441.449 42.2501H440.31L437.45 45.1111C437.505 45.3171 437.515 45.5324 437.479 45.7426C437.444 45.9528 437.365 46.1531 437.246 46.3302C437.127 46.5072 436.972 46.657 436.791 46.7694C436.61 46.8818 436.407 46.9544 436.196 46.9823C435.985 47.0101 435.77 46.9927 435.566 46.931C435.362 46.8693 435.173 46.7649 435.013 46.6246C434.852 46.4844 434.724 46.3116 434.635 46.1177C434.547 45.9238 434.501 45.7132 434.5 45.5001C434.5 45.2699 434.553 45.0428 434.655 44.8364C434.756 44.63 434.904 44.4497 435.087 44.3096C435.27 44.1695 435.482 44.0733 435.708 44.0285C435.934 43.9837 436.167 43.9914 436.389 44.0511L439.25 41.1891V40.0521C439.25 39.8201 439.342 39.5971 439.506 39.4331L440.88 38.0591C440.912 38.0272 440.952 38.0047 440.996 37.9937C441.04 37.9828 441.086 37.984 441.129 37.9971C441.218 38.0231 441.284 38.0971 441.302 38.1871L441.637 39.8631Z" fill="#FFBA00"/>
<path d="M430 45.5008C430.001 46.3587 430.186 47.2065 430.543 47.9869C430.899 48.7673 431.419 49.4621 432.067 50.0245C432.715 50.587 433.476 51.0039 434.299 51.2472C435.121 51.4906 435.987 51.5546 436.836 51.4351C437.686 51.3155 438.5 51.0152 439.224 50.5542C439.947 50.0933 440.564 49.4826 441.031 48.7632C441.499 48.0438 441.806 47.2325 441.934 46.3841C442.061 45.5356 442.005 44.6697 441.769 43.8448C441.736 43.7484 441.723 43.6463 441.731 43.5447C441.738 43.4431 441.766 43.3441 441.814 43.2537C441.861 43.1633 441.926 43.0835 442.005 43.0191C442.083 42.9546 442.175 42.9069 442.273 42.8789C442.371 42.8508 442.473 42.843 442.574 42.8558C442.675 42.8687 442.773 42.902 442.861 42.9538C442.948 43.0055 443.025 43.0746 443.085 43.1567C443.145 43.2389 443.188 43.3325 443.211 43.4318C443.668 45.0293 443.581 46.7332 442.965 48.2761C442.348 49.819 441.237 51.1137 439.806 51.957C438.374 52.8003 436.703 53.1445 435.055 52.9356C433.406 52.7267 431.874 51.9765 430.698 50.8028C429.524 49.6271 428.773 48.0947 428.563 46.446C428.354 44.7973 428.698 43.1258 429.541 41.6938C430.385 40.2619 431.68 39.1506 433.224 38.5345C434.767 37.9184 436.471 37.8323 438.069 38.2898C438.259 38.3454 438.42 38.474 438.516 38.6476C438.611 38.8212 438.634 39.0256 438.58 39.2162C438.525 39.4067 438.397 39.5679 438.224 39.6645C438.051 39.7611 437.847 39.7853 437.656 39.7318C436.763 39.4752 435.822 39.4298 434.908 39.599C433.994 39.7682 433.132 40.1475 432.389 40.7068C431.647 41.2662 431.045 41.9905 430.63 42.8224C430.216 43.6543 430 44.5712 430 45.5008Z" fill="#FFBA00"/>
<path d="M433 45.4997C433 46.0463 433.149 46.5825 433.432 47.0505C433.714 47.5185 434.119 47.9005 434.603 48.1553C435.086 48.4101 435.63 48.528 436.176 48.4964C436.721 48.4647 437.248 48.2847 437.699 47.9757C438.15 47.666 438.507 47.2389 438.733 46.7406C438.959 46.2423 439.044 45.6919 438.979 45.1487C438.962 45.0169 438.979 44.8829 439.031 44.7603C439.083 44.6378 439.166 44.5312 439.272 44.4515C439.379 44.3719 439.505 44.322 439.637 44.3071C439.769 44.2922 439.902 44.3128 440.024 44.3667C440.145 44.42 440.251 44.5045 440.329 44.6117C440.407 44.7188 440.455 44.8448 440.469 44.9767C440.578 45.9048 440.395 46.8437 439.946 47.6631C439.496 48.4825 438.803 49.1418 437.962 49.5494C437.121 49.957 436.175 50.0927 435.253 49.9377C434.332 49.7827 433.481 49.3446 432.82 48.6844C432.159 48.0242 431.719 47.1744 431.563 46.2532C431.407 45.3319 431.541 44.3848 431.947 43.5433C432.353 42.7019 433.012 42.0077 433.83 41.5573C434.649 41.1069 435.588 40.9225 436.516 41.0297C436.615 41.039 436.712 41.0679 436.8 41.115C436.888 41.162 436.966 41.2261 437.029 41.3036C437.092 41.381 437.139 41.4703 437.167 41.5661C437.195 41.6619 437.203 41.7624 437.192 41.8616C437.181 41.9607 437.15 42.0567 437.101 42.1437C437.052 42.2307 436.986 42.3071 436.907 42.3685C436.828 42.4298 436.738 42.4747 436.642 42.5007C436.546 42.5267 436.445 42.5331 436.346 42.5197C435.926 42.4709 435.5 42.5116 435.096 42.6391C434.693 42.7666 434.321 42.978 434.005 43.2594C433.689 43.5409 433.436 43.886 433.263 44.2721C433.09 44.6582 433 45.0766 433 45.4997Z" fill="#FFBA00"/>
</g>
<path d="M48.2372 88.5V76.8636H49.6463V82.0455H55.8509V76.8636H57.2599V88.5H55.8509V83.2955H49.6463V88.5H48.2372ZM63.5582 88.6818C62.7173 88.6818 61.992 88.4962 61.3821 88.125C60.776 87.75 60.3082 87.2273 59.9787 86.5568C59.6529 85.8826 59.4901 85.0985 59.4901 84.2045C59.4901 83.3106 59.6529 82.5227 59.9787 81.8409C60.3082 81.1553 60.7666 80.6212 61.3537 80.2386C61.9446 79.8523 62.634 79.6591 63.4219 79.6591C63.8764 79.6591 64.3253 79.7348 64.7685 79.8864C65.2116 80.0379 65.6151 80.2841 65.9787 80.625C66.3423 80.9621 66.6321 81.4091 66.848 81.9659C67.0639 82.5227 67.1719 83.2083 67.1719 84.0227V84.5909H60.4446V83.4318H65.8082C65.8082 82.9394 65.7098 82.5 65.5128 82.1136C65.3196 81.7273 65.0431 81.4223 64.6832 81.1989C64.3272 80.9754 63.9067 80.8636 63.4219 80.8636C62.8878 80.8636 62.4257 80.9962 62.0355 81.2614C61.6491 81.5227 61.3518 81.8636 61.1435 82.2841C60.9351 82.7045 60.831 83.1553 60.831 83.6364V84.4091C60.831 85.0682 60.9446 85.6269 61.1719 86.0852C61.4029 86.5398 61.723 86.8864 62.1321 87.125C62.5412 87.3598 63.0166 87.4773 63.5582 87.4773C63.9105 87.4773 64.2287 87.428 64.5128 87.3295C64.8007 87.2273 65.0488 87.0758 65.2571 86.875C65.4654 86.6705 65.6264 86.4167 65.7401 86.1136L67.0355 86.4773C66.8991 86.9167 66.67 87.303 66.348 87.6364C66.026 87.9659 65.6283 88.2235 65.1548 88.4091C64.6813 88.5909 64.1491 88.6818 63.5582 88.6818ZM71.7798 88.7045C71.2268 88.7045 70.7249 88.6004 70.2741 88.392C69.8234 88.1799 69.4654 87.875 69.2003 87.4773C68.9351 87.0758 68.8026 86.5909 68.8026 86.0227C68.8026 85.5227 68.901 85.1174 69.098 84.8068C69.295 84.4924 69.5582 84.2462 69.8878 84.0682C70.2173 83.8902 70.581 83.7576 70.9787 83.6705C71.3802 83.5795 71.7836 83.5076 72.1889 83.4545C72.7192 83.3864 73.1491 83.3352 73.4787 83.3011C73.812 83.2633 74.0545 83.2008 74.206 83.1136C74.3613 83.0265 74.4389 82.875 74.4389 82.6591V82.6136C74.4389 82.053 74.2855 81.6174 73.9787 81.3068C73.6757 80.9962 73.2154 80.8409 72.598 80.8409C71.9579 80.8409 71.456 80.9811 71.0923 81.2614C70.7287 81.5417 70.473 81.8409 70.3253 82.1591L69.0526 81.7045C69.2798 81.1742 69.5829 80.7614 69.9616 80.4659C70.3442 80.1667 70.7609 79.9583 71.2116 79.8409C71.6662 79.7197 72.1132 79.6591 72.5526 79.6591C72.8329 79.6591 73.1548 79.6932 73.5185 79.7614C73.8859 79.8258 74.2401 79.9602 74.581 80.1648C74.9257 80.3693 75.2116 80.678 75.4389 81.0909C75.6662 81.5038 75.7798 82.0568 75.7798 82.75V88.5H74.4389V87.3182H74.3707C74.2798 87.5076 74.1283 87.7102 73.9162 87.9261C73.7041 88.142 73.4219 88.3258 73.0696 88.4773C72.7173 88.6288 72.2874 88.7045 71.7798 88.7045ZM71.9844 87.5C72.5147 87.5 72.9616 87.3958 73.3253 87.1875C73.6927 86.9792 73.9692 86.7102 74.1548 86.3807C74.3442 86.0511 74.4389 85.7045 74.4389 85.3409V84.1136C74.3821 84.1818 74.2571 84.2443 74.0639 84.3011C73.8745 84.3542 73.6548 84.4015 73.4048 84.4432C73.1586 84.4811 72.9181 84.5152 72.6832 84.5455C72.4522 84.572 72.2647 84.5947 72.1207 84.6136C71.7723 84.6591 71.4465 84.733 71.1435 84.8352C70.8442 84.9337 70.6018 85.0833 70.4162 85.2841C70.2344 85.4811 70.1435 85.75 70.1435 86.0909C70.1435 86.5568 70.3158 86.9091 70.6605 87.1477C71.009 87.3826 71.4503 87.5 71.9844 87.5ZM86.5227 79.7727V80.9091H82V79.7727H86.5227ZM83.3182 77.6818H84.6591V86C84.6591 86.3788 84.714 86.6629 84.8239 86.8523C84.9375 87.0379 85.0814 87.1629 85.2557 87.2273C85.4337 87.2879 85.6212 87.3182 85.8182 87.3182C85.9659 87.3182 86.0871 87.3106 86.1818 87.2955C86.2765 87.2765 86.3523 87.2614 86.4091 87.25L86.6818 88.4545C86.5909 88.4886 86.464 88.5227 86.3011 88.5568C86.1383 88.5947 85.9318 88.6136 85.6818 88.6136C85.303 88.6136 84.9318 88.5322 84.5682 88.3693C84.2083 88.2064 83.9091 87.9583 83.6705 87.625C83.4356 87.2917 83.3182 86.8712 83.3182 86.3636V77.6818ZM91.9915 88.6818C91.2036 88.6818 90.5123 88.4943 89.9176 88.1193C89.3267 87.7443 88.8646 87.2197 88.5312 86.5455C88.2017 85.8712 88.0369 85.0833 88.0369 84.1818C88.0369 83.2727 88.2017 82.4792 88.5312 81.8011C88.8646 81.1231 89.3267 80.5966 89.9176 80.2216C90.5123 79.8466 91.2036 79.6591 91.9915 79.6591C92.7794 79.6591 93.4688 79.8466 94.0597 80.2216C94.6544 80.5966 95.1165 81.1231 95.446 81.8011C95.7794 82.4792 95.946 83.2727 95.946 84.1818C95.946 85.0833 95.7794 85.8712 95.446 86.5455C95.1165 87.2197 94.6544 87.7443 94.0597 88.1193C93.4688 88.4943 92.7794 88.6818 91.9915 88.6818ZM91.9915 87.4773C92.59 87.4773 93.0824 87.3239 93.4688 87.017C93.8551 86.7102 94.1411 86.3068 94.3267 85.8068C94.5123 85.3068 94.6051 84.7652 94.6051 84.1818C94.6051 83.5985 94.5123 83.0549 94.3267 82.5511C94.1411 82.0473 93.8551 81.6402 93.4688 81.3295C93.0824 81.0189 92.59 80.8636 91.9915 80.8636C91.393 80.8636 90.9006 81.0189 90.5142 81.3295C90.1278 81.6402 89.8419 82.0473 89.6562 82.5511C89.4706 83.0549 89.3778 83.5985 89.3778 84.1818C89.3778 84.7652 89.4706 85.3068 89.6562 85.8068C89.8419 86.3068 90.1278 86.7102 90.5142 87.017C90.9006 87.3239 91.393 87.4773 91.9915 87.4773ZM90.3551 78.3182C90.1165 78.3182 89.9044 78.2273 89.7188 78.0455C89.5369 77.8598 89.446 77.6477 89.446 77.4091C89.446 77.1477 89.5369 76.9318 89.7188 76.7614C89.9044 76.5871 90.1165 76.5 90.3551 76.5C90.6165 76.5 90.8324 76.5871 91.0028 76.7614C91.1771 76.9318 91.2642 77.1477 91.2642 77.4091C91.2642 77.6477 91.1771 77.8598 91.0028 78.0455C90.8324 78.2273 90.6165 78.3182 90.3551 78.3182ZM93.6278 78.3182C93.3892 78.3182 93.1771 78.2273 92.9915 78.0455C92.8097 77.8598 92.7188 77.6477 92.7188 77.4091C92.7188 77.1477 92.8097 76.9318 92.9915 76.7614C93.1771 76.5871 93.3892 76.5 93.6278 76.5C93.8892 76.5 94.1051 76.5871 94.2756 76.7614C94.4498 76.9318 94.5369 77.1477 94.5369 77.4091C94.5369 77.6477 94.4498 77.8598 94.2756 78.0455C94.1051 78.2273 93.8892 78.3182 93.6278 78.3182ZM101.538 88.6818C100.75 88.6818 100.059 88.4943 99.4645 88.1193C98.8736 87.7443 98.4115 87.2197 98.0781 86.5455C97.7486 85.8712 97.5838 85.0833 97.5838 84.1818C97.5838 83.2727 97.7486 82.4792 98.0781 81.8011C98.4115 81.1231 98.8736 80.5966 99.4645 80.2216C100.059 79.8466 100.75 79.6591 101.538 79.6591C102.326 79.6591 103.016 79.8466 103.607 80.2216C104.201 80.5966 104.663 81.1231 104.993 81.8011C105.326 82.4792 105.493 83.2727 105.493 84.1818C105.493 85.0833 105.326 85.8712 104.993 86.5455C104.663 87.2197 104.201 87.7443 103.607 88.1193C103.016 88.4943 102.326 88.6818 101.538 88.6818ZM101.538 87.4773C102.137 87.4773 102.629 87.3239 103.016 87.017C103.402 86.7102 103.688 86.3068 103.874 85.8068C104.059 85.3068 104.152 84.7652 104.152 84.1818C104.152 83.5985 104.059 83.0549 103.874 82.5511C103.688 82.0473 103.402 81.6402 103.016 81.3295C102.629 81.0189 102.137 80.8636 101.538 80.8636C100.94 80.8636 100.447 81.0189 100.061 81.3295C99.6747 81.6402 99.3887 82.0473 99.2031 82.5511C99.0175 83.0549 98.9247 83.5985 98.9247 84.1818C98.9247 84.7652 99.0175 85.3068 99.2031 85.8068C99.3887 86.3068 99.6747 86.7102 100.061 87.017C100.447 87.3239 100.94 87.4773 101.538 87.4773ZM99.902 78.3182C99.6634 78.3182 99.4512 78.2273 99.2656 78.0455C99.0838 77.8598 98.9929 77.6477 98.9929 77.4091C98.9929 77.1477 99.0838 76.9318 99.2656 76.7614C99.4512 76.5871 99.6634 76.5 99.902 76.5C100.163 76.5 100.379 76.5871 100.55 76.7614C100.724 76.9318 100.811 77.1477 100.811 77.4091C100.811 77.6477 100.724 77.8598 100.55 78.0455C100.379 78.2273 100.163 78.3182 99.902 78.3182ZM103.175 78.3182C102.936 78.3182 102.724 78.2273 102.538 78.0455C102.357 77.8598 102.266 77.6477 102.266 77.4091C102.266 77.1477 102.357 76.9318 102.538 76.7614C102.724 76.5871 102.936 76.5 103.175 76.5C103.436 76.5 103.652 76.5871 103.822 76.7614C103.997 76.9318 104.084 77.1477 104.084 77.4091C104.084 77.6477 103.997 77.8598 103.822 78.0455C103.652 78.2273 103.436 78.3182 103.175 78.3182ZM109.312 76.8636L109.199 85.2273H107.881L107.767 76.8636H109.312ZM108.54 88.5909C108.259 88.5909 108.019 88.4905 107.818 88.2898C107.617 88.089 107.517 87.8485 107.517 87.5682C107.517 87.2879 107.617 87.0473 107.818 86.8466C108.019 86.6458 108.259 86.5455 108.54 86.5455C108.82 86.5455 109.061 86.6458 109.261 86.8466C109.462 87.0473 109.562 87.2879 109.562 87.5682C109.562 87.7538 109.515 87.9242 109.42 88.0795C109.33 88.2348 109.206 88.3598 109.051 88.4545C108.9 88.5455 108.729 88.5909 108.54 88.5909ZM116.038 78.1136V76.8636H124.766V78.1136H121.107V88.5H119.697V78.1136H116.038ZM128.686 88.7045C128.133 88.7045 127.631 88.6004 127.18 88.392C126.73 88.1799 126.372 87.875 126.107 87.4773C125.841 87.0758 125.709 86.5909 125.709 86.0227C125.709 85.5227 125.807 85.1174 126.004 84.8068C126.201 84.4924 126.464 84.2462 126.794 84.0682C127.124 83.8902 127.487 83.7576 127.885 83.6705C128.286 83.5795 128.69 83.5076 129.095 83.4545C129.625 83.3864 130.055 83.3352 130.385 83.3011C130.718 83.2633 130.961 83.2008 131.112 83.1136C131.268 83.0265 131.345 82.875 131.345 82.6591V82.6136C131.345 82.053 131.192 81.6174 130.885 81.3068C130.582 80.9962 130.122 80.8409 129.504 80.8409C128.864 80.8409 128.362 80.9811 127.999 81.2614C127.635 81.5417 127.379 81.8409 127.232 82.1591L125.959 81.7045C126.186 81.1742 126.489 80.7614 126.868 80.4659C127.25 80.1667 127.667 79.9583 128.118 79.8409C128.572 79.7197 129.019 79.6591 129.459 79.6591C129.739 79.6591 130.061 79.6932 130.425 79.7614C130.792 79.8258 131.146 79.9602 131.487 80.1648C131.832 80.3693 132.118 80.678 132.345 81.0909C132.572 81.5038 132.686 82.0568 132.686 82.75V88.5H131.345V87.3182H131.277C131.186 87.5076 131.035 87.7102 130.822 87.9261C130.61 88.142 130.328 88.3258 129.976 88.4773C129.624 88.6288 129.194 88.7045 128.686 88.7045ZM128.891 87.5C129.421 87.5 129.868 87.3958 130.232 87.1875C130.599 86.9792 130.875 86.7102 131.061 86.3807C131.25 86.0511 131.345 85.7045 131.345 85.3409V84.1136C131.288 84.1818 131.163 84.2443 130.97 84.3011C130.781 84.3542 130.561 84.4015 130.311 84.4432C130.065 84.4811 129.824 84.5152 129.589 84.5455C129.358 84.572 129.171 84.5947 129.027 84.6136C128.679 84.6591 128.353 84.733 128.05 84.8352C127.75 84.9337 127.508 85.0833 127.322 85.2841C127.141 85.4811 127.05 85.75 127.05 86.0909C127.05 86.5568 127.222 86.9091 127.567 87.1477C127.915 87.3826 128.357 87.5 128.891 87.5ZM127.913 78.3182C127.675 78.3182 127.463 78.2273 127.277 78.0455C127.095 77.8598 127.004 77.6477 127.004 77.4091C127.004 77.1477 127.095 76.9318 127.277 76.7614C127.463 76.5871 127.675 76.5 127.913 76.5C128.175 76.5 128.391 76.5871 128.561 76.7614C128.735 76.9318 128.822 77.1477 128.822 77.4091C128.822 77.6477 128.735 77.8598 128.561 78.0455C128.391 78.2273 128.175 78.3182 127.913 78.3182ZM131.186 78.3182C130.947 78.3182 130.735 78.2273 130.55 78.0455C130.368 77.8598 130.277 77.6477 130.277 77.4091C130.277 77.1477 130.368 76.9318 130.55 76.7614C130.735 76.5871 130.947 76.5 131.186 76.5C131.447 76.5 131.663 76.5871 131.834 76.7614C132.008 76.9318 132.095 77.1477 132.095 77.4091C132.095 77.6477 132.008 77.8598 131.834 78.0455C131.663 78.2273 131.447 78.3182 131.186 78.3182ZM136.474 83.25V88.5H135.134V79.7727H136.429V81.1364H136.543C136.747 80.6932 137.058 80.3371 137.474 80.0682C137.891 79.7955 138.429 79.6591 139.088 79.6591C139.679 79.6591 140.196 79.7803 140.639 80.0227C141.082 80.2614 141.427 80.625 141.673 81.1136C141.92 81.5985 142.043 82.2121 142.043 82.9545V88.5H140.702V83.0455C140.702 82.3598 140.524 81.8258 140.168 81.4432C139.812 81.0568 139.323 80.8636 138.702 80.8636C138.274 80.8636 137.891 80.9564 137.554 81.142C137.221 81.3277 136.957 81.5985 136.764 81.9545C136.571 82.3106 136.474 82.7424 136.474 83.25ZM149.993 84.9318V79.7727H151.334V88.5H149.993V87.0227H149.902C149.697 87.4659 149.379 87.8428 148.947 88.1534C148.516 88.4602 147.97 88.6136 147.311 88.6136C146.766 88.6136 146.281 88.4943 145.857 88.2557C145.432 88.0133 145.099 87.6496 144.857 87.1648C144.614 86.6761 144.493 86.0606 144.493 85.3182V79.7727H145.834V85.2273C145.834 85.8636 146.012 86.3712 146.368 86.75C146.728 87.1288 147.186 87.3182 147.743 87.3182C148.076 87.3182 148.415 87.233 148.76 87.0625C149.108 86.892 149.4 86.6307 149.635 86.2784C149.874 85.9261 149.993 85.4773 149.993 84.9318ZM164.472 81.7273L163.267 82.0682C163.191 81.8674 163.08 81.6723 162.932 81.483C162.788 81.2898 162.591 81.1307 162.341 81.0057C162.091 80.8807 161.771 80.8182 161.381 80.8182C160.847 80.8182 160.402 80.9413 160.045 81.1875C159.693 81.4299 159.517 81.7386 159.517 82.1136C159.517 82.447 159.638 82.7102 159.881 82.9034C160.123 83.0966 160.502 83.2576 161.017 83.3864L162.312 83.7045C163.093 83.8939 163.674 84.1837 164.057 84.5739C164.439 84.9602 164.631 85.4583 164.631 86.0682C164.631 86.5682 164.487 87.0152 164.199 87.4091C163.915 87.803 163.517 88.1136 163.006 88.3409C162.494 88.5682 161.9 88.6818 161.222 88.6818C160.331 88.6818 159.595 88.4886 159.011 88.1023C158.428 87.7159 158.059 87.1515 157.903 86.4091L159.176 86.0909C159.297 86.5606 159.527 86.9129 159.864 87.1477C160.205 87.3826 160.65 87.5 161.199 87.5C161.824 87.5 162.32 87.3674 162.688 87.1023C163.059 86.8333 163.244 86.5114 163.244 86.1364C163.244 85.8333 163.138 85.5795 162.926 85.375C162.714 85.1667 162.388 85.0114 161.949 84.9091L160.494 84.5682C159.695 84.3788 159.108 84.0852 158.733 83.6875C158.362 83.286 158.176 82.7841 158.176 82.1818C158.176 81.6894 158.314 81.2538 158.591 80.875C158.871 80.4962 159.252 80.1989 159.733 79.983C160.218 79.767 160.767 79.6591 161.381 79.6591C162.244 79.6591 162.922 79.8485 163.415 80.2273C163.911 80.6061 164.263 81.1061 164.472 81.7273ZM166.649 88.5V79.7727H167.99V88.5H166.649ZM167.331 78.3182C167.07 78.3182 166.844 78.2292 166.655 78.0511C166.469 77.8731 166.376 77.6591 166.376 77.4091C166.376 77.1591 166.469 76.9451 166.655 76.767C166.844 76.589 167.07 76.5 167.331 76.5C167.592 76.5 167.816 76.589 168.001 76.767C168.191 76.9451 168.286 77.1591 168.286 77.4091C168.286 77.6591 168.191 77.8731 168.001 78.0511C167.816 78.2292 167.592 78.3182 167.331 78.3182ZM171.787 83.25V88.5H170.446V79.7727H171.741V81.1364H171.855C172.06 80.6932 172.37 80.3371 172.787 80.0682C173.204 79.7955 173.741 79.6591 174.401 79.6591C174.991 79.6591 175.509 79.7803 175.952 80.0227C176.395 80.2614 176.74 80.625 176.986 81.1136C177.232 81.5985 177.355 82.2121 177.355 82.9545V88.5H176.014V83.0455C176.014 82.3598 175.836 81.8258 175.48 81.4432C175.124 81.0568 174.635 80.8636 174.014 80.8636C173.586 80.8636 173.204 80.9564 172.866 81.142C172.533 81.3277 172.27 81.5985 172.077 81.9545C171.884 82.3106 171.787 82.7424 171.787 83.25ZM185.305 84.9318V79.7727H186.646V88.5H185.305V87.0227H185.214C185.01 87.4659 184.692 87.8428 184.26 88.1534C183.828 88.4602 183.283 88.6136 182.624 88.6136C182.078 88.6136 181.593 88.4943 181.169 88.2557C180.745 88.0133 180.411 87.6496 180.169 87.1648C179.927 86.6761 179.805 86.0606 179.805 85.3182V79.7727H181.146V85.2273C181.146 85.8636 181.324 86.3712 181.68 86.75C182.04 87.1288 182.499 87.3182 183.055 87.3182C183.389 87.3182 183.728 87.233 184.072 87.0625C184.421 86.892 184.713 86.6307 184.947 86.2784C185.186 85.9261 185.305 85.4773 185.305 84.9318ZM194.943 83.25V88.5H193.602V79.7727H194.898V81.1364H195.011C195.216 80.6932 195.527 80.3371 195.943 80.0682C196.36 79.7955 196.898 79.6591 197.557 79.6591C198.148 79.6591 198.665 79.7803 199.108 80.0227C199.551 80.2614 199.896 80.625 200.142 81.1136C200.388 81.5985 200.511 82.2121 200.511 82.9545V88.5H199.17V83.0455C199.17 82.3598 198.992 81.8258 198.636 81.4432C198.28 81.0568 197.792 80.8636 197.17 80.8636C196.742 80.8636 196.36 80.9564 196.023 81.142C195.689 81.3277 195.426 81.5985 195.233 81.9545C195.04 82.3106 194.943 82.7424 194.943 83.25ZM208.462 84.9318V79.7727H209.803V88.5H208.462V87.0227H208.371C208.166 87.4659 207.848 87.8428 207.416 88.1534C206.984 88.4602 206.439 88.6136 205.78 88.6136C205.234 88.6136 204.75 88.4943 204.325 88.2557C203.901 88.0133 203.568 87.6496 203.325 87.1648C203.083 86.6761 202.962 86.0606 202.962 85.3182V79.7727H204.303V85.2273C204.303 85.8636 204.481 86.3712 204.837 86.75C205.196 87.1288 205.655 87.3182 206.212 87.3182C206.545 87.3182 206.884 87.233 207.229 87.0625C207.577 86.892 207.869 86.6307 208.104 86.2784C208.342 85.9261 208.462 85.4773 208.462 84.9318ZM216.054 79.7727V80.9091H211.531V79.7727H216.054ZM212.849 77.6818H214.19V86C214.19 86.3788 214.245 86.6629 214.355 86.8523C214.469 87.0379 214.613 87.1629 214.787 87.2273C214.965 87.2879 215.152 87.3182 215.349 87.3182C215.497 87.3182 215.618 87.3106 215.713 87.2955C215.808 87.2765 215.884 87.2614 215.94 87.25L216.213 88.4545C216.122 88.4886 215.995 88.5227 215.832 88.5568C215.67 88.5947 215.463 88.6136 215.213 88.6136C214.834 88.6136 214.463 88.5322 214.099 88.3693C213.74 88.2064 213.44 87.9583 213.202 87.625C212.967 87.2917 212.849 86.8712 212.849 86.3636V77.6818ZM218.071 88.5V79.7727H219.412V88.5H218.071ZM218.753 78.3182C218.491 78.3182 218.266 78.2292 218.077 78.0511C217.891 77.8731 217.798 77.6591 217.798 77.4091C217.798 77.1591 217.891 76.9451 218.077 76.767C218.266 76.589 218.491 76.5 218.753 76.5C219.014 76.5 219.238 76.589 219.423 76.767C219.613 76.9451 219.707 77.1591 219.707 77.4091C219.707 77.6591 219.613 77.8731 219.423 78.0511C219.238 78.2292 219.014 78.3182 218.753 78.3182ZM223.118 85.3182L223.095 83.6591H223.368L227.186 79.7727H228.845L224.777 83.8864H224.663L223.118 85.3182ZM221.868 88.5V76.8636H223.209V88.5H221.868ZM227.413 88.5L224.004 84.1818L224.959 83.25L229.118 88.5H227.413ZM233.139 88.7045C232.586 88.7045 232.084 88.6004 231.634 88.392C231.183 88.1799 230.825 87.875 230.56 87.4773C230.295 87.0758 230.162 86.5909 230.162 86.0227C230.162 85.5227 230.26 85.1174 230.457 84.8068C230.654 84.4924 230.918 84.2462 231.247 84.0682C231.577 83.8902 231.94 83.7576 232.338 83.6705C232.74 83.5795 233.143 83.5076 233.548 83.4545C234.079 83.3864 234.509 83.3352 234.838 83.3011C235.171 83.2633 235.414 83.2008 235.565 83.1136C235.721 83.0265 235.798 82.875 235.798 82.6591V82.6136C235.798 82.053 235.645 81.6174 235.338 81.3068C235.035 80.9962 234.575 80.8409 233.957 80.8409C233.317 80.8409 232.815 80.9811 232.452 81.2614C232.088 81.5417 231.832 81.8409 231.685 82.1591L230.412 81.7045C230.639 81.1742 230.942 80.7614 231.321 80.4659C231.704 80.1667 232.12 79.9583 232.571 79.8409C233.026 79.7197 233.473 79.6591 233.912 79.6591C234.192 79.6591 234.514 79.6932 234.878 79.7614C235.245 79.8258 235.599 79.9602 235.94 80.1648C236.285 80.3693 236.571 80.678 236.798 81.0909C237.026 81.5038 237.139 82.0568 237.139 82.75V88.5H235.798V87.3182H235.73C235.639 87.5076 235.488 87.7102 235.276 87.9261C235.063 88.142 234.781 88.3258 234.429 88.4773C234.077 88.6288 233.647 88.7045 233.139 88.7045ZM233.344 87.5C233.874 87.5 234.321 87.3958 234.685 87.1875C235.052 86.9792 235.329 86.7102 235.514 86.3807C235.704 86.0511 235.798 85.7045 235.798 85.3409V84.1136C235.741 84.1818 235.616 84.2443 235.423 84.3011C235.234 84.3542 235.014 84.4015 234.764 84.4432C234.518 84.4811 234.277 84.5152 234.043 84.5455C233.812 84.572 233.624 84.5947 233.48 84.6136C233.132 84.6591 232.806 84.733 232.503 84.8352C232.204 84.9337 231.961 85.0833 231.776 85.2841C231.594 85.4811 231.503 85.75 231.503 86.0909C231.503 86.5568 231.675 86.9091 232.02 87.1477C232.368 87.3826 232.81 87.5 233.344 87.5ZM243.382 79.7727V80.9091H238.859V79.7727H243.382ZM240.178 77.6818H241.518V86C241.518 86.3788 241.573 86.6629 241.683 86.8523C241.797 87.0379 241.941 87.1629 242.115 87.2273C242.293 87.2879 242.481 87.3182 242.678 87.3182C242.825 87.3182 242.946 87.3106 243.041 87.2955C243.136 87.2765 243.212 87.2614 243.268 87.25L243.541 88.4545C243.45 88.4886 243.323 88.5227 243.161 88.5568C242.998 88.5947 242.791 88.6136 242.541 88.6136C242.162 88.6136 241.791 88.5322 241.428 88.3693C241.068 88.2064 240.768 87.9583 240.53 87.625C240.295 87.2917 240.178 86.8712 240.178 86.3636V77.6818ZM248.964 88.6818C248.124 88.6818 247.398 88.4962 246.788 88.125C246.182 87.75 245.714 87.2273 245.385 86.5568C245.059 85.8826 244.896 85.0985 244.896 84.2045C244.896 83.3106 245.059 82.5227 245.385 81.8409C245.714 81.1553 246.173 80.6212 246.76 80.2386C247.351 79.8523 248.04 79.6591 248.828 79.6591C249.283 79.6591 249.732 79.7348 250.175 79.8864C250.618 80.0379 251.021 80.2841 251.385 80.625C251.749 80.9621 252.038 81.4091 252.254 81.9659C252.47 82.5227 252.578 83.2083 252.578 84.0227V84.5909H245.851V83.4318H251.214C251.214 82.9394 251.116 82.5 250.919 82.1136C250.726 81.7273 250.449 81.4223 250.089 81.1989C249.733 80.9754 249.313 80.8636 248.828 80.8636C248.294 80.8636 247.832 80.9962 247.442 81.2614C247.055 81.5227 246.758 81.8636 246.55 82.2841C246.341 82.7045 246.237 83.1553 246.237 83.6364V84.4091C246.237 85.0682 246.351 85.6269 246.578 86.0852C246.809 86.5398 247.129 86.8864 247.538 87.125C247.947 87.3598 248.423 87.4773 248.964 87.4773C249.317 87.4773 249.635 87.428 249.919 87.3295C250.207 87.2273 250.455 87.0758 250.663 86.875C250.872 86.6705 251.033 86.4167 251.146 86.1136L252.442 86.4773C252.305 86.9167 252.076 87.303 251.754 87.6364C251.432 87.9659 251.035 88.2235 250.561 88.4091C250.088 88.5909 249.555 88.6818 248.964 88.6818ZM255.959 76.8636V88.5H254.618V76.8636H255.959ZM262.074 88.6818C261.233 88.6818 260.508 88.4962 259.898 88.125C259.292 87.75 258.824 87.2273 258.494 86.5568C258.169 85.8826 258.006 85.0985 258.006 84.2045C258.006 83.3106 258.169 82.5227 258.494 81.8409C258.824 81.1553 259.282 80.6212 259.869 80.2386C260.46 79.8523 261.15 79.6591 261.938 79.6591C262.392 79.6591 262.841 79.7348 263.284 79.8864C263.727 80.0379 264.131 80.2841 264.494 80.625C264.858 80.9621 265.148 81.4091 265.364 81.9659C265.58 82.5227 265.688 83.2083 265.688 84.0227V84.5909H258.96V83.4318H264.324C264.324 82.9394 264.225 82.5 264.028 82.1136C263.835 81.7273 263.559 81.4223 263.199 81.1989C262.843 80.9754 262.422 80.8636 261.938 80.8636C261.403 80.8636 260.941 80.9962 260.551 81.2614C260.165 81.5227 259.867 81.8636 259.659 82.2841C259.451 82.7045 259.347 83.1553 259.347 83.6364V84.4091C259.347 85.0682 259.46 85.6269 259.688 86.0852C259.919 86.5398 260.239 86.8864 260.648 87.125C261.057 87.3598 261.532 87.4773 262.074 87.4773C262.426 87.4773 262.744 87.428 263.028 87.3295C263.316 87.2273 263.564 87.0758 263.773 86.875C263.981 86.6705 264.142 86.4167 264.256 86.1136L265.551 86.4773C265.415 86.9167 265.186 87.303 264.864 87.6364C264.542 87.9659 264.144 88.2235 263.67 88.4091C263.197 88.5909 262.665 88.6818 262.074 88.6818ZM275.773 88.6818C274.985 88.6818 274.294 88.4943 273.699 88.1193C273.108 87.7443 272.646 87.2197 272.312 86.5455C271.983 85.8712 271.818 85.0833 271.818 84.1818C271.818 83.2727 271.983 82.4792 272.312 81.8011C272.646 81.1231 273.108 80.5966 273.699 80.2216C274.294 79.8466 274.985 79.6591 275.773 79.6591C276.561 79.6591 277.25 79.8466 277.841 80.2216C278.436 80.5966 278.898 81.1231 279.227 81.8011C279.561 82.4792 279.727 83.2727 279.727 84.1818C279.727 85.0833 279.561 85.8712 279.227 86.5455C278.898 87.2197 278.436 87.7443 277.841 88.1193C277.25 88.4943 276.561 88.6818 275.773 88.6818ZM275.773 87.4773C276.371 87.4773 276.864 87.3239 277.25 87.017C277.636 86.7102 277.922 86.3068 278.108 85.8068C278.294 85.3068 278.386 84.7652 278.386 84.1818C278.386 83.5985 278.294 83.0549 278.108 82.5511C277.922 82.0473 277.636 81.6402 277.25 81.3295C276.864 81.0189 276.371 80.8636 275.773 80.8636C275.174 80.8636 274.682 81.0189 274.295 81.3295C273.909 81.6402 273.623 82.0473 273.438 82.5511C273.252 83.0549 273.159 83.5985 273.159 84.1818C273.159 84.7652 273.252 85.3068 273.438 85.8068C273.623 86.3068 273.909 86.7102 274.295 87.017C274.682 87.3239 275.174 87.4773 275.773 87.4773ZM287.956 81.7273L286.751 82.0682C286.676 81.8674 286.564 81.6723 286.416 81.483C286.272 81.2898 286.075 81.1307 285.825 81.0057C285.575 80.8807 285.255 80.8182 284.865 80.8182C284.331 80.8182 283.886 80.9413 283.53 81.1875C283.178 81.4299 283.001 81.7386 283.001 82.1136C283.001 82.447 283.123 82.7102 283.365 82.9034C283.607 83.0966 283.986 83.2576 284.501 83.3864L285.797 83.7045C286.577 83.8939 287.159 84.1837 287.541 84.5739C287.924 84.9602 288.115 85.4583 288.115 86.0682C288.115 86.5682 287.971 87.0152 287.683 87.4091C287.399 87.803 287.001 88.1136 286.49 88.3409C285.979 88.5682 285.384 88.6818 284.706 88.6818C283.816 88.6818 283.079 88.4886 282.496 88.1023C281.912 87.7159 281.543 87.1515 281.388 86.4091L282.661 86.0909C282.782 86.5606 283.011 86.9129 283.348 87.1477C283.689 87.3826 284.134 87.5 284.683 87.5C285.308 87.5 285.804 87.3674 286.172 87.1023C286.543 86.8333 286.729 86.5114 286.729 86.1364C286.729 85.8333 286.623 85.5795 286.411 85.375C286.198 85.1667 285.873 85.0114 285.433 84.9091L283.979 84.5682C283.179 84.3788 282.592 84.0852 282.217 83.6875C281.846 83.286 281.661 82.7841 281.661 82.1818C281.661 81.6894 281.799 81.2538 282.075 80.875C282.356 80.4962 282.736 80.1989 283.217 79.983C283.702 79.767 284.251 79.6591 284.865 79.6591C285.729 79.6591 286.407 79.8485 286.899 80.2273C287.395 80.6061 287.748 81.1061 287.956 81.7273ZM291.384 85.3182L291.361 83.6591H291.634L295.452 79.7727H297.111L293.043 83.8864H292.929L291.384 85.3182ZM290.134 88.5V76.8636H291.474V88.5H290.134ZM295.679 88.5L292.27 84.1818L293.224 83.25L297.384 88.5H295.679ZM304.337 84.9318V79.7727H305.678V88.5H304.337V87.0227H304.246C304.041 87.4659 303.723 87.8428 303.291 88.1534C302.859 88.4602 302.314 88.6136 301.655 88.6136C301.109 88.6136 300.625 88.4943 300.2 88.2557C299.776 88.0133 299.443 87.6496 299.2 87.1648C298.958 86.6761 298.837 86.0606 298.837 85.3182V79.7727H300.178V85.2273C300.178 85.8636 300.356 86.3712 300.712 86.75C301.071 87.1288 301.53 87.3182 302.087 87.3182C302.42 87.3182 302.759 87.233 303.104 87.0625C303.452 86.892 303.744 86.6307 303.979 86.2784C304.217 85.9261 304.337 85.4773 304.337 84.9318ZM314.315 81.7273L313.111 82.0682C313.035 81.8674 312.923 81.6723 312.776 81.483C312.632 81.2898 312.435 81.1307 312.185 81.0057C311.935 80.8807 311.615 80.8182 311.224 80.8182C310.69 80.8182 310.245 80.9413 309.889 81.1875C309.537 81.4299 309.361 81.7386 309.361 82.1136C309.361 82.447 309.482 82.7102 309.724 82.9034C309.967 83.0966 310.346 83.2576 310.861 83.3864L312.156 83.7045C312.937 83.8939 313.518 84.1837 313.901 84.5739C314.283 84.9602 314.474 85.4583 314.474 86.0682C314.474 86.5682 314.33 87.0152 314.043 87.4091C313.759 87.803 313.361 88.1136 312.849 88.3409C312.338 88.5682 311.743 88.6818 311.065 88.6818C310.175 88.6818 309.438 88.4886 308.855 88.1023C308.272 87.7159 307.902 87.1515 307.747 86.4091L309.02 86.0909C309.141 86.5606 309.37 86.9129 309.707 87.1477C310.048 87.3826 310.493 87.5 311.043 87.5C311.668 87.5 312.164 87.3674 312.531 87.1023C312.902 86.8333 313.088 86.5114 313.088 86.1364C313.088 85.8333 312.982 85.5795 312.77 85.375C312.558 85.1667 312.232 85.0114 311.793 84.9091L310.338 84.5682C309.539 84.3788 308.952 84.0852 308.577 83.6875C308.205 83.286 308.02 82.7841 308.02 82.1818C308.02 81.6894 308.158 81.2538 308.435 80.875C308.715 80.4962 309.096 80.1989 309.577 79.983C310.062 79.767 310.611 79.6591 311.224 79.6591C312.088 79.6591 312.766 79.8485 313.259 80.2273C313.755 80.6061 314.107 81.1061 314.315 81.7273ZM320.288 79.7727V80.9091H315.766V79.7727H320.288ZM317.084 77.6818H318.425V86C318.425 86.3788 318.48 86.6629 318.589 86.8523C318.703 87.0379 318.847 87.1629 319.021 87.2273C319.199 87.2879 319.387 87.3182 319.584 87.3182C319.732 87.3182 319.853 87.3106 319.947 87.2955C320.042 87.2765 320.118 87.2614 320.175 87.25L320.447 88.4545C320.357 88.4886 320.23 88.5227 320.067 88.5568C319.904 88.5947 319.697 88.6136 319.447 88.6136C319.069 88.6136 318.697 88.5322 318.334 88.3693C317.974 88.2064 317.675 87.9583 317.436 87.625C317.201 87.2917 317.084 86.8712 317.084 86.3636V77.6818ZM325.871 88.6818C325.03 88.6818 324.304 88.4962 323.695 88.125C323.089 87.75 322.621 87.2273 322.291 86.5568C321.965 85.8826 321.803 85.0985 321.803 84.2045C321.803 83.3106 321.965 82.5227 322.291 81.8409C322.621 81.1553 323.079 80.6212 323.666 80.2386C324.257 79.8523 324.946 79.6591 325.734 79.6591C326.189 79.6591 326.638 79.7348 327.081 79.8864C327.524 80.0379 327.928 80.2841 328.291 80.625C328.655 80.9621 328.945 81.4091 329.161 81.9659C329.376 82.5227 329.484 83.2083 329.484 84.0227V84.5909H322.757V83.4318H328.121C328.121 82.9394 328.022 82.5 327.825 82.1136C327.632 81.7273 327.356 81.4223 326.996 81.1989C326.64 80.9754 326.219 80.8636 325.734 80.8636C325.2 80.8636 324.738 80.9962 324.348 81.2614C323.962 81.5227 323.664 81.8636 323.456 82.2841C323.248 82.7045 323.143 83.1553 323.143 83.6364V84.4091C323.143 85.0682 323.257 85.6269 323.484 86.0852C323.715 86.5398 324.036 86.8864 324.445 87.125C324.854 87.3598 325.329 87.4773 325.871 87.4773C326.223 87.4773 326.541 87.428 326.825 87.3295C327.113 87.2273 327.361 87.0758 327.57 86.875C327.778 86.6705 327.939 86.4167 328.053 86.1136L329.348 86.4773C329.212 86.9167 328.982 87.303 328.661 87.6364C328.339 87.9659 327.941 88.2235 327.467 88.4091C326.994 88.5909 326.462 88.6818 325.871 88.6818ZM332.865 76.8636V88.5H331.524V76.8636H332.865ZM338.98 88.6818C338.139 88.6818 337.414 88.4962 336.804 88.125C336.198 87.75 335.73 87.2273 335.401 86.5568C335.075 85.8826 334.912 85.0985 334.912 84.2045C334.912 83.3106 335.075 82.5227 335.401 81.8409C335.73 81.1553 336.188 80.6212 336.776 80.2386C337.366 79.8523 338.056 79.6591 338.844 79.6591C339.298 79.6591 339.747 79.7348 340.19 79.8864C340.634 80.0379 341.037 80.2841 341.401 80.625C341.764 80.9621 342.054 81.4091 342.27 81.9659C342.486 82.5227 342.594 83.2083 342.594 84.0227V84.5909H335.866V83.4318H341.23C341.23 82.9394 341.132 82.5 340.935 82.1136C340.741 81.7273 340.465 81.4223 340.105 81.1989C339.749 80.9754 339.329 80.8636 338.844 80.8636C338.31 80.8636 337.848 80.9962 337.457 81.2614C337.071 81.5227 336.774 81.8636 336.565 82.2841C336.357 82.7045 336.253 83.1553 336.253 83.6364V84.4091C336.253 85.0682 336.366 85.6269 336.594 86.0852C336.825 86.5398 337.145 86.8864 337.554 87.125C337.963 87.3598 338.438 87.4773 338.98 87.4773C339.332 87.4773 339.651 87.428 339.935 87.3295C340.223 87.2273 340.471 87.0758 340.679 86.875C340.887 86.6705 341.048 86.4167 341.162 86.1136L342.457 86.4773C342.321 86.9167 342.092 87.303 341.77 87.6364C341.448 87.9659 341.05 88.2235 340.577 88.4091C340.103 88.5909 339.571 88.6818 338.98 88.6818ZM352.679 88.6818C351.891 88.6818 351.2 88.4943 350.605 88.1193C350.014 87.7443 349.552 87.2197 349.219 86.5455C348.889 85.8712 348.724 85.0833 348.724 84.1818C348.724 83.2727 348.889 82.4792 349.219 81.8011C349.552 81.1231 350.014 80.5966 350.605 80.2216C351.2 79.8466 351.891 79.6591 352.679 79.6591C353.467 79.6591 354.156 79.8466 354.747 80.2216C355.342 80.5966 355.804 81.1231 356.134 81.8011C356.467 82.4792 356.634 83.2727 356.634 84.1818C356.634 85.0833 356.467 85.8712 356.134 86.5455C355.804 87.2197 355.342 87.7443 354.747 88.1193C354.156 88.4943 353.467 88.6818 352.679 88.6818ZM352.679 87.4773C353.277 87.4773 353.77 87.3239 354.156 87.017C354.543 86.7102 354.829 86.3068 355.014 85.8068C355.2 85.3068 355.293 84.7652 355.293 84.1818C355.293 83.5985 355.2 83.0549 355.014 82.5511C354.829 82.0473 354.543 81.6402 354.156 81.3295C353.77 81.0189 353.277 80.8636 352.679 80.8636C352.08 80.8636 351.588 81.0189 351.202 81.3295C350.815 81.6402 350.529 82.0473 350.344 82.5511C350.158 83.0549 350.065 83.5985 350.065 84.1818C350.065 84.7652 350.158 85.3068 350.344 85.8068C350.529 86.3068 350.815 86.7102 351.202 87.017C351.588 87.3239 352.08 87.4773 352.679 87.4773ZM360.021 83.25V88.5H358.68V79.7727H359.976V81.1364H360.089C360.294 80.6932 360.605 80.3371 361.021 80.0682C361.438 79.7955 361.976 79.6591 362.635 79.6591C363.226 79.6591 363.743 79.7803 364.186 80.0227C364.629 80.2614 364.974 80.625 365.22 81.1136C365.466 81.5985 365.589 82.2121 365.589 82.9545V88.5H364.249V83.0455C364.249 82.3598 364.071 81.8258 363.714 81.4432C363.358 81.0568 362.87 80.8636 362.249 80.8636C361.821 80.8636 361.438 80.9564 361.101 81.142C360.768 81.3277 360.504 81.5985 360.311 81.9545C360.118 82.3106 360.021 82.7424 360.021 83.25ZM378.04 84.9318V79.7727H379.381V88.5H378.04V87.0227H377.949C377.744 87.4659 377.426 87.8428 376.994 88.1534C376.563 88.4602 376.017 88.6136 375.358 88.6136C374.812 88.6136 374.328 88.4943 373.903 88.2557C373.479 88.0133 373.146 87.6496 372.903 87.1648C372.661 86.6761 372.54 86.0606 372.54 85.3182V79.7727H373.881V85.2273C373.881 85.8636 374.059 86.3712 374.415 86.75C374.775 87.1288 375.233 87.3182 375.79 87.3182C376.123 87.3182 376.462 87.233 376.807 87.0625C377.155 86.892 377.447 86.6307 377.682 86.2784C377.92 85.9261 378.04 85.4773 378.04 84.9318ZM374.335 78.3182C374.097 78.3182 373.884 78.2273 373.699 78.0455C373.517 77.8598 373.426 77.6477 373.426 77.4091C373.426 77.1477 373.517 76.9318 373.699 76.7614C373.884 76.5871 374.097 76.5 374.335 76.5C374.597 76.5 374.813 76.5871 374.983 76.7614C375.157 76.9318 375.244 77.1477 375.244 77.4091C375.244 77.6477 375.157 77.8598 374.983 78.0455C374.813 78.2273 374.597 78.3182 374.335 78.3182ZM377.608 78.3182C377.369 78.3182 377.157 78.2273 376.972 78.0455C376.79 77.8598 376.699 77.6477 376.699 77.4091C376.699 77.1477 376.79 76.9318 376.972 76.7614C377.157 76.5871 377.369 76.5 377.608 76.5C377.869 76.5 378.085 76.5871 378.256 76.7614C378.43 76.9318 378.517 77.1477 378.517 77.4091C378.517 77.6477 378.43 77.8598 378.256 78.0455C378.085 78.2273 377.869 78.3182 377.608 78.3182ZM383.178 76.8636V88.5H381.837V76.8636H383.178ZM389.293 88.6818C388.452 88.6818 387.726 88.4962 387.116 88.125C386.51 87.75 386.043 87.2273 385.713 86.5568C385.387 85.8826 385.224 85.0985 385.224 84.2045C385.224 83.3106 385.387 82.5227 385.713 81.8409C386.043 81.1553 386.501 80.6212 387.088 80.2386C387.679 79.8523 388.368 79.6591 389.156 79.6591C389.611 79.6591 390.06 79.7348 390.503 79.8864C390.946 80.0379 391.349 80.2841 391.713 80.625C392.077 80.9621 392.366 81.4091 392.582 81.9659C392.798 82.5227 392.906 83.2083 392.906 84.0227V84.5909H386.179V83.4318H391.543C391.543 82.9394 391.444 82.5 391.247 82.1136C391.054 81.7273 390.777 81.4223 390.418 81.1989C390.062 80.9754 389.641 80.8636 389.156 80.8636C388.622 80.8636 388.16 80.9962 387.77 81.2614C387.384 81.5227 387.086 81.8636 386.878 82.2841C386.67 82.7045 386.565 83.1553 386.565 83.6364V84.4091C386.565 85.0682 386.679 85.6269 386.906 86.0852C387.137 86.5398 387.457 86.8864 387.866 87.125C388.276 87.3598 388.751 87.4773 389.293 87.4773C389.645 87.4773 389.963 87.428 390.247 87.3295C390.535 87.2273 390.783 87.0758 390.991 86.875C391.2 86.6705 391.361 86.4167 391.474 86.1136L392.77 86.4773C392.634 86.9167 392.404 87.303 392.082 87.6364C391.76 87.9659 391.363 88.2235 390.889 88.4091C390.416 88.5909 389.884 88.6818 389.293 88.6818ZM401.128 81.7273L399.923 82.0682C399.848 81.8674 399.736 81.6723 399.588 81.483C399.444 81.2898 399.247 81.1307 398.997 81.0057C398.747 80.8807 398.427 80.8182 398.037 80.8182C397.503 80.8182 397.058 80.9413 396.702 81.1875C396.349 81.4299 396.173 81.7386 396.173 82.1136C396.173 82.447 396.295 82.7102 396.537 82.9034C396.779 83.0966 397.158 83.2576 397.673 83.3864L398.969 83.7045C399.749 83.8939 400.33 84.1837 400.713 84.5739C401.096 84.9602 401.287 85.4583 401.287 86.0682C401.287 86.5682 401.143 87.0152 400.855 87.4091C400.571 87.803 400.173 88.1136 399.662 88.3409C399.151 88.5682 398.556 88.6818 397.878 88.6818C396.988 88.6818 396.251 88.4886 395.668 88.1023C395.084 87.7159 394.715 87.1515 394.56 86.4091L395.832 86.0909C395.954 86.5606 396.183 86.9129 396.52 87.1477C396.861 87.3826 397.306 87.5 397.855 87.5C398.48 87.5 398.976 87.3674 399.344 87.1023C399.715 86.8333 399.901 86.5114 399.901 86.1364C399.901 85.8333 399.795 85.5795 399.582 85.375C399.37 85.1667 399.045 85.0114 398.605 84.9091L397.151 84.5682C396.351 84.3788 395.764 84.0852 395.389 83.6875C395.018 83.286 394.832 82.7841 394.832 82.1818C394.832 81.6894 394.971 81.2538 395.247 80.875C395.527 80.4962 395.908 80.1989 396.389 79.983C396.874 79.767 397.423 79.6591 398.037 79.6591C398.901 79.6591 399.579 79.8485 400.071 80.2273C400.567 80.6061 400.92 81.1061 401.128 81.7273ZM405.874 88.7045C405.321 88.7045 404.819 88.6004 404.368 88.392C403.917 88.1799 403.559 87.875 403.294 87.4773C403.029 87.0758 402.896 86.5909 402.896 86.0227C402.896 85.5227 402.995 85.1174 403.192 84.8068C403.389 84.4924 403.652 84.2462 403.982 84.0682C404.311 83.8902 404.675 83.7576 405.072 83.6705C405.474 83.5795 405.877 83.5076 406.283 83.4545C406.813 83.3864 407.243 83.3352 407.572 83.3011C407.906 83.2633 408.148 83.2008 408.3 83.1136C408.455 83.0265 408.533 82.875 408.533 82.6591V82.6136C408.533 82.053 408.379 81.6174 408.072 81.3068C407.769 80.9962 407.309 80.8409 406.692 80.8409C406.052 80.8409 405.55 80.9811 405.186 81.2614C404.822 81.5417 404.567 81.8409 404.419 82.1591L403.146 81.7045C403.374 81.1742 403.677 80.7614 404.055 80.4659C404.438 80.1667 404.855 79.9583 405.305 79.8409C405.76 79.7197 406.207 79.6591 406.646 79.6591C406.927 79.6591 407.249 79.6932 407.612 79.7614C407.98 79.8258 408.334 79.9602 408.675 80.1648C409.019 80.3693 409.305 80.678 409.533 81.0909C409.76 81.5038 409.874 82.0568 409.874 82.75V88.5H408.533V87.3182H408.464C408.374 87.5076 408.222 87.7102 408.01 87.9261C407.798 88.142 407.516 88.3258 407.163 88.4773C406.811 88.6288 406.381 88.7045 405.874 88.7045ZM406.078 87.5C406.608 87.5 407.055 87.3958 407.419 87.1875C407.786 86.9792 408.063 86.7102 408.249 86.3807C408.438 86.0511 408.533 85.7045 408.533 85.3409V84.1136C408.476 84.1818 408.351 84.2443 408.158 84.3011C407.968 84.3542 407.749 84.4015 407.499 84.4432C407.252 84.4811 407.012 84.5152 406.777 84.5455C406.546 84.572 406.358 84.5947 406.214 84.6136C405.866 84.6591 405.54 84.733 405.237 84.8352C404.938 84.9337 404.696 85.0833 404.51 85.2841C404.328 85.4811 404.237 85.75 404.237 86.0909C404.237 86.5568 404.41 86.9091 404.754 87.1477C405.103 87.3826 405.544 87.5 406.078 87.5ZM413.662 83.25V88.5H412.321V79.7727H413.616V81.1364H413.73C413.935 80.6932 414.245 80.3371 414.662 80.0682C415.079 79.7955 415.616 79.6591 416.276 79.6591C416.866 79.6591 417.384 79.7803 417.827 80.0227C418.27 80.2614 418.615 80.625 418.861 81.1136C419.107 81.5985 419.23 82.2121 419.23 82.9545V88.5H417.889V83.0455C417.889 82.3598 417.711 81.8258 417.355 81.4432C416.999 81.0568 416.51 80.8636 415.889 80.8636C415.461 80.8636 415.079 80.9564 414.741 81.142C414.408 81.3277 414.145 81.5985 413.952 81.9545C413.759 82.3106 413.662 82.7424 413.662 83.25ZM424.976 88.6818C424.249 88.6818 423.607 88.4981 423.05 88.1307C422.493 87.7595 422.057 87.2367 421.743 86.5625C421.429 85.8845 421.271 85.0833 421.271 84.1591C421.271 83.2424 421.429 82.447 421.743 81.7727C422.057 81.0985 422.495 80.5777 423.055 80.2102C423.616 79.8428 424.264 79.6591 424.999 79.6591C425.567 79.6591 426.016 79.7538 426.345 79.9432C426.679 80.1288 426.932 80.3409 427.107 80.5795C427.285 80.8144 427.423 81.0076 427.521 81.1591H427.635V76.8636H428.976V88.5H427.68V87.1591H427.521C427.423 87.3182 427.283 87.5189 427.101 87.7614C426.919 88 426.66 88.214 426.322 88.4034C425.985 88.589 425.536 88.6818 424.976 88.6818ZM425.158 87.4773C425.696 87.4773 426.15 87.3371 426.521 87.0568C426.893 86.7727 427.175 86.3807 427.368 85.8807C427.561 85.3769 427.658 84.7955 427.658 84.1364C427.658 83.4848 427.563 82.9148 427.374 82.4261C427.184 81.9337 426.904 81.5511 426.533 81.2784C426.161 81.0019 425.703 80.8636 425.158 80.8636C424.589 80.8636 424.116 81.0095 423.737 81.3011C423.362 81.589 423.08 81.9811 422.891 82.4773C422.705 82.9697 422.612 83.5227 422.612 84.1364C422.612 84.7576 422.707 85.322 422.896 85.8295C423.089 86.3333 423.374 86.7348 423.749 87.0341C424.127 87.3295 424.597 87.4773 425.158 87.4773ZM435.277 88.6818C434.436 88.6818 433.711 88.4962 433.101 88.125C432.495 87.75 432.027 87.2273 431.697 86.5568C431.372 85.8826 431.209 85.0985 431.209 84.2045C431.209 83.3106 431.372 82.5227 431.697 81.8409C432.027 81.1553 432.485 80.6212 433.072 80.2386C433.663 79.8523 434.353 79.6591 435.141 79.6591C435.595 79.6591 436.044 79.7348 436.487 79.8864C436.93 80.0379 437.334 80.2841 437.697 80.625C438.061 80.9621 438.351 81.4091 438.567 81.9659C438.783 82.5227 438.891 83.2083 438.891 84.0227V84.5909H432.163V83.4318H437.527C437.527 82.9394 437.429 82.5 437.232 82.1136C437.038 81.7273 436.762 81.4223 436.402 81.1989C436.046 80.9754 435.625 80.8636 435.141 80.8636C434.607 80.8636 434.144 80.9962 433.754 81.2614C433.368 81.5227 433.071 81.8636 432.862 82.2841C432.654 82.7045 432.55 83.1553 432.55 83.6364V84.4091C432.55 85.0682 432.663 85.6269 432.891 86.0852C433.122 86.5398 433.442 86.8864 433.851 87.125C434.26 87.3598 434.735 87.4773 435.277 87.4773C435.629 87.4773 435.947 87.428 436.232 87.3295C436.519 87.2273 436.768 87.0758 436.976 86.875C437.184 86.6705 437.345 86.4167 437.459 86.1136L438.754 86.4773C438.618 86.9167 438.389 87.303 438.067 87.6364C437.745 87.9659 437.347 88.2235 436.874 88.4091C436.4 88.5909 435.868 88.6818 435.277 88.6818ZM444.226 88.6818C443.499 88.6818 442.857 88.4981 442.3 88.1307C441.743 87.7595 441.307 87.2367 440.993 86.5625C440.679 85.8845 440.521 85.0833 440.521 84.1591C440.521 83.2424 440.679 82.447 440.993 81.7727C441.307 81.0985 441.745 80.5777 442.305 80.2102C442.866 79.8428 443.514 79.6591 444.249 79.6591C444.817 79.6591 445.266 79.7538 445.595 79.9432C445.929 80.1288 446.182 80.3409 446.357 80.5795C446.535 80.8144 446.673 81.0076 446.771 81.1591H446.885V76.8636H448.226V88.5H446.93V87.1591H446.771C446.673 87.3182 446.533 87.5189 446.351 87.7614C446.169 88 445.91 88.214 445.572 88.4034C445.235 88.589 444.786 88.6818 444.226 88.6818ZM444.408 87.4773C444.946 87.4773 445.4 87.3371 445.771 87.0568C446.143 86.7727 446.425 86.3807 446.618 85.8807C446.811 85.3769 446.908 84.7955 446.908 84.1364C446.908 83.4848 446.813 82.9148 446.624 82.4261C446.434 81.9337 446.154 81.5511 445.783 81.2784C445.411 81.0019 444.953 80.8636 444.408 80.8636C443.839 80.8636 443.366 81.0095 442.987 81.3011C442.612 81.589 442.33 81.9811 442.141 82.4773C441.955 82.9697 441.862 83.5227 441.862 84.1364C441.862 84.7576 441.957 85.322 442.146 85.8295C442.339 86.3333 442.624 86.7348 442.999 87.0341C443.377 87.3295 443.847 87.4773 444.408 87.4773ZM456.709 76.8636V88.5H455.368V76.8636H456.709ZM461.733 88.7045C461.18 88.7045 460.678 88.6004 460.227 88.392C459.777 88.1799 459.419 87.875 459.153 87.4773C458.888 87.0758 458.756 86.5909 458.756 86.0227C458.756 85.5227 458.854 85.1174 459.051 84.8068C459.248 84.4924 459.511 84.2462 459.841 84.0682C460.17 83.8902 460.534 83.7576 460.932 83.6705C461.333 83.5795 461.737 83.5076 462.142 83.4545C462.672 83.3864 463.102 83.3352 463.432 83.3011C463.765 83.2633 464.008 83.2008 464.159 83.1136C464.314 83.0265 464.392 82.875 464.392 82.6591V82.6136C464.392 82.053 464.239 81.6174 463.932 81.3068C463.629 80.9962 463.169 80.8409 462.551 80.8409C461.911 80.8409 461.409 80.9811 461.045 81.2614C460.682 81.5417 460.426 81.8409 460.278 82.1591L459.006 81.7045C459.233 81.1742 459.536 80.7614 459.915 80.4659C460.297 80.1667 460.714 79.9583 461.165 79.8409C461.619 79.7197 462.066 79.6591 462.506 79.6591C462.786 79.6591 463.108 79.6932 463.472 79.7614C463.839 79.8258 464.193 79.9602 464.534 80.1648C464.879 80.3693 465.165 80.678 465.392 81.0909C465.619 81.5038 465.733 82.0568 465.733 82.75V88.5H464.392V87.3182H464.324C464.233 87.5076 464.081 87.7102 463.869 87.9261C463.657 88.142 463.375 88.3258 463.023 88.4773C462.67 88.6288 462.241 88.7045 461.733 88.7045ZM461.938 87.5C462.468 87.5 462.915 87.3958 463.278 87.1875C463.646 86.9792 463.922 86.7102 464.108 86.3807C464.297 86.0511 464.392 85.7045 464.392 85.3409V84.1136C464.335 84.1818 464.21 84.2443 464.017 84.3011C463.828 84.3542 463.608 84.4015 463.358 84.4432C463.112 84.4811 462.871 84.5152 462.636 84.5455C462.405 84.572 462.218 84.5947 462.074 84.6136C461.725 84.6591 461.4 84.733 461.097 84.8352C460.797 84.9337 460.555 85.0833 460.369 85.2841C460.188 85.4811 460.097 85.75 460.097 86.0909C460.097 86.5568 460.269 86.9091 460.614 87.1477C460.962 87.3826 461.403 87.5 461.938 87.5ZM469.521 83.25V88.5H468.18V76.8636H469.521V81.1364H469.635C469.839 80.6856 470.146 80.3277 470.555 80.0625C470.968 79.7936 471.518 79.6591 472.203 79.6591C472.798 79.6591 473.319 79.7784 473.766 80.017C474.213 80.2519 474.559 80.6136 474.805 81.1023C475.055 81.5871 475.18 82.2045 475.18 82.9545V88.5H473.839V83.0455C473.839 82.3523 473.66 81.8163 473.3 81.4375C472.944 81.0549 472.449 80.8636 471.817 80.8636C471.377 80.8636 470.983 80.9564 470.635 81.142C470.29 81.3277 470.018 81.5985 469.817 81.9545C469.62 82.3106 469.521 82.7424 469.521 83.25ZM481.293 88.6818C480.452 88.6818 479.726 88.4962 479.116 88.125C478.51 87.75 478.043 87.2273 477.713 86.5568C477.387 85.8826 477.224 85.0985 477.224 84.2045C477.224 83.3106 477.387 82.5227 477.713 81.8409C478.043 81.1553 478.501 80.6212 479.088 80.2386C479.679 79.8523 480.368 79.6591 481.156 79.6591C481.611 79.6591 482.06 79.7348 482.503 79.8864C482.946 80.0379 483.349 80.2841 483.713 80.625C484.077 80.9621 484.366 81.4091 484.582 81.9659C484.798 82.5227 484.906 83.2083 484.906 84.0227V84.5909H478.179V83.4318H483.543C483.543 82.9394 483.444 82.5 483.247 82.1136C483.054 81.7273 482.777 81.4223 482.418 81.1989C482.062 80.9754 481.641 80.8636 481.156 80.8636C480.622 80.8636 480.16 80.9962 479.77 81.2614C479.384 81.5227 479.086 81.8636 478.878 82.2841C478.67 82.7045 478.565 83.1553 478.565 83.6364V84.4091C478.565 85.0682 478.679 85.6269 478.906 86.0852C479.137 86.5398 479.457 86.8864 479.866 87.125C480.276 87.3598 480.751 87.4773 481.293 87.4773C481.645 87.4773 481.963 87.428 482.247 87.3295C482.535 87.2273 482.783 87.0758 482.991 86.875C483.2 86.6705 483.361 86.4167 483.474 86.1136L484.77 86.4773C484.634 86.9167 484.404 87.303 484.082 87.6364C483.76 87.9659 483.363 88.2235 482.889 88.4091C482.416 88.5909 481.884 88.6818 481.293 88.6818ZM488.287 83.25V88.5H486.946V79.7727H488.241V81.1364H488.355C488.56 80.6932 488.87 80.3371 489.287 80.0682C489.704 79.7955 490.241 79.6591 490.901 79.6591C491.491 79.6591 492.009 79.7803 492.452 80.0227C492.895 80.2614 493.24 80.625 493.486 81.1136C493.732 81.5985 493.855 82.2121 493.855 82.9545V88.5H492.514V83.0455C492.514 82.3598 492.336 81.8258 491.98 81.4432C491.624 81.0568 491.135 80.8636 490.514 80.8636C490.086 80.8636 489.704 80.9564 489.366 81.142C489.033 81.3277 488.77 81.5985 488.577 81.9545C488.384 82.3106 488.287 82.7424 488.287 83.25ZM499.601 88.6818C498.874 88.6818 498.232 88.4981 497.675 88.1307C497.118 87.7595 496.682 87.2367 496.368 86.5625C496.054 85.8845 495.896 85.0833 495.896 84.1591C495.896 83.2424 496.054 82.447 496.368 81.7727C496.682 81.0985 497.12 80.5777 497.68 80.2102C498.241 79.8428 498.889 79.6591 499.624 79.6591C500.192 79.6591 500.641 79.7538 500.97 79.9432C501.304 80.1288 501.557 80.3409 501.732 80.5795C501.91 80.8144 502.048 81.0076 502.146 81.1591H502.26V76.8636H503.601V88.5H502.305V87.1591H502.146C502.048 87.3182 501.908 87.5189 501.726 87.7614C501.544 88 501.285 88.214 500.947 88.4034C500.61 88.589 500.161 88.6818 499.601 88.6818ZM499.783 87.4773C500.321 87.4773 500.775 87.3371 501.146 87.0568C501.518 86.7727 501.8 86.3807 501.993 85.8807C502.186 85.3769 502.283 84.7955 502.283 84.1364C502.283 83.4848 502.188 82.9148 501.999 82.4261C501.809 81.9337 501.529 81.5511 501.158 81.2784C500.786 81.0019 500.328 80.8636 499.783 80.8636C499.214 80.8636 498.741 81.0095 498.362 81.3011C497.987 81.589 497.705 81.9811 497.516 82.4773C497.33 82.9697 497.237 83.5227 497.237 84.1364C497.237 84.7576 497.332 85.322 497.521 85.8295C497.714 86.3333 497.999 86.7348 498.374 87.0341C498.752 87.3295 499.222 87.4773 499.783 87.4773ZM508.811 88.7045C508.258 88.7045 507.756 88.6004 507.305 88.392C506.855 88.1799 506.497 87.875 506.232 87.4773C505.966 87.0758 505.834 86.5909 505.834 86.0227C505.834 85.5227 505.932 85.1174 506.129 84.8068C506.326 84.4924 506.589 84.2462 506.919 84.0682C507.249 83.8902 507.612 83.7576 508.01 83.6705C508.411 83.5795 508.815 83.5076 509.22 83.4545C509.75 83.3864 510.18 83.3352 510.51 83.3011C510.843 83.2633 511.086 83.2008 511.237 83.1136C511.393 83.0265 511.47 82.875 511.47 82.6591V82.6136C511.47 82.053 511.317 81.6174 511.01 81.3068C510.707 80.9962 510.247 80.8409 509.629 80.8409C508.989 80.8409 508.487 80.9811 508.124 81.2614C507.76 81.5417 507.504 81.8409 507.357 82.1591L506.084 81.7045C506.311 81.1742 506.614 80.7614 506.993 80.4659C507.375 80.1667 507.792 79.9583 508.243 79.8409C508.697 79.7197 509.144 79.6591 509.584 79.6591C509.864 79.6591 510.186 79.6932 510.55 79.7614C510.917 79.8258 511.271 79.9602 511.612 80.1648C511.957 80.3693 512.243 80.678 512.47 81.0909C512.697 81.5038 512.811 82.0568 512.811 82.75V88.5H511.47V87.3182H511.402C511.311 87.5076 511.16 87.7102 510.947 87.9261C510.735 88.142 510.453 88.3258 510.101 88.4773C509.749 88.6288 509.319 88.7045 508.811 88.7045ZM509.016 87.5C509.546 87.5 509.993 87.3958 510.357 87.1875C510.724 86.9792 511 86.7102 511.186 86.3807C511.375 86.0511 511.47 85.7045 511.47 85.3409V84.1136C511.413 84.1818 511.288 84.2443 511.095 84.3011C510.906 84.3542 510.686 84.4015 510.436 84.4432C510.19 84.4811 509.949 84.5152 509.714 84.5455C509.483 84.572 509.296 84.5947 509.152 84.6136C508.804 84.6591 508.478 84.733 508.175 84.8352C507.875 84.9337 507.633 85.0833 507.447 85.2841C507.266 85.4811 507.175 85.75 507.175 86.0909C507.175 86.5568 507.347 86.9091 507.692 87.1477C508.04 87.3826 508.482 87.5 509.016 87.5ZM519.054 79.7727V80.9091H514.531V79.7727H519.054ZM515.849 77.6818H517.19V86C517.19 86.3788 517.245 86.6629 517.355 86.8523C517.469 87.0379 517.613 87.1629 517.787 87.2273C517.965 87.2879 518.152 87.3182 518.349 87.3182C518.497 87.3182 518.618 87.3106 518.713 87.2955C518.808 87.2765 518.884 87.2614 518.94 87.25L519.213 88.4545C519.122 88.4886 518.995 88.5227 518.832 88.5568C518.67 88.5947 518.463 88.6136 518.213 88.6136C517.834 88.6136 517.463 88.5322 517.099 88.3693C516.74 88.2064 516.44 87.9583 516.202 87.625C515.967 87.2917 515.849 86.8712 515.849 86.3636V77.6818ZM526.571 84.9318V79.7727H527.912V88.5H526.571V87.0227H526.48C526.276 87.4659 525.957 87.8428 525.526 88.1534C525.094 88.4602 524.548 88.6136 523.889 88.6136C523.344 88.6136 522.859 88.4943 522.435 88.2557C522.01 88.0133 521.677 87.6496 521.435 87.1648C521.192 86.6761 521.071 86.0606 521.071 85.3182V79.7727H522.412V85.2273C522.412 85.8636 522.59 86.3712 522.946 86.75C523.306 87.1288 523.764 87.3182 524.321 87.3182C524.654 87.3182 524.993 87.233 525.338 87.0625C525.687 86.892 525.978 86.6307 526.213 86.2784C526.452 85.9261 526.571 85.4773 526.571 84.9318ZM533.663 88.6818C532.936 88.6818 532.294 88.4981 531.737 88.1307C531.18 87.7595 530.745 87.2367 530.43 86.5625C530.116 85.8845 529.959 85.0833 529.959 84.1591C529.959 83.2424 530.116 82.447 530.43 81.7727C530.745 81.0985 531.182 80.5777 531.743 80.2102C532.304 79.8428 532.951 79.6591 533.686 79.6591C534.254 79.6591 534.703 79.7538 535.033 79.9432C535.366 80.1288 535.62 80.3409 535.794 80.5795C535.972 80.8144 536.11 81.0076 536.209 81.1591H536.322V76.8636H537.663V88.5H536.368V87.1591H536.209C536.11 87.3182 535.97 87.5189 535.788 87.7614C535.607 88 535.347 88.214 535.01 88.4034C534.673 88.589 534.224 88.6818 533.663 88.6818ZM533.845 87.4773C534.383 87.4773 534.838 87.3371 535.209 87.0568C535.58 86.7727 535.862 86.3807 536.055 85.8807C536.249 85.3769 536.345 84.7955 536.345 84.1364C536.345 83.4848 536.25 82.9148 536.061 82.4261C535.872 81.9337 535.591 81.5511 535.22 81.2784C534.849 81.0019 534.391 80.8636 533.845 80.8636C533.277 80.8636 532.804 81.0095 532.425 81.3011C532.05 81.589 531.768 81.9811 531.578 82.4773C531.393 82.9697 531.3 83.5227 531.3 84.1364C531.3 84.7576 531.394 85.322 531.584 85.8295C531.777 86.3333 532.061 86.7348 532.436 87.0341C532.815 87.3295 533.285 87.4773 533.845 87.4773ZM544.805 79.7727H546.146V89.1364C546.146 89.6742 546.054 90.1402 545.868 90.5341C545.686 90.928 545.41 91.233 545.038 91.4489C544.671 91.6648 544.207 91.7727 543.646 91.7727C543.601 91.7727 543.555 91.7727 543.51 91.7727C543.464 91.7727 543.419 91.7727 543.374 91.7727V90.5227C543.419 90.5227 543.461 90.5227 543.499 90.5227C543.536 90.5227 543.578 90.5227 543.624 90.5227C544.033 90.5227 544.332 90.4015 544.521 90.1591C544.711 89.9205 544.805 89.5795 544.805 89.1364V79.7727ZM545.464 78.3182C545.203 78.3182 544.978 78.2292 544.788 78.0511C544.603 77.8731 544.51 77.6591 544.51 77.4091C544.51 77.1591 544.603 76.9451 544.788 76.767C544.978 76.589 545.203 76.5 545.464 76.5C545.726 76.5 545.949 76.589 546.135 76.767C546.324 76.9451 546.419 77.1591 546.419 77.4091C546.419 77.6591 546.324 77.8731 546.135 78.0511C545.949 78.2292 545.726 78.3182 545.464 78.3182ZM551.17 88.7045C550.617 88.7045 550.116 88.6004 549.665 88.392C549.214 88.1799 548.856 87.875 548.591 87.4773C548.326 87.0758 548.193 86.5909 548.193 86.0227C548.193 85.5227 548.292 85.1174 548.489 84.8068C548.686 84.4924 548.949 84.2462 549.278 84.0682C549.608 83.8902 549.972 83.7576 550.369 83.6705C550.771 83.5795 551.174 83.5076 551.58 83.4545C552.11 83.3864 552.54 83.3352 552.869 83.3011C553.203 83.2633 553.445 83.2008 553.597 83.1136C553.752 83.0265 553.83 82.875 553.83 82.6591V82.6136C553.83 82.053 553.676 81.6174 553.369 81.3068C553.066 80.9962 552.606 80.8409 551.989 80.8409C551.348 80.8409 550.847 80.9811 550.483 81.2614C550.119 81.5417 549.864 81.8409 549.716 82.1591L548.443 81.7045C548.67 81.1742 548.973 80.7614 549.352 80.4659C549.735 80.1667 550.152 79.9583 550.602 79.8409C551.057 79.7197 551.504 79.6591 551.943 79.6591C552.223 79.6591 552.545 79.6932 552.909 79.7614C553.277 79.8258 553.631 79.9602 553.972 80.1648C554.316 80.3693 554.602 80.678 554.83 81.0909C555.057 81.5038 555.17 82.0568 555.17 82.75V88.5H553.83V87.3182H553.761C553.67 87.5076 553.519 87.7102 553.307 87.9261C553.095 88.142 552.813 88.3258 552.46 88.4773C552.108 88.6288 551.678 88.7045 551.17 88.7045ZM551.375 87.5C551.905 87.5 552.352 87.3958 552.716 87.1875C553.083 86.9792 553.36 86.7102 553.545 86.3807C553.735 86.0511 553.83 85.7045 553.83 85.3409V84.1136C553.773 84.1818 553.648 84.2443 553.455 84.3011C553.265 84.3542 553.045 84.4015 552.795 84.4432C552.549 84.4811 552.309 84.5152 552.074 84.5455C551.843 84.572 551.655 84.5947 551.511 84.6136C551.163 84.6591 550.837 84.733 550.534 84.8352C550.235 84.9337 549.992 85.0833 549.807 85.2841C549.625 85.4811 549.534 85.75 549.534 86.0909C549.534 86.5568 549.706 86.9091 550.051 87.1477C550.4 87.3826 550.841 87.5 551.375 87.5ZM562.777 76.8636L566.232 86.6591H566.368L569.822 76.8636H571.3L567.027 88.5H565.572L561.3 76.8636H562.777ZM582.384 82.6818C582.384 83.9091 582.162 84.9697 581.719 85.8636C581.276 86.7576 580.668 87.447 579.895 87.9318C579.122 88.4167 578.24 88.6591 577.247 88.6591C576.255 88.6591 575.372 88.4167 574.599 87.9318C573.827 87.447 573.219 86.7576 572.776 85.8636C572.332 84.9697 572.111 83.9091 572.111 82.6818C572.111 81.4545 572.332 80.3939 572.776 79.5C573.219 78.6061 573.827 77.9167 574.599 77.4318C575.372 76.947 576.255 76.7045 577.247 76.7045C578.24 76.7045 579.122 76.947 579.895 77.4318C580.668 77.9167 581.276 78.6061 581.719 79.5C582.162 80.3939 582.384 81.4545 582.384 82.6818ZM581.02 82.6818C581.02 81.6742 580.851 80.8239 580.514 80.1307C580.181 79.4375 579.728 78.9129 579.156 78.5568C578.588 78.2008 577.952 78.0227 577.247 78.0227C576.543 78.0227 575.904 78.2008 575.332 78.5568C574.764 78.9129 574.312 79.4375 573.974 80.1307C573.641 80.8239 573.474 81.6742 573.474 82.6818C573.474 83.6894 573.641 84.5398 573.974 85.233C574.312 85.9261 574.764 86.4508 575.332 86.8068C575.904 87.1629 576.543 87.3409 577.247 87.3409C577.952 87.3409 578.588 87.1629 579.156 86.8068C579.728 86.4508 580.181 85.9261 580.514 85.233C580.851 84.5398 581.02 83.6894 581.02 82.6818ZM594.116 80.5H592.707C592.624 80.0947 592.478 79.7386 592.27 79.4318C592.065 79.125 591.815 78.8674 591.52 78.6591C591.228 78.447 590.904 78.2879 590.548 78.1818C590.192 78.0758 589.821 78.0227 589.435 78.0227C588.73 78.0227 588.092 78.2008 587.52 78.5568C586.952 78.9129 586.499 79.4375 586.162 80.1307C585.829 80.8239 585.662 81.6742 585.662 82.6818C585.662 83.6894 585.829 84.5398 586.162 85.233C586.499 85.9261 586.952 86.4508 587.52 86.8068C588.092 87.1629 588.73 87.3409 589.435 87.3409C589.821 87.3409 590.192 87.2879 590.548 87.1818C590.904 87.0758 591.228 86.9186 591.52 86.7102C591.815 86.4981 592.065 86.2386 592.27 85.9318C592.478 85.6212 592.624 85.2652 592.707 84.8636H594.116C594.01 85.4583 593.817 85.9905 593.537 86.4602C593.257 86.9299 592.908 87.3295 592.491 87.6591C592.075 87.9848 591.607 88.233 591.088 88.4034C590.573 88.5739 590.022 88.6591 589.435 88.6591C588.442 88.6591 587.56 88.4167 586.787 87.9318C586.014 87.447 585.406 86.7576 584.963 85.8636C584.52 84.9697 584.298 83.9091 584.298 82.6818C584.298 81.4545 584.52 80.3939 584.963 79.5C585.406 78.6061 586.014 77.9167 586.787 77.4318C587.56 76.947 588.442 76.7045 589.435 76.7045C590.022 76.7045 590.573 76.7898 591.088 76.9602C591.607 77.1307 592.075 77.3807 592.491 77.7102C592.908 78.036 593.257 78.4337 593.537 78.9034C593.817 79.3693 594.01 79.9015 594.116 80.5ZM606.212 82.6818C606.212 83.9091 605.99 84.9697 605.547 85.8636C605.104 86.7576 604.496 87.447 603.723 87.9318C602.95 88.4167 602.068 88.6591 601.075 88.6591C600.083 88.6591 599.2 88.4167 598.428 87.9318C597.655 87.447 597.047 86.7576 596.604 85.8636C596.161 84.9697 595.939 83.9091 595.939 82.6818C595.939 81.4545 596.161 80.3939 596.604 79.5C597.047 78.6061 597.655 77.9167 598.428 77.4318C599.2 76.947 600.083 76.7045 601.075 76.7045C602.068 76.7045 602.95 76.947 603.723 77.4318C604.496 77.9167 605.104 78.6061 605.547 79.5C605.99 80.3939 606.212 81.4545 606.212 82.6818ZM604.848 82.6818C604.848 81.6742 604.679 80.8239 604.342 80.1307C604.009 79.4375 603.556 78.9129 602.984 78.5568C602.416 78.2008 601.78 78.0227 601.075 78.0227C600.371 78.0227 599.732 78.2008 599.161 78.5568C598.592 78.9129 598.14 79.4375 597.803 80.1307C597.469 80.8239 597.303 81.6742 597.303 82.6818C597.303 83.6894 597.469 84.5398 597.803 85.233C598.14 85.9261 598.592 86.4508 599.161 86.8068C599.732 87.1629 600.371 87.3409 601.075 87.3409C601.78 87.3409 602.416 87.1629 602.984 86.8068C603.556 86.4508 604.009 85.9261 604.342 85.233C604.679 84.5398 604.848 83.6894 604.848 82.6818ZM250.609 97.1136V95.8636H259.336V97.1136H255.677V107.5H254.268V97.1136H250.609ZM263.722 107.682C262.881 107.682 262.156 107.496 261.546 107.125C260.94 106.75 260.472 106.227 260.143 105.557C259.817 104.883 259.654 104.098 259.654 103.205C259.654 102.311 259.817 101.523 260.143 100.841C260.472 100.155 260.931 99.6212 261.518 99.2386C262.109 98.8523 262.798 98.6591 263.586 98.6591C264.04 98.6591 264.489 98.7348 264.933 98.8864C265.376 99.0379 265.779 99.2841 266.143 99.625C266.506 99.9621 266.796 100.409 267.012 100.966C267.228 101.523 267.336 102.208 267.336 103.023V103.591H260.609V102.432H265.972C265.972 101.939 265.874 101.5 265.677 101.114C265.484 100.727 265.207 100.422 264.847 100.199C264.491 99.9754 264.071 99.8636 263.586 99.8636C263.052 99.8636 262.59 99.9962 262.2 100.261C261.813 100.523 261.516 100.864 261.308 101.284C261.099 101.705 260.995 102.155 260.995 102.636V103.409C260.995 104.068 261.109 104.627 261.336 105.085C261.567 105.54 261.887 105.886 262.296 106.125C262.705 106.36 263.181 106.477 263.722 106.477C264.075 106.477 264.393 106.428 264.677 106.33C264.965 106.227 265.213 106.076 265.421 105.875C265.629 105.67 265.79 105.417 265.904 105.114L267.2 105.477C267.063 105.917 266.834 106.303 266.512 106.636C266.19 106.966 265.792 107.223 265.319 107.409C264.845 107.591 264.313 107.682 263.722 107.682ZM272.921 107.682C272.103 107.682 271.398 107.489 270.808 107.102C270.217 106.716 269.762 106.184 269.444 105.506C269.126 104.828 268.967 104.053 268.967 103.182C268.967 102.295 269.129 101.513 269.455 100.835C269.785 100.153 270.243 99.6212 270.83 99.2386C271.421 98.8523 272.111 98.6591 272.898 98.6591C273.512 98.6591 274.065 98.7727 274.558 99C275.05 99.2273 275.453 99.5455 275.768 99.9545C276.082 100.364 276.277 100.841 276.353 101.386H275.012C274.91 100.989 274.683 100.636 274.33 100.33C273.982 100.019 273.512 99.8636 272.921 99.8636C272.398 99.8636 271.94 100 271.546 100.273C271.156 100.542 270.851 100.922 270.631 101.415C270.415 101.903 270.308 102.477 270.308 103.136C270.308 103.811 270.414 104.398 270.626 104.898C270.842 105.398 271.145 105.786 271.535 106.062C271.929 106.339 272.391 106.477 272.921 106.477C273.27 106.477 273.586 106.417 273.87 106.295C274.154 106.174 274.395 106 274.592 105.773C274.789 105.545 274.929 105.273 275.012 104.955H276.353C276.277 105.47 276.09 105.934 275.79 106.347C275.495 106.756 275.103 107.081 274.614 107.324C274.129 107.562 273.565 107.682 272.921 107.682ZM279.654 102.25V107.5H278.313V95.8636H279.654V100.136H279.768C279.972 99.6856 280.279 99.3277 280.688 99.0625C281.101 98.7936 281.65 98.6591 282.336 98.6591C282.931 98.6591 283.451 98.7784 283.898 99.017C284.345 99.2519 284.692 99.6136 284.938 100.102C285.188 100.587 285.313 101.205 285.313 101.955V107.5H283.972V102.045C283.972 101.352 283.792 100.816 283.433 100.438C283.076 100.055 282.582 99.8636 281.95 99.8636C281.51 99.8636 281.116 99.9564 280.768 100.142C280.423 100.328 280.15 100.598 279.95 100.955C279.753 101.311 279.654 101.742 279.654 102.25ZM287.948 107.5V95.8636H289.357V106.25H294.766V107.5H287.948ZM299.335 107.705C298.781 107.705 298.28 107.6 297.829 107.392C297.378 107.18 297.02 106.875 296.755 106.477C296.49 106.076 296.357 105.591 296.357 105.023C296.357 104.523 296.456 104.117 296.653 103.807C296.85 103.492 297.113 103.246 297.442 103.068C297.772 102.89 298.136 102.758 298.533 102.67C298.935 102.58 299.338 102.508 299.744 102.455C300.274 102.386 300.704 102.335 301.033 102.301C301.367 102.263 301.609 102.201 301.761 102.114C301.916 102.027 301.994 101.875 301.994 101.659V101.614C301.994 101.053 301.84 100.617 301.533 100.307C301.23 99.9962 300.77 99.8409 300.153 99.8409C299.513 99.8409 299.011 99.9811 298.647 100.261C298.283 100.542 298.028 100.841 297.88 101.159L296.607 100.705C296.835 100.174 297.138 99.7614 297.516 99.4659C297.899 99.1667 298.316 98.9583 298.766 98.8409C299.221 98.7197 299.668 98.6591 300.107 98.6591C300.388 98.6591 300.71 98.6932 301.073 98.7614C301.441 98.8258 301.795 98.9602 302.136 99.1648C302.48 99.3693 302.766 99.678 302.994 100.091C303.221 100.504 303.335 101.057 303.335 101.75V107.5H301.994V106.318H301.925C301.835 106.508 301.683 106.71 301.471 106.926C301.259 107.142 300.977 107.326 300.624 107.477C300.272 107.629 299.842 107.705 299.335 107.705ZM299.539 106.5C300.069 106.5 300.516 106.396 300.88 106.188C301.247 105.979 301.524 105.71 301.71 105.381C301.899 105.051 301.994 104.705 301.994 104.341V103.114C301.937 103.182 301.812 103.244 301.619 103.301C301.429 103.354 301.21 103.402 300.96 103.443C300.713 103.481 300.473 103.515 300.238 103.545C300.007 103.572 299.819 103.595 299.675 103.614C299.327 103.659 299.001 103.733 298.698 103.835C298.399 103.934 298.156 104.083 297.971 104.284C297.789 104.481 297.698 104.75 297.698 105.091C297.698 105.557 297.871 105.909 298.215 106.148C298.564 106.383 299.005 106.5 299.539 106.5ZM305.964 107.5V95.8636H307.305V100.159H307.418C307.517 100.008 307.653 99.8144 307.827 99.5795C308.005 99.3409 308.259 99.1288 308.589 98.9432C308.922 98.7538 309.373 98.6591 309.941 98.6591C310.676 98.6591 311.324 98.8428 311.884 99.2102C312.445 99.5777 312.882 100.098 313.197 100.773C313.511 101.447 313.668 102.242 313.668 103.159C313.668 104.083 313.511 104.884 313.197 105.562C312.882 106.237 312.447 106.759 311.89 107.131C311.333 107.498 310.691 107.682 309.964 107.682C309.403 107.682 308.954 107.589 308.617 107.403C308.28 107.214 308.021 107 307.839 106.761C307.657 106.519 307.517 106.318 307.418 106.159H307.259V107.5H305.964ZM307.282 103.136C307.282 103.795 307.379 104.377 307.572 104.881C307.765 105.381 308.047 105.773 308.418 106.057C308.79 106.337 309.244 106.477 309.782 106.477C310.343 106.477 310.81 106.33 311.185 106.034C311.564 105.735 311.848 105.333 312.038 104.83C312.231 104.322 312.327 103.758 312.327 103.136C312.327 102.523 312.233 101.97 312.043 101.477C311.858 100.981 311.576 100.589 311.197 100.301C310.822 100.009 310.35 99.8636 309.782 99.8636C309.237 99.8636 308.778 100.002 308.407 100.278C308.036 100.551 307.755 100.934 307.566 101.426C307.377 101.915 307.282 102.485 307.282 103.136ZM324.719 110.773V98.7727H326.015V100.159H326.174C326.272 100.008 326.409 99.8144 326.583 99.5795C326.761 99.3409 327.015 99.1288 327.344 98.9432C327.678 98.7538 328.129 98.6591 328.697 98.6591C329.432 98.6591 330.079 98.8428 330.64 99.2102C331.201 99.5777 331.638 100.098 331.952 100.773C332.267 101.447 332.424 102.242 332.424 103.159C332.424 104.083 332.267 104.884 331.952 105.562C331.638 106.237 331.202 106.759 330.646 107.131C330.089 107.498 329.447 107.682 328.719 107.682C328.159 107.682 327.71 107.589 327.373 107.403C327.036 107.214 326.776 107 326.594 106.761C326.413 106.519 326.272 106.318 326.174 106.159H326.06V110.773H324.719ZM326.038 103.136C326.038 103.795 326.134 104.377 326.327 104.881C326.521 105.381 326.803 105.773 327.174 106.057C327.545 106.337 328 106.477 328.538 106.477C329.098 106.477 329.566 106.33 329.941 106.034C330.32 105.735 330.604 105.333 330.793 104.83C330.987 104.322 331.083 103.758 331.083 103.136C331.083 102.523 330.988 101.97 330.799 101.477C330.613 100.981 330.331 100.589 329.952 100.301C329.577 100.009 329.106 99.8636 328.538 99.8636C327.992 99.8636 327.534 100.002 327.163 100.278C326.791 100.551 326.511 100.934 326.322 101.426C326.132 101.915 326.038 102.485 326.038 103.136ZM337.038 107.705C336.485 107.705 335.983 107.6 335.532 107.392C335.081 107.18 334.723 106.875 334.458 106.477C334.193 106.076 334.06 105.591 334.06 105.023C334.06 104.523 334.159 104.117 334.356 103.807C334.553 103.492 334.816 103.246 335.146 103.068C335.475 102.89 335.839 102.758 336.237 102.67C336.638 102.58 337.041 102.508 337.447 102.455C337.977 102.386 338.407 102.335 338.737 102.301C339.07 102.263 339.312 102.201 339.464 102.114C339.619 102.027 339.697 101.875 339.697 101.659V101.614C339.697 101.053 339.543 100.617 339.237 100.307C338.933 99.9962 338.473 99.8409 337.856 99.8409C337.216 99.8409 336.714 99.9811 336.35 100.261C335.987 100.542 335.731 100.841 335.583 101.159L334.31 100.705C334.538 100.174 334.841 99.7614 335.219 99.4659C335.602 99.1667 336.019 98.9583 336.469 98.8409C336.924 98.7197 337.371 98.6591 337.81 98.6591C338.091 98.6591 338.413 98.6932 338.776 98.7614C339.144 98.8258 339.498 98.9602 339.839 99.1648C340.183 99.3693 340.469 99.678 340.697 100.091C340.924 100.504 341.038 101.057 341.038 101.75V107.5H339.697V106.318H339.629C339.538 106.508 339.386 106.71 339.174 106.926C338.962 107.142 338.68 107.326 338.327 107.477C337.975 107.629 337.545 107.705 337.038 107.705ZM337.242 106.5C337.772 106.5 338.219 106.396 338.583 106.188C338.951 105.979 339.227 105.71 339.413 105.381C339.602 105.051 339.697 104.705 339.697 104.341V103.114C339.64 103.182 339.515 103.244 339.322 103.301C339.132 103.354 338.913 103.402 338.663 103.443C338.416 103.481 338.176 103.515 337.941 103.545C337.71 103.572 337.522 103.595 337.379 103.614C337.03 103.659 336.704 103.733 336.401 103.835C336.102 103.934 335.86 104.083 335.674 104.284C335.492 104.481 335.401 104.75 335.401 105.091C335.401 105.557 335.574 105.909 335.918 106.148C336.267 106.383 336.708 106.5 337.242 106.5ZM336.265 97.3182C336.026 97.3182 335.814 97.2273 335.629 97.0455C335.447 96.8598 335.356 96.6477 335.356 96.4091C335.356 96.1477 335.447 95.9318 335.629 95.7614C335.814 95.5871 336.026 95.5 336.265 95.5C336.526 95.5 336.742 95.5871 336.913 95.7614C337.087 95.9318 337.174 96.1477 337.174 96.4091C337.174 96.6477 337.087 96.8598 336.913 97.0455C336.742 97.2273 336.526 97.3182 336.265 97.3182ZM339.538 97.3182C339.299 97.3182 339.087 97.2273 338.901 97.0455C338.719 96.8598 338.629 96.6477 338.629 96.4091C338.629 96.1477 338.719 95.9318 338.901 95.7614C339.087 95.5871 339.299 95.5 339.538 95.5C339.799 95.5 340.015 95.5871 340.185 95.7614C340.36 95.9318 340.447 96.1477 340.447 96.4091C340.447 96.6477 340.36 96.8598 340.185 97.0455C340.015 97.2273 339.799 97.3182 339.538 97.3182ZM346.053 107.705C345.5 107.705 344.998 107.6 344.548 107.392C344.097 107.18 343.739 106.875 343.474 106.477C343.209 106.076 343.076 105.591 343.076 105.023C343.076 104.523 343.174 104.117 343.371 103.807C343.568 103.492 343.832 103.246 344.161 103.068C344.491 102.89 344.854 102.758 345.252 102.67C345.654 102.58 346.057 102.508 346.462 102.455C346.993 102.386 347.423 102.335 347.752 102.301C348.085 102.263 348.328 102.201 348.479 102.114C348.635 102.027 348.712 101.875 348.712 101.659V101.614C348.712 101.053 348.559 100.617 348.252 100.307C347.949 99.9962 347.489 99.8409 346.871 99.8409C346.231 99.8409 345.729 99.9811 345.366 100.261C345.002 100.542 344.746 100.841 344.599 101.159L343.326 100.705C343.553 100.174 343.856 99.7614 344.235 99.4659C344.618 99.1667 345.034 98.9583 345.485 98.8409C345.94 98.7197 346.387 98.6591 346.826 98.6591C347.106 98.6591 347.428 98.6932 347.792 98.7614C348.159 98.8258 348.513 98.9602 348.854 99.1648C349.199 99.3693 349.485 99.678 349.712 100.091C349.94 100.504 350.053 101.057 350.053 101.75V107.5H348.712V106.318H348.644C348.553 106.508 348.402 106.71 348.19 106.926C347.978 107.142 347.695 107.326 347.343 107.477C346.991 107.629 346.561 107.705 346.053 107.705ZM346.258 106.5C346.788 106.5 347.235 106.396 347.599 106.188C347.966 105.979 348.243 105.71 348.428 105.381C348.618 105.051 348.712 104.705 348.712 104.341V103.114C348.656 103.182 348.531 103.244 348.337 103.301C348.148 103.354 347.928 103.402 347.678 103.443C347.432 103.481 347.192 103.515 346.957 103.545C346.726 103.572 346.538 103.595 346.394 103.614C346.046 103.659 345.72 103.733 345.417 103.835C345.118 103.934 344.875 104.083 344.69 104.284C344.508 104.481 344.417 104.75 344.417 105.091C344.417 105.557 344.589 105.909 344.934 106.148C345.282 106.383 345.724 106.5 346.258 106.5ZM345.281 97.3182C345.042 97.3182 344.83 97.2273 344.644 97.0455C344.462 96.8598 344.371 96.6477 344.371 96.4091C344.371 96.1477 344.462 95.9318 344.644 95.7614C344.83 95.5871 345.042 95.5 345.281 95.5C345.542 95.5 345.758 95.5871 345.928 95.7614C346.103 95.9318 346.19 96.1477 346.19 96.4091C346.19 96.6477 346.103 96.8598 345.928 97.0455C345.758 97.2273 345.542 97.3182 345.281 97.3182ZM348.553 97.3182C348.315 97.3182 348.103 97.2273 347.917 97.0455C347.735 96.8598 347.644 96.6477 347.644 96.4091C347.644 96.1477 347.735 95.9318 347.917 95.7614C348.103 95.5871 348.315 95.5 348.553 95.5C348.815 95.5 349.031 95.5871 349.201 95.7614C349.375 95.9318 349.462 96.1477 349.462 96.4091C349.462 96.6477 349.375 96.8598 349.201 97.0455C349.031 97.2273 348.815 97.3182 348.553 97.3182ZM358.683 100.727L357.478 101.068C357.402 100.867 357.29 100.672 357.143 100.483C356.999 100.29 356.802 100.131 356.552 100.006C356.302 99.8807 355.982 99.8182 355.592 99.8182C355.058 99.8182 354.612 99.9413 354.256 100.188C353.904 100.43 353.728 100.739 353.728 101.114C353.728 101.447 353.849 101.71 354.092 101.903C354.334 102.097 354.713 102.258 355.228 102.386L356.523 102.705C357.304 102.894 357.885 103.184 358.268 103.574C358.65 103.96 358.842 104.458 358.842 105.068C358.842 105.568 358.698 106.015 358.41 106.409C358.126 106.803 357.728 107.114 357.217 107.341C356.705 107.568 356.111 107.682 355.433 107.682C354.542 107.682 353.806 107.489 353.222 107.102C352.639 106.716 352.27 106.152 352.114 105.409L353.387 105.091C353.508 105.561 353.737 105.913 354.075 106.148C354.415 106.383 354.861 106.5 355.41 106.5C356.035 106.5 356.531 106.367 356.898 106.102C357.27 105.833 357.455 105.511 357.455 105.136C357.455 104.833 357.349 104.58 357.137 104.375C356.925 104.167 356.599 104.011 356.16 103.909L354.705 103.568C353.906 103.379 353.319 103.085 352.944 102.688C352.573 102.286 352.387 101.784 352.387 101.182C352.387 100.689 352.525 100.254 352.802 99.875C353.082 99.4962 353.463 99.1989 353.944 98.983C354.429 98.767 354.978 98.6591 355.592 98.6591C356.455 98.6591 357.133 98.8485 357.626 99.2273C358.122 99.6061 358.474 100.106 358.683 100.727ZM364.656 98.7727V99.9091H360.133V98.7727H364.656ZM361.451 96.6818H362.792V105C362.792 105.379 362.847 105.663 362.957 105.852C363.07 106.038 363.214 106.163 363.388 106.227C363.567 106.288 363.754 106.318 363.951 106.318C364.099 106.318 364.22 106.311 364.315 106.295C364.409 106.277 364.485 106.261 364.542 106.25L364.815 107.455C364.724 107.489 364.597 107.523 364.434 107.557C364.271 107.595 364.065 107.614 363.815 107.614C363.436 107.614 363.065 107.532 362.701 107.369C362.341 107.206 362.042 106.958 361.803 106.625C361.568 106.292 361.451 105.871 361.451 105.364V96.6818ZM370.238 107.682C369.397 107.682 368.672 107.496 368.062 107.125C367.456 106.75 366.988 106.227 366.658 105.557C366.333 104.883 366.17 104.098 366.17 103.205C366.17 102.311 366.333 101.523 366.658 100.841C366.988 100.155 367.446 99.6212 368.033 99.2386C368.624 98.8523 369.314 98.6591 370.102 98.6591C370.556 98.6591 371.005 98.7348 371.448 98.8864C371.891 99.0379 372.295 99.2841 372.658 99.625C373.022 99.9621 373.312 100.409 373.528 100.966C373.744 101.523 373.852 102.208 373.852 103.023V103.591H367.124V102.432H372.488C372.488 101.939 372.389 101.5 372.192 101.114C371.999 100.727 371.723 100.422 371.363 100.199C371.007 99.9754 370.586 99.8636 370.102 99.8636C369.567 99.8636 369.105 99.9962 368.715 100.261C368.329 100.523 368.031 100.864 367.823 101.284C367.615 101.705 367.511 102.155 367.511 102.636V103.409C367.511 104.068 367.624 104.627 367.852 105.085C368.083 105.54 368.403 105.886 368.812 106.125C369.221 106.36 369.696 106.477 370.238 106.477C370.59 106.477 370.908 106.428 371.192 106.33C371.48 106.227 371.728 106.076 371.937 105.875C372.145 105.67 372.306 105.417 372.42 105.114L373.715 105.477C373.579 105.917 373.35 106.303 373.028 106.636C372.706 106.966 372.308 107.223 371.835 107.409C371.361 107.591 370.829 107.682 370.238 107.682ZM379.687 98.7727V99.9091H375.164V98.7727H379.687ZM376.482 96.6818H377.823V105C377.823 105.379 377.878 105.663 377.988 105.852C378.102 106.038 378.246 106.163 378.42 106.227C378.598 106.288 378.785 106.318 378.982 106.318C379.13 106.318 379.251 106.311 379.346 106.295C379.441 106.277 379.516 106.261 379.573 106.25L379.846 107.455C379.755 107.489 379.628 107.523 379.465 107.557C379.302 107.595 379.096 107.614 378.846 107.614C378.467 107.614 378.096 107.532 377.732 107.369C377.372 107.206 377.073 106.958 376.835 106.625C376.6 106.292 376.482 105.871 376.482 105.364V96.6818ZM387.204 103.932V98.7727H388.545V107.5H387.204V106.023H387.113C386.908 106.466 386.59 106.843 386.158 107.153C385.727 107.46 385.181 107.614 384.522 107.614C383.977 107.614 383.492 107.494 383.067 107.256C382.643 107.013 382.31 106.65 382.067 106.165C381.825 105.676 381.704 105.061 381.704 104.318V98.7727H383.045V104.227C383.045 104.864 383.223 105.371 383.579 105.75C383.939 106.129 384.397 106.318 384.954 106.318C385.287 106.318 385.626 106.233 385.971 106.062C386.319 105.892 386.611 105.631 386.846 105.278C387.085 104.926 387.204 104.477 387.204 103.932ZM394.296 107.682C393.569 107.682 392.927 107.498 392.37 107.131C391.813 106.759 391.378 106.237 391.063 105.562C390.749 104.884 390.592 104.083 390.592 103.159C390.592 102.242 390.749 101.447 391.063 100.773C391.378 100.098 391.815 99.5777 392.376 99.2102C392.936 98.8428 393.584 98.6591 394.319 98.6591C394.887 98.6591 395.336 98.7538 395.665 98.9432C395.999 99.1288 396.253 99.3409 396.427 99.5795C396.605 99.8144 396.743 100.008 396.842 100.159H396.955V95.8636H398.296V107.5H397.001V106.159H396.842C396.743 106.318 396.603 106.519 396.421 106.761C396.239 107 395.98 107.214 395.643 107.403C395.306 107.589 394.857 107.682 394.296 107.682ZM394.478 106.477C395.016 106.477 395.47 106.337 395.842 106.057C396.213 105.773 396.495 105.381 396.688 104.881C396.881 104.377 396.978 103.795 396.978 103.136C396.978 102.485 396.883 101.915 396.694 101.426C396.504 100.934 396.224 100.551 395.853 100.278C395.482 100.002 395.023 99.8636 394.478 99.8636C393.91 99.8636 393.436 100.009 393.058 100.301C392.683 100.589 392.4 100.981 392.211 101.477C392.025 101.97 391.933 102.523 391.933 103.136C391.933 103.758 392.027 104.322 392.217 104.83C392.41 105.333 392.694 105.735 393.069 106.034C393.448 106.33 393.917 106.477 394.478 106.477ZM402.711 95.8636L402.597 104.227H401.279L401.165 95.8636H402.711ZM401.938 107.591C401.658 107.591 401.417 107.491 401.217 107.29C401.016 107.089 400.915 106.848 400.915 106.568C400.915 106.288 401.016 106.047 401.217 105.847C401.417 105.646 401.658 105.545 401.938 105.545C402.219 105.545 402.459 105.646 402.66 105.847C402.861 106.047 402.961 106.288 402.961 106.568C402.961 106.754 402.914 106.924 402.819 107.08C402.728 107.235 402.605 107.36 402.45 107.455C402.298 107.545 402.128 107.591 401.938 107.591Z" fill="#A4A4A4"/>
<defs>
<clipPath id="clip0_257_5569">
<rect width="16" height="16" fill="white" transform="translate(210 37.5)"/>
</clipPath>
<clipPath id="clip1_257_5569">
<rect width="16" height="16" fill="white" transform="translate(428 37.5)"/>
</clipPath>
</defs>
</svg>
