<svg width="130" height="83" viewBox="0 0 130 83" fill="none" xmlns="http://www.w3.org/2000/svg">
<rect x="48.25" y="0.75" width="33.5" height="33.5" rx="16.75" fill="#24143F"/>
<rect x="48.25" y="0.75" width="33.5" height="33.5" rx="16.75" stroke="#C27CFF" stroke-width="1.5"/>
<path d="M64.334 9.93066C64.5305 9.32628 65.3444 9.28869 65.6182 9.81738L65.666 9.93066L67.1592 14.5283H71.9932C72.6711 14.5285 72.9527 15.3954 72.4043 15.7939L68.4941 18.6348L69.9873 23.2324C70.1967 23.8773 69.4587 24.4132 68.9102 24.0146L65 21.1738L61.0898 24.0146C60.5413 24.4132 59.8033 23.8773 60.0127 23.2324L61.5049 18.6348L57.5957 15.7939C57.0473 15.3954 57.3289 14.5285 58.0068 14.5283H62.8408L64.334 9.93066Z" stroke="#C27CFF"/>
<path d="M20.0941 47.9119V46.8182H27.7305V47.9119H24.5288V57H23.2958V47.9119H20.0941ZM31.1609 57.179C30.677 57.179 30.2378 57.0878 29.8434 56.9055C29.449 56.7199 29.1358 56.4531 28.9038 56.1051C28.6718 55.7538 28.5558 55.3295 28.5558 54.8324C28.5558 54.3949 28.6419 54.0402 28.8143 53.7685C28.9866 53.4934 29.217 53.2779 29.5053 53.1222C29.7937 52.9664 30.1119 52.8504 30.4599 52.7741C30.8112 52.6946 31.1642 52.6316 31.5188 52.5852C31.9828 52.5256 32.359 52.4808 32.6474 52.451C32.939 52.4179 33.1512 52.3632 33.2837 52.2869C33.4196 52.2107 33.4876 52.0781 33.4876 51.8892V51.8494C33.4876 51.3589 33.3533 50.9777 33.0849 50.706C32.8197 50.4342 32.417 50.2983 31.8768 50.2983C31.3166 50.2983 30.8775 50.4209 30.5593 50.6662C30.2411 50.9115 30.0174 51.1733 29.8881 51.4517L28.7745 51.054C28.9734 50.59 29.2385 50.2287 29.57 49.9702C29.9047 49.7083 30.2693 49.526 30.6637 49.4233C31.0614 49.3172 31.4525 49.2642 31.837 49.2642C32.0823 49.2642 32.364 49.294 32.6822 49.3537C33.0037 49.41 33.3136 49.5277 33.6119 49.7067C33.9135 49.8857 34.1637 50.1558 34.3626 50.517C34.5614 50.8783 34.6609 51.3622 34.6609 51.9688V57H33.4876V55.9659H33.4279C33.3484 56.1316 33.2158 56.3089 33.0302 56.4979C32.8446 56.6868 32.5977 56.8475 32.2894 56.9801C31.9812 57.1127 31.605 57.179 31.1609 57.179ZM31.3398 56.125C31.8039 56.125 32.195 56.0339 32.5131 55.8516C32.8346 55.6693 33.0766 55.4339 33.239 55.1456C33.4047 54.8572 33.4876 54.554 33.4876 54.2358V53.1619C33.4379 53.2216 33.3285 53.2763 33.1594 53.326C32.9937 53.3724 32.8015 53.4138 32.5827 53.4503C32.3673 53.4834 32.1568 53.5133 31.9513 53.5398C31.7492 53.563 31.5851 53.5829 31.4592 53.5994C31.1542 53.6392 30.8692 53.7038 30.604 53.7933C30.3422 53.8795 30.1301 54.0104 29.9677 54.1861C29.8086 54.3584 29.729 54.5937 29.729 54.892C29.729 55.2997 29.8799 55.608 30.1815 55.8168C30.4864 56.0223 30.8725 56.125 31.3398 56.125ZM30.4847 48.0909C30.2759 48.0909 30.0903 48.0114 29.9279 47.8523C29.7688 47.6899 29.6893 47.5043 29.6893 47.2955C29.6893 47.0668 29.7688 46.8778 29.9279 46.7287C30.0903 46.5762 30.2759 46.5 30.4847 46.5C30.7134 46.5 30.9023 46.5762 31.0515 46.7287C31.204 46.8778 31.2802 47.0668 31.2802 47.2955C31.2802 47.5043 31.204 47.6899 31.0515 47.8523C30.9023 48.0114 30.7134 48.0909 30.4847 48.0909ZM33.3484 48.0909C33.1396 48.0909 32.954 48.0114 32.7915 47.8523C32.6325 47.6899 32.5529 47.5043 32.5529 47.2955C32.5529 47.0668 32.6325 46.8778 32.7915 46.7287C32.954 46.5762 33.1396 46.5 33.3484 46.5C33.5771 46.5 33.766 46.5762 33.9151 46.7287C34.0676 46.8778 34.1438 47.0668 34.1438 47.2955C34.1438 47.5043 34.0676 47.6899 33.9151 47.8523C33.766 48.0114 33.5771 48.0909 33.3484 48.0909ZM37.9757 52.4062V57H36.8024V46.8182H37.9757V50.5568H38.0751C38.2541 50.1624 38.5225 49.8492 38.8805 49.6172C39.2418 49.3819 39.7224 49.2642 40.3223 49.2642C40.8426 49.2642 41.2984 49.3686 41.6895 49.5774C42.0806 49.7829 42.3838 50.0994 42.5993 50.527C42.818 50.9512 42.9274 51.4915 42.9274 52.1477V57H41.7541V52.2273C41.7541 51.6207 41.5967 51.1518 41.2818 50.8203C40.9702 50.4856 40.5377 50.3182 39.9842 50.3182C39.5997 50.3182 39.255 50.3994 38.9501 50.5618C38.6485 50.7242 38.4099 50.9612 38.2342 51.2727C38.0618 51.5843 37.9757 51.9621 37.9757 52.4062ZM48.3949 49.3636V50.358H44.4375V49.3636H48.3949ZM45.5909 47.5341H46.7642V54.8125C46.7642 55.1439 46.8123 55.3925 46.9084 55.5582C47.0078 55.7206 47.1338 55.83 47.2862 55.8864C47.442 55.9394 47.6061 55.9659 47.7784 55.9659C47.9077 55.9659 48.0137 55.9593 48.0966 55.946C48.1795 55.9295 48.2457 55.9162 48.2955 55.9062L48.5341 56.9602C48.4545 56.9901 48.3435 57.0199 48.201 57.0497C48.0585 57.0829 47.8778 57.0994 47.6591 57.0994C47.3277 57.0994 47.0028 57.0282 46.6847 56.8857C46.3698 56.7431 46.108 56.526 45.8991 56.2344C45.6937 55.9427 45.5909 55.5748 45.5909 55.1307V47.5341ZM50.1598 57V49.3636H51.3331V57H50.1598ZM50.7564 48.0909C50.5277 48.0909 50.3305 48.013 50.1648 47.8572C50.0024 47.7015 49.9212 47.5142 49.9212 47.2955C49.9212 47.0767 50.0024 46.8894 50.1648 46.7337C50.3305 46.5779 50.5277 46.5 50.7564 46.5C50.9851 46.5 51.1806 46.5779 51.343 46.7337C51.5088 46.8894 51.5916 47.0767 51.5916 47.2955C51.5916 47.5142 51.5088 47.7015 51.343 47.8572C51.1806 48.013 50.9851 48.0909 50.7564 48.0909ZM58.5133 54.2159L58.4934 52.7642H58.7321L62.073 49.3636H63.5247L59.965 52.9631H59.8656L58.5133 54.2159ZM57.4196 57V46.8182H58.5929V57H57.4196ZM62.2718 57L59.2889 53.2216L60.1241 52.4062L63.7633 57H62.2718ZM67.8226 57.1591C67.1332 57.1591 66.5284 56.995 66.008 56.6669C65.4909 56.3388 65.0866 55.8797 64.7949 55.2898C64.5066 54.6998 64.3624 54.0104 64.3624 53.2216C64.3624 52.4261 64.5066 51.7318 64.7949 51.1385C65.0866 50.5452 65.4909 50.0845 66.008 49.7564C66.5284 49.4283 67.1332 49.2642 67.8226 49.2642C68.512 49.2642 69.1152 49.4283 69.6323 49.7564C70.1526 50.0845 70.557 50.5452 70.8453 51.1385C71.137 51.7318 71.2828 52.4261 71.2828 53.2216C71.2828 54.0104 71.137 54.6998 70.8453 55.2898C70.557 55.8797 70.1526 56.3388 69.6323 56.6669C69.1152 56.995 68.512 57.1591 67.8226 57.1591ZM67.8226 56.1051C68.3463 56.1051 68.7772 55.9709 69.1152 55.7024C69.4533 55.4339 69.7035 55.081 69.8659 54.6435C70.0284 54.206 70.1096 53.732 70.1096 53.2216C70.1096 52.7112 70.0284 52.2356 69.8659 51.7947C69.7035 51.3539 69.4533 50.9976 69.1152 50.7259C68.7772 50.4541 68.3463 50.3182 67.8226 50.3182C67.2989 50.3182 66.8681 50.4541 66.53 50.7259C66.1919 50.9976 65.9417 51.3539 65.7793 51.7947C65.6169 52.2356 65.5357 52.7112 65.5357 53.2216C65.5357 53.732 65.6169 54.206 65.7793 54.6435C65.9417 55.081 66.1919 55.4339 66.53 55.7024C66.8681 55.9709 67.2989 56.1051 67.8226 56.1051ZM76.1562 60.0227C75.5895 60.0227 75.1023 59.9498 74.6946 59.804C74.2869 59.6615 73.9472 59.4725 73.6754 59.2372C73.407 59.0052 73.1932 58.7566 73.0341 58.4915L73.9688 57.8352C74.0748 57.9744 74.209 58.1335 74.3714 58.3125C74.5339 58.4948 74.7559 58.6522 75.0376 58.7848C75.3227 58.9207 75.6955 58.9886 76.1562 58.9886C76.7727 58.9886 77.2815 58.8395 77.6825 58.5412C78.0836 58.2429 78.2841 57.7756 78.2841 57.1392V55.5881H78.1847C78.0985 55.7273 77.9759 55.8996 77.8168 56.1051C77.661 56.3073 77.4356 56.4879 77.1406 56.647C76.849 56.8028 76.4545 56.8807 75.9574 56.8807C75.3409 56.8807 74.7874 56.7348 74.2969 56.4432C73.8097 56.1515 73.4235 55.7273 73.1385 55.1705C72.8568 54.6136 72.7159 53.9375 72.7159 53.142C72.7159 52.3598 72.8535 51.6787 73.1286 51.0987C73.4036 50.5154 73.7865 50.0646 74.277 49.7464C74.7675 49.425 75.3343 49.2642 75.9773 49.2642C76.4744 49.2642 76.8688 49.3471 77.1605 49.5128C77.4555 49.6752 77.6809 49.8608 77.8366 50.0696C77.9957 50.2751 78.1184 50.4441 78.2045 50.5767H78.3239V49.3636H79.4574V57.2188C79.4574 57.875 79.3082 58.4086 79.0099 58.8196C78.715 59.2339 78.3172 59.5372 77.8168 59.7294C77.3196 59.925 76.7661 60.0227 76.1562 60.0227ZM76.1165 55.8267C76.5871 55.8267 76.9848 55.719 77.3097 55.5036C77.6345 55.2881 77.8814 54.9782 78.0504 54.5739C78.2195 54.1695 78.304 53.6856 78.304 53.1222C78.304 52.572 78.2211 52.0864 78.0554 51.6655C77.8897 51.2446 77.6444 50.9148 77.3196 50.6761C76.9948 50.4375 76.5938 50.3182 76.1165 50.3182C75.6193 50.3182 75.205 50.4441 74.8736 50.696C74.5455 50.9479 74.2985 51.286 74.1328 51.7102C73.9704 52.1345 73.8892 52.6051 73.8892 53.1222C73.8892 53.6525 73.9721 54.1214 74.1378 54.5291C74.3068 54.9335 74.5554 55.2517 74.8835 55.4837C75.215 55.7124 75.6259 55.8267 76.1165 55.8267ZM86.4176 53.8778V49.3636H87.5909V57H86.4176V55.7074H86.3381C86.1591 56.0952 85.8807 56.425 85.5028 56.6967C85.125 56.9652 84.6477 57.0994 84.071 57.0994C83.5938 57.0994 83.1695 56.995 82.7983 56.7862C82.4271 56.5741 82.1354 56.2559 81.9233 55.8317C81.7112 55.4041 81.6051 54.8655 81.6051 54.2159V49.3636H82.7784V54.1364C82.7784 54.6932 82.9342 55.1373 83.2457 55.4688C83.5606 55.8002 83.9616 55.9659 84.4489 55.9659C84.7405 55.9659 85.0372 55.8913 85.3388 55.7422C85.6437 55.593 85.8989 55.3643 86.1044 55.0561C86.3132 54.7479 86.4176 54.3551 86.4176 53.8778ZM93.0609 49.3636V50.358H89.1035V49.3636H93.0609ZM90.2569 47.5341H91.4302V54.8125C91.4302 55.1439 91.4783 55.3925 91.5744 55.5582C91.6738 55.7206 91.7998 55.83 91.9522 55.8864C92.108 55.9394 92.2721 55.9659 92.4444 55.9659C92.5737 55.9659 92.6797 55.9593 92.7626 55.946C92.8455 55.9295 92.9118 55.9162 92.9615 55.9062L93.2001 56.9602C93.1206 56.9901 93.0095 57.0199 92.867 57.0497C92.7245 57.0829 92.5439 57.0994 92.3251 57.0994C91.9937 57.0994 91.6689 57.0282 91.3507 56.8857C91.0358 56.7431 90.774 56.526 90.5652 56.2344C90.3597 55.9427 90.2569 55.5748 90.2569 55.1307V47.5341ZM99.6383 53.8778V49.3636H100.812V57H99.6383V55.7074H99.5588C99.3798 56.0952 99.1014 56.425 98.7235 56.6967C98.3457 56.9652 97.8684 57.0994 97.2917 57.0994C96.8145 57.0994 96.3902 56.995 96.019 56.7862C95.6478 56.5741 95.3561 56.2559 95.144 55.8317C94.9319 55.4041 94.8258 54.8655 94.8258 54.2159V49.3636H95.9991V54.1364C95.9991 54.6932 96.1549 55.1373 96.4664 55.4688C96.7813 55.8002 97.1824 55.9659 97.6696 55.9659C97.9612 55.9659 98.2579 55.8913 98.5595 55.7422C98.8644 55.593 99.1196 55.3643 99.3251 55.0561C99.5339 54.7479 99.6383 54.3551 99.6383 53.8778ZM105.844 57.1591C105.208 57.1591 104.646 56.9983 104.159 56.6768C103.672 56.352 103.29 55.8946 103.015 55.3047C102.74 54.7114 102.603 54.0104 102.603 53.2017C102.603 52.3996 102.74 51.7036 103.015 51.1136C103.29 50.5237 103.673 50.0679 104.164 49.7464C104.654 49.425 105.221 49.2642 105.864 49.2642C106.361 49.2642 106.754 49.3471 107.042 49.5128C107.334 49.6752 107.556 49.8608 107.708 50.0696C107.864 50.2751 107.985 50.4441 108.071 50.5767H108.171V46.8182H109.344V57H108.211V55.8267H108.071C107.985 55.9659 107.863 56.1416 107.703 56.3537C107.544 56.5625 107.317 56.7498 107.022 56.9155C106.727 57.0779 106.335 57.1591 105.844 57.1591ZM106.003 56.1051C106.474 56.1051 106.872 55.9825 107.196 55.7372C107.521 55.4886 107.768 55.1456 107.937 54.7081C108.106 54.2673 108.191 53.7585 108.191 53.1818C108.191 52.6117 108.108 52.1129 107.942 51.6854C107.776 51.2545 107.531 50.9197 107.206 50.6811C106.882 50.4392 106.48 50.3182 106.003 50.3182C105.506 50.3182 105.092 50.4458 104.76 50.701C104.432 50.9529 104.185 51.2959 104.02 51.7301C103.857 52.161 103.776 52.6449 103.776 53.1818C103.776 53.7254 103.859 54.2192 104.025 54.6634C104.194 55.1042 104.442 55.4555 104.77 55.7173C105.102 55.9759 105.513 56.1051 106.003 56.1051Z" fill="#C27CFF"/>
<path d="M47.0327 76.9545V75.017L51.8906 67.3636H53.5611V70.0455H52.5724L49.5099 74.892V74.983H56.4134V76.9545H47.0327ZM52.6179 79V76.3636L52.6634 75.5057V67.3636H54.9702V79H52.6179ZM63.1435 66.8182L59.3935 80.75H57.3082L61.0582 66.8182H63.1435ZM64.2869 79V77.2273L68.429 73.392C68.7813 73.0511 69.0767 72.7443 69.3153 72.4716C69.5578 72.1989 69.7415 71.9318 69.8665 71.6705C69.9915 71.4053 70.054 71.1193 70.054 70.8125C70.054 70.4716 69.9763 70.178 69.821 69.9318C69.6657 69.6818 69.4536 69.4905 69.1847 69.358C68.9157 69.2216 68.6108 69.1534 68.2699 69.1534C67.9138 69.1534 67.6032 69.2254 67.3381 69.3693C67.0729 69.5133 66.8684 69.7197 66.7244 69.9886C66.5805 70.2576 66.5085 70.5777 66.5085 70.9489H64.1733C64.1733 70.1875 64.3456 69.5265 64.6903 68.9659C65.035 68.4053 65.518 67.9716 66.1392 67.6648C66.7604 67.358 67.4763 67.2045 68.2869 67.2045C69.1203 67.2045 69.8456 67.3523 70.4631 67.6477C71.0843 67.9394 71.5672 68.3447 71.9119 68.8636C72.2566 69.3826 72.429 69.9773 72.429 70.6477C72.429 71.0871 72.3419 71.5208 72.1676 71.9489C71.9972 72.3769 71.6922 72.8523 71.2528 73.375C70.8134 73.8939 70.1941 74.517 69.3949 75.2443L67.696 76.9091V76.9886H72.5824V79H64.2869ZM78.6151 79.1591C77.812 79.1591 77.0961 79.0114 76.4673 78.7159C75.8423 78.4205 75.3461 78.0133 74.9787 77.4943C74.6113 76.9754 74.42 76.3807 74.4048 75.7102H76.7912C76.8177 76.161 77.0071 76.5265 77.3594 76.8068C77.7116 77.0871 78.1302 77.2273 78.6151 77.2273C79.0014 77.2273 79.3423 77.142 79.6378 76.9716C79.937 76.7973 80.17 76.5568 80.3366 76.25C80.5071 75.9394 80.5923 75.5833 80.5923 75.1818C80.5923 74.7727 80.5052 74.4129 80.331 74.1023C80.1605 73.7917 79.9238 73.5492 79.6207 73.375C79.3177 73.2008 78.9711 73.1117 78.581 73.108C78.2401 73.108 77.9086 73.178 77.5866 73.3182C77.2685 73.4583 77.0204 73.6496 76.8423 73.892L74.6548 73.5L75.206 67.3636H82.3196V69.375H77.2344L76.9332 72.2898H77.0014C77.206 72.0019 77.5147 71.7633 77.9276 71.5739C78.3404 71.3845 78.8026 71.2898 79.3139 71.2898C80.0147 71.2898 80.6397 71.4545 81.1889 71.7841C81.7382 72.1136 82.1719 72.5663 82.4901 73.142C82.8082 73.714 82.9654 74.3731 82.9616 75.1193C82.9654 75.9034 82.7836 76.6004 82.4162 77.2102C82.0526 77.8163 81.5431 78.2936 80.8878 78.642C80.2363 78.9867 79.4787 79.1591 78.6151 79.1591Z" fill="#C27CFF"/>
</svg>
