<svg width="269" height="48" viewBox="0 0 269 48" fill="none" xmlns="http://www.w3.org/2000/svg">
<rect width="269" height="48" rx="8" fill="#FF8400"/>
<path d="M71.642 29.5H69.392L73.4886 17.8636H76.0909L80.1932 29.5H77.9432L74.8352 20.25H74.7443L71.642 29.5ZM71.7159 24.9375H77.8523V26.6307H71.7159V24.9375ZM83.6918 17.8636V29.5H81.6349V17.8636H83.6918ZM91.3693 25.8295V20.7727H93.4261V29.5H91.4318V27.9489H91.3409C91.1439 28.4375 90.8201 28.8371 90.3693 29.1477C89.9223 29.4583 89.3712 29.6136 88.7159 29.6136C88.1439 29.6136 87.6383 29.4867 87.1989 29.233C86.7633 28.9754 86.4223 28.6023 86.1761 28.1136C85.9299 27.6212 85.8068 27.0265 85.8068 26.3295V20.7727H87.8636V26.0114C87.8636 26.5644 88.0152 27.0038 88.3182 27.3295C88.6212 27.6553 89.0189 27.8182 89.5114 27.8182C89.8144 27.8182 90.108 27.7443 90.392 27.5966C90.6761 27.4489 90.9091 27.2292 91.0909 26.9375C91.2765 26.642 91.3693 26.2727 91.3693 25.8295ZM102.439 23.0795L100.564 23.2841C100.511 23.0947 100.418 22.9167 100.286 22.75C100.157 22.5833 99.9825 22.4489 99.7628 22.3466C99.5431 22.2443 99.2741 22.1932 98.956 22.1932C98.5279 22.1932 98.1681 22.286 97.8764 22.4716C97.5885 22.6572 97.4465 22.8977 97.4503 23.1932C97.4465 23.447 97.5393 23.6534 97.7287 23.8125C97.9219 23.9716 98.2401 24.1023 98.6832 24.2045L100.172 24.5227C100.998 24.7008 101.611 24.983 102.013 25.3693C102.418 25.7557 102.623 26.2614 102.626 26.8864C102.623 27.4356 102.462 27.9205 102.143 28.3409C101.829 28.7576 101.392 29.0833 100.831 29.3182C100.27 29.553 99.6264 29.6705 98.8991 29.6705C97.831 29.6705 96.9711 29.447 96.3196 29C95.6681 28.5492 95.2798 27.9223 95.1548 27.1193L97.1605 26.9261C97.2514 27.3201 97.4446 27.6174 97.7401 27.8182C98.0355 28.0189 98.42 28.1193 98.8935 28.1193C99.3821 28.1193 99.7741 28.0189 100.07 27.8182C100.369 27.6174 100.518 27.3693 100.518 27.0739C100.518 26.8239 100.422 26.6174 100.229 26.4545C100.039 26.2917 99.7438 26.1667 99.3423 26.0795L97.8537 25.767C97.0166 25.5928 96.3973 25.2992 95.9957 24.8864C95.5942 24.4697 95.3954 23.9432 95.3991 23.3068C95.3954 22.7689 95.5412 22.303 95.8366 21.9091C96.1359 21.5114 96.5507 21.2045 97.081 20.9886C97.6151 20.7689 98.2306 20.6591 98.9276 20.6591C99.9503 20.6591 100.755 20.8769 101.342 21.3125C101.933 21.7481 102.299 22.3371 102.439 23.0795ZM108.68 20.7727V22.3636H103.663V20.7727H108.68ZM104.902 18.6818H106.959V26.875C106.959 27.1515 107 27.3636 107.084 27.5114C107.171 27.6553 107.285 27.7538 107.425 27.8068C107.565 27.8598 107.72 27.8864 107.891 27.8864C108.019 27.8864 108.137 27.8769 108.243 27.858C108.353 27.839 108.436 27.822 108.493 27.8068L108.839 29.4148C108.73 29.4527 108.572 29.4943 108.368 29.5398C108.167 29.5852 107.921 29.6117 107.629 29.6193C107.114 29.6345 106.65 29.5568 106.237 29.3864C105.824 29.2121 105.497 28.9432 105.254 28.5795C105.016 28.2159 104.898 27.7614 104.902 27.2159V18.6818ZM112.912 29.6761C112.359 29.6761 111.861 29.5777 111.418 29.3807C110.978 29.1799 110.63 28.8845 110.372 28.4943C110.118 28.1042 109.991 27.6231 109.991 27.0511C109.991 26.5587 110.082 26.1515 110.264 25.8295C110.446 25.5076 110.694 25.25 111.009 25.0568C111.323 24.8636 111.677 24.7178 112.071 24.6193C112.469 24.517 112.88 24.4432 113.304 24.3977C113.815 24.3447 114.23 24.2973 114.548 24.2557C114.866 24.2102 115.098 24.142 115.241 24.0511C115.389 23.9564 115.463 23.8106 115.463 23.6136V23.5795C115.463 23.1515 115.336 22.8201 115.082 22.5852C114.829 22.3504 114.463 22.233 113.986 22.233C113.482 22.233 113.082 22.3428 112.787 22.5625C112.495 22.7822 112.298 23.0417 112.196 23.3409L110.276 23.0682C110.427 22.5379 110.677 22.0947 111.026 21.7386C111.374 21.3788 111.8 21.1098 112.304 20.9318C112.808 20.75 113.365 20.6591 113.974 20.6591C114.395 20.6591 114.813 20.7083 115.23 20.8068C115.647 20.9053 116.027 21.0682 116.372 21.2955C116.717 21.5189 116.993 21.8239 117.202 22.2102C117.414 22.5966 117.52 23.0795 117.52 23.6591V29.5H115.543V28.3011H115.474C115.349 28.5436 115.173 28.7708 114.946 28.983C114.723 29.1913 114.44 29.3598 114.099 29.4886C113.762 29.6136 113.366 29.6761 112.912 29.6761ZM113.446 28.1648C113.859 28.1648 114.217 28.0833 114.52 27.9205C114.823 27.7538 115.056 27.5341 115.219 27.2614C115.385 26.9886 115.469 26.6913 115.469 26.3693V25.3409C115.404 25.3939 115.295 25.4432 115.139 25.4886C114.988 25.5341 114.817 25.5739 114.628 25.608C114.438 25.642 114.251 25.6723 114.065 25.6989C113.88 25.7254 113.719 25.7481 113.582 25.767C113.276 25.8087 113.001 25.8769 112.759 25.9716C112.516 26.0663 112.325 26.1989 112.185 26.3693C112.045 26.536 111.974 26.7519 111.974 27.017C111.974 27.3958 112.113 27.6818 112.389 27.875C112.666 28.0682 113.018 28.1648 113.446 28.1648ZM123.557 29.5V20.7727H125.523V22.2557H125.625C125.807 21.7557 126.108 21.3655 126.528 21.0852C126.949 20.8011 127.451 20.6591 128.034 20.6591C128.625 20.6591 129.123 20.803 129.528 21.0909C129.938 21.375 130.225 21.7633 130.392 22.2557H130.483C130.676 21.7708 131.002 21.3845 131.46 21.0966C131.922 20.8049 132.47 20.6591 133.102 20.6591C133.905 20.6591 134.561 20.9129 135.068 21.4205C135.576 21.928 135.83 22.6686 135.83 23.642V29.5H133.767V23.9602C133.767 23.4186 133.623 23.0227 133.335 22.7727C133.047 22.5189 132.695 22.392 132.278 22.392C131.782 22.392 131.394 22.5473 131.114 22.858C130.837 23.1648 130.699 23.5644 130.699 24.0568V29.5H128.682V23.875C128.682 23.4242 128.545 23.0644 128.273 22.7955C128.004 22.5265 127.652 22.392 127.216 22.392C126.92 22.392 126.652 22.4678 126.409 22.6193C126.167 22.767 125.973 22.9773 125.83 23.25C125.686 23.5189 125.614 23.8333 125.614 24.1932V29.5H123.557ZM140.428 29.6761C139.875 29.6761 139.376 29.5777 138.933 29.3807C138.494 29.1799 138.145 28.8845 137.888 28.4943C137.634 28.1042 137.507 27.6231 137.507 27.0511C137.507 26.5587 137.598 26.1515 137.78 25.8295C137.962 25.5076 138.21 25.25 138.524 25.0568C138.839 24.8636 139.193 24.7178 139.587 24.6193C139.984 24.517 140.395 24.4432 140.82 24.3977C141.331 24.3447 141.746 24.2973 142.064 24.2557C142.382 24.2102 142.613 24.142 142.757 24.0511C142.905 23.9564 142.979 23.8106 142.979 23.6136V23.5795C142.979 23.1515 142.852 22.8201 142.598 22.5852C142.344 22.3504 141.979 22.233 141.501 22.233C140.998 22.233 140.598 22.3428 140.303 22.5625C140.011 22.7822 139.814 23.0417 139.712 23.3409L137.791 23.0682C137.943 22.5379 138.193 22.0947 138.541 21.7386C138.89 21.3788 139.316 21.1098 139.82 20.9318C140.323 20.75 140.88 20.6591 141.49 20.6591C141.911 20.6591 142.329 20.7083 142.746 20.8068C143.162 20.9053 143.543 21.0682 143.888 21.2955C144.232 21.5189 144.509 21.8239 144.717 22.2102C144.929 22.5966 145.036 23.0795 145.036 23.6591V29.5H143.058V28.3011H142.99C142.865 28.5436 142.689 28.7708 142.462 28.983C142.238 29.1913 141.956 29.3598 141.615 29.4886C141.278 29.6136 140.882 29.6761 140.428 29.6761ZM140.962 28.1648C141.375 28.1648 141.732 28.0833 142.036 27.9205C142.339 27.7538 142.571 27.5341 142.734 27.2614C142.901 26.9886 142.984 26.6913 142.984 26.3693V25.3409C142.92 25.3939 142.81 25.4432 142.655 25.4886C142.503 25.5341 142.333 25.5739 142.143 25.608C141.954 25.642 141.767 25.6723 141.581 25.6989C141.395 25.7254 141.234 25.7481 141.098 25.767C140.791 25.8087 140.517 25.8769 140.274 25.9716C140.032 26.0663 139.84 26.1989 139.7 26.3693C139.56 26.536 139.49 26.7519 139.49 27.017C139.49 27.3958 139.628 27.6818 139.905 27.875C140.181 28.0682 140.534 28.1648 140.962 28.1648ZM139.882 19.4886C139.583 19.4886 139.323 19.3826 139.104 19.1705C138.888 18.9583 138.78 18.7083 138.78 18.4205C138.78 18.1174 138.888 17.8636 139.104 17.6591C139.323 17.4508 139.583 17.3466 139.882 17.3466C140.189 17.3466 140.446 17.4508 140.655 17.6591C140.867 17.8636 140.973 18.1174 140.973 18.4205C140.973 18.7083 140.867 18.9583 140.655 19.1705C140.446 19.3826 140.189 19.4886 139.882 19.4886ZM143.291 19.4886C142.992 19.4886 142.732 19.3826 142.513 19.1705C142.297 18.9583 142.189 18.7083 142.189 18.4205C142.189 18.1174 142.297 17.8636 142.513 17.6591C142.732 17.4508 142.992 17.3466 143.291 17.3466C143.598 17.3466 143.856 17.4508 144.064 17.6591C144.276 17.8636 144.382 18.1174 144.382 18.4205C144.382 18.7083 144.276 18.9583 144.064 19.1705C143.856 19.3826 143.598 19.4886 143.291 19.4886ZM149.161 24.3864V29.5H147.104V20.7727H149.07V22.2557H149.172C149.373 21.767 149.693 21.3788 150.132 21.0909C150.575 20.803 151.123 20.6591 151.774 20.6591C152.376 20.6591 152.901 20.7879 153.348 21.0455C153.799 21.303 154.147 21.6761 154.393 22.1648C154.643 22.6534 154.767 23.2462 154.763 23.9432V29.5H152.706V24.2614C152.706 23.678 152.554 23.2216 152.251 22.892C151.952 22.5625 151.537 22.3977 151.007 22.3977C150.647 22.3977 150.327 22.4773 150.047 22.6364C149.77 22.7917 149.553 23.017 149.393 23.3125C149.238 23.608 149.161 23.9659 149.161 24.3864ZM160.649 32.9545C159.911 32.9545 159.276 32.8542 158.746 32.6534C158.215 32.4564 157.789 32.1913 157.467 31.858C157.145 31.5246 156.922 31.1553 156.797 30.75L158.649 30.3011C158.732 30.4716 158.854 30.6402 159.013 30.8068C159.172 30.9773 159.386 31.1174 159.655 31.2273C159.928 31.3409 160.27 31.3977 160.683 31.3977C161.267 31.3977 161.75 31.2557 162.132 30.9716C162.515 30.6913 162.706 30.2292 162.706 29.5852V27.9318H162.604C162.498 28.1439 162.342 28.3617 162.138 28.5852C161.937 28.8087 161.67 28.9962 161.337 29.1477C161.007 29.2992 160.592 29.375 160.092 29.375C159.422 29.375 158.814 29.2178 158.268 28.9034C157.727 28.5852 157.295 28.1117 156.973 27.483C156.655 26.8504 156.496 26.0587 156.496 25.108C156.496 24.1496 156.655 23.3409 156.973 22.6818C157.295 22.0189 157.729 21.517 158.274 21.1761C158.82 20.8314 159.428 20.6591 160.098 20.6591C160.609 20.6591 161.03 20.7462 161.359 20.9205C161.693 21.0909 161.958 21.2973 162.155 21.5398C162.352 21.7784 162.501 22.0038 162.604 22.2159H162.717V20.7727H164.746V29.642C164.746 30.3883 164.568 31.0057 164.212 31.4943C163.856 31.983 163.369 32.3485 162.751 32.5909C162.134 32.8333 161.433 32.9545 160.649 32.9545ZM160.666 27.7614C161.102 27.7614 161.473 27.6553 161.78 27.4432C162.087 27.2311 162.32 26.9261 162.479 26.5284C162.638 26.1307 162.717 25.6534 162.717 25.0966C162.717 24.5473 162.638 24.0663 162.479 23.6534C162.323 23.2405 162.092 22.9205 161.786 22.6932C161.482 22.4621 161.109 22.3466 160.666 22.3466C160.208 22.3466 159.825 22.4659 159.518 22.7045C159.212 22.9432 158.981 23.2708 158.825 23.6875C158.67 24.1004 158.592 24.5701 158.592 25.0966C158.592 25.6307 158.67 26.0985 158.825 26.5C158.984 26.8977 159.217 27.2083 159.524 27.4318C159.835 27.6515 160.215 27.7614 160.666 27.7614ZM172.416 25.8295V20.7727H174.473V29.5H172.479V27.9489H172.388C172.191 28.4375 171.867 28.8371 171.416 29.1477C170.969 29.4583 170.418 29.6136 169.763 29.6136C169.191 29.6136 168.685 29.4867 168.246 29.233C167.81 28.9754 167.469 28.6023 167.223 28.1136C166.977 27.6212 166.854 27.0265 166.854 26.3295V20.7727H168.911V26.0114C168.911 26.5644 169.062 27.0038 169.365 27.3295C169.668 27.6553 170.066 27.8182 170.558 27.8182C170.861 27.8182 171.155 27.7443 171.439 27.5966C171.723 27.4489 171.956 27.2292 172.138 26.9375C172.323 26.642 172.416 26.2727 172.416 25.8295Z" fill="#0C101E"/>
<g opacity="0.88">
<path d="M187.555 17.0365C186.89 16.5934 186 17.0698 186 17.8685V30.1315C186 30.9302 186.89 31.4066 187.555 30.9635L196.752 24.8321C197.346 24.4362 197.346 23.5638 196.752 23.168L187.555 17.0365Z" fill="#0C101E"/>
</g>
</svg>
