<svg width="654" height="145" viewBox="0 0 654 145" fill="none" xmlns="http://www.w3.org/2000/svg">
<rect x="0.5" y="0.5" width="653" height="144" rx="15.5" fill="#102825"/>
<rect x="0.5" y="0.5" width="653" height="144" rx="15.5" stroke="#00D492"/>
<path d="M202.5 37.5L211.5 53.5H193.5L202.5 37.5Z" stroke="#00D492" stroke-width="1.5" stroke-linecap="round" stroke-linejoin="round"/>
<path d="M202.5 44.0879V47.8526" stroke="#00D492" stroke-width="1.5" stroke-linecap="round" stroke-linejoin="round"/>
<path d="M202.5 50.6758V50.6858" stroke="#00D492" stroke-width="1.5" stroke-linecap="round" stroke-linejoin="round"/>
<path d="M235.906 42.5078C235.846 41.9496 235.594 41.5149 235.151 41.2038C234.712 40.8928 234.141 40.7372 233.438 40.7372C232.944 40.7372 232.52 40.8118 232.166 40.9609C231.813 41.1101 231.542 41.3125 231.354 41.5682C231.167 41.8239 231.071 42.1158 231.067 42.4439C231.067 42.7166 231.129 42.9531 231.252 43.1534C231.38 43.3537 231.553 43.5241 231.77 43.6648C231.987 43.8011 232.228 43.9162 232.492 44.0099C232.756 44.1037 233.023 44.1825 233.291 44.2464L234.518 44.5533C235.013 44.6683 235.488 44.8239 235.944 45.0199C236.404 45.2159 236.815 45.4631 237.178 45.7614C237.544 46.0597 237.834 46.4197 238.047 46.8416C238.26 47.2635 238.366 47.7578 238.366 48.3246C238.366 49.0916 238.17 49.767 237.778 50.3509C237.386 50.9304 236.82 51.3842 236.078 51.7124C235.341 52.0362 234.448 52.1982 233.4 52.1982C232.381 52.1982 231.497 52.0405 230.747 51.7251C230.001 51.4098 229.418 50.9496 228.996 50.3445C228.578 49.7393 228.352 49.0021 228.318 48.1328H230.651C230.685 48.5888 230.826 48.968 231.073 49.2706C231.32 49.5732 231.642 49.799 232.038 49.9482C232.439 50.0973 232.886 50.1719 233.381 50.1719C233.896 50.1719 234.348 50.0952 234.736 49.9418C235.128 49.7841 235.435 49.5668 235.656 49.2898C235.878 49.0085 235.991 48.6804 235.995 48.3054C235.991 47.9645 235.891 47.6832 235.695 47.4616C235.499 47.2358 235.224 47.0483 234.87 46.8991C234.521 46.7457 234.112 46.6094 233.643 46.4901L232.153 46.1065C231.075 45.8295 230.223 45.4098 229.597 44.8473C228.974 44.2805 228.663 43.5284 228.663 42.5909C228.663 41.8196 228.872 41.1442 229.29 40.5646C229.712 39.9851 230.285 39.5355 231.009 39.2159C231.734 38.892 232.554 38.7301 233.47 38.7301C234.399 38.7301 235.213 38.892 235.912 39.2159C236.615 39.5355 237.167 39.9808 237.567 40.5518C237.968 41.1186 238.175 41.7706 238.188 42.5078H235.906ZM248.733 38.9091H251.104V47.4616C251.104 48.3991 250.883 49.2237 250.439 49.9354C250.001 50.647 249.383 51.2031 248.586 51.6037C247.789 52 246.858 52.1982 245.792 52.1982C244.723 52.1982 243.79 52 242.993 51.6037C242.196 51.2031 241.578 50.647 241.139 49.9354C240.7 49.2237 240.481 48.3991 240.481 47.4616V38.9091H242.852V47.2635C242.852 47.8089 242.971 48.2947 243.21 48.7209C243.453 49.147 243.794 49.4815 244.233 49.7244C244.672 49.9631 245.192 50.0824 245.792 50.0824C246.393 50.0824 246.913 49.9631 247.352 49.7244C247.795 49.4815 248.136 49.147 248.375 48.7209C248.613 48.2947 248.733 47.8089 248.733 47.2635V38.9091ZM243.881 37.4645C243.545 37.4645 243.253 37.3452 243.006 37.1065C242.763 36.8679 242.641 36.5866 242.641 36.2628C242.641 35.9219 242.763 35.6364 243.006 35.4062C243.253 35.1719 243.545 35.0547 243.881 35.0547C244.226 35.0547 244.516 35.1719 244.751 35.4062C244.989 35.6364 245.108 35.9219 245.108 36.2628C245.108 36.5866 244.989 36.8679 244.751 37.1065C244.516 37.3452 244.226 37.4645 243.881 37.4645ZM247.716 37.4645C247.38 37.4645 247.088 37.3452 246.841 37.1065C246.598 36.8679 246.476 36.5866 246.476 36.2628C246.476 35.9219 246.598 35.6364 246.841 35.4062C247.088 35.1719 247.38 35.0547 247.716 35.0547C248.062 35.0547 248.351 35.1719 248.586 35.4062C248.824 35.6364 248.944 35.9219 248.944 36.2628C248.944 36.5866 248.824 36.8679 248.586 37.1065C248.351 37.3452 248.062 37.4645 247.716 37.4645ZM260.796 42.5078C260.737 41.9496 260.485 41.5149 260.042 41.2038C259.603 40.8928 259.032 40.7372 258.329 40.7372C257.835 40.7372 257.411 40.8118 257.057 40.9609C256.703 41.1101 256.433 41.3125 256.245 41.5682C256.058 41.8239 255.962 42.1158 255.957 42.4439C255.957 42.7166 256.019 42.9531 256.143 43.1534C256.271 43.3537 256.443 43.5241 256.661 43.6648C256.878 43.8011 257.119 43.9162 257.383 44.0099C257.647 44.1037 257.913 44.1825 258.182 44.2464L259.409 44.5533C259.903 44.6683 260.379 44.8239 260.835 45.0199C261.295 45.2159 261.706 45.4631 262.068 45.7614C262.435 46.0597 262.724 46.4197 262.938 46.8416C263.151 47.2635 263.257 47.7578 263.257 48.3246C263.257 49.0916 263.061 49.767 262.669 50.3509C262.277 50.9304 261.71 51.3842 260.969 51.7124C260.232 52.0362 259.339 52.1982 258.29 52.1982C257.272 52.1982 256.388 52.0405 255.638 51.7251C254.892 51.4098 254.308 50.9496 253.886 50.3445C253.469 49.7393 253.243 49.0021 253.209 48.1328H255.542C255.576 48.5888 255.717 48.968 255.964 49.2706C256.211 49.5732 256.533 49.799 256.929 49.9482C257.33 50.0973 257.777 50.1719 258.271 50.1719C258.787 50.1719 259.239 50.0952 259.626 49.9418C260.018 49.7841 260.325 49.5668 260.547 49.2898C260.768 49.0085 260.881 48.6804 260.886 48.3054C260.881 47.9645 260.781 47.6832 260.585 47.4616C260.389 47.2358 260.114 47.0483 259.761 46.8991C259.411 46.7457 259.002 46.6094 258.533 46.4901L257.044 46.1065C255.966 45.8295 255.114 45.4098 254.487 44.8473C253.865 44.2805 253.554 43.5284 253.554 42.5909C253.554 41.8196 253.763 41.1442 254.18 40.5646C254.602 39.9851 255.175 39.5355 255.9 39.2159C256.624 38.892 257.445 38.7301 258.361 38.7301C259.29 38.7301 260.104 38.892 260.803 39.2159C261.506 39.5355 262.058 39.9808 262.458 40.5518C262.859 41.1186 263.065 41.7706 263.078 42.5078H260.796ZM264.796 40.897V38.9091H275.241V40.897H271.194V52H268.842V40.897H264.796ZM277.254 52V38.9091H285.768V40.897H279.626V44.451H285.327V46.4389H279.626V50.0121H285.819V52H277.254ZM288.188 52V38.9091H296.702V40.897H290.559V44.451H296.261V46.4389H290.559V50.0121H296.753V52H288.188ZM299.121 38.9091H302.023L305.91 48.3949H306.063L309.949 38.9091H312.851V52H310.576V43.0064H310.454L306.836 51.9616H305.136L301.518 42.9872H301.397V52H299.121V38.9091ZM319.323 40.897V38.9091H329.768V40.897H325.722V52H323.369V40.897H319.323ZM331.881 52H329.349L333.958 38.9091H336.885L341.501 52H338.969L335.473 41.5938H335.371L331.881 52ZM331.964 46.8672H338.867V48.772H331.964V46.8672ZM344.906 52H342.375L346.983 38.9091H349.911L354.526 52H351.995L348.498 41.5938H348.396L344.906 52ZM344.989 46.8672H351.892V48.772H344.989V46.8672ZM363.154 42.5078C363.094 41.9496 362.843 41.5149 362.399 41.2038C361.96 40.8928 361.389 40.7372 360.686 40.7372C360.192 40.7372 359.768 40.8118 359.414 40.9609C359.061 41.1101 358.79 41.3125 358.602 41.5682C358.415 41.8239 358.319 42.1158 358.315 42.4439C358.315 42.7166 358.377 42.9531 358.5 43.1534C358.628 43.3537 358.801 43.5241 359.018 43.6648C359.235 43.8011 359.476 43.9162 359.74 44.0099C360.004 44.1037 360.271 44.1825 360.539 44.2464L361.767 44.5533C362.261 44.6683 362.736 44.8239 363.192 45.0199C363.652 45.2159 364.063 45.4631 364.426 45.7614C364.792 46.0597 365.082 46.4197 365.295 46.8416C365.508 47.2635 365.615 47.7578 365.615 48.3246C365.615 49.0916 365.419 49.767 365.026 50.3509C364.634 50.9304 364.068 51.3842 363.326 51.7124C362.589 52.0362 361.696 52.1982 360.648 52.1982C359.629 52.1982 358.745 52.0405 357.995 51.7251C357.249 51.4098 356.666 50.9496 356.244 50.3445C355.826 49.7393 355.6 49.0021 355.566 48.1328H357.899C357.933 48.5888 358.074 48.968 358.321 49.2706C358.568 49.5732 358.89 49.799 359.286 49.9482C359.687 50.0973 360.134 50.1719 360.629 50.1719C361.144 50.1719 361.596 50.0952 361.984 49.9418C362.376 49.7841 362.683 49.5668 362.904 49.2898C363.126 49.0085 363.239 48.6804 363.243 48.3054C363.239 47.9645 363.139 47.6832 362.943 47.4616C362.747 47.2358 362.472 47.0483 362.118 46.8991C361.769 46.7457 361.36 46.6094 360.891 46.4901L359.401 46.1065C358.323 45.8295 357.471 45.4098 356.845 44.8473C356.222 44.2805 355.911 43.5284 355.911 42.5909C355.911 41.8196 356.12 41.1442 356.538 40.5646C356.96 39.9851 357.533 39.5355 358.257 39.2159C358.982 38.892 359.802 38.7301 360.718 38.7301C361.647 38.7301 362.461 38.892 363.16 39.2159C363.863 39.5355 364.415 39.9808 364.816 40.5518C365.216 41.1186 365.423 41.7706 365.436 42.5078H363.154ZM367.153 40.897V38.9091H377.598V40.897H373.552V52H371.2V40.897H367.153ZM379.711 52H377.179L381.788 38.9091H384.716L389.331 52H386.799L383.303 41.5938H383.201L379.711 52ZM379.794 46.8672H386.697V48.772H379.794V46.8672ZM388.898 40.897V38.9091H399.342V40.897H395.296V52H392.944V40.897H388.898ZM409.608 38.9091H411.979V47.4616C411.979 48.3991 411.758 49.2237 411.314 49.9354C410.876 50.647 410.258 51.2031 409.461 51.6037C408.664 52 407.733 52.1982 406.667 52.1982C405.598 52.1982 404.665 52 403.868 51.6037C403.071 51.2031 402.453 50.647 402.014 49.9354C401.575 49.2237 401.356 48.3991 401.356 47.4616V38.9091H403.727V47.2635C403.727 47.8089 403.846 48.2947 404.085 48.7209C404.328 49.147 404.669 49.4815 405.108 49.7244C405.547 49.9631 406.067 50.0824 406.667 50.0824C407.268 50.0824 407.788 49.9631 408.227 49.7244C408.67 49.4815 409.011 49.147 409.25 48.7209C409.488 48.2947 409.608 47.8089 409.608 47.2635V38.9091ZM418.993 52H414.557V38.9091H419.082C420.382 38.9091 421.499 39.1712 422.432 39.6953C423.369 40.2152 424.089 40.9631 424.592 41.9389C425.095 42.9148 425.347 44.0824 425.347 45.4418C425.347 46.8054 425.093 47.9773 424.586 48.9574C424.083 49.9375 423.357 50.6896 422.406 51.2138C421.46 51.7379 420.322 52 418.993 52ZM416.928 49.9482H418.878C419.79 49.9482 420.55 49.782 421.16 49.4496C421.769 49.1129 422.227 48.6122 422.534 47.9474C422.841 47.2784 422.994 46.4432 422.994 45.4418C422.994 44.4403 422.841 43.6094 422.534 42.9489C422.227 42.2841 421.773 41.7876 421.173 41.4595C420.576 41.1271 419.835 40.9609 418.948 40.9609H416.928V49.9482Z" fill="#00D492"/>
<path d="M451.5 37.5L460.5 53.5H442.5L451.5 37.5Z" stroke="#00D492" stroke-width="1.5" stroke-linecap="round" stroke-linejoin="round"/>
<path d="M451.5 44.0879V47.8526" stroke="#00D492" stroke-width="1.5" stroke-linecap="round" stroke-linejoin="round"/>
<path d="M451.5 50.6758V50.6858" stroke="#00D492" stroke-width="1.5" stroke-linecap="round" stroke-linejoin="round"/>
<path d="M35.2536 76.8636L38.7081 86.6591H38.8445L42.299 76.8636H43.7763L39.5036 88.5H38.049L33.7763 76.8636H35.2536ZM54.8601 82.6818C54.8601 83.9091 54.6385 84.9697 54.1953 85.8636C53.7521 86.7576 53.1442 87.447 52.3714 87.9318C51.5987 88.4167 50.7161 88.6591 49.7237 88.6591C48.7313 88.6591 47.8487 88.4167 47.076 87.9318C46.3033 87.447 45.6953 86.7576 45.2521 85.8636C44.8089 84.9697 44.5874 83.9091 44.5874 82.6818C44.5874 81.4545 44.8089 80.3939 45.2521 79.5C45.6953 78.6061 46.3033 77.9167 47.076 77.4318C47.8487 76.947 48.7313 76.7045 49.7237 76.7045C50.7161 76.7045 51.5987 76.947 52.3714 77.4318C53.1442 77.9167 53.7521 78.6061 54.1953 79.5C54.6385 80.3939 54.8601 81.4545 54.8601 82.6818ZM53.4964 82.6818C53.4964 81.6742 53.3279 80.8239 52.9908 80.1307C52.6574 79.4375 52.2048 78.9129 51.6328 78.5568C51.0646 78.2008 50.4283 78.0227 49.7237 78.0227C49.0192 78.0227 48.3809 78.2008 47.8089 78.5568C47.2408 78.9129 46.7881 79.4375 46.451 80.1307C46.1177 80.8239 45.951 81.6742 45.951 82.6818C45.951 83.6894 46.1177 84.5398 46.451 85.233C46.7881 85.9261 47.2408 86.4508 47.8089 86.8068C48.3809 87.1629 49.0192 87.3409 49.7237 87.3409C50.4283 87.3409 51.0646 87.1629 51.6328 86.8068C52.2048 86.4508 52.6574 85.9261 52.9908 85.233C53.3279 84.5398 53.4964 83.6894 53.4964 82.6818ZM66.593 80.5H65.1839C65.1006 80.0947 64.9548 79.7386 64.7464 79.4318C64.5419 79.125 64.2919 78.8674 63.9964 78.6591C63.7048 78.447 63.3809 78.2879 63.0249 78.1818C62.6688 78.0758 62.2976 78.0227 61.9112 78.0227C61.2067 78.0227 60.5684 78.2008 59.9964 78.5568C59.4283 78.9129 58.9756 79.4375 58.6385 80.1307C58.3052 80.8239 58.1385 81.6742 58.1385 82.6818C58.1385 83.6894 58.3052 84.5398 58.6385 85.233C58.9756 85.9261 59.4283 86.4508 59.9964 86.8068C60.5684 87.1629 61.2067 87.3409 61.9112 87.3409C62.2976 87.3409 62.6688 87.2879 63.0249 87.1818C63.3809 87.0758 63.7048 86.9186 63.9964 86.7102C64.2919 86.4981 64.5419 86.2386 64.7464 85.9318C64.9548 85.6212 65.1006 85.2652 65.1839 84.8636H66.593C66.487 85.4583 66.2938 85.9905 66.0135 86.4602C65.7332 86.9299 65.3847 87.3295 64.968 87.6591C64.5514 87.9848 64.0836 88.233 63.5646 88.4034C63.0495 88.5739 62.4983 88.6591 61.9112 88.6591C60.9188 88.6591 60.0362 88.4167 59.2635 87.9318C58.4908 87.447 57.8828 86.7576 57.4396 85.8636C56.9964 84.9697 56.7749 83.9091 56.7749 82.6818C56.7749 81.4545 56.9964 80.3939 57.4396 79.5C57.8828 78.6061 58.4908 77.9167 59.2635 77.4318C60.0362 76.947 60.9188 76.7045 61.9112 76.7045C62.4983 76.7045 63.0495 76.7898 63.5646 76.9602C64.0836 77.1307 64.5514 77.3807 64.968 77.7102C65.3847 78.036 65.7332 78.4337 66.0135 78.9034C66.2938 79.3693 66.487 79.9015 66.593 80.5ZM78.6882 82.6818C78.6882 83.9091 78.4666 84.9697 78.0234 85.8636C77.5803 86.7576 76.9723 87.447 76.1996 87.9318C75.4268 88.4167 74.5443 88.6591 73.5518 88.6591C72.5594 88.6591 71.6768 88.4167 70.9041 87.9318C70.1314 87.447 69.5234 86.7576 69.0803 85.8636C68.6371 84.9697 68.4155 83.9091 68.4155 82.6818C68.4155 81.4545 68.6371 80.3939 69.0803 79.5C69.5234 78.6061 70.1314 77.9167 70.9041 77.4318C71.6768 76.947 72.5594 76.7045 73.5518 76.7045C74.5443 76.7045 75.4268 76.947 76.1996 77.4318C76.9723 77.9167 77.5803 78.6061 78.0234 79.5C78.4666 80.3939 78.6882 81.4545 78.6882 82.6818ZM77.3246 82.6818C77.3246 81.6742 77.156 80.8239 76.8189 80.1307C76.4856 79.4375 76.0329 78.9129 75.4609 78.5568C74.8928 78.2008 74.2564 78.0227 73.5518 78.0227C72.8473 78.0227 72.209 78.2008 71.6371 78.5568C71.0689 78.9129 70.6162 79.4375 70.2791 80.1307C69.9458 80.8239 69.7791 81.6742 69.7791 82.6818C69.7791 83.6894 69.9458 84.5398 70.2791 85.233C70.6162 85.9261 71.0689 86.4508 71.6371 86.8068C72.209 87.1629 72.8473 87.3409 73.5518 87.3409C74.2564 87.3409 74.8928 87.1629 75.4609 86.8068C76.0329 86.4508 76.4856 85.9261 76.8189 85.233C77.156 84.5398 77.3246 83.6894 77.3246 82.6818ZM84.9212 78.1136V76.8636H93.6484V78.1136H89.9893V88.5H88.5803V78.1136H84.9212ZM98.0348 88.6818C97.1939 88.6818 96.4685 88.4962 95.8587 88.125C95.2526 87.75 94.7848 87.2273 94.4553 86.5568C94.1295 85.8826 93.9666 85.0985 93.9666 84.2045C93.9666 83.3106 94.1295 82.5227 94.4553 81.8409C94.7848 81.1553 95.2431 80.6212 95.8303 80.2386C96.4212 79.8523 97.1106 79.6591 97.8984 79.6591C98.353 79.6591 98.8018 79.7348 99.245 79.8864C99.6882 80.0379 100.092 80.2841 100.455 80.625C100.819 80.9621 101.109 81.4091 101.325 81.9659C101.54 82.5227 101.648 83.2083 101.648 84.0227V84.5909H94.9212V83.4318H100.285C100.285 82.9394 100.186 82.5 99.9893 82.1136C99.7962 81.7273 99.5196 81.4223 99.1598 81.1989C98.8037 80.9754 98.3833 80.8636 97.8984 80.8636C97.3643 80.8636 96.9022 80.9962 96.5121 81.2614C96.1257 81.5227 95.8284 81.8636 95.62 82.2841C95.4117 82.7045 95.3075 83.1553 95.3075 83.6364V84.4091C95.3075 85.0682 95.4212 85.6269 95.6484 86.0852C95.8795 86.5398 96.1996 86.8864 96.6087 87.125C97.0178 87.3598 97.4931 87.4773 98.0348 87.4773C98.3871 87.4773 98.7053 87.428 98.9893 87.3295C99.2772 87.2273 99.5253 87.0758 99.7337 86.875C99.942 86.6705 100.103 86.4167 100.217 86.1136L101.512 86.4773C101.376 86.9167 101.147 87.303 100.825 87.6364C100.503 87.9659 100.105 88.2235 99.6314 88.4091C99.1579 88.5909 98.6257 88.6818 98.0348 88.6818ZM107.234 88.6818C106.415 88.6818 105.711 88.4886 105.12 88.1023C104.529 87.7159 104.075 87.1837 103.756 86.5057C103.438 85.8277 103.279 85.053 103.279 84.1818C103.279 83.2955 103.442 82.5133 103.768 81.8352C104.097 81.1534 104.556 80.6212 105.143 80.2386C105.734 79.8523 106.423 79.6591 107.211 79.6591C107.825 79.6591 108.378 79.7727 108.87 80C109.362 80.2273 109.766 80.5455 110.08 80.9545C110.395 81.3636 110.59 81.8409 110.665 82.3864H109.325C109.222 81.9886 108.995 81.6364 108.643 81.3295C108.294 81.0189 107.825 80.8636 107.234 80.8636C106.711 80.8636 106.253 81 105.859 81.2727C105.469 81.5417 105.164 81.9223 104.944 82.4148C104.728 82.9034 104.62 83.4773 104.62 84.1364C104.62 84.8106 104.726 85.3977 104.938 85.8977C105.154 86.3977 105.457 86.786 105.847 87.0625C106.241 87.339 106.703 87.4773 107.234 87.4773C107.582 87.4773 107.898 87.4167 108.183 87.2955C108.467 87.1742 108.707 87 108.904 86.7727C109.101 86.5455 109.241 86.2727 109.325 85.9545H110.665C110.59 86.4697 110.402 86.9337 110.103 87.3466C109.808 87.7557 109.415 88.0814 108.927 88.3239C108.442 88.5625 107.878 88.6818 107.234 88.6818ZM113.967 83.25V88.5H112.626V76.8636H113.967V81.1364H114.08C114.285 80.6856 114.592 80.3277 115.001 80.0625C115.414 79.7936 115.963 79.6591 116.648 79.6591C117.243 79.6591 117.764 79.7784 118.211 80.017C118.658 80.2519 119.004 80.6136 119.251 81.1023C119.501 81.5871 119.626 82.2045 119.626 82.9545V88.5H118.285V83.0455C118.285 82.3523 118.105 81.8163 117.745 81.4375C117.389 81.0549 116.895 80.8636 116.262 80.8636C115.823 80.8636 115.429 80.9564 115.08 81.142C114.736 81.3277 114.463 81.5985 114.262 81.9545C114.065 82.3106 113.967 82.7424 113.967 83.25ZM122.261 88.5V76.8636H123.67V87.25H129.079V88.5H122.261ZM133.647 88.7045C133.094 88.7045 132.592 88.6004 132.141 88.392C131.691 88.1799 131.333 87.875 131.067 87.4773C130.802 87.0758 130.67 86.5909 130.67 86.0227C130.67 85.5227 130.768 85.1174 130.965 84.8068C131.162 84.4924 131.425 84.2462 131.755 84.0682C132.085 83.8902 132.448 83.7576 132.846 83.6705C133.247 83.5795 133.651 83.5076 134.056 83.4545C134.586 83.3864 135.016 83.3352 135.346 83.3011C135.679 83.2633 135.922 83.2008 136.073 83.1136C136.228 83.0265 136.306 82.875 136.306 82.6591V82.6136C136.306 82.053 136.153 81.6174 135.846 81.3068C135.543 80.9962 135.083 80.8409 134.465 80.8409C133.825 80.8409 133.323 80.9811 132.96 81.2614C132.596 81.5417 132.34 81.8409 132.192 82.1591L130.92 81.7045C131.147 81.1742 131.45 80.7614 131.829 80.4659C132.211 80.1667 132.628 79.9583 133.079 79.8409C133.533 79.7197 133.98 79.6591 134.42 79.6591C134.7 79.6591 135.022 79.6932 135.386 79.7614C135.753 79.8258 136.107 79.9602 136.448 80.1648C136.793 80.3693 137.079 80.678 137.306 81.0909C137.533 81.5038 137.647 82.0568 137.647 82.75V88.5H136.306V87.3182H136.238C136.147 87.5076 135.996 87.7102 135.783 87.9261C135.571 88.142 135.289 88.3258 134.937 88.4773C134.585 88.6288 134.155 88.7045 133.647 88.7045ZM133.852 87.5C134.382 87.5 134.829 87.3958 135.192 87.1875C135.56 86.9792 135.836 86.7102 136.022 86.3807C136.211 86.0511 136.306 85.7045 136.306 85.3409V84.1136C136.249 84.1818 136.124 84.2443 135.931 84.3011C135.742 84.3542 135.522 84.4015 135.272 84.4432C135.026 84.4811 134.785 84.5152 134.55 84.5455C134.319 84.572 134.132 84.5947 133.988 84.6136C133.639 84.6591 133.314 84.733 133.011 84.8352C132.711 84.9337 132.469 85.0833 132.283 85.2841C132.102 85.4811 132.011 85.75 132.011 86.0909C132.011 86.5568 132.183 86.9091 132.528 87.1477C132.876 87.3826 133.317 87.5 133.852 87.5ZM140.276 88.5V76.8636H141.617V81.1591H141.731C141.829 81.0076 141.966 80.8144 142.14 80.5795C142.318 80.3409 142.572 80.1288 142.901 79.9432C143.235 79.7538 143.685 79.6591 144.254 79.6591C144.988 79.6591 145.636 79.8428 146.197 80.2102C146.757 80.5777 147.195 81.0985 147.509 81.7727C147.824 82.447 147.981 83.2424 147.981 84.1591C147.981 85.0833 147.824 85.8845 147.509 86.5625C147.195 87.2367 146.759 87.7595 146.202 88.1307C145.646 88.4981 145.004 88.6818 144.276 88.6818C143.716 88.6818 143.267 88.589 142.93 88.4034C142.593 88.214 142.333 88 142.151 87.7614C141.969 87.5189 141.829 87.3182 141.731 87.1591H141.572V88.5H140.276ZM141.594 84.1364C141.594 84.7955 141.691 85.3769 141.884 85.8807C142.077 86.3807 142.36 86.7727 142.731 87.0568C143.102 87.3371 143.557 87.4773 144.094 87.4773C144.655 87.4773 145.123 87.3295 145.498 87.0341C145.877 86.7348 146.161 86.3333 146.35 85.8295C146.543 85.322 146.64 84.7576 146.64 84.1364C146.64 83.5227 146.545 82.9697 146.356 82.4773C146.17 81.9811 145.888 81.589 145.509 81.3011C145.134 81.0095 144.663 80.8636 144.094 80.8636C143.549 80.8636 143.091 81.0019 142.719 81.2784C142.348 81.5511 142.068 81.9337 141.879 82.4261C141.689 82.9148 141.594 83.4848 141.594 84.1364ZM150.032 88.5V79.7727H151.373V88.5H150.032ZM150.714 78.3182C150.452 78.3182 150.227 78.2292 150.038 78.0511C149.852 77.8731 149.759 77.6591 149.759 77.4091C149.759 77.1591 149.852 76.9451 150.038 76.767C150.227 76.589 150.452 76.5 150.714 76.5C150.975 76.5 151.199 76.589 151.384 76.767C151.574 76.9451 151.668 77.1591 151.668 77.4091C151.668 77.6591 151.574 77.8731 151.384 78.0511C151.199 78.2292 150.975 78.3182 150.714 78.3182ZM164.511 81.7273L163.306 82.0682C163.23 81.8674 163.119 81.6723 162.971 81.483C162.827 81.2898 162.63 81.1307 162.38 81.0057C162.13 80.8807 161.81 80.8182 161.42 80.8182C160.886 80.8182 160.441 80.9413 160.085 81.1875C159.732 81.4299 159.556 81.7386 159.556 82.1136C159.556 82.447 159.677 82.7102 159.92 82.9034C160.162 83.0966 160.541 83.2576 161.056 83.3864L162.352 83.7045C163.132 83.8939 163.713 84.1837 164.096 84.5739C164.478 84.9602 164.67 85.4583 164.67 86.0682C164.67 86.5682 164.526 87.0152 164.238 87.4091C163.954 87.803 163.556 88.1136 163.045 88.3409C162.533 88.5682 161.939 88.6818 161.261 88.6818C160.371 88.6818 159.634 88.4886 159.05 88.1023C158.467 87.7159 158.098 87.1515 157.942 86.4091L159.215 86.0909C159.336 86.5606 159.566 86.9129 159.903 87.1477C160.244 87.3826 160.689 87.5 161.238 87.5C161.863 87.5 162.359 87.3674 162.727 87.1023C163.098 86.8333 163.283 86.5114 163.283 86.1364C163.283 85.8333 163.177 85.5795 162.965 85.375C162.753 85.1667 162.427 85.0114 161.988 84.9091L160.533 84.5682C159.734 84.3788 159.147 84.0852 158.772 83.6875C158.401 83.286 158.215 82.7841 158.215 82.1818C158.215 81.6894 158.353 81.2538 158.63 80.875C158.91 80.4962 159.291 80.1989 159.772 79.983C160.257 79.767 160.806 79.6591 161.42 79.6591C162.283 79.6591 162.961 79.8485 163.454 80.2273C163.95 80.6061 164.302 81.1061 164.511 81.7273ZM172.188 84.9318V79.7727H173.529V88.5H172.188V87.0227H172.097C171.893 87.4659 171.575 87.8428 171.143 88.1534C170.711 88.4602 170.165 88.6136 169.506 88.6136C168.961 88.6136 168.476 88.4943 168.052 88.2557C167.628 88.0133 167.294 87.6496 167.052 87.1648C166.809 86.6761 166.688 86.0606 166.688 85.3182V79.7727H168.029V85.2273C168.029 85.8636 168.207 86.3712 168.563 86.75C168.923 87.1288 169.381 87.3182 169.938 87.3182C170.272 87.3182 170.611 87.233 170.955 87.0625C171.304 86.892 171.595 86.6307 171.83 86.2784C172.069 85.9261 172.188 85.4773 172.188 84.9318ZM168.484 78.3182C168.245 78.3182 168.033 78.2273 167.847 78.0455C167.665 77.8598 167.575 77.6477 167.575 77.4091C167.575 77.1477 167.665 76.9318 167.847 76.7614C168.033 76.5871 168.245 76.5 168.484 76.5C168.745 76.5 168.961 76.5871 169.131 76.7614C169.306 76.9318 169.393 77.1477 169.393 77.4091C169.393 77.6477 169.306 77.8598 169.131 78.0455C168.961 78.2273 168.745 78.3182 168.484 78.3182ZM171.756 78.3182C171.518 78.3182 171.306 78.2273 171.12 78.0455C170.938 77.8598 170.847 77.6477 170.847 77.4091C170.847 77.1477 170.938 76.9318 171.12 76.7614C171.306 76.5871 171.518 76.5 171.756 76.5C172.018 76.5 172.234 76.5871 172.404 76.7614C172.578 76.9318 172.665 77.1477 172.665 77.4091C172.665 77.6477 172.578 77.8598 172.404 78.0455C172.234 78.2273 172.018 78.3182 171.756 78.3182ZM182.167 81.7273L180.962 82.0682C180.887 81.8674 180.775 81.6723 180.627 81.483C180.483 81.2898 180.286 81.1307 180.036 81.0057C179.786 80.8807 179.466 80.8182 179.076 80.8182C178.542 80.8182 178.097 80.9413 177.741 81.1875C177.388 81.4299 177.212 81.7386 177.212 82.1136C177.212 82.447 177.334 82.7102 177.576 82.9034C177.818 83.0966 178.197 83.2576 178.712 83.3864L180.008 83.7045C180.788 83.8939 181.37 84.1837 181.752 84.5739C182.135 84.9602 182.326 85.4583 182.326 86.0682C182.326 86.5682 182.182 87.0152 181.894 87.4091C181.61 87.803 181.212 88.1136 180.701 88.3409C180.19 88.5682 179.595 88.6818 178.917 88.6818C178.027 88.6818 177.29 88.4886 176.707 88.1023C176.123 87.7159 175.754 87.1515 175.599 86.4091L176.871 86.0909C176.993 86.5606 177.222 86.9129 177.559 87.1477C177.9 87.3826 178.345 87.5 178.894 87.5C179.519 87.5 180.015 87.3674 180.383 87.1023C180.754 86.8333 180.94 86.5114 180.94 86.1364C180.94 85.8333 180.834 85.5795 180.621 85.375C180.409 85.1667 180.084 85.0114 179.644 84.9091L178.19 84.5682C177.39 84.3788 176.803 84.0852 176.428 83.6875C176.057 83.286 175.871 82.7841 175.871 82.1818C175.871 81.6894 176.01 81.2538 176.286 80.875C176.567 80.4962 176.947 80.1989 177.428 79.983C177.913 79.767 178.462 79.6591 179.076 79.6591C179.94 79.6591 180.618 79.8485 181.11 80.2273C181.606 80.6061 181.959 81.1061 182.167 81.7273ZM188.14 79.7727V80.9091H183.617V79.7727H188.14ZM184.935 77.6818H186.276V86C186.276 86.3788 186.331 86.6629 186.441 86.8523C186.555 87.0379 186.699 87.1629 186.873 87.2273C187.051 87.2879 187.238 87.3182 187.435 87.3182C187.583 87.3182 187.704 87.3106 187.799 87.2955C187.894 87.2765 187.969 87.2614 188.026 87.25L188.299 88.4545C188.208 88.4886 188.081 88.5227 187.918 88.5568C187.755 88.5947 187.549 88.6136 187.299 88.6136C186.92 88.6136 186.549 88.5322 186.185 88.3693C185.826 88.2064 185.526 87.9583 185.288 87.625C185.053 87.2917 184.935 86.8712 184.935 86.3636V77.6818ZM193.722 88.6818C192.881 88.6818 192.156 88.4962 191.546 88.125C190.94 87.75 190.472 87.2273 190.143 86.5568C189.817 85.8826 189.654 85.0985 189.654 84.2045C189.654 83.3106 189.817 82.5227 190.143 81.8409C190.472 81.1553 190.931 80.6212 191.518 80.2386C192.109 79.8523 192.798 79.6591 193.586 79.6591C194.04 79.6591 194.489 79.7348 194.933 79.8864C195.376 80.0379 195.779 80.2841 196.143 80.625C196.506 80.9621 196.796 81.4091 197.012 81.9659C197.228 82.5227 197.336 83.2083 197.336 84.0227V84.5909H190.609V83.4318H195.972C195.972 82.9394 195.874 82.5 195.677 82.1136C195.484 81.7273 195.207 81.4223 194.847 81.1989C194.491 80.9754 194.071 80.8636 193.586 80.8636C193.052 80.8636 192.59 80.9962 192.2 81.2614C191.813 81.5227 191.516 81.8636 191.308 82.2841C191.099 82.7045 190.995 83.1553 190.995 83.6364V84.4091C190.995 85.0682 191.109 85.6269 191.336 86.0852C191.567 86.5398 191.887 86.8864 192.296 87.125C192.705 87.3598 193.181 87.4773 193.722 87.4773C194.075 87.4773 194.393 87.428 194.677 87.3295C194.965 87.2273 195.213 87.0758 195.421 86.875C195.629 86.6705 195.79 86.4167 195.904 86.1136L197.2 86.4773C197.063 86.9167 196.834 87.303 196.512 87.6364C196.19 87.9659 195.792 88.2235 195.319 88.4091C194.845 88.5909 194.313 88.6818 193.722 88.6818ZM203.035 88.6818C202.194 88.6818 201.469 88.4962 200.859 88.125C200.253 87.75 199.785 87.2273 199.455 86.5568C199.129 85.8826 198.967 85.0985 198.967 84.2045C198.967 83.3106 199.129 82.5227 199.455 81.8409C199.785 81.1553 200.243 80.6212 200.83 80.2386C201.421 79.8523 202.111 79.6591 202.898 79.6591C203.353 79.6591 203.802 79.7348 204.245 79.8864C204.688 80.0379 205.092 80.2841 205.455 80.625C205.819 80.9621 206.109 81.4091 206.325 81.9659C206.54 82.5227 206.648 83.2083 206.648 84.0227V84.5909H199.921V83.4318H205.285C205.285 82.9394 205.186 82.5 204.989 82.1136C204.796 81.7273 204.52 81.4223 204.16 81.1989C203.804 80.9754 203.383 80.8636 202.898 80.8636C202.364 80.8636 201.902 80.9962 201.512 81.2614C201.126 81.5227 200.828 81.8636 200.62 82.2841C200.412 82.7045 200.308 83.1553 200.308 83.6364V84.4091C200.308 85.0682 200.421 85.6269 200.648 86.0852C200.879 86.5398 201.2 86.8864 201.609 87.125C202.018 87.3598 202.493 87.4773 203.035 87.4773C203.387 87.4773 203.705 87.428 203.989 87.3295C204.277 87.2273 204.525 87.0758 204.734 86.875C204.942 86.6705 205.103 86.4167 205.217 86.1136L206.512 86.4773C206.376 86.9167 206.147 87.303 205.825 87.6364C205.503 87.9659 205.105 88.2235 204.631 88.4091C204.158 88.5909 203.626 88.6818 203.035 88.6818ZM208.688 88.5V79.7727H209.984V81.1364H210.097C210.279 80.6705 210.573 80.3087 210.978 80.0511C211.383 79.7898 211.87 79.6591 212.438 79.6591C213.014 79.6591 213.493 79.7898 213.876 80.0511C214.262 80.3087 214.563 80.6705 214.779 81.1364H214.87C215.094 80.6856 215.429 80.3277 215.876 80.0625C216.323 79.7936 216.859 79.6591 217.484 79.6591C218.264 79.6591 218.902 79.9034 219.398 80.392C219.895 80.8769 220.143 81.6326 220.143 82.6591V88.5H218.802V82.6591C218.802 82.0152 218.626 81.5549 218.273 81.2784C217.921 81.0019 217.506 80.8636 217.029 80.8636C216.415 80.8636 215.94 81.0492 215.603 81.4205C215.266 81.7879 215.097 82.2538 215.097 82.8182V88.5H213.734V82.5227C213.734 82.0265 213.573 81.6269 213.251 81.3239C212.929 81.017 212.514 80.8636 212.006 80.8636C211.658 80.8636 211.332 80.9564 211.029 81.142C210.73 81.3277 210.487 81.5852 210.302 81.9148C210.12 82.2405 210.029 82.6174 210.029 83.0455V88.5H208.688ZM230.89 79.7727V80.9091H226.367V79.7727H230.89ZM227.685 77.6818H229.026V86C229.026 86.3788 229.081 86.6629 229.191 86.8523C229.305 87.0379 229.449 87.1629 229.623 87.2273C229.801 87.2879 229.988 87.3182 230.185 87.3182C230.333 87.3182 230.454 87.3106 230.549 87.2955C230.644 87.2765 230.719 87.2614 230.776 87.25L231.049 88.4545C230.958 88.4886 230.831 88.5227 230.668 88.5568C230.505 88.5947 230.299 88.6136 230.049 88.6136C229.67 88.6136 229.299 88.5322 228.935 88.3693C228.576 88.2064 228.276 87.9583 228.038 87.625C227.803 87.2917 227.685 86.8712 227.685 86.3636V77.6818ZM236.359 88.6818C235.571 88.6818 234.879 88.4943 234.285 88.1193C233.694 87.7443 233.232 87.2197 232.898 86.5455C232.569 85.8712 232.404 85.0833 232.404 84.1818C232.404 83.2727 232.569 82.4792 232.898 81.8011C233.232 81.1231 233.694 80.5966 234.285 80.2216C234.879 79.8466 235.571 79.6591 236.359 79.6591C237.147 79.6591 237.836 79.8466 238.427 80.2216C239.022 80.5966 239.484 81.1231 239.813 81.8011C240.147 82.4792 240.313 83.2727 240.313 84.1818C240.313 85.0833 240.147 85.8712 239.813 86.5455C239.484 87.2197 239.022 87.7443 238.427 88.1193C237.836 88.4943 237.147 88.6818 236.359 88.6818ZM236.359 87.4773C236.957 87.4773 237.45 87.3239 237.836 87.017C238.222 86.7102 238.508 86.3068 238.694 85.8068C238.879 85.3068 238.972 84.7652 238.972 84.1818C238.972 83.5985 238.879 83.0549 238.694 82.5511C238.508 82.0473 238.222 81.6402 237.836 81.3295C237.45 81.0189 236.957 80.8636 236.359 80.8636C235.76 80.8636 235.268 81.0189 234.881 81.3295C234.495 81.6402 234.209 82.0473 234.023 82.5511C233.838 83.0549 233.745 83.5985 233.745 84.1818C233.745 84.7652 233.838 85.3068 234.023 85.8068C234.209 86.3068 234.495 86.7102 234.881 87.017C235.268 87.3239 235.76 87.4773 236.359 87.4773ZM242.36 88.5V79.7727H243.701V88.5H242.36ZM243.042 78.3182C242.781 78.3182 242.555 78.2292 242.366 78.0511C242.18 77.8731 242.087 77.6591 242.087 77.4091C242.087 77.1591 242.18 76.9451 242.366 76.767C242.555 76.589 242.781 76.5 243.042 76.5C243.303 76.5 243.527 76.589 243.712 76.767C243.902 76.9451 243.996 77.1591 243.996 77.4091C243.996 77.6591 243.902 77.8731 243.712 78.0511C243.527 78.2292 243.303 78.3182 243.042 78.3182ZM246.157 88.5V79.7727H247.452V81.1364H247.566C247.748 80.6705 248.041 80.3087 248.447 80.0511C248.852 79.7898 249.339 79.6591 249.907 79.6591C250.483 79.6591 250.962 79.7898 251.344 80.0511C251.731 80.3087 252.032 80.6705 252.248 81.1364H252.339C252.562 80.6856 252.897 80.3277 253.344 80.0625C253.791 79.7936 254.327 79.6591 254.952 79.6591C255.733 79.6591 256.371 79.9034 256.867 80.392C257.363 80.8769 257.612 81.6326 257.612 82.6591V88.5H256.271V82.6591C256.271 82.0152 256.094 81.5549 255.742 81.2784C255.39 81.0019 254.975 80.8636 254.498 80.8636C253.884 80.8636 253.409 81.0492 253.072 81.4205C252.735 81.7879 252.566 82.2538 252.566 82.8182V88.5H251.202V82.5227C251.202 82.0265 251.041 81.6269 250.719 81.3239C250.397 81.017 249.983 80.8636 249.475 80.8636C249.127 80.8636 248.801 80.9564 248.498 81.142C248.199 81.3277 247.956 81.5852 247.771 81.9148C247.589 82.2405 247.498 82.6174 247.498 83.0455V88.5H246.157ZM260.063 88.5V79.7727H261.404V88.5H260.063ZM260.745 78.3182C260.484 78.3182 260.258 78.2292 260.069 78.0511C259.883 77.8731 259.79 77.6591 259.79 77.4091C259.79 77.1591 259.883 76.9451 260.069 76.767C260.258 76.589 260.484 76.5 260.745 76.5C261.006 76.5 261.23 76.589 261.415 76.767C261.605 76.9451 261.7 77.1591 261.7 77.4091C261.7 77.6591 261.605 77.8731 261.415 78.0511C261.23 78.2292 261.006 78.3182 260.745 78.3182ZM264.042 88.5V76.8636H265.383V81.1591H265.496C265.595 81.0076 265.731 80.8144 265.906 80.5795C266.084 80.3409 266.337 80.1288 266.667 79.9432C267 79.7538 267.451 79.6591 268.019 79.6591C268.754 79.6591 269.402 79.8428 269.962 80.2102C270.523 80.5777 270.96 81.0985 271.275 81.7727C271.589 82.447 271.746 83.2424 271.746 84.1591C271.746 85.0833 271.589 85.8845 271.275 86.5625C270.96 87.2367 270.525 87.7595 269.968 88.1307C269.411 88.4981 268.769 88.6818 268.042 88.6818C267.481 88.6818 267.032 88.589 266.695 88.4034C266.358 88.214 266.099 88 265.917 87.7614C265.735 87.5189 265.595 87.3182 265.496 87.1591H265.337V88.5H264.042ZM265.36 84.1364C265.36 84.7955 265.457 85.3769 265.65 85.8807C265.843 86.3807 266.125 86.7727 266.496 87.0568C266.868 87.3371 267.322 87.4773 267.86 87.4773C268.421 87.4773 268.888 87.3295 269.263 87.0341C269.642 86.7348 269.926 86.3333 270.116 85.8295C270.309 85.322 270.406 84.7576 270.406 84.1364C270.406 83.5227 270.311 82.9697 270.121 82.4773C269.936 81.9811 269.654 81.589 269.275 81.3011C268.9 81.0095 268.428 80.8636 267.86 80.8636C267.315 80.8636 266.856 81.0019 266.485 81.2784C266.114 81.5511 265.834 81.9337 265.644 82.4261C265.455 82.9148 265.36 83.4848 265.36 84.1364ZM281.957 88.6818C281.116 88.6818 280.39 88.4962 279.781 88.125C279.174 87.75 278.707 87.2273 278.377 86.5568C278.051 85.8826 277.888 85.0985 277.888 84.2045C277.888 83.3106 278.051 82.5227 278.377 81.8409C278.707 81.1553 279.165 80.6212 279.752 80.2386C280.343 79.8523 281.032 79.6591 281.82 79.6591C282.275 79.6591 282.724 79.7348 283.167 79.8864C283.61 80.0379 284.013 80.2841 284.377 80.625C284.741 80.9621 285.031 81.4091 285.246 81.9659C285.462 82.5227 285.57 83.2083 285.57 84.0227V84.5909H278.843V83.4318H284.207C284.207 82.9394 284.108 82.5 283.911 82.1136C283.718 81.7273 283.442 81.4223 283.082 81.1989C282.726 80.9754 282.305 80.8636 281.82 80.8636C281.286 80.8636 280.824 80.9962 280.434 81.2614C280.048 81.5227 279.75 81.8636 279.542 82.2841C279.334 82.7045 279.229 83.1553 279.229 83.6364V84.4091C279.229 85.0682 279.343 85.6269 279.57 86.0852C279.801 86.5398 280.121 86.8864 280.531 87.125C280.94 87.3598 281.415 87.4773 281.957 87.4773C282.309 87.4773 282.627 87.428 282.911 87.3295C283.199 87.2273 283.447 87.0758 283.656 86.875C283.864 86.6705 284.025 86.4167 284.138 86.1136L285.434 86.4773C285.298 86.9167 285.068 87.303 284.746 87.6364C284.424 87.9659 284.027 88.2235 283.553 88.4091C283.08 88.5909 282.548 88.6818 281.957 88.6818ZM290.906 88.6818C290.178 88.6818 289.536 88.4981 288.979 88.1307C288.423 87.7595 287.987 87.2367 287.673 86.5625C287.358 85.8845 287.201 85.0833 287.201 84.1591C287.201 83.2424 287.358 82.447 287.673 81.7727C287.987 81.0985 288.424 80.5777 288.985 80.2102C289.546 79.8428 290.193 79.6591 290.928 79.6591C291.496 79.6591 291.945 79.7538 292.275 79.9432C292.608 80.1288 292.862 80.3409 293.036 80.5795C293.214 80.8144 293.353 81.0076 293.451 81.1591H293.565V76.8636H294.906V88.5H293.61V87.1591H293.451C293.353 87.3182 293.212 87.5189 293.031 87.7614C292.849 88 292.589 88.214 292.252 88.4034C291.915 88.589 291.466 88.6818 290.906 88.6818ZM291.087 87.4773C291.625 87.4773 292.08 87.3371 292.451 87.0568C292.822 86.7727 293.104 86.3807 293.298 85.8807C293.491 85.3769 293.587 84.7955 293.587 84.1364C293.587 83.4848 293.493 82.9148 293.303 82.4261C293.114 81.9337 292.834 81.5511 292.462 81.2784C292.091 81.0019 291.633 80.8636 291.087 80.8636C290.519 80.8636 290.046 81.0095 289.667 81.3011C289.292 81.589 289.01 81.9811 288.82 82.4773C288.635 82.9697 288.542 83.5227 288.542 84.1364C288.542 84.7576 288.637 85.322 288.826 85.8295C289.019 86.3333 289.303 86.7348 289.678 87.0341C290.057 87.3295 290.527 87.4773 291.087 87.4773ZM303.048 84.9318V79.7727H304.388V88.5H303.048V87.0227H302.957C302.752 87.4659 302.434 87.8428 302.002 88.1534C301.57 88.4602 301.025 88.6136 300.366 88.6136C299.82 88.6136 299.335 88.4943 298.911 88.2557C298.487 88.0133 298.154 87.6496 297.911 87.1648C297.669 86.6761 297.548 86.0606 297.548 85.3182V79.7727H298.888V85.2273C298.888 85.8636 299.067 86.3712 299.423 86.75C299.782 87.1288 300.241 87.3182 300.798 87.3182C301.131 87.3182 301.47 87.233 301.815 87.0625C302.163 86.892 302.455 86.6307 302.69 86.2784C302.928 85.9261 303.048 85.4773 303.048 84.9318ZM308.094 85.3182L308.072 83.6591H308.344L312.163 79.7727H313.822L309.754 83.8864H309.64L308.094 85.3182ZM306.844 88.5V76.8636H308.185V88.5H306.844ZM312.39 88.5L308.981 84.1818L309.935 83.25L314.094 88.5H312.39ZM318.116 88.7045C317.563 88.7045 317.061 88.6004 316.61 88.392C316.159 88.1799 315.801 87.875 315.536 87.4773C315.271 87.0758 315.138 86.5909 315.138 86.0227C315.138 85.5227 315.237 85.1174 315.434 84.8068C315.631 84.4924 315.894 84.2462 316.224 84.0682C316.553 83.8902 316.917 83.7576 317.315 83.6705C317.716 83.5795 318.12 83.5076 318.525 83.4545C319.055 83.3864 319.485 83.3352 319.815 83.3011C320.148 83.2633 320.39 83.2008 320.542 83.1136C320.697 83.0265 320.775 82.875 320.775 82.6591V82.6136C320.775 82.053 320.621 81.6174 320.315 81.3068C320.012 80.9962 319.551 80.8409 318.934 80.8409C318.294 80.8409 317.792 80.9811 317.428 81.2614C317.065 81.5417 316.809 81.8409 316.661 82.1591L315.388 81.7045C315.616 81.1742 315.919 80.7614 316.298 80.4659C316.68 80.1667 317.097 79.9583 317.548 79.8409C318.002 79.7197 318.449 79.6591 318.888 79.6591C319.169 79.6591 319.491 79.6932 319.854 79.7614C320.222 79.8258 320.576 79.9602 320.917 80.1648C321.262 80.3693 321.548 80.678 321.775 81.0909C322.002 81.5038 322.116 82.0568 322.116 82.75V88.5H320.775V87.3182H320.707C320.616 87.5076 320.464 87.7102 320.252 87.9261C320.04 88.142 319.758 88.3258 319.406 88.4773C319.053 88.6288 318.623 88.7045 318.116 88.7045ZM318.32 87.5C318.851 87.5 319.298 87.3958 319.661 87.1875C320.029 86.9792 320.305 86.7102 320.491 86.3807C320.68 86.0511 320.775 85.7045 320.775 85.3409V84.1136C320.718 84.1818 320.593 84.2443 320.4 84.3011C320.21 84.3542 319.991 84.4015 319.741 84.4432C319.495 84.4811 319.254 84.5152 319.019 84.5455C318.788 84.572 318.601 84.5947 318.457 84.6136C318.108 84.6591 317.782 84.733 317.479 84.8352C317.18 84.9337 316.938 85.0833 316.752 85.2841C316.57 85.4811 316.479 85.75 316.479 86.0909C316.479 86.5568 316.652 86.9091 316.996 87.1477C317.345 87.3826 317.786 87.5 318.32 87.5ZM325.904 76.8636V88.5H324.563V76.8636H325.904ZM332.156 79.7727V80.9091H327.633V79.7727H332.156ZM328.951 77.6818H330.292V86C330.292 86.3788 330.347 86.6629 330.457 86.8523C330.57 87.0379 330.714 87.1629 330.888 87.2273C331.067 87.2879 331.254 87.3182 331.451 87.3182C331.599 87.3182 331.72 87.3106 331.815 87.2955C331.909 87.2765 331.985 87.2614 332.042 87.25L332.315 88.4545C332.224 88.4886 332.097 88.5227 331.934 88.5568C331.771 88.5947 331.565 88.6136 331.315 88.6136C330.936 88.6136 330.565 88.5322 330.201 88.3693C329.841 88.2064 329.542 87.9583 329.303 87.625C329.068 87.2917 328.951 86.8712 328.951 86.3636V77.6818ZM335.15 88.5909C334.87 88.5909 334.629 88.4905 334.428 88.2898C334.228 88.089 334.127 87.8485 334.127 87.5682C334.127 87.2879 334.228 87.0473 334.428 86.8466C334.629 86.6458 334.87 86.5455 335.15 86.5455C335.43 86.5455 335.671 86.6458 335.871 86.8466C336.072 87.0473 336.173 87.2879 336.173 87.5682C336.173 87.7538 336.125 87.9242 336.031 88.0795C335.94 88.2348 335.817 88.3598 335.661 88.4545C335.51 88.5455 335.339 88.5909 335.15 88.5909ZM344.67 76.8636V88.5H343.261V76.8636H344.67ZM346.859 78.1136V76.8636H355.586V78.1136H351.927V88.5H350.518V78.1136H346.859ZM361.391 82.8864V84.1364H356.3V82.8864H361.391ZM367.41 88.6818C366.569 88.6818 365.844 88.4962 365.234 88.125C364.628 87.75 364.16 87.2273 363.83 86.5568C363.504 85.8826 363.342 85.0985 363.342 84.2045C363.342 83.3106 363.504 82.5227 363.83 81.8409C364.16 81.1553 364.618 80.6212 365.205 80.2386C365.796 79.8523 366.486 79.6591 367.273 79.6591C367.728 79.6591 368.177 79.7348 368.62 79.8864C369.063 80.0379 369.467 80.2841 369.83 80.625C370.194 80.9621 370.484 81.4091 370.7 81.9659C370.915 82.5227 371.023 83.2083 371.023 84.0227V84.5909H364.296V83.4318H369.66C369.66 82.9394 369.561 82.5 369.364 82.1136C369.171 81.7273 368.895 81.4223 368.535 81.1989C368.179 80.9754 367.758 80.8636 367.273 80.8636C366.739 80.8636 366.277 80.9962 365.887 81.2614C365.501 81.5227 365.203 81.8636 364.995 82.2841C364.787 82.7045 364.683 83.1553 364.683 83.6364V84.4091C364.683 85.0682 364.796 85.6269 365.023 86.0852C365.254 86.5398 365.575 86.8864 365.984 87.125C366.393 87.3598 366.868 87.4773 367.41 87.4773C367.762 87.4773 368.08 87.428 368.364 87.3295C368.652 87.2273 368.9 87.0758 369.109 86.875C369.317 86.6705 369.478 86.4167 369.592 86.1136L370.887 86.4773C370.751 86.9167 370.522 87.303 370.2 87.6364C369.878 87.9659 369.48 88.2235 369.006 88.4091C368.533 88.5909 368.001 88.6818 367.41 88.6818ZM373.063 88.5V79.7727H374.359V81.0909H374.45C374.609 80.6591 374.897 80.3087 375.313 80.0398C375.73 79.7708 376.2 79.6364 376.722 79.6364C376.821 79.6364 376.944 79.6383 377.092 79.642C377.239 79.6458 377.351 79.6515 377.427 79.6591V81.0227C377.381 81.0114 377.277 80.9943 377.114 80.9716C376.955 80.9451 376.787 80.9318 376.609 80.9318C376.184 80.9318 375.806 81.0208 375.472 81.1989C375.143 81.3731 374.881 81.6155 374.688 81.9261C374.499 82.233 374.404 82.5833 374.404 82.9773V88.5H373.063ZM379.016 88.5V79.7727H380.357V88.5H379.016ZM379.698 78.3182C379.437 78.3182 379.211 78.2292 379.022 78.0511C378.836 77.8731 378.744 77.6591 378.744 77.4091C378.744 77.1591 378.836 76.9451 379.022 76.767C379.211 76.589 379.437 76.5 379.698 76.5C379.96 76.5 380.183 76.589 380.369 76.767C380.558 76.9451 380.653 77.1591 380.653 77.4091C380.653 77.6591 380.558 77.8731 380.369 78.0511C380.183 78.2292 379.96 78.3182 379.698 78.3182ZM385.381 88.7045C384.828 88.7045 384.326 88.6004 383.876 88.392C383.425 88.1799 383.067 87.875 382.802 87.4773C382.537 87.0758 382.404 86.5909 382.404 86.0227C382.404 85.5227 382.503 85.1174 382.7 84.8068C382.897 84.4924 383.16 84.2462 383.489 84.0682C383.819 83.8902 384.183 83.7576 384.58 83.6705C384.982 83.5795 385.385 83.5076 385.79 83.4545C386.321 83.3864 386.751 83.3352 387.08 83.3011C387.414 83.2633 387.656 83.2008 387.808 83.1136C387.963 83.0265 388.04 82.875 388.04 82.6591V82.6136C388.04 82.053 387.887 81.6174 387.58 81.3068C387.277 80.9962 386.817 80.8409 386.2 80.8409C385.559 80.8409 385.058 80.9811 384.694 81.2614C384.33 81.5417 384.075 81.8409 383.927 82.1591L382.654 81.7045C382.881 81.1742 383.184 80.7614 383.563 80.4659C383.946 80.1667 384.362 79.9583 384.813 79.8409C385.268 79.7197 385.715 79.6591 386.154 79.6591C386.434 79.6591 386.756 79.6932 387.12 79.7614C387.487 79.8258 387.842 79.9602 388.183 80.1648C388.527 80.3693 388.813 80.678 389.04 81.0909C389.268 81.5038 389.381 82.0568 389.381 82.75V88.5H388.04V87.3182H387.972C387.881 87.5076 387.73 87.7102 387.518 87.9261C387.306 88.142 387.023 88.3258 386.671 88.4773C386.319 88.6288 385.889 88.7045 385.381 88.7045ZM385.586 87.5C386.116 87.5 386.563 87.3958 386.927 87.1875C387.294 86.9792 387.571 86.7102 387.756 86.3807C387.946 86.0511 388.04 85.7045 388.04 85.3409V84.1136C387.984 84.1818 387.859 84.2443 387.665 84.3011C387.476 84.3542 387.256 84.4015 387.006 84.4432C386.76 84.4811 386.52 84.5152 386.285 84.5455C386.054 84.572 385.866 84.5947 385.722 84.6136C385.374 84.6591 385.048 84.733 384.745 84.8352C384.446 84.9337 384.203 85.0833 384.018 85.2841C383.836 85.4811 383.745 85.75 383.745 86.0909C383.745 86.5568 383.917 86.9091 384.262 87.1477C384.611 87.3826 385.052 87.5 385.586 87.5ZM393.17 76.8636V88.5H391.829V76.8636H393.17ZM398.194 88.7045C397.641 88.7045 397.139 88.6004 396.688 88.392C396.237 88.1799 395.879 87.875 395.614 87.4773C395.349 87.0758 395.217 86.5909 395.217 86.0227C395.217 85.5227 395.315 85.1174 395.512 84.8068C395.709 84.4924 395.972 84.2462 396.302 84.0682C396.631 83.8902 396.995 83.7576 397.393 83.6705C397.794 83.5795 398.198 83.5076 398.603 83.4545C399.133 83.3864 399.563 83.3352 399.893 83.3011C400.226 83.2633 400.469 83.2008 400.62 83.1136C400.775 83.0265 400.853 82.875 400.853 82.6591V82.6136C400.853 82.053 400.7 81.6174 400.393 81.3068C400.09 80.9962 399.629 80.8409 399.012 80.8409C398.372 80.8409 397.87 80.9811 397.506 81.2614C397.143 81.5417 396.887 81.8409 396.739 82.1591L395.467 81.7045C395.694 81.1742 395.997 80.7614 396.376 80.4659C396.758 80.1667 397.175 79.9583 397.626 79.8409C398.08 79.7197 398.527 79.6591 398.967 79.6591C399.247 79.6591 399.569 79.6932 399.933 79.7614C400.3 79.8258 400.654 79.9602 400.995 80.1648C401.34 80.3693 401.626 80.678 401.853 81.0909C402.08 81.5038 402.194 82.0568 402.194 82.75V88.5H400.853V87.3182H400.785C400.694 87.5076 400.542 87.7102 400.33 87.9261C400.118 88.142 399.836 88.3258 399.484 88.4773C399.131 88.6288 398.701 88.7045 398.194 88.7045ZM398.398 87.5C398.929 87.5 399.376 87.3958 399.739 87.1875C400.107 86.9792 400.383 86.7102 400.569 86.3807C400.758 86.0511 400.853 85.7045 400.853 85.3409V84.1136C400.796 84.1818 400.671 84.2443 400.478 84.3011C400.289 84.3542 400.069 84.4015 399.819 84.4432C399.573 84.4811 399.332 84.5152 399.097 84.5455C398.866 84.572 398.679 84.5947 398.535 84.6136C398.186 84.6591 397.861 84.733 397.558 84.8352C397.258 84.9337 397.016 85.0833 396.83 85.2841C396.648 85.4811 396.558 85.75 396.558 86.0909C396.558 86.5568 396.73 86.9091 397.075 87.1477C397.423 87.3826 397.864 87.5 398.398 87.5ZM407.937 88.6818C407.21 88.6818 406.567 88.4981 406.011 88.1307C405.454 87.7595 405.018 87.2367 404.704 86.5625C404.389 85.8845 404.232 85.0833 404.232 84.1591C404.232 83.2424 404.389 82.447 404.704 81.7727C405.018 81.0985 405.456 80.5777 406.016 80.2102C406.577 79.8428 407.225 79.6591 407.96 79.6591C408.528 79.6591 408.977 79.7538 409.306 79.9432C409.639 80.1288 409.893 80.3409 410.067 80.5795C410.246 80.8144 410.384 81.0076 410.482 81.1591H410.596V76.8636H411.937V88.5H410.641V87.1591H410.482C410.384 87.3182 410.244 87.5189 410.062 87.7614C409.88 88 409.621 88.214 409.283 88.4034C408.946 88.589 408.497 88.6818 407.937 88.6818ZM408.119 87.4773C408.656 87.4773 409.111 87.3371 409.482 87.0568C409.853 86.7727 410.136 86.3807 410.329 85.8807C410.522 85.3769 410.619 84.7955 410.619 84.1364C410.619 83.4848 410.524 82.9148 410.335 82.4261C410.145 81.9337 409.865 81.5511 409.494 81.2784C409.122 81.0019 408.664 80.8636 408.119 80.8636C407.55 80.8636 407.077 81.0095 406.698 81.3011C406.323 81.589 406.041 81.9811 405.852 82.4773C405.666 82.9697 405.573 83.5227 405.573 84.1364C405.573 84.7576 405.668 85.322 405.857 85.8295C406.05 86.3333 406.335 86.7348 406.71 87.0341C407.088 87.3295 407.558 87.4773 408.119 87.4773ZM418.238 88.6818C417.397 88.6818 416.672 88.4962 416.062 88.125C415.456 87.75 414.988 87.2273 414.658 86.5568C414.333 85.8826 414.17 85.0985 414.17 84.2045C414.17 83.3106 414.333 82.5227 414.658 81.8409C414.988 81.1553 415.446 80.6212 416.033 80.2386C416.624 79.8523 417.314 79.6591 418.102 79.6591C418.556 79.6591 419.005 79.7348 419.448 79.8864C419.891 80.0379 420.295 80.2841 420.658 80.625C421.022 80.9621 421.312 81.4091 421.528 81.9659C421.744 82.5227 421.852 83.2083 421.852 84.0227V84.5909H415.124V83.4318H420.488C420.488 82.9394 420.389 82.5 420.192 82.1136C419.999 81.7273 419.723 81.4223 419.363 81.1989C419.007 80.9754 418.586 80.8636 418.102 80.8636C417.567 80.8636 417.105 80.9962 416.715 81.2614C416.329 81.5227 416.031 81.8636 415.823 82.2841C415.615 82.7045 415.511 83.1553 415.511 83.6364V84.4091C415.511 85.0682 415.624 85.6269 415.852 86.0852C416.083 86.5398 416.403 86.8864 416.812 87.125C417.221 87.3598 417.696 87.4773 418.238 87.4773C418.59 87.4773 418.908 87.428 419.192 87.3295C419.48 87.2273 419.728 87.0758 419.937 86.875C420.145 86.6705 420.306 86.4167 420.42 86.1136L421.715 86.4773C421.579 86.9167 421.35 87.303 421.028 87.6364C420.706 87.9659 420.308 88.2235 419.835 88.4091C419.361 88.5909 418.829 88.6818 418.238 88.6818ZM429.641 85.3182L429.619 83.6591H429.891L433.71 79.7727H435.369L431.3 83.8864H431.187L429.641 85.3182ZM428.391 88.5V76.8636H429.732V88.5H428.391ZM433.937 88.5L430.528 84.1818L431.482 83.25L435.641 88.5H433.937ZM439.663 88.7045C439.11 88.7045 438.608 88.6004 438.157 88.392C437.706 88.1799 437.348 87.875 437.083 87.4773C436.818 87.0758 436.685 86.5909 436.685 86.0227C436.685 85.5227 436.784 85.1174 436.981 84.8068C437.178 84.4924 437.441 84.2462 437.771 84.0682C438.1 83.8902 438.464 83.7576 438.862 83.6705C439.263 83.5795 439.666 83.5076 440.072 83.4545C440.602 83.3864 441.032 83.3352 441.362 83.3011C441.695 83.2633 441.937 83.2008 442.089 83.1136C442.244 83.0265 442.322 82.875 442.322 82.6591V82.6136C442.322 82.053 442.168 81.6174 441.862 81.3068C441.558 80.9962 441.098 80.8409 440.481 80.8409C439.841 80.8409 439.339 80.9811 438.975 81.2614C438.612 81.5417 438.356 81.8409 438.208 82.1591L436.935 81.7045C437.163 81.1742 437.466 80.7614 437.844 80.4659C438.227 80.1667 438.644 79.9583 439.094 79.8409C439.549 79.7197 439.996 79.6591 440.435 79.6591C440.716 79.6591 441.038 79.6932 441.401 79.7614C441.769 79.8258 442.123 79.9602 442.464 80.1648C442.808 80.3693 443.094 80.678 443.322 81.0909C443.549 81.5038 443.663 82.0568 443.663 82.75V88.5H442.322V87.3182H442.254C442.163 87.5076 442.011 87.7102 441.799 87.9261C441.587 88.142 441.305 88.3258 440.952 88.4773C440.6 88.6288 440.17 88.7045 439.663 88.7045ZM439.867 87.5C440.397 87.5 440.844 87.3958 441.208 87.1875C441.576 86.9792 441.852 86.7102 442.038 86.3807C442.227 86.0511 442.322 85.7045 442.322 85.3409V84.1136C442.265 84.1818 442.14 84.2443 441.947 84.3011C441.757 84.3542 441.538 84.4015 441.288 84.4432C441.041 84.4811 440.801 84.5152 440.566 84.5455C440.335 84.572 440.147 84.5947 440.004 84.6136C439.655 84.6591 439.329 84.733 439.026 84.8352C438.727 84.9337 438.485 85.0833 438.299 85.2841C438.117 85.4811 438.026 85.75 438.026 86.0909C438.026 86.5568 438.199 86.9091 438.543 87.1477C438.892 87.3826 439.333 87.5 439.867 87.5ZM451.61 84.9318V79.7727H452.951V88.5H451.61V87.0227H451.519C451.315 87.4659 450.996 87.8428 450.565 88.1534C450.133 88.4602 449.587 88.6136 448.928 88.6136C448.383 88.6136 447.898 88.4943 447.474 88.2557C447.049 88.0133 446.716 87.6496 446.474 87.1648C446.231 86.6761 446.11 86.0606 446.11 85.3182V79.7727H447.451V85.2273C447.451 85.8636 447.629 86.3712 447.985 86.75C448.345 87.1288 448.803 87.3182 449.36 87.3182C449.693 87.3182 450.032 87.233 450.377 87.0625C450.726 86.892 451.017 86.6307 451.252 86.2784C451.491 85.9261 451.61 85.4773 451.61 84.9318ZM461.589 81.7273L460.384 82.0682C460.308 81.8674 460.197 81.6723 460.049 81.483C459.905 81.2898 459.708 81.1307 459.458 81.0057C459.208 80.8807 458.888 80.8182 458.498 80.8182C457.964 80.8182 457.519 80.9413 457.163 81.1875C456.81 81.4299 456.634 81.7386 456.634 82.1136C456.634 82.447 456.755 82.7102 456.998 82.9034C457.24 83.0966 457.619 83.2576 458.134 83.3864L459.43 83.7045C460.21 83.8939 460.791 84.1837 461.174 84.5739C461.557 84.9602 461.748 85.4583 461.748 86.0682C461.748 86.5682 461.604 87.0152 461.316 87.4091C461.032 87.803 460.634 88.1136 460.123 88.3409C459.612 88.5682 459.017 88.6818 458.339 88.6818C457.449 88.6818 456.712 88.4886 456.129 88.1023C455.545 87.7159 455.176 87.1515 455.021 86.4091L456.293 86.0909C456.415 86.5606 456.644 86.9129 456.981 87.1477C457.322 87.3826 457.767 87.5 458.316 87.5C458.941 87.5 459.437 87.3674 459.805 87.1023C460.176 86.8333 460.362 86.5114 460.362 86.1364C460.362 85.8333 460.255 85.5795 460.043 85.375C459.831 85.1667 459.505 85.0114 459.066 84.9091L457.612 84.5682C456.812 84.3788 456.225 84.0852 455.85 83.6875C455.479 83.286 455.293 82.7841 455.293 82.1818C455.293 81.6894 455.432 81.2538 455.708 80.875C455.988 80.4962 456.369 80.1989 456.85 79.983C457.335 79.767 457.884 79.6591 458.498 79.6591C459.362 79.6591 460.04 79.8485 460.532 80.2273C461.028 80.6061 461.38 81.1061 461.589 81.7273ZM467.562 79.7727V80.9091H463.039V79.7727H467.562ZM464.357 77.6818H465.698V86C465.698 86.3788 465.753 86.6629 465.863 86.8523C465.977 87.0379 466.121 87.1629 466.295 87.2273C466.473 87.2879 466.66 87.3182 466.857 87.3182C467.005 87.3182 467.126 87.3106 467.221 87.2955C467.316 87.2765 467.391 87.2614 467.448 87.25L467.721 88.4545C467.63 88.4886 467.503 88.5227 467.34 88.5568C467.177 88.5947 466.971 88.6136 466.721 88.6136C466.342 88.6136 465.971 88.5322 465.607 88.3693C465.247 88.2064 464.948 87.9583 464.71 87.625C464.475 87.2917 464.357 86.8712 464.357 86.3636V77.6818ZM472.147 88.7045C471.594 88.7045 471.092 88.6004 470.641 88.392C470.191 88.1799 469.833 87.875 469.567 87.4773C469.302 87.0758 469.17 86.5909 469.17 86.0227C469.17 85.5227 469.268 85.1174 469.465 84.8068C469.662 84.4924 469.925 84.2462 470.255 84.0682C470.585 83.8902 470.948 83.7576 471.346 83.6705C471.747 83.5795 472.151 83.5076 472.556 83.4545C473.086 83.3864 473.516 83.3352 473.846 83.3011C474.179 83.2633 474.422 83.2008 474.573 83.1136C474.728 83.0265 474.806 82.875 474.806 82.6591V82.6136C474.806 82.053 474.653 81.6174 474.346 81.3068C474.043 80.9962 473.583 80.8409 472.965 80.8409C472.325 80.8409 471.823 80.9811 471.46 81.2614C471.096 81.5417 470.84 81.8409 470.692 82.1591L469.42 81.7045C469.647 81.1742 469.95 80.7614 470.329 80.4659C470.711 80.1667 471.128 79.9583 471.579 79.8409C472.033 79.7197 472.48 79.6591 472.92 79.6591C473.2 79.6591 473.522 79.6932 473.886 79.7614C474.253 79.8258 474.607 79.9602 474.948 80.1648C475.293 80.3693 475.579 80.678 475.806 81.0909C476.033 81.5038 476.147 82.0568 476.147 82.75V88.5H474.806V87.3182H474.738C474.647 87.5076 474.496 87.7102 474.283 87.9261C474.071 88.142 473.789 88.3258 473.437 88.4773C473.085 88.6288 472.655 88.7045 472.147 88.7045ZM472.352 87.5C472.882 87.5 473.329 87.3958 473.692 87.1875C474.06 86.9792 474.336 86.7102 474.522 86.3807C474.711 86.0511 474.806 85.7045 474.806 85.3409V84.1136C474.749 84.1818 474.624 84.2443 474.431 84.3011C474.242 84.3542 474.022 84.4015 473.772 84.4432C473.526 84.4811 473.285 84.5152 473.05 84.5455C472.819 84.572 472.632 84.5947 472.488 84.6136C472.139 84.6591 471.814 84.733 471.511 84.8352C471.211 84.9337 470.969 85.0833 470.783 85.2841C470.602 85.4811 470.511 85.75 470.511 86.0909C470.511 86.5568 470.683 86.9091 471.028 87.1477C471.376 87.3826 471.817 87.5 472.352 87.5ZM481.89 88.6818C481.163 88.6818 480.521 88.4981 479.964 88.1307C479.407 87.7595 478.971 87.2367 478.657 86.5625C478.343 85.8845 478.185 85.0833 478.185 84.1591C478.185 83.2424 478.343 82.447 478.657 81.7727C478.971 81.0985 479.409 80.5777 479.969 80.2102C480.53 79.8428 481.178 79.6591 481.913 79.6591C482.481 79.6591 482.93 79.7538 483.259 79.9432C483.593 80.1288 483.846 80.3409 484.021 80.5795C484.199 80.8144 484.337 81.0076 484.435 81.1591H484.549V76.8636H485.89V88.5H484.594V87.1591H484.435C484.337 87.3182 484.197 87.5189 484.015 87.7614C483.833 88 483.574 88.214 483.237 88.4034C482.899 88.589 482.451 88.6818 481.89 88.6818ZM482.072 87.4773C482.61 87.4773 483.064 87.3371 483.435 87.0568C483.807 86.7727 484.089 86.3807 484.282 85.8807C484.475 85.3769 484.572 84.7955 484.572 84.1364C484.572 83.4848 484.477 82.9148 484.288 82.4261C484.098 81.9337 483.818 81.5511 483.447 81.2784C483.076 81.0019 482.617 80.8636 482.072 80.8636C481.504 80.8636 481.03 81.0095 480.651 81.3011C480.276 81.589 479.994 81.9811 479.805 82.4773C479.619 82.9697 479.526 83.5227 479.526 84.1364C479.526 84.7576 479.621 85.322 479.81 85.8295C480.004 86.3333 480.288 86.7348 480.663 87.0341C481.041 87.3295 481.511 87.4773 482.072 87.4773ZM496.577 88.6818C495.79 88.6818 495.098 88.4943 494.504 88.1193C493.913 87.7443 493.451 87.2197 493.117 86.5455C492.788 85.8712 492.623 85.0833 492.623 84.1818C492.623 83.2727 492.788 82.4792 493.117 81.8011C493.451 81.1231 493.913 80.5966 494.504 80.2216C495.098 79.8466 495.79 79.6591 496.577 79.6591C497.365 79.6591 498.055 79.8466 498.646 80.2216C499.24 80.5966 499.702 81.1231 500.032 81.8011C500.365 82.4792 500.532 83.2727 500.532 84.1818C500.532 85.0833 500.365 85.8712 500.032 86.5455C499.702 87.2197 499.24 87.7443 498.646 88.1193C498.055 88.4943 497.365 88.6818 496.577 88.6818ZM496.577 87.4773C497.176 87.4773 497.668 87.3239 498.055 87.017C498.441 86.7102 498.727 86.3068 498.913 85.8068C499.098 85.3068 499.191 84.7652 499.191 84.1818C499.191 83.5985 499.098 83.0549 498.913 82.5511C498.727 82.0473 498.441 81.6402 498.055 81.3295C497.668 81.0189 497.176 80.8636 496.577 80.8636C495.979 80.8636 495.487 81.0189 495.1 81.3295C494.714 81.6402 494.428 82.0473 494.242 82.5511C494.057 83.0549 493.964 83.5985 493.964 84.1818C493.964 84.7652 494.057 85.3068 494.242 85.8068C494.428 86.3068 494.714 86.7102 495.1 87.017C495.487 87.3239 495.979 87.4773 496.577 87.4773ZM503.92 83.25V88.5H502.579V79.7727H503.874V81.1364H503.988C504.192 80.6932 504.503 80.3371 504.92 80.0682C505.336 79.7955 505.874 79.6591 506.533 79.6591C507.124 79.6591 507.641 79.7803 508.085 80.0227C508.528 80.2614 508.872 80.625 509.119 81.1136C509.365 81.5985 509.488 82.2121 509.488 82.9545V88.5H508.147V83.0455C508.147 82.3598 507.969 81.8258 507.613 81.4432C507.257 81.0568 506.768 80.8636 506.147 80.8636C505.719 80.8636 505.336 80.9564 504.999 81.142C504.666 81.3277 504.403 81.5985 504.21 81.9545C504.016 82.3106 503.92 82.7424 503.92 83.25ZM520.234 79.7727V80.9091H515.711V79.7727H520.234ZM517.029 77.6818H518.37V86C518.37 86.3788 518.425 86.6629 518.535 86.8523C518.648 87.0379 518.792 87.1629 518.967 87.2273C519.145 87.2879 519.332 87.3182 519.529 87.3182C519.677 87.3182 519.798 87.3106 519.893 87.2955C519.987 87.2765 520.063 87.2614 520.12 87.25L520.393 88.4545C520.302 88.4886 520.175 88.5227 520.012 88.5568C519.849 88.5947 519.643 88.6136 519.393 88.6136C519.014 88.6136 518.643 88.5322 518.279 88.3693C517.919 88.2064 517.62 87.9583 517.381 87.625C517.147 87.2917 517.029 86.8712 517.029 86.3636V77.6818ZM524.819 88.7045C524.266 88.7045 523.764 88.6004 523.313 88.392C522.862 88.1799 522.504 87.875 522.239 87.4773C521.974 87.0758 521.842 86.5909 521.842 86.0227C521.842 85.5227 521.94 85.1174 522.137 84.8068C522.334 84.4924 522.597 84.2462 522.927 84.0682C523.256 83.8902 523.62 83.7576 524.018 83.6705C524.419 83.5795 524.823 83.5076 525.228 83.4545C525.758 83.3864 526.188 83.3352 526.518 83.3011C526.851 83.2633 527.094 83.2008 527.245 83.1136C527.4 83.0265 527.478 82.875 527.478 82.6591V82.6136C527.478 82.053 527.325 81.6174 527.018 81.3068C526.715 80.9962 526.254 80.8409 525.637 80.8409C524.997 80.8409 524.495 80.9811 524.131 81.2614C523.768 81.5417 523.512 81.8409 523.364 82.1591L522.092 81.7045C522.319 81.1742 522.622 80.7614 523.001 80.4659C523.383 80.1667 523.8 79.9583 524.251 79.8409C524.705 79.7197 525.152 79.6591 525.592 79.6591C525.872 79.6591 526.194 79.6932 526.558 79.7614C526.925 79.8258 527.279 79.9602 527.62 80.1648C527.965 80.3693 528.251 80.678 528.478 81.0909C528.705 81.5038 528.819 82.0568 528.819 82.75V88.5H527.478V87.3182H527.41C527.319 87.5076 527.167 87.7102 526.955 87.9261C526.743 88.142 526.461 88.3258 526.109 88.4773C525.756 88.6288 525.326 88.7045 524.819 88.7045ZM525.023 87.5C525.554 87.5 526.001 87.3958 526.364 87.1875C526.732 86.9792 527.008 86.7102 527.194 86.3807C527.383 86.0511 527.478 85.7045 527.478 85.3409V84.1136C527.421 84.1818 527.296 84.2443 527.103 84.3011C526.914 84.3542 526.694 84.4015 526.444 84.4432C526.198 84.4811 525.957 84.5152 525.722 84.5455C525.491 84.572 525.304 84.5947 525.16 84.6136C524.811 84.6591 524.486 84.733 524.183 84.8352C523.883 84.9337 523.641 85.0833 523.455 85.2841C523.273 85.4811 523.183 85.75 523.183 86.0909C523.183 86.5568 523.355 86.9091 523.7 87.1477C524.048 87.3826 524.489 87.5 525.023 87.5ZM533.835 88.7045C533.281 88.7045 532.78 88.6004 532.329 88.392C531.878 88.1799 531.52 87.875 531.255 87.4773C530.99 87.0758 530.857 86.5909 530.857 86.0227C530.857 85.5227 530.956 85.1174 531.153 84.8068C531.35 84.4924 531.613 84.2462 531.942 84.0682C532.272 83.8902 532.636 83.7576 533.033 83.6705C533.435 83.5795 533.838 83.5076 534.244 83.4545C534.774 83.3864 535.204 83.3352 535.533 83.3011C535.867 83.2633 536.109 83.2008 536.261 83.1136C536.416 83.0265 536.494 82.875 536.494 82.6591V82.6136C536.494 82.053 536.34 81.6174 536.033 81.3068C535.73 80.9962 535.27 80.8409 534.653 80.8409C534.013 80.8409 533.511 80.9811 533.147 81.2614C532.783 81.5417 532.528 81.8409 532.38 82.1591L531.107 81.7045C531.335 81.1742 531.638 80.7614 532.016 80.4659C532.399 80.1667 532.816 79.9583 533.266 79.8409C533.721 79.7197 534.168 79.6591 534.607 79.6591C534.888 79.6591 535.21 79.6932 535.573 79.7614C535.941 79.8258 536.295 79.9602 536.636 80.1648C536.98 80.3693 537.266 80.678 537.494 81.0909C537.721 81.5038 537.835 82.0568 537.835 82.75V88.5H536.494V87.3182H536.425C536.335 87.5076 536.183 87.7102 535.971 87.9261C535.759 88.142 535.477 88.3258 535.124 88.4773C534.772 88.6288 534.342 88.7045 533.835 88.7045ZM534.039 87.5C534.569 87.5 535.016 87.3958 535.38 87.1875C535.747 86.9792 536.024 86.7102 536.21 86.3807C536.399 86.0511 536.494 85.7045 536.494 85.3409V84.1136C536.437 84.1818 536.312 84.2443 536.119 84.3011C535.929 84.3542 535.71 84.4015 535.46 84.4432C535.213 84.4811 534.973 84.5152 534.738 84.5455C534.507 84.572 534.319 84.5947 534.175 84.6136C533.827 84.6591 533.501 84.733 533.198 84.8352C532.899 84.9337 532.656 85.0833 532.471 85.2841C532.289 85.4811 532.198 85.75 532.198 86.0909C532.198 86.5568 532.371 86.9091 532.715 87.1477C533.064 87.3826 533.505 87.5 534.039 87.5ZM546.464 81.7273L545.259 82.0682C545.183 81.8674 545.072 81.6723 544.924 81.483C544.78 81.2898 544.583 81.1307 544.333 81.0057C544.083 80.8807 543.763 80.8182 543.373 80.8182C542.839 80.8182 542.394 80.9413 542.038 81.1875C541.685 81.4299 541.509 81.7386 541.509 82.1136C541.509 82.447 541.63 82.7102 541.873 82.9034C542.115 83.0966 542.494 83.2576 543.009 83.3864L544.305 83.7045C545.085 83.8939 545.666 84.1837 546.049 84.5739C546.432 84.9602 546.623 85.4583 546.623 86.0682C546.623 86.5682 546.479 87.0152 546.191 87.4091C545.907 87.803 545.509 88.1136 544.998 88.3409C544.487 88.5682 543.892 88.6818 543.214 88.6818C542.324 88.6818 541.587 88.4886 541.004 88.1023C540.42 87.7159 540.051 87.1515 539.896 86.4091L541.168 86.0909C541.29 86.5606 541.519 86.9129 541.856 87.1477C542.197 87.3826 542.642 87.5 543.191 87.5C543.816 87.5 544.312 87.3674 544.68 87.1023C545.051 86.8333 545.237 86.5114 545.237 86.1364C545.237 85.8333 545.13 85.5795 544.918 85.375C544.706 85.1667 544.38 85.0114 543.941 84.9091L542.487 84.5682C541.687 84.3788 541.1 84.0852 540.725 83.6875C540.354 83.286 540.168 82.7841 540.168 82.1818C540.168 81.6894 540.307 81.2538 540.583 80.875C540.863 80.4962 541.244 80.1989 541.725 79.983C542.21 79.767 542.759 79.6591 543.373 79.6591C544.237 79.6591 544.915 79.8485 545.407 80.2273C545.903 80.6061 546.255 81.1061 546.464 81.7273ZM555.71 88.7045C555.156 88.7045 554.655 88.6004 554.204 88.392C553.753 88.1799 553.395 87.875 553.13 87.4773C552.865 87.0758 552.732 86.5909 552.732 86.0227C552.732 85.5227 552.831 85.1174 553.028 84.8068C553.225 84.4924 553.488 84.2462 553.817 84.0682C554.147 83.8902 554.511 83.7576 554.908 83.6705C555.31 83.5795 555.713 83.5076 556.119 83.4545C556.649 83.3864 557.079 83.3352 557.408 83.3011C557.742 83.2633 557.984 83.2008 558.136 83.1136C558.291 83.0265 558.369 82.875 558.369 82.6591V82.6136C558.369 82.053 558.215 81.6174 557.908 81.3068C557.605 80.9962 557.145 80.8409 556.528 80.8409C555.888 80.8409 555.386 80.9811 555.022 81.2614C554.658 81.5417 554.403 81.8409 554.255 82.1591L552.982 81.7045C553.21 81.1742 553.513 80.7614 553.891 80.4659C554.274 80.1667 554.691 79.9583 555.141 79.8409C555.596 79.7197 556.043 79.6591 556.482 79.6591C556.763 79.6591 557.085 79.6932 557.448 79.7614C557.816 79.8258 558.17 79.9602 558.511 80.1648C558.855 80.3693 559.141 80.678 559.369 81.0909C559.596 81.5038 559.71 82.0568 559.71 82.75V88.5H558.369V87.3182H558.3C558.21 87.5076 558.058 87.7102 557.846 87.9261C557.634 88.142 557.352 88.3258 556.999 88.4773C556.647 88.6288 556.217 88.7045 555.71 88.7045ZM555.914 87.5C556.444 87.5 556.891 87.3958 557.255 87.1875C557.622 86.9792 557.899 86.7102 558.085 86.3807C558.274 86.0511 558.369 85.7045 558.369 85.3409V84.1136C558.312 84.1818 558.187 84.2443 557.994 84.3011C557.804 84.3542 557.585 84.4015 557.335 84.4432C557.088 84.4811 556.848 84.5152 556.613 84.5455C556.382 84.572 556.194 84.5947 556.05 84.6136C555.702 84.6591 555.376 84.733 555.073 84.8352C554.774 84.9337 554.531 85.0833 554.346 85.2841C554.164 85.4811 554.073 85.75 554.073 86.0909C554.073 86.5568 554.246 86.9091 554.59 87.1477C554.939 87.3826 555.38 87.5 555.914 87.5ZM568.981 79.7727L565.754 88.5H564.39L561.163 79.7727H562.617L565.026 86.7273H565.117L567.526 79.7727H568.981ZM573.053 88.7045C572.5 88.7045 571.998 88.6004 571.548 88.392C571.097 88.1799 570.739 87.875 570.474 87.4773C570.209 87.0758 570.076 86.5909 570.076 86.0227C570.076 85.5227 570.174 85.1174 570.371 84.8068C570.568 84.4924 570.832 84.2462 571.161 84.0682C571.491 83.8902 571.854 83.7576 572.252 83.6705C572.654 83.5795 573.057 83.5076 573.462 83.4545C573.993 83.3864 574.423 83.3352 574.752 83.3011C575.085 83.2633 575.328 83.2008 575.479 83.1136C575.635 83.0265 575.712 82.875 575.712 82.6591V82.6136C575.712 82.053 575.559 81.6174 575.252 81.3068C574.949 80.9962 574.489 80.8409 573.871 80.8409C573.231 80.8409 572.729 80.9811 572.366 81.2614C572.002 81.5417 571.746 81.8409 571.599 82.1591L570.326 81.7045C570.553 81.1742 570.856 80.7614 571.235 80.4659C571.618 80.1667 572.034 79.9583 572.485 79.8409C572.94 79.7197 573.387 79.6591 573.826 79.6591C574.106 79.6591 574.428 79.6932 574.792 79.7614C575.159 79.8258 575.513 79.9602 575.854 80.1648C576.199 80.3693 576.485 80.678 576.712 81.0909C576.94 81.5038 577.053 82.0568 577.053 82.75V88.5H575.712V87.3182H575.644C575.553 87.5076 575.402 87.7102 575.19 87.9261C574.978 88.142 574.695 88.3258 574.343 88.4773C573.991 88.6288 573.561 88.7045 573.053 88.7045ZM573.258 87.5C573.788 87.5 574.235 87.3958 574.599 87.1875C574.966 86.9792 575.243 86.7102 575.428 86.3807C575.618 86.0511 575.712 85.7045 575.712 85.3409V84.1136C575.656 84.1818 575.531 84.2443 575.337 84.3011C575.148 84.3542 574.928 84.4015 574.678 84.4432C574.432 84.4811 574.192 84.5152 573.957 84.5455C573.726 84.572 573.538 84.5947 573.394 84.6136C573.046 84.6591 572.72 84.733 572.417 84.8352C572.118 84.9337 571.875 85.0833 571.69 85.2841C571.508 85.4811 571.417 85.75 571.417 86.0909C571.417 86.5568 571.589 86.9091 571.934 87.1477C572.282 87.3826 572.724 87.5 573.258 87.5ZM583.296 79.7727V80.9091H578.773V79.7727H583.296ZM580.092 77.6818H581.433V86C581.433 86.3788 581.487 86.6629 581.597 86.8523C581.711 87.0379 581.855 87.1629 582.029 87.2273C582.207 87.2879 582.395 87.3182 582.592 87.3182C582.739 87.3182 582.861 87.3106 582.955 87.2955C583.05 87.2765 583.126 87.2614 583.183 87.25L583.455 88.4545C583.364 88.4886 583.237 88.5227 583.075 88.5568C582.912 88.5947 582.705 88.6136 582.455 88.6136C582.076 88.6136 581.705 88.5322 581.342 88.3693C580.982 88.2064 580.683 87.9583 580.444 87.625C580.209 87.2917 580.092 86.8712 580.092 86.3636V77.6818ZM590.813 84.9318V79.7727H592.154V88.5H590.813V87.0227H590.722C590.518 87.4659 590.2 87.8428 589.768 88.1534C589.336 88.4602 588.79 88.6136 588.131 88.6136C587.586 88.6136 587.101 88.4943 586.677 88.2557C586.253 88.0133 585.919 87.6496 585.677 87.1648C585.434 86.6761 585.313 86.0606 585.313 85.3182V79.7727H586.654V85.2273C586.654 85.8636 586.832 86.3712 587.188 86.75C587.548 87.1288 588.006 87.3182 588.563 87.3182C588.897 87.3182 589.236 87.233 589.58 87.0625C589.929 86.892 590.22 86.6307 590.455 86.2784C590.694 85.9261 590.813 85.4773 590.813 84.9318ZM597.906 88.6818C597.178 88.6818 596.536 88.4981 595.979 88.1307C595.423 87.7595 594.987 87.2367 594.673 86.5625C594.358 85.8845 594.201 85.0833 594.201 84.1591C594.201 83.2424 594.358 82.447 594.673 81.7727C594.987 81.0985 595.424 80.5777 595.985 80.2102C596.546 79.8428 597.193 79.6591 597.928 79.6591C598.496 79.6591 598.945 79.7538 599.275 79.9432C599.608 80.1288 599.862 80.3409 600.036 80.5795C600.214 80.8144 600.353 81.0076 600.451 81.1591H600.565V76.8636H601.906V88.5H600.61V87.1591H600.451C600.353 87.3182 600.212 87.5189 600.031 87.7614C599.849 88 599.589 88.214 599.252 88.4034C598.915 88.589 598.466 88.6818 597.906 88.6818ZM598.087 87.4773C598.625 87.4773 599.08 87.3371 599.451 87.0568C599.822 86.7727 600.104 86.3807 600.298 85.8807C600.491 85.3769 600.587 84.7955 600.587 84.1364C600.587 83.4848 600.493 82.9148 600.303 82.4261C600.114 81.9337 599.834 81.5511 599.462 81.2784C599.091 81.0019 598.633 80.8636 598.087 80.8636C597.519 80.8636 597.046 81.0095 596.667 81.3011C596.292 81.589 596.01 81.9811 595.82 82.4773C595.635 82.9697 595.542 83.5227 595.542 84.1364C595.542 84.7576 595.637 85.322 595.826 85.8295C596.019 86.3333 596.303 86.7348 596.678 87.0341C597.057 87.3295 597.527 87.4773 598.087 87.4773ZM609.048 79.7727H610.388V89.1364C610.388 89.6742 610.296 90.1402 610.11 90.5341C609.928 90.928 609.652 91.233 609.281 91.4489C608.913 91.6648 608.449 91.7727 607.888 91.7727C607.843 91.7727 607.798 91.7727 607.752 91.7727C607.707 91.7727 607.661 91.7727 607.616 91.7727V90.5227C607.661 90.5227 607.703 90.5227 607.741 90.5227C607.779 90.5227 607.82 90.5227 607.866 90.5227C608.275 90.5227 608.574 90.4015 608.763 90.1591C608.953 89.9205 609.048 89.5795 609.048 89.1364V79.7727ZM609.707 78.3182C609.445 78.3182 609.22 78.2292 609.031 78.0511C608.845 77.8731 608.752 77.6591 608.752 77.4091C608.752 77.1591 608.845 76.9451 609.031 76.767C609.22 76.589 609.445 76.5 609.707 76.5C609.968 76.5 610.192 76.589 610.377 76.767C610.567 76.9451 610.661 77.1591 610.661 77.4091C610.661 77.6591 610.567 77.8731 610.377 78.0511C610.192 78.2292 609.968 78.3182 609.707 78.3182ZM615.413 88.7045C614.86 88.7045 614.358 88.6004 613.907 88.392C613.456 88.1799 613.098 87.875 612.833 87.4773C612.568 87.0758 612.435 86.5909 612.435 86.0227C612.435 85.5227 612.534 85.1174 612.731 84.8068C612.928 84.4924 613.191 84.2462 613.521 84.0682C613.85 83.8902 614.214 83.7576 614.612 83.6705C615.013 83.5795 615.416 83.5076 615.822 83.4545C616.352 83.3864 616.782 83.3352 617.112 83.3011C617.445 83.2633 617.687 83.2008 617.839 83.1136C617.994 83.0265 618.072 82.875 618.072 82.6591V82.6136C618.072 82.053 617.918 81.6174 617.612 81.3068C617.308 80.9962 616.848 80.8409 616.231 80.8409C615.591 80.8409 615.089 80.9811 614.725 81.2614C614.362 81.5417 614.106 81.8409 613.958 82.1591L612.685 81.7045C612.913 81.1742 613.216 80.7614 613.594 80.4659C613.977 80.1667 614.394 79.9583 614.844 79.8409C615.299 79.7197 615.746 79.6591 616.185 79.6591C616.466 79.6591 616.788 79.6932 617.151 79.7614C617.519 79.8258 617.873 79.9602 618.214 80.1648C618.558 80.3693 618.844 80.678 619.072 81.0909C619.299 81.5038 619.413 82.0568 619.413 82.75V88.5H618.072V87.3182H618.004C617.913 87.5076 617.761 87.7102 617.549 87.9261C617.337 88.142 617.055 88.3258 616.702 88.4773C616.35 88.6288 615.92 88.7045 615.413 88.7045ZM615.617 87.5C616.147 87.5 616.594 87.3958 616.958 87.1875C617.326 86.9792 617.602 86.7102 617.788 86.3807C617.977 86.0511 618.072 85.7045 618.072 85.3409V84.1136C618.015 84.1818 617.89 84.2443 617.697 84.3011C617.507 84.3542 617.288 84.4015 617.038 84.4432C616.791 84.4811 616.551 84.5152 616.316 84.5455C616.085 84.572 615.897 84.5947 615.754 84.6136C615.405 84.6591 615.079 84.733 614.776 84.8352C614.477 84.9337 614.235 85.0833 614.049 85.2841C613.867 85.4811 613.776 85.75 613.776 86.0909C613.776 86.5568 613.949 86.9091 614.293 87.1477C614.642 87.3826 615.083 87.5 615.617 87.5ZM240.014 107.705C239.461 107.705 238.959 107.6 238.509 107.392C238.058 107.18 237.7 106.875 237.435 106.477C237.17 106.076 237.037 105.591 237.037 105.023C237.037 104.523 237.135 104.117 237.332 103.807C237.529 103.492 237.793 103.246 238.122 103.068C238.452 102.89 238.815 102.758 239.213 102.67C239.615 102.58 240.018 102.508 240.423 102.455C240.954 102.386 241.384 102.335 241.713 102.301C242.046 102.263 242.289 102.201 242.44 102.114C242.596 102.027 242.673 101.875 242.673 101.659V101.614C242.673 101.053 242.52 100.617 242.213 100.307C241.91 99.9962 241.45 99.8409 240.832 99.8409C240.192 99.8409 239.69 99.9811 239.327 100.261C238.963 100.542 238.707 100.841 238.56 101.159L237.287 100.705C237.514 100.174 237.817 99.7614 238.196 99.4659C238.579 99.1667 238.995 98.9583 239.446 98.8409C239.901 98.7197 240.348 98.6591 240.787 98.6591C241.067 98.6591 241.389 98.6932 241.753 98.7614C242.12 98.8258 242.474 98.9602 242.815 99.1648C243.16 99.3693 243.446 99.678 243.673 100.091C243.901 100.504 244.014 101.057 244.014 101.75V107.5H242.673V106.318H242.605C242.514 106.508 242.363 106.71 242.151 106.926C241.938 107.142 241.656 107.326 241.304 107.477C240.952 107.629 240.522 107.705 240.014 107.705ZM240.219 106.5C240.749 106.5 241.196 106.396 241.56 106.188C241.927 105.979 242.204 105.71 242.389 105.381C242.579 105.051 242.673 104.705 242.673 104.341V103.114C242.616 103.182 242.491 103.244 242.298 103.301C242.109 103.354 241.889 103.402 241.639 103.443C241.393 103.481 241.152 103.515 240.918 103.545C240.687 103.572 240.499 103.595 240.355 103.614C240.007 103.659 239.681 103.733 239.378 103.835C239.079 103.934 238.836 104.083 238.651 104.284C238.469 104.481 238.378 104.75 238.378 105.091C238.378 105.557 238.55 105.909 238.895 106.148C239.243 106.383 239.685 106.5 240.219 106.5ZM247.803 102.25V107.5H246.462V98.7727H247.757V100.136H247.871C248.075 99.6932 248.386 99.3371 248.803 99.0682C249.219 98.7955 249.757 98.6591 250.416 98.6591C251.007 98.6591 251.524 98.7803 251.967 99.0227C252.411 99.2614 252.755 99.625 253.001 100.114C253.248 100.598 253.371 101.212 253.371 101.955V107.5H252.03V102.045C252.03 101.36 251.852 100.826 251.496 100.443C251.14 100.057 250.651 99.8636 250.03 99.8636C249.602 99.8636 249.219 99.9564 248.882 100.142C248.549 100.328 248.286 100.598 248.092 100.955C247.899 101.311 247.803 101.742 247.803 102.25ZM259.116 107.682C258.389 107.682 257.747 107.498 257.19 107.131C256.634 106.759 256.198 106.237 255.884 105.562C255.569 104.884 255.412 104.083 255.412 103.159C255.412 102.242 255.569 101.447 255.884 100.773C256.198 100.098 256.635 99.5777 257.196 99.2102C257.757 98.8428 258.404 98.6591 259.139 98.6591C259.707 98.6591 260.156 98.7538 260.486 98.9432C260.819 99.1288 261.073 99.3409 261.247 99.5795C261.425 99.8144 261.563 100.008 261.662 100.159H261.776V95.8636H263.116V107.5H261.821V106.159H261.662C261.563 106.318 261.423 106.519 261.241 106.761C261.06 107 260.8 107.214 260.463 107.403C260.126 107.589 259.677 107.682 259.116 107.682ZM259.298 106.477C259.836 106.477 260.291 106.337 260.662 106.057C261.033 105.773 261.315 105.381 261.509 104.881C261.702 104.377 261.798 103.795 261.798 103.136C261.798 102.485 261.704 101.915 261.514 101.426C261.325 100.934 261.045 100.551 260.673 100.278C260.302 100.002 259.844 99.8636 259.298 99.8636C258.73 99.8636 258.257 100.009 257.878 100.301C257.503 100.589 257.221 100.981 257.031 101.477C256.846 101.97 256.753 102.523 256.753 103.136C256.753 103.758 256.848 104.322 257.037 104.83C257.23 105.333 257.514 105.735 257.889 106.034C258.268 106.33 258.738 106.477 259.298 106.477ZM265.759 107.5V98.7727H267.054V100.136H267.168C267.349 99.6705 267.643 99.3087 268.048 99.0511C268.454 98.7898 268.94 98.6591 269.509 98.6591C270.084 98.6591 270.563 98.7898 270.946 99.0511C271.332 99.3087 271.634 99.6705 271.849 100.136H271.94C272.164 99.6856 272.499 99.3277 272.946 99.0625C273.393 98.7936 273.929 98.6591 274.554 98.6591C275.334 98.6591 275.973 98.9034 276.469 99.392C276.965 99.8769 277.213 100.633 277.213 101.659V107.5H275.872V101.659C275.872 101.015 275.696 100.555 275.344 100.278C274.991 100.002 274.577 99.8636 274.099 99.8636C273.486 99.8636 273.01 100.049 272.673 100.42C272.336 100.788 272.168 101.254 272.168 101.818V107.5H270.804V101.523C270.804 101.027 270.643 100.627 270.321 100.324C269.999 100.017 269.584 99.8636 269.077 99.8636C268.728 99.8636 268.402 99.9564 268.099 100.142C267.8 100.328 267.558 100.585 267.372 100.915C267.19 101.241 267.099 101.617 267.099 102.045V107.5H265.759ZM283.324 107.682C282.483 107.682 281.758 107.496 281.148 107.125C280.542 106.75 280.074 106.227 279.744 105.557C279.419 104.883 279.256 104.098 279.256 103.205C279.256 102.311 279.419 101.523 279.744 100.841C280.074 100.155 280.532 99.6212 281.119 99.2386C281.71 98.8523 282.4 98.6591 283.188 98.6591C283.642 98.6591 284.091 98.7348 284.534 98.8864C284.977 99.0379 285.381 99.2841 285.744 99.625C286.108 99.9621 286.398 100.409 286.614 100.966C286.83 101.523 286.938 102.208 286.938 103.023V103.591H280.21V102.432H285.574C285.574 101.939 285.475 101.5 285.278 101.114C285.085 100.727 284.809 100.422 284.449 100.199C284.093 99.9754 283.672 99.8636 283.188 99.8636C282.653 99.8636 282.191 99.9962 281.801 100.261C281.415 100.523 281.117 100.864 280.909 101.284C280.701 101.705 280.597 102.155 280.597 102.636V103.409C280.597 104.068 280.71 104.627 280.938 105.085C281.169 105.54 281.489 105.886 281.898 106.125C282.307 106.36 282.782 106.477 283.324 106.477C283.676 106.477 283.994 106.428 284.278 106.33C284.566 106.227 284.814 106.076 285.023 105.875C285.231 105.67 285.392 105.417 285.506 105.114L286.801 105.477C286.665 105.917 286.436 106.303 286.114 106.636C285.792 106.966 285.394 107.223 284.92 107.409C284.447 107.591 283.915 107.682 283.324 107.682ZM292.273 107.682C291.545 107.682 290.903 107.498 290.347 107.131C289.79 106.759 289.354 106.237 289.04 105.562C288.725 104.884 288.568 104.083 288.568 103.159C288.568 102.242 288.725 101.447 289.04 100.773C289.354 100.098 289.792 99.5777 290.352 99.2102C290.913 98.8428 291.561 98.6591 292.295 98.6591C292.864 98.6591 293.313 98.7538 293.642 98.9432C293.975 99.1288 294.229 99.3409 294.403 99.5795C294.581 99.8144 294.72 100.008 294.818 100.159H294.932V95.8636H296.273V107.5H294.977V106.159H294.818C294.72 106.318 294.58 106.519 294.398 106.761C294.216 107 293.956 107.214 293.619 107.403C293.282 107.589 292.833 107.682 292.273 107.682ZM292.455 106.477C292.992 106.477 293.447 106.337 293.818 106.057C294.189 105.773 294.472 105.381 294.665 104.881C294.858 104.377 294.955 103.795 294.955 103.136C294.955 102.485 294.86 101.915 294.67 101.426C294.481 100.934 294.201 100.551 293.83 100.278C293.458 100.002 293 99.8636 292.455 99.8636C291.886 99.8636 291.413 100.009 291.034 100.301C290.659 100.589 290.377 100.981 290.188 101.477C290.002 101.97 289.909 102.523 289.909 103.136C289.909 103.758 290.004 104.322 290.193 104.83C290.386 105.333 290.67 105.735 291.045 106.034C291.424 106.33 291.894 106.477 292.455 106.477ZM304.665 104.318L304.642 102.659H304.915L308.733 98.7727H310.392L306.324 102.886H306.21L304.665 104.318ZM303.415 107.5V95.8636H304.756V107.5H303.415ZM308.96 107.5L305.551 103.182L306.506 102.25L310.665 107.5H308.96ZM314.686 107.705C314.133 107.705 313.631 107.6 313.18 107.392C312.73 107.18 312.372 106.875 312.107 106.477C311.841 106.076 311.709 105.591 311.709 105.023C311.709 104.523 311.807 104.117 312.004 103.807C312.201 103.492 312.464 103.246 312.794 103.068C313.124 102.89 313.487 102.758 313.885 102.67C314.286 102.58 314.69 102.508 315.095 102.455C315.625 102.386 316.055 102.335 316.385 102.301C316.718 102.263 316.961 102.201 317.112 102.114C317.268 102.027 317.345 101.875 317.345 101.659V101.614C317.345 101.053 317.192 100.617 316.885 100.307C316.582 99.9962 316.122 99.8409 315.504 99.8409C314.864 99.8409 314.362 99.9811 313.999 100.261C313.635 100.542 313.379 100.841 313.232 101.159L311.959 100.705C312.186 100.174 312.489 99.7614 312.868 99.4659C313.25 99.1667 313.667 98.9583 314.118 98.8409C314.572 98.7197 315.019 98.6591 315.459 98.6591C315.739 98.6591 316.061 98.6932 316.425 98.7614C316.792 98.8258 317.146 98.9602 317.487 99.1648C317.832 99.3693 318.118 99.678 318.345 100.091C318.572 100.504 318.686 101.057 318.686 101.75V107.5H317.345V106.318H317.277C317.186 106.508 317.035 106.71 316.822 106.926C316.61 107.142 316.328 107.326 315.976 107.477C315.624 107.629 315.194 107.705 314.686 107.705ZM314.891 106.5C315.421 106.5 315.868 106.396 316.232 106.188C316.599 105.979 316.875 105.71 317.061 105.381C317.25 105.051 317.345 104.705 317.345 104.341V103.114C317.288 103.182 317.163 103.244 316.97 103.301C316.781 103.354 316.561 103.402 316.311 103.443C316.065 103.481 315.824 103.515 315.589 103.545C315.358 103.572 315.171 103.595 315.027 103.614C314.679 103.659 314.353 103.733 314.05 103.835C313.75 103.934 313.508 104.083 313.322 104.284C313.141 104.481 313.05 104.75 313.05 105.091C313.05 105.557 313.222 105.909 313.567 106.148C313.915 106.383 314.357 106.5 314.891 106.5ZM313.913 97.3182C313.675 97.3182 313.463 97.2273 313.277 97.0455C313.095 96.8598 313.004 96.6477 313.004 96.4091C313.004 96.1477 313.095 95.9318 313.277 95.7614C313.463 95.5871 313.675 95.5 313.913 95.5C314.175 95.5 314.391 95.5871 314.561 95.7614C314.735 95.9318 314.822 96.1477 314.822 96.4091C314.822 96.6477 314.735 96.8598 314.561 97.0455C314.391 97.2273 314.175 97.3182 313.913 97.3182ZM317.186 97.3182C316.947 97.3182 316.735 97.2273 316.55 97.0455C316.368 96.8598 316.277 96.6477 316.277 96.4091C316.277 96.1477 316.368 95.9318 316.55 95.7614C316.735 95.5871 316.947 95.5 317.186 95.5C317.447 95.5 317.663 95.5871 317.834 95.7614C318.008 95.9318 318.095 96.1477 318.095 96.4091C318.095 96.6477 318.008 96.8598 317.834 97.0455C317.663 97.2273 317.447 97.3182 317.186 97.3182ZM324.929 98.7727V99.9091H320.406V98.7727H324.929ZM321.724 96.6818H323.065V105C323.065 105.379 323.12 105.663 323.23 105.852C323.344 106.038 323.488 106.163 323.662 106.227C323.84 106.288 324.027 106.318 324.224 106.318C324.372 106.318 324.493 106.311 324.588 106.295C324.683 106.277 324.759 106.261 324.815 106.25L325.088 107.455C324.997 107.489 324.87 107.523 324.707 107.557C324.545 107.595 324.338 107.614 324.088 107.614C323.709 107.614 323.338 107.532 322.974 107.369C322.615 107.206 322.315 106.958 322.077 106.625C321.842 106.292 321.724 105.871 321.724 105.364V96.6818ZM330.741 98.7727V99.9091H326.219V98.7727H330.741ZM327.537 96.6818H328.878V105C328.878 105.379 328.933 105.663 329.043 105.852C329.156 106.038 329.3 106.163 329.474 106.227C329.652 106.288 329.84 106.318 330.037 106.318C330.185 106.318 330.306 106.311 330.401 106.295C330.495 106.277 330.571 106.261 330.628 106.25L330.901 107.455C330.81 107.489 330.683 107.523 330.52 107.557C330.357 107.595 330.151 107.614 329.901 107.614C329.522 107.614 329.151 107.532 328.787 107.369C328.427 107.206 328.128 106.958 327.889 106.625C327.654 106.292 327.537 105.871 327.537 105.364V96.6818ZM336.324 107.682C335.483 107.682 334.758 107.496 334.148 107.125C333.542 106.75 333.074 106.227 332.744 105.557C332.419 104.883 332.256 104.098 332.256 103.205C332.256 102.311 332.419 101.523 332.744 100.841C333.074 100.155 333.532 99.6212 334.119 99.2386C334.71 98.8523 335.4 98.6591 336.188 98.6591C336.642 98.6591 337.091 98.7348 337.534 98.8864C337.977 99.0379 338.381 99.2841 338.744 99.625C339.108 99.9621 339.398 100.409 339.614 100.966C339.83 101.523 339.938 102.208 339.938 103.023V103.591H333.21V102.432H338.574C338.574 101.939 338.475 101.5 338.278 101.114C338.085 100.727 337.809 100.422 337.449 100.199C337.093 99.9754 336.672 99.8636 336.188 99.8636C335.653 99.8636 335.191 99.9962 334.801 100.261C334.415 100.523 334.117 100.864 333.909 101.284C333.701 101.705 333.597 102.155 333.597 102.636V103.409C333.597 104.068 333.71 104.627 333.938 105.085C334.169 105.54 334.489 105.886 334.898 106.125C335.307 106.36 335.782 106.477 336.324 106.477C336.676 106.477 336.994 106.428 337.278 106.33C337.566 106.227 337.814 106.076 338.023 105.875C338.231 105.67 338.392 105.417 338.506 105.114L339.801 105.477C339.665 105.917 339.436 106.303 339.114 106.636C338.792 106.966 338.394 107.223 337.92 107.409C337.447 107.591 336.915 107.682 336.324 107.682ZM348.159 100.727L346.955 101.068C346.879 100.867 346.767 100.672 346.619 100.483C346.475 100.29 346.278 100.131 346.028 100.006C345.778 99.8807 345.458 99.8182 345.068 99.8182C344.534 99.8182 344.089 99.9413 343.733 100.188C343.381 100.43 343.205 100.739 343.205 101.114C343.205 101.447 343.326 101.71 343.568 101.903C343.811 102.097 344.189 102.258 344.705 102.386L346 102.705C346.78 102.894 347.362 103.184 347.744 103.574C348.127 103.96 348.318 104.458 348.318 105.068C348.318 105.568 348.174 106.015 347.886 106.409C347.602 106.803 347.205 107.114 346.693 107.341C346.182 107.568 345.587 107.682 344.909 107.682C344.019 107.682 343.282 107.489 342.699 107.102C342.116 106.716 341.746 106.152 341.591 105.409L342.864 105.091C342.985 105.561 343.214 105.913 343.551 106.148C343.892 106.383 344.337 106.5 344.886 106.5C345.511 106.5 346.008 106.367 346.375 106.102C346.746 105.833 346.932 105.511 346.932 105.136C346.932 104.833 346.826 104.58 346.614 104.375C346.402 104.167 346.076 104.011 345.636 103.909L344.182 103.568C343.383 103.379 342.795 103.085 342.42 102.688C342.049 102.286 341.864 101.784 341.864 101.182C341.864 100.689 342.002 100.254 342.278 99.875C342.559 99.4962 342.939 99.1989 343.42 98.983C343.905 98.767 344.455 98.6591 345.068 98.6591C345.932 98.6591 346.61 98.8485 347.102 99.2273C347.598 99.6061 347.951 100.106 348.159 100.727ZM352.905 107.705C352.352 107.705 351.85 107.6 351.399 107.392C350.948 107.18 350.59 106.875 350.325 106.477C350.06 106.076 349.928 105.591 349.928 105.023C349.928 104.523 350.026 104.117 350.223 103.807C350.42 103.492 350.683 103.246 351.013 103.068C351.342 102.89 351.706 102.758 352.104 102.67C352.505 102.58 352.909 102.508 353.314 102.455C353.844 102.386 354.274 102.335 354.604 102.301C354.937 102.263 355.179 102.201 355.331 102.114C355.486 102.027 355.564 101.875 355.564 101.659V101.614C355.564 101.053 355.411 100.617 355.104 100.307C354.801 99.9962 354.34 99.8409 353.723 99.8409C353.083 99.8409 352.581 99.9811 352.217 100.261C351.854 100.542 351.598 100.841 351.45 101.159L350.178 100.705C350.405 100.174 350.708 99.7614 351.087 99.4659C351.469 99.1667 351.886 98.9583 352.337 98.8409C352.791 98.7197 353.238 98.6591 353.678 98.6591C353.958 98.6591 354.28 98.6932 354.643 98.7614C355.011 98.8258 355.365 98.9602 355.706 99.1648C356.051 99.3693 356.337 99.678 356.564 100.091C356.791 100.504 356.905 101.057 356.905 101.75V107.5H355.564V106.318H355.496C355.405 106.508 355.253 106.71 355.041 106.926C354.829 107.142 354.547 107.326 354.195 107.477C353.842 107.629 353.412 107.705 352.905 107.705ZM353.109 106.5C353.64 106.5 354.087 106.396 354.45 106.188C354.818 105.979 355.094 105.71 355.28 105.381C355.469 105.051 355.564 104.705 355.564 104.341V103.114C355.507 103.182 355.382 103.244 355.189 103.301C355 103.354 354.78 103.402 354.53 103.443C354.284 103.481 354.043 103.515 353.808 103.545C353.577 103.572 353.39 103.595 353.246 103.614C352.897 103.659 352.571 103.733 352.268 103.835C351.969 103.934 351.727 104.083 351.541 104.284C351.359 104.481 351.268 104.75 351.268 105.091C351.268 105.557 351.441 105.909 351.786 106.148C352.134 106.383 352.575 106.5 353.109 106.5ZM361.92 107.705C361.367 107.705 360.866 107.6 360.415 107.392C359.964 107.18 359.606 106.875 359.341 106.477C359.076 106.076 358.943 105.591 358.943 105.023C358.943 104.523 359.042 104.117 359.239 103.807C359.436 103.492 359.699 103.246 360.028 103.068C360.358 102.89 360.722 102.758 361.119 102.67C361.521 102.58 361.924 102.508 362.33 102.455C362.86 102.386 363.29 102.335 363.619 102.301C363.953 102.263 364.195 102.201 364.347 102.114C364.502 102.027 364.58 101.875 364.58 101.659V101.614C364.58 101.053 364.426 100.617 364.119 100.307C363.816 99.9962 363.356 99.8409 362.739 99.8409C362.098 99.8409 361.597 99.9811 361.233 100.261C360.869 100.542 360.614 100.841 360.466 101.159L359.193 100.705C359.42 100.174 359.723 99.7614 360.102 99.4659C360.485 99.1667 360.902 98.9583 361.352 98.8409C361.807 98.7197 362.254 98.6591 362.693 98.6591C362.973 98.6591 363.295 98.6932 363.659 98.7614C364.027 98.8258 364.381 98.9602 364.722 99.1648C365.066 99.3693 365.352 99.678 365.58 100.091C365.807 100.504 365.92 101.057 365.92 101.75V107.5H364.58V106.318H364.511C364.42 106.508 364.269 106.71 364.057 106.926C363.845 107.142 363.563 107.326 363.21 107.477C362.858 107.629 362.428 107.705 361.92 107.705ZM362.125 106.5C362.655 106.5 363.102 106.396 363.466 106.188C363.833 105.979 364.11 105.71 364.295 105.381C364.485 105.051 364.58 104.705 364.58 104.341V103.114C364.523 103.182 364.398 103.244 364.205 103.301C364.015 103.354 363.795 103.402 363.545 103.443C363.299 103.481 363.059 103.515 362.824 103.545C362.593 103.572 362.405 103.595 362.261 103.614C361.913 103.659 361.587 103.733 361.284 103.835C360.985 103.934 360.742 104.083 360.557 104.284C360.375 104.481 360.284 104.75 360.284 105.091C360.284 105.557 360.456 105.909 360.801 106.148C361.15 106.383 361.591 106.5 362.125 106.5ZM371.663 107.682C370.936 107.682 370.294 107.498 369.737 107.131C369.18 106.759 368.745 106.237 368.43 105.562C368.116 104.884 367.959 104.083 367.959 103.159C367.959 102.242 368.116 101.447 368.43 100.773C368.745 100.098 369.182 99.5777 369.743 99.2102C370.304 98.8428 370.951 98.6591 371.686 98.6591C372.254 98.6591 372.703 98.7538 373.033 98.9432C373.366 99.1288 373.62 99.3409 373.794 99.5795C373.972 99.8144 374.11 100.008 374.209 100.159H374.322V95.8636H375.663V107.5H374.368V106.159H374.209C374.11 106.318 373.97 106.519 373.788 106.761C373.607 107 373.347 107.214 373.01 107.403C372.673 107.589 372.224 107.682 371.663 107.682ZM371.845 106.477C372.383 106.477 372.838 106.337 373.209 106.057C373.58 105.773 373.862 105.381 374.055 104.881C374.249 104.377 374.345 103.795 374.345 103.136C374.345 102.485 374.25 101.915 374.061 101.426C373.872 100.934 373.591 100.551 373.22 100.278C372.849 100.002 372.391 99.8636 371.845 99.8636C371.277 99.8636 370.804 100.009 370.425 100.301C370.05 100.589 369.768 100.981 369.578 101.477C369.393 101.97 369.3 102.523 369.3 103.136C369.3 103.758 369.394 104.322 369.584 104.83C369.777 105.333 370.061 105.735 370.436 106.034C370.815 106.33 371.285 106.477 371.845 106.477ZM380.874 107.705C380.321 107.705 379.819 107.6 379.368 107.392C378.917 107.18 378.559 106.875 378.294 106.477C378.029 106.076 377.896 105.591 377.896 105.023C377.896 104.523 377.995 104.117 378.192 103.807C378.389 103.492 378.652 103.246 378.982 103.068C379.311 102.89 379.675 102.758 380.072 102.67C380.474 102.58 380.877 102.508 381.283 102.455C381.813 102.386 382.243 102.335 382.572 102.301C382.906 102.263 383.148 102.201 383.3 102.114C383.455 102.027 383.533 101.875 383.533 101.659V101.614C383.533 101.053 383.379 100.617 383.072 100.307C382.769 99.9962 382.309 99.8409 381.692 99.8409C381.052 99.8409 380.55 99.9811 380.186 100.261C379.822 100.542 379.567 100.841 379.419 101.159L378.146 100.705C378.374 100.174 378.677 99.7614 379.055 99.4659C379.438 99.1667 379.855 98.9583 380.305 98.8409C380.76 98.7197 381.207 98.6591 381.646 98.6591C381.927 98.6591 382.249 98.6932 382.612 98.7614C382.98 98.8258 383.334 98.9602 383.675 99.1648C384.019 99.3693 384.305 99.678 384.533 100.091C384.76 100.504 384.874 101.057 384.874 101.75V107.5H383.533V106.318H383.464C383.374 106.508 383.222 106.71 383.01 106.926C382.798 107.142 382.516 107.326 382.163 107.477C381.811 107.629 381.381 107.705 380.874 107.705ZM381.078 106.5C381.608 106.5 382.055 106.396 382.419 106.188C382.786 105.979 383.063 105.71 383.249 105.381C383.438 105.051 383.533 104.705 383.533 104.341V103.114C383.476 103.182 383.351 103.244 383.158 103.301C382.968 103.354 382.749 103.402 382.499 103.443C382.252 103.481 382.012 103.515 381.777 103.545C381.546 103.572 381.358 103.595 381.214 103.614C380.866 103.659 380.54 103.733 380.237 103.835C379.938 103.934 379.696 104.083 379.51 104.284C379.328 104.481 379.237 104.75 379.237 105.091C379.237 105.557 379.41 105.909 379.754 106.148C380.103 106.383 380.544 106.5 381.078 106.5ZM394.145 98.7727L390.918 107.5H389.554L386.327 98.7727H387.781L390.19 105.727H390.281L392.69 98.7727H394.145ZM398.217 107.705C397.664 107.705 397.162 107.6 396.712 107.392C396.261 107.18 395.903 106.875 395.638 106.477C395.373 106.076 395.24 105.591 395.24 105.023C395.24 104.523 395.339 104.117 395.536 103.807C395.732 103.492 395.996 103.246 396.325 103.068C396.655 102.89 397.018 102.758 397.416 102.67C397.818 102.58 398.221 102.508 398.626 102.455C399.157 102.386 399.587 102.335 399.916 102.301C400.25 102.263 400.492 102.201 400.643 102.114C400.799 102.027 400.876 101.875 400.876 101.659V101.614C400.876 101.053 400.723 100.617 400.416 100.307C400.113 99.9962 399.653 99.8409 399.036 99.8409C398.395 99.8409 397.893 99.9811 397.53 100.261C397.166 100.542 396.911 100.841 396.763 101.159L395.49 100.705C395.717 100.174 396.02 99.7614 396.399 99.4659C396.782 99.1667 397.198 98.9583 397.649 98.8409C398.104 98.7197 398.551 98.6591 398.99 98.6591C399.27 98.6591 399.592 98.6932 399.956 98.7614C400.323 98.8258 400.678 98.9602 401.018 99.1648C401.363 99.3693 401.649 99.678 401.876 100.091C402.104 100.504 402.217 101.057 402.217 101.75V107.5H400.876V106.318H400.808C400.717 106.508 400.566 106.71 400.354 106.926C400.142 107.142 399.859 107.326 399.507 107.477C399.155 107.629 398.725 107.705 398.217 107.705ZM398.422 106.5C398.952 106.5 399.399 106.396 399.763 106.188C400.13 105.979 400.407 105.71 400.592 105.381C400.782 105.051 400.876 104.705 400.876 104.341V103.114C400.82 103.182 400.695 103.244 400.501 103.301C400.312 103.354 400.092 103.402 399.842 103.443C399.596 103.481 399.356 103.515 399.121 103.545C398.89 103.572 398.702 103.595 398.558 103.614C398.21 103.659 397.884 103.733 397.581 103.835C397.282 103.934 397.039 104.083 396.854 104.284C396.672 104.481 396.581 104.75 396.581 105.091C396.581 105.557 396.753 105.909 397.098 106.148C397.446 106.383 397.888 106.5 398.422 106.5ZM407.96 107.682C407.233 107.682 406.591 107.498 406.034 107.131C405.477 106.759 405.042 106.237 404.727 105.562C404.413 104.884 404.256 104.083 404.256 103.159C404.256 102.242 404.413 101.447 404.727 100.773C405.042 100.098 405.479 99.5777 406.04 99.2102C406.6 98.8428 407.248 98.6591 407.983 98.6591C408.551 98.6591 409 98.7538 409.33 98.9432C409.663 99.1288 409.917 99.3409 410.091 99.5795C410.269 99.8144 410.407 100.008 410.506 100.159H410.619V95.8636H411.96V107.5H410.665V106.159H410.506C410.407 106.318 410.267 106.519 410.085 106.761C409.903 107 409.644 107.214 409.307 107.403C408.97 107.589 408.521 107.682 407.96 107.682ZM408.142 106.477C408.68 106.477 409.134 106.337 409.506 106.057C409.877 105.773 410.159 105.381 410.352 104.881C410.545 104.377 410.642 103.795 410.642 103.136C410.642 102.485 410.547 101.915 410.358 101.426C410.169 100.934 409.888 100.551 409.517 100.278C409.146 100.002 408.688 99.8636 408.142 99.8636C407.574 99.8636 407.1 100.009 406.722 100.301C406.347 100.589 406.064 100.981 405.875 101.477C405.689 101.97 405.597 102.523 405.597 103.136C405.597 103.758 405.691 104.322 405.881 104.83C406.074 105.333 406.358 105.735 406.733 106.034C407.112 106.33 407.581 106.477 408.142 106.477ZM415.58 107.591C415.299 107.591 415.059 107.491 414.858 107.29C414.657 107.089 414.557 106.848 414.557 106.568C414.557 106.288 414.657 106.047 414.858 105.847C415.059 105.646 415.299 105.545 415.58 105.545C415.86 105.545 416.1 105.646 416.301 105.847C416.502 106.047 416.602 106.288 416.602 106.568C416.602 106.754 416.555 106.924 416.46 107.08C416.369 107.235 416.246 107.36 416.091 107.455C415.939 107.545 415.769 107.591 415.58 107.591Z" fill="#A4A4A4"/>
</svg>
