<svg width="130" height="83" viewBox="0 0 130 83" fill="none" xmlns="http://www.w3.org/2000/svg">
<rect x="48.25" y="0.75" width="33.5" height="33.5" rx="16.75" fill="#2C0E0E"/>
<rect x="48.25" y="0.75" width="33.5" height="33.5" rx="16.75" stroke="#DA2424" stroke-width="1.5"/>
<path d="M65 8L73 23H57L65 8Z" stroke="#DA2424" stroke-width="1.5" stroke-linecap="round" stroke-linejoin="round"/>
<path d="M65 14.1777V17.7071" stroke="#DA2424" stroke-width="1.5" stroke-linecap="round" stroke-linejoin="round"/>
<path d="M65 20.3516V20.3616" stroke="#DA2424" stroke-width="1.5" stroke-linecap="round" stroke-linejoin="round"/>
<path d="M22.1175 49.3636C22.0579 48.8598 21.8159 48.4688 21.3917 48.1903C20.9674 47.9119 20.4471 47.7727 19.8306 47.7727C19.3799 47.7727 18.9854 47.8456 18.6474 47.9915C18.3126 48.1373 18.0508 48.3378 17.8619 48.593C17.6763 48.8482 17.5835 49.1383 17.5835 49.4631C17.5835 49.7348 17.6481 49.9685 17.7773 50.1641C17.9099 50.3563 18.079 50.517 18.2844 50.6463C18.4899 50.7723 18.7054 50.8767 18.9308 50.9595C19.1561 51.0391 19.3633 51.1037 19.5522 51.1534L20.5863 51.4318C20.8514 51.5014 21.1464 51.5975 21.4712 51.7202C21.7994 51.8428 22.1126 52.0102 22.4109 52.2223C22.7125 52.4311 22.9611 52.6996 23.1566 53.0277C23.3522 53.3558 23.4499 53.7585 23.4499 54.2358C23.4499 54.786 23.3058 55.2831 23.0174 55.7273C22.7324 56.1714 22.3147 56.5244 21.7646 56.7862C21.2177 57.0481 20.5531 57.179 19.771 57.179C19.0418 57.179 18.4104 57.0613 17.8768 56.826C17.3465 56.5907 16.9289 56.2625 16.6239 55.8416C16.3223 55.4207 16.1516 54.9318 16.1119 54.375H17.3846C17.4177 54.7595 17.547 55.0777 17.7724 55.3295C18.0011 55.5781 18.2894 55.7637 18.6374 55.8864C18.9888 56.0057 19.3666 56.0653 19.771 56.0653C20.2416 56.0653 20.6642 55.9891 21.0387 55.8366C21.4132 55.6809 21.7099 55.4654 21.9286 55.1903C22.1474 54.9119 22.2567 54.5871 22.2567 54.2159C22.2567 53.8778 22.1623 53.6027 21.9734 53.3906C21.7844 53.1785 21.5359 53.0062 21.2276 52.8736C20.9194 52.741 20.5863 52.625 20.2283 52.5256L18.9755 52.1676C18.18 51.9389 17.5503 51.6125 17.0863 51.1882C16.6223 50.764 16.3903 50.2088 16.3903 49.5227C16.3903 48.9527 16.5444 48.4555 16.8526 48.0312C17.1642 47.6037 17.5818 47.2723 18.1055 47.0369C18.6325 46.7983 19.2208 46.679 19.8704 46.679C20.5266 46.679 21.11 46.7966 21.6204 47.032C22.1308 47.264 22.5352 47.5821 22.8335 47.9865C23.1351 48.3909 23.2942 48.8499 23.3107 49.3636H22.1175ZM28.5197 57.1591C27.7839 57.1591 27.1492 56.9967 26.6156 56.6719C26.0853 56.3438 25.676 55.8864 25.3876 55.2997C25.1026 54.7098 24.96 54.0237 24.96 53.2415C24.96 52.4593 25.1026 51.7699 25.3876 51.1733C25.676 50.5734 26.077 50.1061 26.5907 49.7713C27.1078 49.4332 27.711 49.2642 28.4004 49.2642C28.7981 49.2642 29.1909 49.3305 29.5787 49.4631C29.9664 49.5956 30.3194 49.8111 30.6376 50.1094C30.9558 50.4044 31.2093 50.7955 31.3983 51.2827C31.5872 51.7699 31.6816 52.3698 31.6816 53.0824V53.5795H25.7953V52.5653H30.4885C30.4885 52.1345 30.4023 51.75 30.2299 51.4119C30.0609 51.0739 29.819 50.8071 29.5041 50.6115C29.1925 50.416 28.8246 50.3182 28.4004 50.3182C27.9331 50.3182 27.5287 50.4342 27.1873 50.6662C26.8493 50.8949 26.5891 51.1932 26.4068 51.5611C26.2245 51.929 26.1333 52.3234 26.1333 52.7443V53.4205C26.1333 53.9972 26.2328 54.486 26.4316 54.8871C26.6338 55.2848 26.9139 55.5881 27.2718 55.7969C27.6298 56.0024 28.0458 56.1051 28.5197 56.1051C28.8279 56.1051 29.1064 56.062 29.3549 55.9759C29.6068 55.8864 29.8239 55.7538 30.0062 55.5781C30.1885 55.3991 30.3294 55.1771 30.4288 54.9119L31.5623 55.2301C31.443 55.6146 31.2425 55.9527 30.9608 56.2443C30.679 56.5327 30.331 56.758 29.9167 56.9205C29.5024 57.0795 29.0368 57.1591 28.5197 57.1591ZM33.4664 57V49.3636H34.6V50.517H34.6795C34.8187 50.1392 35.0706 49.8326 35.4352 49.5973C35.7998 49.362 36.2108 49.2443 36.6681 49.2443C36.7543 49.2443 36.862 49.246 36.9913 49.2493C37.1206 49.2526 37.2183 49.2576 37.2846 49.2642V50.4574C37.2449 50.4474 37.1537 50.4325 37.0112 50.4126C36.872 50.3894 36.7245 50.3778 36.5687 50.3778C36.1975 50.3778 35.8661 50.4557 35.5744 50.6115C35.286 50.764 35.0574 50.9761 34.8883 51.2479C34.7226 51.5163 34.6397 51.8229 34.6397 52.1676V57H33.4664ZM45.1522 49.3636L42.3283 57H41.1351L38.3113 49.3636H39.584L41.6919 55.4489H41.7715L43.8794 49.3636H45.1522ZM49.6291 57.1591C48.8933 57.1591 48.2586 56.9967 47.725 56.6719C47.1947 56.3438 46.7853 55.8864 46.497 55.2997C46.2119 54.7098 46.0694 54.0237 46.0694 53.2415C46.0694 52.4593 46.2119 51.7699 46.497 51.1733C46.7853 50.5734 47.1864 50.1061 47.7001 49.7713C48.2172 49.4332 48.8204 49.2642 49.5098 49.2642C49.9075 49.2642 50.3002 49.3305 50.688 49.4631C51.0758 49.5956 51.4288 49.8111 51.747 50.1094C52.0652 50.4044 52.3187 50.7955 52.5076 51.2827C52.6966 51.7699 52.791 52.3698 52.791 53.0824V53.5795H46.9047V52.5653H51.5978C51.5978 52.1345 51.5117 51.75 51.3393 51.4119C51.1703 51.0739 50.9283 50.8071 50.6135 50.6115C50.3019 50.416 49.934 50.3182 49.5098 50.3182C49.0424 50.3182 48.6381 50.4342 48.2967 50.6662C47.9586 50.8949 47.6984 51.1932 47.5162 51.5611C47.3339 51.929 47.2427 52.3234 47.2427 52.7443V53.4205C47.2427 53.9972 47.3422 54.486 47.541 54.8871C47.7432 55.2848 48.0233 55.5881 48.3812 55.7969C48.7392 56.0024 49.1551 56.1051 49.6291 56.1051C49.9373 56.1051 50.2157 56.062 50.4643 55.9759C50.7162 55.8864 50.9333 55.7538 51.1156 55.5781C51.2979 55.3991 51.4387 55.1771 51.5382 54.9119L52.6717 55.2301C52.5524 55.6146 52.3519 55.9527 52.0701 56.2443C51.7884 56.5327 51.4404 56.758 51.0261 56.9205C50.6118 57.0795 50.1461 57.1591 49.6291 57.1591ZM54.5758 57V49.3636H55.7093V50.517H55.7889C55.9281 50.1392 56.18 49.8326 56.5446 49.5973C56.9092 49.362 57.3201 49.2443 57.7775 49.2443C57.8637 49.2443 57.9714 49.246 58.1007 49.2493C58.2299 49.2526 58.3277 49.2576 58.394 49.2642V50.4574C58.3542 50.4474 58.2631 50.4325 58.1206 50.4126C57.9814 50.3894 57.8339 50.3778 57.6781 50.3778C57.3069 50.3778 56.9754 50.4557 56.6838 50.6115C56.3954 50.764 56.1667 50.9761 55.9977 51.2479C55.832 51.5163 55.7491 51.8229 55.7491 52.1676V57H54.5758ZM59.7848 57V49.3636H60.9581V57H59.7848ZM60.3814 48.0909C60.1527 48.0909 59.9555 48.013 59.7898 47.8572C59.6274 47.7015 59.5462 47.5142 59.5462 47.2955C59.5462 47.0767 59.6274 46.8894 59.7898 46.7337C59.9555 46.5779 60.1527 46.5 60.3814 46.5C60.6101 46.5 60.8056 46.5779 60.968 46.7337C61.1338 46.8894 61.2166 47.0767 61.2166 47.2955C61.2166 47.5142 61.1338 47.7015 60.968 47.8572C60.8056 48.013 60.6101 48.0909 60.3814 48.0909ZM72.4537 51.0739L71.3997 51.3722C71.3334 51.1965 71.2356 51.0258 71.1064 50.8601C70.9804 50.6911 70.8081 50.5518 70.5893 50.4425C70.3706 50.3331 70.0905 50.2784 69.7491 50.2784C69.2818 50.2784 68.8923 50.3861 68.5808 50.6016C68.2725 50.8137 68.1184 51.0838 68.1184 51.4119C68.1184 51.7036 68.2245 51.9339 68.4366 52.103C68.6487 52.272 68.9802 52.4129 69.4309 52.5256L70.5645 52.804C71.2472 52.9697 71.756 53.2232 72.0907 53.5646C72.4255 53.9027 72.5929 54.3385 72.5929 54.8722C72.5929 55.3097 72.4669 55.7008 72.215 56.0455C71.9664 56.3902 71.6184 56.6619 71.171 56.8608C70.7235 57.0597 70.2032 57.1591 69.6099 57.1591C68.831 57.1591 68.1864 56.9901 67.676 56.652C67.1655 56.3139 66.8424 55.8201 66.7065 55.1705L67.8201 54.892C67.9262 55.303 68.1267 55.6113 68.4217 55.8168C68.72 56.0223 69.1094 56.125 69.59 56.125C70.1369 56.125 70.5711 56.009 70.8926 55.777C71.2174 55.5417 71.3798 55.2599 71.3798 54.9318C71.3798 54.6667 71.287 54.4446 71.1014 54.2656C70.9158 54.0833 70.6307 53.9474 70.2463 53.858L68.9735 53.5597C68.2742 53.3939 67.7605 53.1371 67.4324 52.7891C67.1075 52.4377 66.9451 51.9986 66.9451 51.4716C66.9451 51.0407 67.0661 50.6596 67.3081 50.3281C67.5533 49.9967 67.8864 49.7365 68.3074 49.5476C68.7316 49.3587 69.2122 49.2642 69.7491 49.2642C70.5048 49.2642 71.0981 49.4299 71.5289 49.7614C71.9631 50.0928 72.2714 50.5303 72.4537 51.0739ZM77.68 49.3636V50.358H73.7227V49.3636H77.68ZM74.8761 47.5341H76.0494V54.8125C76.0494 55.1439 76.0974 55.3925 76.1935 55.5582C76.293 55.7206 76.4189 55.83 76.5714 55.8864C76.7272 55.9394 76.8912 55.9659 77.0636 55.9659C77.1928 55.9659 77.2989 55.9593 77.3817 55.946C77.4646 55.9295 77.5309 55.9162 77.5806 55.9062L77.8192 56.9602C77.7397 56.9901 77.6287 57.0199 77.4862 57.0497C77.3436 57.0829 77.163 57.0994 76.9442 57.0994C76.6128 57.0994 76.288 57.0282 75.9698 56.8857C75.6549 56.7431 75.3931 56.526 75.1843 56.2344C74.9788 55.9427 74.8761 55.5748 74.8761 55.1307V47.5341ZM81.6921 57.179C81.2082 57.179 80.7691 57.0878 80.3746 56.9055C79.9802 56.7199 79.667 56.4531 79.435 56.1051C79.203 55.7538 79.087 55.3295 79.087 54.8324C79.087 54.3949 79.1732 54.0402 79.3455 53.7685C79.5179 53.4934 79.7482 53.2779 80.0366 53.1222C80.3249 52.9664 80.6431 52.8504 80.9911 52.7741C81.3424 52.6946 81.6954 52.6316 82.0501 52.5852C82.5141 52.5256 82.8903 52.4808 83.1786 52.451C83.4703 52.4179 83.6824 52.3632 83.815 52.2869C83.9509 52.2107 84.0188 52.0781 84.0188 51.8892V51.8494C84.0188 51.3589 83.8846 50.9777 83.6161 50.706C83.351 50.4342 82.9483 50.2983 82.408 50.2983C81.8479 50.2983 81.4087 50.4209 81.0906 50.6662C80.7724 50.9115 80.5487 51.1733 80.4194 51.4517L79.3058 51.054C79.5046 50.59 79.7698 50.2287 80.1012 49.9702C80.436 49.7083 80.8005 49.526 81.195 49.4233C81.5927 49.3172 81.9838 49.2642 82.3683 49.2642C82.6135 49.2642 82.8952 49.294 83.2134 49.3537C83.5349 49.41 83.8448 49.5277 84.1431 49.7067C84.4447 49.8857 84.695 50.1558 84.8938 50.517C85.0927 50.8783 85.1921 51.3622 85.1921 51.9688V57H84.0188V55.9659H83.9592C83.8796 56.1316 83.747 56.3089 83.5614 56.4979C83.3758 56.6868 83.1289 56.8475 82.8207 56.9801C82.5124 57.1127 82.1362 57.179 81.6921 57.179ZM81.8711 56.125C82.3351 56.125 82.7262 56.0339 83.0444 55.8516C83.3659 55.6693 83.6078 55.4339 83.7702 55.1456C83.936 54.8572 84.0188 54.554 84.0188 54.2358V53.1619C83.9691 53.2216 83.8597 53.2763 83.6907 53.326C83.525 53.3724 83.3327 53.4138 83.114 53.4503C82.8986 53.4834 82.6881 53.5133 82.4826 53.5398C82.2804 53.563 82.1164 53.5829 81.9904 53.5994C81.6855 53.6392 81.4004 53.7038 81.1353 53.7933C80.8735 53.8795 80.6613 54.0104 80.4989 54.1861C80.3398 54.3584 80.2603 54.5937 80.2603 54.892C80.2603 55.2997 80.4111 55.608 80.7127 55.8168C81.0176 56.0223 81.4038 56.125 81.8711 56.125ZM89.5808 57.179C89.0969 57.179 88.6577 57.0878 88.2633 56.9055C87.8689 56.7199 87.5557 56.4531 87.3237 56.1051C87.0917 55.7538 86.9757 55.3295 86.9757 54.8324C86.9757 54.3949 87.0618 54.0402 87.2342 53.7685C87.4065 53.4934 87.6369 53.2779 87.9252 53.1222C88.2136 52.9664 88.5318 52.8504 88.8798 52.7741C89.2311 52.6946 89.5841 52.6316 89.9387 52.5852C90.4028 52.5256 90.7789 52.4808 91.0673 52.451C91.359 52.4179 91.5711 52.3632 91.7037 52.2869C91.8395 52.2107 91.9075 52.0781 91.9075 51.8892V51.8494C91.9075 51.3589 91.7733 50.9777 91.5048 50.706C91.2396 50.4342 90.8369 50.2983 90.2967 50.2983C89.7366 50.2983 89.2974 50.4209 88.9792 50.6662C88.661 50.9115 88.4373 51.1733 88.3081 51.4517L87.1944 51.054C87.3933 50.59 87.6584 50.2287 87.9899 49.9702C88.3246 49.7083 88.6892 49.526 89.0836 49.4233C89.4814 49.3172 89.8725 49.2642 90.2569 49.2642C90.5022 49.2642 90.7839 49.294 91.1021 49.3537C91.4236 49.41 91.7335 49.5277 92.0318 49.7067C92.3334 49.8857 92.5836 50.1558 92.7825 50.517C92.9814 50.8783 93.0808 51.3622 93.0808 51.9688V57H91.9075V55.9659H91.8478C91.7683 56.1316 91.6357 56.3089 91.4501 56.4979C91.2645 56.6868 91.0176 56.8475 90.7093 56.9801C90.4011 57.1127 90.0249 57.179 89.5808 57.179ZM89.7598 56.125C90.2238 56.125 90.6149 56.0339 90.9331 55.8516C91.2546 55.6693 91.4965 55.4339 91.6589 55.1456C91.8246 54.8572 91.9075 54.554 91.9075 54.2358V53.1619C91.8578 53.2216 91.7484 53.2763 91.5794 53.326C91.4136 53.3724 91.2214 53.4138 91.0027 53.4503C90.7872 53.4834 90.5768 53.5133 90.3713 53.5398C90.1691 53.563 90.005 53.5829 89.8791 53.5994C89.5742 53.6392 89.2891 53.7038 89.024 53.7933C88.7621 53.8795 88.55 54.0104 88.3876 54.1861C88.2285 54.3584 88.149 54.5937 88.149 54.892C88.149 55.2997 88.2998 55.608 88.6014 55.8168C88.9063 56.0223 89.2924 56.125 89.7598 56.125ZM98.5433 49.3636V50.358H94.5859V49.3636H98.5433ZM95.7393 47.5341H96.9126V54.8125C96.9126 55.1439 96.9607 55.3925 97.0568 55.5582C97.1563 55.7206 97.2822 55.83 97.4347 55.8864C97.5904 55.9394 97.7545 55.9659 97.9268 55.9659C98.0561 55.9659 98.1622 55.9593 98.245 55.946C98.3279 55.9295 98.3942 55.9162 98.4439 55.9062L98.6825 56.9602C98.603 56.9901 98.492 57.0199 98.3494 57.0497C98.2069 57.0829 98.0263 57.0994 97.8075 57.0994C97.4761 57.0994 97.1513 57.0282 96.8331 56.8857C96.5182 56.7431 96.2564 56.526 96.0476 56.2344C95.8421 55.9427 95.7393 55.5748 95.7393 55.1307V47.5341ZM105.121 53.8778V49.3636H106.294V57H105.121V55.7074H105.041C104.862 56.0952 104.584 56.425 104.206 56.6967C103.828 56.9652 103.351 57.0994 102.774 57.0994C102.297 57.0994 101.873 56.995 101.501 56.7862C101.13 56.5741 100.839 56.2559 100.626 55.8317C100.414 55.4041 100.308 54.8655 100.308 54.2159V49.3636H101.482V54.1364C101.482 54.6932 101.637 55.1373 101.949 55.4688C102.264 55.8002 102.665 55.9659 103.152 55.9659C103.444 55.9659 103.74 55.8913 104.042 55.7422C104.347 55.593 104.602 55.3643 104.808 55.0561C105.016 54.7479 105.121 54.3551 105.121 53.8778ZM113.852 51.0739L112.798 51.3722C112.732 51.1965 112.634 51.0258 112.505 50.8601C112.379 50.6911 112.206 50.5518 111.988 50.4425C111.769 50.3331 111.489 50.2784 111.148 50.2784C110.68 50.2784 110.291 50.3861 109.979 50.6016C109.671 50.8137 109.517 51.0838 109.517 51.4119C109.517 51.7036 109.623 51.9339 109.835 52.103C110.047 52.272 110.379 52.4129 110.829 52.5256L111.963 52.804C112.646 52.9697 113.154 53.2232 113.489 53.5646C113.824 53.9027 113.991 54.3385 113.991 54.8722C113.991 55.3097 113.865 55.7008 113.613 56.0455C113.365 56.3902 113.017 56.6619 112.569 56.8608C112.122 57.0597 111.602 57.1591 111.008 57.1591C110.229 57.1591 109.585 56.9901 109.074 56.652C108.564 56.3139 108.241 55.8201 108.105 55.1705L109.219 54.892C109.325 55.303 109.525 55.6113 109.82 55.8168C110.118 56.0223 110.508 56.125 110.988 56.125C111.535 56.125 111.97 56.009 112.291 55.777C112.616 55.5417 112.778 55.2599 112.778 54.9318C112.778 54.6667 112.685 54.4446 112.5 54.2656C112.314 54.0833 112.029 53.9474 111.645 53.858L110.372 53.5597C109.673 53.3939 109.159 53.1371 108.831 52.7891C108.506 52.4377 108.344 51.9986 108.344 51.4716C108.344 51.0407 108.465 50.6596 108.706 50.3281C108.952 49.9967 109.285 49.7365 109.706 49.5476C110.13 49.3587 110.611 49.2642 111.148 49.2642C111.903 49.2642 112.497 49.4299 112.927 49.7614C113.362 50.0928 113.67 50.5303 113.852 51.0739Z" fill="#DA2424"/>
<path d="M33.4567 79V67.3636H35.9169V72.4943H36.0703L40.2578 67.3636H43.2067L38.8885 72.5739L43.2578 79H40.3146L37.1271 74.2159L35.9169 75.6932V79H33.4567ZM44.4425 79V70.2727H46.7891V71.7955H46.88C47.0391 71.2538 47.3061 70.8447 47.6811 70.5682C48.0561 70.2879 48.4879 70.1477 48.9766 70.1477C49.0978 70.1477 49.2285 70.1553 49.3686 70.1705C49.5088 70.1856 49.6319 70.2064 49.7379 70.233V72.3807C49.6243 72.3466 49.4671 72.3163 49.2663 72.2898C49.0656 72.2633 48.8819 72.25 48.7152 72.25C48.3591 72.25 48.041 72.3277 47.7607 72.483C47.4841 72.6345 47.2644 72.8466 47.1016 73.1193C46.9425 73.392 46.8629 73.7064 46.8629 74.0625V79H44.4425ZM50.9893 79V70.2727H53.4098V79H50.9893ZM52.2053 69.1477C51.8454 69.1477 51.5367 69.0284 51.2791 68.7898C51.0253 68.5473 50.8984 68.2576 50.8984 67.9205C50.8984 67.5871 51.0253 67.3011 51.2791 67.0625C51.5367 66.8201 51.8454 66.6989 52.2053 66.6989C52.5651 66.6989 52.8719 66.8201 53.1257 67.0625C53.3833 67.3011 53.5121 67.5871 53.5121 67.9205C53.5121 68.2576 53.3833 68.5473 53.1257 68.7898C52.8719 69.0284 52.5651 69.1477 52.2053 69.1477ZM55.3487 79V70.2727H57.7692V79H55.3487ZM56.5646 69.1477C56.2048 69.1477 55.8961 69.0284 55.6385 68.7898C55.3847 68.5473 55.2578 68.2576 55.2578 67.9205C55.2578 67.5871 55.3847 67.3011 55.6385 67.0625C55.8961 66.8201 56.2048 66.6989 56.5646 66.6989C56.9245 66.6989 57.2313 66.8201 57.4851 67.0625C57.7427 67.3011 57.8714 67.5871 57.8714 67.9205C57.8714 68.2576 57.7427 68.5473 57.4851 68.7898C57.2313 69.0284 56.9245 69.1477 56.5646 69.1477ZM64.3501 70.2727V72.0909H59.0945V70.2727H64.3501ZM60.2876 68.1818H62.7081V76.3182C62.7081 76.5417 62.7422 76.7159 62.8104 76.8409C62.8786 76.9621 62.9732 77.0473 63.0945 77.0966C63.2195 77.1458 63.3634 77.1705 63.5263 77.1705C63.6399 77.1705 63.7536 77.161 63.8672 77.142C63.9808 77.1193 64.0679 77.1023 64.1286 77.0909L64.5092 78.892C64.388 78.9299 64.2176 78.9735 63.9979 79.0227C63.7782 79.0758 63.5111 79.108 63.1967 79.1193C62.6134 79.142 62.102 79.0644 61.6626 78.8864C61.227 78.7083 60.888 78.4318 60.6456 78.0568C60.4032 77.6818 60.2839 77.2083 60.2876 76.6364V68.1818ZM65.9268 79V70.2727H68.3473V79H65.9268ZM67.1428 69.1477C66.7829 69.1477 66.4742 69.0284 66.2166 68.7898C65.9628 68.5473 65.8359 68.2576 65.8359 67.9205C65.8359 67.5871 65.9628 67.3011 66.2166 67.0625C66.4742 66.8201 66.7829 66.6989 67.1428 66.6989C67.5026 66.6989 67.8094 66.8201 68.0632 67.0625C68.3208 67.3011 68.4496 67.5871 68.4496 67.9205C68.4496 68.2576 68.3208 68.5473 68.0632 68.7898C67.8094 69.0284 67.5026 69.1477 67.1428 69.1477ZM72.7067 67.3636V79H70.2862V67.3636H72.7067ZM74.6456 79V70.2727H77.0661V79H74.6456ZM75.8615 69.1477C75.5017 69.1477 75.1929 69.0284 74.9354 68.7898C74.6816 68.5473 74.5547 68.2576 74.5547 67.9205C74.5547 67.5871 74.6816 67.3011 74.9354 67.0625C75.1929 66.8201 75.5017 66.6989 75.8615 66.6989C76.2214 66.6989 76.5282 66.8201 76.782 67.0625C77.0395 67.3011 77.1683 67.5871 77.1683 67.9205C77.1683 68.2576 77.0395 68.5473 76.782 68.7898C76.5282 69.0284 76.2214 69.1477 75.8615 69.1477ZM81.4254 73.9545V79H79.005V70.2727H81.3118V71.8125H81.4141C81.6072 71.3049 81.9311 70.9034 82.3857 70.608C82.8402 70.3087 83.3913 70.1591 84.0391 70.1591C84.6451 70.1591 85.1735 70.2917 85.6243 70.5568C86.075 70.822 86.4254 71.2008 86.6754 71.6932C86.9254 72.1818 87.0504 72.7652 87.0504 73.4432V79H84.63V73.875C84.6338 73.3409 84.4974 72.9242 84.2209 72.625C83.9444 72.322 83.5637 72.1705 83.0788 72.1705C82.7531 72.1705 82.4652 72.2405 82.2152 72.3807C81.969 72.5208 81.7758 72.7254 81.6357 72.9943C81.4993 73.2595 81.4292 73.5795 81.4254 73.9545ZM92.9354 79.1705C92.0376 79.1705 91.2649 78.9886 90.6172 78.625C89.9732 78.2576 89.477 77.7386 89.1286 77.0682C88.7801 76.3939 88.6058 75.5966 88.6058 74.6761C88.6058 73.7784 88.7801 72.9905 89.1286 72.3125C89.477 71.6345 89.9676 71.1061 90.6001 70.7273C91.2365 70.3485 91.9827 70.1591 92.8388 70.1591C93.4145 70.1591 93.9505 70.2519 94.4467 70.4375C94.9467 70.6193 95.3823 70.8939 95.7536 71.2614C96.1286 71.6288 96.4202 72.0909 96.6286 72.6477C96.8369 73.2008 96.9411 73.8485 96.9411 74.5909V75.2557H89.5717V73.7557H94.6626C94.6626 73.4072 94.5869 73.0985 94.4354 72.8295C94.2839 72.5606 94.0736 72.3504 93.8047 72.1989C93.5395 72.0436 93.2308 71.9659 92.8786 71.9659C92.5111 71.9659 92.1854 72.0511 91.9013 72.2216C91.621 72.3883 91.4013 72.6136 91.2422 72.8977C91.0831 73.178 91.0017 73.4905 90.9979 73.8352V75.2614C90.9979 75.6932 91.0774 76.0663 91.2365 76.3807C91.3994 76.6951 91.6286 76.9375 91.924 77.108C92.2195 77.2784 92.5698 77.3636 92.9751 77.3636C93.2441 77.3636 93.4903 77.3258 93.7138 77.25C93.9373 77.1742 94.1286 77.0606 94.2876 76.9091C94.4467 76.7576 94.5679 76.572 94.6513 76.3523L96.8899 76.5C96.7763 77.0379 96.5433 77.5076 96.1911 77.9091C95.8426 78.3068 95.3918 78.6174 94.8388 78.8409C94.2895 79.0606 93.6551 79.1705 92.9354 79.1705Z" fill="#DA2424"/>
</svg>
