<svg width="130" height="83" viewBox="0 0 130 83" fill="none" xmlns="http://www.w3.org/2000/svg">
<rect x="48.25" y="0.75" width="33.5" height="33.5" rx="16.75" fill="#102825"/>
<rect x="48.25" y="0.75" width="33.5" height="33.5" rx="16.75" stroke="#00D492" stroke-width="1.5"/>
<path d="M60.5 18.5L63.2643 21.8306C63.3961 21.9617 63.5609 22.0202 63.7244 21.9938C63.8878 21.9674 64.0373 21.8583 64.1415 21.6892L69.5 13" stroke="#00D492" stroke-width="2" stroke-linecap="round"/>
<path d="M22.1175 49.3636C22.0579 48.8598 21.8159 48.4688 21.3917 48.1903C20.9674 47.9119 20.4471 47.7727 19.8306 47.7727C19.3799 47.7727 18.9854 47.8456 18.6474 47.9915C18.3126 48.1373 18.0508 48.3378 17.8619 48.593C17.6763 48.8482 17.5835 49.1383 17.5835 49.4631C17.5835 49.7348 17.6481 49.9685 17.7773 50.1641C17.9099 50.3563 18.079 50.517 18.2844 50.6463C18.4899 50.7723 18.7054 50.8767 18.9308 50.9595C19.1561 51.0391 19.3633 51.1037 19.5522 51.1534L20.5863 51.4318C20.8514 51.5014 21.1464 51.5975 21.4712 51.7202C21.7994 51.8428 22.1126 52.0102 22.4109 52.2223C22.7125 52.4311 22.9611 52.6996 23.1566 53.0277C23.3522 53.3558 23.4499 53.7585 23.4499 54.2358C23.4499 54.786 23.3058 55.2831 23.0174 55.7273C22.7324 56.1714 22.3147 56.5244 21.7646 56.7862C21.2177 57.0481 20.5531 57.179 19.771 57.179C19.0418 57.179 18.4104 57.0613 17.8768 56.826C17.3465 56.5907 16.9289 56.2625 16.6239 55.8416C16.3223 55.4207 16.1516 54.9318 16.1119 54.375H17.3846C17.4177 54.7595 17.547 55.0777 17.7724 55.3295C18.0011 55.5781 18.2894 55.7637 18.6374 55.8864C18.9888 56.0057 19.3666 56.0653 19.771 56.0653C20.2416 56.0653 20.6642 55.9891 21.0387 55.8366C21.4132 55.6809 21.7099 55.4654 21.9286 55.1903C22.1474 54.9119 22.2567 54.5871 22.2567 54.2159C22.2567 53.8778 22.1623 53.6027 21.9734 53.3906C21.7844 53.1785 21.5359 53.0062 21.2276 52.8736C20.9194 52.741 20.5863 52.625 20.2283 52.5256L18.9755 52.1676C18.18 51.9389 17.5503 51.6125 17.0863 51.1882C16.6223 50.764 16.3903 50.2088 16.3903 49.5227C16.3903 48.9527 16.5444 48.4555 16.8526 48.0312C17.1642 47.6037 17.5818 47.2723 18.1055 47.0369C18.6325 46.7983 19.2208 46.679 19.8704 46.679C20.5266 46.679 21.11 46.7966 21.6204 47.032C22.1308 47.264 22.5352 47.5821 22.8335 47.9865C23.1351 48.3909 23.2942 48.8499 23.3107 49.3636H22.1175ZM28.5197 57.1591C27.7839 57.1591 27.1492 56.9967 26.6156 56.6719C26.0853 56.3438 25.676 55.8864 25.3876 55.2997C25.1026 54.7098 24.96 54.0237 24.96 53.2415C24.96 52.4593 25.1026 51.7699 25.3876 51.1733C25.676 50.5734 26.077 50.1061 26.5907 49.7713C27.1078 49.4332 27.711 49.2642 28.4004 49.2642C28.7981 49.2642 29.1909 49.3305 29.5787 49.4631C29.9664 49.5956 30.3194 49.8111 30.6376 50.1094C30.9558 50.4044 31.2093 50.7955 31.3983 51.2827C31.5872 51.7699 31.6816 52.3698 31.6816 53.0824V53.5795H25.7953V52.5653H30.4885C30.4885 52.1345 30.4023 51.75 30.2299 51.4119C30.0609 51.0739 29.819 50.8071 29.5041 50.6115C29.1925 50.416 28.8246 50.3182 28.4004 50.3182C27.9331 50.3182 27.5287 50.4342 27.1873 50.6662C26.8493 50.8949 26.5891 51.1932 26.4068 51.5611C26.2245 51.929 26.1333 52.3234 26.1333 52.7443V53.4205C26.1333 53.9972 26.2328 54.486 26.4316 54.8871C26.6338 55.2848 26.9139 55.5881 27.2718 55.7969C27.6298 56.0024 28.0458 56.1051 28.5197 56.1051C28.8279 56.1051 29.1064 56.062 29.3549 55.9759C29.6068 55.8864 29.8239 55.7538 30.0062 55.5781C30.1885 55.3991 30.3294 55.1771 30.4288 54.9119L31.5623 55.2301C31.443 55.6146 31.2425 55.9527 30.9608 56.2443C30.679 56.5327 30.331 56.758 29.9167 56.9205C29.5024 57.0795 29.0368 57.1591 28.5197 57.1591ZM33.4664 57V49.3636H34.6V50.517H34.6795C34.8187 50.1392 35.0706 49.8326 35.4352 49.5973C35.7998 49.362 36.2108 49.2443 36.6681 49.2443C36.7543 49.2443 36.862 49.246 36.9913 49.2493C37.1206 49.2526 37.2183 49.2576 37.2846 49.2642V50.4574C37.2449 50.4474 37.1537 50.4325 37.0112 50.4126C36.872 50.3894 36.7245 50.3778 36.5687 50.3778C36.1975 50.3778 35.8661 50.4557 35.5744 50.6115C35.286 50.764 35.0574 50.9761 34.8883 51.2479C34.7226 51.5163 34.6397 51.8229 34.6397 52.1676V57H33.4664ZM45.1522 49.3636L42.3283 57H41.1351L38.3113 49.3636H39.584L41.6919 55.4489H41.7715L43.8794 49.3636H45.1522ZM49.6291 57.1591C48.8933 57.1591 48.2586 56.9967 47.725 56.6719C47.1947 56.3438 46.7853 55.8864 46.497 55.2997C46.2119 54.7098 46.0694 54.0237 46.0694 53.2415C46.0694 52.4593 46.2119 51.7699 46.497 51.1733C46.7853 50.5734 47.1864 50.1061 47.7001 49.7713C48.2172 49.4332 48.8204 49.2642 49.5098 49.2642C49.9075 49.2642 50.3002 49.3305 50.688 49.4631C51.0758 49.5956 51.4288 49.8111 51.747 50.1094C52.0652 50.4044 52.3187 50.7955 52.5076 51.2827C52.6966 51.7699 52.791 52.3698 52.791 53.0824V53.5795H46.9047V52.5653H51.5978C51.5978 52.1345 51.5117 51.75 51.3393 51.4119C51.1703 51.0739 50.9283 50.8071 50.6135 50.6115C50.3019 50.416 49.934 50.3182 49.5098 50.3182C49.0424 50.3182 48.6381 50.4342 48.2967 50.6662C47.9586 50.8949 47.6984 51.1932 47.5162 51.5611C47.3339 51.929 47.2427 52.3234 47.2427 52.7443V53.4205C47.2427 53.9972 47.3422 54.486 47.541 54.8871C47.7432 55.2848 48.0233 55.5881 48.3812 55.7969C48.7392 56.0024 49.1551 56.1051 49.6291 56.1051C49.9373 56.1051 50.2157 56.062 50.4643 55.9759C50.7162 55.8864 50.9333 55.7538 51.1156 55.5781C51.2979 55.3991 51.4387 55.1771 51.5382 54.9119L52.6717 55.2301C52.5524 55.6146 52.3519 55.9527 52.0701 56.2443C51.7884 56.5327 51.4404 56.758 51.0261 56.9205C50.6118 57.0795 50.1461 57.1591 49.6291 57.1591ZM54.5758 57V49.3636H55.7093V50.517H55.7889C55.9281 50.1392 56.18 49.8326 56.5446 49.5973C56.9092 49.362 57.3201 49.2443 57.7775 49.2443C57.8637 49.2443 57.9714 49.246 58.1007 49.2493C58.2299 49.2526 58.3277 49.2576 58.394 49.2642V50.4574C58.3542 50.4474 58.2631 50.4325 58.1206 50.4126C57.9814 50.3894 57.8339 50.3778 57.6781 50.3778C57.3069 50.3778 56.9754 50.4557 56.6838 50.6115C56.3954 50.764 56.1667 50.9761 55.9977 51.2479C55.832 51.5163 55.7491 51.8229 55.7491 52.1676V57H54.5758ZM59.7848 57V49.3636H60.9581V57H59.7848ZM60.3814 48.0909C60.1527 48.0909 59.9555 48.013 59.7898 47.8572C59.6274 47.7015 59.5462 47.5142 59.5462 47.2955C59.5462 47.0767 59.6274 46.8894 59.7898 46.7337C59.9555 46.5779 60.1527 46.5 60.3814 46.5C60.6101 46.5 60.8056 46.5779 60.968 46.7337C61.1338 46.8894 61.2166 47.0767 61.2166 47.2955C61.2166 47.5142 61.1338 47.7015 60.968 47.8572C60.8056 48.013 60.6101 48.0909 60.3814 48.0909ZM72.4537 51.0739L71.3997 51.3722C71.3334 51.1965 71.2356 51.0258 71.1064 50.8601C70.9804 50.6911 70.8081 50.5518 70.5893 50.4425C70.3706 50.3331 70.0905 50.2784 69.7491 50.2784C69.2818 50.2784 68.8923 50.3861 68.5808 50.6016C68.2725 50.8137 68.1184 51.0838 68.1184 51.4119C68.1184 51.7036 68.2245 51.9339 68.4366 52.103C68.6487 52.272 68.9802 52.4129 69.4309 52.5256L70.5645 52.804C71.2472 52.9697 71.756 53.2232 72.0907 53.5646C72.4255 53.9027 72.5929 54.3385 72.5929 54.8722C72.5929 55.3097 72.4669 55.7008 72.215 56.0455C71.9664 56.3902 71.6184 56.6619 71.171 56.8608C70.7235 57.0597 70.2032 57.1591 69.6099 57.1591C68.831 57.1591 68.1864 56.9901 67.676 56.652C67.1655 56.3139 66.8424 55.8201 66.7065 55.1705L67.8201 54.892C67.9262 55.303 68.1267 55.6113 68.4217 55.8168C68.72 56.0223 69.1094 56.125 69.59 56.125C70.1369 56.125 70.5711 56.009 70.8926 55.777C71.2174 55.5417 71.3798 55.2599 71.3798 54.9318C71.3798 54.6667 71.287 54.4446 71.1014 54.2656C70.9158 54.0833 70.6307 53.9474 70.2463 53.858L68.9735 53.5597C68.2742 53.3939 67.7605 53.1371 67.4324 52.7891C67.1075 52.4377 66.9451 51.9986 66.9451 51.4716C66.9451 51.0407 67.0661 50.6596 67.3081 50.3281C67.5533 49.9967 67.8864 49.7365 68.3074 49.5476C68.7316 49.3587 69.2122 49.2642 69.7491 49.2642C70.5048 49.2642 71.0981 49.4299 71.5289 49.7614C71.9631 50.0928 72.2714 50.5303 72.4537 51.0739ZM77.68 49.3636V50.358H73.7227V49.3636H77.68ZM74.8761 47.5341H76.0494V54.8125C76.0494 55.1439 76.0974 55.3925 76.1935 55.5582C76.293 55.7206 76.4189 55.83 76.5714 55.8864C76.7272 55.9394 76.8912 55.9659 77.0636 55.9659C77.1928 55.9659 77.2989 55.9593 77.3817 55.946C77.4646 55.9295 77.5309 55.9162 77.5806 55.9062L77.8192 56.9602C77.7397 56.9901 77.6287 57.0199 77.4862 57.0497C77.3436 57.0829 77.163 57.0994 76.9442 57.0994C76.6128 57.0994 76.288 57.0282 75.9698 56.8857C75.6549 56.7431 75.3931 56.526 75.1843 56.2344C74.9788 55.9427 74.8761 55.5748 74.8761 55.1307V47.5341ZM81.6921 57.179C81.2082 57.179 80.7691 57.0878 80.3746 56.9055C79.9802 56.7199 79.667 56.4531 79.435 56.1051C79.203 55.7538 79.087 55.3295 79.087 54.8324C79.087 54.3949 79.1732 54.0402 79.3455 53.7685C79.5179 53.4934 79.7482 53.2779 80.0366 53.1222C80.3249 52.9664 80.6431 52.8504 80.9911 52.7741C81.3424 52.6946 81.6954 52.6316 82.0501 52.5852C82.5141 52.5256 82.8903 52.4808 83.1786 52.451C83.4703 52.4179 83.6824 52.3632 83.815 52.2869C83.9509 52.2107 84.0188 52.0781 84.0188 51.8892V51.8494C84.0188 51.3589 83.8846 50.9777 83.6161 50.706C83.351 50.4342 82.9483 50.2983 82.408 50.2983C81.8479 50.2983 81.4087 50.4209 81.0906 50.6662C80.7724 50.9115 80.5487 51.1733 80.4194 51.4517L79.3058 51.054C79.5046 50.59 79.7698 50.2287 80.1012 49.9702C80.436 49.7083 80.8005 49.526 81.195 49.4233C81.5927 49.3172 81.9838 49.2642 82.3683 49.2642C82.6135 49.2642 82.8952 49.294 83.2134 49.3537C83.5349 49.41 83.8448 49.5277 84.1431 49.7067C84.4447 49.8857 84.695 50.1558 84.8938 50.517C85.0927 50.8783 85.1921 51.3622 85.1921 51.9688V57H84.0188V55.9659H83.9592C83.8796 56.1316 83.747 56.3089 83.5614 56.4979C83.3758 56.6868 83.1289 56.8475 82.8207 56.9801C82.5124 57.1127 82.1362 57.179 81.6921 57.179ZM81.8711 56.125C82.3351 56.125 82.7262 56.0339 83.0444 55.8516C83.3659 55.6693 83.6078 55.4339 83.7702 55.1456C83.936 54.8572 84.0188 54.554 84.0188 54.2358V53.1619C83.9691 53.2216 83.8597 53.2763 83.6907 53.326C83.525 53.3724 83.3327 53.4138 83.114 53.4503C82.8986 53.4834 82.6881 53.5133 82.4826 53.5398C82.2804 53.563 82.1164 53.5829 81.9904 53.5994C81.6855 53.6392 81.4004 53.7038 81.1353 53.7933C80.8735 53.8795 80.6613 54.0104 80.4989 54.1861C80.3398 54.3584 80.2603 54.5937 80.2603 54.892C80.2603 55.2997 80.4111 55.608 80.7127 55.8168C81.0176 56.0223 81.4038 56.125 81.8711 56.125ZM89.5808 57.179C89.0969 57.179 88.6577 57.0878 88.2633 56.9055C87.8689 56.7199 87.5557 56.4531 87.3237 56.1051C87.0917 55.7538 86.9757 55.3295 86.9757 54.8324C86.9757 54.3949 87.0618 54.0402 87.2342 53.7685C87.4065 53.4934 87.6369 53.2779 87.9252 53.1222C88.2136 52.9664 88.5318 52.8504 88.8798 52.7741C89.2311 52.6946 89.5841 52.6316 89.9387 52.5852C90.4028 52.5256 90.7789 52.4808 91.0673 52.451C91.359 52.4179 91.5711 52.3632 91.7037 52.2869C91.8395 52.2107 91.9075 52.0781 91.9075 51.8892V51.8494C91.9075 51.3589 91.7733 50.9777 91.5048 50.706C91.2396 50.4342 90.8369 50.2983 90.2967 50.2983C89.7366 50.2983 89.2974 50.4209 88.9792 50.6662C88.661 50.9115 88.4373 51.1733 88.3081 51.4517L87.1944 51.054C87.3933 50.59 87.6584 50.2287 87.9899 49.9702C88.3246 49.7083 88.6892 49.526 89.0836 49.4233C89.4814 49.3172 89.8725 49.2642 90.2569 49.2642C90.5022 49.2642 90.7839 49.294 91.1021 49.3537C91.4236 49.41 91.7335 49.5277 92.0318 49.7067C92.3334 49.8857 92.5836 50.1558 92.7825 50.517C92.9814 50.8783 93.0808 51.3622 93.0808 51.9688V57H91.9075V55.9659H91.8478C91.7683 56.1316 91.6357 56.3089 91.4501 56.4979C91.2645 56.6868 91.0176 56.8475 90.7093 56.9801C90.4011 57.1127 90.0249 57.179 89.5808 57.179ZM89.7598 56.125C90.2238 56.125 90.6149 56.0339 90.9331 55.8516C91.2546 55.6693 91.4965 55.4339 91.6589 55.1456C91.8246 54.8572 91.9075 54.554 91.9075 54.2358V53.1619C91.8578 53.2216 91.7484 53.2763 91.5794 53.326C91.4136 53.3724 91.2214 53.4138 91.0027 53.4503C90.7872 53.4834 90.5768 53.5133 90.3713 53.5398C90.1691 53.563 90.005 53.5829 89.8791 53.5994C89.5742 53.6392 89.2891 53.7038 89.024 53.7933C88.7621 53.8795 88.55 54.0104 88.3876 54.1861C88.2285 54.3584 88.149 54.5937 88.149 54.892C88.149 55.2997 88.2998 55.608 88.6014 55.8168C88.9063 56.0223 89.2924 56.125 89.7598 56.125ZM98.5433 49.3636V50.358H94.5859V49.3636H98.5433ZM95.7393 47.5341H96.9126V54.8125C96.9126 55.1439 96.9607 55.3925 97.0568 55.5582C97.1563 55.7206 97.2822 55.83 97.4347 55.8864C97.5904 55.9394 97.7545 55.9659 97.9268 55.9659C98.0561 55.9659 98.1622 55.9593 98.245 55.946C98.3279 55.9295 98.3942 55.9162 98.4439 55.9062L98.6825 56.9602C98.603 56.9901 98.492 57.0199 98.3494 57.0497C98.2069 57.0829 98.0263 57.0994 97.8075 57.0994C97.4761 57.0994 97.1513 57.0282 96.8331 56.8857C96.5182 56.7431 96.2564 56.526 96.0476 56.2344C95.8421 55.9427 95.7393 55.5748 95.7393 55.1307V47.5341ZM105.121 53.8778V49.3636H106.294V57H105.121V55.7074H105.041C104.862 56.0952 104.584 56.425 104.206 56.6967C103.828 56.9652 103.351 57.0994 102.774 57.0994C102.297 57.0994 101.873 56.995 101.501 56.7862C101.13 56.5741 100.839 56.2559 100.626 55.8317C100.414 55.4041 100.308 54.8655 100.308 54.2159V49.3636H101.482V54.1364C101.482 54.6932 101.637 55.1373 101.949 55.4688C102.264 55.8002 102.665 55.9659 103.152 55.9659C103.444 55.9659 103.74 55.8913 104.042 55.7422C104.347 55.593 104.602 55.3643 104.808 55.0561C105.016 54.7479 105.121 54.3551 105.121 53.8778ZM113.852 51.0739L112.798 51.3722C112.732 51.1965 112.634 51.0258 112.505 50.8601C112.379 50.6911 112.206 50.5518 111.988 50.4425C111.769 50.3331 111.489 50.2784 111.148 50.2784C110.68 50.2784 110.291 50.3861 109.979 50.6016C109.671 50.8137 109.517 51.0838 109.517 51.4119C109.517 51.7036 109.623 51.9339 109.835 52.103C110.047 52.272 110.379 52.4129 110.829 52.5256L111.963 52.804C112.646 52.9697 113.154 53.2232 113.489 53.5646C113.824 53.9027 113.991 54.3385 113.991 54.8722C113.991 55.3097 113.865 55.7008 113.613 56.0455C113.365 56.3902 113.017 56.6619 112.569 56.8608C112.122 57.0597 111.602 57.1591 111.008 57.1591C110.229 57.1591 109.585 56.9901 109.074 56.652C108.564 56.3139 108.241 55.8201 108.105 55.1705L109.219 54.892C109.325 55.303 109.525 55.6113 109.82 55.8168C110.118 56.0223 110.508 56.125 110.988 56.125C111.535 56.125 111.97 56.009 112.291 55.777C112.616 55.5417 112.778 55.2599 112.778 54.9318C112.778 54.6667 112.685 54.4446 112.5 54.2656C112.314 54.0833 112.029 53.9474 111.645 53.858L110.372 53.5597C109.673 53.3939 109.159 53.1371 108.831 52.7891C108.506 52.4377 108.344 51.9986 108.344 51.4716C108.344 51.0407 108.465 50.6596 108.706 50.3281C108.952 49.9967 109.285 49.7365 109.706 49.5476C110.13 49.3587 110.611 49.2642 111.148 49.2642C111.903 49.2642 112.497 49.4299 112.927 49.7614C113.362 50.0928 113.67 50.5303 113.852 51.0739Z" fill="#00D492"/>
<path d="M26.1229 69.392V67.3636H35.6797V69.392H32.1172V79H29.6854V69.392H26.1229ZM38.5092 79.1648C37.9524 79.1648 37.4562 79.0682 37.0206 78.875C36.585 78.678 36.2403 78.3883 35.9865 78.0057C35.7365 77.6193 35.6115 77.1383 35.6115 76.5625C35.6115 76.0777 35.7005 75.6705 35.8786 75.3409C36.0566 75.0114 36.299 74.7462 36.6058 74.5455C36.9126 74.3447 37.2611 74.1932 37.6513 74.0909C38.0452 73.9886 38.4581 73.9167 38.8899 73.875C39.3975 73.822 39.8066 73.7727 40.1172 73.7273C40.4278 73.678 40.6532 73.6061 40.7933 73.5114C40.9335 73.4167 41.0036 73.2765 41.0036 73.0909V73.0568C41.0036 72.697 40.8899 72.4186 40.6626 72.2216C40.4392 72.0246 40.121 71.9261 39.7081 71.9261C39.2725 71.9261 38.9259 72.0227 38.6683 72.2159C38.4107 72.4053 38.2403 72.6439 38.157 72.9318L35.9183 72.75C36.032 72.2197 36.2554 71.7614 36.5888 71.375C36.9221 70.9848 37.352 70.6856 37.8786 70.4773C38.4089 70.2652 39.0225 70.1591 39.7195 70.1591C40.2043 70.1591 40.6683 70.2159 41.1115 70.3295C41.5585 70.4432 41.9543 70.6193 42.299 70.858C42.6475 71.0966 42.9221 71.4034 43.1229 71.7784C43.3236 72.1496 43.424 72.5947 43.424 73.1136V79H41.1286V77.7898H41.0604C40.9202 78.0625 40.7327 78.303 40.4979 78.5114C40.263 78.7159 39.9808 78.8769 39.6513 78.9943C39.3217 79.108 38.9411 79.1648 38.5092 79.1648ZM39.2024 77.4943C39.5585 77.4943 39.8729 77.4242 40.1456 77.2841C40.4183 77.1402 40.6323 76.947 40.7876 76.7045C40.9429 76.4621 41.0206 76.1875 41.0206 75.8807V74.9545C40.9448 75.0038 40.8407 75.0492 40.7081 75.0909C40.5793 75.1288 40.4335 75.1648 40.2706 75.1989C40.1077 75.2292 39.9448 75.2576 39.782 75.2841C39.6191 75.3068 39.4714 75.3277 39.3388 75.3466C39.0547 75.3883 38.8066 75.4545 38.5945 75.5455C38.3823 75.6364 38.2176 75.7595 38.1001 75.9148C37.9827 76.0663 37.924 76.2557 37.924 76.483C37.924 76.8125 38.0433 77.0644 38.282 77.2386C38.5244 77.4091 38.8312 77.4943 39.2024 77.4943ZM47.7905 79.1648C47.2337 79.1648 46.7375 79.0682 46.3018 78.875C45.8662 78.678 45.5215 78.3883 45.2678 78.0057C45.0178 77.6193 44.8928 77.1383 44.8928 76.5625C44.8928 76.0777 44.9818 75.6705 45.1598 75.3409C45.3378 75.0114 45.5803 74.7462 45.8871 74.5455C46.1939 74.3447 46.5424 74.1932 46.9325 74.0909C47.3265 73.9886 47.7393 73.9167 48.1712 73.875C48.6787 73.822 49.0878 73.7727 49.3984 73.7273C49.709 73.678 49.9344 73.6061 50.0746 73.5114C50.2147 73.4167 50.2848 73.2765 50.2848 73.0909V73.0568C50.2848 72.697 50.1712 72.4186 49.9439 72.2216C49.7204 72.0246 49.4022 71.9261 48.9893 71.9261C48.5537 71.9261 48.2071 72.0227 47.9496 72.2159C47.692 72.4053 47.5215 72.6439 47.4382 72.9318L45.1996 72.75C45.3132 72.2197 45.5367 71.7614 45.87 71.375C46.2034 70.9848 46.6333 70.6856 47.1598 70.4773C47.6901 70.2652 48.3037 70.1591 49.0007 70.1591C49.4856 70.1591 49.9496 70.2159 50.3928 70.3295C50.8397 70.4432 51.2356 70.6193 51.5803 70.858C51.9287 71.0966 52.2034 71.4034 52.4041 71.7784C52.6049 72.1496 52.7053 72.5947 52.7053 73.1136V79H50.4098V77.7898H50.3416C50.2015 78.0625 50.014 78.303 49.7791 78.5114C49.5443 78.7159 49.2621 78.8769 48.9325 78.9943C48.603 79.108 48.2223 79.1648 47.7905 79.1648ZM48.4837 77.4943C48.8397 77.4943 49.1541 77.4242 49.4268 77.2841C49.6996 77.1402 49.9136 76.947 50.0689 76.7045C50.2242 76.4621 50.3018 76.1875 50.3018 75.8807V74.9545C50.2261 75.0038 50.1219 75.0492 49.9893 75.0909C49.8606 75.1288 49.7147 75.1648 49.5518 75.1989C49.389 75.2292 49.2261 75.2576 49.0632 75.2841C48.9003 75.3068 48.7526 75.3277 48.62 75.3466C48.3359 75.3883 48.0878 75.4545 47.8757 75.5455C47.6636 75.6364 47.4988 75.7595 47.3814 75.9148C47.264 76.0663 47.2053 76.2557 47.2053 76.483C47.2053 76.8125 47.3246 77.0644 47.5632 77.2386C47.8056 77.4091 48.1125 77.4943 48.4837 77.4943ZM61.8445 72.7614L59.6286 72.8977C59.5907 72.7083 59.5092 72.5379 59.3842 72.3864C59.2592 72.2311 59.0945 72.108 58.8899 72.017C58.6892 71.9223 58.4486 71.875 58.1683 71.875C57.7933 71.875 57.477 71.9545 57.2195 72.1136C56.9619 72.2689 56.8331 72.4773 56.8331 72.7386C56.8331 72.947 56.9164 73.1231 57.0831 73.267C57.2498 73.411 57.5357 73.5265 57.9411 73.6136L59.5206 73.9318C60.3691 74.1061 61.0017 74.3864 61.4183 74.7727C61.835 75.1591 62.0433 75.6667 62.0433 76.2955C62.0433 76.8674 61.8748 77.3693 61.5376 77.8011C61.2043 78.233 60.746 78.5701 60.1626 78.8125C59.5831 79.0511 58.9145 79.1705 58.157 79.1705C57.0017 79.1705 56.0812 78.9299 55.3956 78.4489C54.7138 77.964 54.3142 77.3049 54.1967 76.4716L56.5774 76.3466C56.6494 76.6989 56.8236 76.9678 57.1001 77.1534C57.3767 77.3352 57.7308 77.4261 58.1626 77.4261C58.5869 77.4261 58.9278 77.3447 59.1854 77.1818C59.4467 77.0152 59.5793 76.8011 59.5831 76.5398C59.5793 76.3201 59.4865 76.1402 59.3047 76C59.1229 75.8561 58.8426 75.7462 58.4638 75.6705L56.9524 75.3693C56.1001 75.1989 55.4657 74.9034 55.049 74.483C54.6361 74.0625 54.4297 73.5265 54.4297 72.875C54.4297 72.3144 54.5812 71.8314 54.8842 71.4261C55.1911 71.0208 55.621 70.7083 56.174 70.4886C56.7308 70.2689 57.3823 70.1591 58.1286 70.1591C59.2308 70.1591 60.0982 70.392 60.7308 70.858C61.3672 71.3239 61.7384 71.9583 61.8445 72.7614ZM68.2095 70.2727V72.0909H62.9538V70.2727H68.2095ZM64.147 68.1818H66.5675V76.3182C66.5675 76.5417 66.6016 76.7159 66.6697 76.8409C66.7379 76.9621 66.8326 77.0473 66.9538 77.0966C67.0788 77.1458 67.2228 77.1705 67.3857 77.1705C67.4993 77.1705 67.6129 77.161 67.7266 77.142C67.8402 77.1193 67.9273 77.1023 67.9879 77.0909L68.3686 78.892C68.2474 78.9299 68.0769 78.9735 67.8572 79.0227C67.6375 79.0758 67.3705 79.108 67.0561 79.1193C66.4728 79.142 65.9614 79.0644 65.522 78.8864C65.0864 78.7083 64.7474 78.4318 64.505 78.0568C64.2625 77.6818 64.1432 77.2083 64.147 76.6364V68.1818ZM72.2749 79.1648C71.718 79.1648 71.2218 79.0682 70.7862 78.875C70.3506 78.678 70.0059 78.3883 69.7521 78.0057C69.5021 77.6193 69.3771 77.1383 69.3771 76.5625C69.3771 76.0777 69.4661 75.6705 69.6442 75.3409C69.8222 75.0114 70.0646 74.7462 70.3714 74.5455C70.6783 74.3447 71.0268 74.1932 71.4169 74.0909C71.8108 73.9886 72.2237 73.9167 72.6555 73.875C73.1631 73.822 73.5722 73.7727 73.8828 73.7273C74.1934 73.678 74.4188 73.6061 74.5589 73.5114C74.6991 73.4167 74.7692 73.2765 74.7692 73.0909V73.0568C74.7692 72.697 74.6555 72.4186 74.4283 72.2216C74.2048 72.0246 73.8866 71.9261 73.4737 71.9261C73.0381 71.9261 72.6915 72.0227 72.4339 72.2159C72.1764 72.4053 72.0059 72.6439 71.9226 72.9318L69.6839 72.75C69.7976 72.2197 70.0211 71.7614 70.3544 71.375C70.6877 70.9848 71.1177 70.6856 71.6442 70.4773C72.1745 70.2652 72.7881 70.1591 73.4851 70.1591C73.9699 70.1591 74.4339 70.2159 74.8771 70.3295C75.3241 70.4432 75.7199 70.6193 76.0646 70.858C76.4131 71.0966 76.6877 71.4034 76.8885 71.7784C77.0893 72.1496 77.1896 72.5947 77.1896 73.1136V79H74.8942V77.7898H74.826C74.6858 78.0625 74.4983 78.303 74.2635 78.5114C74.0286 78.7159 73.7464 78.8769 73.4169 78.9943C73.0874 79.108 72.7067 79.1648 72.2749 79.1648ZM72.968 77.4943C73.3241 77.4943 73.6385 77.4242 73.9112 77.2841C74.1839 77.1402 74.398 76.947 74.5533 76.7045C74.7086 76.4621 74.7862 76.1875 74.7862 75.8807V74.9545C74.7105 75.0038 74.6063 75.0492 74.4737 75.0909C74.3449 75.1288 74.1991 75.1648 74.0362 75.1989C73.8733 75.2292 73.7105 75.2576 73.5476 75.2841C73.3847 75.3068 73.237 75.3277 73.1044 75.3466C72.8203 75.3883 72.5722 75.4545 72.3601 75.5455C72.148 75.6364 71.9832 75.7595 71.8658 75.9148C71.7483 76.0663 71.6896 76.2557 71.6896 76.483C71.6896 76.8125 71.8089 77.0644 72.0476 77.2386C72.29 77.4091 72.5968 77.4943 72.968 77.4943ZM83.7095 70.2727V72.0909H78.4538V70.2727H83.7095ZM79.647 68.1818H82.0675V76.3182C82.0675 76.5417 82.1016 76.7159 82.1697 76.8409C82.2379 76.9621 82.3326 77.0473 82.4538 77.0966C82.5788 77.1458 82.7228 77.1705 82.8857 77.1705C82.9993 77.1705 83.1129 77.161 83.2266 77.142C83.3402 77.1193 83.4273 77.1023 83.4879 77.0909L83.8686 78.892C83.7474 78.9299 83.5769 78.9735 83.3572 79.0227C83.1375 79.0758 82.8705 79.108 82.5561 79.1193C81.9728 79.142 81.4614 79.0644 81.022 78.8864C80.5864 78.7083 80.2474 78.4318 80.005 78.0568C79.7625 77.6818 79.6432 77.2083 79.647 76.6364V68.1818ZM90.8828 75.2841V70.2727H93.3033V79H90.9794V77.4148H90.8885C90.6915 77.9261 90.3639 78.3371 89.9055 78.6477C89.451 78.9583 88.8961 79.1136 88.2408 79.1136C87.6574 79.1136 87.1442 78.9811 86.701 78.7159C86.2578 78.4508 85.9112 78.0739 85.6612 77.5852C85.415 77.0966 85.29 76.5114 85.2862 75.8295V70.2727H87.7067V75.3977C87.7105 75.9129 87.8487 76.3201 88.1214 76.6193C88.3942 76.9186 88.7597 77.0682 89.218 77.0682C89.5097 77.0682 89.7824 77.0019 90.0362 76.8693C90.29 76.733 90.4946 76.5322 90.6499 76.267C90.8089 76.0019 90.8866 75.6742 90.8828 75.2841ZM98.4553 79.142C97.7924 79.142 97.192 78.9716 96.6541 78.6307C96.12 78.286 95.6958 77.7803 95.3814 77.1136C95.0708 76.4432 94.9155 75.6212 94.9155 74.6477C94.9155 73.6477 95.0765 72.8163 95.3984 72.1534C95.7204 71.4867 96.1484 70.9886 96.6825 70.6591C97.2204 70.3258 97.8094 70.1591 98.4496 70.1591C98.9382 70.1591 99.3454 70.2424 99.6712 70.4091C100.001 70.572 100.266 70.7765 100.467 71.0227C100.671 71.2652 100.826 71.5038 100.933 71.7386H101.006V67.3636H103.421V79H101.035V77.6023H100.933C100.819 77.8447 100.658 78.0852 100.45 78.3239C100.245 78.5587 99.978 78.7538 99.6484 78.9091C99.3227 79.0644 98.925 79.142 98.4553 79.142ZM99.2223 77.2159C99.6125 77.2159 99.942 77.1098 100.211 76.8977C100.484 76.6818 100.692 76.3807 100.836 75.9943C100.984 75.608 101.058 75.1553 101.058 74.6364C101.058 74.1174 100.986 73.6667 100.842 73.2841C100.698 72.9015 100.489 72.6061 100.217 72.3977C99.9439 72.1894 99.6125 72.0852 99.2223 72.0852C98.8246 72.0852 98.4893 72.1932 98.2166 72.4091C97.9439 72.625 97.7375 72.9242 97.5973 73.3068C97.4571 73.6894 97.3871 74.1326 97.3871 74.6364C97.3871 75.1439 97.4571 75.5928 97.5973 75.983C97.7412 76.3693 97.9477 76.6723 98.2166 76.892C98.4893 77.108 98.8246 77.2159 99.2223 77.2159Z" fill="#00D492"/>
</svg>
