<svg width="130" height="83" viewBox="0 0 130 83" fill="none" xmlns="http://www.w3.org/2000/svg">
<rect x="48.25" y="0.75" width="33.5" height="33.5" rx="16.75" fill="#311900"/>
<rect x="48.25" y="0.75" width="33.5" height="33.5" rx="16.75" stroke="#FF8400" stroke-width="1.5"/>
<path d="M60.5 23.875H69.5M60.5 11.125H69.5M68.2143 23.875V21.2153C68.2142 20.8772 68.0787 20.553 67.8376 20.3139L65 17.5M65 17.5L62.1624 20.3139C61.9213 20.553 61.7858 20.8772 61.7857 21.2153V23.875M65 17.5L62.1624 14.6861C61.9213 14.447 61.7858 14.1228 61.7857 13.7846V11.125M65 17.5L67.8376 14.6861C68.0787 14.447 68.2142 14.1228 68.2143 13.7846V11.125" stroke="#FF8400" stroke-width="1.5" stroke-linecap="round" stroke-linejoin="round"/>
<path d="M22.1175 49.3636C22.0579 48.8598 21.8159 48.4688 21.3917 48.1903C20.9674 47.9119 20.4471 47.7727 19.8306 47.7727C19.3799 47.7727 18.9854 47.8456 18.6474 47.9915C18.3126 48.1373 18.0508 48.3378 17.8619 48.593C17.6763 48.8482 17.5835 49.1383 17.5835 49.4631C17.5835 49.7348 17.6481 49.9685 17.7773 50.1641C17.9099 50.3563 18.079 50.517 18.2844 50.6463C18.4899 50.7723 18.7054 50.8767 18.9308 50.9595C19.1561 51.0391 19.3633 51.1037 19.5522 51.1534L20.5863 51.4318C20.8514 51.5014 21.1464 51.5975 21.4712 51.7202C21.7994 51.8428 22.1126 52.0102 22.4109 52.2223C22.7125 52.4311 22.9611 52.6996 23.1566 53.0277C23.3522 53.3558 23.4499 53.7585 23.4499 54.2358C23.4499 54.786 23.3058 55.2831 23.0174 55.7273C22.7324 56.1714 22.3147 56.5244 21.7646 56.7862C21.2177 57.0481 20.5531 57.179 19.771 57.179C19.0418 57.179 18.4104 57.0613 17.8768 56.826C17.3465 56.5907 16.9289 56.2625 16.6239 55.8416C16.3223 55.4207 16.1516 54.9318 16.1119 54.375H17.3846C17.4177 54.7595 17.547 55.0777 17.7724 55.3295C18.0011 55.5781 18.2894 55.7637 18.6374 55.8864C18.9888 56.0057 19.3666 56.0653 19.771 56.0653C20.2416 56.0653 20.6642 55.9891 21.0387 55.8366C21.4132 55.6809 21.7099 55.4654 21.9286 55.1903C22.1474 54.9119 22.2567 54.5871 22.2567 54.2159C22.2567 53.8778 22.1623 53.6027 21.9734 53.3906C21.7844 53.1785 21.5359 53.0062 21.2276 52.8736C20.9194 52.741 20.5863 52.625 20.2283 52.5256L18.9755 52.1676C18.18 51.9389 17.5503 51.6125 17.0863 51.1882C16.6223 50.764 16.3903 50.2088 16.3903 49.5227C16.3903 48.9527 16.5444 48.4555 16.8526 48.0312C17.1642 47.6037 17.5818 47.2723 18.1055 47.0369C18.6325 46.7983 19.2208 46.679 19.8704 46.679C20.5266 46.679 21.11 46.7966 21.6204 47.032C22.1308 47.264 22.5352 47.5821 22.8335 47.9865C23.1351 48.3909 23.2942 48.8499 23.3107 49.3636H22.1175ZM28.5197 57.1591C27.7839 57.1591 27.1492 56.9967 26.6156 56.6719C26.0853 56.3438 25.676 55.8864 25.3876 55.2997C25.1026 54.7098 24.96 54.0237 24.96 53.2415C24.96 52.4593 25.1026 51.7699 25.3876 51.1733C25.676 50.5734 26.077 50.1061 26.5907 49.7713C27.1078 49.4332 27.711 49.2642 28.4004 49.2642C28.7981 49.2642 29.1909 49.3305 29.5787 49.4631C29.9664 49.5956 30.3194 49.8111 30.6376 50.1094C30.9558 50.4044 31.2093 50.7955 31.3983 51.2827C31.5872 51.7699 31.6816 52.3698 31.6816 53.0824V53.5795H25.7953V52.5653H30.4885C30.4885 52.1345 30.4023 51.75 30.2299 51.4119C30.0609 51.0739 29.819 50.8071 29.5041 50.6115C29.1925 50.416 28.8246 50.3182 28.4004 50.3182C27.9331 50.3182 27.5287 50.4342 27.1873 50.6662C26.8493 50.8949 26.5891 51.1932 26.4068 51.5611C26.2245 51.929 26.1333 52.3234 26.1333 52.7443V53.4205C26.1333 53.9972 26.2328 54.486 26.4316 54.8871C26.6338 55.2848 26.9139 55.5881 27.2718 55.7969C27.6298 56.0024 28.0458 56.1051 28.5197 56.1051C28.8279 56.1051 29.1064 56.062 29.3549 55.9759C29.6068 55.8864 29.8239 55.7538 30.0062 55.5781C30.1885 55.3991 30.3294 55.1771 30.4288 54.9119L31.5623 55.2301C31.443 55.6146 31.2425 55.9527 30.9608 56.2443C30.679 56.5327 30.331 56.758 29.9167 56.9205C29.5024 57.0795 29.0368 57.1591 28.5197 57.1591ZM33.4664 57V49.3636H34.6V50.517H34.6795C34.8187 50.1392 35.0706 49.8326 35.4352 49.5973C35.7998 49.362 36.2108 49.2443 36.6681 49.2443C36.7543 49.2443 36.862 49.246 36.9913 49.2493C37.1206 49.2526 37.2183 49.2576 37.2846 49.2642V50.4574C37.2449 50.4474 37.1537 50.4325 37.0112 50.4126C36.872 50.3894 36.7245 50.3778 36.5687 50.3778C36.1975 50.3778 35.8661 50.4557 35.5744 50.6115C35.286 50.764 35.0574 50.9761 34.8883 51.2479C34.7226 51.5163 34.6397 51.8229 34.6397 52.1676V57H33.4664ZM45.1522 49.3636L42.3283 57H41.1351L38.3113 49.3636H39.584L41.6919 55.4489H41.7715L43.8794 49.3636H45.1522ZM49.6291 57.1591C48.8933 57.1591 48.2586 56.9967 47.725 56.6719C47.1947 56.3438 46.7853 55.8864 46.497 55.2997C46.2119 54.7098 46.0694 54.0237 46.0694 53.2415C46.0694 52.4593 46.2119 51.7699 46.497 51.1733C46.7853 50.5734 47.1864 50.1061 47.7001 49.7713C48.2172 49.4332 48.8204 49.2642 49.5098 49.2642C49.9075 49.2642 50.3002 49.3305 50.688 49.4631C51.0758 49.5956 51.4288 49.8111 51.747 50.1094C52.0652 50.4044 52.3187 50.7955 52.5076 51.2827C52.6966 51.7699 52.791 52.3698 52.791 53.0824V53.5795H46.9047V52.5653H51.5978C51.5978 52.1345 51.5117 51.75 51.3393 51.4119C51.1703 51.0739 50.9283 50.8071 50.6135 50.6115C50.3019 50.416 49.934 50.3182 49.5098 50.3182C49.0424 50.3182 48.6381 50.4342 48.2967 50.6662C47.9586 50.8949 47.6984 51.1932 47.5162 51.5611C47.3339 51.929 47.2427 52.3234 47.2427 52.7443V53.4205C47.2427 53.9972 47.3422 54.486 47.541 54.8871C47.7432 55.2848 48.0233 55.5881 48.3812 55.7969C48.7392 56.0024 49.1551 56.1051 49.6291 56.1051C49.9373 56.1051 50.2157 56.062 50.4643 55.9759C50.7162 55.8864 50.9333 55.7538 51.1156 55.5781C51.2979 55.3991 51.4387 55.1771 51.5382 54.9119L52.6717 55.2301C52.5524 55.6146 52.3519 55.9527 52.0701 56.2443C51.7884 56.5327 51.4404 56.758 51.0261 56.9205C50.6118 57.0795 50.1461 57.1591 49.6291 57.1591ZM54.5758 57V49.3636H55.7093V50.517H55.7889C55.9281 50.1392 56.18 49.8326 56.5446 49.5973C56.9092 49.362 57.3201 49.2443 57.7775 49.2443C57.8637 49.2443 57.9714 49.246 58.1007 49.2493C58.2299 49.2526 58.3277 49.2576 58.394 49.2642V50.4574C58.3542 50.4474 58.2631 50.4325 58.1206 50.4126C57.9814 50.3894 57.8339 50.3778 57.6781 50.3778C57.3069 50.3778 56.9754 50.4557 56.6838 50.6115C56.3954 50.764 56.1667 50.9761 55.9977 51.2479C55.832 51.5163 55.7491 51.8229 55.7491 52.1676V57H54.5758ZM59.7848 57V49.3636H60.9581V57H59.7848ZM60.3814 48.0909C60.1527 48.0909 59.9555 48.013 59.7898 47.8572C59.6274 47.7015 59.5462 47.5142 59.5462 47.2955C59.5462 47.0767 59.6274 46.8894 59.7898 46.7337C59.9555 46.5779 60.1527 46.5 60.3814 46.5C60.6101 46.5 60.8056 46.5779 60.968 46.7337C61.1338 46.8894 61.2166 47.0767 61.2166 47.2955C61.2166 47.5142 61.1338 47.7015 60.968 47.8572C60.8056 48.013 60.6101 48.0909 60.3814 48.0909ZM72.4537 51.0739L71.3997 51.3722C71.3334 51.1965 71.2356 51.0258 71.1064 50.8601C70.9804 50.6911 70.8081 50.5518 70.5893 50.4425C70.3706 50.3331 70.0905 50.2784 69.7491 50.2784C69.2818 50.2784 68.8923 50.3861 68.5808 50.6016C68.2725 50.8137 68.1184 51.0838 68.1184 51.4119C68.1184 51.7036 68.2245 51.9339 68.4366 52.103C68.6487 52.272 68.9802 52.4129 69.4309 52.5256L70.5645 52.804C71.2472 52.9697 71.756 53.2232 72.0907 53.5646C72.4255 53.9027 72.5929 54.3385 72.5929 54.8722C72.5929 55.3097 72.4669 55.7008 72.215 56.0455C71.9664 56.3902 71.6184 56.6619 71.171 56.8608C70.7235 57.0597 70.2032 57.1591 69.6099 57.1591C68.831 57.1591 68.1864 56.9901 67.676 56.652C67.1655 56.3139 66.8424 55.8201 66.7065 55.1705L67.8201 54.892C67.9262 55.303 68.1267 55.6113 68.4217 55.8168C68.72 56.0223 69.1094 56.125 69.59 56.125C70.1369 56.125 70.5711 56.009 70.8926 55.777C71.2174 55.5417 71.3798 55.2599 71.3798 54.9318C71.3798 54.6667 71.287 54.4446 71.1014 54.2656C70.9158 54.0833 70.6307 53.9474 70.2463 53.858L68.9735 53.5597C68.2742 53.3939 67.7605 53.1371 67.4324 52.7891C67.1075 52.4377 66.9451 51.9986 66.9451 51.4716C66.9451 51.0407 67.0661 50.6596 67.3081 50.3281C67.5533 49.9967 67.8864 49.7365 68.3074 49.5476C68.7316 49.3587 69.2122 49.2642 69.7491 49.2642C70.5048 49.2642 71.0981 49.4299 71.5289 49.7614C71.9631 50.0928 72.2714 50.5303 72.4537 51.0739ZM77.68 49.3636V50.358H73.7227V49.3636H77.68ZM74.8761 47.5341H76.0494V54.8125C76.0494 55.1439 76.0974 55.3925 76.1935 55.5582C76.293 55.7206 76.4189 55.83 76.5714 55.8864C76.7272 55.9394 76.8912 55.9659 77.0636 55.9659C77.1928 55.9659 77.2989 55.9593 77.3817 55.946C77.4646 55.9295 77.5309 55.9162 77.5806 55.9062L77.8192 56.9602C77.7397 56.9901 77.6287 57.0199 77.4862 57.0497C77.3436 57.0829 77.163 57.0994 76.9442 57.0994C76.6128 57.0994 76.288 57.0282 75.9698 56.8857C75.6549 56.7431 75.3931 56.526 75.1843 56.2344C74.9788 55.9427 74.8761 55.5748 74.8761 55.1307V47.5341ZM81.6921 57.179C81.2082 57.179 80.7691 57.0878 80.3746 56.9055C79.9802 56.7199 79.667 56.4531 79.435 56.1051C79.203 55.7538 79.087 55.3295 79.087 54.8324C79.087 54.3949 79.1732 54.0402 79.3455 53.7685C79.5179 53.4934 79.7482 53.2779 80.0366 53.1222C80.3249 52.9664 80.6431 52.8504 80.9911 52.7741C81.3424 52.6946 81.6954 52.6316 82.0501 52.5852C82.5141 52.5256 82.8903 52.4808 83.1786 52.451C83.4703 52.4179 83.6824 52.3632 83.815 52.2869C83.9509 52.2107 84.0188 52.0781 84.0188 51.8892V51.8494C84.0188 51.3589 83.8846 50.9777 83.6161 50.706C83.351 50.4342 82.9483 50.2983 82.408 50.2983C81.8479 50.2983 81.4087 50.4209 81.0906 50.6662C80.7724 50.9115 80.5487 51.1733 80.4194 51.4517L79.3058 51.054C79.5046 50.59 79.7698 50.2287 80.1012 49.9702C80.436 49.7083 80.8005 49.526 81.195 49.4233C81.5927 49.3172 81.9838 49.2642 82.3683 49.2642C82.6135 49.2642 82.8952 49.294 83.2134 49.3537C83.5349 49.41 83.8448 49.5277 84.1431 49.7067C84.4447 49.8857 84.695 50.1558 84.8938 50.517C85.0927 50.8783 85.1921 51.3622 85.1921 51.9688V57H84.0188V55.9659H83.9592C83.8796 56.1316 83.747 56.3089 83.5614 56.4979C83.3758 56.6868 83.1289 56.8475 82.8207 56.9801C82.5124 57.1127 82.1362 57.179 81.6921 57.179ZM81.8711 56.125C82.3351 56.125 82.7262 56.0339 83.0444 55.8516C83.3659 55.6693 83.6078 55.4339 83.7702 55.1456C83.936 54.8572 84.0188 54.554 84.0188 54.2358V53.1619C83.9691 53.2216 83.8597 53.2763 83.6907 53.326C83.525 53.3724 83.3327 53.4138 83.114 53.4503C82.8986 53.4834 82.6881 53.5133 82.4826 53.5398C82.2804 53.563 82.1164 53.5829 81.9904 53.5994C81.6855 53.6392 81.4004 53.7038 81.1353 53.7933C80.8735 53.8795 80.6613 54.0104 80.4989 54.1861C80.3398 54.3584 80.2603 54.5937 80.2603 54.892C80.2603 55.2997 80.4111 55.608 80.7127 55.8168C81.0176 56.0223 81.4038 56.125 81.8711 56.125ZM89.5808 57.179C89.0969 57.179 88.6577 57.0878 88.2633 56.9055C87.8689 56.7199 87.5557 56.4531 87.3237 56.1051C87.0917 55.7538 86.9757 55.3295 86.9757 54.8324C86.9757 54.3949 87.0618 54.0402 87.2342 53.7685C87.4065 53.4934 87.6369 53.2779 87.9252 53.1222C88.2136 52.9664 88.5318 52.8504 88.8798 52.7741C89.2311 52.6946 89.5841 52.6316 89.9387 52.5852C90.4028 52.5256 90.7789 52.4808 91.0673 52.451C91.359 52.4179 91.5711 52.3632 91.7037 52.2869C91.8395 52.2107 91.9075 52.0781 91.9075 51.8892V51.8494C91.9075 51.3589 91.7733 50.9777 91.5048 50.706C91.2396 50.4342 90.8369 50.2983 90.2967 50.2983C89.7366 50.2983 89.2974 50.4209 88.9792 50.6662C88.661 50.9115 88.4373 51.1733 88.3081 51.4517L87.1944 51.054C87.3933 50.59 87.6584 50.2287 87.9899 49.9702C88.3246 49.7083 88.6892 49.526 89.0836 49.4233C89.4814 49.3172 89.8725 49.2642 90.2569 49.2642C90.5022 49.2642 90.7839 49.294 91.1021 49.3537C91.4236 49.41 91.7335 49.5277 92.0318 49.7067C92.3334 49.8857 92.5836 50.1558 92.7825 50.517C92.9814 50.8783 93.0808 51.3622 93.0808 51.9688V57H91.9075V55.9659H91.8478C91.7683 56.1316 91.6357 56.3089 91.4501 56.4979C91.2645 56.6868 91.0176 56.8475 90.7093 56.9801C90.4011 57.1127 90.0249 57.179 89.5808 57.179ZM89.7598 56.125C90.2238 56.125 90.6149 56.0339 90.9331 55.8516C91.2546 55.6693 91.4965 55.4339 91.6589 55.1456C91.8246 54.8572 91.9075 54.554 91.9075 54.2358V53.1619C91.8578 53.2216 91.7484 53.2763 91.5794 53.326C91.4136 53.3724 91.2214 53.4138 91.0027 53.4503C90.7872 53.4834 90.5768 53.5133 90.3713 53.5398C90.1691 53.563 90.005 53.5829 89.8791 53.5994C89.5742 53.6392 89.2891 53.7038 89.024 53.7933C88.7621 53.8795 88.55 54.0104 88.3876 54.1861C88.2285 54.3584 88.149 54.5937 88.149 54.892C88.149 55.2997 88.2998 55.608 88.6014 55.8168C88.9063 56.0223 89.2924 56.125 89.7598 56.125ZM98.5433 49.3636V50.358H94.5859V49.3636H98.5433ZM95.7393 47.5341H96.9126V54.8125C96.9126 55.1439 96.9607 55.3925 97.0568 55.5582C97.1563 55.7206 97.2822 55.83 97.4347 55.8864C97.5904 55.9394 97.7545 55.9659 97.9268 55.9659C98.0561 55.9659 98.1622 55.9593 98.245 55.946C98.3279 55.9295 98.3942 55.9162 98.4439 55.9062L98.6825 56.9602C98.603 56.9901 98.492 57.0199 98.3494 57.0497C98.2069 57.0829 98.0263 57.0994 97.8075 57.0994C97.4761 57.0994 97.1513 57.0282 96.8331 56.8857C96.5182 56.7431 96.2564 56.526 96.0476 56.2344C95.8421 55.9427 95.7393 55.5748 95.7393 55.1307V47.5341ZM105.121 53.8778V49.3636H106.294V57H105.121V55.7074H105.041C104.862 56.0952 104.584 56.425 104.206 56.6967C103.828 56.9652 103.351 57.0994 102.774 57.0994C102.297 57.0994 101.873 56.995 101.501 56.7862C101.13 56.5741 100.839 56.2559 100.626 55.8317C100.414 55.4041 100.308 54.8655 100.308 54.2159V49.3636H101.482V54.1364C101.482 54.6932 101.637 55.1373 101.949 55.4688C102.264 55.8002 102.665 55.9659 103.152 55.9659C103.444 55.9659 103.74 55.8913 104.042 55.7422C104.347 55.593 104.602 55.3643 104.808 55.0561C105.016 54.7479 105.121 54.3551 105.121 53.8778ZM113.852 51.0739L112.798 51.3722C112.732 51.1965 112.634 51.0258 112.505 50.8601C112.379 50.6911 112.206 50.5518 111.988 50.4425C111.769 50.3331 111.489 50.2784 111.148 50.2784C110.68 50.2784 110.291 50.3861 109.979 50.6016C109.671 50.8137 109.517 51.0838 109.517 51.4119C109.517 51.7036 109.623 51.9339 109.835 52.103C110.047 52.272 110.379 52.4129 110.829 52.5256L111.963 52.804C112.646 52.9697 113.154 53.2232 113.489 53.5646C113.824 53.9027 113.991 54.3385 113.991 54.8722C113.991 55.3097 113.865 55.7008 113.613 56.0455C113.365 56.3902 113.017 56.6619 112.569 56.8608C112.122 57.0597 111.602 57.1591 111.008 57.1591C110.229 57.1591 109.585 56.9901 109.074 56.652C108.564 56.3139 108.241 55.8201 108.105 55.1705L109.219 54.892C109.325 55.303 109.525 55.6113 109.82 55.8168C110.118 56.0223 110.508 56.125 110.988 56.125C111.535 56.125 111.97 56.009 112.291 55.777C112.616 55.5417 112.778 55.2599 112.778 54.9318C112.778 54.6667 112.685 54.4446 112.5 54.2656C112.314 54.0833 112.029 53.9474 111.645 53.858L110.372 53.5597C109.673 53.3939 109.159 53.1371 108.831 52.7891C108.506 52.4377 108.344 51.9986 108.344 51.4716C108.344 51.0407 108.465 50.6596 108.706 50.3281C108.952 49.9967 109.285 49.7365 109.706 49.5476C110.13 49.3587 110.611 49.2642 111.148 49.2642C111.903 49.2642 112.497 49.4299 112.927 49.7614C113.362 50.0928 113.67 50.5303 113.852 51.0739Z" fill="#FF8400"/>
<path d="M22.5291 69.392V67.3636H32.0859V69.392H28.5234V79H26.0916V69.392H22.5291ZM34.9155 79.1648C34.3587 79.1648 33.8625 79.0682 33.4268 78.875C32.9912 78.678 32.6465 78.3883 32.3928 78.0057C32.1428 77.6193 32.0178 77.1383 32.0178 76.5625C32.0178 76.0777 32.1068 75.6705 32.2848 75.3409C32.4628 75.0114 32.7053 74.7462 33.0121 74.5455C33.3189 74.3447 33.6674 74.1932 34.0575 74.0909C34.4515 73.9886 34.8643 73.9167 35.2962 73.875C35.8037 73.822 36.2128 73.7727 36.5234 73.7273C36.834 73.678 37.0594 73.6061 37.1996 73.5114C37.3397 73.4167 37.4098 73.2765 37.4098 73.0909V73.0568C37.4098 72.697 37.2962 72.4186 37.0689 72.2216C36.8454 72.0246 36.5272 71.9261 36.1143 71.9261C35.6787 71.9261 35.3321 72.0227 35.0746 72.2159C34.817 72.4053 34.6465 72.6439 34.5632 72.9318L32.3246 72.75C32.4382 72.2197 32.6617 71.7614 32.995 71.375C33.3284 70.9848 33.7583 70.6856 34.2848 70.4773C34.8151 70.2652 35.4287 70.1591 36.1257 70.1591C36.6106 70.1591 37.0746 70.2159 37.5178 70.3295C37.9647 70.4432 38.3606 70.6193 38.7053 70.858C39.0537 71.0966 39.3284 71.4034 39.5291 71.7784C39.7299 72.1496 39.8303 72.5947 39.8303 73.1136V79H37.5348V77.7898H37.4666C37.3265 78.0625 37.139 78.303 36.9041 78.5114C36.6693 78.7159 36.3871 78.8769 36.0575 78.9943C35.728 79.108 35.3473 79.1648 34.9155 79.1648ZM35.6087 77.4943C35.9647 77.4943 36.2791 77.4242 36.5518 77.2841C36.8246 77.1402 37.0386 76.947 37.1939 76.7045C37.3492 76.4621 37.4268 76.1875 37.4268 75.8807V74.9545C37.3511 75.0038 37.2469 75.0492 37.1143 75.0909C36.9856 75.1288 36.8397 75.1648 36.6768 75.1989C36.514 75.2292 36.3511 75.2576 36.1882 75.2841C36.0253 75.3068 35.8776 75.3277 35.745 75.3466C35.4609 75.3883 35.2128 75.4545 35.0007 75.5455C34.7886 75.6364 34.6238 75.7595 34.5064 75.9148C34.389 76.0663 34.3303 76.2557 34.3303 76.483C34.3303 76.8125 34.4496 77.0644 34.6882 77.2386C34.9306 77.4091 35.2375 77.4943 35.6087 77.4943ZM44.1967 79.1648C43.6399 79.1648 43.1437 79.0682 42.7081 78.875C42.2725 78.678 41.9278 78.3883 41.674 78.0057C41.424 77.6193 41.299 77.1383 41.299 76.5625C41.299 76.0777 41.388 75.6705 41.5661 75.3409C41.7441 75.0114 41.9865 74.7462 42.2933 74.5455C42.6001 74.3447 42.9486 74.1932 43.3388 74.0909C43.7327 73.9886 44.1456 73.9167 44.5774 73.875C45.085 73.822 45.4941 73.7727 45.8047 73.7273C46.1153 73.678 46.3407 73.6061 46.4808 73.5114C46.621 73.4167 46.6911 73.2765 46.6911 73.0909V73.0568C46.6911 72.697 46.5774 72.4186 46.3501 72.2216C46.1267 72.0246 45.8085 71.9261 45.3956 71.9261C44.96 71.9261 44.6134 72.0227 44.3558 72.2159C44.0982 72.4053 43.9278 72.6439 43.8445 72.9318L41.6058 72.75C41.7195 72.2197 41.9429 71.7614 42.2763 71.375C42.6096 70.9848 43.0395 70.6856 43.5661 70.4773C44.0964 70.2652 44.71 70.1591 45.407 70.1591C45.8918 70.1591 46.3558 70.2159 46.799 70.3295C47.246 70.4432 47.6418 70.6193 47.9865 70.858C48.335 71.0966 48.6096 71.4034 48.8104 71.7784C49.0111 72.1496 49.1115 72.5947 49.1115 73.1136V79H46.8161V77.7898H46.7479C46.6077 78.0625 46.4202 78.303 46.1854 78.5114C45.9505 78.7159 45.6683 78.8769 45.3388 78.9943C45.0092 79.108 44.6286 79.1648 44.1967 79.1648ZM44.8899 77.4943C45.246 77.4943 45.5604 77.4242 45.8331 77.2841C46.1058 77.1402 46.3198 76.947 46.4751 76.7045C46.6304 76.4621 46.7081 76.1875 46.7081 75.8807V74.9545C46.6323 75.0038 46.5282 75.0492 46.3956 75.0909C46.2668 75.1288 46.121 75.1648 45.9581 75.1989C45.7952 75.2292 45.6323 75.2576 45.4695 75.2841C45.3066 75.3068 45.1589 75.3277 45.0263 75.3466C44.7422 75.3883 44.4941 75.4545 44.282 75.5455C44.0698 75.6364 43.9051 75.7595 43.7876 75.9148C43.6702 76.0663 43.6115 76.2557 43.6115 76.483C43.6115 76.8125 43.7308 77.0644 43.9695 77.2386C44.2119 77.4091 44.5187 77.4943 44.8899 77.4943ZM58.2507 72.7614L56.0348 72.8977C55.9969 72.7083 55.9155 72.5379 55.7905 72.3864C55.6655 72.2311 55.5007 72.108 55.2962 72.017C55.0954 71.9223 54.8549 71.875 54.5746 71.875C54.1996 71.875 53.8833 71.9545 53.6257 72.1136C53.3681 72.2689 53.2393 72.4773 53.2393 72.7386C53.2393 72.947 53.3227 73.1231 53.4893 73.267C53.656 73.411 53.942 73.5265 54.3473 73.6136L55.9268 73.9318C56.7753 74.1061 57.4079 74.3864 57.8246 74.7727C58.2412 75.1591 58.4496 75.6667 58.4496 76.2955C58.4496 76.8674 58.281 77.3693 57.9439 77.8011C57.6106 78.233 57.1522 78.5701 56.5689 78.8125C55.9893 79.0511 55.3208 79.1705 54.5632 79.1705C53.4079 79.1705 52.4875 78.9299 51.8018 78.4489C51.12 77.964 50.7204 77.3049 50.603 76.4716L52.9837 76.3466C53.0556 76.6989 53.2299 76.9678 53.5064 77.1534C53.7829 77.3352 54.1371 77.4261 54.5689 77.4261C54.9931 77.4261 55.334 77.3447 55.5916 77.1818C55.853 77.0152 55.9856 76.8011 55.9893 76.5398C55.9856 76.3201 55.8928 76.1402 55.7109 76C55.5291 75.8561 55.2488 75.7462 54.87 75.6705L53.3587 75.3693C52.5064 75.1989 51.8719 74.9034 51.4553 74.483C51.0424 74.0625 50.8359 73.5265 50.8359 72.875C50.8359 72.3144 50.9875 71.8314 51.2905 71.4261C51.5973 71.0208 52.0272 70.7083 52.5803 70.4886C53.1371 70.2689 53.7886 70.1591 54.5348 70.1591C55.6371 70.1591 56.5045 70.392 57.1371 70.858C57.7734 71.3239 58.1446 71.9583 58.2507 72.7614ZM64.6158 70.2727V72.0909H59.3601V70.2727H64.6158ZM60.5533 68.1818H62.9737V76.3182C62.9737 76.5417 63.0078 76.7159 63.076 76.8409C63.1442 76.9621 63.2389 77.0473 63.3601 77.0966C63.4851 77.1458 63.629 77.1705 63.7919 77.1705C63.9055 77.1705 64.0192 77.161 64.1328 77.142C64.2464 77.1193 64.3336 77.1023 64.3942 77.0909L64.7749 78.892C64.6536 78.9299 64.4832 78.9735 64.2635 79.0227C64.0438 79.0758 63.7768 79.108 63.4624 79.1193C62.879 79.142 62.3677 79.0644 61.9283 78.8864C61.4927 78.7083 61.1536 78.4318 60.9112 78.0568C60.6688 77.6818 60.5495 77.2083 60.5533 76.6364V68.1818ZM71.7891 75.2841V70.2727H74.2095V79H71.8857V77.4148H71.7947C71.5978 77.9261 71.2701 78.3371 70.8118 78.6477C70.3572 78.9583 69.8023 79.1136 69.147 79.1136C68.5637 79.1136 68.0504 78.9811 67.6072 78.7159C67.1641 78.4508 66.8175 78.0739 66.5675 77.5852C66.3213 77.0966 66.1963 76.5114 66.1925 75.8295V70.2727H68.6129V75.3977C68.6167 75.9129 68.755 76.3201 69.0277 76.6193C69.3004 76.9186 69.666 77.0682 70.1243 77.0682C70.416 77.0682 70.6887 77.0019 70.9425 76.8693C71.1963 76.733 71.4008 76.5322 71.5561 76.267C71.7152 76.0019 71.7929 75.6742 71.7891 75.2841ZM76.1456 79V70.2727H78.4524V71.8125H78.5547C78.7365 71.3011 79.0395 70.8977 79.4638 70.6023C79.888 70.3068 80.3956 70.1591 80.9865 70.1591C81.585 70.1591 82.0945 70.3087 82.5149 70.608C82.9354 70.9034 83.2157 71.3049 83.3558 71.8125H83.4467C83.6248 71.3125 83.9467 70.9129 84.4126 70.6136C84.8823 70.3106 85.4373 70.1591 86.0774 70.1591C86.8918 70.1591 87.5528 70.4186 88.0604 70.9375C88.5717 71.4527 88.8274 72.1837 88.8274 73.1307V79H86.4126V73.608C86.4126 73.1231 86.2839 72.7595 86.0263 72.517C85.7687 72.2746 85.4467 72.1534 85.0604 72.1534C84.621 72.1534 84.2782 72.2936 84.032 72.5739C83.7857 72.8504 83.6626 73.2159 83.6626 73.6705V79H81.3161V73.5568C81.3161 73.1288 81.1929 72.7879 80.9467 72.5341C80.7043 72.2803 80.3842 72.1534 79.9865 72.1534C79.7176 72.1534 79.4751 72.2216 79.2592 72.358C79.0471 72.4905 78.8786 72.678 78.7536 72.9205C78.6286 73.1591 78.5661 73.4394 78.5661 73.7614V79H76.1456ZM93.228 79.1648C92.6712 79.1648 92.175 79.0682 91.7393 78.875C91.3037 78.678 90.959 78.3883 90.7053 78.0057C90.4553 77.6193 90.3303 77.1383 90.3303 76.5625C90.3303 76.0777 90.4193 75.6705 90.5973 75.3409C90.7753 75.0114 91.0178 74.7462 91.3246 74.5455C91.6314 74.3447 91.9799 74.1932 92.37 74.0909C92.764 73.9886 93.1768 73.9167 93.6087 73.875C94.1162 73.822 94.5253 73.7727 94.8359 73.7273C95.1465 73.678 95.3719 73.6061 95.5121 73.5114C95.6522 73.4167 95.7223 73.2765 95.7223 73.0909V73.0568C95.7223 72.697 95.6087 72.4186 95.3814 72.2216C95.1579 72.0246 94.8397 71.9261 94.4268 71.9261C93.9912 71.9261 93.6446 72.0227 93.3871 72.2159C93.1295 72.4053 92.959 72.6439 92.8757 72.9318L90.6371 72.75C90.7507 72.2197 90.9742 71.7614 91.3075 71.375C91.6409 70.9848 92.0708 70.6856 92.5973 70.4773C93.1276 70.2652 93.7412 70.1591 94.4382 70.1591C94.9231 70.1591 95.3871 70.2159 95.8303 70.3295C96.2772 70.4432 96.6731 70.6193 97.0178 70.858C97.3662 71.0966 97.6409 71.4034 97.8416 71.7784C98.0424 72.1496 98.1428 72.5947 98.1428 73.1136V79H95.8473V77.7898H95.7791C95.639 78.0625 95.4515 78.303 95.2166 78.5114C94.9818 78.7159 94.6996 78.8769 94.37 78.9943C94.0405 79.108 93.6598 79.1648 93.228 79.1648ZM93.9212 77.4943C94.2772 77.4943 94.5916 77.4242 94.8643 77.2841C95.1371 77.1402 95.3511 76.947 95.5064 76.7045C95.6617 76.4621 95.7393 76.1875 95.7393 75.8807V74.9545C95.6636 75.0038 95.5594 75.0492 95.4268 75.0909C95.2981 75.1288 95.1522 75.1648 94.9893 75.1989C94.8265 75.2292 94.6636 75.2576 94.5007 75.2841C94.3378 75.3068 94.1901 75.3277 94.0575 75.3466C93.7734 75.3883 93.5253 75.4545 93.3132 75.5455C93.1011 75.6364 92.9363 75.7595 92.8189 75.9148C92.7015 76.0663 92.6428 76.2557 92.6428 76.483C92.6428 76.8125 92.7621 77.0644 93.0007 77.2386C93.2431 77.4091 93.55 77.4943 93.9212 77.4943ZM107.282 72.7614L105.066 72.8977C105.028 72.7083 104.947 72.5379 104.822 72.3864C104.697 72.2311 104.532 72.108 104.327 72.017C104.127 71.9223 103.886 71.875 103.606 71.875C103.231 71.875 102.915 71.9545 102.657 72.1136C102.399 72.2689 102.271 72.4773 102.271 72.7386C102.271 72.947 102.354 73.1231 102.521 73.267C102.687 73.411 102.973 73.5265 103.379 73.6136L104.958 73.9318C105.807 74.1061 106.439 74.3864 106.856 74.7727C107.272 75.1591 107.481 75.6667 107.481 76.2955C107.481 76.8674 107.312 77.3693 106.975 77.8011C106.642 78.233 106.183 78.5701 105.6 78.8125C105.021 79.0511 104.352 79.1705 103.594 79.1705C102.439 79.1705 101.519 78.9299 100.833 78.4489C100.151 77.964 99.7517 77.3049 99.6342 76.4716L102.015 76.3466C102.087 76.6989 102.261 76.9678 102.538 77.1534C102.814 77.3352 103.168 77.4261 103.6 77.4261C104.024 77.4261 104.365 77.3447 104.623 77.1818C104.884 77.0152 105.017 76.8011 105.021 76.5398C105.017 76.3201 104.924 76.1402 104.742 76C104.56 75.8561 104.28 75.7462 103.901 75.6705L102.39 75.3693C101.538 75.1989 100.903 74.9034 100.487 74.483C100.074 74.0625 99.8672 73.5265 99.8672 72.875C99.8672 72.3144 100.019 71.8314 100.322 71.4261C100.629 71.0208 101.058 70.7083 101.612 70.4886C102.168 70.2689 102.82 70.1591 103.566 70.1591C104.668 70.1591 105.536 70.392 106.168 70.858C106.805 71.3239 107.176 71.9583 107.282 72.7614Z" fill="#FF8400"/>
</svg>
