<svg width="155" height="163" viewBox="0 0 155 163" fill="none" xmlns="http://www.w3.org/2000/svg">
<rect x="12.1377" y="-0.00390625" width="130" height="120" rx="8" fill="#008B8B"/>
<g filter="url(#filter0_d_204_1931)">
<path d="M64.8727 49.9961H20.1377C15.7194 49.9961 12.1377 53.5778 12.1377 57.9961V84.9961L12.1377 111.996C12.1377 116.414 15.7194 119.996 20.1377 119.996H134.138C138.556 119.996 142.138 116.414 142.138 111.996V70.4901C142.138 66.0718 138.556 62.4901 134.138 62.4901H88.8123C87.2625 62.4901 85.7461 62.04 84.4473 61.1944L69.2376 51.2918C67.9389 50.4462 66.4224 49.9961 64.8727 49.9961Z" fill="url(#paint0_linear_204_1931)"/>
</g>
<path d="M45.8664 141.999L45.866 131.817L48.0187 131.817L48.0189 136.307L48.1531 136.307L51.817 131.817L54.3973 131.817L50.619 136.376L54.4424 141.999L51.8671 141.999L49.0779 137.813L48.019 139.106L48.0191 141.999L45.8664 141.999ZM58.3985 142.148C57.613 142.148 56.9369 141.989 56.3701 141.671C55.8066 141.349 55.3724 140.895 55.0675 140.309C54.7625 139.719 54.6101 139.021 54.61 138.216C54.61 137.43 54.7624 136.741 55.0673 136.147C55.3722 135.554 55.8014 135.092 56.3549 134.76C56.9117 134.429 57.5647 134.263 58.3137 134.263C58.8175 134.263 59.2865 134.344 59.7207 134.507C60.1582 134.666 60.5394 134.906 60.8642 135.227C61.1923 135.549 61.4475 135.953 61.6299 136.441C61.8122 136.924 61.9033 137.491 61.9033 138.141L61.9034 138.722L55.4552 138.723L55.4552 137.41L59.9097 137.41C59.9097 137.105 59.8434 136.835 59.7108 136.6C59.5782 136.364 59.3943 136.18 59.159 136.048C58.9269 135.912 58.6568 135.844 58.3486 135.844C58.0271 135.844 57.7421 135.919 57.4935 136.068C57.2482 136.214 57.056 136.411 56.9168 136.659C56.7776 136.905 56.7063 137.178 56.703 137.48L56.7031 138.728C56.7031 139.105 56.7727 139.432 56.9119 139.707C57.0545 139.982 57.255 140.194 57.5135 140.343C57.772 140.492 58.0786 140.567 58.4333 140.567C58.6686 140.567 58.884 140.534 59.0796 140.468C59.2751 140.401 59.4425 140.302 59.5817 140.169C59.7209 140.037 59.8269 139.874 59.8998 139.682L61.8587 139.811C61.7592 140.282 61.5554 140.693 61.2472 141.044C60.9423 141.392 60.5479 141.664 60.064 141.86C59.5834 142.052 59.0282 142.148 58.3985 142.148ZM69.6391 136.54L67.7002 136.659C67.667 136.493 67.5958 136.344 67.4864 136.212C67.377 136.076 67.2328 135.968 67.0538 135.888C66.8782 135.806 66.6677 135.764 66.4224 135.764C66.0943 135.764 65.8176 135.834 65.5922 135.973C65.3668 136.109 65.2541 136.291 65.2541 136.52C65.2542 136.702 65.3271 136.856 65.4729 136.982C65.6188 137.108 65.869 137.209 66.2236 137.286L67.6057 137.564C68.3482 137.716 68.9017 137.962 69.2663 138.3C69.6309 138.638 69.8132 139.082 69.8132 139.632C69.8132 140.132 69.6657 140.572 69.3708 140.949C69.0791 141.327 68.6781 141.622 68.1677 141.834C67.6606 142.043 67.0756 142.148 66.4127 142.148C65.4018 142.148 64.5964 141.937 63.9965 141.516C63.3999 141.092 63.0502 140.516 62.9474 139.786L65.0305 139.677C65.0935 139.985 65.246 140.22 65.4879 140.383C65.7299 140.542 66.0398 140.621 66.4176 140.621C66.7888 140.621 67.0871 140.55 67.3125 140.408C67.5412 140.262 67.6572 140.075 67.6605 139.846C67.6572 139.654 67.576 139.496 67.4169 139.374C67.2578 139.248 67.0125 139.152 66.6811 139.085L65.3586 138.822C64.6129 138.673 64.0577 138.414 63.6931 138.046C63.3318 137.678 63.1512 137.209 63.1512 136.639C63.1512 136.149 63.2837 135.726 63.5489 135.372C63.8173 135.017 64.1935 134.743 64.6774 134.551C65.1646 134.359 65.7347 134.263 66.3876 134.263C67.3521 134.263 68.1111 134.467 68.6646 134.874C69.2214 135.282 69.5463 135.837 69.6391 136.54ZM75.2084 134.362L75.2085 135.953L70.6098 135.953L70.6097 134.362L75.2084 134.362ZM71.6537 132.533L73.7716 132.532L73.7718 139.652C73.7718 139.847 73.8017 140 73.8613 140.109C73.921 140.215 74.0039 140.29 74.1099 140.333C74.2193 140.376 74.3452 140.397 74.4878 140.397C74.5872 140.397 74.6866 140.389 74.7861 140.373C74.8855 140.353 74.9617 140.338 75.0148 140.328L75.3479 141.904C75.2418 141.937 75.0927 141.975 74.9005 142.018C74.7082 142.065 74.4746 142.093 74.1995 142.103C73.6891 142.123 73.2416 142.055 72.8571 141.899C72.476 141.743 72.1793 141.501 71.9672 141.173C71.7551 140.845 71.6506 140.431 71.6539 139.93L71.6537 132.533ZM78.8699 131.816L78.8703 141.998L76.7524 141.998L76.752 131.816L78.8699 131.816ZM80.5668 141.998L80.5666 134.362L82.6845 134.362L82.6847 141.998L80.5668 141.998ZM81.6305 133.377C81.3156 133.377 81.0455 133.273 80.8201 133.064C80.598 132.852 80.487 132.599 80.487 132.304C80.487 132.012 80.598 131.762 80.82 131.553C81.0454 131.341 81.3155 131.235 81.6304 131.235C81.9453 131.235 82.2137 131.341 82.4358 131.553C82.6612 131.762 82.7739 132.012 82.7739 132.303C82.7739 132.598 82.6612 132.852 82.4358 133.064C82.2138 133.273 81.9453 133.377 81.6305 133.377ZM86.3002 139.8L86.3051 137.26L86.6134 137.26L89.0593 134.361L91.4904 134.361L88.2043 138.2L87.7022 138.2L86.3002 139.8ZM84.3813 141.998L84.3809 131.816L86.4988 131.816L86.4992 141.998L84.3813 141.998ZM89.154 141.998L86.9067 138.672L88.3186 137.175L91.6348 141.998L89.154 141.998ZM97.4266 138.746L97.4265 134.361L99.5444 134.361L99.5446 141.997L97.5113 141.998L97.5112 140.61L97.4317 140.61C97.2593 141.058 96.9726 141.418 96.5716 141.689C96.1739 141.961 95.6883 142.097 95.115 142.097C94.6045 142.097 94.1554 141.981 93.7676 141.749C93.3798 141.517 93.0766 141.187 92.8578 140.76C92.6424 140.332 92.533 139.82 92.5296 139.224L92.5295 134.361L94.6474 134.361L94.6475 138.846C94.6508 139.296 94.7718 139.653 95.0105 139.915C95.2491 140.176 95.569 140.307 95.97 140.307C96.2252 140.307 96.4638 140.249 96.6859 140.133C96.908 140.014 97.0869 139.838 97.2228 139.606C97.362 139.374 97.43 139.088 97.4266 138.746ZM104.053 142.122C103.473 142.122 102.947 141.973 102.477 141.674C102.009 141.373 101.638 140.93 101.363 140.347C101.091 139.76 100.955 139.041 100.955 138.189C100.955 137.314 101.096 136.587 101.378 136.007C101.659 135.423 102.034 134.987 102.501 134.699C102.972 134.407 103.487 134.262 104.047 134.262C104.475 134.262 104.831 134.334 105.116 134.48C105.405 134.623 105.637 134.802 105.812 135.017C105.991 135.229 106.127 135.438 106.22 135.644L106.285 135.644L106.285 131.815L108.397 131.815L108.398 141.997L106.31 141.997L106.31 140.774L106.22 140.774C106.121 140.986 105.98 141.197 105.798 141.406C105.619 141.611 105.385 141.782 105.097 141.918C104.812 142.054 104.464 142.122 104.053 142.122ZM104.724 140.436C105.065 140.436 105.353 140.343 105.589 140.158C105.827 139.969 106.01 139.705 106.136 139.367C106.265 139.029 106.33 138.633 106.329 138.179C106.329 137.725 106.266 137.331 106.141 136.996C106.015 136.661 105.832 136.403 105.594 136.22C105.355 136.038 105.065 135.947 104.724 135.947C104.376 135.947 104.082 136.041 103.844 136.23C103.605 136.419 103.424 136.681 103.302 137.016C103.179 137.351 103.118 137.738 103.118 138.179C103.118 138.623 103.179 139.016 103.302 139.357C103.428 139.696 103.608 139.961 103.844 140.153C104.082 140.342 104.376 140.436 104.724 140.436ZM36.8252 151.363L36.8253 152.954L32.2266 152.954L32.2265 151.363L36.8252 151.363ZM33.2705 149.534L35.3884 149.534L35.3886 156.653C35.3886 156.849 35.4185 157.001 35.4781 157.11C35.5378 157.216 35.6206 157.291 35.7267 157.334C35.8361 157.377 35.962 157.399 36.1045 157.399C36.204 157.399 36.3034 157.39 36.4028 157.374C36.5023 157.354 36.5785 157.339 36.6315 157.329L36.9647 158.905C36.8586 158.938 36.7095 158.976 36.5172 159.019C36.325 159.066 36.0913 159.094 35.8162 159.104C35.3058 159.124 34.8584 159.056 34.4739 158.9C34.0928 158.744 33.7961 158.503 33.584 158.174C33.3718 157.846 33.2674 157.432 33.2707 156.932L33.2705 149.534ZM41.6032 159.149C40.8177 159.149 40.1415 158.99 39.5748 158.671C39.0113 158.35 38.5771 157.896 38.2722 157.309C37.9672 156.719 37.8147 156.022 37.8147 155.216C37.8147 154.431 37.9671 153.741 38.272 153.148C38.5769 152.555 39.0061 152.092 39.5596 151.761C40.1164 151.429 40.7693 151.264 41.5184 151.264C42.0222 151.264 42.4912 151.345 42.9254 151.507C43.3629 151.666 43.744 151.907 44.0689 152.228C44.397 152.55 44.6522 152.954 44.8345 153.441C45.0168 153.925 45.108 154.492 45.108 155.141L45.108 155.723L38.6599 155.723L38.6598 154.411L43.1144 154.411C43.1144 154.106 43.0481 153.836 42.9155 153.6C42.7829 153.365 42.599 153.181 42.3636 153.048C42.1316 152.913 41.8615 152.845 41.5533 152.845C41.2318 152.845 40.9467 152.919 40.6981 153.068C40.4529 153.214 40.2607 153.411 40.1215 153.66C39.9823 153.905 39.911 154.179 39.9077 154.48L39.9078 155.728C39.9078 156.106 39.9774 156.432 40.1166 156.708C40.2591 156.983 40.4597 157.195 40.7182 157.344C40.9767 157.493 41.2833 157.568 41.6379 157.568C41.8733 157.568 42.0887 157.534 42.2842 157.468C42.4798 157.402 42.6472 157.302 42.7864 157.17C42.9256 157.037 43.0316 156.875 43.1045 156.683L45.0633 156.812C44.9639 157.282 44.7601 157.693 44.4519 158.045C44.147 158.393 43.7525 158.665 43.2687 158.86C42.7881 159.052 42.2329 159.149 41.6032 159.149ZM48.608 154.584L48.6081 158.999L46.4903 158.999L46.4899 148.817L48.5481 148.817L48.5483 152.71L48.6378 152.71C48.8101 152.259 49.0885 151.906 49.473 151.651C49.8574 151.393 50.3397 151.263 50.9197 151.263C51.45 151.263 51.9123 151.379 52.3068 151.611C52.7045 151.84 53.0127 152.17 53.2315 152.601C53.4536 153.028 53.563 153.54 53.5597 154.137L53.5599 158.999L51.442 158.999L51.4418 154.515C51.4451 154.044 51.3258 153.678 51.0838 153.416C50.8452 153.154 50.5104 153.023 50.0795 153.023C49.7912 153.023 49.536 153.085 49.3139 153.207C49.0952 153.33 48.9228 153.509 48.7969 153.744C48.6743 153.976 48.6113 154.256 48.608 154.584ZM57.3443 154.584L57.3445 158.999L55.2266 158.999L55.2263 151.363L57.2448 151.363L57.2448 152.71L57.3343 152.71C57.5033 152.266 57.7867 151.914 58.1844 151.656C58.5821 151.394 59.0644 151.263 59.6311 151.263C60.1615 151.263 60.6238 151.379 61.0182 151.611C61.4127 151.843 61.7192 152.174 61.938 152.605C62.1568 153.033 62.2662 153.543 62.2662 154.137L62.2664 158.999L60.1485 158.999L60.1483 154.514C60.1516 154.047 60.0323 153.683 59.7903 153.421C59.5484 153.156 59.2153 153.023 58.791 153.023C58.506 153.023 58.2541 153.084 58.0353 153.207C57.8199 153.33 57.6509 153.509 57.5282 153.744C57.4089 153.976 57.3476 154.256 57.3443 154.584ZM67.3859 159.148C66.6136 159.148 65.9457 158.984 65.3823 158.656C64.8221 158.324 64.3896 157.863 64.0847 157.274C63.7797 156.68 63.6272 155.993 63.6272 155.21C63.6272 154.422 63.7796 153.732 64.0845 153.142C64.3894 152.549 64.8219 152.088 65.3821 151.76C65.9455 151.429 66.6133 151.263 67.3856 151.263C68.1578 151.263 68.824 151.428 69.3842 151.76C69.9476 152.088 70.3818 152.549 70.6868 153.142C70.9917 153.732 71.1442 154.421 71.1442 155.21C71.1443 155.992 70.9918 156.68 70.6869 157.273C70.382 157.863 69.9479 158.324 69.3844 158.655C68.8243 158.984 68.1581 159.148 67.3859 159.148ZM67.3957 157.507C67.7471 157.507 68.0404 157.408 68.2757 157.209C68.511 157.007 68.6883 156.731 68.8076 156.383C68.9303 156.035 68.9916 155.639 68.9915 155.195C68.9915 154.751 68.9302 154.355 68.8076 154.007C68.6882 153.659 68.5109 153.384 68.2756 153.182C68.0402 152.98 67.7469 152.879 67.3956 152.879C67.0409 152.879 66.7427 152.98 66.5007 153.182C66.2621 153.384 66.0815 153.659 65.9588 154.007C65.8395 154.355 65.7799 154.751 65.7799 155.195C65.7799 155.639 65.8396 156.036 65.9589 156.384C66.0816 156.732 66.2622 157.007 66.5008 157.209C66.7428 157.408 67.0411 157.507 67.3957 157.507ZM74.6391 148.817L74.6394 158.998L72.5215 158.998L72.5212 148.817L74.6391 148.817ZM79.7862 159.147C79.014 159.147 78.3461 158.983 77.7827 158.655C77.2225 158.324 76.79 157.863 76.485 157.273C76.1801 156.68 76.0276 155.992 76.0276 155.21C76.0276 154.421 76.18 153.732 76.4849 153.142C76.7898 152.548 77.2223 152.088 77.7824 151.76C78.3459 151.428 79.0137 151.262 79.786 151.262C80.5582 151.262 81.2244 151.428 81.7846 151.759C82.348 152.088 82.7822 152.548 83.0872 153.142C83.3921 153.731 83.5446 154.421 83.5446 155.21C83.5447 155.992 83.3922 156.68 83.0873 157.273C82.7824 157.863 82.3482 158.324 81.7848 158.655C81.2247 158.983 80.5585 159.147 79.7862 159.147ZM79.7961 157.507C80.1475 157.507 80.4408 157.407 80.6761 157.208C80.9114 157.006 81.0887 156.731 81.208 156.383C81.3306 156.035 81.3919 155.639 81.3919 155.195C81.3919 154.751 81.3306 154.355 81.2079 154.007C81.0886 153.659 80.9113 153.384 80.676 153.181C80.4406 152.979 80.1473 152.878 79.796 152.878C79.4413 152.878 79.143 152.979 78.9011 153.181C78.6625 153.384 78.4818 153.659 78.3592 154.007C78.2399 154.355 78.1803 154.751 78.1803 155.195C78.1803 155.639 78.24 156.035 78.3593 156.383C78.4819 156.731 78.6626 157.006 78.9012 157.208C79.1432 157.407 79.4415 157.507 79.7961 157.507ZM88.3722 159.147C87.5999 159.147 86.9321 158.983 86.3686 158.655C85.8085 158.323 85.3759 157.863 85.071 157.273C84.766 156.68 84.6136 155.992 84.6135 155.21C84.6135 154.421 84.7659 153.731 85.0708 153.141C85.3757 152.548 85.8083 152.087 86.3684 151.759C86.9318 151.428 87.5997 151.262 88.3719 151.262C89.1442 151.262 89.8104 151.428 90.3705 151.759C90.934 152.087 91.3682 152.548 91.6731 153.141C91.9781 153.731 92.1305 154.421 92.1306 155.209C92.1306 155.992 91.9782 156.679 91.6733 157.273C91.3683 157.863 90.9342 158.323 90.3707 158.655C89.8106 158.983 89.1444 159.147 88.3722 159.147ZM88.3821 157.506C88.7334 157.506 89.0267 157.407 89.262 157.208C89.4973 157.006 89.6747 156.731 89.794 156.383C89.9166 156.035 89.9779 155.639 89.9779 155.195C89.9779 154.75 89.9165 154.354 89.7939 154.006C89.6746 153.658 89.4972 153.383 89.2619 153.181C89.0266 152.979 88.7332 152.878 88.3819 152.878C88.0273 152.878 87.729 152.979 87.487 153.181C87.2484 153.383 87.0678 153.658 86.9452 154.006C86.8259 154.354 86.7662 154.751 86.7662 155.195C86.7662 155.639 86.8259 156.035 86.9452 156.383C87.0679 156.731 87.2485 157.006 87.4872 157.208C87.7291 157.407 88.0274 157.506 88.3821 157.506ZM96.9483 162.02C96.2622 162.02 95.6739 161.926 95.1833 161.737C94.6961 161.551 94.3083 161.298 94.02 160.976C93.7316 160.655 93.5443 160.294 93.4581 159.893L95.4169 159.629C95.4766 159.781 95.5711 159.924 95.7003 160.057C95.8296 160.189 96.0003 160.295 96.2124 160.375C96.4279 160.458 96.6897 160.499 96.9979 160.499C97.4586 160.499 97.8381 160.386 98.1364 160.161C98.438 159.939 98.5888 159.566 98.5888 159.042L98.5887 157.645L98.4993 157.645C98.4065 157.857 98.2673 158.058 98.0817 158.247C97.8961 158.436 97.6574 158.59 97.3658 158.709C97.0741 158.829 96.7261 158.888 96.3217 158.888C95.7484 158.888 95.2263 158.756 94.7557 158.491C94.2883 158.222 93.9155 157.813 93.637 157.263C93.3619 156.709 93.2243 156.01 93.2243 155.165C93.2243 154.3 93.3651 153.577 93.6468 152.997C93.9285 152.417 94.303 151.983 94.7704 151.694C95.241 151.406 95.7564 151.262 96.3165 151.262C96.7441 151.262 97.102 151.335 97.3904 151.481C97.6787 151.623 97.9108 151.802 98.0864 152.017C98.2654 152.23 98.403 152.438 98.4991 152.644L98.5786 152.644L98.5786 151.361L100.682 151.361L100.682 159.072C100.682 159.722 100.523 160.265 100.205 160.703C99.8865 161.14 99.4456 161.468 98.8822 161.687C98.3221 161.909 97.6774 162.02 96.9483 162.02ZM96.9929 157.297C97.3342 157.297 97.6226 157.213 97.8579 157.044C98.0965 156.871 98.2788 156.626 98.4048 156.308C98.534 155.986 98.5986 155.602 98.5986 155.154C98.5986 154.707 98.5356 154.319 98.4096 153.991C98.2837 153.66 98.1014 153.403 97.8627 153.221C97.6241 153.038 97.3341 152.947 96.9927 152.947C96.6447 152.947 96.3514 153.042 96.1127 153.231C95.8741 153.416 95.6935 153.675 95.5709 154.006C95.4483 154.338 95.3869 154.72 95.387 155.155C95.387 155.595 95.4483 155.977 95.5709 156.298C95.6969 156.616 95.8775 156.863 96.1129 157.039C96.3515 157.211 96.6448 157.297 96.9929 157.297ZM102.367 158.997L102.367 151.361L104.485 151.361L104.485 158.997L102.367 158.997ZM103.431 150.377C103.116 150.377 102.846 150.272 102.62 150.063C102.398 149.851 102.287 149.598 102.287 149.303C102.287 149.011 102.398 148.761 102.62 148.552C102.846 148.34 103.116 148.234 103.431 148.234C103.746 148.234 104.014 148.34 104.236 148.552C104.462 148.761 104.574 149.011 104.574 149.303C104.574 149.598 104.462 149.851 104.236 150.063C104.014 150.272 103.746 150.377 103.431 150.377ZM108.359 159.141C107.872 159.141 107.438 159.057 107.057 158.888C106.675 158.716 106.374 158.462 106.152 158.127C105.933 157.789 105.824 157.368 105.824 156.864C105.824 156.44 105.901 156.084 106.057 155.796C106.213 155.507 106.425 155.275 106.694 155.1C106.962 154.924 107.267 154.791 107.608 154.702C107.953 154.612 108.314 154.549 108.692 154.513C109.136 154.466 109.494 154.423 109.766 154.384C110.038 154.34 110.235 154.277 110.358 154.195C110.48 154.112 110.542 153.989 110.542 153.827L110.542 153.797C110.542 153.482 110.442 153.238 110.243 153.066C110.048 152.894 109.769 152.808 109.408 152.808C109.027 152.808 108.724 152.892 108.498 153.061C108.273 153.227 108.124 153.436 108.051 153.688L106.092 153.529C106.191 153.065 106.387 152.663 106.679 152.325C106.97 151.984 107.346 151.722 107.807 151.54C108.271 151.354 108.808 151.261 109.418 151.261C109.842 151.261 110.248 151.311 110.636 151.41C111.027 151.51 111.373 151.664 111.675 151.873C111.98 152.082 112.22 152.35 112.396 152.678C112.572 153.003 112.659 153.392 112.659 153.846L112.66 158.997L110.651 158.997L110.651 157.938L110.591 157.938C110.469 158.177 110.305 158.387 110.099 158.57C109.894 158.749 109.647 158.889 109.359 158.992C109.07 159.092 108.737 159.141 108.359 159.141ZM108.966 157.68C109.277 157.68 109.552 157.618 109.791 157.496C110.03 157.37 110.217 157.201 110.353 156.989C110.489 156.776 110.557 156.536 110.557 156.268L110.557 155.457C110.49 155.5 110.399 155.54 110.283 155.577C110.17 155.61 110.043 155.641 109.9 155.671C109.758 155.698 109.615 155.723 109.473 155.746C109.33 155.766 109.201 155.784 109.085 155.8C108.836 155.837 108.619 155.895 108.434 155.974C108.248 156.054 108.104 156.162 108.001 156.298C107.898 156.43 107.847 156.596 107.847 156.795C107.847 157.083 107.951 157.304 108.16 157.456C108.372 157.605 108.641 157.68 108.966 157.68ZM117.117 159.121C116.537 159.121 116.011 158.972 115.541 158.674C115.073 158.372 114.702 157.93 114.427 157.346C114.155 156.76 114.019 156.041 114.019 155.189C114.019 154.314 114.16 153.586 114.442 153.006C114.723 152.423 115.098 151.987 115.565 151.699C116.036 151.407 116.551 151.261 117.111 151.261C117.539 151.261 117.895 151.334 118.18 151.48C118.469 151.622 118.701 151.801 118.876 152.017C119.055 152.229 119.191 152.438 119.284 152.643L119.349 152.643L119.349 148.815L121.462 148.815L121.462 158.997L119.374 158.997L119.374 157.774L119.284 157.774C119.185 157.986 119.044 158.196 118.862 158.405C118.683 158.611 118.449 158.781 118.161 158.917C117.876 159.053 117.528 159.121 117.117 159.121ZM117.788 157.436C118.129 157.436 118.418 157.343 118.653 157.157C118.891 156.968 119.074 156.705 119.2 156.367C119.329 156.029 119.394 155.633 119.394 155.179C119.394 154.725 119.331 154.33 119.205 153.995C119.079 153.661 118.896 153.402 118.658 153.22C118.419 153.038 118.129 152.946 117.788 152.946C117.44 152.946 117.146 153.041 116.908 153.23C116.669 153.419 116.488 153.681 116.366 154.015C116.243 154.35 116.182 154.738 116.182 155.179C116.182 155.623 116.243 156.016 116.366 156.357C116.492 156.695 116.672 156.96 116.908 157.152C117.146 157.341 117.44 157.436 117.788 157.436Z" fill="#D8D8D8"/>
<defs>
<filter id="filter0_d_204_1931" x="0.137695" y="35.9961" width="154" height="94" filterUnits="userSpaceOnUse" color-interpolation-filters="sRGB">
<feFlood flood-opacity="0" result="BackgroundImageFix"/>
<feColorMatrix in="SourceAlpha" type="matrix" values="0 0 0 0 0 0 0 0 0 0 0 0 0 0 0 0 0 0 127 0" result="hardAlpha"/>
<feOffset dy="-2"/>
<feGaussianBlur stdDeviation="6"/>
<feComposite in2="hardAlpha" operator="out"/>
<feColorMatrix type="matrix" values="0 0 0 0 0.0923839 0 0 0 0 0.169424 0 0 0 0 0.250995 0 0 0 0.25 0"/>
<feBlend mode="normal" in2="BackgroundImageFix" result="effect1_dropShadow_204_1931"/>
<feBlend mode="normal" in="SourceGraphic" in2="effect1_dropShadow_204_1931" result="shape"/>
</filter>
<linearGradient id="paint0_linear_204_1931" x1="77.1377" y1="49.9961" x2="77.1377" y2="119.996" gradientUnits="userSpaceOnUse">
<stop stop-color="#4AD1D1"/>
<stop offset="1" stop-color="#008B8B"/>
</linearGradient>
</defs>
</svg>
