<svg width="161" height="191" viewBox="0 0 161 191" fill="none" xmlns="http://www.w3.org/2000/svg">
<rect x="12.0708" y="28.4219" width="130" height="120" rx="8" fill="#008B8B"/>
<rect x="12.0708" y="28.4219" width="130" height="120" rx="8" fill="black" fill-opacity="0.6"/>
<g filter="url(#filter0_d_204_1930)">
<path d="M64.2742 58.4219H20.0708C15.6525 58.4219 12.0708 62.0036 12.0708 66.4219L12.0708 103.422V140.422C12.0708 144.84 15.6525 148.422 20.0708 148.422H134.071C138.489 148.422 142.071 144.84 142.071 140.422V82.4856C142.071 78.0673 138.489 74.4856 134.071 74.4856H89.277C87.3994 74.4856 85.5816 73.8252 84.1419 72.62L69.4092 60.2875C67.9695 59.0823 66.1517 58.4219 64.2742 58.4219Z" fill="url(#paint0_linear_204_1930)"/>
<path d="M64.2742 58.4219H20.0708C15.6525 58.4219 12.0708 62.0036 12.0708 66.4219L12.0708 103.422V140.422C12.0708 144.84 15.6525 148.422 20.0708 148.422H134.071C138.489 148.422 142.071 144.84 142.071 140.422V82.4856C142.071 78.0673 138.489 74.4856 134.071 74.4856H89.277C87.3994 74.4856 85.5816 73.8252 84.1419 72.62L69.4092 60.2875C67.9695 59.0823 66.1517 58.4219 64.2742 58.4219Z" fill="black" fill-opacity="0.6"/>
</g>
<path d="M45.7995 170.425L45.7991 160.243L47.9518 160.243L47.952 164.733L48.0862 164.733L51.7501 160.243L54.3304 160.243L50.5521 164.802L54.3755 170.425L51.8002 170.425L49.011 166.239L47.9521 167.532L47.9522 170.425L45.7995 170.425ZM58.3316 170.574C57.5461 170.574 56.87 170.415 56.3032 170.097C55.7397 169.775 55.3055 169.321 55.0006 168.734C54.6956 168.144 54.5432 167.447 54.5431 166.641C54.5431 165.856 54.6955 165.166 55.0005 164.573C55.3054 163.98 55.7346 163.518 56.288 163.186C56.8449 162.855 57.4978 162.689 58.2468 162.689C58.7506 162.689 59.2196 162.77 59.6538 162.932C60.0913 163.091 60.4725 163.332 60.7973 163.653C61.1254 163.975 61.3807 164.379 61.563 164.866C61.7453 165.35 61.8364 165.917 61.8365 166.567L61.8365 167.148L55.3883 167.148L55.3883 165.836L59.8428 165.836C59.8428 165.531 59.7765 165.261 59.6439 165.025C59.5113 164.79 59.3274 164.606 59.0921 164.474C58.8601 164.338 58.5899 164.27 58.2817 164.27C57.9602 164.27 57.6752 164.344 57.4266 164.494C57.1813 164.639 56.9891 164.837 56.8499 165.085C56.7107 165.33 56.6395 165.604 56.6361 165.906L56.6362 167.153C56.6362 167.531 56.7058 167.858 56.845 168.133C56.9876 168.408 57.1881 168.62 57.4466 168.769C57.7051 168.918 58.0117 168.993 58.3664 168.993C58.6017 168.993 58.8171 168.96 59.0127 168.893C59.2082 168.827 59.3756 168.728 59.5148 168.595C59.654 168.462 59.76 168.3 59.833 168.108L61.7918 168.237C61.6924 168.708 61.4885 169.119 61.1803 169.47C60.8754 169.818 60.481 170.09 59.9971 170.285C59.5165 170.478 58.9614 170.574 58.3316 170.574ZM69.5722 164.965L67.6333 165.085C67.6001 164.919 67.5289 164.77 67.4195 164.637C67.3101 164.502 67.1659 164.394 66.9869 164.314C66.8113 164.231 66.6008 164.19 66.3556 164.19C66.0274 164.19 65.7507 164.26 65.5253 164.399C65.2999 164.535 65.1872 164.717 65.1873 164.946C65.1873 165.128 65.2602 165.282 65.406 165.408C65.5519 165.534 65.8021 165.635 66.1567 165.711L67.5389 165.99C68.2813 166.142 68.8348 166.387 69.1994 166.725C69.564 167.063 69.7463 167.508 69.7463 168.058C69.7463 168.558 69.5988 168.997 69.3039 169.375C69.0122 169.753 68.6112 170.048 68.1008 170.26C67.5937 170.469 67.0087 170.574 66.3458 170.574C65.3349 170.574 64.5295 170.363 63.9296 169.942C63.333 169.518 62.9833 168.941 62.8805 168.212L64.9636 168.103C65.0266 168.411 65.1791 168.646 65.421 168.809C65.663 168.968 65.9729 169.047 66.3507 169.047C66.722 169.047 67.0202 168.976 67.2456 168.833C67.4743 168.688 67.5903 168.5 67.5936 168.272C67.5903 168.079 67.5091 167.922 67.35 167.799C67.1909 167.673 66.9456 167.577 66.6142 167.511L65.2917 167.248C64.546 167.098 63.9908 166.84 63.6262 166.472C63.2649 166.104 63.0843 165.635 63.0843 165.065C63.0843 164.575 63.2168 164.152 63.482 163.797C63.7504 163.443 64.1266 163.169 64.6105 162.977C65.0977 162.785 65.6678 162.689 66.3207 162.689C67.2852 162.689 68.0442 162.892 68.5977 163.3C69.1545 163.708 69.4794 164.263 69.5722 164.965ZM75.1415 162.788L75.1416 164.379L70.5429 164.379L70.5428 162.788L75.1415 162.788ZM71.5868 160.958L73.7047 160.958L73.7049 168.078C73.7049 168.273 73.7348 168.426 73.7944 168.535C73.8541 168.641 73.937 168.716 74.043 168.759C74.1524 168.802 74.2784 168.823 74.4209 168.823C74.5203 168.823 74.6197 168.815 74.7192 168.798C74.8186 168.779 74.8948 168.764 74.9479 168.754L75.281 170.33C75.1749 170.363 75.0258 170.401 74.8336 170.444C74.6413 170.49 74.4077 170.519 74.1326 170.529C73.6222 170.548 73.1747 170.481 72.7902 170.325C72.4091 170.169 72.1124 169.927 71.9003 169.599C71.6882 169.271 71.5837 168.857 71.587 168.356L71.5868 160.958ZM78.803 160.242L78.8034 170.424L76.6855 170.424L76.6851 160.242L78.803 160.242ZM80.4999 170.424L80.4997 162.788L82.6176 162.787L82.6178 170.424L80.4999 170.424ZM81.5636 161.803C81.2487 161.803 80.9786 161.699 80.7532 161.49C80.5311 161.278 80.4201 161.024 80.4201 160.729C80.4201 160.438 80.5311 160.187 80.7531 159.979C80.9785 159.766 81.2486 159.66 81.5635 159.66C81.8784 159.66 82.1468 159.766 82.3689 159.979C82.5943 160.187 82.707 160.438 82.707 160.729C82.707 161.024 82.5943 161.278 82.369 161.49C82.1469 161.699 81.8784 161.803 81.5636 161.803ZM86.2333 168.226L86.2382 165.686L86.5465 165.686L88.9924 162.787L91.4235 162.787L88.1374 166.625L87.6353 166.625L86.2333 168.226ZM84.3144 170.424L84.314 160.242L86.4319 160.242L86.4323 170.424L84.3144 170.424ZM89.0871 170.424L86.8398 167.098L88.2517 165.601L91.5679 170.424L89.0871 170.424ZM97.3597 167.172L97.3596 162.787L99.4775 162.787L99.4777 170.423L97.4444 170.423L97.4443 169.036L97.3648 169.036C97.1924 169.484 96.9058 169.843 96.5047 170.115C96.107 170.387 95.6214 170.523 95.0481 170.523C94.5376 170.523 94.0885 170.407 93.7007 170.175C93.313 169.943 93.0097 169.613 92.7909 169.186C92.5755 168.758 92.4661 168.246 92.4627 167.649L92.4626 162.787L94.5805 162.787L94.5806 167.271C94.5839 167.722 94.7049 168.079 94.9436 168.34C95.1822 168.602 95.5021 168.733 95.9031 168.733C96.1583 168.733 96.397 168.675 96.619 168.559C96.8411 168.44 97.02 168.264 97.1559 168.032C97.2951 167.8 97.3631 167.513 97.3597 167.172ZM103.986 170.547C103.406 170.547 102.88 170.398 102.41 170.1C101.942 169.798 101.571 169.356 101.296 168.773C101.024 168.186 100.888 167.467 100.888 166.615C100.888 165.74 101.029 165.012 101.311 164.432C101.593 163.849 101.967 163.413 102.434 163.125C102.905 162.833 103.42 162.687 103.981 162.687C104.408 162.687 104.764 162.76 105.049 162.906C105.338 163.049 105.57 163.228 105.745 163.443C105.924 163.655 106.06 163.864 106.153 164.069L106.218 164.069L106.218 160.241L108.331 160.241L108.331 170.423L106.243 170.423L106.243 169.2L106.153 169.2C106.054 169.412 105.913 169.623 105.731 169.831C105.552 170.037 105.318 170.208 105.03 170.344C104.745 170.479 104.397 170.547 103.986 170.547ZM104.657 168.862C104.998 168.862 105.287 168.769 105.522 168.584C105.761 168.395 105.943 168.131 106.069 167.793C106.198 167.455 106.263 167.059 106.263 166.605C106.263 166.151 106.2 165.756 106.074 165.422C105.948 165.087 105.765 164.828 105.527 164.646C105.288 164.464 104.998 164.373 104.657 164.373C104.309 164.373 104.015 164.467 103.777 164.656C103.538 164.845 103.357 165.107 103.235 165.442C103.112 165.776 103.051 166.164 103.051 166.605C103.051 167.049 103.112 167.442 103.235 167.783C103.361 168.121 103.542 168.386 103.777 168.579C104.016 168.768 104.309 168.862 104.657 168.862ZM36.7583 179.789L36.7584 181.38L32.1597 181.38L32.1596 179.789L36.7583 179.789ZM33.2036 177.96L35.3215 177.96L35.3217 185.079C35.3217 185.274 35.3516 185.427 35.4112 185.536C35.4709 185.642 35.5537 185.717 35.6598 185.76C35.7692 185.803 35.8951 185.825 36.0376 185.825C36.1371 185.825 36.2365 185.816 36.3359 185.8C36.4354 185.78 36.5116 185.765 36.5646 185.755L36.8978 187.331C36.7917 187.364 36.6426 187.402 36.4503 187.445C36.2581 187.492 36.0244 187.52 35.7494 187.53C35.2389 187.55 34.7915 187.482 34.407 187.326C34.0259 187.17 33.7292 186.928 33.5171 186.6C33.3049 186.272 33.2005 185.858 33.2038 185.357L33.2036 177.96ZM41.5363 187.574C40.7508 187.574 40.0746 187.415 39.5079 187.097C38.9444 186.776 38.5102 186.322 38.2053 185.735C37.9003 185.145 37.7478 184.447 37.7478 183.642C37.7478 182.856 37.9002 182.167 38.2051 181.574C38.51 180.98 38.9392 180.518 39.4927 180.187C40.0495 179.855 40.7025 179.689 41.4515 179.689C41.9553 179.689 42.4243 179.771 42.8585 179.933C43.296 180.092 43.6771 180.332 44.002 180.654C44.3301 180.975 44.5853 181.38 44.7676 181.867C44.9499 182.351 45.0411 182.918 45.0411 183.567L45.0411 184.149L38.593 184.149L38.5929 182.837L43.0475 182.836C43.0475 182.531 42.9812 182.261 42.8486 182.026C42.716 181.791 42.5321 181.607 42.2967 181.474C42.0647 181.338 41.7946 181.27 41.4864 181.27C41.1649 181.27 40.8798 181.345 40.6313 181.494C40.386 181.64 40.1938 181.837 40.0546 182.086C39.9154 182.331 39.8441 182.604 39.8408 182.906L39.8409 184.154C39.8409 184.532 39.9105 184.858 40.0497 185.133C40.1922 185.408 40.3928 185.621 40.6513 185.77C40.9098 185.919 41.2164 185.993 41.571 185.993C41.8064 185.993 42.0218 185.96 42.2173 185.894C42.4129 185.828 42.5803 185.728 42.7195 185.596C42.8587 185.463 42.9647 185.301 43.0376 185.108L44.9964 185.238C44.897 185.708 44.6932 186.119 44.385 186.471C44.0801 186.819 43.6857 187.09 43.2018 187.286C42.7212 187.478 42.166 187.574 41.5363 187.574ZM48.5411 183.01L48.5413 187.425L46.4234 187.425L46.423 177.243L48.4813 177.243L48.4814 181.136L48.5709 181.136C48.7432 180.685 49.0216 180.332 49.4061 180.077C49.7905 179.818 50.2728 179.689 50.8528 179.689C51.3831 179.689 51.8454 179.805 52.2399 180.037C52.6376 180.266 52.9459 180.596 53.1646 181.026C53.3867 181.454 53.4961 181.966 53.4928 182.563L53.493 187.425L51.3751 187.425L51.3749 182.941C51.3782 182.47 51.2589 182.104 51.0169 181.842C50.7783 181.58 50.4435 181.449 50.0126 181.449C49.7243 181.449 49.4691 181.51 49.247 181.633C49.0283 181.756 48.8559 181.935 48.73 182.17C48.6074 182.402 48.5444 182.682 48.5411 183.01ZM57.2774 183.01L57.2776 187.425L55.1597 187.425L55.1594 179.788L57.1779 179.788L57.1779 181.136L57.2674 181.136C57.4364 180.691 57.7198 180.34 58.1175 180.082C58.5153 179.82 58.9975 179.689 59.5643 179.689C60.0946 179.689 60.5569 179.805 60.9513 180.037C61.3458 180.269 61.6524 180.6 61.8711 181.031C62.0899 181.459 62.1993 181.969 62.1993 182.562L62.1995 187.425L60.0816 187.425L60.0814 182.94C60.0847 182.473 59.9654 182.108 59.7234 181.846C59.4815 181.581 59.1484 181.449 58.7241 181.449C58.4391 181.449 58.1872 181.51 57.9684 181.633C57.753 181.755 57.584 181.934 57.4614 182.17C57.342 182.402 57.2807 182.682 57.2774 183.01ZM67.319 187.573C66.5467 187.574 65.8788 187.409 65.3154 187.081C64.7552 186.75 64.3227 186.289 64.0178 185.699C63.7128 185.106 63.5603 184.418 63.5603 183.636C63.5603 182.847 63.7127 182.158 64.0176 181.568C64.3225 180.975 64.755 180.514 65.3152 180.186C65.8786 179.854 66.5464 179.689 67.3187 179.689C68.0909 179.689 68.7571 179.854 69.3173 180.186C69.8807 180.514 70.3149 180.974 70.6199 181.568C70.9248 182.158 71.0773 182.847 71.0773 183.636C71.0774 184.418 70.9249 185.106 70.62 185.699C70.3151 186.289 69.881 186.75 69.3175 187.081C68.7574 187.409 68.0912 187.573 67.319 187.573ZM67.3288 185.933C67.6802 185.933 67.9735 185.833 68.2088 185.635C68.4441 185.432 68.6214 185.157 68.7407 184.809C68.8634 184.461 68.9247 184.065 68.9246 183.621C68.9246 183.177 68.8633 182.781 68.7407 182.433C68.6213 182.085 68.444 181.81 68.2087 181.608C67.9733 181.405 67.68 181.304 67.3287 181.304C66.9741 181.304 66.6758 181.405 66.4338 181.608C66.1952 181.81 66.0146 182.085 65.8919 182.433C65.7726 182.781 65.713 183.177 65.713 183.621C65.713 184.065 65.7727 184.461 65.892 184.809C66.0147 185.157 66.1953 185.432 66.4339 185.635C66.6759 185.833 66.9742 185.933 67.3288 185.933ZM74.5722 177.242L74.5725 187.424L72.4546 187.424L72.4543 177.242L74.5722 177.242ZM79.7193 187.573C78.9471 187.573 78.2792 187.409 77.7158 187.081C77.1556 186.75 76.7231 186.289 76.4181 185.699C76.1132 185.106 75.9607 184.418 75.9607 183.636C75.9607 182.847 76.1131 182.157 76.418 181.568C76.7229 180.974 77.1554 180.514 77.7155 180.185C78.279 179.854 78.9468 179.688 79.7191 179.688C80.4913 179.688 81.1575 179.854 81.7177 180.185C82.2811 180.513 82.7153 180.974 83.0203 181.567C83.3252 182.157 83.4777 182.847 83.4777 183.635C83.4778 184.418 83.3253 185.105 83.0204 185.699C82.7155 186.289 82.2813 186.749 81.7179 187.081C81.1578 187.409 80.4916 187.573 79.7193 187.573ZM79.7292 185.932C80.0806 185.932 80.3739 185.833 80.6092 185.634C80.8445 185.432 81.0218 185.157 81.1411 184.809C81.2638 184.461 81.3251 184.065 81.325 183.621C81.325 183.176 81.2637 182.78 81.1411 182.432C81.0217 182.084 80.8444 181.809 80.6091 181.607C80.3737 181.405 80.0804 181.304 79.7291 181.304C79.3744 181.304 79.0761 181.405 78.8342 181.607C78.5956 181.809 78.415 182.084 78.2923 182.433C78.173 182.781 78.1134 183.177 78.1134 183.621C78.1134 184.065 78.1731 184.461 78.2924 184.809C78.4151 185.157 78.5957 185.432 78.8343 185.634C79.0763 185.833 79.3746 185.932 79.7292 185.932ZM88.3053 187.573C87.533 187.573 86.8652 187.409 86.3017 187.081C85.7416 186.749 85.309 186.289 85.0041 185.699C84.6991 185.105 84.5467 184.418 84.5466 183.635C84.5466 182.847 84.699 182.157 85.0039 181.567C85.3089 180.974 85.7414 180.513 86.3015 180.185C86.8649 179.854 87.5328 179.688 88.305 179.688C89.0773 179.688 89.7435 179.854 90.3036 180.185C90.8671 180.513 91.3013 180.974 91.6062 181.567C91.9112 182.157 92.0637 182.846 92.0637 183.635C92.0637 184.417 91.9113 185.105 91.6064 185.698C91.3015 186.288 90.8673 186.749 90.3038 187.081C89.7437 187.409 89.0775 187.573 88.3053 187.573ZM88.3152 185.932C88.6665 185.932 88.9598 185.833 89.1951 185.634C89.4305 185.432 89.6078 185.157 89.7271 184.809C89.8497 184.461 89.911 184.064 89.911 183.62C89.911 183.176 89.8496 182.78 89.727 182.432C89.6077 182.084 89.4303 181.809 89.195 181.607C88.9597 181.405 88.6663 181.304 88.315 181.304C87.9604 181.304 87.6621 181.405 87.4201 181.607C87.1815 181.809 87.0009 182.084 86.8783 182.432C86.759 182.78 86.6993 183.176 86.6993 183.62C86.6993 184.065 86.759 184.461 86.8783 184.809C87.001 185.157 87.1816 185.432 87.4203 185.634C87.6622 185.833 87.9605 185.932 88.3152 185.932ZM96.8814 190.446C96.1953 190.446 95.607 190.352 95.1165 190.163C94.6292 189.977 94.2414 189.724 93.9531 189.402C93.6647 189.081 93.4774 188.719 93.3912 188.318L95.35 188.055C95.4097 188.207 95.5042 188.35 95.6334 188.482C95.7627 188.615 95.9334 188.721 96.1455 188.801C96.361 188.883 96.6228 188.925 96.931 188.925C97.3917 188.925 97.7712 188.812 98.0695 188.587C98.3711 188.365 98.5219 187.992 98.5219 187.468L98.5219 186.071L98.4324 186.071C98.3396 186.283 98.2004 186.484 98.0148 186.673C97.8292 186.862 97.5905 187.016 97.2989 187.135C97.0072 187.254 96.6592 187.314 96.2549 187.314C95.6815 187.314 95.1594 187.181 94.6888 186.916C94.2214 186.648 93.8486 186.239 93.5701 185.688C93.295 185.135 93.1575 184.436 93.1574 183.59C93.1574 182.725 93.2982 182.003 93.5799 181.423C93.8616 180.843 94.2362 180.409 94.7035 180.12C95.1741 179.832 95.6895 179.688 96.2496 179.688C96.6772 179.688 97.0351 179.76 97.3235 179.906C97.6119 180.049 97.8439 180.228 98.0195 180.443C98.1985 180.655 98.3361 180.864 98.4322 181.07L98.5117 181.07L98.5117 179.787L100.615 179.787L100.615 187.498C100.615 188.147 100.456 188.691 100.138 189.129C99.8196 189.566 99.3788 189.894 98.8153 190.113C98.2552 190.335 97.6105 190.446 96.8814 190.446ZM96.926 185.723C97.2673 185.723 97.5557 185.639 97.791 185.469C98.0296 185.297 98.2119 185.052 98.3379 184.734C98.4671 184.412 98.5317 184.028 98.5317 183.58C98.5317 183.133 98.4687 182.745 98.3428 182.417C98.2168 182.085 98.0345 181.829 97.7959 181.646C97.5572 181.464 97.2672 181.373 96.9258 181.373C96.5778 181.373 96.2845 181.467 96.0459 181.656C95.8072 181.842 95.6266 182.1 95.504 182.432C95.3814 182.763 95.3201 183.146 95.3201 183.58C95.3201 184.021 95.3814 184.402 95.5041 184.724C95.63 185.042 95.8107 185.289 96.046 185.465C96.2846 185.637 96.578 185.723 96.926 185.723ZM102.3 187.423L102.3 179.787L104.418 179.787L104.418 187.423L102.3 187.423ZM103.364 178.802C103.049 178.802 102.779 178.698 102.554 178.489C102.331 178.277 102.22 178.024 102.22 177.729C102.22 177.437 102.331 177.187 102.554 176.978C102.779 176.766 103.049 176.66 103.364 176.66C103.679 176.66 103.947 176.766 104.169 176.978C104.395 177.187 104.507 177.437 104.507 177.729C104.507 178.023 104.395 178.277 104.169 178.489C103.947 178.698 103.679 178.802 103.364 178.802ZM108.292 187.567C107.805 187.567 107.371 187.483 106.99 187.314C106.609 187.141 106.307 186.888 106.085 186.553C105.866 186.215 105.757 185.794 105.757 185.29C105.757 184.866 105.835 184.51 105.99 184.221C106.146 183.933 106.358 183.701 106.627 183.525C106.895 183.35 107.2 183.217 107.541 183.128C107.886 183.038 108.247 182.975 108.625 182.939C109.069 182.892 109.427 182.849 109.699 182.809C109.971 182.766 110.168 182.703 110.291 182.62C110.413 182.537 110.475 182.415 110.475 182.252L110.475 182.223C110.475 181.908 110.375 181.664 110.176 181.492C109.981 181.319 109.702 181.233 109.341 181.233C108.96 181.233 108.657 181.318 108.431 181.487C108.206 181.653 108.057 181.861 107.984 182.113L106.025 181.954C106.125 181.49 106.32 181.089 106.612 180.751C106.903 180.41 107.28 180.148 107.74 179.966C108.204 179.78 108.741 179.687 109.351 179.687C109.775 179.687 110.181 179.737 110.569 179.836C110.96 179.936 111.307 180.09 111.608 180.299C111.913 180.507 112.153 180.776 112.329 181.104C112.505 181.429 112.593 181.818 112.593 182.272L112.593 187.423L110.584 187.423L110.584 186.364L110.525 186.364C110.402 186.603 110.238 186.813 110.032 186.995C109.827 187.174 109.58 187.315 109.292 187.418C109.003 187.517 108.67 187.567 108.292 187.567ZM108.899 186.105C109.21 186.105 109.485 186.044 109.724 185.922C109.963 185.796 110.15 185.627 110.286 185.414C110.422 185.202 110.49 184.962 110.49 184.694L110.49 183.883C110.423 183.926 110.332 183.966 110.216 184.002C110.104 184.036 109.976 184.067 109.833 184.097C109.691 184.123 109.548 184.148 109.406 184.172C109.263 184.191 109.134 184.21 109.018 184.226C108.769 184.263 108.552 184.321 108.367 184.4C108.181 184.48 108.037 184.588 107.934 184.723C107.832 184.856 107.78 185.022 107.78 185.221C107.78 185.509 107.885 185.729 108.093 185.882C108.306 186.031 108.574 186.105 108.899 186.105ZM117.05 187.547C116.47 187.547 115.944 187.398 115.474 187.1C115.006 186.798 114.635 186.356 114.36 185.772C114.088 185.186 113.952 184.466 113.952 183.615C113.952 182.74 114.093 182.012 114.375 181.432C114.657 180.849 115.031 180.413 115.498 180.124C115.969 179.833 116.484 179.687 117.045 179.687C117.472 179.687 117.828 179.76 118.113 179.906C118.402 180.048 118.634 180.227 118.809 180.443C118.988 180.655 119.124 180.863 119.217 181.069L119.282 181.069L119.282 177.241L121.395 177.241L121.395 187.423L119.307 187.423L119.307 186.2L119.217 186.2C119.118 186.412 118.977 186.622 118.795 186.831C118.616 187.037 118.382 187.207 118.094 187.343C117.809 187.479 117.461 187.547 117.05 187.547ZM117.721 185.862C118.062 185.862 118.351 185.769 118.586 185.583C118.825 185.394 119.007 185.131 119.133 184.793C119.262 184.455 119.327 184.059 119.327 183.604C119.327 183.15 119.264 182.756 119.138 182.421C119.012 182.086 118.829 181.828 118.591 181.646C118.352 181.463 118.062 181.372 117.721 181.372C117.373 181.372 117.079 181.467 116.841 181.656C116.602 181.845 116.422 182.106 116.299 182.441C116.176 182.776 116.115 183.164 116.115 183.605C116.115 184.049 116.176 184.441 116.299 184.783C116.425 185.121 116.606 185.386 116.841 185.578C117.08 185.767 117.373 185.862 117.721 185.862Z" fill="#A4A4A4"/>
<rect width="42.63" height="35.8641" rx="5.52002" transform="matrix(0.967827 0.251702 -0.266192 0.963945 115.865 14.5332)" fill="#8C6C34"/>
<path d="M148.954 54.689C150.461 49.4326 153.822 37.3387 155.493 30.7817C156.551 26.6294 153.952 25.1376 153.362 24.6345L151.561 31.1577L145.167 54.3137C144.839 55.0588 143.946 56.0933 141.049 55.3619L107.778 46.709C108.339 48.6687 110.015 49.8898 111.081 50.3427L142.035 58.3931C144.991 59.1617 147.231 57.723 148.464 55.8262C148.692 55.4764 148.84 55.0885 148.954 54.689Z" fill="#875603"/>
<path d="M134.731 29.3202C137.335 30.003 138.869 32.6607 138.159 35.2566C137.684 36.991 136.326 38.2569 134.701 38.7038L133.295 46.4285L127.234 44.839L129.962 37.4621C128.783 36.2799 128.256 34.5185 128.731 32.7839C129.442 30.1882 132.128 28.6375 134.731 29.3202Z" fill="#8C7D60"/>
<path d="M133.711 29.049C136.315 29.7318 137.849 32.3901 137.138 34.9863C136.663 36.7205 135.306 37.9856 133.682 38.4328L132.276 46.1575L126.214 44.5678L128.943 37.192C127.764 36.0098 127.234 34.2484 127.709 32.5134C128.42 29.9173 131.107 28.3663 133.711 29.049Z" fill="#83541E"/>
<path d="M114.367 34.4723C114.151 35.255 113.553 35.6588 113.281 35.7629C112.565 35.7166 112.633 34.3708 112.756 33.7037L116.553 19.9535C117.139 17.8336 118.033 17.5858 118.894 17.4187C120.05 17.1943 123.871 18.5361 126.082 19.111C125.13 19.0382 122.21 19.1392 120.606 19.1414C119.001 19.1435 118.389 19.9076 118.179 20.6686L114.367 34.4723Z" fill="#8C7D60"/>
<path d="M134.051 29.1388C136.654 29.8217 138.188 32.4792 137.477 35.075C137.002 36.8096 135.645 38.0754 134.02 38.5221L132.613 46.2506L126.552 44.6611L129.282 37.2807C128.103 36.0985 127.574 34.3369 128.049 32.6023C128.76 30.0065 131.448 28.456 134.051 29.1388Z" fill="#281C0B"/>
<path d="M149.184 24.2115C150.203 20.5551 149.807 16.6885 148.084 13.4625C146.361 10.2364 143.453 7.91514 139.998 7.00928C136.544 6.10343 132.826 6.6872 129.664 8.63217C126.501 10.5771 124.152 13.724 123.134 17.3805" stroke="#676D7C" stroke-width="3.41402"/>
<path d="M124.752 11.8646C124.628 12.0019 124.569 12.1777 124.593 12.3583C124.616 12.5386 124.722 12.7089 124.879 12.8267C125.036 12.9446 125.231 12.9989 125.413 12.9727C125.595 12.9468 125.75 12.8425 125.85 12.6877C125.94 12.5523 126.02 12.4208 126.097 12.291C127.304 10.0031 129.267 8.24796 131.532 6.8443C131.655 6.76723 131.78 6.68989 131.909 6.61231C131.77 6.66947 131.634 6.72656 131.5 6.78358C129.07 7.80191 126.662 9.35266 125.023 11.5503C124.931 11.6617 124.84 11.768 124.752 11.8646Z" fill="#7B808B"/>
<path d="M121.689 16.1651L125.056 17.0383L124.813 17.8261L121.448 16.9469L121.689 16.1651Z" fill="#49586F"/>
<path d="M147.497 23.7708L147.741 22.7943C148.323 22.9471 149.015 23.1115 149.517 23.1679C149.963 23.218 150.231 22.8663 150.3 22.4248C152.044 11.4198 142.404 5.77275 138.288 5.03064C144.055 5.83463 146.809 8.66615 148.834 11.3062C152.154 15.6344 151.872 21.1864 150.901 24.6716L147.497 23.7708Z" fill="#49586F"/>
<defs>
<filter id="filter0_d_204_1930" x="0.0708008" y="44.4219" width="154" height="114" filterUnits="userSpaceOnUse" color-interpolation-filters="sRGB">
<feFlood flood-opacity="0" result="BackgroundImageFix"/>
<feColorMatrix in="SourceAlpha" type="matrix" values="0 0 0 0 0 0 0 0 0 0 0 0 0 0 0 0 0 0 127 0" result="hardAlpha"/>
<feOffset dy="-2"/>
<feGaussianBlur stdDeviation="6"/>
<feComposite in2="hardAlpha" operator="out"/>
<feColorMatrix type="matrix" values="0 0 0 0 0.0923839 0 0 0 0 0.169424 0 0 0 0 0.250995 0 0 0 0.25 0"/>
<feBlend mode="normal" in2="BackgroundImageFix" result="effect1_dropShadow_204_1930"/>
<feBlend mode="normal" in="SourceGraphic" in2="effect1_dropShadow_204_1930" result="shape"/>
</filter>
<linearGradient id="paint0_linear_204_1930" x1="77.0708" y1="58.4219" x2="77.0708" y2="148.422" gradientUnits="userSpaceOnUse">
<stop stop-color="#4AD1D1"/>
<stop offset="1" stop-color="#008B8B"/>
</linearGradient>
</defs>
</svg>
