<svg width="161" height="191" viewBox="0 0 161 191" fill="none" xmlns="http://www.w3.org/2000/svg">
<rect x="11.8555" y="28.4199" width="130" height="120" rx="8" fill="#008B8B"/>
<rect x="11.8555" y="28.4199" width="130" height="120" rx="8" fill="black" fill-opacity="0.6"/>
<g filter="url(#filter0_d_304_2502)">
<path d="M64.49 58.4238H20.2866C15.8683 58.4238 12.2866 62.0055 12.2866 66.4238L12.2866 103.424V140.424C12.2866 144.842 15.8683 148.424 20.2866 148.424H134.287C138.705 148.424 142.287 144.842 142.287 140.424V82.4876C142.287 78.0693 138.705 74.4876 134.287 74.4876H89.4928C87.6152 74.4876 85.7975 73.8272 84.3577 72.622L69.625 60.2894C68.1853 59.0842 66.3675 58.4238 64.49 58.4238Z" fill="url(#paint0_linear_304_2502)"/>
<path d="M64.49 58.4238H20.2866C15.8683 58.4238 12.2866 62.0055 12.2866 66.4238L12.2866 103.424V140.424C12.2866 144.842 15.8683 148.424 20.2866 148.424H134.287C138.705 148.424 142.287 144.842 142.287 140.424V82.4876C142.287 78.0693 138.705 74.4876 134.287 74.4876H89.4928C87.6152 74.4876 85.7975 73.8272 84.3577 72.622L69.625 60.2894C68.1853 59.0842 66.3675 58.4238 64.49 58.4238Z" fill="black" fill-opacity="0.6"/>
</g>
<path d="M45.7995 170.427L45.7991 160.245L47.9518 160.245L47.952 164.734L48.0862 164.734L51.7501 160.245L54.3304 160.245L50.5521 164.804L54.3755 170.427L51.8002 170.427L49.011 166.241L47.9521 167.533L47.9522 170.427L45.7995 170.427ZM58.3316 170.576C57.5461 170.576 56.87 170.417 56.3032 170.099C55.7397 169.777 55.3055 169.323 55.0006 168.736C54.6956 168.146 54.5432 167.449 54.5431 166.643C54.5431 165.858 54.6955 165.168 55.0005 164.575C55.3054 163.982 55.7346 163.519 56.288 163.188C56.8449 162.857 57.4978 162.691 58.2468 162.691C58.7506 162.691 59.2196 162.772 59.6538 162.934C60.0913 163.093 60.4725 163.334 60.7973 163.655C61.1254 163.977 61.3807 164.381 61.563 164.868C61.7453 165.352 61.8364 165.919 61.8365 166.569L61.8365 167.15L55.3883 167.15L55.3883 165.838L59.8428 165.838C59.8428 165.533 59.7765 165.263 59.6439 165.027C59.5113 164.792 59.3274 164.608 59.0921 164.476C58.8601 164.34 58.5899 164.272 58.2817 164.272C57.9602 164.272 57.6752 164.346 57.4266 164.496C57.1813 164.641 56.9891 164.839 56.8499 165.087C56.7107 165.332 56.6395 165.606 56.6361 165.907L56.6362 167.155C56.6362 167.533 56.7058 167.86 56.845 168.135C56.9876 168.41 57.1881 168.622 57.4466 168.771C57.7051 168.92 58.0117 168.995 58.3664 168.995C58.6017 168.995 58.8171 168.962 59.0127 168.895C59.2082 168.829 59.3756 168.73 59.5148 168.597C59.654 168.464 59.76 168.302 59.833 168.11L61.7918 168.239C61.6924 168.71 61.4885 169.121 61.1803 169.472C60.8754 169.82 60.481 170.092 59.9971 170.287C59.5165 170.48 58.9614 170.576 58.3316 170.576ZM69.5722 164.967L67.6333 165.087C67.6001 164.921 67.5289 164.772 67.4195 164.639C67.3101 164.503 67.1659 164.396 66.9869 164.316C66.8113 164.233 66.6008 164.192 66.3556 164.192C66.0274 164.192 65.7507 164.262 65.5253 164.401C65.2999 164.537 65.1872 164.719 65.1873 164.948C65.1873 165.13 65.2602 165.284 65.406 165.41C65.5519 165.536 65.8021 165.637 66.1567 165.713L67.5389 165.992C68.2813 166.144 68.8348 166.389 69.1994 166.727C69.564 167.065 69.7463 167.51 69.7463 168.06C69.7463 168.56 69.5988 168.999 69.3039 169.377C69.0122 169.755 68.6112 170.05 68.1008 170.262C67.5937 170.471 67.0087 170.575 66.3458 170.575C65.3349 170.576 64.5295 170.365 63.9296 169.944C63.333 169.52 62.9833 168.943 62.8805 168.214L64.9636 168.105C65.0266 168.413 65.1791 168.648 65.421 168.811C65.663 168.97 65.9729 169.049 66.3507 169.049C66.722 169.049 67.0202 168.978 67.2456 168.835C67.4743 168.69 67.5903 168.502 67.5936 168.274C67.5903 168.081 67.5091 167.924 67.35 167.801C67.1909 167.675 66.9456 167.579 66.6142 167.513L65.2917 167.25C64.546 167.1 63.9908 166.842 63.6262 166.474C63.2649 166.106 63.0843 165.637 63.0843 165.067C63.0843 164.577 63.2168 164.154 63.482 163.799C63.7504 163.445 64.1266 163.171 64.6105 162.979C65.0977 162.787 65.6678 162.691 66.3207 162.691C67.2852 162.691 68.0442 162.894 68.5977 163.302C69.1545 163.71 69.4794 164.265 69.5722 164.967ZM75.1415 162.79L75.1416 164.381L70.5429 164.381L70.5428 162.79L75.1415 162.79ZM71.5868 160.96L73.7047 160.96L73.7049 168.079C73.7049 168.275 73.7348 168.428 73.7944 168.537C73.8541 168.643 73.937 168.718 74.043 168.761C74.1524 168.804 74.2784 168.825 74.4209 168.825C74.5203 168.825 74.6197 168.817 74.7192 168.8C74.8186 168.78 74.8948 168.766 74.9479 168.756L75.281 170.332C75.1749 170.365 75.0258 170.403 74.8336 170.446C74.6413 170.492 74.4077 170.521 74.1326 170.53C73.6222 170.55 73.1747 170.482 72.7902 170.327C72.4091 170.171 72.1124 169.929 71.9003 169.601C71.6882 169.273 71.5837 168.858 71.587 168.358L71.5868 160.96ZM78.803 160.244L78.8034 170.426L76.6855 170.426L76.6851 160.244L78.803 160.244ZM80.4999 170.426L80.4997 162.789L82.6176 162.789L82.6178 170.426L80.4999 170.426ZM81.5636 161.805C81.2487 161.805 80.9786 161.701 80.7532 161.492C80.5311 161.28 80.4201 161.026 80.4201 160.731C80.4201 160.44 80.5311 160.189 80.7531 159.981C80.9785 159.768 81.2486 159.662 81.5635 159.662C81.8784 159.662 82.1468 159.768 82.3689 159.98C82.5943 160.189 82.707 160.44 82.707 160.731C82.707 161.026 82.5943 161.28 82.369 161.492C82.1469 161.701 81.8784 161.805 81.5636 161.805ZM86.2333 168.228L86.2382 165.688L86.5465 165.688L88.9924 162.789L91.4235 162.789L88.1374 166.627L87.6353 166.627L86.2333 168.228ZM84.3144 170.426L84.314 160.244L86.4319 160.244L86.4323 170.426L84.3144 170.426ZM89.0871 170.426L86.8398 167.1L88.2517 165.603L91.5679 170.425L89.0871 170.426ZM97.3597 167.174L97.3596 162.789L99.4775 162.789L99.4777 170.425L97.4444 170.425L97.4443 169.038L97.3648 169.038C97.1924 169.486 96.9058 169.845 96.5047 170.117C96.107 170.389 95.6214 170.525 95.0481 170.525C94.5376 170.525 94.0885 170.409 93.7007 170.177C93.313 169.945 93.0097 169.615 92.7909 169.188C92.5755 168.76 92.4661 168.248 92.4627 167.651L92.4626 162.789L94.5805 162.789L94.5806 167.273C94.5839 167.724 94.7049 168.08 94.9436 168.342C95.1822 168.604 95.5021 168.735 95.9031 168.735C96.1583 168.735 96.397 168.677 96.619 168.561C96.8411 168.442 97.02 168.266 97.1559 168.034C97.2951 167.802 97.3631 167.515 97.3597 167.174ZM103.986 170.549C103.406 170.549 102.88 170.4 102.41 170.102C101.942 169.8 101.571 169.358 101.296 168.775C101.024 168.188 100.888 167.469 100.888 166.617C100.888 165.742 101.029 165.014 101.311 164.434C101.593 163.851 101.967 163.415 102.434 163.127C102.905 162.835 103.42 162.689 103.981 162.689C104.408 162.689 104.764 162.762 105.049 162.908C105.338 163.051 105.57 163.229 105.745 163.445C105.924 163.657 106.06 163.866 106.153 164.071L106.218 164.071L106.218 160.243L108.331 160.243L108.331 170.425L106.243 170.425L106.243 169.202L106.153 169.202C106.054 169.414 105.913 169.625 105.731 169.833C105.552 170.039 105.318 170.21 105.03 170.345C104.745 170.481 104.397 170.549 103.986 170.549ZM104.657 168.864C104.998 168.864 105.287 168.771 105.522 168.586C105.761 168.397 105.943 168.133 106.069 167.795C106.198 167.457 106.263 167.061 106.263 166.607C106.263 166.153 106.2 165.758 106.074 165.424C105.948 165.089 105.765 164.83 105.527 164.648C105.288 164.466 104.998 164.375 104.657 164.375C104.309 164.375 104.015 164.469 103.777 164.658C103.538 164.847 103.357 165.109 103.235 165.444C103.112 165.778 103.051 166.166 103.051 166.607C103.051 167.051 103.112 167.444 103.235 167.785C103.361 168.123 103.542 168.388 103.777 168.581C104.016 168.77 104.309 168.864 104.657 168.864ZM36.7583 179.791L36.7584 181.382L32.1597 181.382L32.1596 179.791L36.7583 179.791ZM33.2036 177.962L35.3215 177.961L35.3217 185.081C35.3217 185.276 35.3516 185.429 35.4112 185.538C35.4709 185.644 35.5537 185.719 35.6598 185.762C35.7692 185.805 35.8951 185.827 36.0376 185.826C36.1371 185.826 36.2365 185.818 36.3359 185.802C36.4354 185.782 36.5116 185.767 36.5646 185.757L36.8978 187.333C36.7917 187.366 36.6426 187.404 36.4503 187.447C36.2581 187.494 36.0244 187.522 35.7494 187.532C35.2389 187.552 34.7915 187.484 34.407 187.328C34.0259 187.172 33.7292 186.93 33.5171 186.602C33.3049 186.274 33.2005 185.86 33.2038 185.359L33.2036 177.962ZM41.5363 187.576C40.7508 187.576 40.0746 187.417 39.5079 187.099C38.9444 186.778 38.5102 186.324 38.2053 185.737C37.9003 185.147 37.7478 184.449 37.7478 183.644C37.7478 182.858 37.9002 182.169 38.2051 181.576C38.51 180.982 38.9392 180.52 39.4927 180.189C40.0495 179.857 40.7025 179.691 41.4515 179.691C41.9553 179.691 42.4243 179.773 42.8585 179.935C43.296 180.094 43.6771 180.334 44.002 180.656C44.3301 180.977 44.5853 181.382 44.7676 181.869C44.9499 182.353 45.0411 182.919 45.0411 183.569L45.0411 184.151L38.593 184.151L38.5929 182.838L43.0475 182.838C43.0475 182.533 42.9812 182.263 42.8486 182.028C42.716 181.793 42.5321 181.609 42.2967 181.476C42.0647 181.34 41.7946 181.272 41.4864 181.272C41.1649 181.272 40.8798 181.347 40.6313 181.496C40.386 181.642 40.1938 181.839 40.0546 182.088C39.9154 182.333 39.8441 182.606 39.8408 182.908L39.8409 184.156C39.8409 184.534 39.9105 184.86 40.0497 185.135C40.1922 185.41 40.3928 185.623 40.6513 185.772C40.9098 185.921 41.2164 185.995 41.571 185.995C41.8064 185.995 42.0218 185.962 42.2173 185.896C42.4129 185.83 42.5803 185.73 42.7195 185.598C42.8587 185.465 42.9647 185.303 43.0376 185.11L44.9964 185.24C44.897 185.71 44.6932 186.121 44.385 186.473C44.0801 186.821 43.6857 187.092 43.2018 187.288C42.7212 187.48 42.166 187.576 41.5363 187.576ZM48.5411 183.012L48.5413 187.427L46.4234 187.427L46.423 177.245L48.4813 177.245L48.4814 181.138L48.5709 181.138C48.7432 180.687 49.0216 180.334 49.4061 180.079C49.7905 179.82 50.2728 179.691 50.8528 179.691C51.3831 179.691 51.8454 179.807 52.2399 180.039C52.6376 180.268 52.9459 180.597 53.1646 181.028C53.3867 181.456 53.4961 181.968 53.4928 182.565L53.493 187.427L51.3751 187.427L51.3749 182.942C51.3782 182.472 51.2589 182.106 51.0169 181.844C50.7783 181.582 50.4435 181.451 50.0126 181.451C49.7243 181.451 49.4691 181.512 49.247 181.635C49.0283 181.758 48.8559 181.937 48.73 182.172C48.6074 182.404 48.5444 182.684 48.5411 183.012ZM57.2774 183.012L57.2776 187.427L55.1597 187.427L55.1594 179.79L57.1779 179.79L57.1779 181.138L57.2674 181.138C57.4364 180.693 57.7198 180.342 58.1175 180.084C58.5153 179.822 58.9975 179.691 59.5643 179.691C60.0946 179.691 60.5569 179.807 60.9513 180.039C61.3458 180.271 61.6524 180.602 61.8711 181.033C62.0899 181.461 62.1993 181.971 62.1993 182.564L62.1995 187.426L60.0816 187.427L60.0814 182.942C60.0847 182.475 59.9654 182.11 59.7234 181.848C59.4815 181.583 59.1484 181.451 58.7241 181.451C58.4391 181.451 58.1872 181.512 57.9684 181.635C57.753 181.757 57.584 181.936 57.4614 182.172C57.342 182.404 57.2807 182.684 57.2774 183.012ZM67.319 187.575C66.5467 187.575 65.8788 187.411 65.3154 187.083C64.7552 186.752 64.3227 186.291 64.0178 185.701C63.7128 185.108 63.5603 184.42 63.5603 183.638C63.5603 182.849 63.7127 182.16 64.0176 181.57C64.3225 180.977 64.755 180.516 65.3152 180.188C65.8786 179.856 66.5464 179.691 67.3187 179.691C68.0909 179.69 68.7571 179.856 69.3173 180.188C69.8807 180.516 70.3149 180.976 70.6199 181.57C70.9248 182.16 71.0773 182.849 71.0773 183.638C71.0774 184.42 70.9249 185.108 70.62 185.701C70.3151 186.291 69.881 186.752 69.3175 187.083C68.7574 187.411 68.0912 187.575 67.319 187.575ZM67.3288 185.935C67.6802 185.935 67.9735 185.835 68.2088 185.637C68.4441 185.434 68.6214 185.159 68.7407 184.811C68.8634 184.463 68.9247 184.067 68.9246 183.623C68.9246 183.179 68.8633 182.783 68.7407 182.435C68.6213 182.087 68.444 181.812 68.2087 181.61C67.9733 181.407 67.68 181.306 67.3287 181.306C66.9741 181.306 66.6758 181.407 66.4338 181.61C66.1952 181.812 66.0146 182.087 65.8919 182.435C65.7726 182.783 65.713 183.179 65.713 183.623C65.713 184.067 65.7727 184.463 65.892 184.811C66.0147 185.159 66.1953 185.434 66.4339 185.637C66.6759 185.835 66.9742 185.935 67.3288 185.935ZM74.5722 177.244L74.5725 187.426L72.4546 187.426L72.4543 177.244L74.5722 177.244ZM79.7193 187.575C78.9471 187.575 78.2792 187.411 77.7158 187.083C77.1556 186.751 76.7231 186.291 76.4181 185.701C76.1132 185.108 75.9607 184.42 75.9607 183.638C75.9607 182.849 76.1131 182.159 76.418 181.569C76.7229 180.976 77.1554 180.515 77.7155 180.187C78.279 179.856 78.9468 179.69 79.7191 179.69C80.4913 179.69 81.1575 179.856 81.7177 180.187C82.2811 180.515 82.7153 180.976 83.0203 181.569C83.3252 182.159 83.4777 182.849 83.4777 183.637C83.4778 184.42 83.3253 185.107 83.0204 185.701C82.7155 186.291 82.2813 186.751 81.7179 187.083C81.1578 187.411 80.4916 187.575 79.7193 187.575ZM79.7292 185.934C80.0806 185.934 80.3739 185.835 80.6092 185.636C80.8445 185.434 81.0218 185.159 81.1411 184.811C81.2638 184.463 81.3251 184.067 81.325 183.623C81.325 183.178 81.2637 182.782 81.1411 182.434C81.0217 182.086 80.8444 181.811 80.6091 181.609C80.3737 181.407 80.0804 181.306 79.7291 181.306C79.3744 181.306 79.0761 181.407 78.8342 181.609C78.5956 181.811 78.415 182.086 78.2923 182.434C78.173 182.782 78.1134 183.179 78.1134 183.623C78.1134 184.067 78.1731 184.463 78.2924 184.811C78.4151 185.159 78.5957 185.434 78.8343 185.636C79.0763 185.835 79.3746 185.934 79.7292 185.934ZM88.3053 187.575C87.533 187.575 86.8652 187.411 86.3017 187.083C85.7416 186.751 85.309 186.291 85.0041 185.701C84.6991 185.107 84.5467 184.42 84.5466 183.637C84.5466 182.849 84.699 182.159 85.0039 181.569C85.3089 180.976 85.7414 180.515 86.3015 180.187C86.8649 179.856 87.5328 179.69 88.305 179.69C89.0773 179.69 89.7435 179.855 90.3036 180.187C90.8671 180.515 91.3013 180.976 91.6062 181.569C91.9112 182.159 92.0637 182.848 92.0637 183.637C92.0637 184.419 91.9113 185.107 91.6064 185.7C91.3015 186.29 90.8673 186.751 90.3038 187.082C89.7437 187.411 89.0775 187.575 88.3053 187.575ZM88.3152 185.934C88.6665 185.934 88.9598 185.835 89.1951 185.636C89.4305 185.434 89.6078 185.159 89.7271 184.81C89.8497 184.462 89.911 184.066 89.911 183.622C89.911 183.178 89.8496 182.782 89.727 182.434C89.6077 182.086 89.4303 181.811 89.195 181.609C88.9597 181.407 88.6663 181.306 88.315 181.306C87.9604 181.306 87.6621 181.407 87.4201 181.609C87.1815 181.811 87.0009 182.086 86.8783 182.434C86.759 182.782 86.6993 183.178 86.6993 183.622C86.6993 184.067 86.759 184.463 86.8783 184.811C87.001 185.159 87.1816 185.434 87.4203 185.636C87.6622 185.835 87.9605 185.934 88.3152 185.934ZM96.8814 190.448C96.1953 190.448 95.607 190.354 95.1165 190.165C94.6292 189.979 94.2414 189.726 93.9531 189.404C93.6647 189.083 93.4774 188.721 93.3912 188.32L95.35 188.057C95.4097 188.209 95.5042 188.352 95.6334 188.484C95.7627 188.617 95.9334 188.723 96.1455 188.802C96.361 188.885 96.6228 188.927 96.931 188.927C97.3917 188.927 97.7712 188.814 98.0695 188.589C98.3711 188.367 98.5219 187.994 98.5219 187.47L98.5219 186.073L98.4324 186.073C98.3396 186.285 98.2004 186.486 98.0148 186.675C97.8292 186.863 97.5905 187.018 97.2989 187.137C97.0072 187.256 96.6592 187.316 96.2549 187.316C95.6815 187.316 95.1594 187.183 94.6888 186.918C94.2214 186.65 93.8486 186.241 93.5701 185.69C93.295 185.137 93.1575 184.438 93.1574 183.592C93.1574 182.727 93.2982 182.005 93.5799 181.425C93.8616 180.845 94.2362 180.41 94.7035 180.122C95.1741 179.834 95.6895 179.69 96.2496 179.69C96.6772 179.69 97.0351 179.762 97.3235 179.908C97.6119 180.051 97.8439 180.23 98.0195 180.445C98.1985 180.657 98.3361 180.866 98.4322 181.072L98.5117 181.072L98.5117 179.789L100.615 179.789L100.615 187.5C100.615 188.149 100.456 188.693 100.138 189.13C99.8196 189.568 99.3788 189.896 98.8153 190.115C98.2552 190.337 97.6105 190.448 96.8814 190.448ZM96.926 185.725C97.2673 185.725 97.5557 185.64 97.791 185.471C98.0296 185.299 98.2119 185.054 98.3379 184.736C98.4671 184.414 98.5317 184.03 98.5317 183.582C98.5317 183.135 98.4687 182.747 98.3428 182.419C98.2168 182.087 98.0345 181.831 97.7959 181.648C97.5572 181.466 97.2672 181.375 96.9258 181.375C96.5778 181.375 96.2845 181.469 96.0459 181.658C95.8072 181.844 95.6266 182.102 95.504 182.434C95.3814 182.765 95.3201 183.148 95.3201 183.582C95.3201 184.023 95.3814 184.404 95.5041 184.726C95.63 185.044 95.8107 185.291 96.046 185.467C96.2846 185.639 96.578 185.725 96.926 185.725ZM102.3 187.425L102.3 179.789L104.418 179.789L104.418 187.425L102.3 187.425ZM103.364 178.804C103.049 178.804 102.779 178.7 102.554 178.491C102.331 178.279 102.22 178.026 102.22 177.731C102.22 177.439 102.331 177.189 102.554 176.98C102.779 176.768 103.049 176.662 103.364 176.662C103.679 176.662 103.947 176.768 104.169 176.98C104.395 177.189 104.507 177.439 104.507 177.73C104.507 178.025 104.395 178.279 104.169 178.491C103.947 178.7 103.679 178.804 103.364 178.804ZM108.292 187.569C107.805 187.569 107.371 187.485 106.99 187.316C106.609 187.143 106.307 186.89 106.085 186.555C105.866 186.217 105.757 185.796 105.757 185.292C105.757 184.868 105.835 184.512 105.99 184.223C106.146 183.935 106.358 183.703 106.627 183.527C106.895 183.352 107.2 183.219 107.541 183.13C107.886 183.04 108.247 182.977 108.625 182.941C109.069 182.894 109.427 182.851 109.699 182.811C109.971 182.768 110.168 182.705 110.291 182.622C110.413 182.539 110.475 182.417 110.475 182.254L110.475 182.225C110.475 181.91 110.375 181.666 110.176 181.494C109.981 181.321 109.702 181.235 109.341 181.235C108.96 181.235 108.657 181.32 108.431 181.489C108.206 181.655 108.057 181.863 107.984 182.115L106.025 181.956C106.125 181.492 106.32 181.091 106.612 180.753C106.903 180.412 107.28 180.15 107.74 179.968C108.204 179.782 108.741 179.689 109.351 179.689C109.775 179.689 110.181 179.739 110.569 179.838C110.96 179.938 111.307 180.092 111.608 180.301C111.913 180.509 112.153 180.778 112.329 181.106C112.505 181.431 112.593 181.82 112.593 182.274L112.593 187.425L110.584 187.425L110.584 186.366L110.525 186.366C110.402 186.605 110.238 186.815 110.032 186.997C109.827 187.176 109.58 187.317 109.292 187.42C109.003 187.519 108.67 187.569 108.292 187.569ZM108.899 186.107C109.21 186.107 109.485 186.046 109.724 185.923C109.963 185.798 110.15 185.628 110.286 185.416C110.422 185.204 110.49 184.964 110.49 184.695L110.49 183.885C110.423 183.928 110.332 183.968 110.216 184.004C110.104 184.038 109.976 184.069 109.833 184.099C109.691 184.125 109.548 184.15 109.406 184.173C109.263 184.193 109.134 184.212 109.018 184.228C108.769 184.265 108.552 184.323 108.367 184.402C108.181 184.482 108.037 184.589 107.934 184.725C107.832 184.858 107.78 185.024 107.78 185.223C107.78 185.511 107.885 185.731 108.093 185.884C108.306 186.033 108.574 186.107 108.899 186.107ZM117.05 187.549C116.47 187.549 115.944 187.4 115.474 187.102C115.006 186.8 114.635 186.357 114.36 185.774C114.088 185.188 113.952 184.468 113.952 183.617C113.952 182.742 114.093 182.014 114.375 181.434C114.657 180.851 115.031 180.415 115.498 180.126C115.969 179.835 116.484 179.689 117.045 179.689C117.472 179.689 117.828 179.762 118.113 179.908C118.402 180.05 118.634 180.229 118.809 180.444C118.988 180.657 119.124 180.865 119.217 181.071L119.282 181.071L119.282 177.243L121.395 177.243L121.395 187.424L119.307 187.425L119.307 186.202L119.217 186.202C119.118 186.414 118.977 186.624 118.795 186.833C118.616 187.038 118.382 187.209 118.094 187.345C117.809 187.481 117.461 187.549 117.05 187.549ZM117.721 185.864C118.062 185.864 118.351 185.771 118.586 185.585C118.825 185.396 119.007 185.133 119.133 184.795C119.262 184.457 119.327 184.06 119.327 183.606C119.327 183.152 119.264 182.758 119.138 182.423C119.012 182.088 118.829 181.83 118.591 181.648C118.352 181.465 118.062 181.374 117.721 181.374C117.373 181.374 117.079 181.469 116.841 181.658C116.602 181.847 116.422 182.108 116.299 182.443C116.176 182.778 116.115 183.166 116.115 183.606C116.115 184.051 116.176 184.443 116.299 184.785C116.425 185.123 116.606 185.388 116.841 185.58C117.08 185.769 117.373 185.864 117.721 185.864Z" fill="#A4A4A4"/>
<rect width="42.63" height="35.8641" rx="5.52002" transform="matrix(0.967827 0.251702 -0.266192 0.963945 115.865 14.5332)" fill="#8C6C34"/>
<path d="M148.954 54.689C150.461 49.4326 153.822 37.3387 155.493 30.7817C156.551 26.6294 153.952 25.1376 153.362 24.6345L151.561 31.1577L145.167 54.3137C144.839 55.0588 143.946 56.0933 141.049 55.3619L107.778 46.709C108.339 48.6687 110.015 49.8898 111.081 50.3427L142.035 58.3931C144.991 59.1617 147.231 57.723 148.464 55.8262C148.692 55.4764 148.84 55.0885 148.954 54.689Z" fill="#875603"/>
<path d="M134.731 29.3202C137.335 30.003 138.869 32.6607 138.159 35.2566C137.684 36.991 136.326 38.2569 134.701 38.7038L133.295 46.4285L127.234 44.839L129.962 37.4621C128.783 36.2799 128.256 34.5185 128.731 32.7839C129.442 30.1882 132.128 28.6375 134.731 29.3202Z" fill="#8C7D60"/>
<path d="M133.711 29.049C136.315 29.7318 137.849 32.3901 137.138 34.9863C136.663 36.7205 135.306 37.9856 133.682 38.4328L132.276 46.1575L126.214 44.5678L128.943 37.192C127.764 36.0098 127.234 34.2484 127.709 32.5134C128.42 29.9173 131.107 28.3663 133.711 29.049Z" fill="#83541E"/>
<path d="M114.367 34.4723C114.151 35.255 113.553 35.6588 113.281 35.7629C112.565 35.7166 112.633 34.3708 112.756 33.7037L116.553 19.9535C117.139 17.8336 118.033 17.5858 118.894 17.4187C120.05 17.1943 123.871 18.5361 126.082 19.111C125.13 19.0382 122.21 19.1392 120.606 19.1414C119.001 19.1435 118.389 19.9076 118.179 20.6686L114.367 34.4723Z" fill="#8C7D60"/>
<path d="M134.051 29.1388C136.654 29.8217 138.188 32.4792 137.477 35.075C137.002 36.8096 135.645 38.0754 134.02 38.5221L132.613 46.2506L126.552 44.6611L129.282 37.2807C128.103 36.0985 127.574 34.3369 128.049 32.6023C128.76 30.0065 131.448 28.456 134.051 29.1388Z" fill="#281C0B"/>
<path d="M149.184 24.2115C150.203 20.5551 149.807 16.6885 148.084 13.4625C146.361 10.2364 143.453 7.91514 139.998 7.00928C136.544 6.10343 132.826 6.6872 129.664 8.63217C126.501 10.5771 124.152 13.724 123.134 17.3805" stroke="#676D7C" stroke-width="3.41402"/>
<path d="M124.752 11.8646C124.628 12.0019 124.569 12.1777 124.593 12.3583C124.616 12.5386 124.722 12.7089 124.879 12.8267C125.036 12.9446 125.231 12.9989 125.413 12.9727C125.595 12.9468 125.75 12.8425 125.85 12.6877C125.94 12.5523 126.02 12.4208 126.097 12.291C127.304 10.0031 129.267 8.24796 131.532 6.8443C131.655 6.76723 131.78 6.68989 131.909 6.61231C131.77 6.66947 131.634 6.72656 131.5 6.78358C129.07 7.80191 126.662 9.35266 125.023 11.5503C124.931 11.6617 124.84 11.768 124.752 11.8646Z" fill="#7B808B"/>
<path d="M121.689 16.1651L125.056 17.0383L124.813 17.8261L121.448 16.9469L121.689 16.1651Z" fill="#49586F"/>
<path d="M147.497 23.7708L147.741 22.7943C148.323 22.9471 149.015 23.1115 149.517 23.1679C149.963 23.218 150.231 22.8663 150.3 22.4248C152.044 11.4198 142.404 5.77275 138.288 5.03064C144.055 5.83463 146.809 8.66615 148.834 11.3062C152.154 15.6344 151.872 21.1864 150.901 24.6716L147.497 23.7708Z" fill="#49586F"/>
<defs>
<filter id="filter0_d_304_2502" x="0.286621" y="44.4238" width="154" height="114" filterUnits="userSpaceOnUse" color-interpolation-filters="sRGB">
<feFlood flood-opacity="0" result="BackgroundImageFix"/>
<feColorMatrix in="SourceAlpha" type="matrix" values="0 0 0 0 0 0 0 0 0 0 0 0 0 0 0 0 0 0 127 0" result="hardAlpha"/>
<feOffset dy="-2"/>
<feGaussianBlur stdDeviation="6"/>
<feComposite in2="hardAlpha" operator="out"/>
<feColorMatrix type="matrix" values="0 0 0 0 0.0923839 0 0 0 0 0.169424 0 0 0 0 0.250995 0 0 0 0.25 0"/>
<feBlend mode="normal" in2="BackgroundImageFix" result="effect1_dropShadow_304_2502"/>
<feBlend mode="normal" in="SourceGraphic" in2="effect1_dropShadow_304_2502" result="shape"/>
</filter>
<linearGradient id="paint0_linear_304_2502" x1="77.2866" y1="58.4238" x2="77.2866" y2="148.424" gradientUnits="userSpaceOnUse">
<stop stop-color="#4AD1D1"/>
<stop offset="1" stop-color="#008B8B"/>
</linearGradient>
</defs>
</svg>
