<svg width="155" height="163" viewBox="0 0 155 163" fill="none" xmlns="http://www.w3.org/2000/svg">
<rect x="12.1377" y="-0.00390625" width="130" height="120" rx="8" fill="#008B8B"/>
<rect x="98.3266" y="28.4073" width="38.4621" height="38.4621" rx="19.2311" transform="rotate(21.2237 98.3266 28.4073)" fill="#CCDEF2"/>
<rect x="98.3266" y="28.4073" width="38.4621" height="38.4621" rx="19.2311" transform="rotate(21.2237 98.3266 28.4073)" stroke="white" stroke-width="1.53789"/>
<path d="M109.593 52.5194C111.535 53.2736 113.304 53.6104 114.9 53.5298C116.495 53.4493 117.459 52.9817 117.791 52.1272C118.123 51.2728 117.727 50.2773 116.604 49.1409C115.481 48.0044 113.948 47.0591 112.006 46.3049C110.064 45.5507 108.296 45.2139 106.7 45.2945C105.104 45.3751 104.14 45.8426 103.808 46.6971C103.477 47.5516 103.872 48.547 104.995 49.6835C106.118 50.8199 107.651 51.7652 109.593 52.5194ZM108.839 54.4614C109.37 54.6676 110.055 54.8702 110.894 55.0692C111.733 55.2682 112.569 55.3881 113.402 55.4291C114.235 55.47 114.994 55.396 115.679 55.2073C116.363 55.0185 116.816 54.6391 117.037 54.0693L116.283 56.0113C116.061 56.581 115.609 56.9603 114.924 57.1493C114.24 57.3383 113.481 57.4122 112.648 57.3711C111.815 57.33 110.979 57.2103 110.14 57.012C109.301 56.8137 108.616 56.6108 108.085 56.4035C107.554 56.1961 106.912 55.8833 106.159 55.4651C105.406 55.0469 104.708 54.5711 104.064 54.0376C103.421 53.5041 102.911 52.9374 102.534 52.3376C102.158 51.7377 102.079 51.1522 102.3 50.5811L103.054 48.6391C102.833 49.2088 102.911 49.7942 103.288 50.3955C103.666 50.9968 104.176 51.5635 104.818 52.0956C105.461 52.6276 106.159 53.1037 106.913 53.5239C107.666 53.944 108.308 54.2565 108.839 54.4614ZM107.33 58.3455C107.861 58.5516 108.546 58.7542 109.386 58.9532C110.225 59.1522 111.061 59.2722 111.894 59.3131C112.727 59.354 113.485 59.2801 114.17 59.0913C114.855 58.9025 115.308 58.5232 115.528 57.9533L114.774 59.8954C114.553 60.465 114.1 60.8443 113.416 61.0333C112.732 61.2223 111.973 61.2963 111.14 61.2551C110.306 61.214 109.47 61.0943 108.631 60.896C107.792 60.6977 107.107 60.4949 106.576 60.2875C106.045 60.0801 105.403 59.7674 104.65 59.3492C103.897 58.931 103.199 58.4551 102.556 57.9216C101.913 57.3881 101.403 56.8215 101.026 56.2216C100.649 55.6218 100.571 55.0363 100.792 54.4652L101.546 52.5232C101.325 53.0928 101.403 53.6783 101.78 54.2796C102.157 54.8809 102.667 55.4475 103.31 55.9796C103.953 56.5117 104.651 56.9878 105.404 57.4079C106.158 57.8281 106.8 58.1406 107.33 58.3455Z" fill="url(#paint0_linear_204_1931)"/>
<rect x="51.8083" y="18.9101" width="49.9918" height="49.9918" rx="24.9959" transform="rotate(-5.85655 51.8083 18.9101)" fill="#CCDEF2"/>
<rect x="51.8083" y="18.9101" width="49.9918" height="49.9918" rx="24.9959" transform="rotate(-5.85655 51.8083 18.9101)" stroke="white" stroke-width="2.0082"/>
<path d="M83.3803 50.0345C84.4326 45.0739 85.9619 43.1662 90.3009 41.4083C85.6954 40.568 83.8106 39.0105 81.7732 34.3667C80.721 39.3274 79.1916 41.2351 74.8526 42.9929C79.4581 43.8333 81.3429 45.3908 83.3803 50.0345ZM71.8761 39.3401C72.4021 36.8585 73.1668 35.9053 75.3364 35.027C73.0337 34.6075 72.0914 33.8294 71.0725 31.5062C70.5465 33.9878 69.7818 34.941 67.6122 35.8193C69.9149 36.2388 70.8572 37.0169 71.8761 39.3401ZM75.1464 52.1985C75.4094 50.9577 75.7912 50.4818 76.8765 50.042C75.7245 49.8316 75.254 49.4431 74.7446 48.2816C74.4816 49.5224 74.0998 49.9983 73.0145 50.4381C74.1665 50.6485 74.637 51.0369 75.1464 52.1985Z" fill="url(#paint1_linear_204_1931)" stroke="url(#paint2_linear_204_1931)" stroke-width="2.0085" stroke-linejoin="round"/>
<rect x="24.7408" y="31.6669" width="30.764" height="30.764" rx="15.382" transform="rotate(-12.9528 24.7408 31.6669)" fill="#CCDEF2"/>
<rect x="24.7408" y="31.6669" width="30.764" height="30.764" rx="15.382" transform="rotate(-12.9528 24.7408 31.6669)" stroke="white" stroke-width="1.23597"/>
<path d="M39.52 48.1556C38.4867 48.3933 37.5236 48.2319 36.6307 47.6715C35.7375 47.1124 35.1709 46.3113 34.931 45.2682C34.7108 44.3109 34.8399 43.3868 35.3182 42.4958C35.7965 41.6047 36.5114 41.0208 37.4629 40.7439C37.3692 39.4843 37.693 38.3514 38.4344 37.3454C39.1757 36.3393 40.1597 35.6952 41.3863 35.4131C42.768 35.0953 44.0538 35.3123 45.2437 36.0642C46.4336 36.816 47.1888 37.8886 47.5093 39.2819L47.7014 40.1173L48.2117 39.9999C49.0106 39.8431 49.7436 39.9838 50.4107 40.422C51.0779 40.8602 51.5034 41.4791 51.6873 42.2788C51.8757 43.098 51.7549 43.8546 51.325 44.5487C50.8938 45.2424 50.2723 45.6826 49.4605 45.8693L39.52 48.1556Z" fill="url(#paint3_linear_204_1931)"/>
<g filter="url(#filter0_d_204_1931)">
<path d="M64.8727 49.9961H20.1377C15.7194 49.9961 12.1377 53.5778 12.1377 57.9961V84.9961L12.1377 111.996C12.1377 116.414 15.7194 119.996 20.1377 119.996H134.138C138.556 119.996 142.138 116.414 142.138 111.996V70.4901C142.138 66.0718 138.556 62.4901 134.138 62.4901H88.8123C87.2625 62.4901 85.7461 62.04 84.4473 61.1944L69.2376 51.2918C67.9389 50.4462 66.4224 49.9961 64.8727 49.9961Z" fill="url(#paint4_linear_204_1931)"/>
</g>
<path d="M45.8659 141.999L45.8655 131.817L48.0182 131.817L48.0184 136.307L48.1526 136.307L51.8165 131.817L54.3968 131.817L50.6185 136.376L54.4419 141.999L51.8666 141.999L49.0774 137.813L48.0185 139.106L48.0186 141.999L45.8659 141.999ZM58.398 142.148C57.6125 142.148 56.9364 141.989 56.3696 141.671C55.8061 141.349 55.3719 140.895 55.067 140.309C54.7621 139.719 54.6096 139.021 54.6095 138.216C54.6095 137.43 54.762 136.741 55.0669 136.147C55.3718 135.554 55.801 135.092 56.3545 134.76C56.9113 134.429 57.5642 134.263 58.3132 134.263C58.817 134.263 59.286 134.344 59.7202 134.507C60.1577 134.666 60.5389 134.906 60.8637 135.227C61.1918 135.549 61.4471 135.953 61.6294 136.441C61.8117 136.924 61.9028 137.491 61.9029 138.141L61.9029 138.722L55.4547 138.723L55.4547 137.41L59.9092 137.41C59.9092 137.105 59.8429 136.835 59.7103 136.6C59.5778 136.364 59.3938 136.18 59.1585 136.048C58.9265 135.912 58.6563 135.844 58.3481 135.844C58.0266 135.844 57.7416 135.919 57.493 136.068C57.2477 136.214 57.0555 136.411 56.9163 136.659C56.7771 136.905 56.7059 137.178 56.7026 137.48L56.7026 138.728C56.7026 139.105 56.7722 139.432 56.9114 139.707C57.054 139.982 57.2545 140.194 57.513 140.343C57.7715 140.492 58.0781 140.567 58.4328 140.567C58.6681 140.567 58.8835 140.534 59.0791 140.468C59.2746 140.401 59.442 140.302 59.5812 140.169C59.7204 140.037 59.8265 139.874 59.8994 139.682L61.8582 139.811C61.7588 140.282 61.5549 140.693 61.2467 141.044C60.9418 141.392 60.5474 141.664 60.0635 141.86C59.5829 142.052 59.0278 142.148 58.398 142.148ZM69.6386 136.54L67.6997 136.659C67.6665 136.493 67.5953 136.344 67.4859 136.212C67.3765 136.076 67.2323 135.968 67.0534 135.888C66.8777 135.806 66.6672 135.764 66.422 135.764C66.0938 135.764 65.8171 135.834 65.5917 135.973C65.3663 136.109 65.2537 136.291 65.2537 136.52C65.2537 136.702 65.3266 136.856 65.4724 136.982C65.6183 137.108 65.8685 137.209 66.2231 137.286L67.6053 137.564C68.3477 137.716 68.9012 137.962 69.2658 138.3C69.6304 138.638 69.8127 139.082 69.8127 139.632C69.8127 140.132 69.6653 140.572 69.3703 140.949C69.0786 141.327 68.6776 141.622 68.1672 141.834C67.6601 142.043 67.0751 142.148 66.4122 142.148C65.4013 142.148 64.5959 141.937 63.996 141.516C63.3994 141.092 63.0497 140.516 62.9469 139.786L65.03 139.677C65.093 139.985 65.2455 140.22 65.4875 140.383C65.7294 140.542 66.0393 140.621 66.4171 140.621C66.7884 140.621 67.0867 140.55 67.312 140.408C67.5407 140.262 67.6567 140.075 67.66 139.846C67.6567 139.654 67.5755 139.496 67.4164 139.374C67.2573 139.248 67.012 139.152 66.6806 139.085L65.3581 138.822C64.6124 138.673 64.0572 138.414 63.6926 138.046C63.3313 137.678 63.1507 137.209 63.1507 136.639C63.1507 136.149 63.2832 135.726 63.5484 135.372C63.8168 135.017 64.193 134.743 64.6769 134.551C65.1641 134.359 65.7342 134.263 66.3871 134.263C67.3516 134.263 68.1106 134.467 68.6641 134.874C69.2209 135.282 69.5458 135.837 69.6386 136.54ZM75.208 134.362L75.208 135.953L70.6093 135.953L70.6092 134.362L75.208 134.362ZM71.6532 132.533L73.7711 132.532L73.7713 139.652C73.7713 139.847 73.8012 140 73.8608 140.109C73.9205 140.215 74.0034 140.29 74.1094 140.333C74.2188 140.376 74.3448 140.397 74.4873 140.397C74.5867 140.397 74.6861 140.389 74.7856 140.373C74.885 140.353 74.9612 140.338 75.0143 140.328L75.3474 141.904C75.2414 141.937 75.0922 141.975 74.9 142.018C74.7077 142.065 74.4741 142.093 74.199 142.103C73.6886 142.123 73.2411 142.055 72.8566 141.899C72.4755 141.743 72.1788 141.501 71.9667 141.173C71.7546 140.845 71.6502 140.431 71.6535 139.93L71.6532 132.533ZM78.8694 131.816L78.8698 141.998L76.7519 141.998L76.7515 131.816L78.8694 131.816ZM80.5663 141.998L80.5661 134.362L82.684 134.362L82.6842 141.998L80.5663 141.998ZM81.63 133.377C81.3151 133.377 81.045 133.273 80.8196 133.064C80.5975 132.852 80.4865 132.599 80.4865 132.304C80.4865 132.012 80.5975 131.762 80.8195 131.553C81.0449 131.341 81.315 131.235 81.6299 131.235C81.9448 131.235 82.2132 131.341 82.4353 131.553C82.6607 131.762 82.7734 132.012 82.7734 132.303C82.7734 132.598 82.6607 132.852 82.4354 133.064C82.2133 133.273 81.9448 133.377 81.63 133.377ZM86.2998 139.8L86.3046 137.26L86.6129 137.26L89.0588 134.361L91.4899 134.361L88.2038 138.2L87.7017 138.2L86.2998 139.8ZM84.3808 141.998L84.3805 131.816L86.4984 131.816L86.4987 141.998L84.3808 141.998ZM89.1535 141.998L86.9063 138.672L88.3181 137.175L91.6343 141.998L89.1535 141.998ZM97.4261 138.746L97.426 134.361L99.5439 134.361L99.5441 141.997L97.5108 141.998L97.5107 140.61L97.4312 140.61C97.2588 141.058 96.9722 141.418 96.5711 141.689C96.1734 141.961 95.6879 142.097 95.1145 142.097C94.604 142.097 94.1549 141.981 93.7672 141.749C93.3794 141.517 93.0761 141.187 92.8573 140.76C92.6419 140.332 92.5325 139.82 92.5291 139.224L92.529 134.361L94.6469 134.361L94.647 138.846C94.6504 139.296 94.7713 139.653 95.01 139.915C95.2486 140.176 95.5685 140.307 95.9695 140.307C96.2247 140.307 96.4634 140.249 96.6854 140.133C96.9075 140.014 97.0865 139.838 97.2223 139.606C97.3615 139.374 97.4295 139.088 97.4261 138.746ZM104.052 142.122C103.472 142.122 102.947 141.973 102.476 141.674C102.009 141.373 101.638 140.93 101.362 140.347C101.091 139.76 100.955 139.041 100.955 138.189C100.955 137.314 101.096 136.587 101.377 136.007C101.659 135.423 102.033 134.987 102.501 134.699C102.971 134.407 103.487 134.262 104.047 134.262C104.474 134.262 104.831 134.334 105.116 134.48C105.404 134.623 105.636 134.802 105.812 135.017C105.991 135.229 106.127 135.438 106.22 135.644L106.284 135.644L106.284 131.815L108.397 131.815L108.397 141.997L106.309 141.997L106.309 140.774L106.22 140.774C106.12 140.986 105.979 141.197 105.797 141.406C105.618 141.611 105.385 141.782 105.096 141.918C104.811 142.054 104.463 142.122 104.052 142.122ZM104.723 140.436C105.065 140.436 105.353 140.343 105.588 140.158C105.827 139.969 106.009 139.705 106.135 139.367C106.264 139.029 106.329 138.633 106.329 138.179C106.329 137.725 106.266 137.331 106.14 136.996C106.014 136.661 105.832 136.403 105.593 136.22C105.354 136.038 105.064 135.947 104.723 135.947C104.375 135.947 104.082 136.041 103.843 136.23C103.605 136.419 103.424 136.681 103.301 137.016C103.179 137.351 103.117 137.738 103.117 138.179C103.117 138.623 103.179 139.016 103.301 139.357C103.427 139.696 103.608 139.961 103.843 140.153C104.082 140.342 104.375 140.436 104.723 140.436ZM36.8247 151.363L36.8248 152.954L32.2261 152.954L32.226 151.363L36.8247 151.363ZM33.27 149.534L35.3879 149.534L35.3881 156.653C35.3881 156.849 35.418 157.001 35.4776 157.11C35.5373 157.216 35.6202 157.291 35.7262 157.334C35.8356 157.377 35.9615 157.399 36.1041 157.399C36.2035 157.399 36.3029 157.39 36.4023 157.374C36.5018 157.354 36.578 157.339 36.631 157.329L36.9642 158.905C36.8581 158.938 36.709 158.976 36.5168 159.019C36.3245 159.066 36.0909 159.094 35.8158 159.104C35.3053 159.124 34.8579 159.056 34.4734 158.9C34.0923 158.744 33.7956 158.503 33.5835 158.174C33.3714 157.846 33.2669 157.432 33.2702 156.932L33.27 149.534ZM41.6027 159.149C40.8172 159.149 40.141 158.99 39.5743 158.671C39.0108 158.35 38.5766 157.896 38.2717 157.309C37.9667 156.719 37.8142 156.022 37.8142 155.216C37.8142 154.431 37.9666 153.741 38.2715 153.148C38.5764 152.555 39.0056 152.092 39.5591 151.761C40.1159 151.429 40.7689 151.264 41.5179 151.264C42.0217 151.264 42.4907 151.345 42.9249 151.507C43.3624 151.666 43.7435 151.907 44.0684 152.228C44.3965 152.55 44.6517 152.954 44.834 153.441C45.0163 153.925 45.1075 154.492 45.1075 155.141L45.1076 155.723L38.6594 155.723L38.6594 154.411L43.1139 154.411C43.1139 154.106 43.0476 153.836 42.915 153.6C42.7824 153.365 42.5985 153.181 42.3631 153.048C42.1311 152.913 41.861 152.845 41.5528 152.845C41.2313 152.845 40.9462 152.919 40.6977 153.068C40.4524 153.214 40.2602 153.411 40.121 153.66C39.9818 153.905 39.9105 154.179 39.9072 154.48L39.9073 155.728C39.9073 156.106 39.9769 156.432 40.1161 156.708C40.2586 156.983 40.4592 157.195 40.7177 157.344C40.9762 157.493 41.2828 157.568 41.6374 157.568C41.8728 157.568 42.0882 157.534 42.2837 157.468C42.4793 157.402 42.6467 157.302 42.7859 157.17C42.9251 157.037 43.0311 156.875 43.104 156.683L45.0628 156.812C44.9634 157.282 44.7596 157.693 44.4514 158.045C44.1465 158.393 43.7521 158.665 43.2682 158.86C42.7876 159.052 42.2324 159.149 41.6027 159.149ZM48.6075 154.584L48.6077 158.999L46.4898 158.999L46.4894 148.817L48.5477 148.817L48.5478 152.71L48.6373 152.71C48.8096 152.259 49.088 151.906 49.4725 151.651C49.8569 151.393 50.3392 151.263 50.9192 151.263C51.4495 151.263 51.9119 151.379 52.3063 151.611C52.704 151.84 53.0123 152.17 53.231 152.601C53.4531 153.028 53.5625 153.54 53.5592 154.137L53.5594 158.999L51.4415 158.999L51.4413 154.515C51.4446 154.044 51.3253 153.678 51.0833 153.416C50.8447 153.154 50.5099 153.023 50.0791 153.023C49.7907 153.023 49.5355 153.085 49.3134 153.207C49.0947 153.33 48.9223 153.509 48.7964 153.744C48.6738 153.976 48.6108 154.256 48.6075 154.584ZM57.3438 154.584L57.344 158.999L55.2261 158.999L55.2258 151.363L57.2443 151.363L57.2443 152.71L57.3338 152.71C57.5029 152.266 57.7862 151.914 58.1839 151.656C58.5817 151.394 59.0639 151.263 59.6307 151.263C60.161 151.263 60.6233 151.379 61.0177 151.611C61.4122 151.843 61.7188 152.174 61.9375 152.605C62.1563 153.033 62.2657 153.543 62.2657 154.137L62.2659 158.999L60.148 158.999L60.1478 154.514C60.1511 154.047 60.0318 153.683 59.7898 153.421C59.5479 153.156 59.2148 153.023 58.7905 153.023C58.5055 153.023 58.2536 153.084 58.0348 153.207C57.8194 153.33 57.6504 153.509 57.5278 153.744C57.4085 153.976 57.3471 154.256 57.3438 154.584ZM67.3854 159.148C66.6131 159.148 65.9453 158.984 65.3818 158.656C64.8217 158.324 64.3891 157.863 64.0842 157.274C63.7792 156.68 63.6267 155.993 63.6267 155.21C63.6267 154.422 63.7791 153.732 64.084 153.142C64.3889 152.549 64.8214 152.088 65.3816 151.76C65.945 151.429 66.6128 151.263 67.3851 151.263C68.1574 151.263 68.8236 151.428 69.3837 151.76C69.9472 152.088 70.3814 152.549 70.6863 153.142C70.9912 153.732 71.1437 154.421 71.1438 155.21C71.1438 155.992 70.9913 156.68 70.6864 157.273C70.3815 157.863 69.9474 158.324 69.3839 158.655C68.8238 158.984 68.1576 159.148 67.3854 159.148ZM67.3953 157.507C67.7466 157.507 68.0399 157.408 68.2752 157.209C68.5105 157.007 68.6878 156.731 68.8071 156.383C68.9298 156.035 68.9911 155.639 68.9911 155.195C68.991 154.751 68.9297 154.355 68.8071 154.007C68.6877 153.659 68.5104 153.384 68.2751 153.182C68.0398 152.98 67.7464 152.879 67.3951 152.879C67.0405 152.879 66.7422 152.98 66.5002 153.182C66.2616 153.384 66.081 153.659 65.9583 154.007C65.839 154.355 65.7794 154.751 65.7794 155.195C65.7794 155.639 65.8391 156.036 65.9584 156.384C66.0811 156.732 66.2617 157.007 66.5004 157.209C66.7423 157.408 67.0406 157.507 67.3953 157.507ZM74.6386 148.817L74.6389 158.998L72.521 158.998L72.5207 148.817L74.6386 148.817ZM79.7858 159.147C79.0135 159.147 78.3456 158.983 77.7822 158.655C77.222 158.324 76.7895 157.863 76.4846 157.273C76.1796 156.68 76.0271 155.992 76.0271 155.21C76.0271 154.421 76.1795 153.732 76.4844 153.142C76.7893 152.548 77.2218 152.088 77.782 151.76C78.3454 151.428 79.0132 151.262 79.7855 151.262C80.5577 151.262 81.2239 151.428 81.7841 151.759C82.3475 152.088 82.7817 152.548 83.0867 153.142C83.3916 153.731 83.5441 154.421 83.5441 155.21C83.5442 155.992 83.3917 156.68 83.0868 157.273C82.7819 157.863 82.3478 158.324 81.7843 158.655C81.2242 158.983 80.558 159.147 79.7858 159.147ZM79.7956 157.507C80.147 157.507 80.4403 157.407 80.6756 157.208C80.9109 157.006 81.0882 156.731 81.2075 156.383C81.3302 156.035 81.3915 155.639 81.3914 155.195C81.3914 154.751 81.3301 154.355 81.2075 154.007C81.0881 153.659 80.9108 153.384 80.6755 153.181C80.4401 152.979 80.1468 152.878 79.7955 152.878C79.4408 152.878 79.1426 152.979 78.9006 153.181C78.662 153.384 78.4814 153.659 78.3587 154.007C78.2394 154.355 78.1798 154.751 78.1798 155.195C78.1798 155.639 78.2395 156.035 78.3588 156.383C78.4815 156.731 78.6621 157.006 78.9007 157.208C79.1427 157.407 79.441 157.507 79.7956 157.507ZM88.3717 159.147C87.5994 159.147 86.9316 158.983 86.3681 158.655C85.808 158.323 85.3754 157.863 85.0705 157.273C84.7655 156.68 84.6131 155.992 84.613 155.21C84.613 154.421 84.7655 153.731 85.0704 153.141C85.3753 152.548 85.8078 152.087 86.3679 151.759C86.9313 151.428 87.5992 151.262 88.3714 151.262C89.1437 151.262 89.8099 151.428 90.37 151.759C90.9335 152.087 91.3677 152.548 91.6726 153.141C91.9776 153.731 92.1301 154.421 92.1301 155.209C92.1301 155.992 91.9777 156.679 91.6728 157.273C91.3679 157.863 90.9337 158.323 90.3703 158.655C89.8101 158.983 89.1439 159.147 88.3717 159.147ZM88.3816 157.506C88.7329 157.506 89.0262 157.407 89.2615 157.208C89.4969 157.006 89.6742 156.731 89.7935 156.383C89.9161 156.035 89.9774 155.639 89.9774 155.195C89.9774 154.75 89.916 154.354 89.7934 154.006C89.6741 153.658 89.4967 153.383 89.2614 153.181C89.0261 152.979 88.7328 152.878 88.3814 152.878C88.0268 152.878 87.7285 152.979 87.4865 153.181C87.2479 153.383 87.0673 153.658 86.9447 154.006C86.8254 154.354 86.7657 154.751 86.7657 155.195C86.7658 155.639 86.8254 156.035 86.9448 156.383C87.0674 156.731 87.248 157.006 87.4867 157.208C87.7286 157.407 88.0269 157.506 88.3816 157.506ZM96.9478 162.02C96.2617 162.02 95.6734 161.926 95.1829 161.737C94.6956 161.551 94.3078 161.298 94.0195 160.976C93.7311 160.655 93.5438 160.294 93.4577 159.893L95.4165 159.629C95.4761 159.781 95.5706 159.924 95.6998 160.057C95.8291 160.189 95.9998 160.295 96.2119 160.375C96.4274 160.458 96.6892 160.499 96.9974 160.499C97.4581 160.499 97.8376 160.386 98.1359 160.161C98.4375 159.939 98.5883 159.566 98.5883 159.042L98.5883 157.645L98.4988 157.645C98.406 157.857 98.2668 158.058 98.0812 158.247C97.8956 158.436 97.6569 158.59 97.3653 158.709C97.0736 158.829 96.7256 158.888 96.3213 158.888C95.7479 158.888 95.2258 158.756 94.7552 158.491C94.2879 158.222 93.915 157.813 93.6365 157.263C93.3614 156.709 93.2239 156.01 93.2238 155.165C93.2238 154.3 93.3646 153.577 93.6463 152.997C93.928 152.417 94.3026 151.983 94.7699 151.694C95.2405 151.406 95.7559 151.262 96.316 151.262C96.7436 151.262 97.1015 151.335 97.3899 151.481C97.6783 151.623 97.9103 151.802 98.0859 152.017C98.2649 152.23 98.4025 152.438 98.4986 152.644L98.5782 152.644L98.5781 151.361L100.681 151.361L100.681 159.072C100.681 159.722 100.522 160.265 100.204 160.703C99.886 161.14 99.4452 161.468 98.8817 161.687C98.3216 161.909 97.6769 162.02 96.9478 162.02ZM96.9924 157.297C97.3338 157.297 97.6221 157.213 97.8574 157.044C98.096 156.871 98.2783 156.626 98.4043 156.308C98.5335 155.986 98.5981 155.602 98.5981 155.154C98.5981 154.707 98.5351 154.319 98.4092 153.991C98.2832 153.66 98.1009 153.403 97.8623 153.221C97.6236 153.038 97.3336 152.947 96.9922 152.947C96.6442 152.947 96.3509 153.042 96.1123 153.231C95.8736 153.416 95.693 153.675 95.5704 154.006C95.4478 154.338 95.3865 154.72 95.3865 155.155C95.3865 155.595 95.4478 155.977 95.5705 156.298C95.6964 156.616 95.8771 156.863 96.1124 157.039C96.351 157.211 96.6444 157.297 96.9924 157.297ZM102.367 158.997L102.366 151.361L104.484 151.361L104.485 158.997L102.367 158.997ZM103.43 150.377C103.115 150.377 102.845 150.272 102.62 150.063C102.398 149.851 102.287 149.598 102.287 149.303C102.287 149.011 102.398 148.761 102.62 148.552C102.845 148.34 103.115 148.234 103.43 148.234C103.745 148.234 104.014 148.34 104.236 148.552C104.461 148.761 104.574 149.011 104.574 149.303C104.574 149.598 104.461 149.851 104.236 150.063C104.014 150.272 103.745 150.377 103.43 150.377ZM108.359 159.141C107.872 159.141 107.437 159.057 107.056 158.888C106.675 158.716 106.373 158.462 106.151 158.127C105.933 157.789 105.823 157.368 105.823 156.864C105.823 156.44 105.901 156.084 106.057 155.796C106.213 155.507 106.425 155.275 106.693 155.1C106.962 154.924 107.266 154.791 107.608 154.702C107.953 154.612 108.314 154.549 108.692 154.513C109.136 154.466 109.494 154.423 109.766 154.384C110.037 154.34 110.235 154.277 110.357 154.195C110.48 154.112 110.541 153.989 110.541 153.827L110.541 153.797C110.541 153.482 110.442 153.238 110.243 153.066C110.047 152.894 109.769 152.808 109.408 152.808C109.026 152.808 108.723 152.892 108.498 153.061C108.272 153.227 108.123 153.436 108.05 153.688L106.091 153.529C106.191 153.065 106.386 152.663 106.678 152.325C106.97 151.984 107.346 151.722 107.807 151.54C108.271 151.354 108.808 151.261 109.417 151.261C109.842 151.261 110.248 151.311 110.635 151.41C111.027 151.51 111.373 151.664 111.675 151.873C111.979 152.082 112.22 152.35 112.395 152.678C112.571 153.003 112.659 153.392 112.659 153.846L112.659 158.997L110.651 158.997L110.651 157.938L110.591 157.938C110.468 158.177 110.304 158.387 110.099 158.57C109.893 158.749 109.646 158.889 109.358 158.992C109.07 159.092 108.737 159.141 108.359 159.141ZM108.965 157.68C109.277 157.68 109.552 157.618 109.79 157.496C110.029 157.37 110.216 157.201 110.352 156.989C110.488 156.776 110.556 156.536 110.556 156.268L110.556 155.457C110.49 155.5 110.399 155.54 110.283 155.577C110.17 155.61 110.042 155.641 109.9 155.671C109.757 155.698 109.615 155.723 109.472 155.746C109.33 155.766 109.2 155.784 109.084 155.8C108.836 155.837 108.619 155.895 108.433 155.974C108.248 156.054 108.103 156.162 108.001 156.298C107.898 156.43 107.847 156.596 107.847 156.795C107.847 157.083 107.951 157.304 108.16 157.456C108.372 157.605 108.64 157.68 108.965 157.68ZM117.116 159.121C116.536 159.121 116.011 158.972 115.54 158.674C115.073 158.372 114.702 157.93 114.426 157.346C114.155 156.76 114.019 156.041 114.019 155.189C114.019 154.314 114.16 153.586 114.441 153.006C114.723 152.423 115.097 151.987 115.565 151.699C116.035 151.407 116.551 151.261 117.111 151.261C117.539 151.261 117.895 151.334 118.18 151.48C118.468 151.622 118.7 151.801 118.876 152.017C119.055 152.229 119.191 152.438 119.284 152.643L119.348 152.643L119.348 148.815L121.461 148.815L121.461 158.997L119.373 158.997L119.373 157.774L119.284 157.774C119.184 157.986 119.043 158.196 118.861 158.405C118.682 158.611 118.449 158.781 118.16 158.917C117.875 159.053 117.527 159.121 117.116 159.121ZM117.787 157.436C118.129 157.436 118.417 157.343 118.652 157.157C118.891 156.968 119.073 156.705 119.199 156.367C119.328 156.029 119.393 155.633 119.393 155.179C119.393 154.725 119.33 154.33 119.204 153.995C119.078 153.661 118.896 153.402 118.657 153.22C118.419 153.038 118.129 152.946 117.787 152.946C117.439 152.946 117.146 153.041 116.907 153.23C116.669 153.419 116.488 153.681 116.365 154.015C116.243 154.35 116.181 154.738 116.181 155.179C116.181 155.623 116.243 156.016 116.365 156.357C116.491 156.695 116.672 156.96 116.907 157.152C117.146 157.341 117.439 157.436 117.787 157.436Z" fill="#D8D8D8"/>
<defs>
<filter id="filter0_d_204_1931" x="0.137695" y="35.9961" width="154" height="94" filterUnits="userSpaceOnUse" color-interpolation-filters="sRGB">
<feFlood flood-opacity="0" result="BackgroundImageFix"/>
<feColorMatrix in="SourceAlpha" type="matrix" values="0 0 0 0 0 0 0 0 0 0 0 0 0 0 0 0 0 0 127 0" result="hardAlpha"/>
<feOffset dy="-2"/>
<feGaussianBlur stdDeviation="6"/>
<feComposite in2="hardAlpha" operator="out"/>
<feColorMatrix type="matrix" values="0 0 0 0 0.0923839 0 0 0 0 0.169424 0 0 0 0 0.250995 0 0 0 0.25 0"/>
<feBlend mode="normal" in2="BackgroundImageFix" result="effect1_dropShadow_204_1931"/>
<feBlend mode="normal" in="SourceGraphic" in2="effect1_dropShadow_204_1931" result="shape"/>
</filter>
<linearGradient id="paint0_linear_204_1931" x1="106.064" y1="43.9971" x2="114.772" y2="65.0796" gradientUnits="userSpaceOnUse">
<stop stop-color="#728FA9"/>
<stop offset="1" stop-color="#365068"/>
</linearGradient>
<linearGradient id="paint1_linear_204_1931" x1="78.153" y1="30.7799" x2="80.2958" y2="51.6703" gradientUnits="userSpaceOnUse">
<stop stop-color="#C078FF"/>
<stop offset="1" stop-color="#7532B0"/>
</linearGradient>
<linearGradient id="paint2_linear_204_1931" x1="78.153" y1="30.7799" x2="80.2958" y2="51.6703" gradientUnits="userSpaceOnUse">
<stop stop-color="#C078FF"/>
<stop offset="1" stop-color="#7532B0"/>
</linearGradient>
<linearGradient id="paint3_linear_204_1931" x1="45.2699" y1="31.4415" x2="42.4176" y2="47.8895" gradientUnits="userSpaceOnUse">
<stop stop-color="#87BEF6"/>
<stop offset="1" stop-color="#3D76B0"/>
</linearGradient>
<linearGradient id="paint4_linear_204_1931" x1="77.1377" y1="49.9961" x2="77.1377" y2="119.996" gradientUnits="userSpaceOnUse">
<stop stop-color="#4AD1D1"/>
<stop offset="1" stop-color="#008B8B"/>
</linearGradient>
</defs>
</svg>
