<svg width="160" height="190" viewBox="0 0 160 190" fill="none" xmlns="http://www.w3.org/2000/svg">
<rect x="12.3589" y="28" width="130" height="120" rx="8" fill="#B583CD"/>
<rect x="12.3589" y="28" width="130" height="120" rx="8" fill="black" fill-opacity="0.4"/>
<g filter="url(#filter0_d_304_2467)">
<path d="M64.7278 58H20.5244C16.1061 58 12.5244 61.5817 12.5244 66L12.5244 103V140C12.5244 144.418 16.1061 148 20.5244 148H134.524C138.943 148 142.524 144.418 142.524 140V82.0637C142.524 77.6455 138.943 74.0637 134.524 74.0637H89.7306C87.853 74.0637 86.0353 73.4034 84.5955 72.1982L69.8628 59.8656C68.4231 58.6604 66.6053 58 64.7278 58Z" fill="url(#paint0_linear_304_2467)"/>
<path d="M64.7278 58H20.5244C16.1061 58 12.5244 61.5817 12.5244 66L12.5244 103V140C12.5244 144.418 16.1061 148 20.5244 148H134.524C138.943 148 142.524 144.418 142.524 140V82.0637C142.524 77.6455 138.943 74.0637 134.524 74.0637H89.7306C87.853 74.0637 86.0353 73.4034 84.5955 72.1982L69.8628 59.8656C68.4231 58.6604 66.6053 58 64.7278 58Z" fill="black" fill-opacity="0.4"/>
</g>
<path d="M40.5716 159.821L42.7243 159.821L42.7245 166.433C42.7245 167.176 42.5472 167.825 42.1926 168.382C41.8413 168.939 41.3491 169.373 40.7161 169.685C40.0831 169.993 39.3456 170.147 38.5038 170.147C37.6586 170.147 36.9195 169.993 36.2864 169.685C35.6534 169.373 35.1612 168.939 34.8098 168.382C34.4585 167.826 34.2828 167.176 34.2828 166.433L34.2825 159.821L36.4352 159.821L36.4355 166.249C36.4355 166.637 36.52 166.982 36.689 167.284C36.8614 167.585 37.1034 167.822 37.4149 167.994C37.7265 168.167 38.0894 168.253 38.5037 168.253C38.9213 168.253 39.2842 168.167 39.5925 167.994C39.904 167.822 40.1443 167.585 40.3133 167.283C40.4857 166.982 40.5718 166.637 40.5718 166.249L40.5716 159.821ZM46.5139 159.821L48.5673 163.291L48.6468 163.291L50.7099 159.821L53.141 159.821L50.034 164.912L53.211 170.002L50.7351 170.003L48.6469 166.527L48.5674 166.527L46.4794 170.003L44.0135 170.003L47.2001 164.912L44.0728 159.821L46.5139 159.821ZM58.8981 159.343L55.6173 171.534L53.7927 171.534L57.0735 159.343L58.8981 159.343ZM66.2474 159.82L68.4001 159.82L68.4003 166.432C68.4003 167.175 68.223 167.824 67.8684 168.381C67.5171 168.938 67.0249 169.372 66.3919 169.684C65.7589 169.992 65.0214 170.146 64.1795 170.146C63.3344 170.146 62.5953 169.992 61.9622 169.684C61.3291 169.372 60.8369 168.938 60.4856 168.381C60.1343 167.825 59.9586 167.175 59.9585 166.433L59.9583 159.82L62.111 159.82L62.1112 166.249C62.1112 166.636 62.1958 166.981 62.3648 167.283C62.5372 167.584 62.7791 167.821 63.0907 167.994C63.4023 168.166 63.7652 168.252 64.1795 168.252C64.5971 168.252 64.96 168.166 65.2683 167.994C65.5798 167.821 65.8201 167.584 65.9891 167.283C66.1614 166.981 66.2476 166.636 66.2476 166.248L66.2474 159.82ZM72.3239 159.82L72.3243 170.002L70.1716 170.002L70.1712 159.82L72.3239 159.82ZM80.1098 170.126C79.5297 170.126 79.0044 169.977 78.5338 169.678C78.0664 169.377 77.6952 168.934 77.4201 168.351C77.1483 167.764 77.0124 167.045 77.0123 166.193C77.0123 165.318 77.1531 164.591 77.4348 164.011C77.7165 163.428 78.0911 162.992 78.5584 162.703C79.029 162.412 79.5444 162.266 80.1045 162.266C80.5321 162.266 80.8884 162.339 81.1734 162.484C81.4618 162.627 81.6938 162.806 81.8695 163.021C82.0485 163.234 82.1844 163.442 82.2772 163.648L82.3418 163.648L82.3417 159.82L84.4546 159.82L84.4549 170.001L82.3669 170.001L82.3668 168.778L82.2773 168.778C82.1779 168.991 82.0371 169.201 81.8548 169.41C81.6758 169.615 81.4421 169.786 81.1538 169.922C80.8688 170.058 80.5208 170.126 80.1098 170.126ZM80.7809 168.44C81.1223 168.44 81.4106 168.348 81.6459 168.162C81.8846 167.973 82.0668 167.71 82.1928 167.372C82.322 167.033 82.3866 166.637 82.3866 166.183C82.3866 165.729 82.3236 165.335 82.1977 165C82.0717 164.665 81.8894 164.407 81.6508 164.225C81.4121 164.042 81.1221 163.951 80.7807 163.951C80.4327 163.951 80.1394 164.046 79.9008 164.235C79.6621 164.423 79.4815 164.685 79.3589 165.02C79.2363 165.355 79.175 165.743 79.175 166.183C79.175 166.628 79.2363 167.02 79.359 167.362C79.4849 167.7 79.6656 167.965 79.9009 168.157C80.1395 168.346 80.4329 168.44 80.7809 168.44ZM86.1962 170.001L86.196 162.365L88.3139 162.365L88.3141 170.001L86.1962 170.001ZM87.2599 161.381C86.945 161.381 86.6749 161.276 86.4495 161.067C86.2274 160.855 86.1164 160.602 86.1164 160.307C86.1164 160.015 86.2274 159.765 86.4494 159.556C86.6748 159.344 86.9449 159.238 87.2598 159.238C87.5747 159.238 87.8431 159.344 88.0652 159.556C88.2906 159.765 88.4033 160.015 88.4033 160.307C88.4033 160.602 88.2906 160.855 88.0653 161.067C87.8432 161.276 87.5747 161.381 87.2599 161.381ZM96.3642 164.542L94.4253 164.662C94.3921 164.496 94.3209 164.347 94.2115 164.214C94.1021 164.078 93.9579 163.971 93.7789 163.891C93.6033 163.808 93.3928 163.767 93.1476 163.767C92.8194 163.767 92.5427 163.836 92.3173 163.976C92.0919 164.111 91.9792 164.294 91.9793 164.522C91.9793 164.705 92.0522 164.859 92.198 164.985C92.3439 165.111 92.5941 165.212 92.9487 165.288L94.3308 165.566C95.0733 165.719 95.6268 165.964 95.9914 166.302C96.356 166.64 96.5383 167.084 96.5383 167.635C96.5383 168.135 96.3908 168.574 96.0959 168.952C95.8042 169.33 95.4032 169.625 94.8928 169.837C94.3857 170.046 93.8007 170.15 93.1378 170.15C92.1269 170.15 91.3215 169.94 90.7216 169.519C90.125 169.095 89.7753 168.518 89.6725 167.789L91.7556 167.679C91.8186 167.988 91.9711 168.223 92.213 168.385C92.455 168.544 92.7649 168.624 93.1427 168.624C93.514 168.624 93.8122 168.553 94.0376 168.41C94.2663 168.264 94.3823 168.077 94.3856 167.848C94.3823 167.656 94.3011 167.499 94.142 167.376C93.9829 167.25 93.7376 167.154 93.4062 167.088L92.0837 166.824C91.338 166.675 90.7828 166.417 90.4182 166.049C90.0569 165.681 89.8763 165.212 89.8763 164.642C89.8763 164.151 90.0088 163.729 90.274 163.374C90.5424 163.019 90.9186 162.746 91.4025 162.554C91.8897 162.361 92.4598 162.265 93.1127 162.265C94.0772 162.265 94.8362 162.469 95.3897 162.877C95.9465 163.284 96.2714 163.84 96.3642 164.542ZM100.05 170.145C99.5624 170.145 99.1282 170.061 98.747 169.892C98.3658 169.719 98.0642 169.466 97.8422 169.131C97.6234 168.793 97.514 168.372 97.514 167.868C97.514 167.444 97.5918 167.088 97.7476 166.799C97.9034 166.511 98.1155 166.279 98.384 166.103C98.6524 165.928 98.9573 165.795 99.2987 165.705C99.6434 165.616 100.005 165.553 100.383 165.517C100.827 165.47 101.185 165.427 101.456 165.387C101.728 165.344 101.925 165.281 102.048 165.198C102.171 165.115 102.232 164.993 102.232 164.83L102.232 164.801C102.232 164.486 102.132 164.242 101.934 164.07C101.738 163.897 101.46 163.811 101.098 163.811C100.717 163.811 100.414 163.896 100.189 164.065C99.9632 164.231 99.8141 164.439 99.7412 164.691L97.7823 164.532C97.8818 164.068 98.0773 163.667 98.3689 163.329C98.6606 162.988 99.0368 162.726 99.4975 162.544C99.9615 162.358 100.498 162.265 101.108 162.265C101.533 162.265 101.939 162.315 102.326 162.414C102.717 162.514 103.064 162.668 103.365 162.876C103.67 163.085 103.911 163.354 104.086 163.682C104.262 164.007 104.35 164.396 104.35 164.85L104.35 170.001L102.341 170.001L102.341 168.942L102.282 168.942C102.159 169.181 101.995 169.391 101.79 169.573C101.584 169.752 101.337 169.893 101.049 169.996C100.761 170.095 100.427 170.145 100.05 170.145ZM100.656 168.683C100.968 168.683 101.243 168.622 101.481 168.499C101.72 168.373 101.907 168.204 102.043 167.992C102.179 167.78 102.247 167.54 102.247 167.271L102.247 166.461C102.181 166.504 102.089 166.544 101.973 166.58C101.861 166.614 101.733 166.645 101.591 166.675C101.448 166.701 101.306 166.726 101.163 166.749C101.021 166.769 100.891 166.788 100.775 166.804C100.527 166.841 100.31 166.899 100.124 166.978C99.9384 167.058 99.7943 167.165 99.6915 167.301C99.5888 167.434 99.5374 167.6 99.5374 167.798C99.5374 168.087 99.6418 168.307 99.8507 168.46C100.063 168.609 100.331 168.683 100.656 168.683ZM105.993 170.001L105.993 162.364L108.111 162.364L108.111 170.001L105.993 170.001ZM107.057 161.38C106.742 161.38 106.472 161.276 106.246 161.067C106.024 160.855 105.913 160.601 105.913 160.306C105.913 160.014 106.024 159.764 106.246 159.555C106.472 159.343 106.742 159.237 107.057 159.237C107.372 159.237 107.64 159.343 107.862 159.555C108.087 159.764 108.2 160.014 108.2 160.306C108.2 160.601 108.087 160.855 107.862 161.067C107.64 161.275 107.372 161.38 107.057 161.38ZM111.925 165.586L111.925 170L109.808 170.001L109.807 162.364L111.826 162.364L111.826 163.711L111.915 163.711C112.084 163.267 112.368 162.916 112.765 162.657C113.163 162.396 113.645 162.265 114.212 162.265C114.742 162.265 115.205 162.381 115.599 162.613C115.994 162.845 116.3 163.176 116.519 163.607C116.738 164.034 116.847 164.545 116.847 165.138L116.847 170L114.729 170L114.729 165.516C114.733 165.049 114.613 164.684 114.371 164.422C114.129 164.157 113.796 164.025 113.372 164.025C113.087 164.025 112.835 164.086 112.616 164.209C112.401 164.331 112.232 164.51 112.109 164.746C111.99 164.978 111.929 165.258 111.925 165.586ZM118.517 170L118.516 162.364L120.634 162.364L120.634 170L118.517 170ZM119.58 161.38C119.265 161.38 118.995 161.275 118.77 161.066C118.548 160.854 118.437 160.601 118.437 160.306C118.437 160.014 118.548 159.764 118.77 159.555C118.995 159.343 119.265 159.237 119.58 159.237C119.895 159.237 120.163 159.343 120.386 159.555C120.611 159.764 120.724 160.014 120.724 160.306C120.724 160.601 120.611 160.854 120.386 161.066C120.164 161.275 119.895 161.379 119.58 161.38ZM18.629 182.589L18.6292 187.004L16.5113 187.004L16.511 179.367L18.5295 179.367L18.5295 180.715L18.619 180.715C18.788 180.27 19.0714 179.919 19.4691 179.661C19.8668 179.399 20.3491 179.268 20.9158 179.268C21.4461 179.268 21.9085 179.384 22.3029 179.616C22.6973 179.848 23.0039 180.179 23.2227 180.61C23.4415 181.038 23.5508 181.548 23.5509 182.141L23.551 187.003L21.4331 187.004L21.433 182.519C21.4363 182.052 21.3169 181.687 21.075 181.425C20.833 181.16 20.4999 181.028 20.0757 181.028C19.7906 181.028 19.5388 181.089 19.32 181.212C19.1046 181.334 18.9355 181.513 18.8129 181.749C18.6936 181.981 18.6323 182.261 18.629 182.589ZM28.6705 187.152C27.8983 187.152 27.2304 186.988 26.667 186.66C26.1068 186.329 25.6743 185.868 25.3693 185.278C25.0644 184.685 24.9119 183.997 24.9119 183.215C24.9118 182.426 25.0643 181.737 25.3692 181.147C25.6741 180.554 26.1066 180.093 26.6667 179.765C27.2302 179.433 27.898 179.268 28.6703 179.267C29.4425 179.267 30.1087 179.433 30.6689 179.765C31.2323 180.093 31.6665 180.553 31.9715 181.147C32.2764 181.737 32.4289 182.426 32.4289 183.215C32.4289 183.997 32.2765 184.685 31.9716 185.278C31.6667 185.868 31.2325 186.329 30.6691 186.66C30.109 186.988 29.4428 187.152 28.6705 187.152ZM28.6804 185.512C29.0317 185.512 29.3251 185.412 29.5604 185.213C29.7957 185.011 29.973 184.736 30.0923 184.388C30.2149 184.04 30.2762 183.644 30.2762 183.2C30.2762 182.756 30.2149 182.36 30.0922 182.012C29.9729 181.664 29.7956 181.389 29.5602 181.186C29.3249 180.984 29.0316 180.883 28.6803 180.883C28.3256 180.883 28.0273 180.984 27.7854 181.187C27.5468 181.389 27.3661 181.664 27.2435 182.012C27.1242 182.36 27.0646 182.756 27.0646 183.2C27.0646 183.644 27.1243 184.04 27.2436 184.388C27.3662 184.736 27.5469 185.011 27.7855 185.214C28.0275 185.412 28.3258 185.512 28.6804 185.512ZM37.2565 187.152C36.4842 187.152 35.8164 186.988 35.2529 186.66C34.6928 186.329 34.2602 185.868 33.9553 185.278C33.6503 184.685 33.4978 183.997 33.4978 183.215C33.4978 182.426 33.6502 181.737 33.9551 181.147C34.26 180.553 34.6925 180.093 35.2527 179.764C35.8161 179.433 36.4839 179.267 37.2562 179.267C38.0285 179.267 38.6947 179.433 39.2548 179.764C39.8183 180.092 40.2525 180.553 40.5574 181.146C40.8623 181.736 41.0148 182.426 41.0149 183.215C41.0149 183.997 40.8624 184.684 40.5575 185.278C40.2526 185.868 39.8185 186.328 39.255 186.66C38.6949 186.988 38.0287 187.152 37.2565 187.152ZM37.2664 185.512C37.6177 185.512 37.911 185.412 38.1463 185.213C38.3816 185.011 38.5589 184.736 38.6782 184.388C38.8009 184.04 38.8622 183.644 38.8622 183.2C38.8621 182.756 38.8008 182.359 38.6782 182.011C38.5588 181.663 38.3815 181.388 38.1462 181.186C37.9109 180.984 37.6175 180.883 37.2662 180.883C36.9116 180.883 36.6133 180.984 36.3713 181.186C36.1327 181.388 35.9521 181.664 35.8294 182.012C35.7101 182.36 35.6505 182.756 35.6505 183.2C35.6505 183.644 35.7102 184.04 35.8295 184.388C35.9522 184.736 36.1328 185.011 36.3715 185.213C36.6134 185.412 36.9117 185.512 37.2664 185.512ZM42.3921 187.003L42.3919 179.366L44.4451 179.366L44.4452 180.699L44.5247 180.699C44.6639 180.225 44.8976 179.867 45.2257 179.625C45.5538 179.38 45.9316 179.257 46.3592 179.257C46.4652 179.257 46.5796 179.264 46.7022 179.277C46.8249 179.29 46.9326 179.308 47.0254 179.332L47.0254 181.211C46.926 181.181 46.7885 181.154 46.6128 181.131C46.4371 181.108 46.2764 181.096 46.1306 181.096C45.819 181.096 45.5406 181.164 45.2953 181.3C45.0534 181.433 44.8612 181.619 44.7186 181.857C44.5794 182.096 44.5099 182.371 44.5099 182.682L44.51 187.003L42.3921 187.003ZM51.2453 187.152C50.4598 187.152 49.7836 186.993 49.2169 186.674C48.6534 186.353 48.2192 185.899 47.9143 185.312C47.6093 184.722 47.4568 184.025 47.4568 183.219C47.4568 182.434 47.6092 181.744 47.9141 181.151C48.219 180.558 48.6482 180.095 49.2017 179.764C49.7585 179.433 50.4114 179.267 51.1605 179.267C51.6643 179.267 52.1333 179.348 52.5675 179.51C53.005 179.669 53.3861 179.91 53.711 180.231C54.0391 180.553 54.2943 180.957 54.4766 181.444C54.6589 181.928 54.7501 182.495 54.7501 183.144L54.7501 183.726L48.302 183.726L48.3019 182.414L52.7565 182.414C52.7565 182.109 52.6902 181.839 52.5576 181.603C52.425 181.368 52.2411 181.184 52.0057 181.052C51.7737 180.916 51.5036 180.848 51.1954 180.848C50.8739 180.848 50.5888 180.922 50.3402 181.071C50.095 181.217 49.9028 181.415 49.7636 181.663C49.6244 181.908 49.5531 182.182 49.5498 182.483L49.5499 183.731C49.5499 184.109 49.6195 184.436 49.7587 184.711C49.9012 184.986 50.1017 185.198 50.3603 185.347C50.6188 185.496 50.9254 185.571 51.28 185.571C51.5153 185.571 51.7308 185.538 51.9263 185.471C52.1219 185.405 52.2893 185.306 52.4285 185.173C52.5677 185.04 52.6737 184.878 52.7466 184.686L54.7054 184.815C54.606 185.286 54.4022 185.697 54.094 186.048C53.7891 186.396 53.3946 186.668 52.9108 186.863C52.4302 187.056 51.875 187.152 51.2453 187.152ZM56.1323 187.002L56.1321 179.366L58.1506 179.366L58.1506 180.713L58.2401 180.713C58.3992 180.266 58.6643 179.913 59.0355 179.654C59.4067 179.396 59.8508 179.266 60.3679 179.266C60.8916 179.266 61.3373 179.397 61.7053 179.659C62.0732 179.918 62.3184 180.269 62.4411 180.713L62.5206 180.713C62.6764 180.276 62.9581 179.926 63.3658 179.664C63.7767 179.399 64.2623 179.266 64.8224 179.266C65.535 179.266 66.1134 179.493 66.5575 179.947C67.005 180.398 67.2287 181.038 67.2288 181.866L67.2289 187.002L65.116 187.002L65.1159 182.284C65.1158 181.86 65.0031 181.542 64.7778 181.329C64.5524 181.117 64.2706 181.011 63.9326 181.011C63.5481 181.011 63.2482 181.134 63.0327 181.379C62.8173 181.621 62.7096 181.941 62.7096 182.339L62.7098 187.002L60.6565 187.002L60.6563 182.239C60.6563 181.865 60.5486 181.567 60.3332 181.345C60.121 181.122 59.841 181.011 59.4929 181.011C59.2576 181.011 59.0455 181.071 58.8566 181.19C58.671 181.306 58.5235 181.471 58.4141 181.683C58.3048 181.891 58.2501 182.137 58.2501 182.418L58.2502 187.002L56.1323 187.002ZM75.2554 181.543L73.3165 181.662C73.2833 181.497 73.2121 181.347 73.1027 181.215C72.9933 181.079 72.8491 180.971 72.6701 180.892C72.4945 180.809 72.284 180.767 72.0387 180.767C71.7106 180.767 71.4339 180.837 71.2085 180.976C70.9831 181.112 70.8704 181.294 70.8704 181.523C70.8705 181.705 70.9434 181.86 71.0892 181.986C71.235 182.111 71.4853 182.213 71.8399 182.289L73.222 182.567C73.9645 182.72 74.518 182.965 74.8826 183.303C75.2472 183.641 75.4295 184.085 75.4295 184.635C75.4295 185.136 75.282 185.575 74.9871 185.953C74.6954 186.331 74.2944 186.626 73.784 186.838C73.2769 187.047 72.6919 187.151 72.029 187.151C71.0181 187.151 70.2127 186.941 69.6128 186.52C69.0162 186.095 68.6665 185.519 68.5637 184.79L70.6468 184.68C70.7098 184.988 70.8623 185.224 71.1042 185.386C71.3462 185.545 71.6561 185.625 72.0339 185.625C72.4051 185.625 72.7034 185.553 72.9288 185.411C73.1575 185.265 73.2735 185.078 73.2768 184.849C73.2735 184.657 73.1923 184.499 73.0332 184.377C72.8741 184.251 72.6288 184.155 72.2974 184.088L70.9749 183.825C70.2292 183.676 69.674 183.417 69.3094 183.05C68.9481 182.682 68.7675 182.213 68.7675 181.643C68.7675 181.152 68.9 180.729 69.1652 180.375C69.4336 180.02 69.8098 179.747 70.2937 179.554C70.7809 179.362 71.351 179.266 72.0039 179.266C72.9684 179.266 73.7274 179.47 74.2809 179.877C74.8377 180.285 75.1626 180.84 75.2554 181.543ZM76.7633 189.865L76.763 179.365L78.851 179.365L78.8511 180.648L78.9455 180.648C79.0383 180.442 79.1725 180.234 79.3482 180.021C79.5272 179.806 79.7592 179.627 80.0442 179.485C80.3326 179.339 80.6905 179.266 81.1181 179.266C81.6749 179.266 82.1886 179.412 82.6593 179.703C83.1299 179.992 83.5061 180.427 83.7879 181.011C84.0696 181.591 84.2105 182.318 84.2105 183.193C84.2106 184.045 84.073 184.764 83.798 185.351C83.5262 185.934 83.155 186.377 82.6844 186.678C82.217 186.977 81.6934 187.126 81.1134 187.126C80.7024 187.126 80.3527 187.058 80.0643 186.922C79.7793 186.786 79.5456 186.615 79.3633 186.41C79.181 186.201 79.0418 185.991 78.9457 185.779L78.8811 185.779L78.8812 189.865L76.7633 189.865ZM78.8362 183.183C78.8362 183.637 78.8992 184.034 79.0252 184.372C79.1512 184.71 79.3335 184.973 79.5721 185.162C79.8107 185.348 80.1007 185.44 80.4421 185.44C80.7868 185.44 81.0785 185.346 81.3171 185.157C81.5558 184.965 81.7364 184.7 81.859 184.362C81.9849 184.02 82.0479 183.627 82.0479 183.183C82.0479 182.742 81.9865 182.355 81.8639 182.02C81.7412 181.685 81.5606 181.423 81.322 181.234C81.0833 181.046 80.79 180.951 80.442 180.951C80.0973 180.951 79.8056 181.042 79.567 181.225C79.3317 181.407 79.151 181.665 79.0251 182C78.8992 182.335 78.8362 182.729 78.8362 183.183ZM89.1027 187.15C88.3172 187.15 87.641 186.991 87.0743 186.673C86.5108 186.352 86.0766 185.898 85.7717 185.311C85.4667 184.721 85.3142 184.023 85.3142 183.218C85.3142 182.432 85.4666 181.743 85.7715 181.15C86.0764 180.557 86.5056 180.094 87.0591 179.763C87.6159 179.431 88.2689 179.265 89.0179 179.265C89.5217 179.265 89.9907 179.347 90.4249 179.509C90.8624 179.668 91.2436 179.908 91.5684 180.23C91.8965 180.551 92.1517 180.956 92.334 181.443C92.5164 181.927 92.6075 182.494 92.6075 183.143L92.6076 183.725L86.1594 183.725L86.1594 182.413L90.6139 182.412C90.6139 182.108 90.5476 181.837 90.415 181.602C90.2824 181.367 90.0985 181.183 89.8632 181.05C89.6311 180.914 89.361 180.846 89.0528 180.846C88.7313 180.846 88.4462 180.921 88.1977 181.07C87.9524 181.216 87.7602 181.413 87.621 181.662C87.4818 181.907 87.4105 182.181 87.4072 182.482L87.4073 183.73C87.4073 184.108 87.4769 184.434 87.6161 184.709C87.7586 184.984 87.9592 185.197 88.2177 185.346C88.4762 185.495 88.7828 185.569 89.1374 185.569C89.3728 185.569 89.5882 185.536 89.7838 185.47C89.9793 185.404 90.1467 185.304 90.2859 185.172C90.4251 185.039 90.5311 184.877 90.604 184.684L92.5629 184.814C92.4634 185.284 92.2596 185.695 91.9514 186.047C91.6465 186.395 91.2521 186.666 90.7682 186.862C90.2876 187.054 89.7324 187.15 89.1027 187.15ZM98.0513 179.365L98.0514 180.956L93.4526 180.956L93.4526 179.365L98.0513 179.365ZM94.4966 177.535L96.6145 177.535L96.6147 184.654C96.6147 184.85 96.6445 185.002 96.7042 185.112C96.7639 185.218 96.8467 185.292 96.9528 185.336C97.0622 185.379 97.1881 185.4 97.3306 185.4C97.4301 185.4 97.5295 185.392 97.6289 185.375C97.7284 185.355 97.8046 185.34 97.8576 185.331L98.1908 186.906C98.0847 186.94 97.9356 186.978 97.7433 187.021C97.5511 187.067 97.3174 187.095 97.0423 187.105C96.5319 187.125 96.0845 187.057 95.7 186.902C95.3188 186.746 95.0222 186.504 94.8101 186.176C94.5979 185.848 94.4935 185.433 94.4968 184.933L94.4966 177.535ZM105.689 181.542L103.75 181.661C103.717 181.496 103.646 181.346 103.536 181.214C103.427 181.078 103.283 180.97 103.104 180.891C102.928 180.808 102.718 180.766 102.472 180.766C102.144 180.766 101.867 180.836 101.642 180.975C101.417 181.111 101.304 181.293 101.304 181.522C101.304 181.704 101.377 181.859 101.523 181.985C101.669 182.11 101.919 182.212 102.274 182.288L103.656 182.566C104.398 182.719 104.952 182.964 105.316 183.302C105.681 183.64 105.863 184.084 105.863 184.634C105.863 185.135 105.716 185.574 105.421 185.952C105.129 186.33 104.728 186.625 104.218 186.837C103.71 187.046 103.125 187.15 102.463 187.15C101.452 187.15 100.646 186.94 100.046 186.519C99.4498 186.094 99.1001 185.518 98.9973 184.789L101.08 184.679C101.143 184.987 101.296 185.223 101.538 185.385C101.78 185.544 102.09 185.624 102.468 185.624C102.839 185.624 103.137 185.552 103.362 185.41C103.591 185.264 103.707 185.077 103.71 184.848C103.707 184.656 103.626 184.498 103.467 184.376C103.308 184.25 103.062 184.154 102.731 184.087L101.409 183.824C100.663 183.675 100.108 183.416 99.743 183.048C99.3817 182.681 99.2011 182.212 99.2011 181.642C99.201 181.151 99.3336 180.728 99.5987 180.374C99.8672 180.019 100.243 179.746 100.727 179.553C101.214 179.361 101.785 179.265 102.437 179.265C103.402 179.265 104.161 179.469 104.714 179.876C105.271 180.284 105.596 180.839 105.689 181.542ZM107.197 187.001L107.197 179.364L109.314 179.364L109.315 187.001L107.197 187.001ZM108.26 178.38C107.946 178.38 107.675 178.275 107.45 178.067C107.228 177.855 107.117 177.601 107.117 177.306C107.117 177.014 107.228 176.764 107.45 176.555C107.675 176.343 107.945 176.237 108.26 176.237C108.575 176.237 108.844 176.343 109.066 176.555C109.291 176.764 109.404 177.014 109.404 177.306C109.404 177.601 109.291 177.855 109.066 178.067C108.844 178.275 108.575 178.38 108.26 178.38ZM113.189 187.145C112.702 187.145 112.267 187.06 111.886 186.891C111.505 186.719 111.203 186.465 110.981 186.131C110.763 185.792 110.653 185.372 110.653 184.868C110.653 184.443 110.731 184.087 110.887 183.799C111.043 183.51 111.255 183.278 111.523 183.103C111.792 182.927 112.097 182.795 112.438 182.705C112.783 182.616 113.144 182.553 113.522 182.516C113.966 182.47 114.324 182.427 114.596 182.387C114.867 182.344 115.065 182.281 115.187 182.198C115.31 182.115 115.371 181.992 115.371 181.83L115.371 181.8C115.371 181.485 115.272 181.242 115.073 181.069C114.877 180.897 114.599 180.811 114.238 180.811C113.856 180.811 113.553 180.895 113.328 181.064C113.102 181.23 112.953 181.439 112.88 181.691L110.922 181.532C111.021 181.068 111.217 180.667 111.508 180.329C111.8 179.987 112.176 179.725 112.637 179.543C113.101 179.357 113.638 179.265 114.248 179.265C114.672 179.265 115.078 179.314 115.466 179.414C115.857 179.513 116.203 179.667 116.505 179.876C116.81 180.085 117.05 180.353 117.226 180.681C117.401 181.006 117.489 181.396 117.489 181.85L117.489 187L115.481 187L115.481 185.941L115.421 185.941C115.298 186.18 115.134 186.391 114.929 186.573C114.723 186.752 114.476 186.893 114.188 186.995C113.9 187.095 113.567 187.145 113.189 187.145ZM113.795 185.683C114.107 185.683 114.382 185.622 114.621 185.499C114.859 185.373 115.046 185.204 115.182 184.992C115.318 184.78 115.386 184.539 115.386 184.271L115.386 183.461C115.32 183.504 115.229 183.543 115.113 183.58C115 183.613 114.872 183.645 114.73 183.674C114.587 183.701 114.445 183.726 114.302 183.749C114.16 183.769 114.031 183.787 113.915 183.804C113.666 183.84 113.449 183.898 113.263 183.978C113.078 184.057 112.934 184.165 112.831 184.301C112.728 184.433 112.677 184.599 112.677 184.798C112.677 185.086 112.781 185.307 112.99 185.459C113.202 185.608 113.47 185.683 113.795 185.683ZM121.25 176.818L121.25 187L119.132 187L119.132 176.818L121.25 176.818ZM122.947 187L122.947 179.364L125.064 179.364L125.065 187L122.947 187ZM124.01 178.379C123.696 178.379 123.425 178.275 123.2 178.066C122.978 177.854 122.867 177.601 122.867 177.306C122.867 177.014 122.978 176.764 123.2 176.555C123.425 176.343 123.695 176.237 124.01 176.237C124.325 176.237 124.594 176.343 124.816 176.555C125.041 176.764 125.154 177.014 125.154 177.305C125.154 177.6 125.041 177.854 124.816 178.066C124.594 178.275 124.325 178.379 124.01 178.379ZM133.115 181.541L131.176 181.66C131.143 181.495 131.071 181.346 130.962 181.213C130.853 181.077 130.708 180.969 130.53 180.89C130.354 180.807 130.143 180.766 129.898 180.766C129.57 180.766 129.293 180.835 129.068 180.974C128.842 181.11 128.73 181.293 128.73 181.521C128.73 181.704 128.803 181.858 128.949 181.984C129.094 182.11 129.345 182.211 129.699 182.287L131.081 182.565C131.824 182.718 132.377 182.963 132.742 183.301C133.107 183.639 133.289 184.083 133.289 184.633C133.289 185.134 133.141 185.573 132.846 185.951C132.555 186.329 132.154 186.624 131.643 186.836C131.136 187.045 130.551 187.149 129.888 187.149C128.877 187.149 128.072 186.939 127.472 186.518C126.876 186.094 126.526 185.517 126.423 184.788L128.506 184.678C128.569 184.986 128.722 185.222 128.964 185.384C129.206 185.543 129.515 185.623 129.893 185.623C130.265 185.623 130.563 185.551 130.788 185.409C131.017 185.263 131.133 185.076 131.136 184.847C131.133 184.655 131.052 184.497 130.893 184.375C130.733 184.249 130.488 184.153 130.157 184.087L128.834 183.823C128.089 183.674 127.533 183.415 127.169 183.048C126.808 182.68 126.627 182.211 126.627 181.641C126.627 181.15 126.759 180.728 127.025 180.373C127.293 180.018 127.669 179.745 128.153 179.553C128.64 179.36 129.21 179.264 129.863 179.264C130.828 179.264 131.587 179.468 132.14 179.876C132.697 180.283 133.022 180.838 133.115 181.541ZM138.684 179.363L138.684 180.954L134.085 180.954L134.085 179.363L138.684 179.363ZM135.129 177.534L137.247 177.534L137.248 184.653C137.248 184.849 137.277 185.001 137.337 185.11C137.397 185.217 137.48 185.291 137.586 185.334C137.695 185.377 137.821 185.399 137.963 185.399C138.063 185.399 138.162 185.39 138.262 185.374C138.361 185.354 138.437 185.339 138.49 185.329L138.824 186.905C138.718 186.938 138.568 186.976 138.376 187.019C138.184 187.066 137.95 187.094 137.675 187.104C137.165 187.124 136.717 187.056 136.333 186.9C135.952 186.744 135.655 186.503 135.443 186.174C135.231 185.846 135.126 185.432 135.13 184.932L135.129 177.534Z" fill="#A4A4A4"/>
<rect width="43.4568" height="35.9178" rx="5.52002" transform="matrix(0.969073 0.246937 -0.271359 0.962528 113.93 14.5312)" fill="#8C6C34"/>
<path d="M147.706 54.6814C149.246 49.4199 152.674 37.3361 154.379 30.7829C155.459 26.6305 152.807 25.1385 152.204 24.6355L150.365 31.1588L143.837 54.3154C143.503 55.0605 142.591 56.095 139.634 55.3636L105.674 46.7098C106.246 48.6696 107.957 49.8907 109.045 50.3437L140.64 58.3948C143.653 59.1625 145.938 57.7287 147.198 55.8357C147.434 55.4812 147.587 55.0872 147.706 54.6814Z" fill="#875603"/>
<path d="M133.196 29.2854C135.853 29.9685 137.408 32.6647 136.67 35.307C136.177 37.0682 134.789 38.359 133.132 38.8233L131.72 46.4281L125.533 44.8383L128.276 37.5765C127.082 36.3797 126.554 34.5957 127.046 32.8341C127.785 30.1916 130.539 28.6026 133.196 29.2854Z" fill="#8C7D60"/>
<path d="M132.156 29.014C134.813 29.697 136.368 32.393 135.629 35.0356C135.137 36.7964 133.75 38.0876 132.093 38.5523L130.68 46.1568L124.493 44.5671L127.236 37.3062C126.042 36.1093 125.513 34.3248 126.005 32.5626C126.744 29.9199 129.498 28.331 132.156 29.014Z" fill="#83541E"/>
<path d="M112.399 34.4723C112.179 35.255 111.569 35.6589 111.291 35.7629C110.56 35.7166 110.63 34.3708 110.756 33.7037L114.632 19.9535C115.23 17.8336 116.142 17.5859 117.021 17.4187C118.201 17.1944 122.102 18.5361 124.358 19.1111C123.386 19.0383 120.406 19.1393 118.768 19.1414C117.13 19.1435 116.505 19.9076 116.291 20.6686L112.399 34.4723Z" fill="#8C7D60"/>
<path d="M132.501 29.1036C135.159 29.7864 136.714 32.4828 135.975 35.1252C135.482 36.8861 134.095 38.1774 132.438 38.6417L131.023 46.2509L124.837 44.6611L127.581 37.3946C126.388 36.1979 125.86 34.4138 126.352 32.6524C127.091 30.0101 129.844 28.4208 132.501 29.1036Z" fill="#281C0B"/>
<path d="M147.939 24.2089C148.978 20.5525 148.575 16.6861 146.816 13.4601C145.058 10.2342 142.09 7.91298 138.564 7.00717C135.038 6.10135 131.243 6.68513 128.014 8.63006C124.786 10.575 122.388 13.7218 121.349 17.3781" stroke="#676D7C" stroke-width="3.41402"/>
<path d="M123.014 11.8645C122.889 12.0013 122.827 12.1765 122.849 12.3567C122.871 12.5366 122.975 12.7066 123.131 12.8244C123.287 12.9421 123.482 12.9966 123.664 12.9708C123.847 12.9453 124.004 12.8416 124.106 12.6875C124.198 12.5515 124.28 12.4195 124.36 12.2892C125.603 9.99295 127.615 8.2422 129.921 6.84336C130.046 6.76654 130.174 6.68947 130.306 6.61216C130.164 6.66906 130.026 6.72589 129.89 6.78265C127.424 7.79661 124.968 9.33987 123.291 11.5491C123.196 11.6609 123.104 11.7677 123.014 11.8645Z" fill="#7B808B"/>
<path d="M119.873 16.1651L123.31 17.0383L123.063 17.8261L119.628 16.9468L119.873 16.1651Z" fill="#49586F"/>
<path d="M146.216 23.7701L146.465 22.7937C147.059 22.9464 147.765 23.1108 148.278 23.1672C148.732 23.2172 149.007 22.862 149.079 22.414C150.852 11.416 141.018 5.77244 136.818 5.03064C142.705 5.83453 145.515 8.66594 147.582 11.3058C150.97 15.6339 150.682 21.1857 149.691 24.6708L146.216 23.7701Z" fill="#49586F"/>
<defs>
<filter id="filter0_d_304_2467" x="0.524414" y="44" width="154" height="114" filterUnits="userSpaceOnUse" color-interpolation-filters="sRGB">
<feFlood flood-opacity="0" result="BackgroundImageFix"/>
<feColorMatrix in="SourceAlpha" type="matrix" values="0 0 0 0 0 0 0 0 0 0 0 0 0 0 0 0 0 0 127 0" result="hardAlpha"/>
<feOffset dy="-2"/>
<feGaussianBlur stdDeviation="6"/>
<feComposite in2="hardAlpha" operator="out"/>
<feColorMatrix type="matrix" values="0 0 0 0 0.0923839 0 0 0 0 0.169424 0 0 0 0 0.250995 0 0 0 0.25 0"/>
<feBlend mode="normal" in2="BackgroundImageFix" result="effect1_dropShadow_304_2467"/>
<feBlend mode="normal" in="SourceGraphic" in2="effect1_dropShadow_304_2467" result="shape"/>
</filter>
<linearGradient id="paint0_linear_304_2467" x1="77.5244" y1="58" x2="77.5244" y2="148" gradientUnits="userSpaceOnUse">
<stop stop-color="#DBACF1"/>
<stop offset="1" stop-color="#B583CD"/>
</linearGradient>
</defs>
</svg>
