<svg width="160" height="191" viewBox="0 0 160 191" fill="none" xmlns="http://www.w3.org/2000/svg">
<rect x="12.4419" y="28.4219" width="130" height="120" rx="8" fill="#B583CD"/>
<rect x="12.4419" y="28.4219" width="130" height="120" rx="8" fill="black" fill-opacity="0.6"/>
<g filter="url(#filter0_d_204_1924)">
<path d="M64.6452 58.4219H20.4419C16.0236 58.4219 12.4419 62.0036 12.4419 66.4219L12.4419 103.422V140.422C12.4419 144.84 16.0236 148.422 20.4419 148.422H134.442C138.86 148.422 142.442 144.84 142.442 140.422V82.4856C142.442 78.0673 138.86 74.4856 134.442 74.4856H89.6481C87.7705 74.4856 85.9527 73.8252 84.513 72.62L69.7803 60.2875C68.3406 59.0823 66.5228 58.4219 64.6452 58.4219Z" fill="url(#paint0_linear_204_1924)"/>
<path d="M64.6452 58.4219H20.4419C16.0236 58.4219 12.4419 62.0036 12.4419 66.4219L12.4419 103.422V140.422C12.4419 144.84 16.0236 148.422 20.4419 148.422H134.442C138.86 148.422 142.442 144.84 142.442 140.422V82.4856C142.442 78.0673 138.86 74.4856 134.442 74.4856H89.6481C87.7705 74.4856 85.9527 73.8252 84.513 72.62L69.7803 60.2875C68.3406 59.0823 66.5228 58.4219 64.6452 58.4219Z" fill="black" fill-opacity="0.6"/>
</g>
<path d="M40.5716 160.243L42.7243 160.243L42.7245 166.855C42.7245 167.598 42.5472 168.247 42.1926 168.804C41.8413 169.361 41.3491 169.795 40.7161 170.107C40.0831 170.415 39.3456 170.569 38.5038 170.569C37.6586 170.569 36.9195 170.415 36.2864 170.107C35.6534 169.795 35.1612 169.361 34.8098 168.804C34.4585 168.247 34.2828 167.598 34.2828 166.855L34.2825 160.243L36.4352 160.243L36.4354 166.671C36.4355 167.059 36.52 167.404 36.689 167.705C36.8614 168.007 37.1033 168.244 37.4149 168.416C37.7265 168.589 38.0894 168.675 38.5037 168.675C38.9213 168.675 39.2842 168.589 39.5925 168.416C39.904 168.244 40.1443 168.007 40.3133 167.705C40.4857 167.404 40.5718 167.059 40.5718 166.671L40.5716 160.243ZM46.5139 160.243L48.5673 163.713L48.6468 163.713L50.7099 160.243L53.141 160.243L50.0339 165.334L53.211 170.424L50.7351 170.424L48.6469 166.949L48.5674 166.949L46.4794 170.425L44.0135 170.425L47.2001 165.334L44.0728 160.243L46.5139 160.243ZM58.8981 159.765L55.6173 171.956L53.7927 171.956L57.0735 159.765L58.8981 159.765ZM66.2474 160.242L68.4001 160.242L68.4003 166.854C68.4003 167.597 68.223 168.246 67.8684 168.803C67.5171 169.36 67.0249 169.794 66.3919 170.106C65.7588 170.414 65.0214 170.568 64.1795 170.568C63.3344 170.568 62.5953 170.414 61.9622 170.106C61.3291 169.794 60.8369 169.36 60.4856 168.803C60.1342 168.247 59.9586 167.597 59.9585 166.855L59.9583 160.242L62.111 160.242L62.1112 166.67C62.1112 167.058 62.1958 167.403 62.3648 167.705C62.5372 168.006 62.7791 168.243 63.0907 168.415C63.4022 168.588 63.7652 168.674 64.1795 168.674C64.5971 168.674 64.96 168.588 65.2682 168.415C65.5798 168.243 65.8201 168.006 65.9891 167.704C66.1614 167.403 66.2476 167.058 66.2476 166.67L66.2474 160.242ZM72.3239 160.242L72.3242 170.424L70.1715 170.424L70.1712 160.242L72.3239 160.242ZM80.1098 170.548C79.5297 170.548 79.0044 170.399 78.5337 170.1C78.0664 169.799 77.6952 169.356 77.4201 168.773C77.1483 168.186 77.0124 167.467 77.0123 166.615C77.0123 165.74 77.1531 165.013 77.4348 164.433C77.7165 163.849 78.0911 163.414 78.5584 163.125C79.029 162.834 79.5444 162.688 80.1045 162.688C80.5321 162.688 80.8884 162.761 81.1734 162.906C81.4618 163.049 81.6938 163.228 81.8695 163.443C82.0484 163.655 82.1843 163.864 82.2772 164.07L82.3418 164.07L82.3417 160.242L84.4546 160.241L84.4549 170.423L82.3669 170.423L82.3668 169.2L82.2773 169.2C82.1779 169.412 82.037 169.623 81.8548 169.832C81.6758 170.037 81.4421 170.208 81.1538 170.344C80.8688 170.48 80.5207 170.548 80.1098 170.548ZM80.7809 168.862C81.1222 168.862 81.4106 168.77 81.6459 168.584C81.8845 168.395 82.0668 168.131 82.1928 167.793C82.322 167.455 82.3866 167.059 82.3866 166.605C82.3866 166.151 82.3236 165.757 82.1977 165.422C82.0717 165.087 81.8894 164.829 81.6508 164.646C81.4121 164.464 81.1221 164.373 80.7807 164.373C80.4327 164.373 80.1394 164.467 79.9008 164.656C79.6621 164.845 79.4815 165.107 79.3589 165.442C79.2363 165.777 79.175 166.164 79.175 166.605C79.175 167.049 79.2363 167.442 79.359 167.784C79.4849 168.122 79.6656 168.387 79.9009 168.579C80.1395 168.768 80.4329 168.862 80.7809 168.862ZM86.1962 170.423L86.196 162.787L88.3139 162.787L88.3141 170.423L86.1962 170.423ZM87.2599 161.802C86.945 161.802 86.6749 161.698 86.4495 161.489C86.2274 161.277 86.1164 161.024 86.1164 160.729C86.1163 160.437 86.2274 160.187 86.4494 159.978C86.6748 159.766 86.9449 159.66 87.2598 159.66C87.5747 159.66 87.8431 159.766 88.0652 159.978C88.2906 160.187 88.4033 160.437 88.4033 160.729C88.4033 161.024 88.2906 161.277 88.0652 161.489C87.8432 161.698 87.5747 161.802 87.2599 161.802ZM96.3642 164.964L94.4253 165.083C94.3921 164.918 94.3209 164.769 94.2115 164.636C94.1021 164.5 93.9579 164.392 93.7789 164.313C93.6033 164.23 93.3928 164.189 93.1475 164.189C92.8194 164.189 92.5427 164.258 92.3173 164.397C92.0919 164.533 91.9792 164.716 91.9792 164.944C91.9793 165.127 92.0522 165.281 92.198 165.407C92.3438 165.533 92.5941 165.634 92.9487 165.71L94.3308 165.988C95.0733 166.141 95.6268 166.386 95.9914 166.724C96.356 167.062 96.5383 167.506 96.5383 168.056C96.5383 168.557 96.3908 168.996 96.0959 169.374C95.8042 169.752 95.4032 170.047 94.8928 170.259C94.3857 170.468 93.8007 170.572 93.1378 170.572C92.1269 170.572 91.3215 170.362 90.7216 169.941C90.125 169.517 89.7753 168.94 89.6725 168.211L91.7556 168.101C91.8186 168.41 91.9711 168.645 92.213 168.807C92.455 168.966 92.7649 169.046 93.1427 169.046C93.5139 169.046 93.8122 168.975 94.0376 168.832C94.2663 168.686 94.3823 168.499 94.3856 168.27C94.3823 168.078 94.3011 167.921 94.142 167.798C93.9829 167.672 93.7376 167.576 93.4062 167.51L92.0837 167.246C91.338 167.097 90.7828 166.839 90.4182 166.471C90.0569 166.103 89.8763 165.634 89.8763 165.064C89.8762 164.573 90.0088 164.151 90.274 163.796C90.5424 163.441 90.9186 163.168 91.4025 162.976C91.8897 162.783 92.4598 162.687 93.1127 162.687C94.0772 162.687 94.8362 162.891 95.3897 163.299C95.9465 163.706 96.2714 164.261 96.3642 164.964ZM100.05 170.567C99.5624 170.567 99.1282 170.482 98.747 170.313C98.3658 170.141 98.0642 169.888 97.8421 169.553C97.6234 169.215 97.514 168.794 97.514 168.29C97.514 167.866 97.5918 167.509 97.7476 167.221C97.9034 166.933 98.1155 166.701 98.3839 166.525C98.6524 166.349 98.9573 166.217 99.2987 166.127C99.6434 166.038 100.005 165.975 100.383 165.938C100.827 165.892 101.185 165.849 101.456 165.809C101.728 165.766 101.925 165.703 102.048 165.62C102.171 165.537 102.232 165.415 102.232 165.252L102.232 165.222C102.232 164.908 102.132 164.664 101.934 164.492C101.738 164.319 101.46 164.233 101.098 164.233C100.717 164.233 100.414 164.318 100.189 164.487C99.9632 164.652 99.8141 164.861 99.7411 165.113L97.7823 164.954C97.8818 164.49 98.0773 164.089 98.3689 163.751C98.6606 163.41 99.0368 163.148 99.4975 162.965C99.9615 162.78 100.498 162.687 101.108 162.687C101.532 162.687 101.939 162.737 102.326 162.836C102.717 162.935 103.064 163.09 103.365 163.298C103.67 163.507 103.911 163.776 104.086 164.104C104.262 164.429 104.35 164.818 104.35 165.272L104.35 170.423L102.341 170.423L102.341 169.364L102.282 169.364C102.159 169.602 101.995 169.813 101.79 169.995C101.584 170.174 101.337 170.315 101.049 170.418C100.761 170.517 100.427 170.567 100.05 170.567ZM100.656 169.105C100.968 169.105 101.243 169.044 101.481 168.921C101.72 168.795 101.907 168.626 102.043 168.414C102.179 168.202 102.247 167.962 102.247 167.693L102.247 166.883C102.181 166.926 102.089 166.966 101.973 167.002C101.861 167.035 101.733 167.067 101.591 167.097C101.448 167.123 101.306 167.148 101.163 167.171C101.021 167.191 100.891 167.209 100.775 167.226C100.527 167.262 100.31 167.32 100.124 167.4C99.9384 167.48 99.7943 167.587 99.6915 167.723C99.5888 167.856 99.5374 168.022 99.5374 168.22C99.5374 168.509 99.6418 168.729 99.8506 168.882C100.063 169.031 100.331 169.105 100.656 169.105ZM105.993 170.423L105.993 162.786L108.111 162.786L108.111 170.422L105.993 170.423ZM107.057 161.802C106.742 161.802 106.472 161.697 106.246 161.489C106.024 161.276 105.913 161.023 105.913 160.728C105.913 160.436 106.024 160.186 106.246 159.977C106.472 159.765 106.742 159.659 107.057 159.659C107.372 159.659 107.64 159.765 107.862 159.977C108.087 160.186 108.2 160.436 108.2 160.728C108.2 161.023 108.087 161.276 107.862 161.489C107.64 161.697 107.372 161.802 107.057 161.802ZM111.925 166.008L111.925 170.422L109.808 170.422L109.807 162.786L111.826 162.786L111.826 164.133L111.915 164.133C112.084 163.689 112.368 163.338 112.765 163.079C113.163 162.817 113.645 162.687 114.212 162.686C114.742 162.686 115.205 162.802 115.599 163.034C115.994 163.266 116.3 163.598 116.519 164.029C116.738 164.456 116.847 164.967 116.847 165.56L116.847 170.422L114.729 170.422L114.729 165.938C114.733 165.471 114.613 165.106 114.371 164.844C114.129 164.579 113.796 164.446 113.372 164.446C113.087 164.446 112.835 164.508 112.616 164.63C112.401 164.753 112.232 164.932 112.109 165.167C111.99 165.399 111.929 165.679 111.925 166.008ZM118.517 170.422L118.516 162.786L120.634 162.786L120.634 170.422L118.517 170.422ZM119.58 161.801C119.265 161.801 118.995 161.697 118.77 161.488C118.548 161.276 118.437 161.023 118.437 160.728C118.437 160.436 118.548 160.186 118.77 159.977C118.995 159.765 119.265 159.659 119.58 159.659C119.895 159.659 120.163 159.765 120.386 159.977C120.611 160.186 120.724 160.436 120.724 160.727C120.724 161.022 120.611 161.276 120.386 161.488C120.163 161.697 119.895 161.801 119.58 161.801ZM18.629 183.011L18.6291 187.425L16.5112 187.426L16.511 179.789L18.5295 179.789L18.5295 181.136L18.619 181.136C18.788 180.692 19.0714 180.341 19.4691 180.082C19.8668 179.821 20.3491 179.69 20.9158 179.69C21.4461 179.69 21.9085 179.806 22.3029 180.038C22.6973 180.27 23.0039 180.601 23.2227 181.032C23.4414 181.459 23.5508 181.97 23.5509 182.563L23.551 187.425L21.4331 187.425L21.433 182.941C21.4363 182.474 21.3169 182.109 21.075 181.847C20.833 181.582 20.4999 181.45 20.0757 181.45C19.7906 181.45 19.5387 181.511 19.32 181.634C19.1046 181.756 18.9355 181.935 18.8129 182.171C18.6936 182.403 18.6323 182.683 18.629 183.011ZM28.6705 187.574C27.8983 187.574 27.2304 187.41 26.667 187.082C26.1068 186.751 25.6743 186.29 25.3693 185.7C25.0644 185.107 24.9119 184.419 24.9119 183.637C24.9118 182.848 25.0643 182.159 25.3692 181.569C25.6741 180.975 26.1066 180.515 26.6667 180.187C27.2302 179.855 27.898 179.689 28.6703 179.689C29.4425 179.689 30.1087 179.855 30.6689 180.186C31.2323 180.515 31.6665 180.975 31.9715 181.569C32.2764 182.158 32.4289 182.848 32.4289 183.637C32.4289 184.419 32.2765 185.107 31.9716 185.7C31.6667 186.29 31.2325 186.751 30.6691 187.082C30.109 187.41 29.4428 187.574 28.6705 187.574ZM28.6804 185.934C29.0317 185.934 29.3251 185.834 29.5604 185.635C29.7957 185.433 29.973 185.158 30.0923 184.81C30.2149 184.462 30.2762 184.066 30.2762 183.622C30.2762 183.178 30.2149 182.782 30.0922 182.434C29.9729 182.086 29.7956 181.811 29.5602 181.608C29.3249 181.406 29.0316 181.305 28.6803 181.305C28.3256 181.305 28.0273 181.406 27.7854 181.608C27.5467 181.811 27.3661 182.086 27.2435 182.434C27.1242 182.782 27.0645 183.178 27.0646 183.622C27.0646 184.066 27.1243 184.462 27.2436 184.81C27.3662 185.158 27.5469 185.433 27.7855 185.635C28.0275 185.834 28.3258 185.934 28.6804 185.934ZM37.2565 187.574C36.4842 187.574 35.8163 187.41 35.2529 187.082C34.6927 186.75 34.2602 186.29 33.9553 185.7C33.6503 185.107 33.4978 184.419 33.4978 183.637C33.4978 182.848 33.6502 182.158 33.9551 181.568C34.26 180.975 34.6925 180.514 35.2527 180.186C35.8161 179.855 36.4839 179.689 37.2562 179.689C38.0284 179.689 38.6946 179.855 39.2548 180.186C39.8182 180.514 40.2524 180.975 40.5574 181.568C40.8623 182.158 41.0148 182.848 41.0148 183.636C41.0149 184.419 40.8624 185.106 40.5575 185.7C40.2526 186.29 39.8185 186.75 39.255 187.082C38.6949 187.41 38.0287 187.574 37.2565 187.574ZM37.2663 185.933C37.6177 185.933 37.911 185.834 38.1463 185.635C38.3816 185.433 38.5589 185.158 38.6782 184.81C38.8009 184.462 38.8622 184.066 38.8621 183.622C38.8621 183.177 38.8008 182.781 38.6782 182.433C38.5588 182.085 38.3815 181.81 38.1462 181.608C37.9108 181.406 37.6175 181.305 37.2662 181.305C36.9116 181.305 36.6133 181.406 36.3713 181.608C36.1327 181.81 35.9521 182.085 35.8294 182.433C35.7101 182.781 35.6505 183.178 35.6505 183.622C35.6505 184.066 35.7102 184.462 35.8295 184.81C35.9522 185.158 36.1328 185.433 36.3714 185.635C36.6134 185.834 36.9117 185.933 37.2663 185.933ZM42.3921 187.425L42.3919 179.788L44.4451 179.788L44.4452 181.121L44.5247 181.121C44.6639 180.647 44.8975 180.289 45.2257 180.047C45.5538 179.801 45.9316 179.679 46.3592 179.679C46.4652 179.679 46.5796 179.685 46.7022 179.699C46.8248 179.712 46.9326 179.73 47.0254 179.753L47.0254 181.633C46.926 181.603 46.7885 181.576 46.6128 181.553C46.4371 181.53 46.2764 181.518 46.1305 181.518C45.819 181.518 45.5406 181.586 45.2953 181.722C45.0534 181.855 44.8611 182.04 44.7186 182.279C44.5794 182.518 44.5098 182.793 44.5099 183.104L44.51 187.425L42.3921 187.425ZM51.2453 187.574C50.4598 187.574 49.7836 187.415 49.2168 187.096C48.6534 186.775 48.2192 186.321 47.9142 185.734C47.6093 185.144 47.4568 184.447 47.4568 183.641C47.4568 182.856 47.6092 182.166 47.9141 181.573C48.219 180.98 48.6482 180.517 49.2017 180.186C49.7585 179.854 50.4114 179.689 51.1605 179.689C51.6643 179.689 52.1333 179.77 52.5675 179.932C53.005 180.091 53.3861 180.332 53.7109 180.653C54.0391 180.974 54.2943 181.379 54.4766 181.866C54.6589 182.35 54.7501 182.917 54.7501 183.566L54.7501 184.148L48.302 184.148L48.3019 182.836L52.7565 182.836C52.7565 182.531 52.6902 182.261 52.5576 182.025C52.425 181.79 52.241 181.606 52.0057 181.473C51.7737 181.337 51.5036 181.27 51.1953 181.27C50.8738 181.27 50.5888 181.344 50.3402 181.493C50.095 181.639 49.9027 181.836 49.7636 182.085C49.6244 182.33 49.5531 182.604 49.5498 182.905L49.5498 184.153C49.5499 184.531 49.6195 184.857 49.7587 185.133C49.9012 185.408 50.1017 185.62 50.3603 185.769C50.6188 185.918 50.9254 185.993 51.28 185.993C51.5153 185.993 51.7308 185.959 51.9263 185.893C52.1219 185.827 52.2892 185.727 52.4284 185.595C52.5676 185.462 52.6737 185.3 52.7466 185.108L54.7054 185.237C54.606 185.707 54.4022 186.118 54.094 186.47C53.789 186.818 53.3946 187.09 52.9107 187.285C52.4302 187.477 51.875 187.574 51.2453 187.574ZM56.1323 187.424L56.1321 179.788L58.1506 179.788L58.1506 181.135L58.2401 181.135C58.3992 180.688 58.6643 180.335 59.0355 180.076C59.4067 179.818 59.8508 179.688 60.3679 179.688C60.8916 179.688 61.3373 179.819 61.7052 180.081C62.0732 180.34 62.3184 180.691 62.4411 181.135L62.5206 181.135C62.6764 180.697 62.9581 180.348 63.3658 180.086C63.7767 179.821 64.2623 179.688 64.8224 179.688C65.535 179.688 66.1134 179.915 66.5575 180.369C67.005 180.82 67.2287 181.46 67.2288 182.288L67.2289 187.424L65.116 187.424L65.1158 182.706C65.1158 182.282 65.0031 181.963 64.7777 181.751C64.5524 181.539 64.2706 181.433 63.9326 181.433C63.5481 181.433 63.2481 181.556 63.0327 181.801C62.8173 182.043 62.7096 182.363 62.7096 182.761L62.7098 187.424L60.6565 187.424L60.6563 182.661C60.6563 182.287 60.5486 181.988 60.3331 181.766C60.121 181.544 59.8409 181.433 59.4929 181.433C59.2576 181.433 59.0455 181.493 58.8566 181.612C58.671 181.728 58.5235 181.892 58.4141 182.105C58.3048 182.313 58.2501 182.559 58.2501 182.84L58.2502 187.424L56.1323 187.424ZM75.2554 181.965L73.3165 182.084C73.2833 181.918 73.2121 181.769 73.1027 181.637C72.9933 181.501 72.8491 181.393 72.6701 181.314C72.4945 181.231 72.284 181.189 72.0387 181.189C71.7106 181.189 71.4339 181.259 71.2085 181.398C70.9831 181.534 70.8704 181.716 70.8704 181.945C70.8704 182.127 70.9434 182.281 71.0892 182.407C71.235 182.533 71.4853 182.634 71.8399 182.711L73.222 182.989C73.9645 183.141 74.518 183.387 74.8826 183.725C75.2472 184.063 75.4295 184.507 75.4295 185.057C75.4295 185.558 75.282 185.997 74.9871 186.375C74.6954 186.752 74.2944 187.047 73.784 187.26C73.2769 187.468 72.6919 187.573 72.029 187.573C71.0181 187.573 70.2127 187.362 69.6128 186.942C69.0162 186.517 68.6665 185.941 68.5637 185.211L70.6468 185.102C70.7098 185.41 70.8623 185.646 71.1042 185.808C71.3462 185.967 71.6561 186.047 72.0339 186.047C72.4051 186.047 72.7034 185.975 72.9288 185.833C73.1575 185.687 73.2735 185.5 73.2768 185.271C73.2735 185.079 73.1923 184.921 73.0332 184.799C72.8741 184.673 72.6288 184.577 72.2974 184.51L70.9749 184.247C70.2292 184.098 69.674 183.839 69.3094 183.471C68.9481 183.103 68.7675 182.635 68.7675 182.064C68.7674 181.574 68.9 181.151 69.1651 180.797C69.4336 180.442 69.8098 180.169 70.2937 179.976C70.7809 179.784 71.3509 179.688 72.0039 179.688C72.9684 179.688 73.7274 179.892 74.2809 180.299C74.8377 180.707 75.1626 181.262 75.2554 181.965ZM76.7633 190.287L76.7629 179.787L78.851 179.787L78.8511 181.07L78.9455 181.07C79.0383 180.864 79.1725 180.655 79.3482 180.443C79.5272 180.228 79.7592 180.049 80.0442 179.906C80.3325 179.761 80.6905 179.688 81.1181 179.688C81.6749 179.688 82.1886 179.833 82.6593 180.125C83.1299 180.413 83.5061 180.849 83.7879 181.433C84.0696 182.013 84.2105 182.74 84.2105 183.615C84.2105 184.467 84.073 185.186 83.7979 185.773C83.5262 186.356 83.155 186.799 82.6844 187.1C82.217 187.399 81.6934 187.548 81.1133 187.548C80.7024 187.548 80.3527 187.48 80.0643 187.344C79.7793 187.208 79.5456 187.037 79.3633 186.832C79.181 186.623 79.0418 186.413 78.9457 186.2L78.8811 186.2L78.8812 190.287L76.7633 190.287ZM78.8362 183.605C78.8362 184.059 78.8992 184.455 79.0252 184.794C79.1511 185.132 79.3334 185.395 79.5721 185.584C79.8107 185.77 80.1007 185.862 80.4421 185.862C80.7868 185.862 81.0785 185.768 81.3171 185.579C81.5557 185.387 81.7364 185.122 81.859 184.783C81.9849 184.442 82.0479 184.049 82.0479 183.605C82.0479 183.164 81.9865 182.777 81.8639 182.442C81.7412 182.107 81.5606 181.845 81.322 181.656C81.0833 181.467 80.79 181.373 80.442 181.373C80.0973 181.373 79.8056 181.464 79.567 181.646C79.3317 181.829 79.151 182.087 79.0251 182.422C78.8992 182.757 78.8362 183.151 78.8362 183.605ZM89.1027 187.572C88.3172 187.572 87.641 187.413 87.0743 187.095C86.5108 186.774 86.0766 186.32 85.7717 185.733C85.4667 185.143 85.3142 184.445 85.3142 183.64C85.3142 182.854 85.4666 182.165 85.7715 181.572C86.0764 180.978 86.5056 180.516 87.0591 180.185C87.6159 179.853 88.2689 179.687 89.0179 179.687C89.5217 179.687 89.9907 179.769 90.4249 179.931C90.8624 180.09 91.2435 180.33 91.5684 180.652C91.8965 180.973 92.1517 181.378 92.334 181.865C92.5163 182.349 92.6075 182.915 92.6075 183.565L92.6076 184.147L86.1594 184.147L86.1594 182.834L90.6139 182.834C90.6139 182.529 90.5476 182.259 90.415 182.024C90.2824 181.789 90.0985 181.605 89.8631 181.472C89.6311 181.336 89.361 181.268 89.0528 181.268C88.7313 181.268 88.4462 181.343 88.1977 181.492C87.9524 181.638 87.7602 181.835 87.621 182.084C87.4818 182.329 87.4105 182.602 87.4072 182.904L87.4073 184.152C87.4073 184.53 87.4769 184.856 87.6161 185.131C87.7586 185.406 87.9592 185.618 88.2177 185.768C88.4762 185.917 88.7828 185.991 89.1374 185.991C89.3728 185.991 89.5882 185.958 89.7837 185.892C89.9793 185.826 90.1467 185.726 90.2859 185.594C90.4251 185.461 90.5311 185.299 90.604 185.106L92.5628 185.236C92.4634 185.706 92.2596 186.117 91.9514 186.468C91.6465 186.817 91.2521 187.088 90.7682 187.284C90.2876 187.476 89.7324 187.572 89.1027 187.572ZM98.0513 179.786L98.0513 181.377L93.4526 181.378L93.4526 179.787L98.0513 179.786ZM94.4965 177.957L96.6144 177.957L96.6147 185.076C96.6147 185.272 96.6445 185.424 96.7042 185.534C96.7639 185.64 96.8467 185.714 96.9528 185.757C97.0622 185.8 97.1881 185.822 97.3306 185.822C97.43 185.822 97.5295 185.814 97.6289 185.797C97.7283 185.777 97.8046 185.762 97.8576 185.752L98.1908 187.328C98.0847 187.362 97.9355 187.4 97.7433 187.443C97.5511 187.489 97.3174 187.517 97.0423 187.527C96.5319 187.547 96.0845 187.479 95.7 187.323C95.3188 187.168 95.0222 186.926 94.81 186.598C94.5979 186.27 94.4935 185.855 94.4968 185.355L94.4965 177.957ZM105.689 181.964L103.75 182.083C103.717 181.917 103.646 181.768 103.536 181.636C103.427 181.5 103.283 181.392 103.104 181.313C102.928 181.23 102.718 181.188 102.472 181.188C102.144 181.188 101.867 181.258 101.642 181.397C101.417 181.533 101.304 181.715 101.304 181.944C101.304 182.126 101.377 182.28 101.523 182.406C101.669 182.532 101.919 182.633 102.274 182.71L103.656 182.988C104.398 183.14 104.952 183.386 105.316 183.724C105.681 184.062 105.863 184.506 105.863 185.056C105.863 185.557 105.716 185.996 105.421 186.374C105.129 186.751 104.728 187.046 104.218 187.259C103.71 187.467 103.125 187.572 102.463 187.572C101.452 187.572 100.646 187.361 100.046 186.941C99.4498 186.516 99.1001 185.94 98.9973 185.21L101.08 185.101C101.143 185.409 101.296 185.645 101.538 185.807C101.78 185.966 102.09 186.046 102.468 186.046C102.839 186.046 103.137 185.974 103.362 185.832C103.591 185.686 103.707 185.499 103.71 185.27C103.707 185.078 103.626 184.92 103.467 184.798C103.308 184.672 103.062 184.576 102.731 184.509L101.409 184.246C100.663 184.097 100.108 183.838 99.743 183.47C99.3817 183.102 99.2011 182.633 99.2011 182.063C99.201 181.573 99.3336 181.15 99.5987 180.796C99.8672 180.441 100.243 180.168 100.727 179.975C101.214 179.783 101.785 179.687 102.437 179.687C103.402 179.687 104.161 179.891 104.714 180.298C105.271 180.706 105.596 181.261 105.689 181.964ZM107.197 187.423L107.197 179.786L109.314 179.786L109.315 187.422L107.197 187.423ZM108.26 178.802C107.946 178.802 107.675 178.697 107.45 178.489C107.228 178.276 107.117 178.023 107.117 177.728C107.117 177.436 107.228 177.186 107.45 176.977C107.675 176.765 107.945 176.659 108.26 176.659C108.575 176.659 108.844 176.765 109.066 176.977C109.291 177.186 109.404 177.436 109.404 177.728C109.404 178.023 109.291 178.276 109.066 178.489C108.844 178.697 108.575 178.802 108.26 178.802ZM113.189 187.567C112.702 187.567 112.267 187.482 111.886 187.313C111.505 187.141 111.203 186.887 110.981 186.552C110.763 186.214 110.653 185.793 110.653 185.29C110.653 184.865 110.731 184.509 110.887 184.221C111.043 183.932 111.255 183.7 111.523 183.525C111.792 183.349 112.097 183.216 112.438 183.127C112.783 183.037 113.144 182.974 113.522 182.938C113.966 182.892 114.324 182.848 114.596 182.809C114.867 182.766 115.065 182.703 115.187 182.62C115.31 182.537 115.371 182.414 115.371 182.252L115.371 182.222C115.371 181.907 115.272 181.664 115.073 181.491C114.877 181.319 114.599 181.233 114.238 181.233C113.856 181.233 113.553 181.317 113.328 181.486C113.102 181.652 112.953 181.861 112.88 182.113L110.922 181.954C111.021 181.49 111.217 181.089 111.508 180.751C111.8 180.409 112.176 180.147 112.637 179.965C113.101 179.779 113.638 179.687 114.247 179.686C114.672 179.686 115.078 179.736 115.466 179.836C115.857 179.935 116.203 180.089 116.505 180.298C116.81 180.507 117.05 180.775 117.226 181.103C117.401 181.428 117.489 181.818 117.489 182.272L117.489 187.422L115.481 187.422L115.481 186.363L115.421 186.363C115.298 186.602 115.134 186.812 114.929 186.995C114.723 187.174 114.476 187.315 114.188 187.417C113.9 187.517 113.567 187.566 113.189 187.567ZM113.795 186.105C114.107 186.105 114.382 186.044 114.621 185.921C114.859 185.795 115.046 185.626 115.182 185.414C115.318 185.202 115.386 184.961 115.386 184.693L115.386 183.882C115.32 183.926 115.229 183.965 115.113 184.002C115 184.035 114.872 184.066 114.73 184.096C114.587 184.123 114.445 184.148 114.302 184.171C114.16 184.191 114.031 184.209 113.915 184.226C113.666 184.262 113.449 184.32 113.263 184.4C113.078 184.479 112.934 184.587 112.831 184.723C112.728 184.855 112.677 185.021 112.677 185.22C112.677 185.508 112.781 185.729 112.99 185.881C113.202 186.03 113.47 186.105 113.795 186.105ZM121.25 177.24L121.25 187.422L119.132 187.422L119.132 177.24L121.25 177.24ZM122.947 187.422L122.947 179.786L125.064 179.786L125.065 187.422L122.947 187.422ZM124.01 178.801C123.696 178.801 123.425 178.697 123.2 178.488C122.978 178.276 122.867 178.022 122.867 177.727C122.867 177.436 122.978 177.185 123.2 176.977C123.425 176.765 123.695 176.658 124.01 176.658C124.325 176.658 124.594 176.765 124.816 176.977C125.041 177.185 125.154 177.436 125.154 177.727C125.154 178.022 125.041 178.276 124.816 178.488C124.594 178.697 124.325 178.801 124.01 178.801ZM133.115 181.963L131.176 182.082C131.143 181.917 131.071 181.767 130.962 181.635C130.853 181.499 130.708 181.391 130.53 181.312C130.354 181.229 130.143 181.187 129.898 181.187C129.57 181.187 129.293 181.257 129.068 181.396C128.842 181.532 128.73 181.714 128.73 181.943C128.73 182.125 128.803 182.28 128.949 182.405C129.094 182.531 129.345 182.632 129.699 182.709L131.081 182.987C131.824 183.14 132.377 183.385 132.742 183.723C133.107 184.061 133.289 184.505 133.289 185.055C133.289 185.556 133.141 185.995 132.846 186.373C132.555 186.751 132.154 187.046 131.643 187.258C131.136 187.466 130.551 187.571 129.888 187.571C128.877 187.571 128.072 187.361 127.472 186.94C126.876 186.515 126.526 185.939 126.423 185.21L128.506 185.1C128.569 185.408 128.722 185.644 128.964 185.806C129.206 185.965 129.515 186.045 129.893 186.045C130.265 186.045 130.563 185.973 130.788 185.831C131.017 185.685 131.133 185.498 131.136 185.269C131.133 185.077 131.052 184.919 130.893 184.797C130.733 184.671 130.488 184.575 130.157 184.508L128.834 184.245C128.089 184.096 127.533 183.837 127.169 183.469C126.808 183.102 126.627 182.633 126.627 182.063C126.627 181.572 126.759 181.149 127.025 180.795C127.293 180.44 127.669 180.167 128.153 179.974C128.64 179.782 129.21 179.686 129.863 179.686C130.828 179.686 131.587 179.89 132.14 180.297C132.697 180.705 133.022 181.26 133.115 181.963ZM138.684 179.785L138.684 181.376L134.085 181.376L134.085 179.785L138.684 179.785ZM135.129 177.956L137.247 177.956L137.247 185.075C137.248 185.27 137.277 185.423 137.337 185.532C137.397 185.638 137.48 185.713 137.586 185.756C137.695 185.799 137.821 185.821 137.963 185.821C138.063 185.821 138.162 185.812 138.262 185.796C138.361 185.776 138.437 185.761 138.49 185.751L138.824 187.327C138.718 187.36 138.568 187.398 138.376 187.441C138.184 187.488 137.95 187.516 137.675 187.526C137.165 187.546 136.717 187.478 136.333 187.322C135.952 187.166 135.655 186.924 135.443 186.596C135.231 186.268 135.126 185.854 135.13 185.353L135.129 177.956Z" fill="#A4A4A4"/>
<rect width="43.4568" height="35.9178" rx="5.52002" transform="matrix(0.969073 0.246937 -0.271359 0.962528 113.93 14.5312)" fill="#8C6C34"/>
<path d="M147.706 54.6814C149.246 49.4199 152.674 37.3361 154.379 30.7829C155.459 26.6305 152.807 25.1385 152.204 24.6355L150.365 31.1588L143.837 54.3154C143.503 55.0605 142.591 56.095 139.634 55.3636L105.674 46.7098C106.246 48.6696 107.957 49.8907 109.045 50.3437L140.64 58.3948C143.653 59.1625 145.938 57.7287 147.198 55.8357C147.434 55.4812 147.587 55.0872 147.706 54.6814Z" fill="#875603"/>
<path d="M133.196 29.2854C135.853 29.9685 137.408 32.6647 136.67 35.307C136.177 37.0682 134.789 38.359 133.132 38.8233L131.72 46.4281L125.533 44.8383L128.276 37.5765C127.082 36.3797 126.554 34.5957 127.046 32.8341C127.785 30.1916 130.539 28.6026 133.196 29.2854Z" fill="#8C7D60"/>
<path d="M132.156 29.014C134.813 29.697 136.368 32.393 135.629 35.0356C135.137 36.7964 133.75 38.0876 132.093 38.5523L130.68 46.1568L124.493 44.5671L127.236 37.3062C126.042 36.1093 125.513 34.3248 126.005 32.5626C126.744 29.9199 129.498 28.331 132.156 29.014Z" fill="#83541E"/>
<path d="M112.399 34.4723C112.179 35.255 111.569 35.6589 111.291 35.7629C110.56 35.7166 110.63 34.3708 110.756 33.7037L114.632 19.9535C115.23 17.8336 116.142 17.5859 117.021 17.4187C118.201 17.1944 122.102 18.5361 124.358 19.1111C123.386 19.0383 120.406 19.1393 118.768 19.1414C117.13 19.1435 116.505 19.9076 116.291 20.6686L112.399 34.4723Z" fill="#8C7D60"/>
<path d="M132.501 29.1036C135.159 29.7864 136.714 32.4828 135.975 35.1252C135.482 36.8861 134.095 38.1774 132.438 38.6417L131.023 46.2509L124.837 44.6611L127.581 37.3946C126.388 36.1979 125.86 34.4138 126.352 32.6524C127.091 30.0101 129.844 28.4208 132.501 29.1036Z" fill="#281C0B"/>
<path d="M147.939 24.2089C148.978 20.5525 148.575 16.6861 146.816 13.4601C145.058 10.2342 142.09 7.91298 138.564 7.00717C135.038 6.10135 131.243 6.68513 128.014 8.63006C124.786 10.575 122.388 13.7218 121.349 17.3781" stroke="#676D7C" stroke-width="3.41402"/>
<path d="M123.014 11.8645C122.889 12.0013 122.827 12.1765 122.849 12.3567C122.871 12.5366 122.975 12.7066 123.131 12.8244C123.287 12.9421 123.482 12.9966 123.664 12.9708C123.847 12.9453 124.004 12.8416 124.106 12.6875C124.198 12.5515 124.28 12.4195 124.36 12.2892C125.603 9.99295 127.615 8.2422 129.921 6.84336C130.046 6.76654 130.174 6.68947 130.306 6.61216C130.164 6.66906 130.026 6.72589 129.89 6.78265C127.424 7.79661 124.968 9.33987 123.291 11.5491C123.196 11.6609 123.104 11.7677 123.014 11.8645Z" fill="#7B808B"/>
<path d="M119.873 16.1651L123.31 17.0383L123.063 17.8261L119.628 16.9468L119.873 16.1651Z" fill="#49586F"/>
<path d="M146.216 23.7701L146.465 22.7937C147.059 22.9464 147.765 23.1108 148.278 23.1672C148.732 23.2172 149.007 22.862 149.079 22.414C150.852 11.416 141.018 5.77244 136.818 5.03064C142.705 5.83453 145.515 8.66594 147.582 11.3058C150.97 15.6339 150.682 21.1857 149.691 24.6708L146.216 23.7701Z" fill="#49586F"/>
<defs>
<filter id="filter0_d_204_1924" x="0.441895" y="44.4219" width="154" height="114" filterUnits="userSpaceOnUse" color-interpolation-filters="sRGB">
<feFlood flood-opacity="0" result="BackgroundImageFix"/>
<feColorMatrix in="SourceAlpha" type="matrix" values="0 0 0 0 0 0 0 0 0 0 0 0 0 0 0 0 0 0 127 0" result="hardAlpha"/>
<feOffset dy="-2"/>
<feGaussianBlur stdDeviation="6"/>
<feComposite in2="hardAlpha" operator="out"/>
<feColorMatrix type="matrix" values="0 0 0 0 0.0923839 0 0 0 0 0.169424 0 0 0 0 0.250995 0 0 0 0.25 0"/>
<feBlend mode="normal" in2="BackgroundImageFix" result="effect1_dropShadow_204_1924"/>
<feBlend mode="normal" in="SourceGraphic" in2="effect1_dropShadow_204_1924" result="shape"/>
</filter>
<linearGradient id="paint0_linear_204_1924" x1="77.4419" y1="58.4219" x2="77.4419" y2="148.422" gradientUnits="userSpaceOnUse">
<stop stop-color="#DBACF1"/>
<stop offset="1" stop-color="#B583CD"/>
</linearGradient>
</defs>
</svg>
