<svg width="155" height="162" viewBox="0 0 155 162" fill="none" xmlns="http://www.w3.org/2000/svg">
<rect x="12.1377" width="130" height="120" rx="8" fill="#B583CD"/>
<path d="M29.6076 32.8517L51.9471 24.2796C54.4961 23.3015 57.3729 24.5743 58.3696 27.1277L66.7624 48.6277C67.7592 51.1811 66.4962 54.0424 63.9472 55.0205L41.6076 63.5925C39.0586 64.5706 36.1819 63.2979 35.1851 60.7445L26.7923 39.2445L26.7056 39.0037C25.9028 36.594 27.0588 33.9747 29.3721 32.9494L29.6076 32.8517Z" fill="#470137" stroke="white" stroke-width="2"/>
<path d="M45.208 38.1807L44.0177 44.9855L49.8856 49.4748C49.9246 49.5071 49.9498 49.5528 49.9563 49.6028C49.9583 49.6244 49.9482 49.6338 49.9302 49.6415L49.9097 49.6491L49.8847 49.6579C49.8713 49.663 49.8566 49.6694 49.8411 49.6785L47.2604 50.6687L47.2094 50.6874C47.0688 50.7372 46.9609 50.7557 46.8599 50.6772C46.4374 50.3017 46.0162 49.9292 45.5964 49.5595C45.2288 49.2364 44.8471 48.9105 44.4514 48.582L44.2809 48.4411C43.824 48.0652 43.3677 47.682 42.9119 47.2915L42.8939 47.2984C42.8411 47.8702 42.7795 48.4452 42.7091 49.0236C42.6383 49.6022 42.5696 50.1766 42.5028 50.7466C42.4359 51.317 42.3618 51.8865 42.2805 52.4551C42.2752 52.5666 42.2125 52.6135 42.1156 52.6545L42.0751 52.6708L39.611 53.6163L39.6004 53.6207L39.5664 53.6374C39.5473 53.6461 39.534 53.6464 39.5186 53.6182C39.4948 53.577 39.4869 53.5285 39.4965 53.482L40.7424 46.4491L35.1286 42.0277C35.074 41.9938 35.0528 41.9571 35.0649 41.9177C35.0797 41.8763 35.1132 41.8443 35.1553 41.8313L37.6914 40.8582C37.7455 40.834 37.8044 40.822 37.8638 40.8231C37.9163 40.8309 37.9664 40.8506 38.0103 40.8806C38.4134 41.2774 38.8404 41.665 39.2914 42.0432C39.7423 42.4217 40.1939 42.7929 40.6464 43.1568C41.0987 43.5209 41.5324 43.899 41.9474 44.2911L41.9654 44.2842C42.0133 43.7008 42.0689 43.128 42.1323 42.566C42.1954 42.0042 42.2635 41.437 42.3366 40.8644C42.4095 40.292 42.4746 39.726 42.5319 39.1662C42.5284 39.1166 42.5375 39.0669 42.5583 39.0217C42.5939 38.9822 42.6402 38.9536 42.6916 38.9395L45.0478 38.0354C45.0901 38.0059 45.1474 38.0097 45.1858 38.0445C45.2207 38.0762 45.2315 38.1258 45.2141 38.1683L45.208 38.1807ZM55.0917 47.9305L54.9681 47.9795C54.1452 48.3098 53.2578 48.4525 52.3704 48.3973C51.5421 48.3419 50.7489 48.037 50.0955 47.523C49.441 47.016 48.9165 46.2726 48.5222 45.2929L48.4905 45.2129C48.1616 44.3901 48.0553 43.4966 48.1824 42.6224C48.3129 41.7549 48.679 40.9414 49.2405 40.2698L49.2892 40.2126C49.9 39.482 50.757 38.905 51.8603 38.4817L51.9088 38.4637L51.9645 38.4443L52.0274 38.4233L52.0976 38.4009L52.2162 38.3648L52.351 38.3251L52.4499 38.2968L51.0669 34.754C51.0342 34.6702 51.0538 34.6143 51.1257 34.5866L53.3919 33.717C53.42 33.7014 53.4539 33.6999 53.4834 33.7129C53.5129 33.726 53.5346 33.7522 53.542 33.7835L57.691 44.412C57.7607 44.5905 57.8425 44.78 57.9366 44.9805L58.1523 45.4342L58.2754 45.6972C58.3098 45.7719 58.2948 45.8598 58.2377 45.9185C57.7482 46.3866 57.2098 46.8012 56.6317 47.155C56.1408 47.4556 55.6258 47.715 55.0917 47.9305ZM55.1948 45.3285L53.2783 40.4189C53.1708 40.4299 53.0644 40.4499 52.9604 40.4788C52.8331 40.5135 52.7077 40.5547 52.5847 40.6023C52.1465 40.7655 51.7537 41.0295 51.4379 41.3732C51.1308 41.7088 50.9167 42.1187 50.8166 42.5628C50.7148 43.0011 50.769 43.5017 50.9793 44.0644L51.0025 44.125C51.1468 44.5204 51.3631 44.8861 51.6406 45.2035C51.8653 45.4588 52.1425 45.6629 52.4532 45.8015C52.7473 45.9259 53.066 45.9806 53.3841 45.9613C53.721 45.9433 54.0527 45.8719 54.3666 45.7498C54.5344 45.6854 54.6879 45.6195 54.8272 45.5523C54.9387 45.4995 55.0451 45.4369 55.1453 45.3651L55.1948 45.3285Z" fill="#FF61F6"/>
<path d="M110.019 35.9633L126.605 45.2578C130.183 47.2628 131.442 51.6891 129.482 55.127L120.274 71.2802C118.314 74.7181 113.839 75.9312 110.262 73.9264L93.6755 64.6319C90.0978 62.6269 88.8383 58.2005 90.7982 54.7626L100.007 38.6094C101.967 35.1716 106.441 33.9584 110.019 35.9633Z" fill="#330000" stroke="white" stroke-width="2"/>
<path d="M107.972 57.544L103.133 54.8322L100.447 57.2555C100.356 57.355 100.208 57.3727 100.098 57.2943L97.6527 55.9239C97.5096 55.8437 97.5139 55.7458 97.6396 55.6156L108.524 46.2186C108.635 46.1138 108.753 45.9963 108.892 45.8735C109.096 45.6366 109.281 45.3724 109.44 45.0937C109.463 45.0231 109.551 44.9889 109.623 45.0126L109.662 45.0345L112.992 46.9007C113.096 46.959 113.127 47.0261 113.104 47.0968L110.412 62.8068C110.372 62.968 110.297 63.0094 110.167 62.9366L107.448 61.413C107.35 61.3747 107.295 61.2604 107.319 61.1571L107.972 57.544ZM105.353 52.6832L108.657 54.5348C108.731 54.225 108.807 53.85 108.878 53.455C108.956 53.0473 109.048 52.6143 109.148 52.1687C109.242 51.703 109.341 51.2573 109.435 50.7916C109.529 50.326 109.621 49.893 109.727 49.4672C109.825 49.0542 109.922 48.6738 110.004 48.3187L109.978 48.3041C109.55 48.7833 109.097 49.2479 108.604 49.6906C108.062 50.1893 107.506 50.7134 106.937 51.2303C106.386 51.7744 105.852 52.2605 105.353 52.6832Z" fill="#FF9A00"/>
<path d="M119.547 53.4989C119.111 53.271 118.788 52.8731 118.642 52.4067C118.524 51.9223 118.606 51.4168 118.864 50.9933C119.097 50.5553 119.497 50.2446 119.976 50.1281C120.454 50.0117 120.957 50.093 121.386 50.3336C121.893 50.6178 122.197 50.9886 122.317 51.4403C122.43 51.9047 122.355 52.3976 122.104 52.8084C121.871 53.2465 121.477 53.5771 120.984 53.7189C120.511 53.8553 119.975 53.7721 119.547 53.4989ZM111.821 63.6793L117.383 53.9241C117.455 53.7974 117.536 53.7758 117.653 53.8414L120.228 55.2848C120.345 55.3504 120.361 55.4429 120.296 55.5569L114.735 65.3122C114.656 65.4515 114.567 65.4858 114.45 65.4202L111.901 63.9914C111.771 63.9185 111.749 63.8061 111.821 63.6793Z" fill="#FF9A00"/>
<path d="M95.893 22.9623C102.079 24.2944 105.937 30.4235 104.534 36.6349L99.2664 59.9547C97.8633 66.1659 91.7236 70.1414 85.5373 68.8092L62.4016 63.8272C56.2156 62.4948 52.3588 56.3668 53.7616 50.1557L59.029 26.8359C60.432 20.6247 66.5711 16.6484 72.7574 17.9802L95.893 22.9623Z" fill="#242938" stroke="white" stroke-width="2"/>
<mask id="mask0_204_1925" style="mask-type:luminance" maskUnits="userSpaceOnUse" x="63" y="23" width="31" height="41">
<path d="M93.8412 28.438L71.4883 23.6777L63.4933 58.7282L85.8462 63.4885L93.8412 28.438Z" fill="white"/>
</mask>
<g mask="url(#mask0_204_1925)">
<path d="M69.0794 59.8545C72.1676 60.5119 75.2718 58.4255 76.0084 55.1972L77.3429 49.3488L71.7484 48.1578C68.6602 47.5004 65.5559 49.587 64.8193 52.8153C64.0827 56.0435 65.9912 59.1971 69.0794 59.8545Z" fill="#0ACF83"/>
<path d="M67.4502 41.1706C68.1868 37.9423 71.291 35.8558 74.3792 36.5132L79.9738 37.7042L77.3048 49.4008L71.7103 48.2099C68.6221 47.5524 66.7136 44.3989 67.4502 41.1706Z" fill="#A259FF"/>
<path d="M70.0797 29.528C70.8163 26.2997 73.9204 24.2132 77.0087 24.8705L82.6032 26.0614L79.9345 37.7581L74.3399 36.5673C71.2517 35.9099 69.3431 32.7563 70.0797 29.528Z" fill="#F24E1E"/>
<path d="M82.6567 26.1035L88.2512 27.2945C91.3394 27.9519 93.248 31.1055 92.5114 34.3338C91.7748 37.5621 88.6705 39.6486 85.5823 38.9912L79.9878 37.8002L82.6567 26.1035Z" fill="#FF7262"/>
<path d="M89.8791 45.9764C89.1425 49.2047 86.0381 51.2911 82.95 50.6337C79.8618 49.9763 77.9533 46.8227 78.6899 43.5944C79.4266 40.3661 82.5307 38.2796 85.6189 38.9371C88.7071 39.5945 90.6157 42.7481 89.8791 45.9764Z" fill="#1ABCFE"/>
</g>
<g filter="url(#filter0_d_204_1925)">
<path d="M64.8727 49H20.1377C15.7194 49 12.1377 52.5817 12.1377 57V84L12.1377 111C12.1377 115.418 15.7194 119 20.1377 119H134.138C138.556 119 142.138 115.418 142.138 111V69.494C142.138 65.0757 138.556 61.494 134.138 61.494H88.8123C87.2625 61.494 85.7461 61.0439 84.4473 60.1983L69.2376 50.2957C67.9389 49.4501 66.4224 49 64.8727 49Z" fill="url(#paint0_linear_204_1925)"/>
</g>
<path d="M40.2674 131.821L42.4201 131.821L42.4203 138.433C42.4203 139.176 42.243 139.825 41.8884 140.382C41.5371 140.939 41.0449 141.373 40.4119 141.685C39.7789 141.993 39.0414 142.147 38.1996 142.147C37.3544 142.147 36.6153 141.993 35.9822 141.685C35.3492 141.373 34.857 140.939 34.5056 140.382C34.1543 139.826 33.9786 139.176 33.9786 138.434L33.9783 131.821L36.131 131.821L36.1312 138.25C36.1313 138.637 36.2158 138.982 36.3848 139.284C36.5572 139.585 36.7991 139.822 37.1107 139.995C37.4223 140.167 37.7852 140.253 38.1995 140.253C38.6171 140.253 38.98 140.167 39.2883 139.994C39.5998 139.822 39.8401 139.585 40.0091 139.284C40.1815 138.982 40.2676 138.637 40.2676 138.249L40.2674 131.821ZM46.2097 131.821L48.2631 135.291L48.3426 135.291L50.4057 131.821L52.8368 131.821L49.7297 136.912L52.9068 142.003L50.4309 142.003L48.3427 138.528L48.2632 138.528L46.1752 142.003L43.7093 142.003L46.8959 136.912L43.7686 131.821L46.2097 131.821ZM58.5939 131.343L55.3131 143.534L53.4885 143.534L56.7693 131.343L58.5939 131.343ZM65.9432 131.82L68.0959 131.82L68.0961 138.432C68.0961 139.175 67.9188 139.824 67.5642 140.381C67.2129 140.938 66.7207 141.372 66.0877 141.684C65.4546 141.992 64.7172 142.146 63.8753 142.146C63.0302 142.146 62.2911 141.992 61.658 141.684C61.0249 141.373 60.5327 140.938 60.1814 140.382C59.83 139.825 59.6544 139.175 59.6543 138.433L59.6541 131.82L61.8068 131.82L61.807 138.249C61.807 138.636 61.8916 138.981 62.0606 139.283C62.233 139.584 62.4749 139.821 62.7865 139.994C63.098 140.166 63.461 140.252 63.8753 140.252C64.2929 140.252 64.6558 140.166 64.964 139.994C65.2756 139.821 65.5159 139.584 65.6849 139.283C65.8572 138.981 65.9434 138.636 65.9434 138.249L65.9432 131.82ZM72.0197 131.82L72.02 142.002L69.8673 142.002L69.867 131.82L72.0197 131.82ZM79.8056 142.126C79.2255 142.126 78.7002 141.977 78.2296 141.679C77.7622 141.377 77.391 140.934 77.1159 140.351C76.8441 139.765 76.7082 139.045 76.7081 138.194C76.7081 137.319 76.8489 136.591 77.1306 136.011C77.4123 135.428 77.7869 134.992 78.2542 134.703C78.7248 134.412 79.2402 134.266 79.8003 134.266C80.2279 134.266 80.5842 134.339 80.8692 134.485C81.1576 134.627 81.3896 134.806 81.5653 135.021C81.7442 135.234 81.8801 135.442 81.973 135.648L82.0376 135.648L82.0375 131.82L84.1504 131.82L84.1507 142.001L82.0627 142.002L82.0626 140.779L81.9731 140.779C81.8737 140.991 81.7328 141.201 81.5506 141.41C81.3716 141.615 81.1379 141.786 80.8496 141.922C80.5646 142.058 80.2165 142.126 79.8056 142.126ZM80.4767 140.441C80.8181 140.441 81.1064 140.348 81.3417 140.162C81.5803 139.973 81.7626 139.71 81.8886 139.372C82.0178 139.034 82.0824 138.637 82.0824 138.183C82.0824 137.729 82.0194 137.335 81.8935 137C81.7675 136.665 81.5852 136.407 81.3466 136.225C81.1079 136.042 80.8179 135.951 80.4765 135.951C80.1285 135.951 79.8352 136.046 79.5966 136.235C79.3579 136.424 79.1773 136.685 79.0547 137.02C78.9321 137.355 78.8708 137.743 78.8708 138.183C78.8708 138.628 78.9321 139.02 79.0548 139.362C79.1807 139.7 79.3614 139.965 79.5967 140.157C79.8353 140.346 80.1287 140.441 80.4767 140.441ZM85.892 142.001L85.8918 134.365L88.0097 134.365L88.0099 142.001L85.892 142.001ZM86.9557 133.381C86.6408 133.381 86.3707 133.276 86.1453 133.067C85.9232 132.855 85.8122 132.602 85.8122 132.307C85.8121 132.015 85.9232 131.765 86.1452 131.556C86.3706 131.344 86.6407 131.238 86.9556 131.238C87.2705 131.238 87.5389 131.344 87.761 131.556C87.9864 131.765 88.0991 132.015 88.0991 132.307C88.0991 132.602 87.9864 132.855 87.761 133.067C87.539 133.276 87.2705 133.381 86.9557 133.381ZM96.06 136.542L94.1211 136.662C94.0879 136.496 94.0167 136.347 93.9073 136.214C93.7979 136.078 93.6537 135.971 93.4747 135.891C93.2991 135.808 93.0886 135.767 92.8433 135.767C92.5152 135.767 92.2385 135.836 92.0131 135.976C91.7877 136.112 91.675 136.294 91.675 136.523C91.6751 136.705 91.748 136.859 91.8938 136.985C92.0396 137.111 92.2899 137.212 92.6445 137.288L94.0266 137.567C94.7691 137.719 95.3226 137.964 95.6872 138.302C96.0518 138.64 96.2341 139.084 96.2341 139.635C96.2341 140.135 96.0866 140.574 95.7917 140.952C95.5 141.33 95.099 141.625 94.5886 141.837C94.0815 142.046 93.4965 142.15 92.8336 142.15C91.8227 142.15 91.0173 141.94 90.4174 141.519C89.8208 141.095 89.4711 140.518 89.3683 139.789L91.4514 139.68C91.5144 139.988 91.6669 140.223 91.9088 140.385C92.1508 140.545 92.4607 140.624 92.8385 140.624C93.2097 140.624 93.508 140.553 93.7334 140.41C93.9621 140.264 94.0781 140.077 94.0814 139.848C94.0781 139.656 93.9969 139.499 93.8378 139.376C93.6787 139.25 93.4334 139.154 93.102 139.088L91.7795 138.824C91.0338 138.675 90.4786 138.417 90.114 138.049C89.7527 137.681 89.5721 137.212 89.5721 136.642C89.572 136.151 89.7046 135.729 89.9698 135.374C90.2382 135.02 90.6144 134.746 91.0983 134.554C91.5855 134.362 92.1556 134.265 92.8085 134.265C93.773 134.265 94.532 134.469 95.0855 134.877C95.6423 135.284 95.9672 135.84 96.06 136.542ZM99.7454 142.145C99.2582 142.145 98.824 142.061 98.4428 141.892C98.0616 141.719 97.76 141.466 97.5379 141.131C97.3192 140.793 97.2098 140.372 97.2098 139.868C97.2098 139.444 97.2876 139.088 97.4434 138.799C97.5992 138.511 97.8113 138.279 98.0798 138.103C98.3482 137.928 98.6531 137.795 98.9945 137.706C99.3392 137.616 99.7005 137.553 100.078 137.517C100.522 137.47 100.88 137.427 101.152 137.387C101.424 137.344 101.621 137.281 101.744 137.198C101.866 137.115 101.928 136.993 101.928 136.83L101.928 136.801C101.928 136.486 101.828 136.242 101.629 136.07C101.434 135.897 101.155 135.811 100.794 135.811C100.413 135.811 100.11 135.896 99.8844 136.065C99.659 136.231 99.5099 136.439 99.4369 136.691L97.4781 136.532C97.5776 136.068 97.7731 135.667 98.0647 135.329C98.3564 134.988 98.7326 134.726 99.1933 134.544C99.6573 134.358 100.194 134.265 100.804 134.265C101.228 134.265 101.634 134.315 102.022 134.414C102.413 134.514 102.76 134.668 103.061 134.877C103.366 135.085 103.606 135.354 103.782 135.682C103.958 136.007 104.046 136.396 104.046 136.85L104.046 142.001L102.037 142.001L102.037 140.942L101.978 140.942C101.855 141.181 101.691 141.391 101.485 141.573C101.28 141.752 101.033 141.893 100.745 141.996C100.456 142.095 100.123 142.145 99.7454 142.145ZM100.352 140.683C100.663 140.683 100.938 140.622 101.177 140.5C101.416 140.374 101.603 140.205 101.739 139.992C101.875 139.78 101.943 139.54 101.943 139.271L101.943 138.461C101.876 138.504 101.785 138.544 101.669 138.58C101.557 138.614 101.429 138.645 101.286 138.675C101.144 138.701 101.001 138.726 100.859 138.75C100.716 138.769 100.587 138.788 100.471 138.804C100.223 138.841 100.005 138.899 99.8198 138.978C99.6342 139.058 99.4901 139.166 99.3873 139.301C99.2846 139.434 99.2332 139.6 99.2332 139.799C99.2332 140.087 99.3376 140.307 99.5464 140.46C99.7586 140.609 100.027 140.683 100.352 140.683ZM105.689 142.001L105.689 134.364L107.807 134.364L107.807 142.001L105.689 142.001ZM106.753 133.38C106.438 133.38 106.168 133.276 105.942 133.067C105.72 132.855 105.609 132.601 105.609 132.306C105.609 132.015 105.72 131.764 105.942 131.555C106.167 131.343 106.438 131.237 106.752 131.237C107.067 131.237 107.336 131.343 107.558 131.555C107.783 131.764 107.896 132.014 107.896 132.306C107.896 132.601 107.783 132.855 107.558 133.067C107.336 133.276 107.067 133.38 106.753 133.38ZM111.621 137.586L111.621 142.001L109.503 142.001L109.503 134.364L111.522 134.364L111.522 135.712L111.611 135.712C111.78 135.267 112.063 134.916 112.461 134.658C112.859 134.396 113.341 134.265 113.908 134.265C114.438 134.265 114.901 134.381 115.295 134.613C115.689 134.845 115.996 135.176 116.215 135.607C116.434 136.035 116.543 136.545 116.543 137.138L116.543 142L114.425 142L114.425 137.516C114.428 137.049 114.309 136.684 114.067 136.422C113.825 136.157 113.492 136.025 113.068 136.025C112.783 136.025 112.531 136.086 112.312 136.209C112.097 136.331 111.928 136.51 111.805 136.746C111.686 136.978 111.624 137.258 111.621 137.586ZM118.212 142L118.212 134.364L120.33 134.364L120.33 142L118.212 142ZM119.276 133.38C118.961 133.38 118.691 133.275 118.466 133.066C118.244 132.854 118.132 132.601 118.132 132.306C118.132 132.014 118.243 131.764 118.466 131.555C118.691 131.343 118.961 131.237 119.276 131.237C119.591 131.237 119.859 131.343 120.081 131.555C120.307 131.764 120.419 132.014 120.419 132.306C120.419 132.601 120.307 132.854 120.081 133.066C119.859 133.275 119.591 133.38 119.276 133.38ZM18.3248 154.589L18.3249 159.004L16.207 159.004L16.2068 151.367L18.2253 151.367L18.2253 152.715L18.3148 152.715C18.4838 152.271 18.7672 151.919 19.1649 151.661C19.5626 151.399 20.0449 151.268 20.6116 151.268C21.1419 151.268 21.6043 151.384 21.9987 151.616C22.3931 151.848 22.6997 152.179 22.9185 152.61C23.1372 153.038 23.2466 153.548 23.2467 154.141L23.2468 159.004L21.1289 159.004L21.1288 154.519C21.1321 154.052 21.0127 153.687 20.7708 153.425C20.5288 153.16 20.1957 153.028 19.7715 153.028C19.4864 153.028 19.2345 153.089 19.0158 153.212C18.8004 153.334 18.6313 153.513 18.5087 153.749C18.3894 153.981 18.3281 154.261 18.3248 154.589ZM28.3663 159.153C27.5941 159.153 26.9262 158.988 26.3628 158.66C25.8026 158.329 25.3701 157.868 25.0651 157.278C24.7602 156.685 24.6077 155.997 24.6077 155.215C24.6076 154.426 24.7601 153.737 25.065 153.147C25.3699 152.554 25.8024 152.093 26.3625 151.765C26.926 151.433 27.5938 151.268 28.3661 151.268C29.1383 151.268 29.8045 151.433 30.3647 151.765C30.9281 152.093 31.3623 152.553 31.6673 153.147C31.9722 153.737 32.1247 154.426 32.1247 155.215C32.1247 155.997 31.9723 156.685 31.6674 157.278C31.3625 157.868 30.9283 158.329 30.3649 158.66C29.8048 158.988 29.1386 159.152 28.3663 159.153ZM28.3762 157.512C28.7275 157.512 29.0209 157.412 29.2562 157.214C29.4915 157.011 29.6688 156.736 29.7881 156.388C29.9107 156.04 29.972 155.644 29.972 155.2C29.972 154.756 29.9107 154.36 29.788 154.012C29.6687 153.664 29.4914 153.389 29.256 153.187C29.0207 152.984 28.7274 152.883 28.3761 152.883C28.0214 152.883 27.7231 152.984 27.4812 153.187C27.2425 153.389 27.0619 153.664 26.9393 154.012C26.82 154.36 26.7603 154.756 26.7604 155.2C26.7604 155.644 26.8201 156.04 26.9394 156.388C27.062 156.736 27.2427 157.011 27.4813 157.214C27.7233 157.412 28.0216 157.512 28.3762 157.512ZM36.9523 159.152C36.18 159.152 35.5121 158.988 34.9487 158.66C34.3885 158.329 33.956 157.868 33.6511 157.278C33.3461 156.685 33.1936 155.997 33.1936 155.215C33.1936 154.426 33.346 153.737 33.6509 153.147C33.9558 152.553 34.3883 152.093 34.9485 151.765C35.5119 151.433 36.1797 151.267 36.952 151.267C37.7242 151.267 38.3904 151.433 38.9506 151.764C39.514 152.092 39.9482 152.553 40.2532 153.146C40.5581 153.736 40.7106 154.426 40.7106 155.215C40.7107 155.997 40.5582 156.685 40.2533 157.278C39.9484 157.868 39.5143 158.329 38.9508 158.66C38.3907 158.988 37.7245 159.152 36.9523 159.152ZM36.9621 157.512C37.3135 157.512 37.6068 157.412 37.8421 157.213C38.0774 157.011 38.2547 156.736 38.374 156.388C38.4967 156.04 38.558 155.644 38.558 155.2C38.5579 154.756 38.4966 154.36 38.374 154.012C38.2546 153.664 38.0773 153.388 37.842 153.186C37.6066 152.984 37.3133 152.883 36.962 152.883C36.6074 152.883 36.3091 152.984 36.0671 153.186C35.8285 153.389 35.6479 153.664 35.5252 154.012C35.4059 154.36 35.3463 154.756 35.3463 155.2C35.3463 155.644 35.406 156.04 35.5253 156.388C35.648 156.736 35.8286 157.011 36.0673 157.213C36.3092 157.412 36.6075 157.512 36.9621 157.512ZM42.0879 159.003L42.0877 151.367L44.1409 151.366L44.141 152.699L44.2205 152.699C44.3597 152.225 44.5933 151.867 44.9215 151.625C45.2496 151.38 45.6274 151.257 46.055 151.257C46.161 151.257 46.2754 151.264 46.398 151.277C46.5207 151.29 46.6284 151.308 46.7212 151.332L46.7212 153.211C46.6218 153.181 46.4843 153.155 46.3086 153.131C46.1329 153.108 45.9722 153.097 45.8263 153.097C45.5148 153.097 45.2364 153.164 44.9911 153.3C44.7492 153.433 44.557 153.619 44.4144 153.857C44.2752 154.096 44.2056 154.371 44.2057 154.683L44.2058 159.003L42.0879 159.003ZM50.9411 159.152C50.1556 159.152 49.4794 158.993 48.9126 158.675C48.3492 158.353 47.915 157.899 47.61 157.312C47.3051 156.722 47.1526 156.025 47.1526 155.219C47.1526 154.434 47.305 153.744 47.6099 153.151C47.9148 152.558 48.344 152.095 48.8975 151.764C49.4543 151.433 50.1072 151.267 50.8563 151.267C51.3601 151.267 51.8291 151.348 52.2633 151.51C52.7008 151.669 53.0819 151.91 53.4068 152.231C53.7349 152.553 53.9901 152.957 54.1724 153.444C54.3547 153.928 54.4459 154.495 54.4459 155.145L54.4459 155.726L47.9978 155.726L47.9977 154.414L52.4523 154.414C52.4523 154.109 52.386 153.839 52.2534 153.603C52.1208 153.368 51.9368 153.184 51.7015 153.052C51.4695 152.916 51.1994 152.848 50.8911 152.848C50.5696 152.848 50.2846 152.922 50.036 153.072C49.7908 153.217 49.5986 153.415 49.4594 153.663C49.3202 153.908 49.2489 154.182 49.2456 154.483L49.2456 155.731C49.2457 156.109 49.3153 156.436 49.4545 156.711C49.597 156.986 49.7975 157.198 50.0561 157.347C50.3146 157.496 50.6212 157.571 50.9758 157.571C51.2111 157.571 51.4266 157.538 51.6221 157.471C51.8177 157.405 51.985 157.306 52.1242 157.173C52.2634 157.04 52.3695 156.878 52.4424 156.686L54.4012 156.815C54.3018 157.286 54.098 157.697 53.7898 158.048C53.4848 158.396 53.0904 158.668 52.6065 158.863C52.126 159.056 51.5708 159.152 50.9411 159.152ZM55.8281 159.002L55.8279 151.366L57.8464 151.366L57.8464 152.713L57.9359 152.713C58.095 152.266 58.3601 151.913 58.7313 151.654C59.1025 151.396 59.5466 151.267 60.0637 151.267C60.5874 151.266 61.0331 151.397 61.401 151.659C61.769 151.918 62.0142 152.269 62.1369 152.713L62.2164 152.713C62.3722 152.276 62.6539 151.926 63.0616 151.664C63.4725 151.399 63.9581 151.266 64.5182 151.266C65.2308 151.266 65.8092 151.493 66.2533 151.947C66.7008 152.398 66.9245 153.038 66.9246 153.866L66.9247 159.002L64.8118 159.002L64.8116 154.284C64.8116 153.86 64.6989 153.542 64.4735 153.33C64.2482 153.117 63.9664 153.011 63.6284 153.011C63.2439 153.011 62.9439 153.134 62.7285 153.379C62.5131 153.621 62.4054 153.941 62.4054 154.339L62.4056 159.002L60.3523 159.002L60.3521 154.24C60.3521 153.865 60.2444 153.567 60.0289 153.345C59.8168 153.123 59.5367 153.012 59.1887 153.012C58.9534 153.012 58.7413 153.071 58.5524 153.191C58.3668 153.307 58.2193 153.471 58.1099 153.683C58.0006 153.892 57.9459 154.137 57.9459 154.419L57.946 159.002L55.8281 159.002ZM74.9512 153.543L73.0123 153.662C72.9791 153.497 72.9079 153.348 72.7985 153.215C72.6891 153.079 72.5449 152.971 72.3659 152.892C72.1903 152.809 71.9798 152.768 71.7345 152.768C71.4064 152.768 71.1297 152.837 70.9043 152.976C70.6789 153.112 70.5662 153.295 70.5662 153.523C70.5662 153.706 70.6392 153.86 70.785 153.986C70.9308 154.112 71.1811 154.213 71.5357 154.289L72.9178 154.567C73.6603 154.72 74.2138 154.965 74.5784 155.303C74.943 155.641 75.1253 156.085 75.1253 156.635C75.1253 157.136 74.9778 157.575 74.6829 157.953C74.3912 158.331 73.9902 158.626 73.4798 158.838C72.9727 159.047 72.3877 159.151 71.7248 159.151C70.7139 159.151 69.9085 158.941 69.3086 158.52C68.712 158.096 68.3623 157.519 68.2595 156.79L70.3426 156.68C70.4056 156.988 70.5581 157.224 70.8 157.386C71.042 157.545 71.3519 157.625 71.7297 157.625C72.1009 157.625 72.3992 157.554 72.6246 157.411C72.8533 157.265 72.9693 157.078 72.9726 156.849C72.9693 156.657 72.8881 156.5 72.729 156.377C72.5699 156.251 72.3246 156.155 71.9932 156.089L70.6707 155.825C69.925 155.676 69.3698 155.417 69.0052 155.05C68.6439 154.682 68.4633 154.213 68.4633 153.643C68.4632 153.152 68.5958 152.73 68.8609 152.375C69.1294 152.02 69.5056 151.747 69.9895 151.555C70.4767 151.362 71.0468 151.266 71.6997 151.266C72.6642 151.266 73.4232 151.47 73.9767 151.878C74.5335 152.285 74.8584 152.84 74.9512 153.543ZM76.4591 161.865L76.4587 151.365L78.5468 151.365L78.5469 152.648L78.6413 152.648C78.7341 152.442 78.8683 152.234 79.044 152.022C79.223 151.806 79.455 151.627 79.74 151.485C80.0283 151.339 80.3863 151.266 80.8139 151.266C81.3707 151.266 81.8844 151.412 82.3551 151.703C82.8257 151.992 83.2019 152.427 83.4837 153.011C83.7654 153.591 83.9063 154.318 83.9063 155.193C83.9063 156.045 83.7688 156.764 83.4937 157.351C83.222 157.934 82.8508 158.377 82.3802 158.678C81.9128 158.977 81.3892 159.126 80.8091 159.126C80.3982 159.126 80.0485 159.058 79.7601 158.922C79.4751 158.786 79.2414 158.616 79.0591 158.41C78.8768 158.201 78.7376 157.991 78.6415 157.779L78.5769 157.779L78.577 161.865L76.4591 161.865ZM78.532 155.184C78.532 155.638 78.595 156.034 78.721 156.372C78.8469 156.71 79.0292 156.973 79.2679 157.162C79.5065 157.348 79.7965 157.441 80.1379 157.441C80.4826 157.441 80.7743 157.346 81.0129 157.157C81.2515 156.965 81.4322 156.7 81.5548 156.362C81.6807 156.02 81.7437 155.628 81.7437 155.183C81.7437 154.743 81.6823 154.355 81.5597 154.02C81.437 153.685 81.2564 153.423 81.0178 153.235C80.7791 153.046 80.4858 152.951 80.1378 152.951C79.7931 152.951 79.5014 153.042 79.2628 153.225C79.0275 153.407 78.8468 153.666 78.7209 154C78.595 154.335 78.532 154.729 78.532 155.184ZM88.7985 159.15C88.013 159.151 87.3368 158.991 86.7701 158.673C86.2066 158.352 85.7724 157.898 85.4675 157.311C85.1625 156.721 85.01 156.023 85.01 155.218C85.01 154.433 85.1624 153.743 85.4673 153.15C85.7722 152.557 86.2014 152.094 86.7549 151.763C87.3117 151.431 87.9647 151.266 88.7137 151.266C89.2175 151.266 89.6865 151.347 90.1207 151.509C90.5582 151.668 90.9394 151.908 91.2642 152.23C91.5923 152.551 91.8475 152.956 92.0298 153.443C92.2121 153.927 92.3033 154.494 92.3033 155.143L92.3034 155.725L85.8552 155.725L85.8552 154.413L90.3097 154.413C90.3097 154.108 90.2434 153.837 90.1108 153.602C89.9782 153.367 89.7943 153.183 89.5589 153.05C89.3269 152.914 89.0568 152.847 88.7486 152.847C88.4271 152.847 88.142 152.921 87.8935 153.07C87.6482 153.216 87.456 153.413 87.3168 153.662C87.1776 153.907 87.1063 154.181 87.103 154.482L87.1031 155.73C87.1031 156.108 87.1727 156.434 87.3119 156.709C87.4544 156.985 87.655 157.197 87.9135 157.346C88.172 157.495 88.4786 157.57 88.8332 157.57C89.0686 157.57 89.284 157.536 89.4795 157.47C89.6751 157.404 89.8425 157.304 89.9817 157.172C90.1209 157.039 90.2269 156.877 90.2998 156.685L92.2586 156.814C92.1592 157.284 91.9554 157.695 91.6472 158.047C91.3423 158.395 90.9479 158.667 90.464 158.862C89.9834 159.054 89.4282 159.15 88.7985 159.15ZM97.7471 151.365L97.7472 152.956L93.1484 152.956L93.1484 151.365L97.7471 151.365ZM94.1923 149.535L96.3102 149.535L96.3105 156.654C96.3105 156.85 96.3403 157.003 96.4 157.112C96.4597 157.218 96.5425 157.293 96.6486 157.336C96.758 157.379 96.8839 157.4 97.0264 157.4C97.1259 157.4 97.2253 157.392 97.3247 157.375C97.4241 157.355 97.5004 157.341 97.5534 157.331L97.8866 158.907C97.7805 158.94 97.6313 158.978 97.4391 159.021C97.2469 159.067 97.0132 159.096 96.7381 159.105C96.2277 159.125 95.7803 159.057 95.3958 158.902C95.0146 158.746 94.718 158.504 94.5058 158.176C94.2937 157.848 94.1893 157.433 94.1926 156.933L94.1923 149.535ZM105.385 153.542L103.446 153.661C103.413 153.496 103.341 153.346 103.232 153.214C103.123 153.078 102.979 152.97 102.8 152.891C102.624 152.808 102.413 152.767 102.168 152.767C101.84 152.767 101.563 152.836 101.338 152.975C101.113 153.111 101 153.294 101 153.522C101 153.705 101.073 153.859 101.219 153.985C101.364 154.111 101.615 154.212 101.969 154.288L103.351 154.566C104.094 154.719 104.647 154.964 105.012 155.302C105.377 155.64 105.559 156.084 105.559 156.634C105.559 157.135 105.411 157.574 105.116 157.952C104.825 158.33 104.424 158.625 103.913 158.837C103.406 159.046 102.821 159.15 102.158 159.15C101.148 159.15 100.342 158.94 99.7422 158.519C99.1456 158.095 98.7959 157.518 98.6931 156.789L100.776 156.679C100.839 156.987 100.992 157.223 101.234 157.385C101.476 157.544 101.785 157.624 102.163 157.624C102.535 157.624 102.833 157.552 103.058 157.41C103.287 157.264 103.403 157.077 103.406 156.848C103.403 156.656 103.322 156.498 103.163 156.376C103.003 156.25 102.758 156.154 102.427 156.088L101.104 155.824C100.359 155.675 99.8034 155.416 99.4388 155.049C99.0775 154.681 98.8969 154.212 98.8969 153.642C98.8968 153.151 99.0294 152.729 99.2945 152.374C99.563 152.019 99.9392 151.746 100.423 151.554C100.91 151.361 101.48 151.265 102.133 151.265C103.098 151.265 103.857 151.469 104.41 151.877C104.967 152.284 105.292 152.839 105.385 153.542ZM106.893 159.001L106.892 151.364L109.01 151.364L109.01 159.001L106.893 159.001ZM107.956 150.38C107.641 150.38 107.371 150.276 107.146 150.067C106.924 149.855 106.813 149.601 106.813 149.306C106.813 149.014 106.924 148.764 107.146 148.555C107.371 148.343 107.641 148.237 107.956 148.237C108.271 148.237 108.539 148.343 108.762 148.555C108.987 148.764 109.1 149.014 109.1 149.306C109.1 149.601 108.987 149.855 108.762 150.067C108.54 150.276 108.271 150.38 107.956 150.38ZM112.885 159.145C112.397 159.145 111.963 159.06 111.582 158.891C111.201 158.719 110.899 158.465 110.677 158.131C110.458 157.793 110.349 157.372 110.349 156.868C110.349 156.444 110.427 156.087 110.583 155.799C110.738 155.511 110.951 155.279 111.219 155.103C111.487 154.927 111.792 154.795 112.134 154.705C112.478 154.616 112.84 154.553 113.218 154.516C113.662 154.47 114.02 154.427 114.291 154.387C114.563 154.344 114.76 154.281 114.883 154.198C115.006 154.115 115.067 153.992 115.067 153.83L115.067 153.8C115.067 153.485 114.968 153.242 114.769 153.069C114.573 152.897 114.295 152.811 113.933 152.811C113.552 152.811 113.249 152.895 113.024 153.064C112.798 153.23 112.649 153.439 112.576 153.691L110.617 153.532C110.717 153.068 110.912 152.667 111.204 152.329C111.496 151.987 111.872 151.725 112.333 151.543C112.797 151.358 113.333 151.265 113.943 151.265C114.368 151.265 114.774 151.314 115.161 151.414C115.552 151.513 115.899 151.667 116.2 151.876C116.505 152.085 116.746 152.353 116.921 152.682C117.097 153.006 117.185 153.396 117.185 153.85L117.185 159L115.177 159L115.176 157.942L115.117 157.942C114.994 158.18 114.83 158.391 114.625 158.573C114.419 158.752 114.172 158.893 113.884 158.996C113.596 159.095 113.262 159.145 112.885 159.145ZM113.491 157.683C113.803 157.683 114.078 157.622 114.316 157.499C114.555 157.373 114.742 157.204 114.878 156.992C115.014 156.78 115.082 156.54 115.082 156.271L115.082 155.461C115.016 155.504 114.924 155.544 114.808 155.58C114.696 155.613 114.568 155.645 114.426 155.674C114.283 155.701 114.141 155.726 113.998 155.749C113.856 155.769 113.726 155.787 113.61 155.804C113.362 155.84 113.145 155.898 112.959 155.978C112.773 156.057 112.629 156.165 112.527 156.301C112.424 156.434 112.372 156.599 112.372 156.798C112.372 157.086 112.477 157.307 112.686 157.459C112.898 157.608 113.166 157.683 113.491 157.683ZM120.946 148.818L120.946 159L118.828 159L118.828 148.819L120.946 148.818ZM122.643 159L122.642 151.364L124.76 151.364L124.76 159L122.643 159ZM123.706 150.379C123.391 150.379 123.121 150.275 122.896 150.066C122.674 149.854 122.563 149.601 122.563 149.306C122.563 149.014 122.674 148.764 122.896 148.555C123.121 148.343 123.391 148.237 123.706 148.237C124.021 148.237 124.289 148.343 124.512 148.555C124.737 148.764 124.85 149.014 124.85 149.306C124.85 149.601 124.737 149.854 124.512 150.066C124.29 150.275 124.021 150.379 123.706 150.379ZM132.811 153.541L130.872 153.66C130.838 153.495 130.767 153.346 130.658 153.213C130.548 153.077 130.404 152.969 130.225 152.89C130.05 152.807 129.839 152.766 129.594 152.766C129.266 152.766 128.989 152.835 128.764 152.974C128.538 153.11 128.426 153.293 128.426 153.521C128.426 153.704 128.499 153.858 128.644 153.984C128.79 154.11 129.04 154.211 129.395 154.287L130.777 154.565C131.52 154.718 132.073 154.963 132.438 155.301C132.802 155.639 132.985 156.083 132.985 156.633C132.985 157.134 132.837 157.573 132.542 157.951C132.251 158.329 131.85 158.624 131.339 158.836C130.832 159.045 130.247 159.149 129.584 159.149C128.573 159.149 127.768 158.939 127.168 158.518C126.571 158.094 126.222 157.517 126.119 156.788L128.202 156.678C128.265 156.987 128.417 157.222 128.659 157.384C128.901 157.543 129.211 157.623 129.589 157.623C129.96 157.623 130.259 157.552 130.484 157.409C130.713 157.263 130.829 157.076 130.832 156.847C130.829 156.655 130.747 156.498 130.588 156.375C130.429 156.249 130.184 156.153 129.853 156.087L128.53 155.823C127.784 155.674 127.229 155.416 126.865 155.048C126.503 154.68 126.323 154.211 126.323 153.641C126.323 153.15 126.455 152.728 126.72 152.373C126.989 152.018 127.365 151.745 127.849 151.553C128.336 151.36 128.906 151.264 129.559 151.264C130.524 151.264 131.283 151.468 131.836 151.876C132.393 152.283 132.718 152.838 132.811 153.541ZM138.38 151.363L138.38 152.954L133.781 152.954L133.781 151.363L138.38 151.363ZM134.825 149.534L136.943 149.534L136.943 156.653C136.943 156.849 136.973 157.001 137.033 157.111C137.092 157.217 137.175 157.291 137.281 157.334C137.391 157.377 137.517 157.399 137.659 157.399C137.759 157.399 137.858 157.391 137.958 157.374C138.057 157.354 138.133 157.339 138.186 157.329L138.519 158.905C138.413 158.938 138.264 158.976 138.072 159.02C137.88 159.066 137.646 159.094 137.371 159.104C136.861 159.124 136.413 159.056 136.029 158.9C135.647 158.745 135.351 158.503 135.139 158.175C134.927 157.846 134.822 157.432 134.825 156.932L134.825 149.534Z" fill="#D8D8D8"/>
<defs>
<filter id="filter0_d_204_1925" x="0.137695" y="35" width="154" height="94" filterUnits="userSpaceOnUse" color-interpolation-filters="sRGB">
<feFlood flood-opacity="0" result="BackgroundImageFix"/>
<feColorMatrix in="SourceAlpha" type="matrix" values="0 0 0 0 0 0 0 0 0 0 0 0 0 0 0 0 0 0 127 0" result="hardAlpha"/>
<feOffset dy="-2"/>
<feGaussianBlur stdDeviation="6"/>
<feComposite in2="hardAlpha" operator="out"/>
<feColorMatrix type="matrix" values="0 0 0 0 0.0923839 0 0 0 0 0.169424 0 0 0 0 0.250995 0 0 0 0.25 0"/>
<feBlend mode="normal" in2="BackgroundImageFix" result="effect1_dropShadow_204_1925"/>
<feBlend mode="normal" in="SourceGraphic" in2="effect1_dropShadow_204_1925" result="shape"/>
</filter>
<linearGradient id="paint0_linear_204_1925" x1="77.1377" y1="49" x2="77.1377" y2="119" gradientUnits="userSpaceOnUse">
<stop stop-color="#DBACF1"/>
<stop offset="1" stop-color="#B583CD"/>
</linearGradient>
</defs>
</svg>
